<?xml version="1.0" encoding="UTF-8" standalone="no"?>
<!DOCTYPE svg PUBLIC "-//W3C//DTD SVG 1.1//EN" "http://www.w3.org/Graphics/SVG/1.1/DTD/svg11.dtd">
<svg width="100%" height="100%" viewBox="0 0 275 400" version="1.1" xmlns="http://www.w3.org/2000/svg" xmlns:xlink="http://www.w3.org/1999/xlink" xml:space="preserve" xmlns:serif="http://www.serif.com/" style="fill-rule:evenodd;clip-rule:evenodd;stroke-miterlimit:10;">
    <g transform="matrix(1,0,0,1,-801,-1300)">
        <g>
            <g id="layer0">
            </g>
        </g>
        <g id="centroidal" transform="matrix(1,0,0,1,-1674.9,104.331)">
            <g id="layer01" serif:id="layer0">
            </g>
        </g>
        <g transform="matrix(1.55556,0,0,1.55556,-2369.44,-974.151)">
            <g transform="matrix(1.2244,0,0,4.16667,2037.14,1089.2)">
                <g transform="matrix(0.52504,-0,-0,0.154286,0.821181,89.4601)">
                    <g>
                        <path d="M243.782,332.422L271.222,341.568L243.782,350.715L243.782,332.422Z" style="fill-rule:nonzero;"/>
                        <path d="M-1,341.568L249.27,341.568" style="fill:none;fill-rule:nonzero;stroke:black;stroke-width:4.21px;"/>
                    </g>
                </g>
            </g>
            <g transform="matrix(2.34394,0,0,15.2212,1931.95,551.815)">
                <g>
                    <rect x="70.028" y="59.999" width="14.221" height="14.221" style="fill-opacity:0.09;stroke:black;stroke-width:0.12px;stroke-linejoin:round;stroke-miterlimit:2;"/>
                </g>
            </g>
            <g transform="matrix(0.642857,0,0,0.642857,751.461,783.179)">
                <g transform="matrix(0.875,0,0,0.875,2092.95,1446.18)">
                    <g>
                        <g>
                            <path d="M26.727,-34.988L19.355,-5.379C19.147,-4.525 19.043,-3.706 19.043,-2.922C19.043,-1.347 19.555,-0.56 20.58,-0.56C21.881,-0.56 22.975,-1.926 23.861,-4.659C24.032,-5.24 24.237,-5.993 24.478,-6.916C24.75,-7.497 24.987,-7.804 25.19,-7.836C25.601,-7.836 25.806,-7.666 25.806,-7.324C25.806,-6.812 25.5,-5.617 24.886,-3.738C24.683,-3.156 24.478,-2.663 24.27,-2.257C23.314,-0.379 22.052,0.56 20.483,0.56C18.568,0.56 17.183,-0.259 16.329,-1.897C16.089,-2.308 15.918,-2.77 15.817,-3.282C13.666,-0.72 11.446,0.56 9.157,0.56C6.596,0.56 4.701,-0.6 3.474,-2.922C2.721,-4.288 2.345,-5.859 2.345,-7.636C2.345,-11.324 3.626,-14.739 6.187,-17.882C8.578,-20.748 11.174,-22.317 13.976,-22.589C14.216,-22.626 14.453,-22.645 14.688,-22.645C16.775,-22.645 18.346,-21.551 19.403,-19.363L22.477,-31.506L22.629,-32.53C22.629,-32.904 22.391,-33.144 21.916,-33.25C21.505,-33.352 20.889,-33.403 20.067,-33.403C19.32,-33.403 18.912,-33.608 18.842,-34.019C18.842,-34.595 19.08,-34.918 19.555,-34.988C22.767,-35.366 24.937,-35.556 26.063,-35.556C26.506,-35.556 26.727,-35.366 26.727,-34.988ZM16.073,-6.099L18.634,-16.137C18.736,-16.649 18.787,-16.94 18.787,-17.009C18.787,-17.725 18.48,-18.594 17.866,-19.619C17.114,-20.884 16.073,-21.516 14.744,-21.516C12.967,-21.516 11.276,-20.355 9.669,-18.034C9.365,-17.591 9.074,-17.113 8.797,-16.601C7.81,-14.616 6.974,-11.799 6.291,-8.148C6.083,-6.985 5.979,-6.062 5.979,-5.379C5.979,-3.058 6.63,-1.556 7.932,-0.872C8.306,-0.664 8.749,-0.56 9.261,-0.56C11.172,-0.56 13.101,-1.774 15.048,-4.202C15.529,-4.747 15.854,-5.31 16.025,-5.891L16.025,-5.939C16.057,-6.009 16.073,-6.062 16.073,-6.099Z" style="fill-rule:nonzero;"/>
                        </g>
                    </g>
                </g>
                <g transform="matrix(0.875,0,0,0.875,2116.28,1446.18)">
                    <g>
                        <g>
                            <path d="M17.41,-15.473L15.665,-8.453C15.083,-6.131 14.792,-4.629 14.792,-3.946C14.792,-2.169 15.425,-1.094 16.689,-0.72C16.961,-0.614 17.268,-0.56 17.61,-0.56C19.317,-0.56 20.873,-1.414 22.276,-3.122C23.194,-4.216 23.909,-5.6 24.422,-7.276C24.528,-7.65 24.752,-7.836 25.094,-7.836C25.5,-7.836 25.702,-7.666 25.702,-7.324C25.702,-6.47 25.174,-5.24 24.117,-3.634C22.271,-0.838 20.067,0.56 17.506,0.56C15.185,0.56 13.496,-0.411 12.439,-2.353C12.231,-2.663 12.076,-2.988 11.975,-3.33C11.158,-1.692 10.032,-0.547 8.597,0.104C7.946,0.408 7.279,0.56 6.596,0.56C4.547,0.56 3.114,-0.037 2.297,-1.233C1.956,-1.676 1.785,-2.204 1.785,-2.818C1.785,-4.082 2.329,-4.971 3.418,-5.483C3.797,-5.686 4.192,-5.787 4.603,-5.787C5.627,-5.787 6.241,-5.36 6.444,-4.507C6.476,-4.336 6.492,-4.165 6.492,-3.994C6.492,-2.836 5.913,-1.982 4.755,-1.433C4.547,-1.331 4.325,-1.265 4.09,-1.233C4.805,-0.784 5.659,-0.56 6.652,-0.56C8.461,-0.56 9.893,-1.774 10.95,-4.202C11.158,-4.715 11.348,-5.278 11.518,-5.891C13.359,-12.86 14.28,-16.924 14.28,-18.082C14.077,-20.201 13.157,-21.345 11.518,-21.516C9.741,-21.516 8.119,-20.611 6.652,-18.802L6.652,-18.747C6.652,-18.714 6.633,-18.698 6.596,-18.698C6.083,-18.015 5.622,-17.231 5.211,-16.345C5.04,-15.934 4.888,-15.523 4.755,-15.112L4.651,-14.808C4.581,-14.429 4.36,-14.24 3.986,-14.24C3.575,-14.24 3.37,-14.411 3.37,-14.752C3.37,-15.606 3.917,-16.836 5.011,-18.442C6.852,-21.244 9.053,-22.645 11.615,-22.645C14.245,-22.645 16.092,-21.345 17.153,-18.747C18.242,-20.865 19.694,-22.13 21.508,-22.541C21.849,-22.61 22.191,-22.645 22.532,-22.645C24.544,-22.645 25.961,-22.082 26.783,-20.956C27.124,-20.475 27.295,-19.91 27.295,-19.259C27.295,-17.861 26.663,-16.921 25.398,-16.441C25.089,-16.34 24.798,-16.289 24.526,-16.289C23.469,-16.289 22.837,-16.751 22.629,-17.674C22.597,-17.813 22.581,-17.949 22.581,-18.082C22.581,-19.107 23.077,-19.91 24.069,-20.491C24.374,-20.662 24.696,-20.782 25.038,-20.852C24.323,-21.295 23.469,-21.516 22.477,-21.516C20.155,-21.516 18.517,-19.707 17.562,-16.089C17.492,-15.881 17.442,-15.675 17.41,-15.473Z" style="fill-rule:nonzero;"/>
                        </g>
                    </g>
                </g>
            </g>
            <g transform="matrix(0.642857,0,0,0.642857,1429.92,625.646)">
                <text x="1111.83px" y="1484.52px" style="font-family:'Times-Italic', 'Times';font-style:italic;font-size:50px;">h</text>
            </g>
        </g>
    </g>
</svg>
