<?xml version="1.0" encoding="UTF-8" standalone="no"?>
<!DOCTYPE svg PUBLIC "-//W3C//DTD SVG 1.1//EN" "http://www.w3.org/Graphics/SVG/1.1/DTD/svg11.dtd">
<svg width="100%" height="100%" viewBox="0 0 612 736" version="1.1" xmlns="http://www.w3.org/2000/svg" xmlns:xlink="http://www.w3.org/1999/xlink" xml:space="preserve" xmlns:serif="http://www.serif.com/" style="fill-rule:evenodd;clip-rule:evenodd;stroke-linecap:round;stroke-linejoin:round;stroke-miterlimit:1.5;">
    <g transform="matrix(1,0,0,1,-151,-1135)">
        <g>
            <g id="layer0">
            </g>
        </g>
        <g id="centroidal" transform="matrix(1,0,0,1,-1674.9,104.331)">
            <g transform="matrix(1,0,0,1,1674.9,-104.331)">
                <rect x="250" y="1300" width="350" height="475" style="fill:rgb(235,235,235);stroke:black;stroke-width:6.25px;"/>
            </g>
            <g transform="matrix(1,0,0,0.9525,181.661,56.1693)">
                <g>
                    <g transform="matrix(4.16667,0,0,4.16667,1798.77,1089.2)">
                        <g>
                            <path d="M29.624,1.025L29.624,170.591" style="fill:none;fill-rule:nonzero;stroke:black;stroke-width:0.51px;stroke-linecap:butt;stroke-linejoin:miter;stroke-miterlimit:10;"/>
                        </g>
                    </g>
                    <g transform="matrix(4.16667,0,0,4.16667,1798.77,1089.2)">
                        <g>
                            <g>
                                <path d="M29.624,0.512L27.575,8.709L31.674,8.709" style="stroke:black;stroke-width:0.25px;stroke-linecap:butt;stroke-miterlimit:2;"/>
                            </g>
                        </g>
                    </g>
                </g>
                <g transform="matrix(1,0,0,1,-177.752,0)">
                    <g transform="matrix(4.16667,0,0,4.16667,1798.77,1089.2)">
                        <g>
                            <path d="M29.624,1.025L29.624,170.591" style="fill:none;fill-rule:nonzero;stroke:black;stroke-width:0.51px;stroke-linecap:butt;stroke-linejoin:miter;stroke-miterlimit:10;"/>
                        </g>
                    </g>
                    <g transform="matrix(4.16667,0,0,4.16667,1798.77,1089.2)">
                        <g>
                            <g>
                                <path d="M29.624,0.512L27.575,8.709L31.674,8.709" style="stroke:black;stroke-width:0.25px;stroke-linecap:butt;stroke-miterlimit:2;"/>
                            </g>
                        </g>
                    </g>
                </g>
            </g>
            <g transform="matrix(0.923544,0,0,1,160.549,-246.077)">
                <g transform="matrix(4.16667,0,0,4.16667,1800.9,1089.2)">
                    <g>
                        <path d="M0.296,142.159L143.224,142.159" style="fill:none;fill-rule:nonzero;stroke:black;stroke-width:0.51px;stroke-linecap:butt;stroke-linejoin:miter;stroke-miterlimit:10;"/>
                    </g>
                </g>
                <g transform="matrix(4.16667,0,0,4.16667,1798.77,1089.2)">
                    <g>
                        <path d="M143.736,142.159L135.539,140.11L135.539,144.208" style="stroke:black;stroke-width:0.25px;stroke-linecap:butt;stroke-miterlimit:2;"/>
                    </g>
                </g>
            </g>
            <g transform="matrix(0.923544,0,0,1,160.549,-11.3071)">
                <g transform="matrix(4.16667,0,0,4.16667,1800.9,1089.2)">
                    <g>
                        <path d="M0.296,142.159L143.224,142.159" style="fill:none;fill-rule:nonzero;stroke:black;stroke-width:0.51px;stroke-linecap:butt;stroke-linejoin:miter;stroke-miterlimit:10;"/>
                    </g>
                </g>
                <g transform="matrix(4.16667,0,0,4.16667,1798.77,1089.2)">
                    <g>
                        <path d="M143.736,142.159L135.539,140.11L135.539,144.208" style="stroke:black;stroke-width:0.25px;stroke-linecap:butt;stroke-miterlimit:2;"/>
                    </g>
                </g>
            </g>
            <g id="layer01" serif:id="layer0" transform="matrix(4.16667,0,0,4.16667,1798.77,1078.79)">
                <g transform="matrix(1,0,0,1,-41.6969,57.169)">
                    <g>
                        <path d="M116.969,28.432C116.969,29.563 116.052,30.481 114.92,30.481C113.788,30.481 112.871,29.563 112.871,28.432C112.871,27.3 113.788,26.383 114.92,26.383C116.052,26.383 116.969,27.3 116.969,28.432Z" style="fill:none;fill-rule:nonzero;stroke:black;stroke-width:0.51px;stroke-miterlimit:10;"/>
                    </g>
                    <g>
                        <g>
                            <path d="M116.969,28.432C116.969,29.563 116.052,30.481 114.92,30.481C113.788,30.481 112.871,29.563 112.871,28.432C112.871,27.3 113.788,26.383 114.92,26.383C116.052,26.383 116.969,27.3 116.969,28.432Z" style="fill-rule:nonzero;stroke:black;stroke-width:0.24px;stroke-linecap:butt;stroke-miterlimit:2;"/>
                        </g>
                    </g>
                </g>
            </g>
        </g>
        <g transform="matrix(1,0,0,1,43.75,40.625)">
            <text x="262.5px" y="1227.83px" style="font-family:'Times-Italic', 'Times';font-style:italic;font-size:50px;">b/2</text>
        </g>
        <g transform="matrix(1,0,0,1,207.728,40.625)">
            <text x="262.5px" y="1227.83px" style="font-family:'Times-Italic', 'Times';font-style:italic;font-size:50px;">b/2</text>
        </g>
        <g transform="matrix(1,0,0,1,365.625,137.5)">
            <text x="262.5px" y="1296.58px" style="font-family:'Times-Italic', 'Times';font-style:italic;font-size:50px;">h/2</text>
        </g>
        <g transform="matrix(1,0,0,1,365.625,379.5)">
            <text x="262.5px" y="1296.58px" style="font-family:'Times-Italic', 'Times';font-style:italic;font-size:50px;">h/2</text>
        </g>
        <g transform="matrix(1,0,0,1,52.0833,29.1667)">
            <text x="654.167px" y="1759.08px" style="font-family:'Times-Italic', 'Times';font-style:italic;font-size:50px;">x</text>
        </g>
        <g transform="matrix(1,0,0,1,58.3333,20.8333)">
            <text x="650px" y="1530.22px" style="font-family:'Times-Italic', 'Times';font-style:italic;font-size:50px;">x</text>
            <text x="672.192px" y="1530.22px" style="font-family:'LucidaGrande', 'Lucida Grande', sans-serif;font-weight:500;font-size:50px;">′</text>
        </g>
        <g transform="matrix(1,0,0,1,-229.167,-350)">
            <text x="650px" y="1530.22px" style="font-family:'Times-Italic', 'Times';font-style:italic;font-size:50px;">y</text>
            <text x="672.192px" y="1530.22px" style="font-family:'LucidaGrande', 'Lucida Grande', sans-serif;font-weight:500;font-size:50px;">′</text>
        </g>
        <g transform="matrix(1,0,0,1,-4.16667,-16.6667)">
            <text x="245.833px" y="1196.58px" style="font-family:'Times-Italic', 'Times';font-style:italic;font-size:50px;">y</text>
        </g>
    </g>
</svg>
