<?xml version="1.0" encoding="UTF-8" standalone="no"?>
<!DOCTYPE svg PUBLIC "-//W3C//DTD SVG 1.1//EN" "http://www.w3.org/Graphics/SVG/1.1/DTD/svg11.dtd">
<svg width="100%" height="100%" viewBox="0 0 66 39" version="1.1" xmlns="http://www.w3.org/2000/svg" xmlns:xlink="http://www.w3.org/1999/xlink" xml:space="preserve" xmlns:serif="http://www.serif.com/" style="fill-rule:evenodd;clip-rule:evenodd;stroke-linecap:round;stroke-linejoin:round;stroke-miterlimit:1.5;">
    <g id="screw_resultant" transform="matrix(0.919016,0,0,0.719266,-161.563,-98.5589)">
        <rect x="175.8" y="137.027" width="70.934" height="52.961" style="fill:none;"/>
        <g transform="matrix(1.58744,0,0,2.10723,-136.694,-193.188)">
            <path d="M200.126,159.75L239.876,179.962" style="fill:none;stroke:black;stroke-width:0.3px;stroke-dasharray:1.51,1.51,1.51,1.51;"/>
        </g>
        <g transform="matrix(0.503591,-1.23245,0.964574,0.643445,-14.5228,665.885)">
            <g transform="matrix(0,0.24,-0.24,0,515.143,-9.12839)">
                <path d="M59,413L177,413" style="fill:none;fill-rule:nonzero;stroke:rgb(221,0,0);stroke-width:3.3px;stroke-miterlimit:10;"/>
            </g>
            <g transform="matrix(0.24,0,0,-0.24,387.703,141.112)">
                <path d="M124,472L124,471L123,470L123,469L122,468L122,467L121,466L121,464L120,463L120,460L119,459L119,455L118,454L118,449L118,455L117,456L117,460L116,461L116,463L115,464L115,466L114,467L114,469L113,469L113,470L112,471L112,472" style="fill:none;fill-rule:nonzero;stroke:rgb(221,0,0);stroke-width:3.3px;stroke-miterlimit:10;"/>
            </g>
        </g>
        <g transform="matrix(0.966036,0.639854,-0.500781,1.23432,89.0031,-172.223)">
            <rect x="204.669" y="161.147" width="3.195" height="4.181" style="fill:white;"/>
        </g>
        <g transform="matrix(0.964042,0.192966,-0.16295,1.32903,35.1537,-95.614)">
            <g transform="matrix(0.13426,-0.289509,-0.133271,-0.0618043,256.481,228.696)">
                <path d="M106.636,444.845C96.452,450.724 90.159,461.625 90.158,473.384C90.159,485.143 96.453,496.045 106.636,501.925C116.82,507.804 129.407,507.804 139.591,501.925C149.775,496.045 156.069,485.144 156.069,473.385" style="fill:none;fill-rule:nonzero;stroke:rgb(221,0,0);stroke-width:3.29px;stroke-miterlimit:10;"/>
            </g>
            <g transform="matrix(1,0,0,1,56.5533,6.36969)">
                <path d="M154.843,164.027C153.957,164.839 153.285,164.843 152.045,164.951" style="fill:none;stroke:rgb(225,32,32);stroke-width:0.91px;"/>
            </g>
            <g transform="matrix(1,0,0,1,58.9703,8.46446)">
                <path d="M152.732,161.932C152.012,162.472 151.505,163.931 151.315,164.844" style="fill:none;stroke:rgb(225,32,32);stroke-width:0.91px;"/>
            </g>
        </g>
    </g>
</svg>
