<?xml version="1.0" standalone="no"?>
<!DOCTYPE svg PUBLIC "-//W3C//DTD SVG 20010904//EN"
 "http://www.w3.org/TR/2001/REC-SVG-20010904/DTD/svg10.dtd">
<svg version="1.0" xmlns="http://www.w3.org/2000/svg"
 width="700.000000pt" height="700.000000pt" viewBox="0 0 700.000000 700.000000"
 preserveAspectRatio="xMidYMid meet">
<metadata>
Created by potrace 1.14, written by Peter Selinger 2001-2017
</metadata>
<g transform="translate(0.000000,700.000000) scale(0.100000,-0.100000)"
fill="#000000" stroke="none">
<path d="M9 6977 c16 -40 522 -1252 531 -1272 15 -32 221 -525 242 -580 32
-81 20 -84 169 47 15 13 50 43 79 68 29 25 66 57 84 72 17 16 33 28 36 28 3 0
23 -21 45 -47 41 -49 516 -595 564 -648 14 -16 53 -61 86 -100 33 -38 62 -72
65 -75 5 -4 357 -408 547 -626 29 -34 53 -66 53 -72 0 -6 -7 -23 -15 -39 -49
-94 -67 -173 -64 -282 2 -98 11 -143 44 -225 13 -33 21 -65 17 -72 -4 -6 -30
-38 -58 -70 -65 -74 -245 -283 -304 -353 -25 -29 -54 -63 -65 -75 -11 -12 -42
-49 -70 -81 -27 -33 -66 -77 -86 -100 -20 -22 -109 -125 -199 -230 -467 -544
-564 -655 -572 -655 -5 0 -82 63 -171 140 -156 135 -162 139 -173 117 -7 -12
-177 -425 -379 -917 -202 -492 -371 -903 -376 -913 -9 -15 -4 -17 44 -17 51 0
65 6 223 101 93 56 183 109 199 119 82 47 363 214 385 229 24 16 425 256 493
295 101 58 404 241 414 250 10 9 -12 32 -95 103 -148 126 -153 130 -190 164
l-32 31 29 36 c16 21 38 46 48 57 23 26 74 85 135 156 25 29 54 64 65 75 16
19 45 52 126 148 10 11 40 46 67 76 26 30 121 141 211 245 249 289 419 487
448 520 14 17 53 62 86 100 33 39 72 83 87 100 14 16 34 40 45 53 18 22 19 22
85 8 266 -56 549 83 668 328 12 26 27 46 33 47 21 1 568 8 1025 13 l442 4 1
-67 c3 -293 5 -365 14 -368 10 -3 181 55 735 247 287 100 546 189 580 200 14
4 138 47 275 95 138 48 265 92 283 98 26 8 32 16 32 38 0 31 43 14 -425 164
-148 47 -295 94 -325 104 -30 11 -156 51 -280 91 -124 39 -250 80 -280 90 -30
10 -156 50 -280 90 -124 39 -242 78 -263 86 -81 31 -77 42 -74 -203 l2 -218
-90 -1 c-49 -1 -382 -5 -740 -8 l-650 -7 -18 41 c-30 65 -101 152 -166 203
-32 26 -63 47 -67 47 -4 0 -15 6 -23 13 -22 19 -125 54 -190 66 -57 9 -137 8
-213 -4 -53 -8 -45 -14 -128 85 -30 36 -57 67 -60 70 -3 3 -86 97 -184 210
-98 113 -193 221 -210 240 -18 19 -77 87 -131 150 -55 63 -102 117 -105 120
-3 3 -30 34 -60 70 -30 36 -62 72 -70 80 -8 8 -40 44 -70 80 -30 36 -59 70
-65 76 -20 22 -72 81 -207 236 -76 86 -138 161 -138 167 0 5 4 11 9 13 5 2 29
21 53 43 24 22 75 67 113 100 39 33 72 62 75 65 3 3 22 19 42 37 l38 32 -148
87 c-81 47 -181 107 -222 131 -41 25 -133 79 -205 121 -71 41 -154 90 -183
108 -29 19 -54 34 -56 34 -2 0 -185 107 -407 238 -222 131 -435 256 -472 278
-38 21 -82 47 -98 56 -28 17 -28 17 -20 -5z"/>
</g>
</svg>
