<?xml version="1.0" encoding="UTF-8" standalone="no"?>
<!DOCTYPE svg PUBLIC "-//W3C//DTD SVG 1.1//EN" "http://www.w3.org/Graphics/SVG/1.1/DTD/svg11.dtd">
<svg width="100%" height="100%" viewBox="0 0 501 299" version="1.1" xmlns="http://www.w3.org/2000/svg" xmlns:xlink="http://www.w3.org/1999/xlink" xml:space="preserve" xmlns:serif="http://www.serif.com/" style="fill-rule:evenodd;clip-rule:evenodd;">
    <g transform="matrix(1,0,0,1,-2599,-952)">
        <g id="simple-beam-shear" transform="matrix(1.05139,0,0,1,2769.83,1096.25)">
            <rect x="-162.42" y="-143.677" width="475.562" height="298" style="fill:none;"/>
            <clipPath id="_clip1">
                <rect x="-162.42" y="-143.677" width="475.562" height="298"/>
            </clipPath>
            <g clip-path="url(#_clip1)">
                <g transform="matrix(0.88519,0,0,0.744231,-1894.07,-1294.82)">
                    <g transform="matrix(1.07448,0,0,1.34367,1972.2,1547.86)">
                        <path id="jsxgraph1_jxgBoard5612907L3" d="M4,148.5L465,148.5" style="fill:none;fill-rule:nonzero;stroke:rgb(102,102,102);stroke-width:1px;"/>
                        <path id="jsxgraph1_jxgBoard5612907L3_ticks_1" d="M102.214,0L102.214,297M170.357,0L170.357,297M238.5,0L238.5,297M306.643,0L306.643,297M374.786,0L374.786,297M442.929,0L442.929,297" style="fill:none;stroke:rgb(102,102,102);stroke-opacity:0.25;stroke-width:1px;stroke-linecap:round;stroke-linejoin:round;"/>
                        <path id="jsxgraph1_jxgBoard5612907L13" d="M34.071,293L34.071,12" style="fill:none;fill-rule:nonzero;stroke:rgb(102,102,102);stroke-width:1px;"/>
                        <path id="jsxgraph1_jxgBoard5612907L13_ticks_1" d="M34.071,113.143L477,113.143M34.071,77.786L477,77.786M34.071,42.429L477,42.429M34.071,183.857L477,183.857M34.071,219.214L477,219.214M34.071,254.571L477,254.571M34.071,289.929L477,289.929" style="fill:none;stroke:rgb(102,102,102);stroke-opacity:0.25;stroke-width:1px;stroke-linecap:round;stroke-linejoin:round;"/>
                    </g>
                    <g transform="matrix(1.07448,0,0,1.34367,1972.2,1547.86)">
                        <path id="jsxgraph1_curve" d="M34.071,42.429L169.825,148.086M170.361,166.179L306.177,166.179M306.645,183.857L442.33,183.857" style="fill-opacity:0;stroke:rgb(204,1,0);stroke-width:3px;stroke-linecap:round;stroke-linejoin:round;"/>
                    </g>
                    <g transform="matrix(1.07448,0,0,1.34367,1972.2,1547.86)">
                        <path id="jsxgraph1_Jump-0" d="M34.071,42.429L34.071,148.5" style="fill:none;fill-rule:nonzero;stroke:rgb(204,1,0);stroke-width:3px;"/>
                        <path id="jsxgraph1_Jump-1" d="M170.357,166.179L170.357,148.5" style="fill:none;fill-rule:nonzero;stroke:rgb(204,1,0);stroke-width:3px;"/>
                        <path id="jsxgraph1_Jump-2" d="M306.643,183.857L306.643,166.179" style="fill:none;fill-rule:nonzero;stroke:rgb(204,1,0);stroke-width:3px;"/>
                        <path id="jsxgraph1_Jump-3" d="M442.929,148.5L442.929,183.857" style="fill:none;fill-rule:nonzero;stroke:rgb(204,1,0);stroke-width:3px;"/>
                    </g>
                    <g transform="matrix(1.07448,0,0,1.34367,1972.2,1547.86)">
                        <g id="jsxgraph1_jxgBoard5612907L3_ticks_11Label1" transform="matrix(1,0,0,1,102.214,153.3)">
                            <text x="-3.337px" y="0px" style="font-family:'Helvetica';font-size:12px;">2</text>
                        </g>
                        <g id="jsxgraph1_jxgBoard5612907L3_ticks_12Label2" transform="matrix(1,0,0,1,170.357,153.3)">
                            <text x="-3.337px" y="0px" style="font-family:'Helvetica';font-size:12px;">4</text>
                        </g>
                        <g id="jsxgraph1_jxgBoard5612907L3_ticks_13Label3" transform="matrix(1,0,0,1,238.5,153.3)">
                            <text x="-3.337px" y="0px" style="font-family:'Helvetica';font-size:12px;">6</text>
                        </g>
                        <g id="jsxgraph1_jxgBoard5612907L3_ticks_14Label4" transform="matrix(1,0,0,1,306.643,153.3)">
                            <text x="-3.337px" y="0px" style="font-family:'Helvetica';font-size:12px;">8</text>
                        </g>
                        <g id="jsxgraph1_jxgBoard5612907L3_ticks_15Label5" transform="matrix(1,0,0,1,374.786,153.3)">
                            <text x="-6.674px" y="0px" style="font-family:'Helvetica';font-size:12px;">10</text>
                        </g>
                        <g id="jsxgraph1_jxgBoard5612907L3_ticks_16Label6" transform="matrix(1,0,0,1,442.929,153.3)">
                            <text x="-6.674px" y="0px" style="font-family:'Helvetica';font-size:12px;">12</text>
                        </g>
                        <g id="jsxgraph1_jxgBoard5612907L13_ticks_11Label1" transform="matrix(1,0,0,1,30.0714,117.943)">
                            <text x="-13.348px" y="0px" style="font-family:'Helvetica';font-size:12px;">20</text>
                        </g>
                        <g id="jsxgraph1_jxgBoard5612907L13_ticks_12Label2" transform="matrix(1,0,0,1,30.0714,82.5857)">
                            <text x="-13.348px" y="0px" style="font-family:'Helvetica';font-size:12px;">40</text>
                        </g>
                        <g id="jsxgraph1_jxgBoard5612907L13_ticks_13Label3" transform="matrix(1,0,0,1,30.0714,47.2286)">
                            <text x="-13.348px" y="0px" style="font-family:'Helvetica';font-size:12px;">60</text>
                        </g>
                        <g id="jsxgraph1_jxgBoard5612907L13_ticks_14Label4" transform="matrix(1,0,0,1,30.0714,188.657)">
                            <text x="-20.355px" y="0px" style="font-family:'Helvetica';font-size:12px;">−20</text>
                        </g>
                        <g id="jsxgraph1_jxgBoard5612907L13_ticks_15Label5" transform="matrix(1,0,0,1,30.0714,224.014)">
                            <text x="-20.355px" y="0px" style="font-family:'Helvetica';font-size:12px;">−40</text>
                        </g>
                        <g id="jsxgraph1_jxgBoard5612907L13_ticks_16Label6" transform="matrix(1,0,0,1,30.0714,259.371)">
                            <text x="-20.355px" y="0px" style="font-family:'Helvetica';font-size:12px;">−60</text>
                        </g>
                        <g id="jsxgraph1_jxgBoard5612907L13_ticks_17Label7" transform="matrix(1,0,0,1,30.0714,294.729)">
                            <text x="-20.355px" y="0px" style="font-family:'Helvetica';font-size:12px;">−80</text>
                        </g>
                        <circle id="jsxgraph1_Point-JA-0" cx="34.071" cy="42.429" r="3" style="fill:white;stroke:rgb(204,1,0);stroke-width:2px;"/>
                        <circle id="jsxgraph1_Point-JB-0" cx="34.071" cy="148.5" r="3" style="fill:white;stroke:rgb(204,1,0);stroke-width:2px;"/>
                        <circle id="jsxgraph1_Point-JA-1" cx="170.357" cy="166.179" r="3" style="fill:white;stroke:rgb(204,1,0);stroke-width:2px;"/>
                        <circle id="jsxgraph1_Point-JB-1" cx="170.357" cy="148.5" r="3" style="fill:white;stroke:rgb(204,1,0);stroke-width:2px;"/>
                        <circle id="jsxgraph1_Point-JA-2" cx="306.643" cy="183.857" r="3" style="fill:white;stroke:rgb(204,1,0);stroke-width:2px;"/>
                        <circle id="jsxgraph1_Point-JB-2" cx="306.643" cy="166.179" r="3" style="fill:white;stroke:rgb(204,1,0);stroke-width:2px;"/>
                        <circle id="jsxgraph1_Point-JA-3" cx="442.929" cy="148.5" r="3" style="fill:white;stroke:rgb(204,1,0);stroke-width:2px;"/>
                        <circle id="jsxgraph1_Point-JB-3" cx="442.929" cy="183.857" r="3" style="fill:white;stroke:rgb(204,1,0);stroke-width:2px;"/>
                    </g>
                </g>
                <g transform="matrix(0.951123,0,0,1,-2558.62,-1313.96)">
                    <g transform="matrix(12.5,0,0,12.5,2697.01,1341.76)">
                    </g>
                    <text x="2678.94px" y="1341.76px" style="font-family:'ArialMT', 'Arial', sans-serif;font-size:12.5px;fill:rgb(204,1,0);">-10</text>
                </g>
            </g>
        </g>
    </g>
</svg>
