<?xml version="1.0" encoding="UTF-8" standalone="no"?>
<!DOCTYPE svg PUBLIC "-//W3C//DTD SVG 1.1//EN" "http://www.w3.org/Graphics/SVG/1.1/DTD/svg11.dtd">
<svg width="100%" height="100%" viewBox="0 0 300 300" version="1.1" xmlns="http://www.w3.org/2000/svg" xmlns:xlink="http://www.w3.org/1999/xlink" xml:space="preserve" xmlns:serif="http://www.serif.com/" style="fill-rule:evenodd;clip-rule:evenodd;stroke-linecap:round;stroke-linejoin:round;stroke-miterlimit:1.5;">
    <rect id="_2d-moment-prob" serif:id="2d-moment-prob" x="0" y="0" width="300" height="300" style="fill:none;"/>
    <g id="_2d-moment-prob1" serif:id="2d-moment-prob">
        <g>
            <g>
                <g transform="matrix(0.235482,-8.7062e-16,-1.14265e-15,0.617764,124.314,14.8931)">
                    <g transform="matrix(4.24661,5.98478e-15,7.85474e-15,1.61874,-527.911,-24.1081)">
                        <path d="M143,39L140,30L137,39L143,39Z" style="fill:rgb(102,102,102);"/>
                        <path d="M140,37.2L140,230" style="fill:none;stroke:rgb(102,102,102);stroke-width:1px;"/>
                    </g>
                </g>
                <g transform="matrix(-0.451339,-0.00067331,0.000883181,0.308885,289.757,32.4904)">
                    <g transform="matrix(-2.21564,-0.00482968,0.00633509,3.23747,641.791,-103.787)">
                        <path d="M250.991,143.346L260,140.374L251.009,137.346L250.991,143.346Z" style="fill:rgb(102,102,102);"/>
                        <path d="M252.8,140.352C213.84,140.23 30,139.657 30,139.657" style="fill:none;stroke:rgb(102,102,102);stroke-width:1px;"/>
                    </g>
                </g>
                <g transform="matrix(1,0,0,1,-1039.67,-177.206)">
                    <g transform="matrix(14,0,0,14,1299.67,329.721)">
                    </g>
                    <text x="1292.67px" y="329.721px" style="font-family:'TimesNewRomanPSMT', 'Times New Roman', serif;font-size:14px;fill:rgb(102,102,102);">x</text>
                </g>
                <g transform="matrix(1,0,0,1,-1151.67,-292.612)">
                    <g transform="matrix(14,0,0,14,1286.67,329.721)">
                    </g>
                    <text x="1279.67px" y="329.721px" style="font-family:'TimesNewRomanPSMT', 'Times New Roman', serif;font-size:14px;fill:rgb(102,102,102);">y</text>
                </g>
                <g transform="matrix(1,0,0,0.366516,10,90.5203)">
                    <path d="M90,135L90,145.914" style="fill:none;stroke:rgb(102,102,102);stroke-width:1.33px;stroke-linecap:butt;"/>
                </g>
                <g transform="matrix(1,0,0,0.366516,130,90.5203)">
                    <path d="M90,135L90,145.914" style="fill:none;stroke:rgb(102,102,102);stroke-width:1.33px;stroke-linecap:butt;"/>
                </g>
                <g transform="matrix(1,0,0,0.366516,-10,90.5203)">
                    <path d="M90,135L90,145.914" style="fill:none;stroke:rgb(102,102,102);stroke-width:1.33px;stroke-linecap:butt;"/>
                </g>
                <g transform="matrix(1,0,0,0.366516,110,90.5203)">
                    <path d="M90,135L90,145.914" style="fill:none;stroke:rgb(102,102,102);stroke-width:1.33px;stroke-linecap:butt;"/>
                </g>
                <g transform="matrix(1,0,0,0.366516,-30,90.5203)">
                    <path d="M90,135L90,145.914" style="fill:none;stroke:rgb(102,102,102);stroke-width:1.33px;stroke-linecap:butt;"/>
                </g>
                <g transform="matrix(1,0,0,0.366516,90,90.5203)">
                    <path d="M90,135L90,145.914" style="fill:none;stroke:rgb(102,102,102);stroke-width:1.33px;stroke-linecap:butt;"/>
                </g>
                <g transform="matrix(1,0,0,0.366516,-50,90.5203)">
                    <path d="M90,135L90,145.914" style="fill:none;stroke:rgb(102,102,102);stroke-width:1.33px;stroke-linecap:butt;"/>
                </g>
                <g transform="matrix(1,0,0,0.366516,70,90.5203)">
                    <path d="M90,135L90,145.914" style="fill:none;stroke:rgb(102,102,102);stroke-width:1.33px;stroke-linecap:butt;"/>
                </g>
                <g transform="matrix(1,0,0,0.366516,30,90.5203)">
                    <path d="M90,135L90,145.914" style="fill:none;stroke:rgb(102,102,102);stroke-width:1.33px;stroke-linecap:butt;"/>
                </g>
                <g transform="matrix(6.12323e-17,-1,0.366516,2.24427e-17,86.5203,150)">
                    <path d="M90,135L90,145.914" style="fill:none;stroke:rgb(102,102,102);stroke-width:1.33px;stroke-linecap:butt;"/>
                </g>
                <g transform="matrix(6.12323e-17,-1,0.366516,2.24427e-17,86.5203,250)">
                    <path d="M90,135L90,145.914" style="fill:none;stroke:rgb(102,102,102);stroke-width:1.33px;stroke-linecap:butt;"/>
                </g>
                <g transform="matrix(6.12323e-17,-1,0.366516,2.24427e-17,86.5203,170)">
                    <path d="M90,135L90,145.914" style="fill:none;stroke:rgb(102,102,102);stroke-width:1.33px;stroke-linecap:butt;"/>
                </g>
                <g transform="matrix(6.12323e-17,-1,0.366516,2.24427e-17,86.5203,270)">
                    <path d="M90,135L90,145.914" style="fill:none;stroke:rgb(102,102,102);stroke-width:1.33px;stroke-linecap:butt;"/>
                </g>
                <g transform="matrix(6.12323e-17,-1,0.366516,2.24427e-17,86.5203,190)">
                    <path d="M90,135L90,145.914" style="fill:none;stroke:rgb(102,102,102);stroke-width:1.33px;stroke-linecap:butt;"/>
                </g>
                <g transform="matrix(6.12323e-17,-1,0.366516,2.24427e-17,86.5203,290)">
                    <path d="M90,135L90,145.914" style="fill:none;stroke:rgb(102,102,102);stroke-width:1.33px;stroke-linecap:butt;"/>
                </g>
                <g transform="matrix(6.12323e-17,-1,0.366516,2.24427e-17,86.5203,210)">
                    <path d="M90,135L90,145.914" style="fill:none;stroke:rgb(102,102,102);stroke-width:1.33px;stroke-linecap:butt;"/>
                </g>
                <g transform="matrix(6.12323e-17,-1,0.366516,2.24427e-17,86.5203,310)">
                    <path d="M90,135L90,145.914" style="fill:none;stroke:rgb(102,102,102);stroke-width:1.33px;stroke-linecap:butt;"/>
                </g>
                <g transform="matrix(1,0,0,0.366516,150,90.5203)">
                    <path d="M90,135L90,145.914" style="fill:none;stroke:rgb(102,102,102);stroke-width:1.33px;stroke-linecap:butt;"/>
                </g>
                <g transform="matrix(1,0,0,1,22.06,-19.9792)">
                    <g transform="matrix(8,0,0,8,101.398,169.979)">
                    </g>
                    <text x="95.134px" y="169.979px" style="font-family:'TimesNewRomanPSMT', 'Times New Roman', serif;font-size:8px;fill:rgb(102,102,102);">-<tspan x="97.398px " y="169.979px ">1</tspan></text>
                </g>
                <g transform="matrix(1,0,0,1,142.06,-19.9792)">
                    <g transform="matrix(8,0,0,8,103.11,169.979)">
                    </g>
                    <text x="93.423px" y="169.979px" style="font-family:'TimesNewRomanPSMT', 'Times New Roman', serif;font-size:8px;fill:rgb(102,102,102);">5<tspan x="97.023px 98.623px 100.887px " y="169.979px 169.979px 169.979px "> ft</tspan></text>
                </g>
                <g transform="matrix(1,0,0,1,2.06,-19.9792)">
                    <g transform="matrix(8,0,0,8,101.398,169.979)">
                    </g>
                    <text x="95.134px" y="169.979px" style="font-family:'TimesNewRomanPSMT', 'Times New Roman', serif;font-size:8px;fill:rgb(102,102,102);">-<tspan x="97.398px " y="169.979px ">2</tspan></text>
                </g>
                <g transform="matrix(1,0,0,1,122.06,-19.9792)">
                    <g transform="matrix(8,0,0,8,100.266,169.979)">
                    </g>
                    <text x="96.266px" y="169.979px" style="font-family:'TimesNewRomanPSMT', 'Times New Roman', serif;font-size:8px;fill:rgb(102,102,102);">4</text>
                </g>
                <g transform="matrix(1,-2.44929e-16,2.44929e-16,1,34.69,-107.253)">
                    <g transform="matrix(8,0,0,8,100.266,169.979)">
                    </g>
                    <text x="96.266px" y="169.979px" style="font-family:'TimesNewRomanPSMT', 'Times New Roman', serif;font-size:8px;fill:rgb(102,102,102);">4</text>
                </g>
                <g transform="matrix(1,-2.44929e-16,2.44929e-16,1,34.69,52.6951)">
                    <g transform="matrix(8,0,0,8,100.066,169.979)">
                    </g>
                    <text x="93.402px" y="169.979px" style="font-family:'TimesNewRomanPSMT', 'Times New Roman', serif;font-size:8px;fill:rgb(102,102,102);">-4</text>
                </g>
                <g transform="matrix(1,0,0,1,-17.94,-19.9792)">
                    <g transform="matrix(8,0,0,8,101.398,169.979)">
                    </g>
                    <text x="95.134px" y="169.979px" style="font-family:'TimesNewRomanPSMT', 'Times New Roman', serif;font-size:8px;fill:rgb(102,102,102);">-<tspan x="97.398px " y="169.979px ">3</tspan></text>
                </g>
                <g transform="matrix(1,0,0,1,102.06,-19.9792)">
                    <g transform="matrix(8,0,0,8,100.266,169.979)">
                    </g>
                    <text x="96.266px" y="169.979px" style="font-family:'TimesNewRomanPSMT', 'Times New Roman', serif;font-size:8px;fill:rgb(102,102,102);">3</text>
                </g>
                <g transform="matrix(1,-2.44929e-16,2.44929e-16,1,34.7837,-87.2995)">
                    <g transform="matrix(8,0,0,8,100.266,169.979)">
                    </g>
                    <text x="96.266px" y="169.979px" style="font-family:'TimesNewRomanPSMT', 'Times New Roman', serif;font-size:8px;fill:rgb(102,102,102);">3</text>
                </g>
                <g transform="matrix(1,-2.44929e-16,2.44929e-16,1,34.7837,32.677)">
                    <g transform="matrix(8,0,0,8,100.066,169.979)">
                    </g>
                    <text x="93.802px" y="169.979px" style="font-family:'TimesNewRomanPSMT', 'Times New Roman', serif;font-size:8px;fill:rgb(102,102,102);">-<tspan x="96.066px " y="169.979px ">3</tspan></text>
                </g>
                <g transform="matrix(1,0,0,1,-37.94,-19.9792)">
                    <g transform="matrix(8,0,0,8,101.598,169.979)">
                    </g>
                    <text x="94.934px" y="169.979px" style="font-family:'TimesNewRomanPSMT', 'Times New Roman', serif;font-size:8px;fill:rgb(102,102,102);">-4</text>
                </g>
                <g transform="matrix(1,0,0,1,82.06,-19.9792)">
                    <g transform="matrix(8,0,0,8,100.266,169.979)">
                    </g>
                    <text x="96.266px" y="169.979px" style="font-family:'TimesNewRomanPSMT', 'Times New Roman', serif;font-size:8px;fill:rgb(102,102,102);">2</text>
                </g>
                <g transform="matrix(1,-2.44929e-16,2.44929e-16,1,34.6939,-67.2526)">
                    <g transform="matrix(8,0,0,8,100.266,169.979)">
                    </g>
                    <text x="96.266px" y="169.979px" style="font-family:'TimesNewRomanPSMT', 'Times New Roman', serif;font-size:8px;fill:rgb(102,102,102);">2</text>
                </g>
                <g transform="matrix(1,-2.44929e-16,2.44929e-16,1,34.6939,12.7682)">
                    <g transform="matrix(8,0,0,8,100.266,169.979)">
                    </g>
                    <text x="93.602px" y="169.979px" style="font-family:'TimesNewRomanPSMT', 'Times New Roman', serif;font-size:8px;fill:rgb(102,102,102);">-2</text>
                </g>
                <g transform="matrix(1,0,0,1,-57.94,-19.9792)">
                    <g transform="matrix(8,0,0,8,101.398,169.979)">
                    </g>
                    <text x="95.134px" y="169.979px" style="font-family:'TimesNewRomanPSMT', 'Times New Roman', serif;font-size:8px;fill:rgb(102,102,102);">-<tspan x="97.398px " y="169.979px ">5</tspan></text>
                </g>
                <g transform="matrix(1,0,0,1,62.06,-19.9792)">
                    <g transform="matrix(8,0,0,8,100.266,169.979)">
                    </g>
                    <text x="96.266px" y="169.979px" style="font-family:'TimesNewRomanPSMT', 'Times New Roman', serif;font-size:8px;fill:rgb(102,102,102);">1</text>
                </g>
                <g transform="matrix(1,-2.44929e-16,2.44929e-16,1,34.6333,-47.2995)">
                    <g transform="matrix(8,0,0,8,100.266,169.979)">
                    </g>
                    <text x="96.266px" y="169.979px" style="font-family:'TimesNewRomanPSMT', 'Times New Roman', serif;font-size:8px;fill:rgb(102,102,102);">1</text>
                </g>
                <g transform="matrix(1,-2.44929e-16,2.44929e-16,1,34.6333,-7.18489)">
                    <g transform="matrix(8,0,0,8,100.066,169.979)">
                    </g>
                    <text x="93.802px" y="169.979px" style="font-family:'TimesNewRomanPSMT', 'Times New Roman', serif;font-size:8px;fill:rgb(102,102,102);">-<tspan x="96.066px " y="169.979px ">1</tspan></text>
                </g>
            </g>
        </g>
        <g transform="matrix(1,0,0,1,4.115,-5.03682)">
            <g transform="matrix(12,0,0,12,52.4785,215.664)">
            </g>
            <text x="45.148px" y="215.664px" style="font-family:'TimesNewRomanPS-ItalicMT', 'Times New Roman', serif;font-style:italic;font-size:12px;fill:rgb(1,0,1);">A</text>
        </g>
        <g transform="matrix(1,0,0,1,125.789,-78.8426)">
            <g transform="matrix(12,0,0,12,52.4785,215.664)">
            </g>
            <text x="43.812px" y="215.664px" style="font-family:'TimesNewRomanPS-ItalicMT', 'Times New Roman', serif;font-style:italic;font-size:12px;fill:rgb(1,0,1);">D</text>
        </g>
        <g transform="matrix(0.339888,-0.194222,-0.923077,2.38462,176.45,-40.1381)">
            <g transform="matrix(3.77778,0.307692,1.46237,0.538462,-607.891,-32.6794)">
                <path d="M237.504,59.153L240,50L232.512,55.824L237.504,59.153Z" style="fill:rgb(242,13,13);"/>
                <path d="M236.006,55.991C222.594,76.11 180,140 180,140" style="fill:none;stroke:rgb(242,13,13);stroke-width:2px;"/>
            </g>
        </g>
        <g transform="matrix(0.339888,-0.194222,-0.923077,2.38462,176.45,-40.1381)">
            <g transform="matrix(3.77778,0.307692,1.46237,0.538462,-607.891,-32.6794)">
                <path d="M173.292,146.708L180,140L170.609,141.342L173.292,146.708Z" style="fill:rgb(24,6,253);"/>
                <path d="M173.56,143.22C148.651,155.674 60,200 60,200" style="fill:none;stroke:rgb(24,6,253);stroke-width:2px;"/>
            </g>
        </g>
        <g transform="matrix(0.0701307,0,0,0.0701307,-30.0491,189.716)">
            <circle cx="1284.02" cy="146.636" r="35.648" style="fill:rgb(1,0,1);"/>
        </g>
        <g transform="matrix(0.0701307,0,0,0.0701307,89.9509,129.716)">
            <circle cx="1284.02" cy="146.636" r="35.648" style="fill:rgb(1,0,1);"/>
        </g>
        <g transform="matrix(1,0,0,1,4.79566,4.01982)">
            <text x="88.724px" y="189.484px" style="font-family:'TimesNewRomanPSMT', 'Times New Roman', serif;font-size:12px;fill:rgb(24,6,253);">r</text>
            <g transform="matrix(6.996,0,0,6.996,101.875,193.48)">
            </g>
            <text x="92.12px" y="193.48px" style="font-family:'TimesNewRomanPSMT', 'Times New Roman', serif;font-size:6.996px;fill:rgb(24,6,253);">A<tspan x="96.823px " y="193.48px ">D</tspan></text>
        </g>
        <g transform="matrix(1,0,0,1,146.906,-69.4842)">
            <g transform="matrix(12,0,0,12,101.875,189.484)">
            </g>
            <text x="58.903px" y="189.484px" style="font-family:'TimesNewRomanPSMT', 'Times New Roman', serif;font-size:12px;fill:rgb(251,7,4);">F<tspan x="64.977px 71.145px 76.545px 81.945px 87.345px 89.745px 92.479px 97.879px " y="189.484px 189.484px 189.484px 189.484px 189.484px 189.484px 189.484px 189.484px ">=500 lbf</tspan></text>
        </g>
        <g transform="matrix(1,0,0,1,-819.648,-1829.04)">
            <path d="M1038.36,1909.04L1017.77,1909.04L1017.83,1939.64L1038.36,1909.04Z" style="fill:rgb(19,140,9);fill-opacity:0.29;stroke:rgb(19,140,9);stroke-width:0.5px;"/>
        </g>
        <g transform="matrix(1,0,0,1,-793.966,-1821.28)">
            <g transform="matrix(0.830053,0,0,1,170.277,0)">
                <g transform="matrix(10,0,0,10,1006.94,1898.04)">
                </g>
                <text x="1001.94px" y="1898.04px" style="font-family:'TimesNewRomanPSMT', 'Times New Roman', serif;font-size:10px;fill:rgb(19,140,9);">2</text>
            </g>
        </g>
        <g transform="matrix(1,0,0,1,-810.017,-1799.72)">
            <g transform="matrix(0.830053,0,0,1,170.277,0)">
                <g transform="matrix(10,0,0,10,1006.94,1898.04)">
                </g>
                <text x="1001.94px" y="1898.04px" style="font-family:'TimesNewRomanPSMT', 'Times New Roman', serif;font-size:10px;fill:rgb(19,140,9);">3</text>
            </g>
        </g>
    </g>
</svg>
