<?xml version="1.0" encoding="UTF-8" standalone="no"?>
<!DOCTYPE svg PUBLIC "-//W3C//DTD SVG 1.1//EN" "http://www.w3.org/Graphics/SVG/1.1/DTD/svg11.dtd">
<svg width="100%" height="100%" viewBox="0 0 300 300" version="1.1" xmlns="http://www.w3.org/2000/svg" xmlns:xlink="http://www.w3.org/1999/xlink" xml:space="preserve" xmlns:serif="http://www.serif.com/" style="fill-rule:evenodd;clip-rule:evenodd;stroke-linecap:round;stroke-linejoin:round;stroke-miterlimit:1.5;">
    <g transform="matrix(1,0,0,1,-700,0)">
        <g transform="matrix(1,0,0,1,700,0)">
            <rect id="_2d-moment-varignons" serif:id="2d-moment-varignons" x="0" y="0" width="300" height="300" style="fill:none;"/>
            <g id="_2d-moment-varignons1" serif:id="2d-moment-varignons">
                <g>
                    <g>
                        <g transform="matrix(0.235482,-8.7062e-16,-1.14265e-15,0.617764,124.314,14.8931)">
                            <g transform="matrix(4.24661,5.98478e-15,7.85474e-15,1.61874,-527.911,-24.1081)">
                                <path d="M143,39L140,30L137,39L143,39Z" style="fill:rgb(102,102,102);"/>
                                <path d="M140,37.2L140,230" style="fill:none;stroke:rgb(102,102,102);stroke-width:1px;"/>
                            </g>
                        </g>
                        <g transform="matrix(-0.451339,-0.00067331,0.000883181,0.308885,289.757,32.4904)">
                            <g transform="matrix(-2.21564,-0.00482968,0.00633509,3.23747,641.791,-103.787)">
                                <path d="M250.991,143.346L260,140.374L251.009,137.346L250.991,143.346Z" style="fill:rgb(102,102,102);"/>
                                <path d="M252.8,140.352C213.84,140.23 30,139.657 30,139.657" style="fill:none;stroke:rgb(102,102,102);stroke-width:1px;"/>
                            </g>
                        </g>
                        <g transform="matrix(1,0,0,1,-1039.67,-177.206)">
                            <g transform="matrix(14,0,0,14,1299.67,329.721)">
                            </g>
                            <text x="1292.67px" y="329.721px" style="font-family:'TimesNewRomanPSMT', 'Times New Roman', serif;font-size:14px;fill:rgb(102,102,102);">x</text>
                        </g>
                        <g transform="matrix(1,0,0,1,-1151.67,-292.612)">
                            <g transform="matrix(14,0,0,14,1286.67,329.721)">
                            </g>
                            <text x="1279.67px" y="329.721px" style="font-family:'TimesNewRomanPSMT', 'Times New Roman', serif;font-size:14px;fill:rgb(102,102,102);">y</text>
                        </g>
                        <g transform="matrix(1,0,0,0.366516,10,90.5203)">
                            <path d="M90,135L90,145.914" style="fill:none;stroke:rgb(102,102,102);stroke-width:1.33px;stroke-linecap:butt;"/>
                        </g>
                        <g transform="matrix(1,0,0,0.366516,130,90.5203)">
                            <path d="M90,135L90,145.914" style="fill:none;stroke:rgb(102,102,102);stroke-width:1.33px;stroke-linecap:butt;"/>
                        </g>
                        <g transform="matrix(1,0,0,0.366516,-10,90.5203)">
                            <path d="M90,135L90,145.914" style="fill:none;stroke:rgb(102,102,102);stroke-width:1.33px;stroke-linecap:butt;"/>
                        </g>
                        <g transform="matrix(1,0,0,0.366516,110,90.5203)">
                            <path d="M90,135L90,145.914" style="fill:none;stroke:rgb(102,102,102);stroke-width:1.33px;stroke-linecap:butt;"/>
                        </g>
                        <g transform="matrix(1,0,0,0.366516,-30,90.5203)">
                            <path d="M90,135L90,145.914" style="fill:none;stroke:rgb(102,102,102);stroke-width:1.33px;stroke-linecap:butt;"/>
                        </g>
                        <g transform="matrix(1,0,0,0.366516,90,90.5203)">
                            <path d="M90,135L90,145.914" style="fill:none;stroke:rgb(102,102,102);stroke-width:1.33px;stroke-linecap:butt;"/>
                        </g>
                        <g transform="matrix(1,0,0,0.366516,-50,90.5203)">
                            <path d="M90,135L90,145.914" style="fill:none;stroke:rgb(102,102,102);stroke-width:1.33px;stroke-linecap:butt;"/>
                        </g>
                        <g transform="matrix(1,0,0,0.366516,70,90.5203)">
                            <path d="M90,135L90,145.914" style="fill:none;stroke:rgb(102,102,102);stroke-width:1.33px;stroke-linecap:butt;"/>
                        </g>
                        <g transform="matrix(1,0,0,0.366516,30,90.5203)">
                            <path d="M90,135L90,145.914" style="fill:none;stroke:rgb(102,102,102);stroke-width:1.33px;stroke-linecap:butt;"/>
                        </g>
                        <g transform="matrix(6.12323e-17,-1,0.366516,2.24427e-17,86.5203,150)">
                            <path d="M90,135L90,145.914" style="fill:none;stroke:rgb(102,102,102);stroke-width:1.33px;stroke-linecap:butt;"/>
                        </g>
                        <g transform="matrix(6.12323e-17,-1,0.366516,2.24427e-17,86.5203,250)">
                            <path d="M90,135L90,145.914" style="fill:none;stroke:rgb(102,102,102);stroke-width:1.33px;stroke-linecap:butt;"/>
                        </g>
                        <g transform="matrix(6.12323e-17,-1,0.366516,2.24427e-17,86.5203,170)">
                            <path d="M90,135L90,145.914" style="fill:none;stroke:rgb(102,102,102);stroke-width:1.33px;stroke-linecap:butt;"/>
                        </g>
                        <g transform="matrix(6.12323e-17,-1,0.366516,2.24427e-17,86.5203,270)">
                            <path d="M90,135L90,145.914" style="fill:none;stroke:rgb(102,102,102);stroke-width:1.33px;stroke-linecap:butt;"/>
                        </g>
                        <g transform="matrix(6.12323e-17,-1,0.366516,2.24427e-17,86.5203,190)">
                            <path d="M90,135L90,145.914" style="fill:none;stroke:rgb(102,102,102);stroke-width:1.33px;stroke-linecap:butt;"/>
                        </g>
                        <g transform="matrix(6.12323e-17,-1,0.366516,2.24427e-17,86.5203,290)">
                            <path d="M90,135L90,145.914" style="fill:none;stroke:rgb(102,102,102);stroke-width:1.33px;stroke-linecap:butt;"/>
                        </g>
                        <g transform="matrix(6.12323e-17,-1,0.366516,2.24427e-17,86.5203,210)">
                            <path d="M90,135L90,145.914" style="fill:none;stroke:rgb(102,102,102);stroke-width:1.33px;stroke-linecap:butt;"/>
                        </g>
                        <g transform="matrix(6.12323e-17,-1,0.366516,2.24427e-17,86.5203,310)">
                            <path d="M90,135L90,145.914" style="fill:none;stroke:rgb(102,102,102);stroke-width:1.33px;stroke-linecap:butt;"/>
                        </g>
                        <g transform="matrix(1,0,0,0.366516,150,90.5203)">
                            <path d="M90,135L90,145.914" style="fill:none;stroke:rgb(102,102,102);stroke-width:1.33px;stroke-linecap:butt;"/>
                        </g>
                        <g transform="matrix(1,0,0,1,22.06,-19.9792)">
                            <g transform="matrix(8,0,0,8,101.398,169.979)">
                            </g>
                            <text x="95.134px" y="169.979px" style="font-family:'TimesNewRomanPSMT', 'Times New Roman', serif;font-size:8px;fill:rgb(102,102,102);">-<tspan x="97.398px " y="169.979px ">1</tspan></text>
                        </g>
                        <g transform="matrix(1,0,0,1,142.06,-19.9792)">
                            <g transform="matrix(8,0,0,8,103.11,169.979)">
                            </g>
                            <text x="93.423px" y="169.979px" style="font-family:'TimesNewRomanPSMT', 'Times New Roman', serif;font-size:8px;fill:rgb(102,102,102);">5<tspan x="97.023px 98.623px 100.887px " y="169.979px 169.979px 169.979px "> ft</tspan></text>
                        </g>
                        <g transform="matrix(1,0,0,1,2.06,-19.9792)">
                            <g transform="matrix(8,0,0,8,101.398,169.979)">
                            </g>
                            <text x="95.134px" y="169.979px" style="font-family:'TimesNewRomanPSMT', 'Times New Roman', serif;font-size:8px;fill:rgb(102,102,102);">-<tspan x="97.398px " y="169.979px ">2</tspan></text>
                        </g>
                        <g transform="matrix(1,0,0,1,122.06,-19.9792)">
                            <g transform="matrix(8,0,0,8,100.266,169.979)">
                            </g>
                            <text x="96.266px" y="169.979px" style="font-family:'TimesNewRomanPSMT', 'Times New Roman', serif;font-size:8px;fill:rgb(102,102,102);">4</text>
                        </g>
                        <g transform="matrix(1,-2.44929e-16,2.44929e-16,1,34.69,-107.253)">
                            <g transform="matrix(8,0,0,8,100.266,169.979)">
                            </g>
                            <text x="96.266px" y="169.979px" style="font-family:'TimesNewRomanPSMT', 'Times New Roman', serif;font-size:8px;fill:rgb(102,102,102);">4</text>
                        </g>
                        <g transform="matrix(1,-2.44929e-16,2.44929e-16,1,34.69,52.6951)">
                            <g transform="matrix(8,0,0,8,100.066,169.979)">
                            </g>
                            <text x="93.402px" y="169.979px" style="font-family:'TimesNewRomanPSMT', 'Times New Roman', serif;font-size:8px;fill:rgb(102,102,102);">-4</text>
                        </g>
                        <g transform="matrix(1,0,0,1,-17.94,-19.9792)">
                            <g transform="matrix(8,0,0,8,101.398,169.979)">
                            </g>
                            <text x="95.134px" y="169.979px" style="font-family:'TimesNewRomanPSMT', 'Times New Roman', serif;font-size:8px;fill:rgb(102,102,102);">-<tspan x="97.398px " y="169.979px ">3</tspan></text>
                        </g>
                        <g transform="matrix(1,0,0,1,102.06,-19.9792)">
                            <g transform="matrix(8,0,0,8,100.266,169.979)">
                            </g>
                            <text x="96.266px" y="169.979px" style="font-family:'TimesNewRomanPSMT', 'Times New Roman', serif;font-size:8px;fill:rgb(102,102,102);">3</text>
                        </g>
                        <g transform="matrix(1,-2.44929e-16,2.44929e-16,1,34.7837,-87.2995)">
                            <g transform="matrix(8,0,0,8,100.266,169.979)">
                            </g>
                            <text x="96.266px" y="169.979px" style="font-family:'TimesNewRomanPSMT', 'Times New Roman', serif;font-size:8px;fill:rgb(102,102,102);">3</text>
                        </g>
                        <g transform="matrix(1,-2.44929e-16,2.44929e-16,1,34.7837,32.677)">
                            <g transform="matrix(8,0,0,8,100.066,169.979)">
                            </g>
                            <text x="93.802px" y="169.979px" style="font-family:'TimesNewRomanPSMT', 'Times New Roman', serif;font-size:8px;fill:rgb(102,102,102);">-<tspan x="96.066px " y="169.979px ">3</tspan></text>
                        </g>
                        <g transform="matrix(1,0,0,1,-37.94,-19.9792)">
                            <g transform="matrix(8,0,0,8,101.598,169.979)">
                            </g>
                            <text x="94.934px" y="169.979px" style="font-family:'TimesNewRomanPSMT', 'Times New Roman', serif;font-size:8px;fill:rgb(102,102,102);">-4</text>
                        </g>
                        <g transform="matrix(1,0,0,1,82.06,-19.9792)">
                            <g transform="matrix(8,0,0,8,100.266,169.979)">
                            </g>
                            <text x="96.266px" y="169.979px" style="font-family:'TimesNewRomanPSMT', 'Times New Roman', serif;font-size:8px;fill:rgb(102,102,102);">2</text>
                        </g>
                        <g transform="matrix(1,-2.44929e-16,2.44929e-16,1,34.6939,-67.2526)">
                            <g transform="matrix(8,0,0,8,100.266,169.979)">
                            </g>
                            <text x="96.266px" y="169.979px" style="font-family:'TimesNewRomanPSMT', 'Times New Roman', serif;font-size:8px;fill:rgb(102,102,102);">2</text>
                        </g>
                        <g transform="matrix(1,-2.44929e-16,2.44929e-16,1,34.6939,12.7682)">
                            <g transform="matrix(8,0,0,8,100.266,169.979)">
                            </g>
                            <text x="93.602px" y="169.979px" style="font-family:'TimesNewRomanPSMT', 'Times New Roman', serif;font-size:8px;fill:rgb(102,102,102);">-2</text>
                        </g>
                        <g transform="matrix(1,0,0,1,-57.94,-19.9792)">
                            <g transform="matrix(8,0,0,8,101.398,169.979)">
                            </g>
                            <text x="95.134px" y="169.979px" style="font-family:'TimesNewRomanPSMT', 'Times New Roman', serif;font-size:8px;fill:rgb(102,102,102);">-<tspan x="97.398px " y="169.979px ">5</tspan></text>
                        </g>
                        <g transform="matrix(1,0,0,1,62.06,-19.9792)">
                            <g transform="matrix(8,0,0,8,100.266,169.979)">
                            </g>
                            <text x="96.266px" y="169.979px" style="font-family:'TimesNewRomanPSMT', 'Times New Roman', serif;font-size:8px;fill:rgb(102,102,102);">1</text>
                        </g>
                        <g transform="matrix(1,-2.44929e-16,2.44929e-16,1,34.6333,-47.2995)">
                            <g transform="matrix(8,0,0,8,100.266,169.979)">
                            </g>
                            <text x="96.266px" y="169.979px" style="font-family:'TimesNewRomanPSMT', 'Times New Roman', serif;font-size:8px;fill:rgb(102,102,102);">1</text>
                        </g>
                        <g transform="matrix(1,-2.44929e-16,2.44929e-16,1,34.6333,-7.18489)">
                            <g transform="matrix(8,0,0,8,100.066,169.979)">
                            </g>
                            <text x="93.802px" y="169.979px" style="font-family:'TimesNewRomanPSMT', 'Times New Roman', serif;font-size:8px;fill:rgb(102,102,102);">-<tspan x="96.066px " y="169.979px ">1</tspan></text>
                        </g>
                    </g>
                </g>
                <g transform="matrix(1,0,0,1,139.347,-141.152)">
                    <g transform="matrix(12,0,0,12,101.875,189.484)">
                    </g>
                    <text x="58.903px" y="189.484px" style="font-family:'TimesNewRomanPSMT', 'Times New Roman', serif;font-size:12px;fill:rgb(251,7,4);">F<tspan x="64.977px 71.145px 76.545px 81.945px 87.345px 89.745px 92.479px 97.879px " y="189.484px 189.484px 189.484px 189.484px 189.484px 189.484px 189.484px 189.484px ">=500 lbf</tspan></text>
                </g>
                <g transform="matrix(0.339888,-0.194222,-0.923077,2.38462,176.45,-40.1381)">
                    <g transform="matrix(3.77778,0.307692,1.46237,0.538462,-607.891,-32.6794)">
                        <path d="M237.504,59.153L240,50L232.512,55.824L237.504,59.153Z" style="fill:rgb(242,13,13);"/>
                        <path d="M236.006,55.991C222.594,76.11 180,140 180,140" style="fill:none;stroke:rgb(242,13,13);stroke-width:2px;"/>
                    </g>
                </g>
                <g transform="matrix(0.339888,-0.194222,-0.923077,2.38462,176.45,-40.1381)">
                    <g transform="matrix(3.77778,0.307692,1.46237,0.538462,-607.891,-32.6794)">
                        <path d="M173.292,146.708L180,140L170.609,141.342L173.292,146.708Z" style="fill:rgb(24,6,253);"/>
                        <path d="M173.56,143.22C148.651,155.674 60,200 60,200" style="fill:none;stroke:rgb(24,6,253);stroke-width:2px;"/>
                    </g>
                </g>
                <g transform="matrix(1,0,0,1,24.7957,-7.37063)">
                    <text x="88.724px" y="189.484px" style="font-family:'TimesNewRomanPSMT', 'Times New Roman', serif;font-size:12px;fill:rgb(24,6,253);">r</text>
                    <g transform="matrix(6.996,0,0,6.996,101.875,193.48)">
                    </g>
                    <text x="92.12px" y="193.48px" style="font-family:'TimesNewRomanPSMT', 'Times New Roman', serif;font-size:6.996px;fill:rgb(24,6,253);">A<tspan x="96.823px " y="193.48px ">D</tspan></text>
                </g>
                <g transform="matrix(1.21563,0,0,1.57448,-1130.14,-2241.85)">
                    <rect x="947.284" y="1430.22" width="210" height="144.162" style="fill:white;fill-opacity:0.6;"/>
                </g>
                <g transform="matrix(-1.99388,4.00425e-18,4.00425e-18,-1.96118,2249.32,3883.99)">
                    <path d="M1037.83,1909.04L1017.77,1909.04L1017.83,1939.64L1037.83,1909.04Z" style="fill:rgb(19,140,9);fill-opacity:0.29;stroke:rgb(19,140,9);stroke-width:0.25px;"/>
                </g>
                <g transform="matrix(0.378568,0,0,0.378568,-115.3,45.3579)">
                    <path d="M819.667,250C819.667,236.677 812.971,224.247 801.847,216.916L780.044,250L819.667,250Z" style="fill:rgb(19,140,9);fill-opacity:0.33;stroke:rgb(19,140,9);stroke-width:2.58px;"/>
                </g>
                <g transform="matrix(1,0,0,1,-798.163,-1748.78)">
                    <g transform="matrix(0.830053,0,0,1,170.277,0)">
                        <g transform="matrix(10,0,0,10,1006.94,1898.04)">
                        </g>
                        <text x="1001.94px" y="1898.04px" style="font-family:'TimesNewRomanPSMT', 'Times New Roman', serif;font-size:10px;fill:rgb(19,140,9);">2</text>
                    </g>
                </g>
                <g transform="matrix(1,0,0,1,-780.153,-1784.13)">
                    <g transform="matrix(0.830053,0,0,1,170.277,0)">
                        <g transform="matrix(10,0,0,10,1006.94,1898.04)">
                        </g>
                        <text x="1001.94px" y="1898.04px" style="font-family:'TimesNewRomanPSMT', 'Times New Roman', serif;font-size:10px;fill:rgb(19,140,9);">3</text>
                    </g>
                </g>
                <g transform="matrix(1,0,0,1,-632.966,-100.025)">
                    <g transform="matrix(12,0,0,12,834.28,233.529)">
                    </g>
                    <text x="828.532px" y="233.529px" style="font-family:'TimesNewRomanPSMT', 'Times New Roman', serif;font-size:12px;fill:rgb(19,140,9);">θ</text>
                </g>
                <g transform="matrix(1,0,0,1,-350,-7.47036)">
                    <path d="M570,140L562.53,140" style="fill:none;stroke:rgb(19,140,9);stroke-width:0.5px;"/>
                </g>
                <g transform="matrix(6.12323e-17,1,-1,6.12323e-17,352.53,-430)">
                    <path d="M570,140L562.53,140" style="fill:none;stroke:rgb(19,140,9);stroke-width:0.5px;"/>
                </g>
                <g transform="matrix(1,0,0,1,4.115,-5.03682)">
                    <g transform="matrix(12,0,0,12,52.4785,215.664)">
                    </g>
                    <text x="45.148px" y="215.664px" style="font-family:'TimesNewRomanPS-ItalicMT', 'Times New Roman', serif;font-style:italic;font-size:12px;fill:rgb(1,0,1);">A</text>
                </g>
                <g transform="matrix(1,0,0,1,125.789,-78.8426)">
                    <g transform="matrix(12,0,0,12,52.4785,215.664)">
                    </g>
                    <text x="43.812px" y="215.664px" style="font-family:'TimesNewRomanPS-ItalicMT', 'Times New Roman', serif;font-style:italic;font-size:12px;fill:rgb(1,0,1);">D</text>
                </g>
                <g transform="matrix(0.339888,-0.194222,-0.923077,2.38462,176.45,-40.1381)">
                    <g transform="matrix(3.77778,0.307692,1.46237,0.538462,-607.891,-32.6794)">
                        <path d="M63,148.75L60,139.75L57,148.75L63,148.75Z" style="fill:rgb(24,6,253);"/>
                        <path d="M60,146.95L60,200" style="fill:none;stroke:rgb(24,6,253);stroke-width:2px;"/>
                    </g>
                </g>
                <g transform="matrix(0.339888,-0.194222,-0.923077,2.38462,176.45,-40.1381)">
                    <g transform="matrix(3.77778,0.307692,1.46237,0.538462,-607.891,-32.6794)">
                        <path d="M171,203L180,200L171,197L171,203Z" style="fill:rgb(24,6,253);"/>
                        <path d="M172.8,200C146.901,200 60,200 60,200" style="fill:none;stroke:rgb(24,6,253);stroke-width:2px;"/>
                    </g>
                </g>
                <g transform="matrix(0.169944,-0.194222,-0.461538,2.38462,238.225,-100.138)">
                    <g transform="matrix(7.55556,0.615385,1.46237,0.538462,-1653.48,-92.6794)">
                        <path d="M231,143L240,140L231,137L231,143Z" style="fill:rgb(251,7,4);"/>
                        <path d="M232.8,140L180,140" style="fill:none;stroke:rgb(251,7,4);stroke-width:2px;"/>
                    </g>
                </g>
                <g transform="matrix(0.169944,-0.194222,-0.461538,2.38462,238.225,-100.138)">
                    <g transform="matrix(7.55556,0.615385,1.46237,0.538462,-1653.48,-92.6794)">
                        <path d="M183,59L180,50L177,59L183,59Z" style="fill:rgb(251,7,4);"/>
                        <path d="M180,57.2L180,140" style="fill:none;stroke:rgb(251,7,4);stroke-width:2px;"/>
                    </g>
                </g>
                <g transform="matrix(0.0701307,0,0,0.0701307,-30.0491,189.716)">
                    <circle cx="1284.02" cy="146.636" r="35.648" style="fill:rgb(1,0,1);"/>
                </g>
                <g transform="matrix(0.0701307,0,0,0.0701307,89.9509,129.716)">
                    <circle cx="1284.02" cy="146.636" r="35.648" style="fill:rgb(1,0,1);"/>
                </g>
                <g transform="matrix(1,0,0,1,-44.1085,-18.8443)">
                    <text x="94.981px" y="189.484px" style="font-family:'TimesNewRomanPSMT', 'Times New Roman', serif;font-size:12px;fill:rgb(24,6,253);">r</text>
                    <g transform="matrix(6.996,0,0,6.996,101.875,193.48)">
                    </g>
                    <text x="98.377px" y="193.48px" style="font-family:'TimesNewRomanPSMT', 'Times New Roman', serif;font-size:6.996px;fill:rgb(24,6,253);">y</text>
                </g>
                <g transform="matrix(1,0,0,1,10.7689,19.7038)">
                    <text x="94.981px" y="189.484px" style="font-family:'TimesNewRomanPSMT', 'Times New Roman', serif;font-size:12px;fill:rgb(24,6,253);">r</text>
                    <g transform="matrix(6.996,0,0,6.996,101.875,193.48)">
                    </g>
                    <text x="98.377px" y="193.48px" style="font-family:'TimesNewRomanPSMT', 'Times New Roman', serif;font-size:6.996px;fill:rgb(24,6,253);">x</text>
                </g>
                <g transform="matrix(1,0,0,1,132.857,-36.5389)">
                    <text x="92.303px" y="189.484px" style="font-family:'TimesNewRomanPSMT', 'Times New Roman', serif;font-size:12px;fill:rgb(251,7,4);">F</text>
                    <g transform="matrix(6.996,0,0,6.996,101.875,193.48)">
                    </g>
                    <text x="98.377px" y="193.48px" style="font-family:'TimesNewRomanPSMT', 'Times New Roman', serif;font-size:6.996px;fill:rgb(251,7,4);">x</text>
                </g>
                <g transform="matrix(1,0,0,1,75.4732,-92.2126)">
                    <text x="92.303px" y="189.484px" style="font-family:'TimesNewRomanPSMT', 'Times New Roman', serif;font-size:12px;fill:rgb(251,7,4);">F</text>
                    <g transform="matrix(6.996,0,0,6.996,101.875,193.48)">
                    </g>
                    <text x="98.377px" y="193.48px" style="font-family:'TimesNewRomanPSMT', 'Times New Roman', serif;font-size:6.996px;fill:rgb(251,7,4);">y</text>
                </g>
                <g transform="matrix(0.340259,-0.922341,0.922341,0.340259,-975.629,1552.08)">
                    <g transform="matrix(0.352056,0.954321,-0.954321,0.352056,1824.66,384.645)">
                        <path d="M70.878,193.961L65.142,186.405L74.264,189.008L70.878,193.961Z" style="fill:rgb(251,7,4);"/>
                        <path d="M54.934,214.075C62.57,216.892 71.056,212.98 73.873,205.344C75.817,200.073 74.56,194.404 71.085,190.468" style="fill:none;stroke:rgb(251,7,4);stroke-width:2px;"/>
                    </g>
                </g>
                <g transform="matrix(1,0,0,1,-320.291,33.6291)">
                    <text x="395.248px" y="183.039px" style="font-family:'TimesNewRomanPSMT', 'Times New Roman', serif;font-size:12px;fill:rgb(251,7,4);">M</text>
                    <g transform="matrix(6.996,0,0,6.996,410.37,187.035)">
                    </g>
                    <text x="405.318px" y="187.035px" style="font-family:'TimesNewRomanPSMT', 'Times New Roman', serif;font-size:6.996px;fill:rgb(251,7,4);">A</text>
                </g>
            </g>
        </g>
    </g>
</svg>
