<?xml version="1.0" encoding="UTF-8" standalone="no"?>
<!DOCTYPE svg PUBLIC "-//W3C//DTD SVG 1.1//EN" "http://www.w3.org/Graphics/SVG/1.1/DTD/svg11.dtd">
<svg width="100%" height="100%" viewBox="0 0 300 300" version="1.1" xmlns="http://www.w3.org/2000/svg" xmlns:xlink="http://www.w3.org/1999/xlink" xml:space="preserve" xmlns:serif="http://www.serif.com/" style="fill-rule:evenodd;clip-rule:evenodd;stroke-linecap:round;stroke-linejoin:round;stroke-miterlimit:1.5;">
    <g transform="matrix(1,0,0,1,-350,0)">
        <g transform="matrix(1,0,0,1,350,0)">
            <rect id="_2d-moment-dperp-cross-F" serif:id="2d-moment-dperp-cross-F" x="0" y="0" width="300" height="300" style="fill:none;"/>
            <g id="_2d-moment-dperp-cross-F1" serif:id="2d-moment-dperp-cross-F">
                <g>
                    <g>
                        <g transform="matrix(0.235482,-8.7062e-16,-1.14265e-15,0.617764,124.314,14.8931)">
                            <g transform="matrix(4.24661,5.98478e-15,7.85474e-15,1.61874,-527.911,-24.1081)">
                                <path d="M143,39L140,30L137,39L143,39Z" style="fill:rgb(102,102,102);"/>
                                <path d="M140,37.2L140,230" style="fill:none;stroke:rgb(102,102,102);stroke-width:1px;"/>
                            </g>
                        </g>
                        <g transform="matrix(-0.451339,-0.00067331,0.000883181,0.308885,289.757,32.4904)">
                            <g transform="matrix(-2.21564,-0.00482968,0.00633509,3.23747,641.791,-103.787)">
                                <path d="M250.991,143.346L260,140.374L251.009,137.346L250.991,143.346Z" style="fill:rgb(102,102,102);"/>
                                <path d="M252.8,140.352C213.84,140.23 30,139.657 30,139.657" style="fill:none;stroke:rgb(102,102,102);stroke-width:1px;"/>
                            </g>
                        </g>
                        <g transform="matrix(1,0,0,1,-1039.67,-177.206)">
                            <g transform="matrix(14,0,0,14,1299.67,329.721)">
                            </g>
                            <text x="1292.67px" y="329.721px" style="font-family:'TimesNewRomanPSMT', 'Times New Roman', serif;font-size:14px;fill:rgb(102,102,102);">x</text>
                        </g>
                        <g transform="matrix(1,0,0,1,-1151.67,-292.612)">
                            <g transform="matrix(14,0,0,14,1286.67,329.721)">
                            </g>
                            <text x="1279.67px" y="329.721px" style="font-family:'TimesNewRomanPSMT', 'Times New Roman', serif;font-size:14px;fill:rgb(102,102,102);">y</text>
                        </g>
                        <g transform="matrix(1,0,0,0.366516,10,90.5203)">
                            <path d="M90,135L90,145.914" style="fill:none;stroke:rgb(102,102,102);stroke-width:1.33px;stroke-linecap:butt;"/>
                        </g>
                        <g transform="matrix(1,0,0,0.366516,130,90.5203)">
                            <path d="M90,135L90,145.914" style="fill:none;stroke:rgb(102,102,102);stroke-width:1.33px;stroke-linecap:butt;"/>
                        </g>
                        <g transform="matrix(1,0,0,0.366516,-10,90.5203)">
                            <path d="M90,135L90,145.914" style="fill:none;stroke:rgb(102,102,102);stroke-width:1.33px;stroke-linecap:butt;"/>
                        </g>
                        <g transform="matrix(1,0,0,0.366516,110,90.5203)">
                            <path d="M90,135L90,145.914" style="fill:none;stroke:rgb(102,102,102);stroke-width:1.33px;stroke-linecap:butt;"/>
                        </g>
                        <g transform="matrix(1,0,0,0.366516,-30,90.5203)">
                            <path d="M90,135L90,145.914" style="fill:none;stroke:rgb(102,102,102);stroke-width:1.33px;stroke-linecap:butt;"/>
                        </g>
                        <g transform="matrix(1,0,0,0.366516,90,90.5203)">
                            <path d="M90,135L90,145.914" style="fill:none;stroke:rgb(102,102,102);stroke-width:1.33px;stroke-linecap:butt;"/>
                        </g>
                        <g transform="matrix(1,0,0,0.366516,-50,90.5203)">
                            <path d="M90,135L90,145.914" style="fill:none;stroke:rgb(102,102,102);stroke-width:1.33px;stroke-linecap:butt;"/>
                        </g>
                        <g transform="matrix(1,0,0,0.366516,70,90.5203)">
                            <path d="M90,135L90,145.914" style="fill:none;stroke:rgb(102,102,102);stroke-width:1.33px;stroke-linecap:butt;"/>
                        </g>
                        <g transform="matrix(1,0,0,0.366516,30,90.5203)">
                            <path d="M90,135L90,145.914" style="fill:none;stroke:rgb(102,102,102);stroke-width:1.33px;stroke-linecap:butt;"/>
                        </g>
                        <g transform="matrix(6.12323e-17,-1,0.366516,2.24427e-17,86.5203,150)">
                            <path d="M90,135L90,145.914" style="fill:none;stroke:rgb(102,102,102);stroke-width:1.33px;stroke-linecap:butt;"/>
                        </g>
                        <g transform="matrix(6.12323e-17,-1,0.366516,2.24427e-17,86.5203,250)">
                            <path d="M90,135L90,145.914" style="fill:none;stroke:rgb(102,102,102);stroke-width:1.33px;stroke-linecap:butt;"/>
                        </g>
                        <g transform="matrix(6.12323e-17,-1,0.366516,2.24427e-17,86.5203,170)">
                            <path d="M90,135L90,145.914" style="fill:none;stroke:rgb(102,102,102);stroke-width:1.33px;stroke-linecap:butt;"/>
                        </g>
                        <g transform="matrix(6.12323e-17,-1,0.366516,2.24427e-17,86.5203,270)">
                            <path d="M90,135L90,145.914" style="fill:none;stroke:rgb(102,102,102);stroke-width:1.33px;stroke-linecap:butt;"/>
                        </g>
                        <g transform="matrix(6.12323e-17,-1,0.366516,2.24427e-17,86.5203,190)">
                            <path d="M90,135L90,145.914" style="fill:none;stroke:rgb(102,102,102);stroke-width:1.33px;stroke-linecap:butt;"/>
                        </g>
                        <g transform="matrix(6.12323e-17,-1,0.366516,2.24427e-17,86.5203,290)">
                            <path d="M90,135L90,145.914" style="fill:none;stroke:rgb(102,102,102);stroke-width:1.33px;stroke-linecap:butt;"/>
                        </g>
                        <g transform="matrix(6.12323e-17,-1,0.366516,2.24427e-17,86.5203,210)">
                            <path d="M90,135L90,145.914" style="fill:none;stroke:rgb(102,102,102);stroke-width:1.33px;stroke-linecap:butt;"/>
                        </g>
                        <g transform="matrix(6.12323e-17,-1,0.366516,2.24427e-17,86.5203,310)">
                            <path d="M90,135L90,145.914" style="fill:none;stroke:rgb(102,102,102);stroke-width:1.33px;stroke-linecap:butt;"/>
                        </g>
                        <g transform="matrix(1,0,0,0.366516,150,90.5203)">
                            <path d="M90,135L90,145.914" style="fill:none;stroke:rgb(102,102,102);stroke-width:1.33px;stroke-linecap:butt;"/>
                        </g>
                        <g transform="matrix(1,0,0,1,22.06,-19.9792)">
                            <g transform="matrix(8,0,0,8,101.398,169.979)">
                            </g>
                            <text x="95.134px" y="169.979px" style="font-family:'TimesNewRomanPSMT', 'Times New Roman', serif;font-size:8px;fill:rgb(102,102,102);">-<tspan x="97.398px " y="169.979px ">1</tspan></text>
                        </g>
                        <g transform="matrix(1,0,0,1,142.06,-19.9792)">
                            <g transform="matrix(8,0,0,8,103.11,169.979)">
                            </g>
                            <text x="93.423px" y="169.979px" style="font-family:'TimesNewRomanPSMT', 'Times New Roman', serif;font-size:8px;fill:rgb(102,102,102);">5<tspan x="97.023px 98.623px 100.887px " y="169.979px 169.979px 169.979px "> ft</tspan></text>
                        </g>
                        <g transform="matrix(1,0,0,1,2.06,-19.9792)">
                            <g transform="matrix(8,0,0,8,101.398,169.979)">
                            </g>
                            <text x="95.134px" y="169.979px" style="font-family:'TimesNewRomanPSMT', 'Times New Roman', serif;font-size:8px;fill:rgb(102,102,102);">-<tspan x="97.398px " y="169.979px ">2</tspan></text>
                        </g>
                        <g transform="matrix(1,0,0,1,122.06,-19.9792)">
                            <g transform="matrix(8,0,0,8,100.266,169.979)">
                            </g>
                            <text x="96.266px" y="169.979px" style="font-family:'TimesNewRomanPSMT', 'Times New Roman', serif;font-size:8px;fill:rgb(102,102,102);">4</text>
                        </g>
                        <g transform="matrix(1,-2.44929e-16,2.44929e-16,1,34.69,-107.253)">
                            <g transform="matrix(8,0,0,8,100.266,169.979)">
                            </g>
                            <text x="96.266px" y="169.979px" style="font-family:'TimesNewRomanPSMT', 'Times New Roman', serif;font-size:8px;fill:rgb(102,102,102);">4</text>
                        </g>
                        <g transform="matrix(1,-2.44929e-16,2.44929e-16,1,34.69,52.6951)">
                            <g transform="matrix(8,0,0,8,100.066,169.979)">
                            </g>
                            <text x="93.402px" y="169.979px" style="font-family:'TimesNewRomanPSMT', 'Times New Roman', serif;font-size:8px;fill:rgb(102,102,102);">-4</text>
                        </g>
                        <g transform="matrix(1,0,0,1,-17.94,-19.9792)">
                            <g transform="matrix(8,0,0,8,101.398,169.979)">
                            </g>
                            <text x="95.134px" y="169.979px" style="font-family:'TimesNewRomanPSMT', 'Times New Roman', serif;font-size:8px;fill:rgb(102,102,102);">-<tspan x="97.398px " y="169.979px ">3</tspan></text>
                        </g>
                        <g transform="matrix(1,0,0,1,102.06,-19.9792)">
                            <g transform="matrix(8,0,0,8,100.266,169.979)">
                            </g>
                            <text x="96.266px" y="169.979px" style="font-family:'TimesNewRomanPSMT', 'Times New Roman', serif;font-size:8px;fill:rgb(102,102,102);">3</text>
                        </g>
                        <g transform="matrix(1,-2.44929e-16,2.44929e-16,1,34.7837,-87.2995)">
                            <g transform="matrix(8,0,0,8,100.266,169.979)">
                            </g>
                            <text x="96.266px" y="169.979px" style="font-family:'TimesNewRomanPSMT', 'Times New Roman', serif;font-size:8px;fill:rgb(102,102,102);">3</text>
                        </g>
                        <g transform="matrix(1,-2.44929e-16,2.44929e-16,1,34.7837,32.677)">
                            <g transform="matrix(8,0,0,8,100.066,169.979)">
                            </g>
                            <text x="93.802px" y="169.979px" style="font-family:'TimesNewRomanPSMT', 'Times New Roman', serif;font-size:8px;fill:rgb(102,102,102);">-<tspan x="96.066px " y="169.979px ">3</tspan></text>
                        </g>
                        <g transform="matrix(1,0,0,1,-37.94,-19.9792)">
                            <g transform="matrix(8,0,0,8,101.598,169.979)">
                            </g>
                            <text x="94.934px" y="169.979px" style="font-family:'TimesNewRomanPSMT', 'Times New Roman', serif;font-size:8px;fill:rgb(102,102,102);">-4</text>
                        </g>
                        <g transform="matrix(1,0,0,1,82.06,-19.9792)">
                            <g transform="matrix(8,0,0,8,100.266,169.979)">
                            </g>
                            <text x="96.266px" y="169.979px" style="font-family:'TimesNewRomanPSMT', 'Times New Roman', serif;font-size:8px;fill:rgb(102,102,102);">2</text>
                        </g>
                        <g transform="matrix(1,-2.44929e-16,2.44929e-16,1,34.6939,-67.2526)">
                            <g transform="matrix(8,0,0,8,100.266,169.979)">
                            </g>
                            <text x="96.266px" y="169.979px" style="font-family:'TimesNewRomanPSMT', 'Times New Roman', serif;font-size:8px;fill:rgb(102,102,102);">2</text>
                        </g>
                        <g transform="matrix(1,-2.44929e-16,2.44929e-16,1,34.6939,12.7682)">
                            <g transform="matrix(8,0,0,8,100.266,169.979)">
                            </g>
                            <text x="93.602px" y="169.979px" style="font-family:'TimesNewRomanPSMT', 'Times New Roman', serif;font-size:8px;fill:rgb(102,102,102);">-2</text>
                        </g>
                        <g transform="matrix(1,0,0,1,-57.94,-19.9792)">
                            <g transform="matrix(8,0,0,8,101.398,169.979)">
                            </g>
                            <text x="95.134px" y="169.979px" style="font-family:'TimesNewRomanPSMT', 'Times New Roman', serif;font-size:8px;fill:rgb(102,102,102);">-<tspan x="97.398px " y="169.979px ">5</tspan></text>
                        </g>
                        <g transform="matrix(1,0,0,1,62.06,-19.9792)">
                            <g transform="matrix(8,0,0,8,100.266,169.979)">
                            </g>
                            <text x="96.266px" y="169.979px" style="font-family:'TimesNewRomanPSMT', 'Times New Roman', serif;font-size:8px;fill:rgb(102,102,102);">1</text>
                        </g>
                        <g transform="matrix(1,-2.44929e-16,2.44929e-16,1,34.6333,-47.2995)">
                            <g transform="matrix(8,0,0,8,100.266,169.979)">
                            </g>
                            <text x="96.266px" y="169.979px" style="font-family:'TimesNewRomanPSMT', 'Times New Roman', serif;font-size:8px;fill:rgb(102,102,102);">1</text>
                        </g>
                        <g transform="matrix(1,-2.44929e-16,2.44929e-16,1,34.6333,-7.18489)">
                            <g transform="matrix(8,0,0,8,100.066,169.979)">
                            </g>
                            <text x="93.802px" y="169.979px" style="font-family:'TimesNewRomanPSMT', 'Times New Roman', serif;font-size:8px;fill:rgb(102,102,102);">-<tspan x="96.066px " y="169.979px ">1</tspan></text>
                        </g>
                    </g>
                </g>
                <g transform="matrix(1.24761,0,0,1.64248,-1163.84,-2325.89)">
                    <rect x="947.284" y="1430.22" width="210" height="144.162" style="fill:white;fill-opacity:0.6;"/>
                </g>
                <g transform="matrix(1,0,0,1,1.85082,-6.97421)">
                    <g transform="matrix(1,0,0,1,-348.726,0.608385)">
                        <g transform="matrix(12,0,0,12,432.477,236.151)">
                        </g>
                        <text x="426.477px" y="236.151px" style="font-family:'TimesNewRomanPSMT', 'Times New Roman', serif;font-size:12px;fill:rgb(24,6,253);">d</text>
                    </g>
                    <g transform="matrix(1,0,0,1,-350,0)">
                        <path d="M435.823,234.522L435.823,238.609" style="fill:none;stroke:rgb(24,6,253);stroke-width:0.6px;stroke-linecap:butt;"/>
                    </g>
                    <g transform="matrix(6.12323e-17,1,-1,6.12323e-17,322.389,-197.214)">
                        <path d="M435.823,234.522L435.823,238.609" style="fill:none;stroke:rgb(24,6,253);stroke-width:0.6px;stroke-linecap:butt;"/>
                    </g>
                </g>
                <g transform="matrix(1,0,0,1,-358.98,-5.96637)">
                    <path d="M465.385,236.923L471.269,228.097" style="fill:none;stroke:rgb(102,102,102);stroke-width:1px;"/>
                </g>
                <g transform="matrix(6.12323e-17,-1,1,6.12323e-17,-115.809,693.399)">
                    <path d="M465.385,236.923L471.269,228.097" style="fill:none;stroke:rgb(102,102,102);stroke-width:1px;"/>
                </g>
                <g transform="matrix(0.177515,-0.881657,0.733728,-0.177515,-81.4201,729.053)">
                    <path d="M530,140L590,50" style="fill:none;stroke:rgb(24,6,253);stroke-width:2.02px;"/>
                </g>
                <g transform="matrix(1,0,0,1,4.115,-5.03682)">
                    <g transform="matrix(12,0,0,12,52.4785,215.664)">
                    </g>
                    <text x="45.148px" y="215.664px" style="font-family:'TimesNewRomanPS-ItalicMT', 'Times New Roman', serif;font-style:italic;font-size:12px;fill:rgb(1,0,1);">A</text>
                </g>
                <g transform="matrix(-1.99388,4.00425e-18,4.00425e-18,-1.96118,2249.32,3883.99)">
                    <path d="M1037.83,1909.04L1017.77,1909.04L1017.83,1939.64L1037.83,1909.04Z" style="fill:rgb(19,140,9);fill-opacity:0.29;stroke:rgb(19,140,9);stroke-width:0.25px;"/>
                </g>
                <g transform="matrix(1,0,0,1,59.9677,31.7831)">
                    <g transform="matrix(12,0,0,12,52.4785,215.664)">
                    </g>
                    <text x="45.148px" y="215.664px" style="font-family:'TimesNewRomanPS-ItalicMT', 'Times New Roman', serif;font-style:italic;font-size:12px;fill:rgb(1,0,1);">B</text>
                </g>
                <g transform="matrix(1,0,0,1,98.0108,-5.03682)">
                    <g transform="matrix(12,0,0,12,52.4785,215.664)">
                    </g>
                    <text x="44.475px" y="215.664px" style="font-family:'TimesNewRomanPS-ItalicMT', 'Times New Roman', serif;font-style:italic;font-size:12px;fill:rgb(1,0,1);">C</text>
                </g>
                <g transform="matrix(0.378568,0,0,0.378568,-115.3,45.3579)">
                    <path d="M819.667,250C819.667,236.677 812.971,224.247 801.847,216.916L780.044,250L819.667,250Z" style="fill:rgb(19,140,9);fill-opacity:0.33;stroke:rgb(19,140,9);stroke-width:2.58px;"/>
                </g>
                <g transform="matrix(0.378568,0,0,0.378568,-115.3,45.3579)">
                    <path d="M740.421,250C740.421,263.181 746.976,275.5 757.908,282.863L780.044,250L740.421,250Z" style="fill:rgb(19,140,9);fill-opacity:0.33;stroke:rgb(19,140,9);stroke-width:2.58px;"/>
                </g>
                <g transform="matrix(0.378568,0,0,0.378568,-155.3,105.22)">
                    <path d="M740.421,250C740.421,263.181 746.976,275.5 757.908,282.863L780.044,250L740.421,250Z" style="fill:rgb(19,140,9);fill-opacity:0.33;stroke:rgb(19,140,9);stroke-width:2.58px;"/>
                </g>
                <g transform="matrix(1.02367,-0.035503,-0.035503,1.05325,-422.189,108.284)">
                    <path d="M530,140L590,50" style="fill:none;stroke:rgb(102,102,102);stroke-width:1px;stroke-dasharray:7.98,4.98,0,0,0,0;"/>
                </g>
                <g transform="matrix(0.81854,0.272189,0.272189,0.591716,-356.548,9.82249)">
                    <path d="M530,140L590,50" style="fill:none;stroke:rgb(24,6,253);stroke-width:2.03px;"/>
                </g>
                <g transform="matrix(1,0,0,1,125.789,-78.8426)">
                    <g transform="matrix(12,0,0,12,52.4785,215.664)">
                    </g>
                    <text x="43.812px" y="215.664px" style="font-family:'TimesNewRomanPS-ItalicMT', 'Times New Roman', serif;font-style:italic;font-size:12px;fill:rgb(1,0,1);">D</text>
                </g>
                <g transform="matrix(0.339888,-0.194222,-0.923077,2.38462,176.45,-40.1381)">
                    <g transform="matrix(3.77778,0.307692,1.46237,0.538462,-607.891,-32.6794)">
                        <path d="M236.88,61.441L240,50L230.639,57.28L236.88,61.441Z" style="fill:rgb(242,13,13);"/>
                        <path d="M235.008,57.488C220.605,79.093 180,140 180,140" style="fill:none;stroke:rgb(242,13,13);stroke-width:2.5px;"/>
                    </g>
                </g>
                <g transform="matrix(0.0701307,0,0,0.0701307,25.3355,226.536)">
                    <circle cx="1284.02" cy="146.636" r="35.648" style="fill:rgb(1,0,1);"/>
                </g>
                <g transform="matrix(2,-3.55271e-16,-3.55271e-16,1,-760,1.42109e-13)">
                    <path d="M410,200L490,200" style="fill:none;stroke:rgb(102,102,102);stroke-width:0.63px;"/>
                </g>
                <g transform="matrix(1,3.40196e-30,1.38051e-30,1,-350,1.24345e-14)">
                    <path d="M410,200L490,200" style="fill:none;stroke:rgb(24,6,253);stroke-width:2px;"/>
                </g>
                <g transform="matrix(0.0701307,0,0,0.0701307,49.9509,189.716)">
                    <circle cx="1284.02" cy="146.636" r="35.648" style="fill:rgb(1,0,1);"/>
                </g>
                <g transform="matrix(0.0701307,0,0,0.0701307,89.9509,129.716)">
                    <circle cx="1284.02" cy="146.636" r="35.648" style="fill:rgb(1,0,1);"/>
                </g>
                <g transform="matrix(0.0701307,0,0,0.0701307,-30.0491,189.716)">
                    <circle cx="1284.02" cy="146.636" r="35.648" style="fill:rgb(1,0,1);"/>
                </g>
                <g transform="matrix(1,0,0,1,118.403,-119.484)">
                    <g transform="matrix(12,0,0,12,101.875,189.484)">
                    </g>
                    <text x="58.903px" y="189.484px" style="font-family:'TimesNewRomanPSMT', 'Times New Roman', serif;font-size:12px;fill:rgb(251,7,4);">F<tspan x="64.977px 71.145px 76.545px 81.945px 87.345px 89.745px 92.479px 97.879px " y="189.484px 189.484px 189.484px 189.484px 189.484px 189.484px 189.484px 189.484px ">=500 lbf</tspan></text>
                </g>
                <g transform="matrix(1,0,0,1,-798.163,-1748.78)">
                    <g transform="matrix(0.830053,0,0,1,170.277,0)">
                        <g transform="matrix(10,0,0,10,1006.94,1898.04)">
                        </g>
                        <text x="1001.94px" y="1898.04px" style="font-family:'TimesNewRomanPSMT', 'Times New Roman', serif;font-size:10px;fill:rgb(19,140,9);">2</text>
                    </g>
                </g>
                <g transform="matrix(1,0,0,1,-780.153,-1784.13)">
                    <g transform="matrix(0.830053,0,0,1,170.277,0)">
                        <g transform="matrix(10,0,0,10,1006.94,1898.04)">
                        </g>
                        <text x="1001.94px" y="1898.04px" style="font-family:'TimesNewRomanPSMT', 'Times New Roman', serif;font-size:10px;fill:rgb(19,140,9);">3</text>
                    </g>
                </g>
                <g transform="matrix(1,0,0,1,-632.966,-100.025)">
                    <text x="828.532px" y="233.529px" style="font-family:'TimesNewRomanPSMT', 'Times New Roman', serif;font-size:12px;fill:rgb(19,140,9);">θ</text>
                    <g transform="matrix(6.996,0,0,6.996,837.778,237.525)">
                    </g>
                    <text x="834.28px" y="237.525px" style="font-family:'TimesNewRomanPSMT', 'Times New Roman', serif;font-size:6.996px;fill:rgb(19,140,9);">1</text>
                </g>
                <g transform="matrix(1,0,0,1,-672.488,-78.9259)">
                    <text x="828.532px" y="233.529px" style="font-family:'TimesNewRomanPSMT', 'Times New Roman', serif;font-size:12px;fill:rgb(19,140,9);">θ</text>
                    <g transform="matrix(6.996,0,0,6.996,837.778,237.525)">
                    </g>
                    <text x="834.28px" y="237.525px" style="font-family:'TimesNewRomanPSMT', 'Times New Roman', serif;font-size:6.996px;fill:rgb(19,140,9);">2</text>
                </g>
                <g transform="matrix(1,0,0,1,-712.488,-19.0636)">
                    <text x="828.532px" y="233.529px" style="font-family:'TimesNewRomanPSMT', 'Times New Roman', serif;font-size:12px;fill:rgb(19,140,9);">θ</text>
                    <g transform="matrix(6.996,0,0,6.996,837.778,237.525)">
                    </g>
                    <text x="834.28px" y="237.525px" style="font-family:'TimesNewRomanPSMT', 'Times New Roman', serif;font-size:6.996px;fill:rgb(19,140,9);">3</text>
                </g>
                <g transform="matrix(1,0,0,1,-339.954,3.79963)">
                    <g transform="matrix(12,0,0,12,445.211,193.622)">
                    </g>
                    <text x="439.211px" y="193.622px" style="font-family:'TimesNewRomanPSMT', 'Times New Roman', serif;font-size:12px;fill:rgb(24,6,253);">4</text>
                </g>
                <g transform="matrix(1,0,0,1,-350,-7.47036)">
                    <path d="M570,140L562.53,140" style="fill:none;stroke:rgb(19,140,9);stroke-width:0.5px;"/>
                </g>
                <g transform="matrix(6.12323e-17,1,-1,6.12323e-17,352.53,-430)">
                    <path d="M570,140L562.53,140" style="fill:none;stroke:rgb(19,140,9);stroke-width:0.5px;"/>
                </g>
                <g transform="matrix(0.340259,-0.922341,0.922341,0.340259,-975.417,1551.78)">
                    <g transform="matrix(0.352056,0.954321,-0.954321,0.352056,1824.3,384.546)">
                        <path d="M71.09,193.665L65.353,186.11L74.476,188.712L71.09,193.665Z" style="fill:rgb(251,7,4);"/>
                        <path d="M55.146,213.78C62.781,216.597 71.268,212.684 74.085,205.049C76.029,199.778 74.772,194.108 71.297,190.173" style="fill:none;stroke:rgb(251,7,4);stroke-width:2px;"/>
                    </g>
                </g>
                <g transform="matrix(1,0,0,1,-327.869,0.943151)">
                    <text x="395.248px" y="183.039px" style="font-family:'TimesNewRomanPSMT', 'Times New Roman', serif;font-size:12px;fill:rgb(251,7,4);">M</text>
                    <g transform="matrix(6.996,0,0,6.996,410.37,187.035)">
                    </g>
                    <text x="405.318px" y="187.035px" style="font-family:'TimesNewRomanPSMT', 'Times New Roman', serif;font-size:6.996px;fill:rgb(251,7,4);">A</text>
                </g>
            </g>
        </g>
    </g>
</svg>
