<?xml version="1.0" encoding="UTF-8" standalone="no"?>
<!DOCTYPE svg PUBLIC "-//W3C//DTD SVG 1.1//EN" "http://www.w3.org/Graphics/SVG/1.1/DTD/svg11.dtd">
<svg width="100%" height="100%" viewBox="0 0 300 300" version="1.1" xmlns="http://www.w3.org/2000/svg" xmlns:xlink="http://www.w3.org/1999/xlink" xml:space="preserve" xmlns:serif="http://www.serif.com/" style="fill-rule:evenodd;clip-rule:evenodd;stroke-linecap:round;stroke-linejoin:round;stroke-miterlimit:1.5;">
    <g transform="matrix(1,0,0,1,-1050,0)">
        <g transform="matrix(1,0,0,1,1050,0)">
            <rect id="_2d-moment-d-cross-Fperp" serif:id="2d-moment-d-cross-Fperp" x="0" y="0" width="300" height="300" style="fill:none;"/>
            <g id="_2d-moment-d-cross-Fperp1" serif:id="2d-moment-d-cross-Fperp">
                <g>
                    <g>
                        <g transform="matrix(0.235482,-8.7062e-16,-1.14265e-15,0.617764,124.314,14.8931)">
                            <g transform="matrix(4.24661,5.98478e-15,7.85474e-15,1.61874,-527.911,-24.1081)">
                                <path d="M143,39L140,30L137,39L143,39Z" style="fill:rgb(102,102,102);"/>
                                <path d="M140,37.2L140,230" style="fill:none;stroke:rgb(102,102,102);stroke-width:1px;"/>
                            </g>
                        </g>
                        <g transform="matrix(-0.451339,-0.00067331,0.000883181,0.308885,289.757,32.4904)">
                            <g transform="matrix(-2.21564,-0.00482968,0.00633509,3.23747,641.791,-103.787)">
                                <path d="M250.991,143.346L260,140.374L251.009,137.346L250.991,143.346Z" style="fill:rgb(102,102,102);"/>
                                <path d="M252.8,140.352C213.84,140.23 30,139.657 30,139.657" style="fill:none;stroke:rgb(102,102,102);stroke-width:1px;"/>
                            </g>
                        </g>
                        <g transform="matrix(1,0,0,1,-1039.67,-177.206)">
                            <g transform="matrix(14,0,0,14,1299.67,329.721)">
                            </g>
                            <text x="1292.67px" y="329.721px" style="font-family:'TimesNewRomanPSMT', 'Times New Roman', serif;font-size:14px;fill:rgb(102,102,102);">x</text>
                        </g>
                        <g transform="matrix(1,0,0,1,-1151.67,-292.612)">
                            <g transform="matrix(14,0,0,14,1286.67,329.721)">
                            </g>
                            <text x="1279.67px" y="329.721px" style="font-family:'TimesNewRomanPSMT', 'Times New Roman', serif;font-size:14px;fill:rgb(102,102,102);">y</text>
                        </g>
                        <g transform="matrix(1,0,0,0.366516,10,90.5203)">
                            <path d="M90,135L90,145.914" style="fill:none;stroke:rgb(102,102,102);stroke-width:1.33px;stroke-linecap:butt;"/>
                        </g>
                        <g transform="matrix(1,0,0,0.366516,130,90.5203)">
                            <path d="M90,135L90,145.914" style="fill:none;stroke:rgb(102,102,102);stroke-width:1.33px;stroke-linecap:butt;"/>
                        </g>
                        <g transform="matrix(1,0,0,0.366516,-10,90.5203)">
                            <path d="M90,135L90,145.914" style="fill:none;stroke:rgb(102,102,102);stroke-width:1.33px;stroke-linecap:butt;"/>
                        </g>
                        <g transform="matrix(1,0,0,0.366516,110,90.5203)">
                            <path d="M90,135L90,145.914" style="fill:none;stroke:rgb(102,102,102);stroke-width:1.33px;stroke-linecap:butt;"/>
                        </g>
                        <g transform="matrix(1,0,0,0.366516,-30,90.5203)">
                            <path d="M90,135L90,145.914" style="fill:none;stroke:rgb(102,102,102);stroke-width:1.33px;stroke-linecap:butt;"/>
                        </g>
                        <g transform="matrix(1,0,0,0.366516,90,90.5203)">
                            <path d="M90,135L90,145.914" style="fill:none;stroke:rgb(102,102,102);stroke-width:1.33px;stroke-linecap:butt;"/>
                        </g>
                        <g transform="matrix(1,0,0,0.366516,-50,90.5203)">
                            <path d="M90,135L90,145.914" style="fill:none;stroke:rgb(102,102,102);stroke-width:1.33px;stroke-linecap:butt;"/>
                        </g>
                        <g transform="matrix(1,0,0,0.366516,70,90.5203)">
                            <path d="M90,135L90,145.914" style="fill:none;stroke:rgb(102,102,102);stroke-width:1.33px;stroke-linecap:butt;"/>
                        </g>
                        <g transform="matrix(1,0,0,0.366516,30,90.5203)">
                            <path d="M90,135L90,145.914" style="fill:none;stroke:rgb(102,102,102);stroke-width:1.33px;stroke-linecap:butt;"/>
                        </g>
                        <g transform="matrix(6.12323e-17,-1,0.366516,2.24427e-17,86.5203,150)">
                            <path d="M90,135L90,145.914" style="fill:none;stroke:rgb(102,102,102);stroke-width:1.33px;stroke-linecap:butt;"/>
                        </g>
                        <g transform="matrix(6.12323e-17,-1,0.366516,2.24427e-17,86.5203,250)">
                            <path d="M90,135L90,145.914" style="fill:none;stroke:rgb(102,102,102);stroke-width:1.33px;stroke-linecap:butt;"/>
                        </g>
                        <g transform="matrix(6.12323e-17,-1,0.366516,2.24427e-17,86.5203,170)">
                            <path d="M90,135L90,145.914" style="fill:none;stroke:rgb(102,102,102);stroke-width:1.33px;stroke-linecap:butt;"/>
                        </g>
                        <g transform="matrix(6.12323e-17,-1,0.366516,2.24427e-17,86.5203,270)">
                            <path d="M90,135L90,145.914" style="fill:none;stroke:rgb(102,102,102);stroke-width:1.33px;stroke-linecap:butt;"/>
                        </g>
                        <g transform="matrix(6.12323e-17,-1,0.366516,2.24427e-17,86.5203,190)">
                            <path d="M90,135L90,145.914" style="fill:none;stroke:rgb(102,102,102);stroke-width:1.33px;stroke-linecap:butt;"/>
                        </g>
                        <g transform="matrix(6.12323e-17,-1,0.366516,2.24427e-17,86.5203,290)">
                            <path d="M90,135L90,145.914" style="fill:none;stroke:rgb(102,102,102);stroke-width:1.33px;stroke-linecap:butt;"/>
                        </g>
                        <g transform="matrix(6.12323e-17,-1,0.366516,2.24427e-17,86.5203,210)">
                            <path d="M90,135L90,145.914" style="fill:none;stroke:rgb(102,102,102);stroke-width:1.33px;stroke-linecap:butt;"/>
                        </g>
                        <g transform="matrix(6.12323e-17,-1,0.366516,2.24427e-17,86.5203,310)">
                            <path d="M90,135L90,145.914" style="fill:none;stroke:rgb(102,102,102);stroke-width:1.33px;stroke-linecap:butt;"/>
                        </g>
                        <g transform="matrix(1,0,0,0.366516,150,90.5203)">
                            <path d="M90,135L90,145.914" style="fill:none;stroke:rgb(102,102,102);stroke-width:1.33px;stroke-linecap:butt;"/>
                        </g>
                        <g transform="matrix(1,0,0,1,22.06,-19.9792)">
                            <g transform="matrix(8,0,0,8,101.398,169.979)">
                            </g>
                            <text x="95.134px" y="169.979px" style="font-family:'TimesNewRomanPSMT', 'Times New Roman', serif;font-size:8px;fill:rgb(102,102,102);">-<tspan x="97.398px " y="169.979px ">1</tspan></text>
                        </g>
                        <g transform="matrix(1,0,0,1,142.06,-19.9792)">
                            <g transform="matrix(8,0,0,8,103.11,169.979)">
                            </g>
                            <text x="93.423px" y="169.979px" style="font-family:'TimesNewRomanPSMT', 'Times New Roman', serif;font-size:8px;fill:rgb(102,102,102);">5<tspan x="97.023px 98.623px 100.887px " y="169.979px 169.979px 169.979px "> ft</tspan></text>
                        </g>
                        <g transform="matrix(1,0,0,1,2.06,-19.9792)">
                            <g transform="matrix(8,0,0,8,101.398,169.979)">
                            </g>
                            <text x="95.134px" y="169.979px" style="font-family:'TimesNewRomanPSMT', 'Times New Roman', serif;font-size:8px;fill:rgb(102,102,102);">-<tspan x="97.398px " y="169.979px ">2</tspan></text>
                        </g>
                        <g transform="matrix(1,0,0,1,122.06,-19.9792)">
                            <g transform="matrix(8,0,0,8,100.266,169.979)">
                            </g>
                            <text x="96.266px" y="169.979px" style="font-family:'TimesNewRomanPSMT', 'Times New Roman', serif;font-size:8px;fill:rgb(102,102,102);">4</text>
                        </g>
                        <g transform="matrix(1,-2.44929e-16,2.44929e-16,1,34.69,-107.253)">
                            <g transform="matrix(8,0,0,8,100.266,169.979)">
                            </g>
                            <text x="96.266px" y="169.979px" style="font-family:'TimesNewRomanPSMT', 'Times New Roman', serif;font-size:8px;fill:rgb(102,102,102);">4</text>
                        </g>
                        <g transform="matrix(1,-2.44929e-16,2.44929e-16,1,34.69,52.6951)">
                            <g transform="matrix(8,0,0,8,100.066,169.979)">
                            </g>
                            <text x="93.402px" y="169.979px" style="font-family:'TimesNewRomanPSMT', 'Times New Roman', serif;font-size:8px;fill:rgb(102,102,102);">-4</text>
                        </g>
                        <g transform="matrix(1,0,0,1,-17.94,-19.9792)">
                            <g transform="matrix(8,0,0,8,101.398,169.979)">
                            </g>
                            <text x="95.134px" y="169.979px" style="font-family:'TimesNewRomanPSMT', 'Times New Roman', serif;font-size:8px;fill:rgb(102,102,102);">-<tspan x="97.398px " y="169.979px ">3</tspan></text>
                        </g>
                        <g transform="matrix(1,0,0,1,102.06,-19.9792)">
                            <g transform="matrix(8,0,0,8,100.266,169.979)">
                            </g>
                            <text x="96.266px" y="169.979px" style="font-family:'TimesNewRomanPSMT', 'Times New Roman', serif;font-size:8px;fill:rgb(102,102,102);">3</text>
                        </g>
                        <g transform="matrix(1,-2.44929e-16,2.44929e-16,1,34.7837,-87.2995)">
                            <g transform="matrix(8,0,0,8,100.266,169.979)">
                            </g>
                            <text x="96.266px" y="169.979px" style="font-family:'TimesNewRomanPSMT', 'Times New Roman', serif;font-size:8px;fill:rgb(102,102,102);">3</text>
                        </g>
                        <g transform="matrix(1,-2.44929e-16,2.44929e-16,1,34.7837,32.677)">
                            <g transform="matrix(8,0,0,8,100.066,169.979)">
                            </g>
                            <text x="93.802px" y="169.979px" style="font-family:'TimesNewRomanPSMT', 'Times New Roman', serif;font-size:8px;fill:rgb(102,102,102);">-<tspan x="96.066px " y="169.979px ">3</tspan></text>
                        </g>
                        <g transform="matrix(1,0,0,1,-37.94,-19.9792)">
                            <g transform="matrix(8,0,0,8,101.598,169.979)">
                            </g>
                            <text x="94.934px" y="169.979px" style="font-family:'TimesNewRomanPSMT', 'Times New Roman', serif;font-size:8px;fill:rgb(102,102,102);">-4</text>
                        </g>
                        <g transform="matrix(1,0,0,1,82.06,-19.9792)">
                            <g transform="matrix(8,0,0,8,100.266,169.979)">
                            </g>
                            <text x="96.266px" y="169.979px" style="font-family:'TimesNewRomanPSMT', 'Times New Roman', serif;font-size:8px;fill:rgb(102,102,102);">2</text>
                        </g>
                        <g transform="matrix(1,-2.44929e-16,2.44929e-16,1,34.6939,-67.2526)">
                            <g transform="matrix(8,0,0,8,100.266,169.979)">
                            </g>
                            <text x="96.266px" y="169.979px" style="font-family:'TimesNewRomanPSMT', 'Times New Roman', serif;font-size:8px;fill:rgb(102,102,102);">2</text>
                        </g>
                        <g transform="matrix(1,-2.44929e-16,2.44929e-16,1,34.6939,12.7682)">
                            <g transform="matrix(8,0,0,8,100.266,169.979)">
                            </g>
                            <text x="93.602px" y="169.979px" style="font-family:'TimesNewRomanPSMT', 'Times New Roman', serif;font-size:8px;fill:rgb(102,102,102);">-2</text>
                        </g>
                        <g transform="matrix(1,0,0,1,-57.94,-19.9792)">
                            <g transform="matrix(8,0,0,8,101.398,169.979)">
                            </g>
                            <text x="95.134px" y="169.979px" style="font-family:'TimesNewRomanPSMT', 'Times New Roman', serif;font-size:8px;fill:rgb(102,102,102);">-<tspan x="97.398px " y="169.979px ">5</tspan></text>
                        </g>
                        <g transform="matrix(1,0,0,1,62.06,-19.9792)">
                            <g transform="matrix(8,0,0,8,100.266,169.979)">
                            </g>
                            <text x="96.266px" y="169.979px" style="font-family:'TimesNewRomanPSMT', 'Times New Roman', serif;font-size:8px;fill:rgb(102,102,102);">1</text>
                        </g>
                        <g transform="matrix(1,-2.44929e-16,2.44929e-16,1,34.6333,-47.2995)">
                            <g transform="matrix(8,0,0,8,100.266,169.979)">
                            </g>
                            <text x="96.266px" y="169.979px" style="font-family:'TimesNewRomanPSMT', 'Times New Roman', serif;font-size:8px;fill:rgb(102,102,102);">1</text>
                        </g>
                        <g transform="matrix(1,-2.44929e-16,2.44929e-16,1,34.6333,-7.18489)">
                            <g transform="matrix(8,0,0,8,100.066,169.979)">
                            </g>
                            <text x="93.802px" y="169.979px" style="font-family:'TimesNewRomanPSMT', 'Times New Roman', serif;font-size:8px;fill:rgb(102,102,102);">-<tspan x="96.066px " y="169.979px ">1</tspan></text>
                        </g>
                    </g>
                </g>
                <g transform="matrix(1.24761,0,0,1.64248,-1163.84,-2325.89)">
                    <rect x="947.284" y="1430.22" width="210" height="144.162" style="fill:white;fill-opacity:0.6;"/>
                </g>
                <g transform="matrix(1.33862,0,0,1.33862,-20.3174,-47.4072)">
                    <g transform="matrix(-1,1.22465e-16,-1.22465e-16,-1,630,287.47)">
                        <path d="M570,140L562.53,140" style="fill:none;stroke:rgb(102,102,102);stroke-width:0.37px;"/>
                    </g>
                    <g transform="matrix(-1.83697e-16,-1,1,-1.83697e-16,-72.5296,710)">
                        <path d="M570,140L562.53,140" style="fill:none;stroke:rgb(102,102,102);stroke-width:0.37px;"/>
                    </g>
                </g>
                <g>
                    <g transform="matrix(1,0,0,1,-276.875,-126.333)">
                        <g transform="matrix(12,0,0,12,432.477,236.151)">
                        </g>
                        <text x="425.803px" y="236.151px" style="font-family:'TimesNewRomanPSMT', 'Times New Roman', serif;font-size:12px;fill:rgb(251,7,4);">F</text>
                    </g>
                    <g transform="matrix(1,0,0,1,-1.14024,0)">
                        <g transform="matrix(1,0,0,1,-278.149,-126.941)">
                            <path d="M435.823,234.522L435.823,238.609" style="fill:none;stroke:rgb(251,7,4);stroke-width:0.6px;stroke-linecap:butt;"/>
                        </g>
                        <g transform="matrix(6.12323e-17,1,-1,6.12323e-17,394.24,-324.155)">
                            <path d="M435.823,234.522L435.823,238.609" style="fill:none;stroke:rgb(251,7,4);stroke-width:0.6px;stroke-linecap:butt;"/>
                        </g>
                    </g>
                </g>
                <g transform="matrix(0.177515,-0.881657,0.733728,-0.177515,-81.4201,729.053)">
                    <path d="M661.538,32.692L590,50" style="fill:none;stroke:rgb(24,6,253);stroke-width:2.02px;"/>
                </g>
                <g transform="matrix(1,0,0,1,4.115,-5.03682)">
                    <g transform="matrix(12,0,0,12,52.4785,215.664)">
                    </g>
                    <text x="45.148px" y="215.664px" style="font-family:'TimesNewRomanPS-ItalicMT', 'Times New Roman', serif;font-style:italic;font-size:12px;fill:rgb(1,0,1);">A</text>
                </g>
                <g transform="matrix(1,0,0,1,6.72535,-78.661)">
                    <g transform="matrix(12,0,0,12,52.4785,215.664)">
                    </g>
                    <text x="43.812px" y="215.664px" style="font-family:'TimesNewRomanPS-ItalicMT', 'Times New Roman', serif;font-style:italic;font-size:12px;fill:rgb(1,0,1);">G</text>
                </g>
                <g transform="matrix(0.378568,0,0,0.378568,-115.3,45.3579)">
                    <path d="M819.667,250C819.667,236.677 812.971,224.247 801.847,216.916L780.044,250L819.667,250Z" style="fill:rgb(19,140,9);fill-opacity:0.33;stroke:rgb(19,140,9);stroke-width:2.58px;"/>
                </g>
                <g transform="matrix(0.657725,0,0,0.657725,-333.054,-24.4311)">
                    <path d="M802.041,217.044C795.528,212.697 787.874,210.377 780.044,210.377L780.044,250L802.041,217.044Z" style="fill:rgb(19,140,9);fill-opacity:0.33;stroke:rgb(19,140,9);stroke-width:1.49px;"/>
                </g>
                <g transform="matrix(0.753987,0,0,0.753987,-408.143,-48.4969)">
                    <path d="M740.421,250C740.421,256.067 741.814,262.054 744.494,267.498L780.044,250L740.421,250Z" style="fill:rgb(19,140,9);fill-opacity:0.33;stroke:rgb(19,140,9);stroke-width:1.3px;"/>
                </g>
                <g transform="matrix(-0.00146087,0.753986,-0.753986,-0.00146087,369.636,-447.777)">
                    <path d="M740.421,250C740.421,256.067 741.814,262.054 744.494,267.498L780.044,250L740.421,250Z" style="fill:rgb(19,140,9);fill-opacity:0.33;stroke:rgb(19,140,9);stroke-width:1.3px;"/>
                </g>
                <g transform="matrix(0.643803,0,0,0.643803,-322.194,-20.9507)">
                    <path d="M762.546,214.45C749,221.117 740.421,234.903 740.421,250L780.044,250L762.546,214.45Z" style="fill:rgb(19,140,9);fill-opacity:0.33;stroke:rgb(19,140,9);stroke-width:1.52px;"/>
                </g>
                <g transform="matrix(1,0,0,1,139.373,-64.2208)">
                    <g transform="matrix(12,0,0,12,52.4785,215.664)">
                    </g>
                    <text x="43.812px" y="215.664px" style="font-family:'TimesNewRomanPS-ItalicMT', 'Times New Roman', serif;font-style:italic;font-size:12px;fill:rgb(1,0,1);">D</text>
                </g>
                <g transform="matrix(0.339888,-0.194222,-0.923077,2.38462,176.45,-40.1381)">
                    <g transform="matrix(3.77778,0.307692,1.46237,0.538462,-607.891,-32.6794)">
                        <path d="M236.88,61.441L240,50L230.639,57.28L236.88,61.441Z" style="fill:rgb(242,13,13);"/>
                        <path d="M235.008,57.488C220.605,79.093 180,140 180,140" style="fill:none;stroke:rgb(242,13,13);stroke-width:2.5px;"/>
                    </g>
                </g>
                <g transform="matrix(0.339888,-0.194222,-0.923077,2.38462,176.45,-40.1381)">
                    <g transform="matrix(3.77778,0.307692,1.46237,0.538462,-607.891,-32.6794)">
                        <path d="M173.292,146.708L180,140L170.609,141.342L173.292,146.708Z" style="fill:rgb(24,6,253);"/>
                        <path d="M173.56,143.22C148.651,155.674 60,200 60,200" style="fill:none;stroke:rgb(24,6,253);stroke-width:2px;"/>
                    </g>
                </g>
                <g transform="matrix(-1.19975,0.593729,-0.593729,-1.19975,335.11,272.351)">
                    <g transform="matrix(-1,1.22465e-16,-1.22465e-16,-1,630,287.47)">
                        <path d="M570,140L562.53,140" style="fill:none;stroke:rgb(102,102,102);stroke-width:0.37px;"/>
                    </g>
                    <g transform="matrix(-1.83697e-16,-1,1,-1.83697e-16,-72.5296,710)">
                        <path d="M570,140L562.53,140" style="fill:none;stroke:rgb(102,102,102);stroke-width:0.37px;"/>
                    </g>
                </g>
                <g transform="matrix(1.20519,-0.596421,0.596421,1.20519,0.465279,-40.8236)">
                    <g transform="matrix(-1,1.22465e-16,-1.22465e-16,-1,630,287.47)">
                        <path d="M570,140L562.53,140" style="fill:none;stroke:rgb(102,102,102);stroke-width:0.37px;"/>
                    </g>
                    <g transform="matrix(-1.83697e-16,-1,1,-1.83697e-16,-72.5296,710)">
                        <path d="M570,140L562.53,140" style="fill:none;stroke:rgb(102,102,102);stroke-width:0.37px;"/>
                    </g>
                </g>
                <g transform="matrix(-0.23498,0.141768,0.415249,-2.1307,180.33,261.748)">
                    <path d="M276.841,98.09L-88.751,93.474" style="fill:none;stroke:rgb(102,102,102);stroke-width:0.71px;stroke-dasharray:5.67,3.54,0,0,0,0;stroke-dashoffset:-4.96;"/>
                </g>
                <g transform="matrix(1,0,0,1,23.422,-7.37063)">
                    <g transform="matrix(12,0,0,12,101.875,189.484)">
                    </g>
                    <text x="95.875px" y="189.484px" style="font-family:'TimesNewRomanPSMT', 'Times New Roman', serif;font-size:12px;fill:rgb(24,6,253);">d</text>
                </g>
                <g transform="matrix(1.5,3.40196e-30,2.07076e-30,1,-555,-60)">
                    <path d="M410,200L490,200" style="fill:none;stroke:rgb(24,6,253);stroke-width:1.57px;"/>
                </g>
                <g transform="matrix(-0.089314,-0.130073,1.87679,-0.0925789,-3.35846,137.086)">
                    <g transform="matrix(-0.366813,0.515369,-7.43614,-0.353877,1018.16,50.2423)">
                        <path d="M162.718,98.703L156.01,91.995L157.351,101.387L162.718,98.703Z" style="fill:rgb(251,7,4);"/>
                        <path d="M159.23,98.435C165.771,111.518 180,139.976 180,139.976" style="fill:none;stroke:rgb(251,7,4);stroke-width:2px;"/>
                    </g>
                </g>
                <g transform="matrix(0.0701307,0,0,0.0701307,-30.0491,129.841)">
                    <circle cx="1284.02" cy="146.636" r="35.648" style="fill:rgb(1,0,1);"/>
                </g>
                <g transform="matrix(0.0701307,0,0,0.0701307,-30.0491,189.716)">
                    <circle cx="1284.02" cy="146.636" r="35.648" style="fill:rgb(1,0,1);"/>
                </g>
                <g transform="matrix(1,0,0,1,146.964,-71.1521)">
                    <g transform="matrix(12,0,0,12,101.875,189.484)">
                    </g>
                    <text x="58.903px" y="189.484px" style="font-family:'TimesNewRomanPSMT', 'Times New Roman', serif;font-size:12px;fill:rgb(251,7,4);">F<tspan x="64.977px 71.145px 76.545px 81.945px 87.345px 89.745px 92.479px 97.879px " y="189.484px 189.484px 189.484px 189.484px 189.484px 189.484px 189.484px 189.484px ">=500 lbf</tspan></text>
                </g>
                <g transform="matrix(1,0,0,1,-632.966,-100.025)">
                    <g transform="matrix(12,0,0,12,834.28,233.529)">
                    </g>
                    <text x="828.532px" y="233.529px" style="font-family:'TimesNewRomanPSMT', 'Times New Roman', serif;font-size:12px;fill:rgb(19,140,9);">θ</text>
                </g>
                <g transform="matrix(1,0,0,1,-642.52,-121.083)">
                    <g transform="matrix(12,0,0,12,834.819,233.529)">
                    </g>
                    <text x="828.532px" y="233.529px" style="font-family:'TimesNewRomanPSMT', 'Times New Roman', serif;font-size:12px;fill:rgb(19,140,9);">α</text>
                </g>
                <g transform="matrix(1,0,0,1,-688.229,-83.601)">
                    <text x="828.532px" y="233.529px" style="font-family:'TimesNewRomanPSMT', 'Times New Roman', serif;font-size:12px;fill:rgb(19,140,9);">β</text>
                    <g transform="matrix(6.996,0,0,6.996,838.136,237.525)">
                    </g>
                    <text x="834.638px" y="237.525px" style="font-family:'TimesNewRomanPSMT', 'Times New Roman', serif;font-size:6.996px;fill:rgb(19,140,9);">1</text>
                </g>
                <g transform="matrix(1,0,0,1,-688.229,-83.601)">
                    <text x="828.532px" y="233.529px" style="font-family:'TimesNewRomanPSMT', 'Times New Roman', serif;font-size:12px;fill:rgb(19,140,9);">β</text>
                    <g transform="matrix(6.996,0,0,6.996,838.136,237.525)">
                    </g>
                    <text x="834.638px" y="237.525px" style="font-family:'TimesNewRomanPSMT', 'Times New Roman', serif;font-size:6.996px;fill:rgb(19,140,9);">1</text>
                </g>
                <g transform="matrix(1,0,0,1,-659.443,-128.59)">
                    <text x="828.532px" y="233.529px" style="font-family:'TimesNewRomanPSMT', 'Times New Roman', serif;font-size:12px;fill:rgb(19,140,9);">β</text>
                    <g transform="matrix(6.996,0,0,6.996,838.136,237.525)">
                    </g>
                    <text x="834.638px" y="237.525px" style="font-family:'TimesNewRomanPSMT', 'Times New Roman', serif;font-size:6.996px;fill:rgb(19,140,9);">2</text>
                </g>
                <g transform="matrix(1,0,0,1,-676.64,-108.609)">
                    <g transform="matrix(12,0,0,12,833.835,233.529)">
                    </g>
                    <text x="828.532px" y="233.529px" style="font-family:'TimesNewRomanPSMT', 'Times New Roman', serif;font-size:12px;fill:rgb(19,140,9);">γ</text>
                </g>
                <g transform="matrix(1,0,0,1,-322.237,-57.0375)">
                    <g transform="matrix(12,0,0,12,445.211,193.622)">
                    </g>
                    <text x="439.211px" y="193.622px" style="font-family:'TimesNewRomanPSMT', 'Times New Roman', serif;font-size:12px;fill:rgb(24,6,253);">6</text>
                </g>
                <g transform="matrix(1,0,0,1,-388.922,-19.0073)">
                    <g transform="matrix(12,0,0,12,445.211,193.622)">
                    </g>
                    <text x="439.211px" y="193.622px" style="font-family:'TimesNewRomanPSMT', 'Times New Roman', serif;font-size:12px;fill:rgb(24,6,253);">3</text>
                </g>
                <g transform="matrix(0.340259,-0.922341,0.922341,0.340259,-975.417,1551.78)">
                    <g transform="matrix(0.352056,0.954321,-0.954321,0.352056,1824.3,384.546)">
                        <path d="M71.09,193.665L65.353,186.11L74.476,188.712L71.09,193.665Z" style="fill:rgb(251,7,4);"/>
                        <path d="M55.146,213.78C62.781,216.597 71.268,212.684 74.085,205.049C76.029,199.778 74.772,194.108 71.297,190.173" style="fill:none;stroke:rgb(251,7,4);stroke-width:2px;"/>
                    </g>
                </g>
                <g transform="matrix(1,0,0,1,-327.869,0.943151)">
                    <text x="395.248px" y="183.039px" style="font-family:'TimesNewRomanPSMT', 'Times New Roman', serif;font-size:12px;fill:rgb(251,7,4);">M</text>
                    <g transform="matrix(6.996,0,0,6.996,410.37,187.035)">
                    </g>
                    <text x="405.318px" y="187.035px" style="font-family:'TimesNewRomanPSMT', 'Times New Roman', serif;font-size:6.996px;fill:rgb(251,7,4);">A</text>
                </g>
                <g transform="matrix(1,0,0,1,-1050,0)">
                    <path d="M1230,140.125L1230,100" style="fill:none;stroke:rgb(102,102,102);stroke-width:1px;"/>
                </g>
                <g transform="matrix(0.0701307,0,0,0.0701307,89.9509,129.716)">
                    <circle cx="1284.02" cy="146.636" r="35.648" style="fill:rgb(1,0,1);"/>
                </g>
            </g>
        </g>
    </g>
</svg>
