<?xml version="1.0" encoding="UTF-8" standalone="no"?>
<!DOCTYPE svg PUBLIC "-//W3C//DTD SVG 1.1//EN" "http://www.w3.org/Graphics/SVG/1.1/DTD/svg11.dtd">
<svg width="100%" height="100%" viewBox="0 0 181 135" version="1.1" xmlns="http://www.w3.org/2000/svg" xmlns:xlink="http://www.w3.org/1999/xlink" xml:space="preserve" xmlns:serif="http://www.serif.com/" style="fill-rule:evenodd;clip-rule:evenodd;stroke-linecap:round;stroke-linejoin:round;stroke-miterlimit:1.5;">
    <g transform="matrix(1,0,0,1,-378,0)">
        <g transform="matrix(2.07612,0,0,2.21749,-369.226,-176.741)">
            <rect id="contact-point-c" x="360.384" y="79.703" width="86.7" height="60.88" style="fill:none;"/>
            <g id="contact-point-c1" serif:id="contact-point-c">
                <g id="bearing-block" serif:id="bearing block" transform="matrix(0.946961,0,-4.63828e-35,0.886591,21.4136,9.50153)">
                    <path d="M372.536,111.567C372.54,94.383 386.498,80.453 403.717,80.453C420.935,80.453 434.894,94.383 434.898,111.567L446.334,111.567L446.334,139.833L361.134,139.833L361.134,111.567L372.536,111.567ZM423.534,111.652C423.534,100.671 414.669,91.77 403.734,91.77C392.799,91.77 383.934,100.671 383.934,111.652C383.934,122.632 392.799,131.533 403.734,131.533C414.669,131.533 423.534,122.632 423.534,111.652Z" style="fill:rgb(230,229,230);"/>
                    <path d="M372.536,111.567C372.54,94.383 386.498,80.453 403.717,80.453C420.935,80.453 434.894,94.383 434.898,111.567L446.334,111.567L446.334,139.833L361.134,139.833L361.134,111.567L372.536,111.567ZM423.534,111.652C423.534,100.671 414.669,91.77 403.734,91.77C392.799,91.77 383.934,100.671 383.934,111.652C383.934,122.632 392.799,131.533 403.734,131.533C414.669,131.533 423.534,122.632 423.534,111.652Z" style="fill:none;stroke:black;stroke-width:0.76px;"/>
                </g>
                <g transform="matrix(0.866025,0.468124,-0.534046,0.866025,111.689,-174.455)">
                    <g id="shaft" transform="matrix(2.16125e-19,-0.801136,-0.860874,2.02737e-19,429.651,146.322)">
                        <path d="M45.12,10.52C56.122,10.52 65.04,19.385 65.04,30.32C65.04,41.255 56.122,50.12 45.12,50.12C34.118,50.12 25.2,41.255 25.2,30.32C25.2,19.385 34.118,10.52 45.12,10.52" style="fill:url(#_Linear1);fill-rule:nonzero;stroke:black;stroke-width:0.75px;"/>
                    </g>
                    <g transform="matrix(0.224347,-2.17129e-35,-1.15957e-35,0.207616,368.867,105.379)">
                        <ellipse cx="154.592" cy="23.097" rx="5.367" ry="5.43"/>
                    </g>
                    <g transform="matrix(0.233148,-0.126027,0.133052,0.215761,363.018,140.952)">
                        <ellipse cx="154.592" cy="23.097" rx="5.367" ry="5.43" style="fill:rgb(214,46,26);"/>
                    </g>
                </g>
                <g transform="matrix(-1.05659,-0.0333273,-0.0355966,0.989232,559.419,4.8861)">
                    <path d="M133.115,105.34C132.38,106.961 132,108.72 132,110.5C132,117.399 137.601,123 144.5,123C149.407,123 153.86,120.129 155.885,115.66C153.86,120.129 149.407,123 144.5,123C137.601,123 132,117.399 132,110.5C132,108.72 132.38,106.961 133.115,105.34Z" style="fill:rgb(235,235,235);"/>
                    <g transform="matrix(-0.455352,-0.0153408,-0.0153408,0.455352,186.06,81.8999)">
                        <path d="M117.869,55.851L111.66,48.678L112.324,58.142L117.869,55.851Z" style="fill:rgb(214,46,26);"/>
                        <path d="M114.409,55.332C115.901,58.942 116.604,62.829 116.473,66.733C115.963,81.866 103.263,93.739 88.129,93.229C77.365,92.867 67.809,86.24 63.696,76.286C67.809,86.24 77.365,92.867 88.129,93.229C103.263,93.739 115.963,81.866 116.473,66.733C116.604,62.829 115.901,58.942 114.409,55.332Z" style="fill:none;stroke:rgb(214,46,26);stroke-width:2px;stroke-linecap:butt;"/>
                    </g>
                </g>
                <g id="impending-motion-arrow" serif:id="impending motion arrow" transform="matrix(0.212433,-0.472405,0.504573,0.19889,-579.448,843.742)">
                    <path d="M2019.27,1076.88C2019.34,1077.37 2019.27,1076.88 2019.27,1076.88L2021.26,1080.38L2006,1075.7L2020.12,1067.64L2018.53,1071.78C2030.98,1071.78 2041.75,1081.67 2042.24,1094.11L2037.19,1094.3C2036.82,1084.64 2028.92,1076.98 2019.27,1076.88Z" style="fill:url(#_Linear2);"/>
                </g>
                <g transform="matrix(-3.20854e-16,-1.02491,0.481667,-2.75366e-16,343.154,221.367)">
                    <g transform="matrix(-2.68674e-16,1,-0.44,-2.93099e-16,138.221,34.7966)">
                        <path d="M85.203,55.138L88.203,64.138L91.203,55.138L85.203,55.138Z" style="fill:rgb(225,32,32);"/>
                        <path d="M88.203,56.938L88.203,39.138" style="fill:none;stroke:rgb(225,32,32);stroke-width:2px;stroke-linecap:butt;"/>
                    </g>
                </g>
                <g transform="matrix(0.481667,0,0,0.45096,328.324,86.7527)">
                    <g transform="matrix(13.3333,0,0,13.3333,165.24,35.3742)">
                    </g>
                    <text x="156.203px" y="35.374px" style="font-family:'CMUSerif-Italic', 'CMU Serif';font-weight:500;font-style:italic;font-size:13.333px;">P</text>
                </g>
                <g transform="matrix(0.481667,0,0,0.45096,322.982,103.25)">
                    <g transform="matrix(13.3333,0,0,13.3333,168.15,35.3742)">
                    </g>
                    <text x="156.203px" y="35.374px" style="font-family:'CMUSerif-Italic', 'CMU Serif';font-weight:500;font-style:italic;font-size:13.333px;">M</text>
                </g>
            </g>
        </g>
    </g>
    <defs>
        <linearGradient id="_Linear1" x1="0" y1="0" x2="1" y2="0" gradientUnits="userSpaceOnUse" gradientTransform="matrix(-19.92,6.73556e-16,-2.4395e-15,-5.5,65.04,30.32)"><stop offset="0" style="stop-color:white;stop-opacity:1"/><stop offset="1" style="stop-color:rgb(166,166,166);stop-opacity:1"/></linearGradient>
        <linearGradient id="_Linear2" x1="0" y1="0" x2="1" y2="0" gradientUnits="userSpaceOnUse" gradientTransform="matrix(32.4394,12.1097,-12.1097,32.4394,2008.26,1074.54)"><stop offset="0" style="stop-color:rgb(100,100,100);stop-opacity:1"/><stop offset="0.44" style="stop-color:rgb(140,140,140);stop-opacity:1"/><stop offset="1" style="stop-color:rgb(233,233,233);stop-opacity:1"/></linearGradient>
    </defs>
</svg>
