<?xml version="1.0" encoding="UTF-8" standalone="no"?>
<!DOCTYPE svg PUBLIC "-//W3C//DTD SVG 1.1//EN" "http://www.w3.org/Graphics/SVG/1.1/DTD/svg11.dtd">
<svg width="100%" height="100%" viewBox="0 0 181 199" version="1.1" xmlns="http://www.w3.org/2000/svg" xmlns:xlink="http://www.w3.org/1999/xlink" xml:space="preserve" xmlns:serif="http://www.serif.com/" style="fill-rule:evenodd;clip-rule:evenodd;stroke-linejoin:round;stroke-miterlimit:2;">
    <g transform="matrix(1,0,0,1,-678,-297)">
        <g id="MOI-rect-vertical-strip" transform="matrix(1,0,0,1,492.932,-652.411)">
            <rect x="185.226" y="949.881" width="180" height="198.529" style="fill:none;"/>
            <clipPath id="_clip1">
                <rect x="185.226" y="949.881" width="180" height="198.529"/>
            </clipPath>
            <g clip-path="url(#_clip1)">
                <g transform="matrix(1.25488,0,0,1.25488,184.527,950.942)">
                    <rect x="29.624" y="28.432" width="85.296" height="113.727" style="fill:rgb(242,242,242);stroke:black;stroke-opacity:0.7;stroke-width:0.8px;"/>
                </g>
                <g transform="matrix(1.25488,0,0,1.25488,184.527,950.942)">
                    <g transform="matrix(0.796889,-0,-0,0.796889,0.43091,-1.21984)">
                        <path d="M39.514,11.457L36.634,2.817L33.754,11.457L39.514,11.457Z" style="fill-rule:nonzero;"/>
                        <path d="M36.634,9.729L36.634,215.602" style="fill:none;fill-rule:nonzero;stroke:black;stroke-width:0.64px;stroke-linejoin:miter;stroke-miterlimit:10;"/>
                    </g>
                </g>
                <g transform="matrix(1.25488,0,0,1.25488,184.527,950.942)">
                    <g transform="matrix(0.796889,-0,-0,0.796889,0.43091,-1.21984)">
                        <path d="M170.548,177.043L179.188,179.923L170.548,182.803L170.548,177.043Z" style="fill-rule:nonzero;"/>
                        <path d="M-0.169,179.923L172.276,179.923" style="fill:none;fill-rule:nonzero;stroke:black;stroke-width:0.64px;stroke-linejoin:miter;stroke-miterlimit:10;"/>
                    </g>
                </g>
                <g transform="matrix(1.25488,0,0,10.0214,184.527,385.348)">
                    <rect x="70.028" y="59.999" width="14.221" height="14.221" style="fill-opacity:0.09;stroke:black;stroke-opacity:0.7;stroke-width:0.14px;"/>
                </g>
                <g transform="matrix(1.22011,0,0,1.22011,187.209,976.047)">
                    <path d="M79.188,67.109C79.188,68.242 78.271,69.159 77.139,69.159C76.007,69.159 75.09,68.242 75.09,67.109C75.09,65.977 76.007,65.06 77.139,65.06C78.271,65.06 79.188,65.977 79.188,67.109Z" style="fill-rule:nonzero;"/>
                </g>
                <g transform="matrix(1,0,0,1,-0.327228,1.70266)">
                    <g transform="matrix(0.22428,0,0,0.22428,274.227,1004.33)">
                        <path d="M26.727,-34.988L19.355,-5.379C19.147,-4.525 19.043,-3.706 19.043,-2.922C19.043,-1.347 19.555,-0.56 20.58,-0.56C21.881,-0.56 22.975,-1.926 23.861,-4.659C24.032,-5.24 24.237,-5.993 24.478,-6.916C24.75,-7.497 24.987,-7.804 25.19,-7.836C25.601,-7.836 25.806,-7.666 25.806,-7.324C25.806,-6.812 25.5,-5.617 24.886,-3.738C24.683,-3.156 24.478,-2.663 24.27,-2.257C23.314,-0.379 22.052,0.56 20.483,0.56C18.568,0.56 17.183,-0.259 16.329,-1.897C16.089,-2.308 15.918,-2.77 15.817,-3.282C13.666,-0.72 11.446,0.56 9.157,0.56C6.596,0.56 4.701,-0.6 3.474,-2.922C2.721,-4.288 2.345,-5.859 2.345,-7.636C2.345,-11.324 3.626,-14.739 6.187,-17.882C8.578,-20.748 11.174,-22.317 13.976,-22.589C14.216,-22.626 14.453,-22.645 14.688,-22.645C16.775,-22.645 18.346,-21.551 19.403,-19.363L22.477,-31.506L22.629,-32.53C22.629,-32.904 22.391,-33.144 21.916,-33.25C21.505,-33.352 20.889,-33.403 20.067,-33.403C19.32,-33.403 18.912,-33.608 18.842,-34.019C18.842,-34.595 19.08,-34.918 19.555,-34.988C22.767,-35.366 24.937,-35.556 26.063,-35.556C26.506,-35.556 26.727,-35.366 26.727,-34.988ZM16.073,-6.099L18.634,-16.137C18.736,-16.649 18.787,-16.94 18.787,-17.009C18.787,-17.725 18.48,-18.594 17.866,-19.619C17.114,-20.884 16.073,-21.516 14.744,-21.516C12.967,-21.516 11.276,-20.355 9.669,-18.034C9.365,-17.591 9.074,-17.113 8.797,-16.601C7.81,-14.616 6.974,-11.799 6.291,-8.148C6.083,-6.985 5.979,-6.062 5.979,-5.379C5.979,-3.058 6.63,-1.556 7.932,-0.872C8.306,-0.664 8.749,-0.56 9.261,-0.56C11.172,-0.56 13.101,-1.774 15.048,-4.202C15.529,-4.747 15.854,-5.31 16.025,-5.891L16.025,-5.939C16.057,-6.009 16.073,-6.062 16.073,-6.099Z" style="fill-rule:nonzero;"/>
                    </g>
                    <g transform="matrix(0.22428,0,0,0.22428,280.207,1004.33)">
                        <path d="M9.469,-5.891L27.295,-35.812C27.637,-36.356 28.08,-36.644 28.624,-36.677C29.136,-36.677 29.427,-36.506 29.496,-36.164C29.529,-36.063 29.563,-35.825 29.6,-35.452L32.722,-3.434C32.824,-2.58 33.029,-2.068 33.339,-1.897L33.387,-1.897L33.387,-1.841C33.798,-1.67 34.686,-1.585 36.052,-1.585C36.804,-1.585 37.197,-1.398 37.229,-1.025C37.229,-0.342 36.922,0 36.308,0L30.569,-0.152L30.521,-0.152L24.166,0L24.117,0C23.637,0 23.397,-0.187 23.397,-0.56C23.674,-1.211 24.085,-1.553 24.63,-1.585C27.09,-1.585 28.32,-2.151 28.32,-3.282C28.32,-3.244 28.045,-6.094 27.495,-11.831L14.64,-11.831L10.75,-5.275C10.27,-4.421 10.03,-3.789 10.03,-3.378C10.03,-2.321 10.833,-1.724 12.439,-1.585C12.983,-1.585 13.255,-1.382 13.255,-0.977C13.255,-0.326 12.933,0 12.287,0L7.364,-0.152L7.164,-0.152L2.858,0L2.754,0C2.311,0 2.089,-0.187 2.089,-0.56C2.089,-1.179 2.345,-1.505 2.858,-1.537L2.858,-1.585L3.162,-1.585C5.318,-1.724 7.078,-2.647 8.445,-4.354C8.786,-4.797 9.128,-5.31 9.469,-5.891ZM15.617,-13.423L27.343,-13.423L25.702,-30.329L15.617,-13.423Z" style="fill-rule:nonzero;"/>
                    </g>
                </g>
                <g transform="matrix(1,0,0,1,-0.327228,1.70266)">
                    <g transform="matrix(1.25488,0,0,1.25488,184.854,949.239)">
                        <path d="M117.763,28.432L129.136,28.432" style="fill:none;fill-rule:nonzero;stroke:black;stroke-opacity:0.7;stroke-width:0.26px;stroke-linecap:round;stroke-miterlimit:10;"/>
                    </g>
                    <g transform="matrix(1.25488,0,0,1.25488,184.854,949.239)">
                        <path d="M114.92,25.589L114.92,14.216" style="fill:none;fill-rule:nonzero;stroke:black;stroke-opacity:0.7;stroke-width:0.26px;stroke-linecap:round;stroke-miterlimit:10;"/>
                    </g>
                </g>
                <g transform="matrix(1.22011,0,0,1.22011,188.523,951.93)">
                    <path d="M116.969,28.432C116.969,29.563 116.052,30.481 114.92,30.481C113.788,30.481 112.871,29.563 112.871,28.432C112.871,27.3 113.788,26.383 114.92,26.383C116.052,26.383 116.969,27.3 116.969,28.432Z" style="fill-rule:nonzero;"/>
                </g>
                <g transform="matrix(1,0,0,1,-0.327228,1.70266)">
                    <g transform="matrix(0.263525,0,0,0.263525,330.783,974.792)">
                        <path d="M17.25,12.295C17.25,12.636 17.079,12.807 16.737,12.807C16.332,12.807 15.427,12.108 14.024,10.71C11.905,8.591 10.147,6.081 8.749,3.178C6.497,-1.47 5.371,-6.798 5.371,-12.807C5.371,-18.581 6.446,-23.789 8.597,-28.432C10.374,-32.221 12.628,-35.26 15.36,-37.549C16.076,-38.131 16.535,-38.421 16.737,-38.421C17.079,-38.421 17.25,-38.251 17.25,-37.909C17.25,-37.738 17.028,-37.448 16.585,-37.037C11.089,-31.439 8.341,-23.362 8.341,-12.807C8.341,-2.289 11.022,5.702 16.385,11.166C16.961,11.748 17.25,12.124 17.25,12.295Z" style="fill-rule:nonzero;"/>
                    </g>
                    <g transform="matrix(0.263525,0,0,0.263525,336.035,974.792)">
                        <path d="M12.543,-34.988L8.749,-19.571C10.729,-21.62 12.727,-22.645 14.744,-22.645C17.306,-22.645 19.219,-21.465 20.483,-19.107C21.198,-17.741 21.556,-16.188 21.556,-14.448C21.556,-10.825 20.291,-7.444 17.762,-4.306C15.409,-1.403 12.815,0.203 9.981,0.512C9.704,0.544 9.448,0.56 9.213,0.56C6.753,0.56 4.925,-0.582 3.73,-2.866C3.047,-4.168 2.705,-5.705 2.705,-7.476C2.705,-8.64 2.978,-10.366 3.522,-12.655L7.724,-29.352C8.204,-31.369 8.445,-32.429 8.445,-32.53C8.445,-32.904 8.204,-33.144 7.724,-33.25C7.313,-33.352 6.7,-33.403 5.883,-33.403C5.131,-33.403 4.72,-33.608 4.651,-34.019C4.651,-34.595 4.976,-34.937 5.627,-35.043L11.871,-35.556C12.319,-35.556 12.543,-35.366 12.543,-34.988ZM7.724,-15.625L6.596,-10.91C6.051,-8.76 5.779,-7.036 5.779,-5.739C5.779,-2.799 6.668,-1.107 8.445,-0.664C8.68,-0.595 8.936,-0.56 9.213,-0.56C11.022,-0.56 12.711,-1.756 14.28,-4.146C14.622,-4.659 14.947,-5.224 15.256,-5.843C16.18,-7.786 16.948,-10.414 17.562,-13.728C17.765,-14.923 17.866,-15.913 17.866,-16.697C17.866,-19.43 17.031,-21.001 15.36,-21.412L15.305,-21.468C15.102,-21.5 14.88,-21.516 14.64,-21.516C12.591,-21.516 10.542,-20.15 8.493,-17.418C8.221,-17.076 7.964,-16.479 7.724,-15.625Z" style="fill-rule:nonzero;"/>
                    </g>
                    <g transform="matrix(0.263525,0,0,0.263525,341.827,974.792)">
                        <path d="M10.694,-0.048C10.694,3.26 9.619,6.163 7.468,8.661C6.887,9.344 6.409,9.752 6.035,9.886C5.694,9.886 5.523,9.699 5.523,9.325C5.523,9.154 5.71,8.88 6.083,8.501C8.133,6.452 9.277,3.944 9.517,0.977C9.549,0.635 9.565,0.293 9.565,-0.048C9.565,-0.56 9.533,-0.816 9.469,-0.816C9.432,-0.816 9.347,-0.766 9.213,-0.664C8.733,-0.221 8.135,0 7.42,0C6.155,0 5.318,-0.582 4.907,-1.745C4.768,-2.049 4.699,-2.372 4.699,-2.714C4.699,-3.946 5.23,-4.784 6.291,-5.227C6.633,-5.36 7.009,-5.427 7.42,-5.427C8.92,-5.427 9.926,-4.437 10.438,-2.457C10.609,-1.742 10.694,-0.939 10.694,-0.048Z" style="fill-rule:nonzero;"/>
                    </g>
                    <g transform="matrix(0.263525,0,0,0.263525,347.824,974.792)">
                        <path d="M15,-34.988L11.006,-18.698C13.119,-21.329 15.646,-22.645 18.586,-22.645C21.623,-22.645 23.501,-21.465 24.221,-19.107L24.221,-19.059C24.392,-18.477 24.478,-17.845 24.478,-17.162C24.478,-15.251 23.434,-11.494 21.348,-5.891C20.734,-4.386 20.427,-3.175 20.427,-2.257C20.427,-1.126 20.838,-0.56 21.66,-0.56C23.778,-0.56 25.451,-2.439 26.679,-6.196L26.887,-6.916C27.058,-7.46 27.228,-7.751 27.399,-7.788L27.399,-7.836L27.655,-7.836C28.061,-7.836 28.264,-7.666 28.264,-7.324C28.264,-6.743 27.906,-5.667 27.191,-4.098C25.724,-0.993 23.845,0.56 21.556,0.56C19.816,0.56 18.57,-0.173 17.818,-1.641C17.508,-2.255 17.354,-2.919 17.354,-3.634C17.354,-4.253 17.575,-5.192 18.018,-6.452C20.137,-11.852 21.196,-15.678 21.196,-17.93C21.196,-20.321 20.275,-21.516 18.434,-21.516C16.791,-21.516 15.15,-20.918 13.512,-19.723C12.247,-18.731 11.137,-17.263 10.182,-15.32L10.03,-15.008C9.891,-14.192 9.704,-13.423 9.469,-12.703C9.298,-11.919 9.008,-10.774 8.597,-9.269L7.468,-4.659L6.492,-0.768C6.257,-0.053 5.728,0.374 4.907,0.512C4.805,0.544 4.704,0.56 4.603,0.56C3.781,0.56 3.3,0.203 3.162,-0.512C3.13,-0.651 3.114,-0.771 3.114,-0.872C3.114,-1.145 3.183,-1.521 3.322,-2.001L10.75,-31.506L10.902,-32.53C10.902,-32.904 10.662,-33.144 10.182,-33.25C9.771,-33.352 9.157,-33.403 8.341,-33.403C7.588,-33.403 7.177,-33.608 7.108,-34.019C7.108,-34.595 7.433,-34.937 8.084,-35.043L14.336,-35.556C14.779,-35.556 15,-35.366 15,-34.988Z" style="fill-rule:nonzero;"/>
                    </g>
                    <g transform="matrix(0.263525,0,0,0.263525,355.603,974.792)">
                        <path d="M15.104,-12.807C15.104,-7.033 14.026,-1.825 11.871,2.818C10.099,6.606 7.847,9.645 5.115,11.935C4.394,12.516 3.933,12.807 3.73,12.807C3.389,12.807 3.218,12.636 3.218,12.295C3.218,12.124 3.439,11.833 3.882,11.422C9.379,5.825 12.127,-2.252 12.127,-12.807C12.127,-23.224 9.565,-31.113 4.442,-36.476L4.186,-36.732C3.541,-37.346 3.218,-37.738 3.218,-37.909C3.218,-38.251 3.389,-38.421 3.73,-38.421C4.141,-38.421 5.045,-37.722 6.444,-36.324C8.562,-34.206 10.32,-31.695 11.719,-28.792C13.976,-24.144 15.104,-18.816 15.104,-12.807Z" style="fill-rule:nonzero;"/>
                    </g>
                </g>
                <g transform="matrix(0.263525,0,0,0.263525,248.056,1074.87)">
                    <path d="M17.41,-15.473L15.665,-8.453C15.083,-6.131 14.792,-4.629 14.792,-3.946C14.792,-2.169 15.425,-1.094 16.689,-0.72C16.961,-0.614 17.268,-0.56 17.61,-0.56C19.317,-0.56 20.873,-1.414 22.276,-3.122C23.194,-4.216 23.909,-5.6 24.422,-7.276C24.528,-7.65 24.752,-7.836 25.094,-7.836C25.5,-7.836 25.702,-7.666 25.702,-7.324C25.702,-6.47 25.174,-5.24 24.117,-3.634C22.271,-0.838 20.067,0.56 17.506,0.56C15.185,0.56 13.496,-0.411 12.439,-2.353C12.231,-2.663 12.076,-2.988 11.975,-3.33C11.158,-1.692 10.032,-0.547 8.597,0.104C7.946,0.408 7.279,0.56 6.596,0.56C4.547,0.56 3.114,-0.037 2.297,-1.233C1.956,-1.676 1.785,-2.204 1.785,-2.818C1.785,-4.082 2.329,-4.971 3.418,-5.483C3.797,-5.686 4.192,-5.787 4.603,-5.787C5.627,-5.787 6.241,-5.36 6.444,-4.507C6.476,-4.336 6.492,-4.165 6.492,-3.994C6.492,-2.836 5.913,-1.982 4.755,-1.433C4.547,-1.331 4.325,-1.265 4.09,-1.233C4.805,-0.784 5.659,-0.56 6.652,-0.56C8.461,-0.56 9.893,-1.774 10.95,-4.202C11.158,-4.715 11.348,-5.278 11.518,-5.891C13.359,-12.86 14.28,-16.924 14.28,-18.082C14.077,-20.201 13.157,-21.345 11.518,-21.516C9.741,-21.516 8.119,-20.611 6.652,-18.802L6.652,-18.747C6.652,-18.714 6.633,-18.698 6.596,-18.698C6.083,-18.015 5.622,-17.231 5.211,-16.345C5.04,-15.934 4.888,-15.523 4.755,-15.112L4.651,-14.808C4.581,-14.429 4.36,-14.24 3.986,-14.24C3.575,-14.24 3.37,-14.411 3.37,-14.752C3.37,-15.606 3.917,-16.836 5.011,-18.442C6.852,-21.244 9.053,-22.645 11.615,-22.645C14.245,-22.645 16.092,-21.345 17.153,-18.747C18.242,-20.865 19.694,-22.13 21.508,-22.541C21.849,-22.61 22.191,-22.645 22.532,-22.645C24.544,-22.645 25.961,-22.082 26.783,-20.956C27.124,-20.475 27.295,-19.91 27.295,-19.259C27.295,-17.861 26.663,-16.921 25.398,-16.441C25.089,-16.34 24.798,-16.289 24.526,-16.289C23.469,-16.289 22.837,-16.751 22.629,-17.674C22.597,-17.813 22.581,-17.949 22.581,-18.082C22.581,-19.107 23.077,-19.91 24.069,-20.491C24.374,-20.662 24.696,-20.782 25.038,-20.852C24.323,-21.295 23.469,-21.516 22.477,-21.516C20.155,-21.516 18.517,-19.707 17.562,-16.089C17.492,-15.881 17.442,-15.675 17.41,-15.473Z" style="fill-rule:nonzero;"/>
                </g>
                <g transform="matrix(1,0,0,1,-0.327228,1.70266)">
                    <g transform="matrix(0.263525,0,0,0.263525,274.854,1141.83)">
                        <path d="M26.727,-34.988L19.355,-5.379C19.147,-4.525 19.043,-3.706 19.043,-2.922C19.043,-1.347 19.555,-0.56 20.58,-0.56C21.881,-0.56 22.975,-1.926 23.861,-4.659C24.032,-5.24 24.237,-5.993 24.478,-6.916C24.75,-7.497 24.987,-7.804 25.19,-7.836C25.601,-7.836 25.806,-7.666 25.806,-7.324C25.806,-6.812 25.5,-5.617 24.886,-3.738C24.683,-3.156 24.478,-2.663 24.27,-2.257C23.314,-0.379 22.052,0.56 20.483,0.56C18.568,0.56 17.183,-0.259 16.329,-1.897C16.089,-2.308 15.918,-2.77 15.817,-3.282C13.666,-0.72 11.446,0.56 9.157,0.56C6.596,0.56 4.701,-0.6 3.474,-2.922C2.721,-4.288 2.345,-5.859 2.345,-7.636C2.345,-11.324 3.626,-14.739 6.187,-17.882C8.578,-20.748 11.174,-22.317 13.976,-22.589C14.216,-22.626 14.453,-22.645 14.688,-22.645C16.775,-22.645 18.346,-21.551 19.403,-19.363L22.477,-31.506L22.629,-32.53C22.629,-32.904 22.391,-33.144 21.916,-33.25C21.505,-33.352 20.889,-33.403 20.067,-33.403C19.32,-33.403 18.912,-33.608 18.842,-34.019C18.842,-34.595 19.08,-34.918 19.555,-34.988C22.767,-35.366 24.937,-35.556 26.063,-35.556C26.506,-35.556 26.727,-35.366 26.727,-34.988ZM16.073,-6.099L18.634,-16.137C18.736,-16.649 18.787,-16.94 18.787,-17.009C18.787,-17.725 18.48,-18.594 17.866,-19.619C17.114,-20.884 16.073,-21.516 14.744,-21.516C12.967,-21.516 11.276,-20.355 9.669,-18.034C9.365,-17.591 9.074,-17.113 8.797,-16.601C7.81,-14.616 6.974,-11.799 6.291,-8.148C6.083,-6.985 5.979,-6.062 5.979,-5.379C5.979,-3.058 6.63,-1.556 7.932,-0.872C8.306,-0.664 8.749,-0.56 9.261,-0.56C11.172,-0.56 13.101,-1.774 15.048,-4.202C15.529,-4.747 15.854,-5.31 16.025,-5.891L16.025,-5.939C16.057,-6.009 16.073,-6.062 16.073,-6.099Z" style="fill-rule:nonzero;"/>
                    </g>
                    <g transform="matrix(0.263525,0,0,0.263525,281.881,1141.83)">
                        <path d="M17.41,-15.473L15.665,-8.453C15.083,-6.131 14.792,-4.629 14.792,-3.946C14.792,-2.169 15.425,-1.094 16.689,-0.72C16.961,-0.614 17.268,-0.56 17.61,-0.56C19.317,-0.56 20.873,-1.414 22.276,-3.122C23.194,-4.216 23.909,-5.6 24.422,-7.276C24.528,-7.65 24.752,-7.836 25.094,-7.836C25.5,-7.836 25.702,-7.666 25.702,-7.324C25.702,-6.47 25.174,-5.24 24.117,-3.634C22.271,-0.838 20.067,0.56 17.506,0.56C15.185,0.56 13.496,-0.411 12.439,-2.353C12.231,-2.663 12.076,-2.988 11.975,-3.33C11.158,-1.692 10.032,-0.547 8.597,0.104C7.946,0.408 7.279,0.56 6.596,0.56C4.547,0.56 3.114,-0.037 2.297,-1.233C1.956,-1.676 1.785,-2.204 1.785,-2.818C1.785,-4.082 2.329,-4.971 3.418,-5.483C3.797,-5.686 4.192,-5.787 4.603,-5.787C5.627,-5.787 6.241,-5.36 6.444,-4.507C6.476,-4.336 6.492,-4.165 6.492,-3.994C6.492,-2.836 5.913,-1.982 4.755,-1.433C4.547,-1.331 4.325,-1.265 4.09,-1.233C4.805,-0.784 5.659,-0.56 6.652,-0.56C8.461,-0.56 9.893,-1.774 10.95,-4.202C11.158,-4.715 11.348,-5.278 11.518,-5.891C13.359,-12.86 14.28,-16.924 14.28,-18.082C14.077,-20.201 13.157,-21.345 11.518,-21.516C9.741,-21.516 8.119,-20.611 6.652,-18.802L6.652,-18.747C6.652,-18.714 6.633,-18.698 6.596,-18.698C6.083,-18.015 5.622,-17.231 5.211,-16.345C5.04,-15.934 4.888,-15.523 4.755,-15.112L4.651,-14.808C4.581,-14.429 4.36,-14.24 3.986,-14.24C3.575,-14.24 3.37,-14.411 3.37,-14.752C3.37,-15.606 3.917,-16.836 5.011,-18.442C6.852,-21.244 9.053,-22.645 11.615,-22.645C14.245,-22.645 16.092,-21.345 17.153,-18.747C18.242,-20.865 19.694,-22.13 21.508,-22.541C21.849,-22.61 22.191,-22.645 22.532,-22.645C24.544,-22.645 25.961,-22.082 26.783,-20.956C27.124,-20.475 27.295,-19.91 27.295,-19.259C27.295,-17.861 26.663,-16.921 25.398,-16.441C25.089,-16.34 24.798,-16.289 24.526,-16.289C23.469,-16.289 22.837,-16.751 22.629,-17.674C22.597,-17.813 22.581,-17.949 22.581,-18.082C22.581,-19.107 23.077,-19.91 24.069,-20.491C24.374,-20.662 24.696,-20.782 25.038,-20.852C24.323,-21.295 23.469,-21.516 22.477,-21.516C20.155,-21.516 18.517,-19.707 17.562,-16.089C17.492,-15.881 17.442,-15.675 17.41,-15.473Z" style="fill-rule:nonzero;"/>
                    </g>
                </g>
                <g transform="matrix(0.301171,0,0,0.301171,184.828,946.725)">
                    <path d="M295.666,374.676L311.5,369.398L295.666,364.12L295.666,374.676Z"/>
                    <path d="M298.833,369.398L122.436,369.398" style="fill:none;stroke:black;stroke-width:4.17px;stroke-linecap:round;stroke-miterlimit:1.5;"/>
                </g>
                <g transform="matrix(1.31636,0,0,1.25488,176.363,954.803)">
                    <g transform="matrix(0.759668,-0,-0,0.796889,6.61238,-4.29676)">
                        <path d="M170.977,180.833L179.831,183.784L170.977,186.736L170.977,180.833Z" style="fill-rule:nonzero;"/>
                        <path d="M-8.315,183.784L172.747,183.784" style="fill:none;fill-rule:nonzero;stroke:black;stroke-width:0.66px;stroke-linejoin:miter;stroke-miterlimit:10;"/>
                    </g>
                </g>
            </g>
        </g>
    </g>
</svg>
