<?xml version="1.0" encoding="UTF-8" standalone="no"?>
<!DOCTYPE svg PUBLIC "-//W3C//DTD SVG 1.1//EN" "http://www.w3.org/Graphics/SVG/1.1/DTD/svg11.dtd">
<svg width="100%" height="100%" viewBox="0 0 346 346" version="1.1" xmlns="http://www.w3.org/2000/svg" xmlns:xlink="http://www.w3.org/1999/xlink" xml:space="preserve" xmlns:serif="http://www.serif.com/" style="fill-rule:evenodd;clip-rule:evenodd;stroke-linecap:round;stroke-linejoin:round;stroke-miterlimit:1.5;">
    <g transform="matrix(1.45374,0.0433068,-0.0152079,1.46922,-47.6233,-8.29774)">
        <g transform="matrix(0.687671,-0.0202699,0.0071181,0.680425,32.8082,4.68067)">
            <path d="M40.201,96.301L-0,0L89.942,52.92L40.201,96.301Z" style="fill:rgb(0,191,39);"/>
            <path d="M150.808,172.915C150.808,172.915 95.656,109.678 52.057,59.688" style="fill:none;stroke:rgb(0,191,39);stroke-width:22px;"/>
        </g>
    </g>
    <g transform="matrix(1.45374,-0.0433068,-0.0152079,-1.46922,-47.6233,354.476)">
        <g transform="matrix(0.687671,-0.0202699,-0.0071181,-0.680425,35.2724,240.229)">
            <path d="M89.626,296.547L0,350L39.629,253.462L89.626,296.547Z" style="fill:rgb(225,32,32);"/>
            <path d="M150.808,175C150.808,175 95.356,239.347 51.702,290.004" style="fill:none;stroke:rgb(225,32,32);stroke-width:22px;"/>
        </g>
    </g>
    <g transform="matrix(-0.769251,-0.809974,1.06529,-0.586469,89.4756,341.01)">
        <g transform="matrix(-0.446324,0.61642,-0.810723,-0.585428,316.4,144.482)">
            <path d="M250.66,140.953L350,172.915L251.351,206.95L250.66,140.953Z" style="fill:rgb(64,124,191);"/>
            <path d="M150.808,175C150.808,175 215.233,174.326 270.804,173.744" style="fill:none;stroke:rgb(64,124,191);stroke-width:22px;"/>
        </g>
    </g>
    <g transform="matrix(2,0,0,2,-180,-175)">
        <circle cx="165" cy="175" r="15"/>
    </g>
</svg>
