<?xml version="1.0" encoding="UTF-8" standalone="no"?>
<!DOCTYPE svg PUBLIC "-//W3C//DTD SVG 1.1//EN" "http://www.w3.org/Graphics/SVG/1.1/DTD/svg11.dtd">
<svg width="100%" height="100%" viewBox="0 0 241 240" version="1.1" xmlns="http://www.w3.org/2000/svg" xmlns:xlink="http://www.w3.org/1999/xlink" xml:space="preserve" xmlns:serif="http://www.serif.com/" style="fill-rule:evenodd;clip-rule:evenodd;stroke-linecap:round;stroke-linejoin:round;stroke-miterlimit:1.5;">
    <g transform="matrix(1,0,0,1,-383,0)">
        <g id="_3d-moment-about-line-simple-moment-arms" serif:id="3d-moment-about-line-simple-moment-arms" transform="matrix(0.114286,0,0,0.16,383.886,0)">
            <rect x="0" y="0" width="2100" height="1500" style="fill:none;"/>
            <g transform="matrix(2.63601,0,0,3.40783,616.574,-178.48)">
                <g transform="matrix(3.31941,-0,-0,1.83401,-236.844,52.3736)">
                    <path d="M92.976,22.712L91.476,18.212L89.976,22.712L92.976,22.712Z" style="fill:rgb(102,102,102);"/>
                    <path d="M230.934,157.601L235.433,159.105L230.932,160.601L230.934,157.601Z" style="fill:rgb(102,102,102);"/>
                    <path d="M91.476,21.812L91.476,158.98C91.476,158.98 209.559,159.083 231.833,159.102" style="fill:none;stroke:rgb(102,102,102);stroke-width:1px;"/>
                </g>
            </g>
            <g transform="matrix(7.72401,0.105102,0.147143,5.51715,-13066.9,-7790.67)">
                <g transform="matrix(1.13324,-0.0215883,-0.0215883,1.13324,1664.42,1380.38)">
                    <path d="M34.45,217.948L30.208,220.069L32.329,215.827L34.45,217.948Z" style="fill:rgb(102,102,102);"/>
                    <path d="M91.231,159.046C91.231,159.046 44.304,205.973 32.753,217.524" style="fill:none;stroke:rgb(102,102,102);stroke-width:1px;"/>
                </g>
            </g>
            <g transform="matrix(8.75,0,0,6.25,-9302.22,-999.99)">
                <g transform="matrix(14.4,0,0,14.4,1297.66,329.998)">
                </g>
                <text x="1291.27px" y="329.998px" style="font-family:'TimesNewRomanPS-ItalicMT', 'Times New Roman', serif;font-style:italic;font-size:14.4px;fill:rgb(102,102,102);">y</text>
            </g>
            <g transform="matrix(8.75,0,0,6.25,-11053,-612.32)">
                <g transform="matrix(14.4,0,0,14.4,1297.66,329.998)">
                </g>
                <text x="1291.27px" y="329.998px" style="font-family:'TimesNewRomanPS-ItalicMT', 'Times New Roman', serif;font-style:italic;font-size:14.4px;fill:rgb(102,102,102);">x</text>
            </g>
            <g transform="matrix(8.75,0,0,6.25,-10494.2,-1896.38)">
                <g transform="matrix(14.4,0,0,14.4,1285.27,329.998)">
                </g>
                <text x="1279.67px" y="329.998px" style="font-family:'TimesNewRomanPS-ItalicMT', 'Times New Roman', serif;font-style:italic;font-size:14.4px;fill:rgb(102,102,102);">z</text>
            </g>
            <g transform="matrix(5.11923,0,0,4.54538,-3468.33,-383.271)">
                <rect x="775.159" y="200" width="184.508" height="148.43" style="fill:none;stroke:rgb(1,0,1);stroke-width:1.52px;stroke-dasharray:7.58,6.06,0,0,0,0;"/>
            </g>
            <g transform="matrix(5.24847,0,0,3.7489,-4141.11,56.5746)">
                <path d="M1064.22,125.164L1120,70L939.633,70L884.258,125.164" style="fill:none;stroke:black;stroke-width:1.67px;stroke-dasharray:8.34,6.67,0,0,0,0;"/>
            </g>
            <g transform="matrix(3.38152,-1.21074,-8.05599,11.2754,735.644,-816.767)">
                <path d="M247.633,157.833L387.651,128.891" style="fill:none;stroke:rgb(251,171,102);stroke-opacity:0.75;stroke-width:6.67px;"/>
            </g>
            <g transform="matrix(5.24847,0,0,3.7489,-4150.45,41.8557)">
                <text x="994.382px" y="30.363px" style="font-family:'TimesNewRomanPSMT', 'Times New Roman', serif;font-size:20px;fill:rgb(251,171,102);">P</text>
                <text x="1004.5px" y="37.023px" style="font-family:'TimesNewRomanPSMT', 'Times New Roman', serif;font-size:11.66px;fill:rgb(251,171,102);">2</text>
                <g transform="matrix(20,0,0,20,1106.27,30.3632)">
                </g>
                <text x="1013.75px" y="30.363px" style="font-family:'TimesNewRomanPSMT', 'Times New Roman', serif;font-size:20px;fill:rgb(251,171,102);"><tspan x="1013.75px 1018.31px 1022.87px 1031.87px 1039.74px 1043.74px 1052.74px 1058.4px 1062.4px 1070.28px 1078.16px 1082.71px 1087.27px 1096.27px " y="30.363px 30.363px 30.363px 30.363px 30.363px 30.363px 30.363px 30.363px 30.363px 30.363px 30.363px 30.363px 30.363px 30.363px ">line of action</tspan></text>
            </g>
            <g transform="matrix(1.65615,0,0,5.62225,148.515,-404.763)">
                <g transform="matrix(5.28335,-0,-0,1.11165,-94.3547,71.993)">
                    <path d="M71.206,64.548L64.729,77.219L77.513,70.968L71.206,64.548Z" style="fill:rgb(242,13,13);"/>
                    <path d="M72.433,69.65C80.258,61.963 91.231,51.183 91.231,51.183" style="fill:none;stroke:rgb(242,13,13);stroke-width:3px;"/>
                </g>
            </g>
            <g transform="matrix(5.26817,-0.059838,-0.0837731,4.00333,-4148.58,79.2573)">
                <path d="M1064.06,305.129L1119.35,70.046" style="fill:none;stroke:rgb(159,159,223);stroke-opacity:0.75;stroke-width:13.07px;"/>
            </g>
            <g transform="matrix(5.24847,0,0,3.7489,-4141.11,56.5746)">
                <g transform="matrix(1.66715,-0,-0,1.66715,787.537,-15.091)">
                    <path d="M194.05,59.141L199.031,51.067L199.891,60.515L194.05,59.141Z"/>
                    <path d="M165.868,192.076C165.868,192.076 190.685,86.552 197.383,58.076" style="fill:none;stroke:black;stroke-width:2px;"/>
                </g>
            </g>
            <g transform="matrix(5.24847,0,0,3.7489,-464.279,5.75718)">
                <text x="190.02px" y="92.43px" style="font-family:'TimesNewRomanPS-ItalicMT', 'Times New Roman', serif;font-style:italic;font-size:24px;fill:rgb(251,7,4);">P</text>
                <g transform="matrix(13.992,0,0,13.992,210.477,100.422)">
                </g>
                <text x="203.481px" y="100.422px" style="font-family:'TimesNewRomanPS-ItalicMT', 'Times New Roman', serif;font-style:italic;font-size:13.992px;fill:rgb(251,7,4);">2</text>
            </g>
            <g transform="matrix(5.24847,0,0,3.7489,180.635,941.393)">
                <text x="190.02px" y="92.43px" style="font-family:'TimesNewRomanPS-ItalicMT', 'Times New Roman', serif;font-style:italic;font-size:24px;fill:rgb(251,7,4);">P</text>
                <g transform="matrix(13.992,0,0,13.992,210.477,100.422)">
                </g>
                <text x="203.481px" y="100.422px" style="font-family:'TimesNewRomanPS-ItalicMT', 'Times New Roman', serif;font-style:italic;font-size:13.992px;fill:rgb(251,7,4);">1</text>
            </g>
            <g transform="matrix(5.24847,0,0,3.7489,-4141.11,56.5746)">
                <path d="M1120,70.046L1120,250.161L1064.22,305.129" style="fill:none;stroke:black;stroke-width:1.67px;stroke-dasharray:8.34,6.67,0,0,0,0;"/>
            </g>
            <g transform="matrix(5.24847,0,0,3.7489,-4141.11,56.5746)">
                <path d="M940.281,70L940.281,250.161L1120,250" style="fill:none;stroke:black;stroke-width:1.67px;stroke-dasharray:8.34,6.67,0,0,0,0;"/>
            </g>
            <g transform="matrix(5.24847,0,0,3.7489,-4141.11,56.5746)">
                <path d="M884.567,305.129L939.633,250" style="fill:none;stroke:black;stroke-width:1.67px;stroke-dasharray:8.34,6.67,0,0,0,0;"/>
            </g>
            <g transform="matrix(7.85789,0,0,5.62225,-1371.16,-13486.7)">
                <g transform="matrix(16.0031,0,0,16.0031,242.969,2625.26)">
                </g>
                <text x="233.194px" y="2625.26px" style="font-family:'TimesNewRomanPS-ItalicMT', 'Times New Roman', serif;font-style:italic;font-size:16.003px;fill:rgb(102,102,102);">A</text>
            </g>
            <g transform="matrix(1.65615,0,0,5.62225,805.04,480.321)">
                <g transform="matrix(5.28335,-0,-0,1.11165,-490.772,-85.4322)">
                    <path d="M123.359,186.076L105.359,192.076L123.359,198.076L123.359,186.076Z" style="fill:rgb(242,13,13);"/>
                    <path d="M119.759,192.076L165.868,192.076" style="fill:none;stroke:rgb(242,13,13);stroke-width:4px;"/>
                </g>
            </g>
            <g transform="matrix(1.65615,0,0,5.62225,805.04,480.321)">
                <g transform="matrix(5.28335,-0,-0,1.11165,-490.772,-85.4322)">
                    <path d="M70.921,90.509L58.201,84.129L64.549,96.865L70.921,90.509Z" style="fill:rgb(24,6,253);"/>
                    <path d="M65.828,91.775C90.394,116.405 165.868,192.076 165.868,192.076" style="fill:none;stroke:rgb(24,6,253);stroke-width:3px;"/>
                </g>
            </g>
            <g transform="matrix(1.65615,0,0,5.62225,805.04,480.321)">
                <g transform="matrix(5.28335,-0,-0,1.11165,-490.772,-85.4322)">
                    <path d="M70.321,76.671L58.201,84.129L72.371,85.435L70.321,76.671Z" style="fill:rgb(24,6,253);"/>
                    <path d="M68.717,81.668C101.396,74.022 199.004,51.183 199.004,51.183" style="fill:none;stroke:rgb(24,6,253);stroke-width:3px;"/>
                </g>
            </g>
            <g transform="matrix(1.65615,0,0,5.62225,805.04,480.321)">
                <g transform="matrix(5.28335,-0,-0,1.11165,-490.772,-85.4322)">
                    <path d="M101.894,61.028L91.62,51.183L93.932,65.224L101.894,61.028Z" style="fill:rgb(24,6,253);"/>
                    <path d="M96.655,60.737C113.355,92.428 165.868,192.076 165.868,192.076" style="fill:none;stroke:rgb(24,6,253);stroke-width:3px;"/>
                </g>
            </g>
            <g transform="matrix(1.65615,0,0,5.62225,805.04,480.321)">
                <g transform="matrix(5.28335,-0,-0,1.11165,-490.772,-85.4322)">
                    <path d="M105.131,46.716L91.62,51.183L105.108,55.716L105.131,46.716Z" style="fill:rgb(24,6,253);"/>
                    <path d="M102.42,51.21C129.659,51.278 199.004,51.451 199.004,51.451" style="fill:none;stroke:rgb(24,6,253);stroke-width:3px;"/>
                </g>
            </g>
            <g transform="matrix(5.24847,0,0,3.7489,-4087.23,308.993)">
                <text x="979.241px" y="200.629px" style="font-family:'TimesNewRomanPS-ItalicMT', 'Times New Roman', serif;font-style:italic;font-size:24px;fill:rgb(24,6,253);">r</text>
                <g transform="matrix(13.992,0,0,13.992,1005.33,208.621)">
                </g>
                <text x="987.381px" y="208.621px" style="font-family:'TimesNewRomanPS-ItalicMT', 'Times New Roman', serif;font-style:italic;font-size:13.992px;fill:rgb(24,6,253);">B<tspan x="995.228px " y="208.621px ">D</tspan></text>
            </g>
            <g transform="matrix(5.24847,0,0,3.7489,-4000.22,3.35315)">
                <text x="979.241px" y="200.629px" style="font-family:'TimesNewRomanPS-ItalicMT', 'Times New Roman', serif;font-style:italic;font-size:24px;fill:rgb(24,6,253);">r</text>
                <g transform="matrix(13.992,0,0,13.992,1005.33,208.621)">
                </g>
                <text x="987.381px" y="208.621px" style="font-family:'TimesNewRomanPS-ItalicMT', 'Times New Roman', serif;font-style:italic;font-size:13.992px;fill:rgb(24,6,253);">B<tspan x="995.228px " y="208.621px ">H</tspan></text>
            </g>
            <g transform="matrix(5.24847,0,0,3.7489,-3985.62,-280.915)">
                <text x="979.241px" y="200.629px" style="font-family:'TimesNewRomanPS-ItalicMT', 'Times New Roman', serif;font-style:italic;font-size:24px;fill:rgb(24,6,253);">r</text>
                <g transform="matrix(13.992,0,0,13.992,1006.89,208.621)">
                </g>
                <text x="987.381px" y="208.621px" style="font-family:'TimesNewRomanPS-ItalicMT', 'Times New Roman', serif;font-style:italic;font-size:13.992px;fill:rgb(24,6,253);">G<tspan x="996.786px " y="208.621px ">D</tspan></text>
            </g>
            <g transform="matrix(5.24847,0,0,3.7489,-4000.22,-474.22)">
                <text x="979.241px" y="200.629px" style="font-family:'TimesNewRomanPS-ItalicMT', 'Times New Roman', serif;font-style:italic;font-size:24px;fill:rgb(24,6,253);">r</text>
                <g transform="matrix(13.992,0,0,13.992,1006.89,208.621)">
                </g>
                <text x="987.381px" y="208.621px" style="font-family:'TimesNewRomanPS-ItalicMT', 'Times New Roman', serif;font-style:italic;font-size:13.992px;fill:rgb(24,6,253);">G<tspan x="996.786px " y="208.621px ">H</tspan></text>
            </g>
            <g transform="matrix(7.87115,0,0,5.62225,-382.634,-13488.1)">
                <g transform="matrix(16.0031,0,0,16.0031,242.969,2625.26)">
                </g>
                <text x="233.194px" y="2625.26px" style="font-family:'TimesNewRomanPS-ItalicMT', 'Times New Roman', serif;font-style:italic;font-size:16.003px;fill:rgb(102,102,102);">B</text>
            </g>
            <g transform="matrix(7.87115,0,0,5.62225,-97.0395,-13687.3)">
                <g transform="matrix(16.0031,0,0,16.0031,242.969,2625.26)">
                </g>
                <text x="233.194px" y="2625.26px" style="font-family:'TimesNewRomanPS-ItalicMT', 'Times New Roman', serif;font-style:italic;font-size:16.003px;fill:rgb(102,102,102);">F</text>
            </g>
            <g transform="matrix(7.87115,0,0,5.62225,-481.205,-14253.4)">
                <g transform="matrix(16.0031,0,0,16.0031,243.868,2625.26)">
                </g>
                <text x="233.194px" y="2625.26px" style="font-family:'TimesNewRomanPS-ItalicMT', 'Times New Roman', serif;font-style:italic;font-size:16.003px;fill:rgb(102,102,102);">C</text>
            </g>
            <g transform="matrix(7.87115,0,0,5.62225,-1440.95,-14253.4)">
                <g transform="matrix(16.0031,0,0,16.0031,244.751,2625.26)">
                </g>
                <text x="233.194px" y="2625.26px" style="font-family:'TimesNewRomanPS-ItalicMT', 'Times New Roman', serif;font-style:italic;font-size:16.003px;fill:rgb(102,102,102);">D</text>
            </g>
            <g transform="matrix(7.87115,0,0,5.62225,-1162.87,-14448.1)">
                <g transform="matrix(16.0031,0,0,16.0031,244.751,2625.26)">
                </g>
                <text x="233.194px" y="2625.26px" style="font-family:'TimesNewRomanPS-ItalicMT', 'Times New Roman', serif;font-style:italic;font-size:16.003px;fill:rgb(102,102,102);">H</text>
            </g>
            <g transform="matrix(7.87115,0,0,5.62225,-1123.44,-14397.7)">
                <g transform="matrix(16.0031,0,0,16.0031,361.629,2614.18)">
                </g>
                <text x="350.072px" y="2614.18px" style="font-family:'TimesNewRomanPS-ItalicMT', 'Times New Roman', serif;font-style:italic;font-size:16.003px;fill:rgb(102,102,102);">G</text>
            </g>
            <g transform="matrix(5.24847,0,0,3.7489,-3423.55,213.062)">
                <text x="994.382px" y="30.363px" style="font-family:'TimesNewRomanPSMT', 'Times New Roman', serif;font-size:20px;fill:rgb(159,159,223);">l<tspan x="998.939px 1003.5px 1012.5px 1020.37px 1024.37px 1033.37px " y="30.363px 30.363px 30.363px 30.363px 30.363px 30.363px ">ine of</tspan></text>
                <g transform="matrix(20,0,0,20,1046.25,51.2128)">
                </g>
                <text x="994.382px" y="51.213px" style="font-family:'TimesNewRomanPSMT', 'Times New Roman', serif;font-size:20px;fill:rgb(159,159,223);">i<tspan x="998.939px 1007.94px 1012.5px 1020.37px 1026.03px 1033.91px 1040.69px " y="51.213px 51.213px 51.213px 51.213px 51.213px 51.213px 51.213px ">nterest</tspan></text>
            </g>
        </g>
    </g>
</svg>
