<?xml version="1.0" encoding="UTF-8" standalone="no"?>
<!DOCTYPE svg PUBLIC "-//W3C//DTD SVG 1.1//EN" "http://www.w3.org/Graphics/SVG/1.1/DTD/svg11.dtd">
<svg width="100%" height="100%" viewBox="0 0 400 400" version="1.1" xmlns="http://www.w3.org/2000/svg" xmlns:xlink="http://www.w3.org/1999/xlink" xml:space="preserve" xmlns:serif="http://www.serif.com/" style="fill-rule:evenodd;clip-rule:evenodd;stroke-linecap:round;stroke-linejoin:round;stroke-miterlimit:1.5;">
    <g transform="matrix(1,0,0,1,-1500,0)">
        <g id="_3d-moment-about-line-simple-solution" serif:id="3d-moment-about-line-simple-solution" transform="matrix(0.190476,0,0,0.266667,1500,0)">
            <rect x="0" y="0" width="2100" height="1500" style="fill:none;"/>
            <g transform="matrix(2.63678,0,0,3.23061,559.076,-173.785)">
                <g transform="matrix(1.99106,-0,-0,1.16077,-212.03,53.7931)">
                    <path d="M141.542,32.052L140.042,27.552L138.542,32.052L141.542,32.052Z" style="fill:rgb(102,102,102);"/>
                    <path d="M375.541,248.658L380.04,250.161L375.539,251.658L375.541,248.658Z" style="fill:rgb(102,102,102);"/>
                    <path d="M140.042,31.152L140.042,249.965C140.042,249.965 346.509,250.134 376.44,250.159" style="fill:none;stroke:rgb(102,102,102);stroke-width:1px;"/>
                </g>
            </g>
            <g transform="matrix(7.72627,0.105133,0.147186,5.51876,-13128.4,-7849.54)">
                <g transform="matrix(0.679747,-0.0129492,-0.0129492,0.679747,1672.7,1390.47)">
                    <path d="M42.141,349.677L37.898,351.798L40.019,347.556L42.141,349.677Z" style="fill:rgb(102,102,102);"/>
                    <path d="M139.633,250.063C139.633,250.063 56.188,333.508 40.444,349.253" style="fill:none;stroke:rgb(102,102,102);stroke-width:1px;"/>
                </g>
            </g>
            <g transform="matrix(5.25,0,0,3.75,-4880.51,-256.289)">
                <g transform="matrix(24,0,0,24,1309.66,336.664)">
                </g>
                <text x="1299.01px" y="336.664px" style="font-family:'TimesNewRomanPS-ItalicMT', 'Times New Roman', serif;font-style:italic;font-size:24px;fill:rgb(102,102,102);">y</text>
            </g>
            <g transform="matrix(5.25,0,0,3.75,-6631.8,131.494)">
                <g transform="matrix(24,0,0,24,1309.66,336.664)">
                </g>
                <text x="1299.01px" y="336.664px" style="font-family:'TimesNewRomanPS-ItalicMT', 'Times New Roman', serif;font-style:italic;font-size:24px;fill:rgb(102,102,102);">x</text>
            </g>
            <g transform="matrix(5.25,0,0,3.75,-6072.86,-1096.4)">
                <g transform="matrix(24,0,0,24,1289.01,336.664)">
                </g>
                <text x="1279.67px" y="336.664px" style="font-family:'TimesNewRomanPS-ItalicMT', 'Times New Roman', serif;font-style:italic;font-size:24px;fill:rgb(102,102,102);">z</text>
            </g>
            <g transform="matrix(5.12072,0,0,4.5467,-3527.02,-439.974)">
                <rect x="775.159" y="200" width="184.508" height="148.43" style="fill:none;stroke:rgb(1,0,1);stroke-width:0.91px;stroke-dasharray:4.54,3.64,0,0,0,0;"/>
            </g>
            <g transform="matrix(5.25,0,0,3.75,-4200,0)">
                <path d="M1064.22,125.164L1120,70L939.633,70L884.258,125.164" style="fill:none;stroke:black;stroke-width:1px;stroke-dasharray:5,4,0,0,0,0;"/>
            </g>
            <g transform="matrix(1.65663,0,0,5.62389,90.8808,-461.472)">
                <g transform="matrix(3.16909,-0,-0,0.666798,-54.8589,82.0556)">
                    <path d="M104.086,96.75L95.451,113.644L112.496,105.31L104.086,96.75Z" style="fill:rgb(242,13,13);"/>
                    <path d="M105.723,103.553C118.777,90.729 139.633,70.239 139.633,70.239" style="fill:none;stroke:rgb(242,13,13);stroke-width:4px;"/>
                </g>
            </g>
            <g transform="matrix(5.02587,0.680723,0.953012,0.855571,-4015.87,-559.226)">
                <g transform="matrix(1.23019,-0.978787,-0.978787,5.1618,795.047,21.0616)">
                    <path d="M314.372,78.12L319.352,70.046L320.212,79.494L314.372,78.12Z"/>
                    <path d="M309.099,113.644C309.099,113.644 314.805,89.38 317.704,77.055" style="fill:none;stroke:black;stroke-width:2px;"/>
                </g>
            </g>
            <g transform="matrix(5.12618,0.376049,0.526469,2.15104,-4228.89,87.7483)">
                <path d="M1064.06,305.129L1119.35,70.046" style="fill:none;stroke:black;stroke-width:2.23px;"/>
            </g>
            <g transform="matrix(5.25,0,0,3.75,-4200,0)">
                <path d="M1120,70.046L1120,250.161L1064.22,305.129" style="fill:none;stroke:black;stroke-width:1px;stroke-dasharray:5,4,0,0,0,0;"/>
            </g>
            <g transform="matrix(1.17746,0.202236,-0.264255,0.78497,-199.588,3.24408)">
                <g transform="matrix(-1.85379,0.138135,-0.315885,-0.671065,3130.28,1253.89)">
                    <path d="M616.846,1292.29L600.719,1389.01" style="fill:none;stroke:rgb(225,32,32);stroke-width:9.92px;"/>
                </g>
                <g transform="matrix(4.21505,-1.08595,1.01355,4.51612,-6163.21,1583.73)">
                    <path d="M1816.98,128.689L1823.37,136.706L1823.37,173.968L1816.26,173.273L1816.98,128.689Z" style="fill:white;"/>
                </g>
                <g transform="matrix(1.87936,0.0807829,-0.0689263,2.082,-1115.52,-1835.14)">
                    <g id="path1040" transform="matrix(1,0,0,1,477.729,-403.466)">
                        <path d="M994.385,1304.03C993.258,1312.48 992.131,1318.68 989.596,1320.93" style="fill:none;stroke:rgb(128,128,128);stroke-width:1px;stroke-miterlimit:4;"/>
                    </g>
                    <g id="path1038" transform="matrix(1,0,0,1,477.729,-403.466)">
                        <path d="M999.032,1308.96C1000.16,1315.3 991.286,1324.88 991.286,1324.88" style="fill:none;stroke:rgb(128,128,128);stroke-width:1px;stroke-miterlimit:4;"/>
                    </g>
                    <g id="path1036" transform="matrix(1,0,0,1,477.729,-403.466)">
                        <path d="M1000.24,1406.36C995.44,1403.83 995.637,1400.51 1001.41,1398.32C1004.02,1397.26 1008.08,1399.36 1008.08,1399.36" style="fill:none;stroke:rgb(128,128,128);stroke-width:1px;stroke-miterlimit:4;"/>
                    </g>
                    <g id="path1034" transform="matrix(1,0,0,1,477.729,-403.466)">
                        <path d="M983.817,1293.97C980.141,1299.15 974.166,1292.97 974.166,1284.61C974.166,1276.24 975.115,1273.96 976.732,1271.81" style="fill:none;stroke:rgb(128,128,128);stroke-width:1px;stroke-miterlimit:4;"/>
                    </g>
                    <g id="path1032" transform="matrix(1,0,0,1,477.729,-403.466)">
                        <path d="M1000.88,1396.29C996.074,1393.76 997.468,1389.17 1003.24,1386.98C1009.02,1384.79 1013.86,1388.37 1013.86,1388.37" style="fill:none;stroke:rgb(128,128,128);stroke-width:1px;stroke-miterlimit:4;"/>
                    </g>
                    <g id="path1030" transform="matrix(1,0,0,1,477.729,-403.466)">
                        <path d="M977.946,1334.31C983.527,1351.33 984.323,1361.89 986.713,1366.27C989.103,1370.65 992.517,1375.23 992.517,1375.23" style="fill:none;stroke:rgb(128,128,128);stroke-width:1px;stroke-miterlimit:4;"/>
                    </g>
                    <g id="path1028" transform="matrix(1,0,0,1,477.729,-403.466)">
                        <path d="M973.059,1373.97C973.967,1363.68 967.594,1355.32 967.594,1355.32" style="fill:none;stroke:rgb(128,128,128);stroke-width:1px;stroke-miterlimit:4;"/>
                    </g>
                    <g id="path1026" transform="matrix(1,0,0,1,477.729,-403.466)">
                        <path d="M973.542,1374.03C956.839,1371.85 949.271,1380.41 949.271,1380.41" style="fill:none;stroke:rgb(128,128,128);stroke-width:1px;stroke-miterlimit:4;"/>
                    </g>
                    <g id="path1023" transform="matrix(1,0,0,1,477.729,-403.466)">
                        <path d="M979.457,1379.66C977.751,1383 977.751,1387.18 977.751,1387.18" style="fill:none;stroke:rgb(128,128,128);stroke-width:1px;stroke-miterlimit:4;"/>
                    </g>
                    <g id="path1020" transform="matrix(1,0,0,1,477.729,-403.466)">
                        <path d="M986.009,1429.26C982.38,1427.96 982.142,1425.46 985.912,1423.13C987.606,1422.02 990.669,1423.09 990.669,1423.09" style="fill:none;stroke:rgb(128,128,128);stroke-width:1px;stroke-miterlimit:4;"/>
                    </g>
                    <g id="path1005" transform="matrix(1,0,0,1,477.729,-403.466)">
                        <path d="M996.227,1417.06C991.08,1415.34 990.742,1412.04 996.09,1408.94C998.492,1407.48 1002.84,1408.9 1002.84,1408.9" style="fill:none;stroke:rgb(128,128,128);stroke-width:1px;stroke-miterlimit:4;"/>
                    </g>
                    <g id="path1007" transform="matrix(1,0,0,1,477.729,-403.466)">
                        <path d="M992.836,1347.29C988.506,1359.9 989.672,1370.08 993.172,1375.14" style="fill:none;stroke:rgb(128,128,128);stroke-width:1px;stroke-miterlimit:4;"/>
                    </g>
                    <g id="path1009" transform="matrix(1,0,0,1,477.729,-403.466)">
                        <path d="M1119.75,1358.1L1110.57,1421.35M1001.16,1412.26C1010.58,1417.55 1022.56,1416.23 1030.3,1416.14C1040.75,1416.02 1064.24,1410.79 1067.76,1409.94C1071.28,1409.1 1103.53,1416.85 1110.57,1421.35M958.006,1428.14C964.388,1430.23 979.457,1431.63 984.104,1429.66C988.751,1427.69 991.879,1423.89 991.582,1420.08M949.477,1423.13C951.713,1427.97 954.671,1428.39 958.332,1428.11C961.994,1427.83 976.077,1426.56 981.006,1424.59C985.935,1422.62 995.37,1418.82 998.046,1416.28C1000.72,1413.75 1004.28,1407.63 1002.93,1405.41M942.886,1403.99C940.87,1411.21 943.404,1420.51 947.911,1422.76C952.418,1425.01 976.922,1417.41 984.245,1414.87C991.568,1412.34 1005.91,1403.75 1008.12,1400.51C1010.33,1397.27 1007.71,1392.88 1007.71,1392.88M965.232,1322.09C958.051,1324.46 958.896,1323.33 954.671,1328.68C950.446,1334.03 935.236,1377.41 934.391,1386.71C933.546,1396 935.518,1403.04 941.996,1403.89C948.474,1404.73 980.02,1405.3 984.527,1403.33C989.033,1401.35 1014.38,1391.5 1014.1,1387.55C1013.82,1383.61 1014.38,1378.82 1002.83,1375.72C991.286,1372.62 979.457,1379.66 979.457,1379.66C979.457,1379.66 979.457,1378.54 977.485,1376.85C975.513,1375.16 973.542,1374.03 973.542,1374.03M1119.75,1358.1C1095.46,1351.73 1083.11,1355.71 1064.79,1348.94C1046.46,1342.17 1030.13,1329.82 1024.55,1326.24C1018.98,1322.65 985.519,1297.95 981.934,1291.58C978.349,1285.2 978.349,1267.68 972.374,1265.29C966.399,1262.9 950.164,1274.92 953.749,1294.43C957.616,1318.74 970.785,1329.11 981.535,1336.99C989.825,1343.07 997.07,1352.13 997.07,1352.13" style="fill:none;stroke:black;stroke-width:2px;stroke-miterlimit:4;"/>
                    </g>
                </g>
                <g transform="matrix(1.87936,0.0807829,-0.0689263,2.082,-1115.52,-1835.14)">
                    <g id="path10401" serif:id="path1040" transform="matrix(1,0,0,1,477.729,-403.466)">
                        <path d="M994.385,1304.03C993.258,1312.48 992.131,1318.68 989.596,1320.93" style="fill:none;stroke:rgb(128,128,128);stroke-width:1px;stroke-miterlimit:4;"/>
                    </g>
                    <g id="path10381" serif:id="path1038" transform="matrix(1,0,0,1,477.729,-403.466)">
                        <path d="M999.032,1308.96C1000.16,1315.3 991.286,1324.88 991.286,1324.88" style="fill:none;stroke:rgb(128,128,128);stroke-width:1px;stroke-miterlimit:4;"/>
                    </g>
                    <g id="path10361" serif:id="path1036" transform="matrix(1,0,0,1,477.729,-403.466)">
                        <path d="M1000.24,1406.36C995.44,1403.83 995.637,1400.51 1001.41,1398.32C1004.02,1397.26 1008.08,1399.36 1008.08,1399.36" style="fill:none;stroke:rgb(128,128,128);stroke-width:1px;stroke-miterlimit:4;"/>
                    </g>
                    <g id="path10341" serif:id="path1034" transform="matrix(1,0,0,1,477.729,-403.466)">
                        <path d="M983.817,1293.97C980.141,1299.15 974.166,1292.97 974.166,1284.61C974.166,1276.24 975.115,1273.96 976.732,1271.81" style="fill:none;stroke:rgb(128,128,128);stroke-width:1px;stroke-miterlimit:4;"/>
                    </g>
                    <g id="path10321" serif:id="path1032" transform="matrix(1,0,0,1,477.729,-403.466)">
                        <path d="M1000.88,1396.29C996.074,1393.76 997.468,1389.17 1003.24,1386.98C1009.02,1384.79 1013.86,1388.37 1013.86,1388.37" style="fill:none;stroke:rgb(128,128,128);stroke-width:1px;stroke-miterlimit:4;"/>
                    </g>
                    <g id="path10301" serif:id="path1030" transform="matrix(1,0,0,1,477.729,-403.466)">
                        <path d="M977.946,1334.31C983.527,1351.33 984.323,1361.89 986.713,1366.27C989.103,1370.65 992.517,1375.23 992.517,1375.23" style="fill:none;stroke:rgb(128,128,128);stroke-width:1px;stroke-miterlimit:4;"/>
                    </g>
                    <g id="path10281" serif:id="path1028" transform="matrix(1,0,0,1,477.729,-403.466)">
                        <path d="M973.059,1373.97C973.967,1363.68 967.594,1355.32 967.594,1355.32" style="fill:none;stroke:rgb(128,128,128);stroke-width:1px;stroke-miterlimit:4;"/>
                    </g>
                    <g id="path10261" serif:id="path1026" transform="matrix(1,0,0,1,477.729,-403.466)">
                        <path d="M973.542,1374.03C956.839,1371.85 949.271,1380.41 949.271,1380.41" style="fill:none;stroke:rgb(128,128,128);stroke-width:1px;stroke-miterlimit:4;"/>
                    </g>
                    <g id="path10231" serif:id="path1023" transform="matrix(1,0,0,1,477.729,-403.466)">
                        <path d="M979.457,1379.66C977.751,1383 977.751,1387.18 977.751,1387.18" style="fill:none;stroke:rgb(128,128,128);stroke-width:1px;stroke-miterlimit:4;"/>
                    </g>
                    <g id="path10201" serif:id="path1020" transform="matrix(1,0,0,1,477.729,-403.466)">
                        <path d="M986.009,1429.26C982.38,1427.96 982.142,1425.46 985.912,1423.13C987.606,1422.02 990.669,1423.09 990.669,1423.09" style="fill:none;stroke:rgb(128,128,128);stroke-width:1px;stroke-miterlimit:4;"/>
                    </g>
                    <g id="path10051" serif:id="path1005" transform="matrix(1,0,0,1,477.729,-403.466)">
                        <path d="M996.227,1417.06C991.08,1415.34 990.742,1412.04 996.09,1408.94C998.492,1407.48 1002.84,1408.9 1002.84,1408.9" style="fill:none;stroke:rgb(128,128,128);stroke-width:1px;stroke-miterlimit:4;"/>
                    </g>
                    <g id="path10071" serif:id="path1007" transform="matrix(1,0,0,1,477.729,-403.466)">
                        <path d="M992.836,1347.29C988.506,1359.9 989.672,1370.08 993.172,1375.14" style="fill:none;stroke:rgb(128,128,128);stroke-width:1px;stroke-miterlimit:4;"/>
                    </g>
                    <g id="path10091" serif:id="path1009" transform="matrix(1,0,0,1,477.729,-403.466)">
                        <path d="M1119.75,1358.1L1110.57,1421.35M1001.16,1412.26C1010.58,1417.55 1022.56,1416.23 1030.3,1416.14C1040.75,1416.02 1064.24,1410.79 1067.76,1409.94C1071.28,1409.1 1103.53,1416.85 1110.57,1421.35M958.006,1428.14C964.388,1430.23 979.457,1431.63 984.104,1429.66C988.751,1427.69 991.879,1423.89 991.582,1420.08M949.477,1423.13C951.713,1427.97 954.671,1428.39 958.332,1428.11C961.994,1427.83 976.077,1426.56 981.006,1424.59C985.935,1422.62 995.37,1418.82 998.046,1416.28C1000.72,1413.75 1004.28,1407.63 1002.93,1405.41M942.886,1403.99C940.87,1411.21 943.404,1420.51 947.911,1422.76C952.418,1425.01 976.922,1417.41 984.245,1414.87C991.568,1412.34 1005.91,1403.75 1008.12,1400.51C1010.33,1397.27 1007.71,1392.88 1007.71,1392.88M965.232,1322.09C958.051,1324.46 958.896,1323.33 954.671,1328.68C950.446,1334.03 935.236,1377.41 934.391,1386.71C933.546,1396 935.518,1403.04 941.996,1403.89C948.474,1404.73 980.02,1405.3 984.527,1403.33C989.033,1401.35 1014.38,1391.5 1014.1,1387.55C1013.82,1383.61 1014.38,1378.82 1002.83,1375.72C991.286,1372.62 979.457,1379.66 979.457,1379.66C979.457,1379.66 979.457,1378.54 977.485,1376.85C975.513,1375.16 973.542,1374.03 973.542,1374.03M1119.75,1358.1C1095.46,1351.73 1083.11,1355.71 1064.79,1348.94C1046.46,1342.17 1030.13,1329.82 1024.55,1326.24C1018.98,1322.65 985.519,1297.95 981.934,1291.58C978.349,1285.2 978.349,1267.68 972.374,1265.29C966.399,1262.9 950.164,1274.92 953.749,1294.43C957.616,1318.74 970.785,1329.11 981.535,1336.99C989.825,1343.07 997.07,1352.13 997.07,1352.13" style="fill:none;stroke:black;stroke-width:2px;stroke-miterlimit:4;"/>
                    </g>
                </g>
                <g transform="matrix(-1.85136,0.387457,-0.329877,-2.10423,3146.86,2781.54)">
                    <g transform="matrix(-2.29344,0.0937806,-0.159805,-2.17564,1330.66,1588.37)">
                        <path d="M302.067,119.62L310.953,105.038L312.594,122.035L302.067,119.62Z" style="fill:rgb(225,32,32);"/>
                        <path d="M300.854,149.058C300.854,149.058 305.071,130.677 308.055,117.67" style="fill:none;stroke:rgb(225,32,32);stroke-width:3.6px;"/>
                    </g>
                </g>
                <g transform="matrix(3.4858,0,0,3.50599,111.449,-5547.91)">
                    <g transform="matrix(1.20921,-0.30974,0.290765,1.28812,13.7464,1569.52)">
                        <path d="M308.992,153.976L320.849,153.766L311.489,161.048L308.992,153.976Z" style="fill:rgb(173,23,23);"/>
                        <path d="M303.386,143.199C292.943,140.688 283.829,141.347 283.029,144.672C282.767,145.762 283.433,147.004 284.816,148.27C287.646,150.862 293.479,153.553 300.491,155.239C304.849,156.286 308.975,156.782 312.362,156.763" style="fill:none;stroke:rgb(173,23,23);stroke-width:2.5px;"/>
                    </g>
                </g>
                <g transform="matrix(-1.85228,0.29348,-0.324603,-1.56402,3140.61,2141.4)">
                    <g transform="matrix(-2.32096,0.258814,-0.039859,-2.89498,1321.06,1645.95)">
                        <path d="M299.479,130.903L308.365,116.32L310.005,133.318L299.479,130.903Z" style="fill:rgb(225,32,32);"/>
                        <path d="M300.854,149.058C300.854,149.058 303.352,138.17 305.467,128.952" style="fill:none;stroke:rgb(225,32,32);stroke-width:3.6px;"/>
                    </g>
                </g>
            </g>
            <g transform="matrix(5.25,0,0,3.75,-544.053,-19.6531)">
                <text x="190.02px" y="92.43px" style="font-family:'TimesNewRomanPS-ItalicMT', 'Times New Roman', serif;font-style:italic;font-size:24px;fill:rgb(251,7,4);">P</text>
                <g transform="matrix(13.992,0,0,13.992,210.477,100.422)">
                </g>
                <text x="203.481px" y="100.422px" style="font-family:'TimesNewRomanPS-ItalicMT', 'Times New Roman', serif;font-style:italic;font-size:13.992px;fill:rgb(251,7,4);">2</text>
            </g>
            <g transform="matrix(5.25,0,0,3.75,122.83,756.532)">
                <text x="190.02px" y="92.43px" style="font-family:'TimesNewRomanPS-ItalicMT', 'Times New Roman', serif;font-style:italic;font-size:24px;fill:rgb(251,7,4);">P</text>
                <g transform="matrix(13.992,0,0,13.992,210.477,100.422)">
                </g>
                <text x="203.481px" y="100.422px" style="font-family:'TimesNewRomanPS-ItalicMT', 'Times New Roman', serif;font-style:italic;font-size:13.992px;fill:rgb(251,7,4);">1</text>
            </g>
            <g transform="matrix(5.25,0,0,3.75,735.382,123.259)">
                <text x="190.02px" y="92.43px" style="font-family:'TimesNewRomanPS-ItalicMT', 'Times New Roman', serif;font-style:italic;font-size:24px;fill:rgb(251,7,4);">M</text>
                <g transform="matrix(13.992,0,0,13.992,226.764,100.422)">
                </g>
                <text x="208.813px" y="100.422px" style="font-family:'TimesNewRomanPS-ItalicMT', 'Times New Roman', serif;font-style:italic;font-size:13.992px;fill:rgb(251,7,4);">B<tspan x="216.66px " y="100.422px ">G</tspan></text>
            </g>
            <g transform="matrix(5.25,0,0,3.75,-4200,0)">
                <path d="M940.281,70L940.281,250.161L1120,250" style="fill:none;stroke:black;stroke-width:1px;stroke-dasharray:5,4,0,0,0,0;"/>
            </g>
            <g transform="matrix(5.25,0,0,3.75,-4200,0)">
                <path d="M884.567,305.129L939.633,250" style="fill:none;stroke:black;stroke-width:1px;stroke-dasharray:5,4,0,0,0,0;"/>
            </g>
            <g transform="matrix(7.86018,0,0,5.62389,-1429.24,-13547.3)">
                <g transform="matrix(16.0031,0,0,16.0031,242.969,2625.26)">
                </g>
                <text x="233.194px" y="2625.26px" style="font-family:'TimesNewRomanPS-ItalicMT', 'Times New Roman', serif;font-style:italic;font-size:16.003px;fill:rgb(102,102,102);">A</text>
            </g>
            <g transform="matrix(1.65663,0,0,5.62389,747.597,423.87)">
                <g transform="matrix(3.16909,-0,-0,0.666798,-451.276,-75.3695)">
                    <path d="M181.187,299.129L163.187,305.129L181.187,311.129L181.187,299.129Z" style="fill:rgb(242,13,13);"/>
                    <path d="M177.587,305.129L264.064,305.129" style="fill:none;stroke:rgb(242,13,13);stroke-width:4px;"/>
                </g>
            </g>
            <g transform="matrix(1.65663,0,0,5.62389,747.597,423.87)">
                <g transform="matrix(3.16909,-0,-0,0.666798,-451.276,-75.3695)">
                    <path d="M153.792,65.772L140.281,70.239L153.77,74.772L153.792,65.772Z" style="fill:rgb(24,6,253);"/>
                    <path d="M151.081,70.266C189.792,70.362 319.307,70.685 319.307,70.685" style="fill:none;stroke:rgb(24,6,253);stroke-width:3px;"/>
                </g>
            </g>
            <g transform="matrix(5.25,0,0,3.75,-4059.06,-530.95)">
                <text x="979.241px" y="200.629px" style="font-family:'TimesNewRomanPS-ItalicMT', 'Times New Roman', serif;font-style:italic;font-size:24px;fill:rgb(24,6,253);">r</text>
                <g transform="matrix(13.992,0,0,13.992,1006.89,208.621)">
                </g>
                <text x="987.381px" y="208.621px" style="font-family:'TimesNewRomanPS-ItalicMT', 'Times New Roman', serif;font-style:italic;font-size:13.992px;fill:rgb(24,6,253);">G<tspan x="996.786px " y="208.621px ">H</tspan></text>
            </g>
            <g transform="matrix(7.87345,0,0,5.62389,-440.424,-13548.6)">
                <g transform="matrix(16.0031,0,0,16.0031,242.969,2625.26)">
                </g>
                <text x="233.194px" y="2625.26px" style="font-family:'TimesNewRomanPS-ItalicMT', 'Times New Roman', serif;font-style:italic;font-size:16.003px;fill:rgb(102,102,102);">B</text>
            </g>
            <g transform="matrix(7.87345,0,0,5.62389,-152.966,-13747.9)">
                <g transform="matrix(16.0031,0,0,16.0031,242.969,2625.26)">
                </g>
                <text x="233.194px" y="2625.26px" style="font-family:'TimesNewRomanPS-ItalicMT', 'Times New Roman', serif;font-style:italic;font-size:16.003px;fill:rgb(102,102,102);">F</text>
            </g>
            <g transform="matrix(7.87345,0,0,5.62389,-539.024,-14314.2)">
                <g transform="matrix(16.0031,0,0,16.0031,243.868,2625.26)">
                </g>
                <text x="233.194px" y="2625.26px" style="font-family:'TimesNewRomanPS-ItalicMT', 'Times New Roman', serif;font-style:italic;font-size:16.003px;fill:rgb(102,102,102);">C</text>
            </g>
            <g transform="matrix(7.87345,0,0,5.62389,-1499.05,-14314.2)">
                <g transform="matrix(16.0031,0,0,16.0031,244.751,2625.26)">
                </g>
                <text x="233.194px" y="2625.26px" style="font-family:'TimesNewRomanPS-ItalicMT', 'Times New Roman', serif;font-style:italic;font-size:16.003px;fill:rgb(102,102,102);">D</text>
            </g>
            <g transform="matrix(7.87345,0,0,5.62389,-1220.89,-14508.9)">
                <g transform="matrix(16.0031,0,0,16.0031,244.751,2625.26)">
                </g>
                <text x="233.194px" y="2625.26px" style="font-family:'TimesNewRomanPS-ItalicMT', 'Times New Roman', serif;font-style:italic;font-size:16.003px;fill:rgb(102,102,102);">H</text>
            </g>
            <g transform="matrix(7.87345,0,0,5.62389,-1181.44,-14458.5)">
                <g transform="matrix(16.0031,0,0,16.0031,361.629,2614.18)">
                </g>
                <text x="350.072px" y="2614.18px" style="font-family:'TimesNewRomanPS-ItalicMT', 'Times New Roman', serif;font-style:italic;font-size:16.003px;fill:rgb(102,102,102);">G</text>
            </g>
            <g transform="matrix(5.25,0,0,3.75,-7917.55,54.2945)">
                <g transform="matrix(20,0,0,20,1820.47,226.341)">
                </g>
                <text x="1794.81px" y="226.341px" style="font-family:'TimesNewRomanPS-ItalicMT', 'Times New Roman', serif;font-style:italic;font-size:20px;">B<tspan x="1806.03px " y="226.341px ">G</tspan></text>
            </g>
        </g>
    </g>
</svg>
