<?xml version="1.0" encoding="UTF-8" standalone="no"?>
<!DOCTYPE svg PUBLIC "-//W3C//DTD SVG 1.1//EN" "http://www.w3.org/Graphics/SVG/1.1/DTD/svg11.dtd">
<svg width="100%" height="100%" viewBox="0 0 241 240" version="1.1" xmlns="http://www.w3.org/2000/svg" xmlns:xlink="http://www.w3.org/1999/xlink" xml:space="preserve" xmlns:serif="http://www.serif.com/" style="fill-rule:evenodd;clip-rule:evenodd;stroke-linecap:round;stroke-linejoin:round;stroke-miterlimit:1.5;">
    <g transform="matrix(1,0,0,1,-667,0)">
        <g id="_3d-moment-about-line-simple-solution" serif:id="3d-moment-about-line-simple-solution" transform="matrix(0.114286,0,0,0.16,667.771,0)">
            <rect x="0" y="0" width="2100" height="1500" style="fill:none;"/>
            <g transform="matrix(2.63673,0,0,3.34996,616.702,-146.002)">
                <g transform="matrix(3.31851,-0,-0,1.86569,-236.449,43.5831)">
                    <path d="M92.882,27.114L91.382,22.614L89.882,27.114L92.882,27.114Z" style="fill:rgb(102,102,102);"/>
                    <path d="M230.879,159.611L235.378,161.115L230.876,162.611L230.879,159.611Z" style="fill:rgb(102,102,102);"/>
                    <path d="M91.382,26.214L91.382,160.992C91.382,160.992 209.5,161.093 231.778,161.112" style="fill:none;stroke:rgb(102,102,102);stroke-width:1px;"/>
                </g>
            </g>
            <g transform="matrix(7.7261,0.10513,0.147183,5.51864,-13070.4,-7780.49)">
                <g transform="matrix(1.13294,-0.0215825,-0.0215825,1.13294,1664.6,1378.15)">
                    <path d="M34.339,219.974L30.097,222.096L32.218,217.853L34.339,219.974Z" style="fill:rgb(102,102,102);"/>
                    <path d="M91.137,161.056C91.137,161.056 44.196,207.997 32.642,219.55" style="fill:none;stroke:rgb(102,102,102);stroke-width:1px;"/>
                </g>
            </g>
            <g transform="matrix(8.75,0,0,6.25,-9301.74,-987.427)">
                <g transform="matrix(14.4,0,0,14.4,1297.66,329.998)">
                </g>
                <text x="1291.27px" y="329.998px" style="font-family:'TimesNewRomanPS-ItalicMT', 'Times New Roman', serif;font-style:italic;font-size:14.4px;fill:rgb(102,102,102);">y</text>
            </g>
            <g transform="matrix(8.75,0,0,6.25,-11019.2,-612.475)">
                <g transform="matrix(14.4,0,0,14.4,1297.66,329.998)">
                </g>
                <text x="1291.27px" y="329.998px" style="font-family:'TimesNewRomanPS-ItalicMT', 'Times New Roman', serif;font-style:italic;font-size:14.4px;fill:rgb(102,102,102);">x</text>
            </g>
            <g transform="matrix(8.75,0,0,6.25,-10361.5,-1858.66)">
                <g transform="matrix(14.4,0,0,14.4,1285.27,329.998)">
                </g>
                <text x="1279.67px" y="329.998px" style="font-family:'TimesNewRomanPS-ItalicMT', 'Times New Roman', serif;font-style:italic;font-size:14.4px;fill:rgb(102,102,102);">z</text>
            </g>
            <g transform="matrix(5.12062,0,0,4.54661,-3469.31,-371.084)">
                <rect x="775.159" y="200" width="184.508" height="148.43" style="fill:none;stroke:rgb(1,0,1);stroke-width:1.51px;stroke-dasharray:7.57,6.06,0,0,0,0;"/>
            </g>
            <g transform="matrix(5.24989,0,0,3.74992,-4142.27,68.8812)">
                <path d="M1064.22,125.164L1120,70L939.633,70L884.258,125.164" style="fill:none;stroke:black;stroke-width:1.67px;stroke-dasharray:8.33,6.67,0,0,0,0;"/>
            </g>
            <g transform="matrix(1.65659,0,0,5.62377,148.517,-392.581)">
                <g transform="matrix(5.28192,-0,-0,1.11135,-93.726,69.8074)">
                    <path d="M71.104,66.535L64.628,79.206L77.412,72.955L71.104,66.535Z" style="fill:rgb(242,13,13);"/>
                    <path d="M72.332,71.637C80.159,63.948 91.137,53.163 91.137,53.163" style="fill:none;stroke:rgb(242,13,13);stroke-width:3px;"/>
                </g>
            </g>
            <g transform="matrix(5.02576,0.680708,0.952992,0.855553,-3958.15,-490.333)">
                <g transform="matrix(2.05037,-1.63135,-1.63135,8.60317,797.938,-61.7496)">
                    <path d="M193.985,61.122L198.966,53.048L199.826,62.495L193.985,61.122Z"/>
                    <path d="M192.814,79.206C192.814,79.206 195.495,67.805 197.317,60.056" style="fill:none;stroke:black;stroke-width:2px;"/>
                </g>
            </g>
            <g transform="matrix(5.12607,0.376041,0.526458,2.151,-4171.16,156.628)">
                <path d="M1064.06,305.129L1119.35,70.046" style="fill:none;stroke:black;stroke-width:3.71px;"/>
            </g>
            <g transform="matrix(5.24989,0,0,3.74992,-4142.27,68.8812)">
                <path d="M1120,70.046L1120,250.161L1064.22,305.129" style="fill:none;stroke:black;stroke-width:1.67px;stroke-dasharray:8.33,6.67,0,0,0,0;"/>
            </g>
            <g transform="matrix(1.17743,0.202232,-0.26425,0.784954,-141.946,72.1252)">
                <g transform="matrix(-1.85389,0.128396,-0.315338,-0.615082,3129.63,1187.55)">
                    <path d="M616.846,1292.29L600.719,1389.01" style="fill:none;stroke:rgb(225,32,32);stroke-width:13.83px;"/>
                </g>
                <g transform="matrix(4.21505,-1.08595,1.01355,4.51612,-6163.21,1583.73)">
                    <path d="M1816.98,128.689L1823.37,136.706L1823.37,173.968L1816.26,173.273L1816.98,128.689Z" style="fill:white;"/>
                </g>
                <g transform="matrix(1.87936,0.0807829,-0.0689263,2.082,-1115.52,-1835.14)">
                    <g id="path1040" transform="matrix(1,0,0,1,477.729,-403.466)">
                        <path d="M994.385,1304.03C993.258,1312.48 992.131,1318.68 989.596,1320.93" style="fill:none;stroke:rgb(128,128,128);stroke-width:1px;stroke-miterlimit:4;"/>
                    </g>
                    <g id="path1038" transform="matrix(1,0,0,1,477.729,-403.466)">
                        <path d="M999.032,1308.96C1000.16,1315.3 991.286,1324.88 991.286,1324.88" style="fill:none;stroke:rgb(128,128,128);stroke-width:1px;stroke-miterlimit:4;"/>
                    </g>
                    <g id="path1036" transform="matrix(1,0,0,1,477.729,-403.466)">
                        <path d="M1000.24,1406.36C995.44,1403.83 995.637,1400.51 1001.41,1398.32C1004.02,1397.26 1008.08,1399.36 1008.08,1399.36" style="fill:none;stroke:rgb(128,128,128);stroke-width:1px;stroke-miterlimit:4;"/>
                    </g>
                    <g id="path1034" transform="matrix(1,0,0,1,477.729,-403.466)">
                        <path d="M983.817,1293.97C980.141,1299.15 974.166,1292.97 974.166,1284.61C974.166,1276.24 975.115,1273.96 976.732,1271.81" style="fill:none;stroke:rgb(128,128,128);stroke-width:1px;stroke-miterlimit:4;"/>
                    </g>
                    <g id="path1032" transform="matrix(1,0,0,1,477.729,-403.466)">
                        <path d="M1000.88,1396.29C996.074,1393.76 997.468,1389.17 1003.24,1386.98C1009.02,1384.79 1013.86,1388.37 1013.86,1388.37" style="fill:none;stroke:rgb(128,128,128);stroke-width:1px;stroke-miterlimit:4;"/>
                    </g>
                    <g id="path1030" transform="matrix(1,0,0,1,477.729,-403.466)">
                        <path d="M977.946,1334.31C983.527,1351.33 984.323,1361.89 986.713,1366.27C989.103,1370.65 992.517,1375.23 992.517,1375.23" style="fill:none;stroke:rgb(128,128,128);stroke-width:1px;stroke-miterlimit:4;"/>
                    </g>
                    <g id="path1028" transform="matrix(1,0,0,1,477.729,-403.466)">
                        <path d="M973.059,1373.97C973.967,1363.68 967.594,1355.32 967.594,1355.32" style="fill:none;stroke:rgb(128,128,128);stroke-width:1px;stroke-miterlimit:4;"/>
                    </g>
                    <g id="path1026" transform="matrix(1,0,0,1,477.729,-403.466)">
                        <path d="M973.542,1374.03C956.839,1371.85 949.271,1380.41 949.271,1380.41" style="fill:none;stroke:rgb(128,128,128);stroke-width:1px;stroke-miterlimit:4;"/>
                    </g>
                    <g id="path1023" transform="matrix(1,0,0,1,477.729,-403.466)">
                        <path d="M979.457,1379.66C977.751,1383 977.751,1387.18 977.751,1387.18" style="fill:none;stroke:rgb(128,128,128);stroke-width:1px;stroke-miterlimit:4;"/>
                    </g>
                    <g id="path1020" transform="matrix(1,0,0,1,477.729,-403.466)">
                        <path d="M986.009,1429.26C982.38,1427.96 982.142,1425.46 985.912,1423.13C987.606,1422.02 990.669,1423.09 990.669,1423.09" style="fill:none;stroke:rgb(128,128,128);stroke-width:1px;stroke-miterlimit:4;"/>
                    </g>
                    <g id="path1005" transform="matrix(1,0,0,1,477.729,-403.466)">
                        <path d="M996.227,1417.06C991.08,1415.34 990.742,1412.04 996.09,1408.94C998.492,1407.48 1002.84,1408.9 1002.84,1408.9" style="fill:none;stroke:rgb(128,128,128);stroke-width:1px;stroke-miterlimit:4;"/>
                    </g>
                    <g id="path1007" transform="matrix(1,0,0,1,477.729,-403.466)">
                        <path d="M992.836,1347.29C988.506,1359.9 989.672,1370.08 993.172,1375.14" style="fill:none;stroke:rgb(128,128,128);stroke-width:1px;stroke-miterlimit:4;"/>
                    </g>
                    <g id="path1009" transform="matrix(1,0,0,1,477.729,-403.466)">
                        <path d="M1119.75,1358.1L1110.57,1421.35M1001.16,1412.26C1010.58,1417.55 1022.56,1416.23 1030.3,1416.14C1040.75,1416.02 1064.24,1410.79 1067.76,1409.94C1071.28,1409.1 1103.53,1416.85 1110.57,1421.35M958.006,1428.14C964.388,1430.23 979.457,1431.63 984.104,1429.66C988.751,1427.69 991.879,1423.89 991.582,1420.08M949.477,1423.13C951.713,1427.97 954.671,1428.39 958.332,1428.11C961.994,1427.83 976.077,1426.56 981.006,1424.59C985.935,1422.62 995.37,1418.82 998.046,1416.28C1000.72,1413.75 1004.28,1407.63 1002.93,1405.41M942.886,1403.99C940.87,1411.21 943.404,1420.51 947.911,1422.76C952.418,1425.01 976.922,1417.41 984.245,1414.87C991.568,1412.34 1005.91,1403.75 1008.12,1400.51C1010.33,1397.27 1007.71,1392.88 1007.71,1392.88M965.232,1322.09C958.051,1324.46 958.896,1323.33 954.671,1328.68C950.446,1334.03 935.236,1377.41 934.391,1386.71C933.546,1396 935.518,1403.04 941.996,1403.89C948.474,1404.73 980.02,1405.3 984.527,1403.33C989.033,1401.35 1014.38,1391.5 1014.1,1387.55C1013.82,1383.61 1014.38,1378.82 1002.83,1375.72C991.286,1372.62 979.457,1379.66 979.457,1379.66C979.457,1379.66 979.457,1378.54 977.485,1376.85C975.513,1375.16 973.542,1374.03 973.542,1374.03M1119.75,1358.1C1095.46,1351.73 1083.11,1355.71 1064.79,1348.94C1046.46,1342.17 1030.13,1329.82 1024.55,1326.24C1018.98,1322.65 985.519,1297.95 981.934,1291.58C978.349,1285.2 978.349,1267.68 972.374,1265.29C966.399,1262.9 950.164,1274.92 953.749,1294.43C957.616,1318.74 970.785,1329.11 981.535,1336.99C989.825,1343.07 997.07,1352.13 997.07,1352.13" style="fill:none;stroke:black;stroke-width:2px;stroke-miterlimit:4;"/>
                    </g>
                </g>
                <g transform="matrix(1.87936,0.0807829,-0.0689263,2.082,-1115.52,-1835.14)">
                    <g id="path10401" serif:id="path1040" transform="matrix(1,0,0,1,477.729,-403.466)">
                        <path d="M994.385,1304.03C993.258,1312.48 992.131,1318.68 989.596,1320.93" style="fill:none;stroke:rgb(128,128,128);stroke-width:1px;stroke-miterlimit:4;"/>
                    </g>
                    <g id="path10381" serif:id="path1038" transform="matrix(1,0,0,1,477.729,-403.466)">
                        <path d="M999.032,1308.96C1000.16,1315.3 991.286,1324.88 991.286,1324.88" style="fill:none;stroke:rgb(128,128,128);stroke-width:1px;stroke-miterlimit:4;"/>
                    </g>
                    <g id="path10361" serif:id="path1036" transform="matrix(1,0,0,1,477.729,-403.466)">
                        <path d="M1000.24,1406.36C995.44,1403.83 995.637,1400.51 1001.41,1398.32C1004.02,1397.26 1008.08,1399.36 1008.08,1399.36" style="fill:none;stroke:rgb(128,128,128);stroke-width:1px;stroke-miterlimit:4;"/>
                    </g>
                    <g id="path10341" serif:id="path1034" transform="matrix(1,0,0,1,477.729,-403.466)">
                        <path d="M983.817,1293.97C980.141,1299.15 974.166,1292.97 974.166,1284.61C974.166,1276.24 975.115,1273.96 976.732,1271.81" style="fill:none;stroke:rgb(128,128,128);stroke-width:1px;stroke-miterlimit:4;"/>
                    </g>
                    <g id="path10321" serif:id="path1032" transform="matrix(1,0,0,1,477.729,-403.466)">
                        <path d="M1000.88,1396.29C996.074,1393.76 997.468,1389.17 1003.24,1386.98C1009.02,1384.79 1013.86,1388.37 1013.86,1388.37" style="fill:none;stroke:rgb(128,128,128);stroke-width:1px;stroke-miterlimit:4;"/>
                    </g>
                    <g id="path10301" serif:id="path1030" transform="matrix(1,0,0,1,477.729,-403.466)">
                        <path d="M977.946,1334.31C983.527,1351.33 984.323,1361.89 986.713,1366.27C989.103,1370.65 992.517,1375.23 992.517,1375.23" style="fill:none;stroke:rgb(128,128,128);stroke-width:1px;stroke-miterlimit:4;"/>
                    </g>
                    <g id="path10281" serif:id="path1028" transform="matrix(1,0,0,1,477.729,-403.466)">
                        <path d="M973.059,1373.97C973.967,1363.68 967.594,1355.32 967.594,1355.32" style="fill:none;stroke:rgb(128,128,128);stroke-width:1px;stroke-miterlimit:4;"/>
                    </g>
                    <g id="path10261" serif:id="path1026" transform="matrix(1,0,0,1,477.729,-403.466)">
                        <path d="M973.542,1374.03C956.839,1371.85 949.271,1380.41 949.271,1380.41" style="fill:none;stroke:rgb(128,128,128);stroke-width:1px;stroke-miterlimit:4;"/>
                    </g>
                    <g id="path10231" serif:id="path1023" transform="matrix(1,0,0,1,477.729,-403.466)">
                        <path d="M979.457,1379.66C977.751,1383 977.751,1387.18 977.751,1387.18" style="fill:none;stroke:rgb(128,128,128);stroke-width:1px;stroke-miterlimit:4;"/>
                    </g>
                    <g id="path10201" serif:id="path1020" transform="matrix(1,0,0,1,477.729,-403.466)">
                        <path d="M986.009,1429.26C982.38,1427.96 982.142,1425.46 985.912,1423.13C987.606,1422.02 990.669,1423.09 990.669,1423.09" style="fill:none;stroke:rgb(128,128,128);stroke-width:1px;stroke-miterlimit:4;"/>
                    </g>
                    <g id="path10051" serif:id="path1005" transform="matrix(1,0,0,1,477.729,-403.466)">
                        <path d="M996.227,1417.06C991.08,1415.34 990.742,1412.04 996.09,1408.94C998.492,1407.48 1002.84,1408.9 1002.84,1408.9" style="fill:none;stroke:rgb(128,128,128);stroke-width:1px;stroke-miterlimit:4;"/>
                    </g>
                    <g id="path10071" serif:id="path1007" transform="matrix(1,0,0,1,477.729,-403.466)">
                        <path d="M992.836,1347.29C988.506,1359.9 989.672,1370.08 993.172,1375.14" style="fill:none;stroke:rgb(128,128,128);stroke-width:1px;stroke-miterlimit:4;"/>
                    </g>
                    <g id="path10091" serif:id="path1009" transform="matrix(1,0,0,1,477.729,-403.466)">
                        <path d="M1119.75,1358.1L1110.57,1421.35M1001.16,1412.26C1010.58,1417.55 1022.56,1416.23 1030.3,1416.14C1040.75,1416.02 1064.24,1410.79 1067.76,1409.94C1071.28,1409.1 1103.53,1416.85 1110.57,1421.35M958.006,1428.14C964.388,1430.23 979.457,1431.63 984.104,1429.66C988.751,1427.69 991.879,1423.89 991.582,1420.08M949.477,1423.13C951.713,1427.97 954.671,1428.39 958.332,1428.11C961.994,1427.83 976.077,1426.56 981.006,1424.59C985.935,1422.62 995.37,1418.82 998.046,1416.28C1000.72,1413.75 1004.28,1407.63 1002.93,1405.41M942.886,1403.99C940.87,1411.21 943.404,1420.51 947.911,1422.76C952.418,1425.01 976.922,1417.41 984.245,1414.87C991.568,1412.34 1005.91,1403.75 1008.12,1400.51C1010.33,1397.27 1007.71,1392.88 1007.71,1392.88M965.232,1322.09C958.051,1324.46 958.896,1323.33 954.671,1328.68C950.446,1334.03 935.236,1377.41 934.391,1386.71C933.546,1396 935.518,1403.04 941.996,1403.89C948.474,1404.73 980.02,1405.3 984.527,1403.33C989.033,1401.35 1014.38,1391.5 1014.1,1387.55C1013.82,1383.61 1014.38,1378.82 1002.83,1375.72C991.286,1372.62 979.457,1379.66 979.457,1379.66C979.457,1379.66 979.457,1378.54 977.485,1376.85C975.513,1375.16 973.542,1374.03 973.542,1374.03M1119.75,1358.1C1095.46,1351.73 1083.11,1355.71 1064.79,1348.94C1046.46,1342.17 1030.13,1329.82 1024.55,1326.24C1018.98,1322.65 985.519,1297.95 981.934,1291.58C978.349,1285.2 978.349,1267.68 972.374,1265.29C966.399,1262.9 950.164,1274.92 953.749,1294.43C957.616,1318.74 970.785,1329.11 981.535,1336.99C989.825,1343.07 997.07,1352.13 997.07,1352.13" style="fill:none;stroke:black;stroke-width:2px;stroke-miterlimit:4;"/>
                    </g>
                </g>
                <g transform="matrix(-1.85136,0.387457,-0.329877,-2.10423,3146.86,2781.54)">
                    <g transform="matrix(-3.82249,0.156304,-0.266348,-3.62614,1361.72,1627.19)">
                        <path d="M186.522,86.194L193.926,74.042L195.294,88.207L186.522,86.194Z" style="fill:rgb(225,32,32);"/>
                        <path d="M187.867,100.454C187.867,100.454 189.822,91.932 191.511,84.569" style="fill:none;stroke:rgb(225,32,32);stroke-width:3px;"/>
                    </g>
                </g>
                <g transform="matrix(3.4858,0,0,3.50599,111.449,-5547.91)">
                    <g transform="matrix(2.01539,-0.516244,0.484619,2.1469,-6.42489,1549.65)">
                        <path d="M188.141,101.486L199.864,103.279L189.41,108.878L188.141,101.486Z" style="fill:rgb(173,23,23);"/>
                        <path d="M189.387,96.939C183.121,95.432 177.652,95.828 177.172,97.822C177.015,98.476 177.415,99.222 178.244,99.981C179.943,101.536 183.442,103.151 187.65,104.162C188.8,104.439 189.923,104.651 190.993,104.802" style="fill:none;stroke:rgb(173,23,23);stroke-width:2.5px;"/>
                    </g>
                </g>
                <g transform="matrix(-1.85228,0.29348,-0.324603,-1.56402,3140.61,2141.4)">
                    <g transform="matrix(-3.86835,0.431366,-0.0664331,-4.82508,1350.26,1695.95)">
                        <path d="M184.969,92.964L192.373,80.812L193.741,94.976L184.969,92.964Z" style="fill:rgb(225,32,32);"/>
                        <path d="M187.867,100.454C187.867,100.454 188.888,96.003 189.958,91.338" style="fill:none;stroke:rgb(225,32,32);stroke-width:3px;"/>
                    </g>
                </g>
            </g>
            <g transform="matrix(5.24989,0,0,3.74992,-511.175,44.5324)">
                <text x="190.02px" y="92.43px" style="font-family:'TimesNewRomanPS-ItalicMT', 'Times New Roman', serif;font-style:italic;font-size:24px;fill:rgb(251,7,4);">P</text>
                <g transform="matrix(13.992,0,0,13.992,210.477,100.422)">
                </g>
                <text x="203.481px" y="100.422px" style="font-family:'TimesNewRomanPS-ItalicMT', 'Times New Roman', serif;font-style:italic;font-size:13.992px;fill:rgb(251,7,4);">2</text>
            </g>
            <g transform="matrix(5.24989,0,0,3.74992,169.958,820.775)">
                <text x="190.02px" y="92.43px" style="font-family:'TimesNewRomanPS-ItalicMT', 'Times New Roman', serif;font-style:italic;font-size:24px;fill:rgb(251,7,4);">P</text>
                <g transform="matrix(13.992,0,0,13.992,210.477,100.422)">
                </g>
                <text x="203.481px" y="100.422px" style="font-family:'TimesNewRomanPS-ItalicMT', 'Times New Roman', serif;font-style:italic;font-size:13.992px;fill:rgb(251,7,4);">1</text>
            </g>
            <g transform="matrix(5.24989,0,0,3.74992,793.004,192.138)">
                <text x="190.02px" y="92.43px" style="font-family:'TimesNewRomanPS-ItalicMT', 'Times New Roman', serif;font-style:italic;font-size:24px;fill:rgb(251,7,4);">M</text>
                <g transform="matrix(13.992,0,0,13.992,226.764,100.422)">
                </g>
                <text x="208.813px" y="100.422px" style="font-family:'TimesNewRomanPS-ItalicMT', 'Times New Roman', serif;font-style:italic;font-size:13.992px;fill:rgb(251,7,4);">B<tspan x="216.66px " y="100.422px ">G</tspan></text>
            </g>
            <g transform="matrix(5.24989,0,0,3.74992,-4142.27,68.8812)">
                <path d="M940.281,70L940.281,250.161L1120,250" style="fill:none;stroke:black;stroke-width:1.67px;stroke-dasharray:8.33,6.67,0,0,0,0;"/>
            </g>
            <g transform="matrix(5.24989,0,0,3.74992,-4142.27,68.8812)">
                <path d="M884.567,305.129L939.633,250" style="fill:none;stroke:black;stroke-width:1.67px;stroke-dasharray:8.33,6.67,0,0,0,0;"/>
            </g>
            <g transform="matrix(7.86002,0,0,5.62377,-1371.57,-13478.1)">
                <g transform="matrix(16.0031,0,0,16.0031,242.969,2625.26)">
                </g>
                <text x="233.194px" y="2625.26px" style="font-family:'TimesNewRomanPS-ItalicMT', 'Times New Roman', serif;font-style:italic;font-size:16.003px;fill:rgb(102,102,102);">A</text>
            </g>
            <g transform="matrix(1.65659,0,0,5.62377,805.219,492.743)">
                <g transform="matrix(5.28192,-0,-0,1.11135,-490.143,-87.6178)">
                    <path d="M118.768,189.595L105.268,194.095L118.768,198.595L118.768,189.595Z" style="fill:rgb(242,13,13);"/>
                    <path d="M116.068,194.095L165.794,194.095" style="fill:none;stroke:rgb(242,13,13);stroke-width:3px;"/>
                </g>
            </g>
            <g transform="matrix(1.65659,0,0,5.62377,805.219,492.743)">
                <g transform="matrix(5.28192,-0,-0,1.11135,-490.143,-87.6178)">
                    <path d="M105.037,48.697L91.525,53.163L105.014,57.697L105.037,48.697Z" style="fill:rgb(24,6,253);"/>
                    <path d="M102.325,53.19C129.57,53.258 198.939,53.431 198.939,53.431" style="fill:none;stroke:rgb(24,6,253);stroke-width:3px;"/>
                </g>
            </g>
            <g transform="matrix(5.24989,0,0,3.74992,-4001.34,-462.058)">
                <text x="979.241px" y="200.629px" style="font-family:'TimesNewRomanPS-ItalicMT', 'Times New Roman', serif;font-style:italic;font-size:24px;fill:rgb(24,6,253);">r</text>
                <g transform="matrix(13.992,0,0,13.992,1006.89,208.621)">
                </g>
                <text x="987.381px" y="208.621px" style="font-family:'TimesNewRomanPS-ItalicMT', 'Times New Roman', serif;font-style:italic;font-size:13.992px;fill:rgb(24,6,253);">G<tspan x="996.786px " y="208.621px ">H</tspan></text>
            </g>
            <g transform="matrix(7.87328,0,0,5.62377,-382.777,-13479.5)">
                <g transform="matrix(16.0031,0,0,16.0031,242.969,2625.26)">
                </g>
                <text x="233.194px" y="2625.26px" style="font-family:'TimesNewRomanPS-ItalicMT', 'Times New Roman', serif;font-style:italic;font-size:16.003px;fill:rgb(102,102,102);">B</text>
            </g>
            <g transform="matrix(7.87328,0,0,5.62377,-95.3247,-13678.7)">
                <g transform="matrix(16.0031,0,0,16.0031,242.969,2625.26)">
                </g>
                <text x="233.194px" y="2625.26px" style="font-family:'TimesNewRomanPS-ItalicMT', 'Times New Roman', serif;font-style:italic;font-size:16.003px;fill:rgb(102,102,102);">F</text>
            </g>
            <g transform="matrix(7.87328,0,0,5.62377,-481.375,-14245)">
                <g transform="matrix(16.0031,0,0,16.0031,243.868,2625.26)">
                </g>
                <text x="233.194px" y="2625.26px" style="font-family:'TimesNewRomanPS-ItalicMT', 'Times New Roman', serif;font-style:italic;font-size:16.003px;fill:rgb(102,102,102);">C</text>
            </g>
            <g transform="matrix(7.87328,0,0,5.62377,-1441.38,-14245)">
                <g transform="matrix(16.0031,0,0,16.0031,244.751,2625.26)">
                </g>
                <text x="233.194px" y="2625.26px" style="font-family:'TimesNewRomanPS-ItalicMT', 'Times New Roman', serif;font-style:italic;font-size:16.003px;fill:rgb(102,102,102);">D</text>
            </g>
            <g transform="matrix(7.87328,0,0,5.62377,-1163.23,-14439.7)">
                <g transform="matrix(16.0031,0,0,16.0031,244.751,2625.26)">
                </g>
                <text x="233.194px" y="2625.26px" style="font-family:'TimesNewRomanPS-ItalicMT', 'Times New Roman', serif;font-style:italic;font-size:16.003px;fill:rgb(102,102,102);">H</text>
            </g>
            <g transform="matrix(7.87328,0,0,5.62377,-1123.78,-14389.3)">
                <g transform="matrix(16.0031,0,0,16.0031,361.629,2614.18)">
                </g>
                <text x="350.072px" y="2614.18px" style="font-family:'TimesNewRomanPS-ItalicMT', 'Times New Roman', serif;font-style:italic;font-size:16.003px;fill:rgb(102,102,102);">G</text>
            </g>
            <g transform="matrix(5.24989,0,0,3.74992,-7859.74,123.175)">
                <g transform="matrix(20,0,0,20,1820.47,226.341)">
                </g>
                <text x="1794.81px" y="226.341px" style="font-family:'TimesNewRomanPS-ItalicMT', 'Times New Roman', serif;font-style:italic;font-size:20px;">B<tspan x="1806.03px " y="226.341px ">G</tspan></text>
            </g>
        </g>
    </g>
</svg>
