<?xml version="1.0" encoding="UTF-8" standalone="no"?>
<!DOCTYPE svg PUBLIC "-//W3C//DTD SVG 1.1//EN" "http://www.w3.org/Graphics/SVG/1.1/DTD/svg11.dtd">
<svg width="100%" height="100%" viewBox="0 0 261 112" version="1.1" xmlns="http://www.w3.org/2000/svg" xmlns:xlink="http://www.w3.org/1999/xlink" xml:space="preserve" xmlns:serif="http://www.serif.com/" style="fill-rule:evenodd;clip-rule:evenodd;stroke-linejoin:round;stroke-miterlimit:1.5;">
    <g transform="matrix(1,0,0,1,-277,-1)">
        <g id="crate-weight" transform="matrix(0.339869,0,0,0.442703,304.114,-38.6445)">
            <rect x="-78" y="91.533" width="765" height="250.582" style="fill:none;"/>
            <g transform="matrix(1.34615,0,0,1.03346,-118.812,2.34565)">
                <g id="floor" transform="matrix(1,0,0,1,1.03138,0.338781)">
                    <g transform="matrix(1.68637,-0.193087,1.49667,0.491616,1232.8,-208.651)">
                        <ellipse cx="-1040.09" cy="550.981" rx="130.011" ry="109.077" style="fill:rgb(204,204,204);"/>
                    </g>
                    <g>
                        <g id="right-front" serif:id="right front" transform="matrix(1.1177,-0.127975,0,1.0318,-66.7762,-15.0071)">
                            <rect x="312.796" y="212.561" width="173.348" height="110.908" style="fill:white;"/>
                        </g>
                        <g id="left-front" serif:id="left front" transform="matrix(0.95006,0.312068,4.44089e-16,1.05257,-27.9305,-14.0839)">
                            <rect x="166.561" y="72.48" width="160.54" height="108.72" style="fill:white;"/>
                        </g>
                    </g>
                </g>
                <g id="weight" transform="matrix(1,0,0,1,-45.5962,-3.61886)">
                    <g transform="matrix(1,0,0,1,194.937,-31.0509)">
                        <g transform="matrix(0.508409,0.17023,0,1.41097,64.6868,-75.7491)">
                            <g transform="matrix(4.29913,-0.518678,-0,1.54908,-363.942,181.97)">
                                <path d="M130.376,15.593L127.376,24.593L124.376,15.593L130.376,15.593Z" style="fill:rgb(64,124,191);"/>
                                <path d="M127.376,13.372L127.376,17.393" style="fill:none;stroke:rgb(64,124,191);stroke-width:2px;"/>
                            </g>
                        </g>
                        <g transform="matrix(0.508409,0.17023,0,1.41097,115.528,-59.0492)">
                            <g transform="matrix(4.29913,-0.518678,-0,1.54908,-463.942,182.199)">
                                <path d="M153.637,23.234L150.637,32.234L147.637,23.234L153.637,23.234Z" style="fill:rgb(64,124,191);"/>
                                <path d="M150.637,21.013L150.637,25.034" style="fill:none;stroke:rgb(64,124,191);stroke-width:2px;"/>
                            </g>
                        </g>
                        <g transform="matrix(0.508409,0.17023,0,1.41097,168.206,-41.7459)">
                            <g transform="matrix(4.29913,-0.518678,-0,1.54908,-567.556,182.437)">
                                <path d="M177.738,31.15L174.738,40.15L171.738,31.15L177.738,31.15Z" style="fill:rgb(64,124,191);"/>
                                <path d="M174.738,28.929L174.738,32.95" style="fill:none;stroke:rgb(64,124,191);stroke-width:2px;"/>
                            </g>
                        </g>
                    </g>
                    <g transform="matrix(1,0,0,1,124.022,-22.9312)">
                        <g transform="matrix(0.508409,0.17023,0,1.41097,64.6868,-75.7491)">
                            <g transform="matrix(4.29913,-0.518678,-0,1.54908,-224.457,159.387)">
                                <path d="M97.931,19.308L94.931,28.308L91.931,19.308L97.931,19.308Z" style="fill:rgb(64,124,191);"/>
                                <path d="M94.931,17.087L94.931,21.108" style="fill:none;stroke:rgb(64,124,191);stroke-width:2px;"/>
                            </g>
                        </g>
                        <g transform="matrix(0.508409,0.17023,0,1.41097,115.528,-59.0492)">
                            <g transform="matrix(4.29913,-0.518678,-0,1.54908,-324.457,159.616)">
                                <path d="M121.192,26.949L118.192,35.949L115.192,26.949L121.192,26.949Z" style="fill:rgb(64,124,191);"/>
                                <path d="M118.192,24.728L118.192,28.749" style="fill:none;stroke:rgb(64,124,191);stroke-width:2px;"/>
                            </g>
                        </g>
                        <g transform="matrix(0.508409,0.17023,0,1.41097,168.206,-41.7459)">
                            <g transform="matrix(4.29913,-0.518678,-0,1.54908,-428.071,159.853)">
                                <path d="M145.293,34.865L142.293,43.865L139.293,34.865L145.293,34.865Z" style="fill:rgb(64,124,191);"/>
                                <path d="M142.293,32.644L142.293,36.665" style="fill:none;stroke:rgb(64,124,191);stroke-width:2px;"/>
                            </g>
                        </g>
                    </g>
                    <g transform="matrix(1,0,0,1,53.1064,-14.8114)">
                        <g transform="matrix(0.508409,0.17023,0,1.41097,64.6868,-75.7491)">
                            <g transform="matrix(4.29913,-0.518678,-0,1.54908,-84.9725,136.804)">
                                <path d="M65.486,23.023L62.486,32.023L59.486,23.023L65.486,23.023Z" style="fill:rgb(64,124,191);"/>
                                <path d="M62.486,20.802L62.486,24.823" style="fill:none;stroke:rgb(64,124,191);stroke-width:2px;"/>
                            </g>
                        </g>
                        <g transform="matrix(0.508409,0.17023,0,1.41097,115.528,-59.0492)">
                            <g transform="matrix(4.29913,-0.518678,-0,1.54908,-184.973,137.033)">
                                <path d="M88.747,30.663L85.747,39.663L82.747,30.663L88.747,30.663Z" style="fill:rgb(64,124,191);"/>
                                <path d="M85.747,28.443L85.747,32.463" style="fill:none;stroke:rgb(64,124,191);stroke-width:2px;"/>
                            </g>
                        </g>
                        <g transform="matrix(0.508409,0.17023,0,1.41097,168.206,-41.7459)">
                            <g transform="matrix(4.29913,-0.518678,-0,1.54908,-288.586,137.27)">
                                <path d="M112.848,38.58L109.848,47.58L106.848,38.58L112.848,38.58Z" style="fill:rgb(64,124,191);"/>
                                <path d="M109.848,36.359L109.848,40.38" style="fill:none;stroke:rgb(64,124,191);stroke-width:2px;"/>
                            </g>
                        </g>
                    </g>
                    <g transform="matrix(1,0,0,1,1.33952,63.1886)">
                        <g transform="matrix(1,0,0,1,194.937,-31.0509)">
                            <g transform="matrix(0.508409,0.17023,0,1.41097,64.6868,-75.7491)">
                                <g transform="matrix(4.29913,-0.518678,-0,1.54908,-366.577,137.504)">
                                    <path d="M130.989,44.503L127.989,53.503L124.989,44.503L130.989,44.503Z" style="fill:rgb(64,124,191);"/>
                                    <path d="M127.989,42.282L127.989,46.303" style="fill:none;stroke:rgb(64,124,191);stroke-width:2px;"/>
                                </g>
                            </g>
                            <g transform="matrix(0.508409,0.17023,0,1.41097,115.528,-59.0492)">
                                <g transform="matrix(4.29913,-0.518678,-0,1.54908,-466.577,137.733)">
                                    <path d="M154.249,52.143L151.249,61.143L148.249,52.143L154.249,52.143Z" style="fill:rgb(64,124,191);"/>
                                    <path d="M151.249,49.923L151.249,53.943" style="fill:none;stroke:rgb(64,124,191);stroke-width:2px;"/>
                                </g>
                            </g>
                            <g transform="matrix(0.508409,0.17023,0,1.41097,168.206,-41.7459)">
                                <g transform="matrix(4.29913,-0.518678,-0,1.54908,-570.191,137.971)">
                                    <path d="M178.351,60.06L175.351,69.06L172.351,60.06L178.351,60.06Z" style="fill:rgb(64,124,191);"/>
                                    <path d="M175.351,57.839L175.351,61.86" style="fill:none;stroke:rgb(64,124,191);stroke-width:2px;"/>
                                </g>
                            </g>
                        </g>
                        <g transform="matrix(1,0,0,1,124.022,-22.9312)">
                            <g transform="matrix(0.508409,0.17023,0,1.41097,64.6868,-75.7491)">
                                <g transform="matrix(4.29913,-0.518678,-0,1.54908,-227.092,114.921)">
                                    <path d="M98.544,48.218L95.544,57.218L92.544,48.218L98.544,48.218Z" style="fill:rgb(64,124,191);"/>
                                    <path d="M95.544,45.997L95.544,50.018" style="fill:none;stroke:rgb(64,124,191);stroke-width:2px;"/>
                                </g>
                            </g>
                            <g transform="matrix(0.508409,0.17023,0,1.41097,115.528,-59.0492)">
                                <g transform="matrix(4.29913,-0.518678,-0,1.54908,-327.092,115.15)">
                                    <path d="M121.804,55.858L118.804,64.858L115.804,55.858L121.804,55.858Z" style="fill:rgb(64,124,191);"/>
                                    <path d="M118.804,53.638L118.804,57.658" style="fill:none;stroke:rgb(64,124,191);stroke-width:2px;"/>
                                </g>
                            </g>
                            <g transform="matrix(0.508409,0.17023,0,1.41097,168.206,-41.7459)">
                                <g transform="matrix(4.29913,-0.518678,-0,1.54908,-430.706,115.387)">
                                    <path d="M145.906,63.775L142.906,72.775L139.906,63.775L145.906,63.775Z" style="fill:rgb(64,124,191);"/>
                                    <path d="M142.906,61.554L142.906,65.575" style="fill:none;stroke:rgb(64,124,191);stroke-width:2px;"/>
                                </g>
                            </g>
                        </g>
                        <g transform="matrix(1,0,0,1,53.1064,-14.8114)">
                            <g transform="matrix(0.508409,0.17023,0,1.41097,64.6868,-75.7491)">
                                <g transform="matrix(4.29913,-0.518678,-0,1.54908,-87.6072,92.3379)">
                                    <path d="M66.099,51.933L63.099,60.933L60.099,51.933L66.099,51.933Z" style="fill:rgb(64,124,191);"/>
                                    <path d="M63.099,49.712L63.099,53.733" style="fill:none;stroke:rgb(64,124,191);stroke-width:2px;"/>
                                </g>
                            </g>
                            <g transform="matrix(0.508409,0.17023,0,1.41097,115.528,-59.0492)">
                                <g transform="matrix(4.29913,-0.518678,-0,1.54908,-187.607,92.5669)">
                                    <path d="M89.36,59.573L86.36,68.573L83.36,59.573L89.36,59.573Z" style="fill:rgb(64,124,191);"/>
                                    <path d="M86.36,57.353L86.36,61.373" style="fill:none;stroke:rgb(64,124,191);stroke-width:2px;"/>
                                </g>
                            </g>
                            <g transform="matrix(0.508409,0.17023,0,1.41097,168.206,-41.7459)">
                                <g transform="matrix(4.29913,-0.518678,-0,1.54908,-291.221,92.8042)">
                                    <path d="M113.461,67.49L110.461,76.49L107.461,67.49L113.461,67.49Z" style="fill:rgb(64,124,191);"/>
                                    <path d="M110.461,65.269L110.461,69.29" style="fill:none;stroke:rgb(64,124,191);stroke-width:2px;"/>
                                </g>
                            </g>
                        </g>
                    </g>
                    <g transform="matrix(1,0,0,1,17.6657,-10.465)">
                        <g id="left-rea" serif:id="left rea" transform="matrix(1.1177,-0.127975,2.27223,0.746365,21.5279,-2.46492)">
                            <rect x="-173.348" y="145.437" width="173.348" height="67.125" style="fill:rgb(64,124,191);fill-opacity:0.1;"/>
                        </g>
                        <g id="bottom" transform="matrix(1.1177,-0.127975,2.27223,0.746365,21.5279,111.97)">
                            <rect x="-173.348" y="145.437" width="173.348" height="67.125" style="fill:rgb(64,124,191);fill-opacity:0.1;"/>
                        </g>
                        <g id="left-front1" serif:id="left front" transform="matrix(0.95006,0.312068,0,1.05257,0,0)">
                            <rect x="166.561" y="72.48" width="160.54" height="108.72" style="fill:rgb(64,124,191);fill-opacity:0.1;"/>
                        </g>
                        <g id="right-front1" serif:id="right front" transform="matrix(1.1177,-0.127975,0,1.0318,-38.8457,-0.923245)">
                            <rect x="312.796" y="212.561" width="173.348" height="110.908" style="fill:rgb(64,124,191);fill-opacity:0.1;"/>
                        </g>
                    </g>
                </g>
                <g id="box" transform="matrix(1,0,0,1,-27.9305,-14.0839)">
                    <g id="bottom1" serif:id="bottom" transform="matrix(1.1177,-0.127975,2.27223,0.746365,21.5279,111.97)">
                        <rect x="-173.348" y="145.437" width="173.348" height="67.125" style="fill-opacity:0.05;stroke:black;stroke-width:0.78px;stroke-linecap:round;stroke-dasharray:4.66,4.66,0,0,0,0;"/>
                    </g>
                    <path d="M351.994,106.084L351.994,220.519" style="fill:none;stroke:black;stroke-width:2.04px;stroke-dasharray:12.24,12.24,0,0,0,0;"/>
                    <g id="left-front2" serif:id="left front" transform="matrix(0.95006,0.312068,0,1.05257,0,0)">
                        <rect x="166.561" y="72.48" width="160.54" height="108.72" style="fill-opacity:0.05;stroke:black;stroke-width:2.48px;stroke-linecap:round;"/>
                    </g>
                    <g id="top" transform="matrix(1.1177,-0.127975,2.27223,0.746365,21.5279,-2.46492)">
                        <rect x="-173.348" y="145.437" width="173.348" height="67.125" style="fill-opacity:0.05;stroke:black;stroke-width:1.2px;stroke-linecap:round;"/>
                    </g>
                    <g id="right-front2" serif:id="right front" transform="matrix(1.1177,-0.127975,0,1.0318,-38.8457,-0.923245)">
                        <rect x="312.796" y="212.561" width="173.348" height="110.908" style="fill-opacity:0.05;stroke:black;stroke-width:2.87px;stroke-linecap:round;"/>
                    </g>
                </g>
            </g>
        </g>
    </g>
</svg>
