<?xml version="1.0" encoding="UTF-8" standalone="no"?>
<!DOCTYPE svg PUBLIC "-//W3C//DTD SVG 1.1//EN" "http://www.w3.org/Graphics/SVG/1.1/DTD/svg11.dtd">
<svg width="100%" height="100%" viewBox="0 0 101 101" version="1.1" xmlns="http://www.w3.org/2000/svg" xmlns:xlink="http://www.w3.org/1999/xlink" xml:space="preserve" xmlns:serif="http://www.serif.com/" style="fill-rule:evenodd;clip-rule:evenodd;stroke-linecap:round;stroke-linejoin:round;stroke-miterlimit:1.5;">
    <g transform="matrix(1,0,0,1,-645,-131)">
        <g id="ZFM_joint_C_fbd" transform="matrix(1.07527,0,0,1.03093,162.478,131.483)">
            <rect x="449" y="0" width="93" height="97" style="fill:none;"/>
            <g id="_-C-" serif:id="(C)" transform="matrix(0.93,0,0,0.97,440.398,-27.645)">
                <text x="50px" y="59.18px" style="font-family:'Times-Italic', 'Times';font-style:italic;font-size:12px;">C</text>
            </g>
            <g transform="matrix(6.54796,0,2.29263e-32,0.97,-1997.92,-108.524)">
                <rect x="376" y="144" width="4.9" height="11" style="fill:none;"/>
                <clipPath id="_clip1">
                    <rect x="376" y="144" width="4.9" height="11"/>
                </clipPath>
                <g clip-path="url(#_clip1)">
                    <g transform="matrix(0.142029,0,-9.00592e-33,1.29268,323.265,-63.7317)">
                        <g transform="matrix(1,0,0,0.773585,2,26.8679)">
                            <path d="M403,178.5C397.599,178.061 393.529,177.085 391.268,175.38" style="fill:none;stroke:rgb(64,124,191);stroke-width:1.5px;"/>
                        </g>
                        <g transform="matrix(1,0,0,-0.773585,1.77402,303.038)">
                            <path d="M403,178.5C397.599,178.061 393.529,177.085 391.268,175.38" style="fill:none;stroke:rgb(64,124,191);stroke-width:1.5px;"/>
                        </g>
                    </g>
                    <g transform="matrix(0.0200387,-9.85944e-18,1.23875e-18,-0.24,373.75,177.82)">
                        <path d="M118,118L351.818,118" style="fill:none;fill-rule:nonzero;stroke:rgb(64,124,191);stroke-width:7.68px;stroke-miterlimit:10;"/>
                    </g>
                </g>
            </g>
            <g transform="matrix(-3.27398,-5.9146,0.805404,-0.485,1623.2,2362.41)">
                <rect x="376" y="144" width="4.9" height="11" style="fill:none;"/>
                <clipPath id="_clip2">
                    <rect x="376" y="144" width="4.9" height="11"/>
                </clipPath>
                <g clip-path="url(#_clip2)">
                    <g transform="matrix(0.142029,0,-9.00592e-33,1.29268,323.265,-63.7317)">
                        <g transform="matrix(1,0,0,0.773585,2,26.8679)">
                            <path d="M403,178.5C397.599,178.061 393.529,177.085 391.268,175.38" style="fill:none;stroke:rgb(225,32,32);stroke-width:1.5px;"/>
                        </g>
                        <g transform="matrix(1,0,0,-0.773585,1.77402,303.038)">
                            <path d="M403,178.5C397.599,178.061 393.529,177.085 391.268,175.38" style="fill:none;stroke:rgb(225,32,32);stroke-width:1.5px;"/>
                        </g>
                    </g>
                    <g transform="matrix(0.0200387,-9.85944e-18,1.23875e-18,-0.24,373.75,177.82)">
                        <path d="M118,118L351.818,118" style="fill:none;fill-rule:nonzero;stroke:rgb(225,32,32);stroke-width:7.68px;stroke-miterlimit:10;"/>
                    </g>
                </g>
            </g>
            <g transform="matrix(4.00947e-16,6.82959,-0.93,5.93954e-17,635.233,-2530.95)">
                <rect x="376" y="144" width="4.9" height="11" style="fill:none;"/>
                <clipPath id="_clip3">
                    <rect x="376" y="144" width="4.9" height="11"/>
                </clipPath>
                <g clip-path="url(#_clip3)">
                    <g transform="matrix(0.142029,0,-9.00592e-33,1.29268,323.265,-63.7317)">
                        <g transform="matrix(1,0,0,0.773585,2,26.8679)">
                            <path d="M403,178.5C397.599,178.061 393.529,177.085 391.268,175.38" style="fill:none;stroke:rgb(225,32,32);stroke-width:1.5px;"/>
                        </g>
                        <g transform="matrix(1,0,0,-0.773585,1.77402,303.038)">
                            <path d="M403,178.5C397.599,178.061 393.529,177.085 391.268,175.38" style="fill:none;stroke:rgb(225,32,32);stroke-width:1.5px;"/>
                        </g>
                    </g>
                    <g transform="matrix(0.0200387,-9.85944e-18,1.23875e-18,-0.24,373.75,177.82)">
                        <path d="M118,118L351.818,118" style="fill:none;fill-rule:nonzero;stroke:rgb(225,32,32);stroke-width:7.68px;stroke-miterlimit:10;"/>
                    </g>
                </g>
            </g>
            <g transform="matrix(0,0.2328,-0.2232,0,627.997,-45.7161)">
                <path d="M354.5,581C349.288,581 345,585.288 345,590.5C345,595.712 349.288,600 354.5,600C359.712,600 364,595.712 364,590.5C364,585.288 359.712,581 354.5,581" style="stroke:black;stroke-width:0.6px;stroke-miterlimit:10;"/>
            </g>
            <g transform="matrix(0.93,0,0,0.97,114.898,-82.0911)">
                <text x="401px" y="167.816px" style="font-family:'Times-Italic', 'Times';font-style:italic;font-size:10px;">BC</text>
            </g>
            <g transform="matrix(0.93,0,0,0.97,140.705,-89.3661)">
                <text x="401px" y="167.816px" style="font-family:'Times-Italic', 'Times';font-style:italic;font-size:10px;">DC</text>
            </g>
        </g>
    </g>
</svg>
