<?xml version="1.0" encoding="UTF-8" standalone="no"?>
<!DOCTYPE svg PUBLIC "-//W3C//DTD SVG 1.1//EN" "http://www.w3.org/Graphics/SVG/1.1/DTD/svg11.dtd">
<svg width="100%" height="100%" viewBox="0 0 101 100" version="1.1" xmlns="http://www.w3.org/2000/svg" xmlns:xlink="http://www.w3.org/1999/xlink" xml:space="preserve" xmlns:serif="http://www.serif.com/" style="fill-rule:evenodd;clip-rule:evenodd;stroke-linecap:round;stroke-linejoin:round;stroke-miterlimit:1.5;">
    <g transform="matrix(1,0,0,1,-645,0)">
        <g id="ZFM_joint_B" transform="matrix(1.07527,0,0,1.03093,162.478,0)">
            <rect x="449" y="0" width="93" height="97" style="fill:none;"/>
            <g transform="matrix(0.93,0,0,0.97,429.168,-6.94993)">
                <text x="50px" y="59.18px" style="font-family:'Times-Italic', 'Times';font-style:italic;font-size:12px;">B</text>
            </g>
            <g transform="matrix(4.00947e-16,-6.82959,0.93,5.93954e-17,357.86,2604.54)">
                <rect x="376" y="144" width="4.9" height="11" style="fill:none;"/>
                <clipPath id="_clip1">
                    <rect x="376" y="144" width="4.9" height="11"/>
                </clipPath>
                <g clip-path="url(#_clip1)">
                    <g transform="matrix(0.142029,0,-9.00592e-33,1.29268,323.265,-63.7317)">
                        <g transform="matrix(1,0,0,0.773585,2,26.8679)">
                            <path d="M403,178.5C397.599,178.061 393.529,177.085 391.268,175.38" style="fill:none;stroke:rgb(225,32,32);stroke-width:1.5px;"/>
                        </g>
                        <g transform="matrix(1,0,0,-0.773585,1.77402,303.038)">
                            <path d="M403,178.5C397.599,178.061 393.529,177.085 391.268,175.38" style="fill:none;stroke:rgb(225,32,32);stroke-width:1.5px;"/>
                        </g>
                    </g>
                    <g transform="matrix(0.0200387,-9.85944e-18,1.23875e-18,-0.24,373.75,177.82)">
                        <path d="M118,118L351.818,118" style="fill:none;fill-rule:nonzero;stroke:rgb(225,32,32);stroke-width:7.68px;stroke-miterlimit:10;"/>
                    </g>
                </g>
            </g>
            <g transform="matrix(6.54796,0,4.03549e-32,0.97,-1958.16,-97)">
                <rect x="376" y="144" width="4.9" height="11" style="fill:none;"/>
                <clipPath id="_clip2">
                    <rect x="376" y="144" width="4.9" height="11"/>
                </clipPath>
                <g clip-path="url(#_clip2)">
                    <g transform="matrix(0.142029,0,-9.00592e-33,1.29268,323.265,-63.7317)">
                        <g transform="matrix(1,0,0,0.773585,2,26.8679)">
                            <path d="M403,178.5C397.599,178.061 393.529,177.085 391.268,175.38" style="fill:none;stroke:rgb(225,32,32);stroke-width:1.5px;"/>
                        </g>
                        <g transform="matrix(1,0,0,-0.773585,1.77402,303.038)">
                            <path d="M403,178.5C397.599,178.061 393.529,177.085 391.268,175.38" style="fill:none;stroke:rgb(225,32,32);stroke-width:1.5px;"/>
                        </g>
                    </g>
                    <g transform="matrix(0.0200387,-9.85944e-18,1.23875e-18,-0.24,373.75,177.82)">
                        <path d="M118,118L351.818,118" style="fill:none;fill-rule:nonzero;stroke:rgb(225,32,32);stroke-width:7.68px;stroke-miterlimit:10;"/>
                    </g>
                </g>
            </g>
            <g transform="matrix(4.00947e-16,6.82959,-0.93,5.93954e-17,635.93,-2510.35)">
                <rect x="376" y="144" width="4.9" height="11" style="fill:none;"/>
                <clipPath id="_clip3">
                    <rect x="376" y="144" width="4.9" height="11"/>
                </clipPath>
                <g clip-path="url(#_clip3)">
                    <g transform="matrix(0.142029,0,-9.00592e-33,1.29268,323.265,-63.7317)">
                        <g transform="matrix(1,0,0,0.773585,2,26.8679)">
                            <path d="M403,178.5C397.599,178.061 393.529,177.085 391.268,175.38" style="fill:none;stroke:rgb(225,32,32);stroke-width:1.5px;"/>
                        </g>
                        <g transform="matrix(1,0,0,-0.773585,1.77402,303.038)">
                            <path d="M403,178.5C397.599,178.061 393.529,177.085 391.268,175.38" style="fill:none;stroke:rgb(225,32,32);stroke-width:1.5px;"/>
                        </g>
                    </g>
                    <g transform="matrix(0.0200387,-9.85944e-18,1.23875e-18,-0.24,373.75,177.82)">
                        <path d="M118,118L351.818,118" style="fill:none;fill-rule:nonzero;stroke:rgb(225,32,32);stroke-width:7.68px;stroke-miterlimit:10;"/>
                    </g>
                </g>
            </g>
            <g transform="matrix(0.93,0,0,0.97,407.791,-28.1728)">
                <path d="M73,69C82.332,60.937 99.522,53.654 109,65C119.854,77.994 118.306,83.938 111,93C100.087,106.537 48.523,90.147 73,69Z" style="fill:none;"/>
                <clipPath id="_clip4">
                    <path d="M73,69C82.332,60.937 99.522,53.654 109,65C119.854,77.994 118.306,83.938 111,93C100.087,106.537 48.523,90.147 73,69Z"/>
                </clipPath>
                <g clip-path="url(#_clip4)">
                    <g transform="matrix(0.24,0,0,-0.24,11,220.44)">
                        <path d="M627.075,566.878L354.311,566.878C341.265,566.878 330.689,577.454 330.689,590.5C330.689,603.546 341.265,614.122 354.311,614.122L627.075,614.122C640.121,614.122 650.697,603.546 650.697,590.5C650.697,577.454 640.121,566.878 627.075,566.878" style="fill:rgb(221,221,221);stroke:black;stroke-width:3px;stroke-miterlimit:10;"/>
                    </g>
                    <g transform="matrix(0.24,0,0,-0.24,11,220.439)">
                        <path d="M330.689,118.057L330.689,1062.94C330.689,1075.98 341.265,1086.56 354.311,1086.56C367.357,1086.56 377.933,1075.98 377.933,1062.94L377.933,118.057C377.933,105.007 367.357,94.437 354.311,94.437C341.265,94.437 330.689,105.007 330.689,118.057" style="fill:rgb(221,221,221);stroke:black;stroke-width:3px;stroke-miterlimit:10;"/>
                    </g>
                </g>
                <path d="M73,69C82.332,60.937 99.522,53.654 109,65C119.854,77.994 118.306,83.938 111,93C100.087,106.537 48.523,90.147 73,69Z" style="fill:none;stroke:black;stroke-width:0.65px;stroke-dasharray:3.25,3.25,0,0;"/>
            </g>
            <g transform="matrix(0,0.2328,-0.2232,0,628.695,-34.6775)">
                <path d="M354.5,581C349.288,581 345,585.288 345,590.5C345,595.712 349.288,600 354.5,600C359.712,600 364,595.712 364,590.5C364,585.288 359.712,581 354.5,581" style="stroke:black;stroke-width:0.6px;stroke-miterlimit:10;"/>
            </g>
            <g transform="matrix(0.93,0,0,0.97,145.82,-108.155)">
                <text x="383px" y="122.816px" style="font-family:'Times-Italic', 'Times';font-style:italic;font-size:10px;">BC</text>
            </g>
            <g transform="matrix(0.93,0,0,0.97,151.4,-103.79)">
                <text x="401px" y="167.816px" style="font-family:'Times-Italic', 'Times';font-style:italic;font-size:10px;">BD</text>
            </g>
            <g transform="matrix(0.93,0,0,0.97,129.08,-74.69)">
                <text x="401px" y="167.816px" style="font-family:'Times-Italic', 'Times';font-style:italic;font-size:10px;">BA</text>
            </g>
        </g>
    </g>
</svg>
