<?xml version="1.0" encoding="UTF-8" standalone="no"?>
<!-- Created with Inkscape (http://www.inkscape.org/) -->

<svg
   xmlns:dc="http://purl.org/dc/elements/1.1/"
   xmlns:cc="http://creativecommons.org/ns#"
   xmlns:rdf="http://www.w3.org/1999/02/22-rdf-syntax-ns#"
   xmlns:svg="http://www.w3.org/2000/svg"
   xmlns="http://www.w3.org/2000/svg"
   xmlns:sodipodi="http://sodipodi.sourceforge.net/DTD/sodipodi-0.dtd"
   xmlns:inkscape="http://www.inkscape.org/namespaces/inkscape"
   width="210mm"
   height="297mm"
   viewBox="0 0 210 297"
   version="1.1"
   id="svg9573"
   inkscape:version="0.92.4 (5da689c313, 2019-01-14)"
   sodipodi:docname="weightFBD.svg">
  <defs
     id="defs9567">
    <clipPath
       id="clip685c51fb-f4fd-41f4-8c84-7c47a360b4b2">
      <path
         id="path11445"
         d="M 0,0 V 303 H 419 V 0 Z"
         inkscape:connector-curvature="0" />
    </clipPath>
    <clipPath
       id="clipa90cf20f-ddf4-44f1-a0f2-677ac144aed3">
      <path
         id="path11458"
         d="M 0,0 V 303 H 419 V 0 Z"
         inkscape:connector-curvature="0" />
    </clipPath>
    <clipPath
       id="clip0fcb4844-06a1-45a6-9d83-92a784b8efff">
      <path
         id="path11471"
         d="M 0,0 V 303 H 419 V 0 Z"
         inkscape:connector-curvature="0" />
    </clipPath>
    <clipPath
       id="clip7f8f801c-bd30-4fb0-9382-bf529d882b33">
      <path
         id="path11484"
         d="M 0,0 V 303 H 419 V 0 Z"
         inkscape:connector-curvature="0" />
    </clipPath>
    <clipPath
       id="clip1b94b746-884c-4000-8931-4bde9228f8bd">
      <path
         id="path11497"
         d="M 0,0 V 303 H 419 V 0 Z"
         inkscape:connector-curvature="0" />
    </clipPath>
    <clipPath
       id="clip6ecb75af-8497-4881-9a1e-7face1514c74">
      <path
         id="path11510"
         d="M 0,0 V 303 H 419 V 0 Z"
         inkscape:connector-curvature="0" />
    </clipPath>
    <clipPath
       id="clipa17aaa64-b309-41d9-8498-bfa362d71833">
      <path
         id="path11523"
         d="M 0,0 V 303 H 419 V 0 Z"
         inkscape:connector-curvature="0" />
    </clipPath>
    <clipPath
       id="clipf0629810-4afd-4846-938f-90932b4a199c">
      <path
         id="path11551"
         d="M 0,0 V 303 H 419 V 0 Z"
         inkscape:connector-curvature="0" />
    </clipPath>
    <clipPath
       id="clipeded315e-e98b-4cb9-a572-b902a7656179">
      <path
         id="path11564"
         d="M 0,0 V 303 H 419 V 0 Z"
         inkscape:connector-curvature="0" />
    </clipPath>
    <clipPath
       id="clipe0e122e9-6d3e-49b5-9bc4-11b9de34497a">
      <path
         id="path11592"
         d="M 0,0 V 303 H 419 V 0 Z"
         inkscape:connector-curvature="0" />
    </clipPath>
    <clipPath
       id="clip5fd74905-5ba9-4656-a429-0b29d0c37e58">
      <path
         id="path11605"
         d="M 0,0 V 303 H 419 V 0 Z"
         inkscape:connector-curvature="0" />
    </clipPath>
    <clipPath
       id="clip943d9397-b20f-44d5-a172-8d53432e45cd">
      <path
         id="path11618"
         d="M 0,0 V 303 H 419 V 0 Z"
         inkscape:connector-curvature="0" />
    </clipPath>
    <clipPath
       id="clip5ef2513c-7494-46c7-986a-5b596d4c3fcb">
      <path
         id="path11631"
         d="M 0,0 V 303 H 419 V 0 Z"
         inkscape:connector-curvature="0" />
    </clipPath>
    <clipPath
       id="clip4e30d4ee-990d-461f-97ca-a9ed7565b7a8">
      <path
         id="path11644"
         d="M 0,0 V 303 H 419 V 0 Z"
         inkscape:connector-curvature="0" />
    </clipPath>
    <clipPath
       id="clip28e8d86a-1240-48b1-88c3-e493e15b68f7">
      <path
         id="path11657"
         d="M 0,0 V 303 H 419 V 0 Z"
         inkscape:connector-curvature="0" />
    </clipPath>
    <clipPath
       id="clipaf90661b-6b22-46c5-b598-cbb96de825a1">
      <path
         id="path11670"
         d="M 0,0 V 303 H 419 V 0 Z"
         inkscape:connector-curvature="0" />
    </clipPath>
    <clipPath
       id="clipd43abfc8-37e4-439f-b313-936320722fca">
      <path
         id="path11683"
         d="M 0,0 V 303 H 419 V 0 Z"
         inkscape:connector-curvature="0" />
    </clipPath>
    <clipPath
       id="clip9f49dba7-0dac-4c77-ac43-79e1f89fa374">
      <path
         id="path11696"
         d="M 0,0 V 303 H 419 V 0 Z"
         inkscape:connector-curvature="0" />
    </clipPath>
    <clipPath
       id="clip6a5e1bd2-02d9-45eb-a96e-98ce2ffa285e">
      <path
         id="path11709"
         d="M 0,0 V 303 H 419 V 0 Z"
         inkscape:connector-curvature="0" />
    </clipPath>
    <clipPath
       id="clipe0c38d1a-780d-474b-b396-e28ad141b0a6">
      <path
         id="path11722"
         d="M 0,0 V 303 H 419 V 0 Z"
         inkscape:connector-curvature="0" />
    </clipPath>
    <clipPath
       id="clip8fcd9be2-7109-4f43-8ee7-286301c00a86">
      <path
         id="path11735"
         d="M 0,0 V 303 H 419 V 0 Z"
         inkscape:connector-curvature="0" />
    </clipPath>
    <clipPath
       id="clipdaddb64f-b2cb-48c9-a9a1-6cd441e708ae">
      <path
         id="path11748"
         d="M 0,0 V 303 H 419 V 0 Z"
         inkscape:connector-curvature="0" />
    </clipPath>
    <clipPath
       id="clip0af582f0-653d-4bad-acd8-ed7f52bf6fe8">
      <path
         id="path11761"
         d="M 0,0 V 303 H 419 V 0 Z"
         inkscape:connector-curvature="0" />
    </clipPath>
    <clipPath
       id="clip45c1389a-6110-46b0-8e82-32956a756421">
      <path
         id="path11774"
         d="M 0,0 V 303 H 419 V 0 Z"
         inkscape:connector-curvature="0" />
    </clipPath>
    <clipPath
       id="clipe625eae3-59ce-4eea-a0de-bfd872229a58">
      <path
         id="path11988"
         d="M 0,0 V 303 H 419 V 0 Z"
         inkscape:connector-curvature="0" />
    </clipPath>
    <clipPath
       id="clip9919ce63-8e8d-4132-8485-c8d8dfc77a74">
      <path
         id="path12001"
         d="M 0,0 V 303 H 419 V 0 Z"
         inkscape:connector-curvature="0" />
    </clipPath>
    <clipPath
       id="clip74fae2a3-ae7e-431f-b12a-b37a471e2b33">
      <path
         id="path12029"
         d="M 0,0 V 303 H 419 V 0 Z"
         inkscape:connector-curvature="0" />
    </clipPath>
    <clipPath
       id="clipd72d8376-fadd-4c06-bc8b-4bdd72498db3">
      <path
         id="path12042"
         d="M 0,0 V 303 H 419 V 0 Z"
         inkscape:connector-curvature="0" />
    </clipPath>
    <clipPath
       id="clip7bd56be3-4a05-4072-9479-294149ba1172">
      <path
         id="path12070"
         d="M 0,0 V 303 H 419 V 0 Z"
         inkscape:connector-curvature="0" />
    </clipPath>
    <clipPath
       id="clip3b5a4c7f-fe22-44d3-a01a-7c5510eb4c09">
      <path
         id="path12083"
         d="M 0,0 V 303 H 419 V 0 Z"
         inkscape:connector-curvature="0" />
    </clipPath>
    <clipPath
       id="clip9276f687-74f3-464e-9cb6-d1e62b094880">
      <path
         id="path12096"
         d="M 0,0 V 303 H 419 V 0 Z"
         inkscape:connector-curvature="0" />
    </clipPath>
    <clipPath
       id="clipe83968ff-6828-4fc6-804b-7d4477bc8074">
      <path
         id="path12109"
         d="M 0,0 V 303 H 419 V 0 Z"
         inkscape:connector-curvature="0" />
    </clipPath>
    <clipPath
       id="clipf051b5c9-3e05-47cd-b9a9-bcc789855bee">
      <path
         id="path12122"
         d="M 0,0 V 303 H 419 V 0 Z"
         inkscape:connector-curvature="0" />
    </clipPath>
    <clipPath
       id="clip79c29ab2-8d8b-46b0-820f-49bdc960a349">
      <path
         id="path12135"
         d="M 0,0 V 303 H 419 V 0 Z"
         inkscape:connector-curvature="0" />
    </clipPath>
    <clipPath
       id="clip14b78665-59ae-4e9c-b52f-79aeffd583db">
      <path
         id="path12148"
         d="M 0,0 V 303 H 419 V 0 Z"
         inkscape:connector-curvature="0" />
    </clipPath>
    <clipPath
       id="clip1bea0019-5054-4779-be86-08107756cfda">
      <path
         id="path12161"
         d="M 0,0 V 303 H 419 V 0 Z"
         inkscape:connector-curvature="0" />
    </clipPath>
    <clipPath
       id="clip7c1b193d-4539-49bc-9216-cddd2f2dc379">
      <path
         id="path12174"
         d="M 0,0 V 303 H 419 V 0 Z"
         inkscape:connector-curvature="0" />
    </clipPath>
    <clipPath
       id="clipdb755de6-044f-4ad5-972c-3ef8560e4f51">
      <path
         id="path12187"
         d="M 0,0 V 303 H 419 V 0 Z"
         inkscape:connector-curvature="0" />
    </clipPath>
    <clipPath
       id="clip690d8ac7-9b07-4157-bd1a-ab62f5655630">
      <path
         id="path12200"
         d="M 0,0 V 303 H 419 V 0 Z"
         inkscape:connector-curvature="0" />
    </clipPath>
    <clipPath
       id="clip84b93aae-7faf-4380-92fe-b97e2002a677">
      <path
         id="path12213"
         d="M 0,0 V 303 H 419 V 0 Z"
         inkscape:connector-curvature="0" />
    </clipPath>
    <clipPath
       id="clip3de416cc-c3e2-4de2-962e-c10067446b25">
      <path
         id="path12226"
         d="M 0,0 V 303 H 419 V 0 Z"
         inkscape:connector-curvature="0" />
    </clipPath>
    <clipPath
       id="clipf50b1065-a60d-47c1-ad5f-892acd4b2dc8">
      <path
         id="path10142"
         d="M 0,0 V 303 H 419 V 0 Z"
         inkscape:connector-curvature="0" />
    </clipPath>
    <clipPath
       id="clipb3e314f3-c47a-4edb-93f3-ad84d96c5642">
      <path
         id="path10170"
         d="M 0,0 V 303 H 419 V 0 Z"
         inkscape:connector-curvature="0" />
    </clipPath>
    <clipPath
       id="clip6b62ada7-d746-4d26-af62-c2cc289f1d7c">
      <path
         id="path10183"
         d="M 0,0 V 303 H 419 V 0 Z"
         inkscape:connector-curvature="0" />
    </clipPath>
    <clipPath
       id="clip5ee1ed4c-03ac-4eb3-b2c6-333094fa5105">
      <path
         id="path10196"
         d="M 0,0 V 303 H 419 V 0 Z"
         inkscape:connector-curvature="0" />
    </clipPath>
    <clipPath
       id="clip4f2c1668-9651-409a-b0e5-b8dbdeb36778">
      <path
         id="path10209"
         d="M 0,0 V 303 H 419 V 0 Z"
         inkscape:connector-curvature="0" />
    </clipPath>
    <clipPath
       id="clip4c6a6783-a5a9-49a9-a419-3f7b9b7692d7">
      <path
         id="path10222"
         d="M 0,0 V 303 H 419 V 0 Z"
         inkscape:connector-curvature="0" />
    </clipPath>
    <clipPath
       id="clipd90ab36a-acda-408d-ab37-09e77a2f18dc">
      <path
         id="path10235"
         d="M 0,0 V 303 H 419 V 0 Z"
         inkscape:connector-curvature="0" />
    </clipPath>
    <clipPath
       id="clip0c9af743-8823-4986-b4bc-e926dae22769">
      <path
         id="path10248"
         d="M 0,0 V 303 H 419 V 0 Z"
         inkscape:connector-curvature="0" />
    </clipPath>
    <clipPath
       id="clipa5c8ffbc-8828-4e4b-9e1d-228d4b7ab3a2">
      <path
         id="path10261"
         d="M 0,0 V 303 H 419 V 0 Z"
         inkscape:connector-curvature="0" />
    </clipPath>
    <clipPath
       id="clipd279e0cc-fbf1-4c6e-830f-21cbdd1e3848">
      <path
         id="path10274"
         d="M 0,0 V 303 H 419 V 0 Z"
         inkscape:connector-curvature="0" />
    </clipPath>
    <clipPath
       id="clip02b2fb96-86b8-4c00-a276-09f45849e473">
      <path
         id="path10287"
         d="M 0,0 V 303 H 419 V 0 Z"
         inkscape:connector-curvature="0" />
    </clipPath>
    <clipPath
       id="clip5787d025-3a01-4e0f-a1e7-0b582d0cfa06">
      <path
         id="path10300"
         d="M 0,0 V 303 H 419 V 0 Z"
         inkscape:connector-curvature="0" />
    </clipPath>
    <clipPath
       id="clip09e8e6fa-d5b8-488b-844b-a2bfad957a16">
      <path
         id="path10313"
         d="M 0,0 V 303 H 419 V 0 Z"
         inkscape:connector-curvature="0" />
    </clipPath>
    <clipPath
       id="clip9f106ecb-6fb1-49c4-aa3a-a54efa2b3e24">
      <path
         id="path10326"
         d="M 0,0 V 303 H 419 V 0 Z"
         inkscape:connector-curvature="0" />
    </clipPath>
    <clipPath
       id="clipf873261a-732c-470a-8f12-488180d8948b">
      <path
         id="path10339"
         d="M 0,0 V 303 H 419 V 0 Z"
         inkscape:connector-curvature="0" />
    </clipPath>
    <clipPath
       id="clipac055836-8254-43e3-9e59-c0c71b3ceed4">
      <path
         id="path10352"
         d="M 0,0 V 303 H 419 V 0 Z"
         inkscape:connector-curvature="0" />
    </clipPath>
    <clipPath
       id="clip7751500a-4146-4838-abf9-15869e66b2c0">
      <path
         id="path10365"
         d="M 0,0 V 303 H 419 V 0 Z"
         inkscape:connector-curvature="0" />
    </clipPath>
    <clipPath
       id="clipb2b91545-0893-4592-81c1-aecf3a8271fc">
      <path
         id="path10378"
         d="M 0,0 V 303 H 419 V 0 Z"
         inkscape:connector-curvature="0" />
    </clipPath>
  </defs>
  <sodipodi:namedview
     id="base"
     pagecolor="#ffffff"
     bordercolor="#666666"
     borderopacity="1.0"
     inkscape:pageopacity="0.0"
     inkscape:pageshadow="2"
     inkscape:zoom="0.98994949"
     inkscape:cx="469.19545"
     inkscape:cy="1062.6343"
     inkscape:document-units="mm"
     inkscape:current-layer="layer1"
     showgrid="false"
     inkscape:window-width="1920"
     inkscape:window-height="1035"
     inkscape:window-x="0"
     inkscape:window-y="1"
     inkscape:window-maximized="1" />
  <metadata
     id="metadata9570">
    <rdf:RDF>
      <cc:Work
         rdf:about="">
        <dc:format>image/svg+xml</dc:format>
        <dc:type
           rdf:resource="http://purl.org/dc/dcmitype/StillImage" />
        <dc:title></dc:title>
      </cc:Work>
    </rdf:RDF>
  </metadata>
  <g
     inkscape:label="Layer 1"
     inkscape:groupmode="layer"
     id="layer1">
    <g
       style="stroke-width:1;stroke-linecap:square;stroke-linejoin:miter;stroke-miterlimit:10;stroke-dasharray:none;stroke-dashoffset:0"
       id="misc"
       transform="matrix(0.16284236,0,0,0.16284236,12.065062,26.162404)" />
    <g
       style="stroke-width:1;stroke-linecap:square;stroke-linejoin:miter;stroke-miterlimit:10;stroke-dasharray:none;stroke-dashoffset:0"
       id="g10324"
       clip-path="url(#clip14)"
       transform="matrix(0.16284236,0,0,0.16284236,12.065062,26.162404)">
      <g
         id="g10322"
         style="fill:#ffffff;fill-opacity:1;fill-rule:nonzero;stroke:none">
        <path
           id="path10316"
           d="m 34.406,162 v -1.16 h 2.313 v -9.12 l -2.313,0.58 v -1.19 l 3.86,-0.96 v 10.69 h 2.312 V 162 Z"
           inkscape:connector-curvature="0" />
        <title
           id="title10318">Number view</title>
        <desc
           id="desc10320">view = 1</desc>
      </g>
      <!-- drawing style -->
    </g>
    <g
       style="stroke-width:1;stroke-linecap:square;stroke-linejoin:miter;stroke-miterlimit:10;stroke-dasharray:none;stroke-dashoffset:0"
       id="g10337"
       clip-path="url(#clip15)"
       transform="matrix(0.16284236,0,0,0.16284236,12.065062,26.162404)">
      <g
         id="g10335"
         style="fill:#ffffff;fill-opacity:1;fill-rule:nonzero;stroke:none">
        <path
           id="path10329"
           d="m 32.406,162 v -1.16 h 2.313 v -9.12 l -2.313,0.58 v -1.19 l 3.86,-0.96 v 10.69 h 2.312 V 162 Z"
           inkscape:connector-curvature="0" />
        <title
           id="title10331">Number view</title>
        <desc
           id="desc10333">view = 1</desc>
      </g>
      <!-- drawing style -->
    </g>
    <g
       style="stroke-width:1;stroke-linecap:square;stroke-linejoin:miter;stroke-miterlimit:10;stroke-dasharray:none;stroke-dashoffset:0"
       id="g10350"
       clip-path="url(#clip16)"
       transform="matrix(0.16284236,0,0,0.16284236,12.065062,26.162404)">
      <g
         id="g10348"
         style="fill:#ffffff;fill-opacity:1;fill-rule:nonzero;stroke:none">
        <path
           id="path10342"
           d="m 33.406,163 v -1.16 h 2.313 v -9.12 l -2.313,0.58 v -1.19 l 3.86,-0.96 v 10.69 h 2.312 V 163 Z"
           inkscape:connector-curvature="0" />
        <title
           id="title10344">Number view</title>
        <desc
           id="desc10346">view = 1</desc>
      </g>
      <!-- drawing style -->
    </g>
    <g
       style="stroke-width:1;stroke-linecap:square;stroke-linejoin:miter;stroke-miterlimit:10;stroke-dasharray:none;stroke-dashoffset:0"
       id="misc-7"
       transform="matrix(0.16284236,0,0,0.16284236,65.243352,24.588207)" />
    <g
       style="stroke-width:1;stroke-linecap:square;stroke-linejoin:miter;stroke-miterlimit:10;stroke-dasharray:none;stroke-dashoffset:0"
       id="misc-3"
       transform="matrix(0.16284236,0,0,0.16284236,96.489544,25.075106)" />
    <g
       id="g13952"
       transform="translate(-62.2738,-19.510676)">
      <g
         transform="translate(-30.781938,-1.5180299)"
         id="g13706">
        <g
           id="g13385"
           transform="translate(45.183809,-0.79296125)">
          <g
             transform="matrix(0.16284236,0,0,0.16284236,12.065062,26.162404)"
             clip-path="url(#clip1)"
             id="g10153"
             style="stroke-width:1;stroke-linecap:square;stroke-linejoin:miter;stroke-miterlimit:10;stroke-dasharray:none;stroke-dashoffset:0">
            <g
               style="fill:#000000;fill-opacity:0.21961;fill-rule:evenodd;stroke:none"
               id="g10151">
              <path
                 inkscape:connector-curvature="0"
                 d="m 267.39,132.75 h 61.62 l 30.8,92.42 H 236.59 Z"
                 id="path10145" />
              <title
                 id="title10147">Quadrilateral W</title>
              <desc
                 id="desc10149">Quadrilateral W: Polygon C_1, D, E, F</desc>
            </g>
            <!-- drawing style -->
          </g>
          <g
             transform="matrix(3.0940048,0,0,3.0940048,58.800819,57.099196)"
             id="g10168"
             style="stroke-width:1;stroke-linecap:square;stroke-linejoin:miter;stroke-miterlimit:10;stroke-dasharray:none;stroke-dashoffset:0">
            <clipPath
               id="clip2614f4c7-6497-4ac8-b606-7fe63778899e">
              <path
                 inkscape:connector-curvature="0"
                 d="M -15.105,-9.9991 V 5.9482 H 6.9474 V -9.9991 Z"
                 id="path10155" />
            </clipPath>
            <g
               clip-path="url(#clip2)"
               id="g10166">
              <g
                 style="fill:#000000;fill-opacity:1;fill-rule:nonzero;stroke:none"
                 id="g10164">
                <path
                   inkscape:connector-curvature="0"
                   d="M 0.92188,-0.5625 0.59375,0 Q 0.57812,0.015625 0.5625,0.015625 q -0.01562,0 -0.01562,0 Q 0.54688,0 0.54688,0 L 0.51562,-0.51562 0.21875,0 Q 0.20312,0.015625 0.20312,0.015625 v 0 H 0.1875 q 0,0 -0.01562,-0.015625 0,0 0,0 L 0.14062,-0.60938 Q 0.125,-0.64062 0.125,-0.64062 v 0 0 q -0.01562,-0.01563 -0.046875,-0.01563 -0.015625,0 -0.015625,0 0,-0.03125 0.015625,-0.03125 H 0.17188 v 0 h 0.125 v 0 q 0.01562,0 0.01562,0.01562 0,0.01563 -0.01562,0.01563 -0.07813,0 -0.07813,0.04687 l 0.03125,0.5 0.26562,-0.4375 L 0.5,-0.625 q 0,-0.01562 -0.01562,-0.03125 v 0 q -0.01563,0 -0.03907,0 -0.02343,0 -0.02343,0 0,-0.03125 0.01562,-0.03125 h 0.10938 v 0 h 0.125 v 0 q 0.01562,0 0.01562,0.01562 0,0.01563 -0.01562,0.01563 H 0.65625 q -0.0625,0 -0.0625,0.04687 v 0 l 0.03125,0.5 0.26562,-0.46874 q 0.01563,-0.03126 0.01563,-0.03126 0,-0.04687 -0.0625,-0.04687 0,0 0,0 0,-0.03125 0.01563,-0.03125 h 0.09374 v 0 H 1.0312 v 0 q 0.0157,0 0.0157,0.01562 0,0.01563 -0.0157,0.01563 v 0 q -0.06245,0.01563 -0.0937,0.0625 v 0 0 Q 0.92188,-0.57812 0.92188,-0.5625 Z"
                   id="path10158" />
                <title
                   id="title10160">Quadrilateral W</title>
                <desc
                   id="desc10162">Quadrilateral W: Polygon C_1, D, E, F</desc>
              </g>
              <!-- drawing style -->
            </g>
            <!-- clip2 -->
          </g>
          <g
             transform="matrix(0.16284236,0,0,0.16284236,12.065062,26.162404)"
             clip-path="url(#clip3)"
             id="g10181"
             style="stroke-width:1;stroke-linecap:square;stroke-linejoin:miter;stroke-miterlimit:10;stroke-dasharray:none;stroke-dashoffset:0">
            <g
               style="fill:none;stroke:#000000;stroke-width:6.5;stroke-linecap:round;stroke-linejoin:round;stroke-opacity:0.69803999"
               id="g10179">
              <path
                 inkscape:connector-curvature="0"
                 d="M 236.59,40.333 H 359.81"
                 id="path10173" />
              <title
                 id="title10175">Segment roof</title>
              <desc
                 id="desc10177">Segment roof: Segment A, B</desc>
            </g>
            <!-- drawing style -->
          </g>
          <g
             transform="matrix(0.16284236,0,0,0.16284236,12.065062,26.162404)"
             clip-path="url(#clip4)"
             id="g10194"
             style="stroke-width:1;stroke-linecap:square;stroke-linejoin:miter;stroke-miterlimit:10;stroke-dasharray:none;stroke-dashoffset:0">
            <g
               style="fill:none;stroke:#000000;stroke-width:1.5;stroke-linecap:round;stroke-linejoin:round;stroke-opacity:0.69803999"
               id="g10192">
              <path
                 inkscape:connector-curvature="0"
                 d="m 267.39,132.75 h 61.62"
                 id="path10186" />
              <title
                 id="title10188">Segment c</title>
              <desc
                 id="desc10190">Segment c: Segment C_1, D</desc>
            </g>
            <!-- drawing style -->
          </g>
          <g
             transform="matrix(0.16284236,0,0,0.16284236,12.065062,26.162404)"
             clip-path="url(#clip5)"
             id="g10207"
             style="stroke-width:1;stroke-linecap:square;stroke-linejoin:miter;stroke-miterlimit:10;stroke-dasharray:none;stroke-dashoffset:0">
            <g
               style="fill:none;stroke:#000000;stroke-width:1.5;stroke-linecap:round;stroke-linejoin:round;stroke-opacity:0.69803999"
               id="g10205">
              <path
                 inkscape:connector-curvature="0"
                 d="m 329.01,132.75 30.8,92.42"
                 id="path10199" />
              <title
                 id="title10201">Segment d</title>
              <desc
                 id="desc10203">Segment d: Segment D, E</desc>
            </g>
            <!-- drawing style -->
          </g>
          <g
             transform="matrix(0.16284236,0,0,0.16284236,12.065062,26.162404)"
             clip-path="url(#clip6)"
             id="g10220"
             style="stroke-width:1;stroke-linecap:square;stroke-linejoin:miter;stroke-miterlimit:10;stroke-dasharray:none;stroke-dashoffset:0">
            <g
               style="fill:none;stroke:#000000;stroke-width:1.5;stroke-linecap:round;stroke-linejoin:round;stroke-opacity:0.69803999"
               id="g10218">
              <path
                 inkscape:connector-curvature="0"
                 d="M 359.81,225.17 H 236.59"
                 id="path10212" />
              <title
                 id="title10214">Segment e</title>
              <desc
                 id="desc10216">Segment e: Segment E, F</desc>
            </g>
            <!-- drawing style -->
          </g>
          <g
             transform="matrix(0.16284236,0,0,0.16284236,12.065062,26.162404)"
             clip-path="url(#clip7)"
             id="g10233"
             style="stroke-width:1;stroke-linecap:square;stroke-linejoin:miter;stroke-miterlimit:10;stroke-dasharray:none;stroke-dashoffset:0">
            <g
               style="fill:none;stroke:#000000;stroke-width:1.5;stroke-linecap:round;stroke-linejoin:round;stroke-opacity:0.69803999"
               id="g10231">
              <path
                 inkscape:connector-curvature="0"
                 d="m 236.59,225.17 30.8,-92.42"
                 id="path10225" />
              <title
                 id="title10227">Segment f_1</title>
              <desc
                 id="desc10229">Segment f_1: Segment F, C_1</desc>
            </g>
            <!-- drawing style -->
          </g>
          <g
             transform="matrix(0.16284236,0,0,0.16284236,12.065062,26.162404)"
             clip-path="url(#clip8)"
             id="g10246"
             style="stroke-width:1;stroke-linecap:square;stroke-linejoin:miter;stroke-miterlimit:10;stroke-dasharray:none;stroke-dashoffset:0">
            <g
               style="fill:none;stroke:#000000;stroke-width:2.5;stroke-linecap:round;stroke-linejoin:round;stroke-opacity:0.69803999"
               id="g10244">
              <path
                 inkscape:connector-curvature="0"
                 d="M 298.2,40.333 V 132.75"
                 id="path10238" />
              <title
                 id="title10240">Segment cable</title>
              <desc
                 id="desc10242">Segment cable: Segment G, TOP</desc>
            </g>
            <!-- drawing style -->
          </g>
        </g>
        <g
           style="stroke-width:1;stroke-linecap:square;stroke-linejoin:miter;stroke-miterlimit:10;stroke-dasharray:none;stroke-dashoffset:0"
           id="g10389"
           clip-path="url(#clip19)"
           transform="matrix(0.16284236,0,0,0.16284236,90.620563,21.196309)">
          <g
             id="g10387"
             style="fill:#000000;fill-opacity:1;fill-rule:nonzero;stroke:none">
            <path
               id="path10381"
               d="m 28.418,28.574 q 0.559,1.483 1.311,2.364 1.31,1.536 3.254,1.536 1.053,0 1.821,-0.666 0.768,-0.666 0.768,-1.859 0,-1.074 -0.773,-1.869 -0.505,-0.505 -2.127,-1.515 l -1.88,-1.17 q -0.849,-0.538 -1.354,-1.085 -0.934,-1.042 -0.934,-2.299 0,-1.665 1.106,-2.772 1.107,-1.106 2.933,-1.106 0.752,0 1.81,0.37 1.058,0.371 1.209,0.371 0.408,0 0.563,-0.193 0.156,-0.194 0.242,-0.548 h 0.451 l 0.484,4.683 h -0.527 q -0.537,-2.116 -1.724,-2.954 -1.187,-0.838 -2.347,-0.838 -0.902,0 -1.574,0.532 -0.671,0.532 -0.671,1.477 0,0.849 0.516,1.45 0.515,0.613 1.6,1.279 l 1.934,1.192 q 1.815,1.117 2.556,2.052 0.731,0.945 0.731,2.234 0,1.73 -1.305,2.89 -1.305,1.16 -3.336,1.16 -1.02,0 -2.132,-0.387 -1.112,-0.386 -1.273,-0.386 -0.387,0 -0.521,0.236 -0.134,0.236 -0.177,0.505 h -0.484 l -0.655,-4.684 z m 14.33,2.449 q 0.279,0.731 0.833,1.091 0.553,0.36 1.305,0.36 1.16,0 1.982,-1.155 0.821,-1.155 0.821,-3.217 0,-1.977 -0.854,-2.955 -0.854,-0.977 -1.981,-0.977 -0.795,0 -1.451,0.489 -0.655,0.488 -0.655,0.961 z m -3.416,6.414 q 1.01,-0.065 1.284,-0.43 0.274,-0.365 0.274,-1.15 V 25.545 q 0,-0.816 -0.199,-1.047 -0.199,-0.231 -0.747,-0.231 -0.118,0 -0.22,0.01 -0.102,0.011 -0.295,0.043 v -0.354 l 1.02,-0.333 q 0.054,-0.011 2.159,-0.741 0.054,0 0.081,0.048 0.027,0.048 0.027,0.113 v 1.45 q 0.709,-0.709 1.246,-1.053 0.967,-0.601 1.987,-0.601 1.483,0 2.551,1.262 1.069,1.262 1.069,3.453 0,2.149 -1.283,3.9 -1.284,1.751 -3.228,1.751 -0.602,0 -1.042,-0.151 -0.688,-0.225 -1.268,-0.827 v 3.513 q 0,1.085 0.355,1.332 0.354,0.247 1.546,0.333 v 0.376 H 39.332 Z M 56.541,27.049 q -1.235,0.408 -2.041,0.902 -1.547,0.956 -1.547,2.17 0,0.978 0.645,1.44 0.419,0.3 0.934,0.3 0.709,0 1.359,-0.397 0.65,-0.398 0.65,-1.01 z m -5.5,3.813 q 0,-1.557 1.558,-2.599 0.988,-0.645 3.942,-1.751 v -0.913 q 0,-1.096 -0.215,-1.526 -0.365,-0.719 -1.514,-0.719 -0.548,0 -1.042,0.279 -0.495,0.29 -0.495,0.795 0,0.129 0.054,0.435 0.054,0.306 0.054,0.392 0,0.601 -0.398,0.838 -0.225,0.139 -0.537,0.139 -0.483,0 -0.741,-0.316 -0.258,-0.317 -0.258,-0.704 0,-0.752 0.929,-1.574 0.93,-0.822 2.724,-0.822 2.084,0 2.825,1.354 0.397,0.741 0.397,2.159 v 4.308 q 0,0.623 0.086,0.859 0.14,0.419 0.58,0.419 0.247,0 0.408,-0.075 0.162,-0.075 0.559,-0.365 v 0.558 q -0.344,0.419 -0.741,0.688 -0.602,0.408 -1.225,0.408 -0.73,0 -1.058,-0.473 -0.328,-0.472 -0.36,-1.128 -0.816,0.709 -1.396,1.053 -0.978,0.58 -1.859,0.58 -0.923,0 -1.6,-0.65 -0.677,-0.65 -0.677,-1.649 z M 65.468,22.87 q 1.343,0 2.315,0.693 0.972,0.693 0.972,1.52 0,0.355 -0.247,0.661 -0.247,0.306 -0.763,0.306 -0.376,0 -0.661,-0.258 Q 66.8,25.534 66.671,25.04 l -0.129,-0.516 q -0.14,-0.569 -0.483,-0.805 -0.355,-0.226 -0.935,-0.226 -1.225,0 -2.068,1.069 -0.843,1.069 -0.843,2.841 0,1.622 0.929,2.911 0.929,1.29 2.508,1.29 1.118,0 1.988,-0.731 0.494,-0.419 1.117,-1.332 l 0.301,0.183 q -0.613,1.289 -1.289,2.041 -1.3,1.439 -3.008,1.439 -1.676,0 -2.965,-1.321 -1.289,-1.321 -1.289,-3.588 0,-2.224 1.407,-3.824 1.407,-1.601 3.556,-1.601 z m 9.335,0.054 q 1.514,0 2.653,1.047 1.139,1.048 1.139,2.97 h -6.822 q 0.108,2.493 1.128,3.631 1.021,1.139 2.417,1.139 1.128,0 1.902,-0.591 0.773,-0.591 1.428,-1.676 l 0.376,0.129 q -0.44,1.365 -1.649,2.525 -1.208,1.16 -2.959,1.16 -2.02,0 -3.121,-1.526 -1.101,-1.525 -1.101,-3.512 0,-2.159 1.279,-3.728 1.278,-1.568 3.33,-1.568 z m -0.623,0.784 q -1.225,0 -1.869,1.085 -0.344,0.58 -0.495,1.461 H 76.35 Q 76.231,25.18 75.941,24.653 75.415,23.708 74.18,23.708 Z m 15.372,7.595 q 0,0.537 0.263,0.709 0.263,0.172 1.09,0.172 2.578,0 4.243,-1.021 2.557,-1.568 2.557,-5.36 0,-3.384 -2.105,-5.092 -1.805,-1.461 -4.781,-1.461 -0.741,0 -1.004,0.161 -0.263,0.161 -0.263,0.709 z m -4.168,1.3 q 1.203,-0.129 1.568,-0.436 0.365,-0.306 0.365,-1.552 v -9.786 q 0,-1.203 -0.354,-1.547 -0.355,-0.344 -1.579,-0.429 v -0.409 h 5.929 q 2.998,0 5.071,0.989 3.736,1.772 3.736,6.338 0,1.643 -0.669,3.125 -0.672,1.483 -2.025,2.503 -0.86,0.645 -1.783,0.978 Q 93.956,33 91.496,33 H 85.384 Z M 102.72,19.132 q 0,-0.462 0.32,-0.795 0.33,-0.333 0.8,-0.333 0.46,0 0.79,0.328 0.33,0.327 0.33,0.8 0,0.462 -0.33,0.789 -0.33,0.328 -0.79,0.328 -0.47,0 -0.8,-0.328 -0.32,-0.327 -0.32,-0.789 z m -1.37,13.567 q 1.15,-0.107 1.45,-0.392 0.3,-0.285 0.3,-1.541 v -5.124 q 0,-0.699 -0.1,-0.967 -0.16,-0.441 -0.68,-0.441 -0.11,0 -0.23,0.022 -0.11,0.021 -0.65,0.172 v -0.333 l 0.47,-0.151 q 1.88,-0.612 2.62,-0.923 0.3,-0.129 0.38,-0.129 0.02,0.075 0.02,0.161 v 7.713 q 0,1.224 0.3,1.536 0.3,0.311 1.34,0.397 V 33 h -5.22 z m 11.98,-5.65 q -1.23,0.408 -2.04,0.902 -1.54,0.956 -1.54,2.17 0,0.978 0.64,1.44 0.42,0.3 0.94,0.3 0.71,0 1.36,-0.397 0.64,-0.398 0.64,-1.01 z m -5.5,3.813 q 0,-1.557 1.56,-2.599 0.99,-0.645 3.94,-1.751 v -0.913 q 0,-1.096 -0.21,-1.526 -0.37,-0.719 -1.51,-0.719 -0.55,0 -1.05,0.279 -0.49,0.29 -0.49,0.795 0,0.129 0.05,0.435 0.06,0.306 0.06,0.392 0,0.601 -0.4,0.838 -0.23,0.139 -0.54,0.139 -0.48,0 -0.74,-0.316 -0.26,-0.317 -0.26,-0.704 0,-0.752 0.93,-1.574 0.93,-0.822 2.73,-0.822 2.08,0 2.82,1.354 0.4,0.741 0.4,2.159 v 4.308 q 0,0.623 0.08,0.859 0.14,0.419 0.58,0.419 0.25,0 0.41,-0.075 0.16,-0.075 0.56,-0.365 v 0.558 q -0.34,0.419 -0.74,0.688 -0.6,0.408 -1.22,0.408 -0.74,0 -1.06,-0.473 -0.33,-0.472 -0.36,-1.128 -0.82,0.709 -1.4,1.053 -0.98,0.58 -1.86,0.58 -0.92,0 -1.6,-0.65 -0.68,-0.65 -0.68,-1.649 z m 11.12,4.125 q 0,0.903 1.02,1.246 1.01,0.344 2.32,0.344 1.79,0 2.9,-0.618 1.12,-0.617 1.12,-1.52 0,-0.719 -0.9,-0.956 -0.56,-0.139 -2.12,-0.161 -0.39,-0.01 -0.83,-0.027 -0.45,-0.016 -0.81,-0.037 -0.24,-0.011 -0.76,-0.086 -0.53,-0.075 -0.79,-0.129 -0.13,0 -0.63,0.677 -0.52,0.687 -0.52,1.267 z m 1.4,-5.596 q -0.98,-0.323 -1.52,-1.15 -0.54,-0.827 -0.54,-1.858 0,-1.257 1,-2.385 1,-1.128 2.82,-1.128 0.79,0 1.73,0.371 0.95,0.37 1.82,0.37 0.22,0 0.68,-0.016 0.45,-0.016 0.66,-0.016 h 0.13 v 0.87 h -1.86 q 0.19,0.451 0.3,0.784 0.18,0.623 0.18,1.182 0,1.225 -1.01,2.251 -1.02,1.025 -2.74,1.025 -0.26,0 -0.96,-0.096 -0.31,0 -0.82,0.526 -0.51,0.526 -0.51,0.859 0,0.344 0.75,0.505 0.49,0.108 1.09,0.108 2.76,0 3.75,0.311 1.62,0.505 1.62,2.17 0,1.697 -1.89,2.707 -1.9,1.01 -3.83,1.01 -1.76,0 -2.79,-0.714 -1.04,-0.715 -1.04,-1.499 0,-0.387 0.28,-0.757 0.27,-0.371 1.08,-1.101 l 0.71,-0.634 0.13,-0.129 q -0.5,-0.193 -0.75,-0.376 -0.43,-0.333 -0.43,-0.763 0,-0.397 0.38,-0.875 0.37,-0.478 1.58,-1.552 z m 2.04,-0.215 q 0.59,0 0.99,-0.322 0.64,-0.516 0.64,-1.794 0,-1.021 -0.52,-2.299 -0.52,-1.279 -1.73,-1.279 -1.06,0 -1.45,0.999 -0.21,0.527 -0.21,1.3 0,1.311 0.64,2.353 0.63,1.042 1.64,1.042 z m 5.5,3.47 q 0.99,-0.086 1.31,-0.35 0.32,-0.263 0.32,-1.122 v -4.845 q 0,-1.063 -0.2,-1.52 -0.19,-0.456 -0.72,-0.456 -0.11,0 -0.29,0.026 -0.17,0.027 -0.37,0.07 v -0.354 q 0.62,-0.215 1.26,-0.441 0.65,-0.225 0.89,-0.322 0.54,-0.204 1.11,-0.462 0.07,0 0.09,0.054 0.02,0.054 0.02,0.225 v 1.762 q 0.68,-0.956 1.32,-1.493 0.64,-0.537 1.33,-0.537 0.55,0 0.89,0.327 0.35,0.328 0.35,0.822 0,0.441 -0.27,0.741 -0.26,0.301 -0.66,0.301 -0.41,0 -0.82,-0.376 -0.41,-0.376 -0.65,-0.376 -0.38,0 -0.92,0.607 -0.55,0.607 -0.55,1.252 v 4.844 q 0,0.924 0.43,1.284 0.43,0.36 1.43,0.339 V 33 h -5.3 z m 13.54,-5.597 q -1.24,0.408 -2.05,0.902 -1.54,0.956 -1.54,2.17 0,0.978 0.64,1.44 0.42,0.3 0.94,0.3 0.71,0 1.36,-0.397 0.65,-0.398 0.65,-1.01 z m -5.5,3.813 q 0,-1.557 1.55,-2.599 0.99,-0.645 3.95,-1.751 v -0.913 q 0,-1.096 -0.22,-1.526 -0.36,-0.719 -1.51,-0.719 -0.55,0 -1.05,0.279 -0.49,0.29 -0.49,0.795 0,0.129 0.05,0.435 0.06,0.306 0.06,0.392 0,0.601 -0.4,0.838 -0.23,0.139 -0.54,0.139 -0.48,0 -0.74,-0.316 -0.26,-0.317 -0.26,-0.704 0,-0.752 0.93,-1.574 0.93,-0.822 2.73,-0.822 2.08,0 2.82,1.354 0.4,0.741 0.4,2.159 v 4.308 q 0,0.623 0.08,0.859 0.14,0.419 0.59,0.419 0.24,0 0.4,-0.075 0.16,-0.075 0.56,-0.365 v 0.558 q -0.34,0.419 -0.74,0.688 -0.6,0.408 -1.22,0.408 -0.73,0 -1.06,-0.473 -0.33,-0.472 -0.36,-1.128 -0.82,0.709 -1.4,1.053 -0.98,0.58 -1.86,0.58 -0.92,0 -1.6,-0.65 -0.67,-0.65 -0.67,-1.649 z m 9.31,1.859 q 0.84,-0.075 1.12,-0.28 0.43,-0.311 0.43,-1.246 v -5.553 q 0,-0.795 -0.21,-1.042 -0.21,-0.247 -0.7,-0.247 -0.22,0 -0.33,0.021 -0.12,0.022 -0.27,0.075 v -0.376 l 0.78,-0.258 q 0.41,-0.139 1.37,-0.504 0.96,-0.366 1.01,-0.366 0.05,0 0.06,0.054 0.02,0.054 0.02,0.204 v 1.45 q 1.06,-0.966 1.83,-1.337 0.78,-0.371 1.59,-0.371 1.11,0 1.76,0.752 0.35,0.408 0.57,1.107 0.8,-0.806 1.39,-1.193 1.02,-0.666 2.08,-0.666 1.73,0 2.31,1.408 0.34,0.794 0.34,2.513 v 4.458 q 0,0.763 0.33,1.037 0.34,0.274 1.22,0.36 V 33 h -4.84 v -0.301 q 0.93,-0.086 1.23,-0.376 0.29,-0.29 0.29,-1.181 v -4.63 q 0,-1.042 -0.22,-1.536 -0.4,-0.881 -1.56,-0.881 -0.7,0 -1.38,0.462 -0.4,0.268 -0.98,0.859 v 5.5 q 0,0.87 0.3,1.321 0.31,0.451 1.3,0.484 V 33 h -4.93 v -0.279 q 1.02,-0.129 1.3,-0.494 0.28,-0.366 0.28,-1.794 v -3.008 q 0,-1.654 -0.22,-2.278 -0.35,-1.052 -1.5,-1.052 -0.66,0 -1.29,0.36 -0.64,0.359 -1.12,0.94 v 5.876 q 0,0.816 0.29,1.127 0.28,0.312 1.24,0.323 V 33 h -4.89 z"
               inkscape:connector-curvature="0" />
            <title
               id="title10383">Space Diagram</title>
            <desc
               id="desc10385">text1 = “Space Diagram”</desc>
          </g>
          <!-- drawing style -->
        </g>
      </g>
      <g
         transform="translate(3.8490631,-0.87146495)"
         id="g13555">
        <g
           id="g13467"
           transform="translate(-7.7802268)">
          <g
             transform="matrix(0.16284236,0,0,0.16284236,65.243352,24.588207)"
             id="g11454"
             style="fill:#000000;fill-opacity:0.21961;fill-rule:evenodd;stroke:none;stroke-width:1;stroke-linecap:square;stroke-linejoin:miter;stroke-miterlimit:10;stroke-dasharray:none;stroke-dashoffset:0">
            <path
               id="path11448"
               d="m 267.39,132.75 h 61.62 l 30.8,92.42 H 236.59 Z"
               inkscape:connector-curvature="0" />
            <title
               id="title11450">Quadrilateral W</title>
            <desc
               id="desc11452">Quadrilateral W: Polygon C_1, D, E, F</desc>
          </g>
          <g
             transform="matrix(0.16284236,0,0,0.16284236,65.243352,24.588207)"
             clip-path="url(#clip2)"
             id="g11469"
             style="stroke-width:1;stroke-linecap:square;stroke-linejoin:miter;stroke-miterlimit:10;stroke-dasharray:none;stroke-dashoffset:0">
            <g
               style="fill:none;stroke:#000000;stroke-width:1.5;stroke-linecap:round;stroke-linejoin:round;stroke-opacity:0.69803999"
               id="g11467">
              <path
                 inkscape:connector-curvature="0"
                 d="m 267.39,132.75 h 61.62"
                 id="path11461" />
              <title
                 id="title11463">Segment c</title>
              <desc
                 id="desc11465">Segment c: Segment C_1, D</desc>
            </g>
            <!-- drawing style -->
          </g>
          <g
             transform="matrix(0.16284236,0,0,0.16284236,65.243352,24.588207)"
             clip-path="url(#clip3)"
             id="g11482"
             style="stroke-width:1;stroke-linecap:square;stroke-linejoin:miter;stroke-miterlimit:10;stroke-dasharray:none;stroke-dashoffset:0">
            <g
               style="fill:none;stroke:#000000;stroke-width:1.5;stroke-linecap:round;stroke-linejoin:round;stroke-opacity:0.69803999"
               id="g11480">
              <path
                 inkscape:connector-curvature="0"
                 d="m 329.01,132.75 30.8,92.42"
                 id="path11474" />
              <title
                 id="title11476">Segment d</title>
              <desc
                 id="desc11478">Segment d: Segment D, E</desc>
            </g>
            <!-- drawing style -->
          </g>
          <g
             transform="matrix(0.16284236,0,0,0.16284236,65.243352,24.588207)"
             clip-path="url(#clip4)"
             id="g11495"
             style="stroke-width:1;stroke-linecap:square;stroke-linejoin:miter;stroke-miterlimit:10;stroke-dasharray:none;stroke-dashoffset:0">
            <g
               style="fill:none;stroke:#000000;stroke-width:1.5;stroke-linecap:round;stroke-linejoin:round;stroke-opacity:0.69803999"
               id="g11493">
              <path
                 inkscape:connector-curvature="0"
                 d="M 359.81,225.17 H 236.59"
                 id="path11487" />
              <title
                 id="title11489">Segment e</title>
              <desc
                 id="desc11491">Segment e: Segment E, F</desc>
            </g>
            <!-- drawing style -->
          </g>
          <g
             transform="matrix(0.16284236,0,0,0.16284236,65.243352,24.588207)"
             clip-path="url(#clip5)"
             id="g11508"
             style="stroke-width:1;stroke-linecap:square;stroke-linejoin:miter;stroke-miterlimit:10;stroke-dasharray:none;stroke-dashoffset:0">
            <g
               style="fill:none;stroke:#000000;stroke-width:1.5;stroke-linecap:round;stroke-linejoin:round;stroke-opacity:0.69803999"
               id="g11506">
              <path
                 inkscape:connector-curvature="0"
                 d="m 236.59,225.17 30.8,-92.42"
                 id="path11500" />
              <title
                 id="title11502">Segment f_1</title>
              <desc
                 id="desc11504">Segment f_1: Segment F, C_1</desc>
            </g>
            <!-- drawing style -->
          </g>
          <g
             transform="matrix(0.16284236,0,0,0.16284236,65.243352,24.588207)"
             clip-path="url(#clip6)"
             id="g11521"
             style="stroke-width:1;stroke-linecap:square;stroke-linejoin:miter;stroke-miterlimit:10;stroke-dasharray:none;stroke-dashoffset:0">
            <g
               style="fill:none;stroke:#ff0000;stroke-width:3.5;stroke-linecap:round;stroke-linejoin:round;stroke-opacity:0.69803999"
               id="g11519">
              <path
                 inkscape:connector-curvature="0"
                 d="M 298.2,132.75 V 59.333"
                 id="path11513" />
              <title
                 id="title11515">Vector t</title>
              <desc
                 id="desc11517">Vector t: Vector(TOP, TOP + j)</desc>
            </g>
            <!-- drawing style -->
          </g>
          <g
             transform="matrix(0.16284236,0,0,0.16284236,65.243352,24.588207)"
             clip-path="url(#clip7)"
             id="g11534"
             style="stroke-width:1;stroke-linecap:square;stroke-linejoin:miter;stroke-miterlimit:10;stroke-dasharray:none;stroke-dashoffset:0">
            <g
               style="fill:#ff0000;fill-opacity:0.69803999;fill-rule:evenodd;stroke:none"
               id="g11532">
              <path
                 inkscape:connector-curvature="0"
                 d="m 298.2,40.333 4.75,19 h -9.5 z"
                 id="path11526" />
              <title
                 id="title11528">Vector t</title>
              <desc
                 id="desc11530">Vector t: Vector(TOP, TOP + j)</desc>
            </g>
            <!-- drawing style -->
          </g>
          <g
             transform="matrix(3.0940048,0,0,3.0940048,115.56164,36.147246)"
             id="g11549"
             style="stroke-width:1;stroke-linecap:square;stroke-linejoin:miter;stroke-miterlimit:10;stroke-dasharray:none;stroke-dashoffset:0">
            <clipPath
               id="clipa7025e3c-feaf-43fd-8cdd-628ce60a5056">
              <path
                 inkscape:connector-curvature="0"
                 d="M -16.263,-3.736 V 12.211 H 5.7895 V -3.736 Z"
                 id="path11536" />
            </clipPath>
            <g
               clip-path="url(#clip8)"
               id="g11547">
              <g
                 style="fill:#ff0000;fill-opacity:1;fill-rule:nonzero;stroke:none"
                 id="g11545">
                <path
                   inkscape:connector-curvature="0"
                   d="m 0.42188,-0.60938 -0.125,0.531255 q 0,0.015625 0,0.015625 0,0.015625 0.01562,0.03125 v 0 q 0,0 0.01562,0 0.03126,0 0.0625,0 0.03126,0 0.03126,0 0,0.015625 0,0.015625 Q 0.42188,0 0.40625,0 H 0.3125 V 0 H 0.23438 V 0 H 0.15625 0.14062 0.0625 v 0 q -0.015625,0 -0.015625,-0.015625 0,-0.015625 0.015625,-0.015625 0,0 0.03125,0 0.09375,0 0.10937,-0.015625 0,0 0,-0.015625 0,0 0,-0.015625 v 0 0 0 q 0,0 0,0 L 0.34375,-0.60938 q 0,-0.01562 0,-0.02343 0,-0.00781 0,-0.00781 -0.01563,0 -0.03125,0 H 0.28125 q -0.10937,0 -0.14063,0.01562 -0.01562,0.01562 -0.03124,0.03125 v 0.01563 0 H 0.09375 q -0.015625,0.03124 -0.046875,0.10937 0,0.01563 0,0.01563 -0.015625,0 -0.015625,0 0,0 0,-0.01563 0,0 0,-0.01563 l 0.0625,-0.17187 q 0,-0.01563 0.01563,-0.01563 0,0 0.01562,0 h 0.54688 q 0.03124,0 0.03124,0 0,0.01563 0,0.01563 l -0.03124,0.1875 q 0,0.01563 -0.01563,0.01563 -0.01563,0 -0.01563,-0.01563 0,0 0.01563,-0.01563 0,-0.04687 0,-0.07812 0,-0.0625 -0.03125,-0.07812 -0.03125,0 -0.10938,0 -0.0625,0 -0.0625,0 -0.01562,0 -0.01562,0.01562 v 0 q -0.01562,0.01562 -0.01562,0.01562 z"
                   id="path11539" />
                <title
                   id="title11541">Vector t</title>
                <desc
                   id="desc11543">Vector t: Vector(TOP, TOP + j)</desc>
              </g>
              <!-- drawing style -->
            </g>
            <!-- clip8 -->
          </g>
          <g
             transform="matrix(0.16284236,0,0,0.16284236,65.243352,24.588207)"
             clip-path="url(#clip9)"
             id="g11562"
             style="stroke-width:1;stroke-linecap:square;stroke-linejoin:miter;stroke-miterlimit:10;stroke-dasharray:none;stroke-dashoffset:0">
            <g
               style="fill:none;stroke:#0000ff;stroke-width:3.5;stroke-linecap:round;stroke-linejoin:round;stroke-opacity:0.69803999"
               id="g11560">
              <path
                 inkscape:connector-curvature="0"
                 d="m 298.2,184.09 v 73.42"
                 id="path11554" />
              <title
                 id="title11556">Vector w</title>
              <desc
                 id="desc11558">Vector w: Vector(CG, CG - j)</desc>
            </g>
            <!-- drawing style -->
          </g>
          <g
             transform="matrix(0.16284236,0,0,0.16284236,65.243352,24.588207)"
             clip-path="url(#clip10)"
             id="g11575"
             style="stroke-width:1;stroke-linecap:square;stroke-linejoin:miter;stroke-miterlimit:10;stroke-dasharray:none;stroke-dashoffset:0">
            <g
               style="fill:#0000ff;fill-opacity:0.69803999;fill-rule:evenodd;stroke:none"
               id="g11573">
              <path
                 inkscape:connector-curvature="0"
                 d="m 298.2,276.51 -4.75,-19 h 9.5 z"
                 id="path11567" />
              <title
                 id="title11569">Vector w</title>
              <desc
                 id="desc11571">Vector w: Vector(CG, CG - j)</desc>
            </g>
            <!-- drawing style -->
          </g>
          <g
             transform="matrix(3.0940048,0,0,3.0940048,116.21301,67.575333)"
             id="g11590"
             style="stroke-width:1;stroke-linecap:square;stroke-linejoin:miter;stroke-miterlimit:10;stroke-dasharray:none;stroke-dashoffset:0">
            <clipPath
               id="clipe9393e70-4ec2-4ecc-aea3-6a9e76e90434">
              <path
                 inkscape:connector-curvature="0"
                 d="M -16.474,-13.894 V 2.0535 H 5.5789 V -13.894 Z"
                 id="path11577" />
            </clipPath>
            <g
               clip-path="url(#clip11)"
               id="g11588">
              <g
                 style="fill:#0000ff;fill-opacity:1;fill-rule:nonzero;stroke:none"
                 id="g11586">
                <path
                   inkscape:connector-curvature="0"
                   d="M 0.92188,-0.5625 0.59375,0 Q 0.57812,0.015625 0.5625,0.015625 q -0.01562,0 -0.01562,0 Q 0.54688,0 0.54688,0 L 0.51562,-0.51562 0.21875,0 Q 0.20312,0.015625 0.20312,0.015625 v 0 H 0.1875 q 0,0 -0.01562,-0.015625 0,0 0,0 L 0.14062,-0.60938 Q 0.125,-0.64062 0.125,-0.64062 v 0 0 q -0.01562,-0.01563 -0.046875,-0.01563 -0.015625,0 -0.015625,0 0,-0.03125 0.015625,-0.03125 H 0.17188 v 0 h 0.125 v 0 q 0.01562,0 0.01562,0.01562 0,0.01563 -0.01562,0.01563 -0.07813,0 -0.07813,0.04687 l 0.03125,0.5 0.26562,-0.4375 L 0.5,-0.625 q 0,-0.01562 -0.01562,-0.03125 v 0 q -0.01563,0 -0.03907,0 -0.02343,0 -0.02343,0 0,-0.03125 0.01562,-0.03125 h 0.10938 v 0 h 0.125 v 0 q 0.01562,0 0.01562,0.01562 0,0.01563 -0.01562,0.01563 H 0.65625 q -0.0625,0 -0.0625,0.04687 v 0 l 0.03125,0.5 0.26562,-0.46874 q 0.01563,-0.03126 0.01563,-0.03126 0,-0.04687 -0.0625,-0.04687 0,0 0,0 0,-0.03125 0.01563,-0.03125 h 0.09374 v 0 H 1.0312 v 0 q 0.0157,0 0.0157,0.01562 0,0.01563 -0.0157,0.01563 v 0 q -0.06245,0.01563 -0.0937,0.0625 v 0 0 Q 0.92188,-0.57812 0.92188,-0.5625 Z"
                   id="path11580" />
                <title
                   id="title11582">Vector w</title>
                <desc
                   id="desc11584">Vector w: Vector(CG, CG - j)</desc>
              </g>
              <!-- drawing style -->
            </g>
            <!-- clip11 -->
          </g>
          <g
             transform="matrix(0.16284236,0,0,0.16284236,65.243352,24.588207)"
             clip-path="url(#clip22)"
             id="g11733"
             style="stroke-width:1;stroke-linecap:square;stroke-linejoin:miter;stroke-miterlimit:10;stroke-dasharray:none;stroke-dashoffset:0">
            <g
               style="fill:#000000;fill-opacity:1;fill-rule:nonzero;stroke:none"
               id="g11731">
              <path
                 inkscape:connector-curvature="0"
                 d="m 303.2,132.75 c 0,2.76 -2.24,5 -5,5 -2.76,0 -5,-2.24 -5,-5 0,-2.76 2.24,-5 5,-5 2.76,0 5,2.24 5,5 z"
                 id="path11725" />
              <title
                 id="title11727">Point TOP</title>
              <desc
                 id="desc11729">Point TOP: Point on c</desc>
            </g>
            <!-- drawing style -->
          </g>
          <g
             transform="matrix(0.16284236,0,0,0.16284236,65.243352,24.588207)"
             clip-path="url(#clip23)"
             id="g11746"
             style="stroke-width:1;stroke-linecap:square;stroke-linejoin:miter;stroke-miterlimit:10;stroke-dasharray:none;stroke-dashoffset:0">
            <g
               style="fill:none;stroke:#000000;stroke-linecap:round;stroke-linejoin:round;stroke-opacity:1"
               id="g11744">
              <path
                 inkscape:connector-curvature="0"
                 d="m 303.2,132.75 c 0,2.76 -2.24,5 -5,5 -2.76,0 -5,-2.24 -5,-5 0,-2.76 2.24,-5 5,-5 2.76,0 5,2.24 5,5 z"
                 id="path11738" />
              <title
                 id="title11740">Point TOP</title>
              <desc
                 id="desc11742">Point TOP: Point on c</desc>
            </g>
            <!-- drawing style -->
          </g>
          <g
             transform="matrix(0.16284236,0,0,0.16284236,65.243352,24.588207)"
             clip-path="url(#clip24)"
             id="g11759"
             style="stroke-width:1;stroke-linecap:square;stroke-linejoin:miter;stroke-miterlimit:10;stroke-dasharray:none;stroke-dashoffset:0">
            <g
               style="fill:#000000;fill-opacity:1;fill-rule:nonzero;stroke:none"
               id="g11757">
              <path
                 inkscape:connector-curvature="0"
                 d="m 303.2,184.09 c 0,2.77 -2.24,5 -5,5 -2.76,0 -5,-2.23 -5,-5 0,-2.76 2.24,-5 5,-5 2.76,0 5,2.24 5,5 z"
                 id="path11751" />
              <title
                 id="title11753">Point CG</title>
              <desc
                 id="desc11755">Point CG: Centroid of W</desc>
            </g>
            <!-- drawing style -->
          </g>
          <g
             transform="matrix(0.16284236,0,0,0.16284236,65.243352,24.588207)"
             clip-path="url(#clip25)"
             id="g11772"
             style="stroke-width:1;stroke-linecap:square;stroke-linejoin:miter;stroke-miterlimit:10;stroke-dasharray:none;stroke-dashoffset:0">
            <g
               style="fill:none;stroke:#000000;stroke-linecap:round;stroke-linejoin:round;stroke-opacity:1"
               id="g11770">
              <path
                 inkscape:connector-curvature="0"
                 d="m 303.2,184.09 c 0,2.77 -2.24,5 -5,5 -2.76,0 -5,-2.23 -5,-5 0,-2.76 2.24,-5 5,-5 2.76,0 5,2.24 5,5 z"
                 id="path11764" />
              <title
                 id="title11766">Point CG</title>
              <desc
                 id="desc11768">Point CG: Centroid of W</desc>
            </g>
            <!-- drawing style -->
          </g>
        </g>
        <g
           style="stroke-width:1;stroke-linecap:square;stroke-linejoin:miter;stroke-miterlimit:10;stroke-dasharray:none;stroke-dashoffset:0"
           id="g11785"
           clip-path="url(#clip26)"
           transform="matrix(0.16284236,0,0,0.16284236,89.757833,19.376451)">
          <g
             id="g11783"
             style="fill:#000000;fill-opacity:1;fill-rule:nonzero;stroke:none">
            <path
               id="path11777"
               d="m 12.66466,39.830085 q 1.3,-0.14 1.617,-0.478 0.317,-0.339 0.317,-1.768 v -9.528 q 0,-1.171 -0.355,-1.531 -0.354,-0.36 -1.579,-0.445 v -0.409 h 11.72 l 0.075,3.159 h -0.612 q -0.226,-1.515 -0.849,-1.918 -0.623,-0.403 -2.46,-0.403 h -3.008 q -0.44,0 -0.564,0.151 -0.123,0.15 -0.123,0.59 v 4.91 h 3.179 q 1.408,0 1.794,-0.419 0.387,-0.419 0.623,-1.698 h 0.516 v 5.092 h -0.516 q -0.247,-1.278 -0.633,-1.692 -0.387,-0.413 -1.784,-0.413 h -3.179 v 4.812 q 0,1.214 0.37,1.552 0.371,0.339 1.617,0.436 v 0.397 h -6.166 z m 12.085,0.043 q 0.988,-0.086 1.311,-0.35 0.322,-0.263 0.322,-1.122 v -4.845 q 0,-1.063 -0.199,-1.52 -0.199,-0.456 -0.725,-0.456 -0.107,0 -0.285,0.026 -0.177,0.027 -0.37,0.07 v -0.354 q 0.612,-0.215 1.257,-0.441 0.644,-0.225 0.891,-0.322 0.537,-0.204 1.107,-0.462 0.075,0 0.091,0.054 0.016,0.054 0.016,0.225 v 1.762 q 0.688,-0.956 1.327,-1.493 0.639,-0.537 1.326,-0.537 0.548,0 0.892,0.327 0.344,0.328 0.344,0.822 0,0.441 -0.263,0.741 -0.264,0.301 -0.661,0.301 -0.408,0 -0.822,-0.376 -0.413,-0.376 -0.65,-0.376 -0.376,0 -0.924,0.607 -0.547,0.607 -0.547,1.252 v 4.844 q 0,0.924 0.429,1.284 0.43,0.36 1.429,0.339 v 0.354 h -5.296 z m 12.268,-9.722 q 1.514,0 2.653,1.047 1.139,1.048 1.139,2.97 h -6.822 q 0.108,2.493 1.128,3.631 1.021,1.139 2.417,1.139 1.128,0 1.902,-0.591 0.773,-0.591 1.428,-1.676 l 0.376,0.129 q -0.44,1.365 -1.649,2.525 -1.208,1.16 -2.959,1.16 -2.02,0 -3.121,-1.526 -1.101,-1.525 -1.101,-3.512 0,-2.159 1.279,-3.728 1.278,-1.568 3.33,-1.568 z m -0.623,0.784 q -1.225,0 -1.87,1.085 -0.343,0.58 -0.494,1.461 h 4.533 q -0.118,-1.074 -0.408,-1.601 -0.526,-0.945 -1.761,-0.945 z m 10.387,-0.784 q 1.515,0 2.654,1.047 1.138,1.048 1.138,2.97 h -6.821 q 0.107,2.493 1.128,3.631 1.02,1.139 2.417,1.139 1.128,0 1.901,-0.591 0.774,-0.591 1.429,-1.676 l 0.376,0.129 q -0.44,1.365 -1.649,2.525 -1.208,1.16 -2.959,1.16 -2.02,0 -3.121,-1.526 -1.101,-1.525 -1.101,-3.512 0,-2.159 1.278,-3.728 1.278,-1.568 3.33,-1.568 z m -0.623,0.784 q -1.224,0 -1.869,1.085 -0.344,0.58 -0.494,1.461 h 4.533 q -0.118,-1.074 -0.408,-1.601 -0.526,-0.945 -1.762,-0.945 z m 17.392,8.497 q 1.686,0 2.825,-0.655 1.139,-0.655 1.139,-2.514 0,-1.848 -1.332,-2.524 -1.332,-0.677 -3.395,-0.677 -0.505,0 -0.639,0 -0.134,0 -0.414,-0.011 v 5.479 q 0,0.569 0.323,0.736 0.322,0.166 1.493,0.166 z m -6.166,0.398 q 1.332,-0.076 1.724,-0.414 0.392,-0.338 0.392,-1.574 v -9.786 q 0,-1.214 -0.392,-1.563 -0.392,-0.349 -1.724,-0.413 v -0.409 h 6.166 q 2.642,0 4.195,0.849 1.552,0.849 1.552,2.922 0,1.557 -1.085,2.363 -0.612,0.462 -1.837,0.763 1.515,0.365 2.589,1.219 1.074,0.854 1.074,2.39 0,2.578 -2.385,3.545 -1.257,0.505 -3.093,0.505 h -7.176 z m 6.445,-7.649 q 1.107,-0.021 1.837,-0.354 1.397,-0.645 1.397,-2.31 0,-1.966 -1.612,-2.653 -0.891,-0.376 -2.707,-0.376 -0.687,0 -0.848,0.118 -0.162,0.118 -0.162,0.644 v 4.963 z m 8.411,3.062 q 0,-2.138 1.359,-3.615 1.359,-1.477 3.497,-1.477 2.127,0 3.521,1.396 1.4,1.397 1.4,3.717 0,2.138 -1.35,3.717 -1.358,1.579 -3.507,1.579 -2.062,0 -3.491,-1.515 -1.429,-1.514 -1.429,-3.802 z m 4.555,-4.448 q -0.849,0 -1.472,0.559 -1.074,0.977 -1.074,3.373 0,1.912 0.865,3.566 0.865,1.655 2.401,1.655 1.203,0 1.853,-1.107 0.649,-1.106 0.649,-2.9 0,-1.859 -0.827,-3.502 -0.827,-1.644 -2.395,-1.644 z m 11.092,-0.719 q 0.79,0 1.44,0.343 0.43,0.226 0.83,0.623 v -3.416 q 0,-0.655 -0.14,-0.902 -0.15,-0.247 -0.7,-0.247 -0.13,0 -0.22,0.011 -0.1,0.01 -0.43,0.043 v -0.355 l 0.88,-0.225 q 0.48,-0.129 0.97,-0.269 0.48,-0.14 0.84,-0.268 0.18,-0.054 0.57,-0.205 l 0.07,0.022 -0.02,1.128 q -0.01,0.612 -0.02,1.262 -0.02,0.65 -0.02,1.284 l -0.02,8.776 q 0,0.698 0.17,0.978 0.18,0.279 0.92,0.279 0.12,0 0.23,-0.005 0.12,-0.006 0.24,-0.027 v 0.354 q -0.06,0.022 -1.56,0.537 l -1.68,0.634 -0.08,-0.097 v -1.321 q -0.6,0.655 -1.04,0.935 -0.78,0.483 -1.82,0.483 -1.82,0 -2.96,-1.412 -1.13,-1.413 -1.13,-3.271 0,-2.332 1.36,-4.002 1.36,-1.67 3.32,-1.67 z m 0.4,9.195 q 0.84,0 1.36,-0.494 0.51,-0.494 0.51,-0.935 v -4.608 q 0,-1.397 -0.75,-1.971 -0.74,-0.575 -1.45,-0.575 -1.35,0 -2.11,1.198 -0.75,1.197 -0.75,2.948 0,1.73 0.8,3.083 0.8,1.354 2.39,1.354 z m 5.7,-8.916 h 4.53 v 0.333 q -0.54,0.011 -0.8,0.097 -0.49,0.139 -0.49,0.547 0,0.151 0.05,0.307 0.06,0.155 0.2,0.467 l 2.51,5.575 2.02,-5.618 q 0.03,-0.086 0.1,-0.387 0.07,-0.301 0.07,-0.408 0,-0.279 -0.19,-0.408 -0.19,-0.129 -0.5,-0.151 l -0.33,-0.021 v -0.333 h 2.96 v 0.333 q -0.45,0.054 -0.67,0.301 -0.22,0.247 -0.38,0.687 l -3.38,8.959 q -0.88,2.321 -1.69,3.363 -0.8,1.041 -2.04,1.041 -0.6,0 -1.13,-0.3 -0.52,-0.301 -0.52,-0.956 0,-0.43 0.31,-0.704 0.32,-0.274 0.8,-0.274 0.28,0 0.84,0.204 0.55,0.204 0.79,0.204 0.6,0 1.26,-1.396 0.67,-1.397 0.67,-1.869 0,-0.097 -0.03,-0.237 -0.03,-0.139 -0.08,-0.247 l -3.43,-7.433 q -0.37,-0.795 -0.64,-1.048 -0.28,-0.252 -0.81,-0.327 z m 20.72,8.175 q 0,0.537 0.26,0.709 0.26,0.172 1.09,0.172 2.58,0 4.24,-1.021 2.56,-1.568 2.56,-5.36 0,-3.384 -2.11,-5.092 -1.8,-1.461 -4.78,-1.461 -0.74,0 -1,0.161 -0.26,0.161 -0.26,0.709 z m -4.17,1.3 q 1.2,-0.129 1.57,-0.436 0.36,-0.306 0.36,-1.552 v -9.786 q 0,-1.203 -0.35,-1.547 -0.36,-0.344 -1.58,-0.429 v -0.409 h 5.93 q 3,0 5.07,0.989 3.74,1.772 3.74,6.338 0,1.643 -0.67,3.125 -0.68,1.483 -2.03,2.503 -0.86,0.645 -1.78,0.978 -1.69,0.623 -4.15,0.623 h -6.11 z m 17.34,-13.471 q 0,-0.462 0.32,-0.795 0.32,-0.333 0.79,-0.333 0.47,0 0.79,0.328 0.33,0.327 0.33,0.8 0,0.462 -0.33,0.789 -0.32,0.328 -0.79,0.328 -0.47,0 -0.79,-0.328 -0.32,-0.327 -0.32,-0.789 z m -1.38,13.567 q 1.15,-0.107 1.45,-0.392 0.3,-0.285 0.3,-1.541 v -5.124 q 0,-0.699 -0.09,-0.967 -0.16,-0.441 -0.68,-0.441 -0.12,0 -0.23,0.022 -0.11,0.021 -0.65,0.172 v -0.333 l 0.46,-0.151 q 1.88,-0.612 2.62,-0.923 0.3,-0.129 0.39,-0.129 0.02,0.075 0.02,0.161 v 7.713 q 0,1.224 0.3,1.536 0.29,0.311 1.33,0.397 v 0.301 h -5.22 z m 11.99,-5.65 q -1.24,0.408 -2.04,0.902 -1.55,0.956 -1.55,2.17 0,0.978 0.65,1.44 0.42,0.3 0.93,0.3 0.71,0 1.36,-0.397 0.65,-0.398 0.65,-1.01 z m -5.5,3.813 q 0,-1.557 1.56,-2.599 0.99,-0.645 3.94,-1.751 v -0.913 q 0,-1.096 -0.21,-1.526 -0.37,-0.719 -1.52,-0.719 -0.55,0 -1.04,0.279 -0.5,0.29 -0.5,0.795 0,0.129 0.06,0.435 0.05,0.306 0.05,0.392 0,0.601 -0.4,0.838 -0.22,0.139 -0.53,0.139 -0.49,0 -0.74,-0.316 -0.26,-0.317 -0.26,-0.704 0,-0.752 0.93,-1.574 0.93,-0.822 2.72,-0.822 2.08,0 2.83,1.354 0.39,0.741 0.39,2.159 v 4.308 q 0,0.623 0.09,0.859 0.14,0.419 0.58,0.419 0.25,0 0.41,-0.075 0.16,-0.075 0.56,-0.365 v 0.558 q -0.35,0.419 -0.74,0.688 -0.61,0.408 -1.23,0.408 -0.73,0 -1.06,-0.473 -0.33,-0.472 -0.36,-1.128 -0.81,0.709 -1.39,1.053 -0.98,0.58 -1.86,0.58 -0.93,0 -1.6,-0.65 -0.68,-0.65 -0.68,-1.649 z m 11.12,4.125 q 0,0.903 1.01,1.246 1.02,0.344 2.33,0.344 1.78,0 2.9,-0.618 1.12,-0.617 1.12,-1.52 0,-0.719 -0.91,-0.956 -0.55,-0.139 -2.11,-0.161 -0.4,-0.01 -0.84,-0.027 -0.44,-0.016 -0.81,-0.037 -0.23,-0.011 -0.76,-0.086 -0.52,-0.075 -0.78,-0.129 -0.13,0 -0.64,0.677 -0.51,0.687 -0.51,1.267 z m 1.39,-5.596 q -0.97,-0.323 -1.52,-1.15 -0.54,-0.827 -0.54,-1.858 0,-1.257 1,-2.385 1,-1.128 2.83,-1.128 0.78,0 1.73,0.371 0.94,0.37 1.81,0.37 0.23,0 0.68,-0.016 0.46,-0.016 0.66,-0.016 h 0.13 v 0.87 h -1.86 q 0.2,0.451 0.31,0.784 0.18,0.623 0.18,1.182 0,1.225 -1.02,2.251 -1.01,1.025 -2.73,1.025 -0.27,0 -0.97,-0.096 -0.31,0 -0.82,0.526 -0.51,0.526 -0.51,0.859 0,0.344 0.75,0.505 0.5,0.108 1.1,0.108 2.76,0 3.75,0.311 1.62,0.505 1.62,2.17 0,1.697 -1.9,2.707 -1.89,1.01 -3.83,1.01 -1.76,0 -2.79,-0.714 -1.03,-0.715 -1.03,-1.499 0,-0.387 0.27,-0.757 0.28,-0.371 1.08,-1.101 l 0.71,-0.634 0.13,-0.129 q -0.49,-0.193 -0.74,-0.376 -0.43,-0.333 -0.43,-0.763 0,-0.397 0.37,-0.875 0.37,-0.478 1.58,-1.552 z m 2.05,-0.215 q 0.59,0 0.98,-0.322 0.65,-0.516 0.65,-1.794 0,-1.021 -0.52,-2.299 -0.52,-1.279 -1.74,-1.279 -1.05,0 -1.45,0.999 -0.2,0.527 -0.2,1.3 0,1.311 0.63,2.353 0.64,1.042 1.65,1.042 z m 5.5,3.47 q 0.98,-0.086 1.31,-0.35 0.32,-0.263 0.32,-1.122 v -4.845 q 0,-1.063 -0.2,-1.52 -0.2,-0.456 -0.73,-0.456 -0.1,0 -0.28,0.026 -0.18,0.027 -0.37,0.07 v -0.354 q 0.61,-0.215 1.26,-0.441 0.64,-0.225 0.89,-0.322 0.54,-0.204 1.1,-0.462 0.08,0 0.1,0.054 0.01,0.054 0.01,0.225 v 1.762 q 0.69,-0.956 1.33,-1.493 0.64,-0.537 1.33,-0.537 0.54,0 0.89,0.327 0.34,0.328 0.34,0.822 0,0.441 -0.26,0.741 -0.27,0.301 -0.66,0.301 -0.41,0 -0.82,-0.376 -0.42,-0.376 -0.65,-0.376 -0.38,0 -0.93,0.607 -0.55,0.607 -0.55,1.252 v 4.844 q 0,0.924 0.43,1.284 0.43,0.36 1.43,0.339 v 0.354 h -5.29 z m 13.53,-5.597 q -1.23,0.408 -2.04,0.902 -1.55,0.956 -1.55,2.17 0,0.978 0.65,1.44 0.42,0.3 0.93,0.3 0.71,0 1.36,-0.397 0.65,-0.398 0.65,-1.01 z m -5.5,3.813 q 0,-1.557 1.56,-2.599 0.99,-0.645 3.94,-1.751 v -0.913 q 0,-1.096 -0.21,-1.526 -0.37,-0.719 -1.52,-0.719 -0.55,0 -1.04,0.279 -0.49,0.29 -0.49,0.795 0,0.129 0.05,0.435 0.05,0.306 0.05,0.392 0,0.601 -0.39,0.838 -0.23,0.139 -0.54,0.139 -0.49,0 -0.74,-0.316 -0.26,-0.317 -0.26,-0.704 0,-0.752 0.93,-1.574 0.93,-0.822 2.72,-0.822 2.09,0 2.83,1.354 0.39,0.741 0.39,2.159 v 4.308 q 0,0.623 0.09,0.859 0.14,0.419 0.58,0.419 0.25,0 0.41,-0.075 0.16,-0.075 0.56,-0.365 v 0.558 q -0.35,0.419 -0.74,0.688 -0.61,0.408 -1.23,0.408 -0.73,0 -1.06,-0.473 -0.32,-0.472 -0.36,-1.128 -0.81,0.709 -1.39,1.053 -0.98,0.58 -1.86,0.58 -0.93,0 -1.6,-0.65 -0.68,-0.65 -0.68,-1.649 z m 9.31,1.859 q 0.84,-0.075 1.12,-0.28 0.43,-0.311 0.43,-1.246 v -5.553 q 0,-0.795 -0.21,-1.042 -0.21,-0.247 -0.69,-0.247 -0.23,0 -0.34,0.021 -0.11,0.022 -0.26,0.075 v -0.376 l 0.77,-0.258 q 0.42,-0.139 1.38,-0.504 0.95,-0.366 1.01,-0.366 0.05,0 0.06,0.054 0.01,0.054 0.01,0.204 v 1.45 q 1.06,-0.966 1.84,-1.337 0.77,-0.371 1.59,-0.371 1.1,0 1.76,0.752 0.34,0.408 0.57,1.107 0.79,-0.806 1.38,-1.193 1.03,-0.666 2.09,-0.666 1.73,0 2.31,1.408 0.33,0.794 0.33,2.513 v 4.458 q 0,0.763 0.34,1.037 0.34,0.274 1.22,0.36 v 0.279 h -4.85 v -0.301 q 0.94,-0.086 1.23,-0.376 0.3,-0.29 0.3,-1.181 v -4.63 q 0,-1.042 -0.23,-1.536 -0.39,-0.881 -1.55,-0.881 -0.7,0 -1.39,0.462 -0.4,0.268 -0.98,0.859 v 5.5 q 0,0.87 0.31,1.321 0.31,0.451 1.29,0.484 v 0.279 h -4.93 v -0.279 q 1.02,-0.129 1.3,-0.494 0.28,-0.366 0.28,-1.794 v -3.008 q 0,-1.654 -0.21,-2.278 -0.36,-1.052 -1.51,-1.052 -0.65,0 -1.29,0.36 -0.63,0.359 -1.11,0.94 v 5.876 q 0,0.816 0.28,1.127 0.29,0.312 1.24,0.323 v 0.279 h -4.89 z"
               inkscape:connector-curvature="0" />
            <title
               id="title11779">Free Body Diagram</title>
            <desc
               id="desc11781">text2 = “Free Body Diagram”</desc>
          </g>
          <!-- drawing style -->
        </g>
      </g>
      <g
         transform="translate(0,-0.8714653)"
         id="g13760">
        <g
           id="g13340"
           transform="translate(-2.979028,4.5119858)">
          <g
             transform="matrix(0.16284236,0,0,0.16284236,96.489544,25.075106)"
             clip-path="url(#clip1)"
             id="g11999"
             style="stroke-width:1;stroke-linecap:square;stroke-linejoin:miter;stroke-miterlimit:10;stroke-dasharray:none;stroke-dashoffset:0">
            <g
               style="fill:none;stroke:#ff0000;stroke-width:3.5;stroke-linecap:round;stroke-linejoin:round;stroke-opacity:0.69803999"
               id="g11997">
              <path
                 inkscape:connector-curvature="0"
                 d="M 298.2,132.75 V 59.333"
                 id="path11991" />
              <title
                 id="title11993">Vector t</title>
              <desc
                 id="desc11995">Vector t: Vector(TOP, TOP + j)</desc>
            </g>
            <!-- drawing style -->
          </g>
          <g
             transform="matrix(0.16284236,0,0,0.16284236,96.489544,25.075106)"
             clip-path="url(#clip2)"
             id="g12012"
             style="stroke-width:1;stroke-linecap:square;stroke-linejoin:miter;stroke-miterlimit:10;stroke-dasharray:none;stroke-dashoffset:0">
            <g
               style="fill:#ff0000;fill-opacity:0.69803999;fill-rule:evenodd;stroke:none"
               id="g12010">
              <path
                 inkscape:connector-curvature="0"
                 d="m 298.2,40.333 4.75,19 h -9.5 z"
                 id="path12004" />
              <title
                 id="title12006">Vector t</title>
              <desc
                 id="desc12008">Vector t: Vector(TOP, TOP + j)</desc>
            </g>
            <!-- drawing style -->
          </g>
          <g
             transform="matrix(3.0940048,0,0,3.0940048,146.80783,36.634145)"
             id="g12027"
             style="stroke-width:1;stroke-linecap:square;stroke-linejoin:miter;stroke-miterlimit:10;stroke-dasharray:none;stroke-dashoffset:0">
            <clipPath
               id="clipadcef544-b699-4dfc-9dd9-1825e4c1b4b2">
              <path
                 inkscape:connector-curvature="0"
                 d="M -16.263,-3.736 V 12.211 H 5.7895 V -3.736 Z"
                 id="path12014" />
            </clipPath>
            <g
               clip-path="url(#clip3)"
               id="g12025">
              <g
                 style="fill:#ff0000;fill-opacity:1;fill-rule:nonzero;stroke:none"
                 id="g12023">
                <path
                   inkscape:connector-curvature="0"
                   d="m 0.42188,-0.60938 -0.125,0.531255 q 0,0.015625 0,0.015625 0,0.015625 0.01562,0.03125 v 0 q 0,0 0.01562,0 0.03126,0 0.0625,0 0.03126,0 0.03126,0 0,0.015625 0,0.015625 Q 0.42188,0 0.40625,0 H 0.3125 V 0 H 0.23438 V 0 H 0.15625 0.14062 0.0625 v 0 q -0.015625,0 -0.015625,-0.015625 0,-0.015625 0.015625,-0.015625 0,0 0.03125,0 0.09375,0 0.10937,-0.015625 0,0 0,-0.015625 0,0 0,-0.015625 v 0 0 0 q 0,0 0,0 L 0.34375,-0.60938 q 0,-0.01562 0,-0.02343 0,-0.00781 0,-0.00781 -0.01563,0 -0.03125,0 H 0.28125 q -0.10937,0 -0.14063,0.01562 -0.01562,0.01562 -0.03124,0.03125 v 0.01563 0 H 0.09375 q -0.015625,0.03124 -0.046875,0.10937 0,0.01563 0,0.01563 -0.015625,0 -0.015625,0 0,0 0,-0.01563 0,0 0,-0.01563 l 0.0625,-0.17187 q 0,-0.01563 0.01563,-0.01563 0,0 0.01562,0 h 0.54688 q 0.03124,0 0.03124,0 0,0.01563 0,0.01563 l -0.03124,0.1875 q 0,0.01563 -0.01563,0.01563 -0.01563,0 -0.01563,-0.01563 0,0 0.01563,-0.01563 0,-0.04687 0,-0.07812 0,-0.0625 -0.03125,-0.07812 -0.03125,0 -0.10938,0 -0.0625,0 -0.0625,0 -0.01562,0 -0.01562,0.01562 v 0 q -0.01562,0.01562 -0.01562,0.01562 z"
                   id="path12017" />
                <title
                   id="title12019">Vector t</title>
                <desc
                   id="desc12021">Vector t: Vector(TOP, TOP + j)</desc>
              </g>
              <!-- drawing style -->
            </g>
            <!-- clip3 -->
          </g>
          <g
             transform="matrix(0.16284236,0,0,0.16284236,96.489544,25.075106)"
             clip-path="url(#clip4)"
             id="g12040"
             style="stroke-width:1;stroke-linecap:square;stroke-linejoin:miter;stroke-miterlimit:10;stroke-dasharray:none;stroke-dashoffset:0">
            <g
               style="fill:none;stroke:#0000ff;stroke-width:3.5;stroke-linecap:round;stroke-linejoin:round;stroke-opacity:0.69803999"
               id="g12038">
              <path
                 inkscape:connector-curvature="0"
                 d="m 298.2,132.75 v 73.42"
                 id="path12032" />
              <title
                 id="title12034">Vector make_1</title>
              <desc
                 id="desc12036">Vector make_1: Vector(TOP, TOP - j)</desc>
            </g>
            <!-- drawing style -->
          </g>
          <g
             transform="matrix(0.16284236,0,0,0.16284236,96.489544,25.075106)"
             clip-path="url(#clip5)"
             id="g12053"
             style="stroke-width:1;stroke-linecap:square;stroke-linejoin:miter;stroke-miterlimit:10;stroke-dasharray:none;stroke-dashoffset:0">
            <g
               style="fill:#0000ff;fill-opacity:0.69803999;fill-rule:evenodd;stroke:none"
               id="g12051">
              <path
                 inkscape:connector-curvature="0"
                 d="m 298.2,225.17 -4.75,-19 h 9.5 z"
                 id="path12045" />
              <title
                 id="title12047">Vector make_1</title>
              <desc
                 id="desc12049">Vector make_1: Vector(TOP, TOP - j)</desc>
            </g>
            <!-- drawing style -->
          </g>
          <g
             transform="matrix(3.0940048,0,0,3.0940048,147.4592,59.757272)"
             id="g12068"
             style="stroke-width:1;stroke-linecap:square;stroke-linejoin:miter;stroke-miterlimit:10;stroke-dasharray:none;stroke-dashoffset:0">
            <clipPath
               id="clip68642658-b5d8-47e3-92c8-8d813b46a52b">
              <path
                 inkscape:connector-curvature="0"
                 d="M -16.474,-11.21 V 4.7377 H 5.5789 V -11.21 Z"
                 id="path12055" />
            </clipPath>
            <g
               clip-path="url(#clip6)"
               id="g12066">
              <g
                 style="fill:#0000ff;fill-opacity:1;fill-rule:nonzero;stroke:none"
                 id="g12064">
                <path
                   inkscape:connector-curvature="0"
                   d="M 0.92188,-0.5625 0.59375,0 Q 0.57812,0.015625 0.5625,0.015625 q -0.01562,0 -0.01562,0 Q 0.54688,0 0.54688,0 L 0.51562,-0.51562 0.21875,0 Q 0.20312,0.015625 0.20312,0.015625 v 0 H 0.1875 q 0,0 -0.01562,-0.015625 0,0 0,0 L 0.14062,-0.60938 Q 0.125,-0.64062 0.125,-0.64062 v 0 0 q -0.01562,-0.01563 -0.046875,-0.01563 -0.015625,0 -0.015625,0 0,-0.03125 0.015625,-0.03125 H 0.17188 v 0 h 0.125 v 0 q 0.01562,0 0.01562,0.01562 0,0.01563 -0.01562,0.01563 -0.07813,0 -0.07813,0.04687 l 0.03125,0.5 0.26562,-0.4375 L 0.5,-0.625 q 0,-0.01562 -0.01562,-0.03125 v 0 q -0.01563,0 -0.03907,0 -0.02343,0 -0.02343,0 0,-0.03125 0.01562,-0.03125 h 0.10938 v 0 h 0.125 v 0 q 0.01562,0 0.01562,0.01562 0,0.01563 -0.01562,0.01563 H 0.65625 q -0.0625,0 -0.0625,0.04687 v 0 l 0.03125,0.5 0.26562,-0.46874 q 0.01563,-0.03126 0.01563,-0.03126 0,-0.04687 -0.0625,-0.04687 0,0 0,0 0,-0.03125 0.01563,-0.03125 h 0.09374 v 0 H 1.0312 v 0 q 0.0157,0 0.0157,0.01562 0,0.01563 -0.0157,0.01563 v 0 q -0.06245,0.01563 -0.0937,0.0625 v 0 0 Q 0.92188,-0.57812 0.92188,-0.5625 Z"
                   id="path12058" />
                <title
                   id="title12060">Vector make_1</title>
                <desc
                   id="desc12062">Vector make_1: Vector(TOP, TOP - j)</desc>
              </g>
              <!-- drawing style -->
            </g>
            <!-- clip6 -->
          </g>
          <g
             transform="matrix(0.16284236,0,0,0.16284236,96.489544,25.075106)"
             clip-path="url(#clip17)"
             id="g12211"
             style="stroke-width:1;stroke-linecap:square;stroke-linejoin:miter;stroke-miterlimit:10;stroke-dasharray:none;stroke-dashoffset:0">
            <g
               style="fill:#000000;fill-opacity:1;fill-rule:nonzero;stroke:none"
               id="g12209">
              <path
                 inkscape:connector-curvature="0"
                 d="m 303.2,132.75 c 0,2.76 -2.24,5 -5,5 -2.76,0 -5,-2.24 -5,-5 0,-2.76 2.24,-5 5,-5 2.76,0 5,2.24 5,5 z"
                 id="path12203" />
              <title
                 id="title12205">Point TOP</title>
              <desc
                 id="desc12207">Point TOP: Point on c</desc>
            </g>
            <!-- drawing style -->
          </g>
          <g
             transform="matrix(0.16284236,0,0,0.16284236,96.489544,25.075106)"
             clip-path="url(#clip18)"
             id="g12224"
             style="stroke-width:1;stroke-linecap:square;stroke-linejoin:miter;stroke-miterlimit:10;stroke-dasharray:none;stroke-dashoffset:0">
            <g
               style="fill:none;stroke:#000000;stroke-linecap:round;stroke-linejoin:round;stroke-opacity:1"
               id="g12222">
              <path
                 inkscape:connector-curvature="0"
                 d="m 303.2,132.75 c 0,2.76 -2.24,5 -5,5 -2.76,0 -5,-2.24 -5,-5 0,-2.76 2.24,-5 5,-5 2.76,0 5,2.24 5,5 z"
                 id="path12216" />
              <title
                 id="title12218">Point TOP</title>
              <desc
                 id="desc12220">Point TOP: Point on c</desc>
            </g>
            <!-- drawing style -->
          </g>
        </g>
        <g
           style="stroke-width:1;stroke-linecap:square;stroke-linejoin:miter;stroke-miterlimit:10;stroke-dasharray:none;stroke-dashoffset:0"
           id="g12237"
           clip-path="url(#clip19)"
           transform="matrix(0.16284236,0,0,0.16284236,127.89371,17.469744)">
          <g
             id="g12235"
             style="fill:#000000;fill-opacity:1;fill-rule:nonzero;stroke:none">
            <path
               id="path12229"
               d="m 32.418,47.574 q 0.559,1.483 1.311,2.364 1.31,1.536 3.254,1.536 1.053,0 1.821,-0.666 0.768,-0.666 0.768,-1.859 0,-1.074 -0.773,-1.869 -0.505,-0.505 -2.127,-1.515 l -1.88,-1.17 q -0.849,-0.538 -1.354,-1.085 -0.934,-1.042 -0.934,-2.299 0,-1.665 1.106,-2.772 1.107,-1.106 2.933,-1.106 0.752,0 1.81,0.37 1.058,0.371 1.209,0.371 0.408,0 0.563,-0.193 0.156,-0.194 0.242,-0.548 h 0.451 l 0.484,4.683 h -0.527 q -0.537,-2.116 -1.724,-2.954 -1.187,-0.838 -2.347,-0.838 -0.902,0 -1.574,0.532 -0.671,0.532 -0.671,1.477 0,0.849 0.516,1.45 0.515,0.613 1.6,1.279 l 1.934,1.192 q 1.815,1.117 2.556,2.052 0.731,0.945 0.731,2.234 0,1.73 -1.305,2.89 -1.305,1.16 -3.336,1.16 -1.02,0 -2.132,-0.387 -1.112,-0.386 -1.273,-0.386 -0.387,0 -0.521,0.236 -0.134,0.236 -0.177,0.505 H 32.568 L 31.913,47.574 Z M 45.04,38.132 q 0,-0.462 0.322,-0.795 0.323,-0.333 0.795,-0.333 0.462,0 0.79,0.328 0.327,0.327 0.327,0.8 0,0.462 -0.327,0.789 -0.328,0.328 -0.79,0.328 -0.472,0 -0.795,-0.328 -0.322,-0.327 -0.322,-0.789 z m -1.375,13.567 q 1.149,-0.107 1.45,-0.392 0.301,-0.285 0.301,-1.541 v -5.124 q 0,-0.699 -0.097,-0.967 -0.161,-0.441 -0.676,-0.441 -0.119,0 -0.231,0.022 -0.113,0.021 -0.65,0.172 v -0.333 l 0.462,-0.151 q 1.88,-0.612 2.621,-0.923 0.301,-0.129 0.386,-0.129 0.022,0.075 0.022,0.161 v 7.713 q 0,1.224 0.295,1.536 0.296,0.311 1.338,0.397 V 52 h -5.221 z m 6.037,0.022 q 0.838,-0.075 1.117,-0.28 0.43,-0.311 0.43,-1.246 v -5.553 q 0,-0.795 -0.209,-1.042 -0.21,-0.247 -0.693,-0.247 -0.226,0 -0.339,0.021 -0.112,0.022 -0.263,0.075 v -0.376 l 0.774,-0.258 q 0.419,-0.139 1.375,-0.504 0.956,-0.366 1.009,-0.366 0.054,0 0.065,0.054 0.011,0.054 0.011,0.204 v 1.45 q 1.063,-0.966 1.836,-1.337 0.774,-0.371 1.59,-0.371 1.107,0 1.762,0.752 0.344,0.408 0.569,1.107 0.795,-0.806 1.386,-1.193 1.021,-0.666 2.084,-0.666 1.73,0 2.31,1.408 0.333,0.794 0.333,2.513 v 4.458 q 0,0.763 0.338,1.037 0.338,0.274 1.219,0.36 V 52 h -4.844 v -0.301 q 0.934,-0.086 1.23,-0.376 0.295,-0.29 0.295,-1.181 v -4.63 q 0,-1.042 -0.226,-1.536 -0.397,-0.881 -1.557,-0.881 -0.699,0 -1.386,0.462 -0.397,0.268 -0.978,0.859 v 5.5 q 0,0.87 0.307,1.321 0.306,0.451 1.294,0.484 V 52 H 55.61 v -0.279 q 1.021,-0.129 1.3,-0.494 0.279,-0.366 0.279,-1.794 v -3.008 q 0,-1.654 -0.214,-2.278 -0.355,-1.052 -1.504,-1.052 -0.656,0 -1.289,0.36 -0.634,0.359 -1.118,0.94 v 5.876 q 0,0.816 0.285,1.127 0.285,0.312 1.241,0.323 V 52 h -4.888 z m 20.271,-1.698 q 0.279,0.731 0.832,1.091 0.553,0.36 1.305,0.36 1.161,0 1.982,-1.155 0.822,-1.155 0.822,-3.217 0,-1.977 -0.854,-2.955 -0.854,-0.977 -1.982,-0.977 -0.795,0 -1.45,0.489 -0.655,0.488 -0.655,0.961 z m -3.416,6.414 q 1.009,-0.065 1.283,-0.43 0.274,-0.365 0.274,-1.15 V 44.545 q 0,-0.816 -0.198,-1.047 -0.199,-0.231 -0.747,-0.231 -0.118,0 -0.22,0.01 -0.102,0.011 -0.296,0.043 v -0.354 l 1.021,-0.333 q 0.054,-0.011 2.159,-0.741 0.054,0 0.081,0.048 0.026,0.048 0.026,0.113 v 1.45 q 0.709,-0.709 1.247,-1.053 0.966,-0.601 1.987,-0.601 1.482,0 2.551,1.262 1.069,1.262 1.069,3.453 0,2.149 -1.284,3.9 -1.283,1.751 -3.228,1.751 -0.601,0 -1.042,-0.151 -0.687,-0.225 -1.267,-0.827 v 3.513 q 0,1.085 0.354,1.332 0.355,0.247 1.547,0.333 v 0.376 h -5.317 z m 11.354,-4.738 q 0.999,-0.096 1.354,-0.403 0.354,-0.306 0.354,-1.197 V 39.604 q 0,-0.709 -0.118,-0.978 -0.215,-0.451 -0.87,-0.451 -0.151,0 -0.328,0.032 -0.177,0.032 -0.446,0.097 v -0.355 q 1.451,-0.387 3.492,-1.031 0.075,0 0.091,0.064 0.016,0.065 0.016,0.28 v 12.88 q 0,0.934 0.322,1.208 0.323,0.274 1.332,0.349 V 52 h -5.199 z m 7.466,-13.567 q 0,-0.462 0.322,-0.795 0.322,-0.333 0.795,-0.333 0.462,0 0.79,0.328 0.327,0.327 0.327,0.8 0,0.462 -0.327,0.789 -0.328,0.328 -0.79,0.328 -0.473,0 -0.795,-0.328 -0.322,-0.327 -0.322,-0.789 z m -1.375,13.567 q 1.149,-0.107 1.45,-0.392 0.301,-0.285 0.301,-1.541 v -5.124 q 0,-0.699 -0.097,-0.967 -0.161,-0.441 -0.677,-0.441 -0.118,0 -0.23,0.022 -0.113,0.021 -0.65,0.172 v -0.333 l 0.462,-0.151 q 1.879,-0.612 2.621,-0.923 0.3,-0.129 0.386,-0.129 0.022,0.075 0.022,0.161 v 7.713 q 0,1.224 0.295,1.536 0.296,0.311 1.338,0.397 V 52 h -5.221 z m 6.112,0 q 1.139,-0.053 1.499,-0.424 0.36,-0.371 0.36,-1.563 v -6.897 h -1.837 v -0.719 h 1.837 q 0,-1.698 0.462,-2.868 0.88,-2.246 3.233,-2.246 0.945,0 1.692,0.376 0.746,0.376 0.746,1.01 0,0.355 -0.257,0.634 -0.258,0.279 -0.623,0.279 -0.312,0 -0.538,-0.188 -0.225,-0.188 -0.537,-0.66 l -0.182,-0.28 q -0.151,-0.225 -0.355,-0.381 -0.204,-0.156 -0.569,-0.156 -0.816,0 -1.107,0.806 -0.161,0.43 -0.161,1.128 v 2.546 h 2.697 v 0.719 h -2.675 v 6.897 q 0,1.214 0.327,1.552 0.328,0.339 1.714,0.435 V 52 h -5.726 z m 8.701,-13.567 q 0,-0.462 0.323,-0.795 0.322,-0.333 0.795,-0.333 0.457,0 0.787,0.328 0.33,0.327 0.33,0.8 0,0.462 -0.33,0.789 -0.33,0.328 -0.787,0.328 -0.473,0 -0.795,-0.328 -0.323,-0.327 -0.323,-0.789 z M 97.44,51.699 q 1.15,-0.107 1.451,-0.392 0.3,-0.285 0.3,-1.541 v -5.124 q 0,-0.699 -0.096,-0.967 -0.161,-0.441 -0.677,-0.441 -0.118,0 -0.231,0.022 -0.113,0.021 -0.65,0.172 v -0.333 l 0.462,-0.151 q 1.88,-0.612 2.621,-0.923 0.3,-0.129 0.39,-0.129 0.02,0.075 0.02,0.161 v 7.713 q 0,1.224 0.29,1.536 0.3,0.311 1.34,0.397 V 52 h -5.22 z m 10.72,-9.775 q 1.52,0 2.65,1.047 1.14,1.048 1.14,2.97 h -6.82 q 0.11,2.493 1.13,3.631 1.02,1.139 2.42,1.139 1.12,0 1.9,-0.591 0.77,-0.591 1.43,-1.676 l 0.37,0.129 q -0.44,1.365 -1.65,2.525 -1.2,1.16 -2.96,1.16 -2.02,0 -3.12,-1.526 -1.1,-1.525 -1.1,-3.512 0,-2.159 1.28,-3.728 1.28,-1.568 3.33,-1.568 z m -0.62,0.784 q -1.23,0 -1.87,1.085 -0.34,0.58 -0.5,1.461 h 4.54 q -0.12,-1.074 -0.41,-1.601 -0.53,-0.945 -1.76,-0.945 z m 10.56,-0.859 q 0.78,0 1.44,0.343 0.43,0.226 0.82,0.623 v -3.416 q 0,-0.655 -0.14,-0.902 -0.15,-0.247 -0.69,-0.247 -0.13,0 -0.23,0.011 -0.1,0.01 -0.43,0.043 v -0.355 l 0.88,-0.225 q 0.49,-0.129 0.97,-0.269 0.48,-0.14 0.85,-0.268 0.17,-0.054 0.57,-0.205 l 0.06,0.022 -0.02,1.128 q -0.01,0.612 -0.02,1.262 -0.01,0.65 -0.01,1.284 l -0.02,8.776 q 0,0.698 0.17,0.978 0.17,0.279 0.91,0.279 0.12,0 0.24,-0.005 0.12,-0.006 0.23,-0.027 v 0.354 q -0.06,0.022 -1.55,0.537 l -1.69,0.634 -0.08,-0.097 v -1.321 q -0.6,0.655 -1.04,0.935 -0.78,0.483 -1.81,0.483 -1.83,0 -2.96,-1.412 -1.14,-1.413 -1.14,-3.271 0,-2.332 1.36,-4.002 1.36,-1.67 3.33,-1.67 z m 0.4,9.195 q 0.83,0 1.35,-0.494 0.51,-0.494 0.51,-0.935 v -4.608 q 0,-1.397 -0.74,-1.971 -0.75,-0.575 -1.46,-0.575 -1.35,0 -2.1,1.198 -0.76,1.197 -0.76,2.948 0,1.73 0.8,3.083 0.81,1.354 2.4,1.354 z m 11.13,0.559 q 1.3,-0.14 1.62,-0.478 0.32,-0.339 0.32,-1.768 v -9.528 q 0,-1.171 -0.36,-1.531 -0.35,-0.36 -1.58,-0.445 v -0.409 h 11.72 l 0.08,3.159 h -0.61 q -0.23,-1.515 -0.85,-1.918 -0.62,-0.403 -2.46,-0.403 h -3.01 q -0.44,0 -0.56,0.151 -0.13,0.15 -0.13,0.59 v 4.91 h 3.18 q 1.41,0 1.8,-0.419 0.38,-0.419 0.62,-1.698 h 0.52 v 5.092 h -0.52 q -0.25,-1.278 -0.63,-1.692 -0.39,-0.413 -1.79,-0.413 h -3.18 v 4.812 q 0,1.214 0.37,1.552 0.37,0.339 1.62,0.436 V 52 h -6.17 z m 18.54,-0.398 q 1.68,0 2.82,-0.655 1.14,-0.655 1.14,-2.514 0,-1.848 -1.33,-2.524 -1.34,-0.677 -3.4,-0.677 -0.5,0 -0.64,0 -0.13,0 -0.41,-0.011 v 5.479 q 0,0.569 0.32,0.736 0.32,0.166 1.5,0.166 z M 142,51.603 q 1.33,-0.076 1.72,-0.414 0.4,-0.338 0.4,-1.574 v -9.786 q 0,-1.214 -0.4,-1.563 -0.39,-0.349 -1.72,-0.413 v -0.409 h 6.17 q 2.64,0 4.19,0.849 1.55,0.849 1.55,2.922 0,1.557 -1.08,2.363 -0.62,0.462 -1.84,0.763 1.51,0.365 2.59,1.219 1.07,0.854 1.07,2.39 0,2.578 -2.38,3.545 Q 151.01,52 149.17,52 H 142 Z m 6.44,-7.649 q 1.11,-0.021 1.84,-0.354 1.4,-0.645 1.4,-2.31 0,-1.966 -1.61,-2.653 -0.9,-0.376 -2.71,-0.376 -0.69,0 -0.85,0.118 -0.16,0.118 -0.16,0.644 v 4.963 z m 12.38,6.349 q 0,0.537 0.26,0.709 0.27,0.172 1.09,0.172 2.58,0 4.25,-1.021 2.55,-1.568 2.55,-5.36 0,-3.384 -2.1,-5.092 -1.81,-1.461 -4.78,-1.461 -0.74,0 -1.01,0.161 -0.26,0.161 -0.26,0.709 z m -4.17,1.3 q 1.2,-0.129 1.57,-0.436 0.36,-0.306 0.36,-1.552 v -9.786 q 0,-1.203 -0.35,-1.547 -0.35,-0.344 -1.58,-0.429 v -0.409 h 5.93 q 3,0 5.07,0.989 3.74,1.772 3.74,6.338 0,1.643 -0.67,3.125 -0.67,1.483 -2.03,2.503 -0.86,0.645 -1.78,0.978 Q 165.22,52 162.76,52 h -6.11 z"
               inkscape:connector-curvature="0" />
            <title
               id="title12231">Simplified FBD</title>
            <desc
               id="desc12233">text3 = “Simplified FBD”</desc>
          </g>
          <!-- drawing style -->
        </g>
      </g>
    </g>
  </g>
</svg>
