<?xml version="1.0" encoding="UTF-8" standalone="no"?>
<!DOCTYPE svg PUBLIC "-//W3C//DTD SVG 1.1//EN" "http://www.w3.org/Graphics/SVG/1.1/DTD/svg11.dtd">
<svg width="100%" height="100%" viewBox="0 0 288 75" version="1.1" xmlns="http://www.w3.org/2000/svg" xmlns:xlink="http://www.w3.org/1999/xlink" xml:space="preserve" xmlns:serif="http://www.serif.com/" style="fill-rule:evenodd;clip-rule:evenodd;stroke-linecap:round;stroke-linejoin:round;stroke-miterlimit:1.5;">
    <g transform="matrix(1,0,0,1,0,-158)">
        <g id="dogleg-internal" transform="matrix(1.59809,0,0,0.694444,5.68434e-14,83)">
            <rect x="0" y="108" width="180" height="108" style="fill:none;"/>
            <g transform="matrix(0.897387,0,0,2.06511,-1.72667,-232.268)">
                <g id="path2100" transform="matrix(1,0,0,1,-23.167,114.879)">
                    <path d="M73.167,71.193L57.353,87.007L62.467,92.121L77.789,76.799" style="fill:rgb(230,230,230);fill-rule:nonzero;stroke:black;stroke-width:1.05px;"/>
                </g>
                <g transform="matrix(0.697299,-2.70955e-16,-3.48371e-16,0.697299,-208.514,112.472)">
                    <path d="M370.736,105.55C371.024,106.256 371.145,106.892 371.79,107.506C372.865,108.529 374.712,109.492 376.208,110.621C376.986,111.209 376.878,112.735 377.903,113.165" style="fill:none;stroke:black;stroke-width:1.5px;"/>
                </g>
                <g id="path1124" transform="matrix(0.742918,0,0,1,-8.83727,165.748)">
                    <g transform="matrix(0.938594,-0,-0,0.697299,14.4853,-0.978425)">
                        <path d="M20.552,51.34L11.552,54.34L20.552,57.34L20.552,51.34Z" style="fill:rgb(225,32,32);fill-rule:nonzero;"/>
                        <path d="M18.752,54.34L52.452,54.34" style="fill:none;fill-rule:nonzero;stroke:rgb(225,32,32);stroke-width:2px;"/>
                    </g>
                </g>
                <g transform="matrix(-0.395535,0.395535,0.395535,0.395535,66.591,88.0858)">
                    <g transform="matrix(-0.881462,0.881462,0.881462,0.881462,178.683,15.1906)">
                        <path d="M79.041,23.658L71.931,23.387L77.456,27.87L79.041,23.658Z" style="fill:rgb(225,32,32);"/>
                        <path d="M76.985,25.288C78.321,25.791 79.534,26.574 80.543,27.583C84.457,31.496 84.457,37.851 80.543,41.764C77.76,44.547 73.606,45.445 69.921,44.058C73.606,45.445 77.76,44.547 80.543,41.764C84.457,37.851 84.457,31.496 80.543,27.583C79.534,26.574 78.321,25.791 76.985,25.288Z" style="fill:none;stroke:rgb(225,32,32);stroke-width:1.5px;stroke-linecap:butt;"/>
                    </g>
                </g>
                <g id="path828" transform="matrix(0.790389,0,0,1,-43.1346,151.678)">
                    <g transform="matrix(0.882222,-0,-0,0.697299,57.0083,13.0921)">
                        <path d="M105.806,37.162L114.806,34.162L105.806,31.162L105.806,37.162Z" style="fill:rgb(225,32,32);fill-rule:nonzero;"/>
                        <path d="M107.606,34.162L71.754,34.162" style="fill:none;fill-rule:nonzero;stroke:rgb(225,32,32);stroke-width:2px;"/>
                    </g>
                </g>
            </g>
            <g transform="matrix(1.04695,0,0,2.4093,3.99083,-268.22)">
                <g id="path2130" transform="matrix(0.857143,0,0,0.857143,-1.34271,113.39)">
                    <path d="M121.181,76.799L135.407,62.573L164.954,92.121L170.068,87.007L135.407,52.346L116.067,71.686" style="fill:rgb(230,230,230);fill-rule:nonzero;stroke:black;stroke-width:1.05px;"/>
                </g>
                <g transform="matrix(0.597685,-2.32247e-16,-2.98603e-16,0.597685,-123.44,111.711)">
                    <path d="M370.736,105.55C371.024,106.256 371.145,106.892 371.79,107.506C372.865,108.529 374.712,109.492 376.208,110.621C376.986,111.209 376.878,112.735 377.903,113.165" style="fill:none;stroke:black;stroke-width:1.5px;"/>
                </g>
                <g id="path8281" serif:id="path828" transform="matrix(0.650377,0,0,0.857143,62.2365,156.992)">
                    <g transform="matrix(0.918982,-0,-0,0.697299,-101.554,-0.978425)">
                        <path d="M274.043,57.34L283.043,54.34L274.043,51.34L274.043,57.34Z" style="fill:rgb(225,32,32);fill-rule:nonzero;"/>
                        <path d="M275.843,54.34L241.425,54.34" style="fill:none;fill-rule:nonzero;stroke:rgb(225,32,32);stroke-width:2px;"/>
                    </g>
                </g>
                <g id="path8282" serif:id="path828" transform="matrix(-0.677476,8.29669e-17,-1.0497e-16,-0.857143,181.595,208.786)">
                    <g transform="matrix(-0.882222,-8.53945e-17,1.08041e-16,-0.697299,273.672,61.4049)">
                        <path d="M139.782,32.124L130.782,35.124L139.782,38.124L139.782,32.124Z" style="fill:rgb(225,32,32);fill-rule:nonzero;"/>
                        <path d="M137.982,35.124L173.835,35.124" style="fill:none;fill-rule:nonzero;stroke:rgb(225,32,32);stroke-width:2px;"/>
                    </g>
                </g>
                <g transform="matrix(0.33903,0.33903,-0.33903,0.33903,86.3991,90.6429)">
                    <g transform="matrix(0.881462,-0.881462,0.881462,0.881462,-36.4279,229.657)">
                        <path d="M166.217,28.235L171.743,23.752L164.633,24.023L166.217,28.235Z" style="fill:rgb(225,32,32);"/>
                        <path d="M166.689,25.654C165.352,26.156 164.139,26.939 163.13,27.948C159.216,31.862 159.216,38.216 163.13,42.129C165.913,44.913 170.068,45.81 173.752,44.424C170.068,45.81 165.913,44.913 163.13,42.129C159.216,38.216 159.216,31.862 163.13,27.948C164.139,26.939 165.352,26.156 166.689,25.654Z" style="fill:none;stroke:rgb(225,32,32);stroke-width:1.5px;stroke-linecap:butt;"/>
                    </g>
                </g>
            </g>
            <g>
                <g transform="matrix(2.54409,0,0,5.85459,82.5006,148.9)">
                    <g transform="matrix(2.45961,0,0,2.45961,0,0)">
                        <path d="M0.325,-0.627L0.247,-0.365L0.334,-0.365C0.373,-0.365 0.402,-0.371 0.422,-0.383C0.441,-0.395 0.461,-0.421 0.481,-0.46L0.5,-0.46L0.431,-0.219L0.412,-0.219C0.417,-0.238 0.419,-0.254 0.419,-0.267C0.419,-0.287 0.412,-0.302 0.399,-0.313C0.386,-0.324 0.361,-0.33 0.325,-0.33L0.237,-0.33L0.18,-0.13C0.169,-0.094 0.164,-0.071 0.164,-0.059C0.164,-0.047 0.169,-0.038 0.177,-0.031C0.186,-0.025 0.208,-0.02 0.243,-0.018L0.237,-0L-0.024,-0L-0.018,-0.018C0.007,-0.019 0.024,-0.021 0.033,-0.025C0.046,-0.03 0.055,-0.038 0.062,-0.047C0.07,-0.061 0.081,-0.088 0.093,-0.13L0.209,-0.529C0.219,-0.561 0.224,-0.586 0.224,-0.604C0.224,-0.613 0.222,-0.62 0.217,-0.626C0.213,-0.632 0.207,-0.637 0.198,-0.64C0.19,-0.643 0.174,-0.644 0.149,-0.644L0.155,-0.662L0.668,-0.662L0.62,-0.495L0.601,-0.495C0.605,-0.515 0.606,-0.531 0.606,-0.544C0.606,-0.566 0.601,-0.583 0.589,-0.595C0.577,-0.608 0.562,-0.617 0.543,-0.622C0.53,-0.625 0.501,-0.627 0.456,-0.627L0.325,-0.627Z" style="fill-rule:nonzero;"/>
                    </g>
                </g>
                <g transform="matrix(2.54409,0,0,5.85459,171.5,206.5)">
                    <g transform="matrix(2.45961,0,0,2.45961,0,0)">
                        <path d="M0.325,-0.627L0.247,-0.365L0.334,-0.365C0.373,-0.365 0.402,-0.371 0.422,-0.383C0.441,-0.395 0.461,-0.421 0.481,-0.46L0.5,-0.46L0.431,-0.219L0.412,-0.219C0.417,-0.238 0.419,-0.254 0.419,-0.267C0.419,-0.287 0.412,-0.302 0.399,-0.313C0.386,-0.324 0.361,-0.33 0.325,-0.33L0.237,-0.33L0.18,-0.13C0.169,-0.094 0.164,-0.071 0.164,-0.059C0.164,-0.047 0.169,-0.038 0.177,-0.031C0.186,-0.025 0.208,-0.02 0.243,-0.018L0.237,-0L-0.024,-0L-0.018,-0.018C0.007,-0.019 0.024,-0.021 0.033,-0.025C0.046,-0.03 0.055,-0.038 0.062,-0.047C0.07,-0.061 0.081,-0.088 0.093,-0.13L0.209,-0.529C0.219,-0.561 0.224,-0.586 0.224,-0.604C0.224,-0.613 0.222,-0.62 0.217,-0.626C0.213,-0.632 0.207,-0.637 0.198,-0.64C0.19,-0.643 0.174,-0.644 0.149,-0.644L0.155,-0.662L0.668,-0.662L0.62,-0.495L0.601,-0.495C0.605,-0.515 0.606,-0.531 0.606,-0.544C0.606,-0.566 0.601,-0.583 0.589,-0.595C0.577,-0.608 0.562,-0.617 0.543,-0.622C0.53,-0.625 0.501,-0.627 0.456,-0.627L0.325,-0.627Z" style="fill-rule:nonzero;"/>
                    </g>
                </g>
                <g transform="matrix(2.54409,0,0,5.85459,7.55129,206.5)">
                    <g transform="matrix(2.45961,0,0,2.45961,0,0)">
                        <path d="M0.325,-0.627L0.247,-0.365L0.334,-0.365C0.373,-0.365 0.402,-0.371 0.422,-0.383C0.441,-0.395 0.461,-0.421 0.481,-0.46L0.5,-0.46L0.431,-0.219L0.412,-0.219C0.417,-0.238 0.419,-0.254 0.419,-0.267C0.419,-0.287 0.412,-0.302 0.399,-0.313C0.386,-0.324 0.361,-0.33 0.325,-0.33L0.237,-0.33L0.18,-0.13C0.169,-0.094 0.164,-0.071 0.164,-0.059C0.164,-0.047 0.169,-0.038 0.177,-0.031C0.186,-0.025 0.208,-0.02 0.243,-0.018L0.237,-0L-0.024,-0L-0.018,-0.018C0.007,-0.019 0.024,-0.021 0.033,-0.025C0.046,-0.03 0.055,-0.038 0.062,-0.047C0.07,-0.061 0.081,-0.088 0.093,-0.13L0.209,-0.529C0.219,-0.561 0.224,-0.586 0.224,-0.604C0.224,-0.613 0.222,-0.62 0.217,-0.626C0.213,-0.632 0.207,-0.637 0.198,-0.64C0.19,-0.643 0.174,-0.644 0.149,-0.644L0.155,-0.662L0.668,-0.662L0.62,-0.495L0.601,-0.495C0.605,-0.515 0.606,-0.531 0.606,-0.544C0.606,-0.566 0.601,-0.583 0.589,-0.595C0.577,-0.608 0.562,-0.617 0.543,-0.622C0.53,-0.625 0.501,-0.627 0.456,-0.627L0.325,-0.627Z" style="fill-rule:nonzero;"/>
                    </g>
                </g>
                <g transform="matrix(2.54409,0,0,5.85459,67.0447,148.9)">
                    <g transform="matrix(2.45961,0,0,2.45961,0,0)">
                        <path d="M0.325,-0.627L0.247,-0.365L0.334,-0.365C0.373,-0.365 0.402,-0.371 0.422,-0.383C0.441,-0.395 0.461,-0.421 0.481,-0.46L0.5,-0.46L0.431,-0.219L0.412,-0.219C0.417,-0.238 0.419,-0.254 0.419,-0.267C0.419,-0.287 0.412,-0.302 0.399,-0.313C0.386,-0.324 0.361,-0.33 0.325,-0.33L0.237,-0.33L0.18,-0.13C0.169,-0.094 0.164,-0.071 0.164,-0.059C0.164,-0.047 0.169,-0.038 0.177,-0.031C0.186,-0.025 0.208,-0.02 0.243,-0.018L0.237,-0L-0.024,-0L-0.018,-0.018C0.007,-0.019 0.024,-0.021 0.033,-0.025C0.046,-0.03 0.055,-0.038 0.062,-0.047C0.07,-0.061 0.081,-0.088 0.093,-0.13L0.209,-0.529C0.219,-0.561 0.224,-0.586 0.224,-0.604C0.224,-0.613 0.222,-0.62 0.217,-0.626C0.213,-0.632 0.207,-0.637 0.198,-0.64C0.19,-0.643 0.174,-0.644 0.149,-0.644L0.155,-0.662L0.668,-0.662L0.62,-0.495L0.601,-0.495C0.605,-0.515 0.606,-0.531 0.606,-0.544C0.606,-0.566 0.601,-0.583 0.589,-0.595C0.577,-0.608 0.562,-0.617 0.543,-0.622C0.53,-0.625 0.501,-0.627 0.456,-0.627L0.325,-0.627Z" style="fill-rule:nonzero;"/>
                    </g>
                </g>
                <g transform="matrix(2.54409,0,0,5.85459,38.0215,141.567)">
                    <g transform="matrix(2.45961,0,0,2.45961,0,0)">
                        <path d="M0.317,-0.662L0.378,-0.129L0.762,-0.662L0.924,-0.662L0.924,-0.644C0.889,-0.642 0.868,-0.639 0.862,-0.637C0.851,-0.633 0.841,-0.625 0.832,-0.612C0.823,-0.599 0.814,-0.575 0.803,-0.539L0.681,-0.119C0.674,-0.094 0.67,-0.075 0.67,-0.061C0.67,-0.048 0.674,-0.039 0.683,-0.032C0.695,-0.023 0.715,-0.018 0.742,-0.018L0.753,-0.018L0.749,-0L0.47,-0L0.475,-0.018L0.488,-0.018C0.513,-0.018 0.532,-0.022 0.545,-0.029C0.555,-0.034 0.564,-0.044 0.572,-0.058C0.58,-0.073 0.591,-0.105 0.605,-0.155L0.715,-0.539L0.329,-0L0.309,-0L0.247,-0.539L0.129,-0.129C0.119,-0.094 0.114,-0.071 0.114,-0.059C0.114,-0.047 0.118,-0.037 0.127,-0.031C0.136,-0.025 0.157,-0.02 0.191,-0.018L0.186,-0L-0.033,-0L-0.027,-0.018L-0.014,-0.018C0.018,-0.018 0.041,-0.026 0.056,-0.042C0.066,-0.054 0.077,-0.08 0.088,-0.119L0.232,-0.612C0.222,-0.623 0.211,-0.631 0.202,-0.635C0.192,-0.639 0.174,-0.642 0.147,-0.644L0.152,-0.662L0.317,-0.662Z" style="fill-rule:nonzero;"/>
                    </g>
                </g>
                <g transform="matrix(2.54409,0,0,5.85459,103.589,139.68)">
                    <g transform="matrix(2.45961,0,0,2.45961,0,0)">
                        <path d="M0.317,-0.662L0.378,-0.129L0.762,-0.662L0.924,-0.662L0.924,-0.644C0.889,-0.642 0.868,-0.639 0.862,-0.637C0.851,-0.633 0.841,-0.625 0.832,-0.612C0.823,-0.599 0.814,-0.575 0.803,-0.539L0.681,-0.119C0.674,-0.094 0.67,-0.075 0.67,-0.061C0.67,-0.048 0.674,-0.039 0.683,-0.032C0.695,-0.023 0.715,-0.018 0.742,-0.018L0.753,-0.018L0.749,-0L0.47,-0L0.475,-0.018L0.488,-0.018C0.513,-0.018 0.532,-0.022 0.545,-0.029C0.555,-0.034 0.564,-0.044 0.572,-0.058C0.58,-0.073 0.591,-0.105 0.605,-0.155L0.715,-0.539L0.329,-0L0.309,-0L0.247,-0.539L0.129,-0.129C0.119,-0.094 0.114,-0.071 0.114,-0.059C0.114,-0.047 0.118,-0.037 0.127,-0.031C0.136,-0.025 0.157,-0.02 0.191,-0.018L0.186,-0L-0.033,-0L-0.027,-0.018L-0.014,-0.018C0.018,-0.018 0.041,-0.026 0.056,-0.042C0.066,-0.054 0.077,-0.08 0.088,-0.119L0.232,-0.612C0.222,-0.623 0.211,-0.631 0.202,-0.635C0.192,-0.639 0.174,-0.642 0.147,-0.644L0.152,-0.662L0.317,-0.662Z" style="fill-rule:nonzero;"/>
                    </g>
                </g>
            </g>
        </g>
    </g>
</svg>
