<?xml version="1.0" encoding="UTF-8" standalone="no"?>
<!DOCTYPE svg PUBLIC "-//W3C//DTD SVG 1.1//EN" "http://www.w3.org/Graphics/SVG/1.1/DTD/svg11.dtd">
<svg width="100%" height="100%" viewBox="0 0 288 76" version="1.1" xmlns="http://www.w3.org/2000/svg" xmlns:xlink="http://www.w3.org/1999/xlink" xml:space="preserve" xmlns:serif="http://www.serif.com/" style="fill-rule:evenodd;clip-rule:evenodd;stroke-linecap:round;stroke-linejoin:round;stroke-miterlimit:1.5;">
    <g transform="matrix(1,0,0,1,0,-257)">
        <g id="dogleg-V-M" transform="matrix(1.59809,0,0,0.694444,5.68434e-14,182.513)">
            <rect x="0" y="108" width="180" height="108" style="fill:none;"/>
            <g transform="matrix(0.897387,0,0,2.06511,-1.72667,-232.268)">
                <g id="path2100" transform="matrix(1,0,0,1,-23.167,114.879)">
                    <path d="M73.167,71.193L57.353,87.007L62.467,92.121L77.789,76.799" style="fill:rgb(230,230,230);fill-rule:nonzero;stroke:black;stroke-width:1.05px;"/>
                </g>
                <g transform="matrix(0.697299,-2.70955e-16,-3.48371e-16,0.697299,-208.514,112.472)">
                    <path d="M370.736,105.55C371.024,106.256 371.145,106.892 371.79,107.506C372.865,108.529 374.712,109.492 376.208,110.621C376.986,111.209 376.878,112.735 377.903,113.165" style="fill:none;stroke:black;stroke-width:1.5px;"/>
                </g>
                <g id="path1124" transform="matrix(0.742918,0,0,1,-8.83727,165.748)">
                    <g transform="matrix(0.938594,-0,-0,0.697299,14.4853,-1.33613)">
                        <path d="M20.552,51.853L11.552,54.853L20.552,57.853L20.552,51.853Z" style="fill:rgb(225,32,32);fill-rule:nonzero;"/>
                        <path d="M18.752,54.853L52.452,54.853" style="fill:none;fill-rule:nonzero;stroke:rgb(225,32,32);stroke-width:2px;"/>
                    </g>
                </g>
                <g>
                    <g>
                        <g id="path828" transform="matrix(0.790389,0,0,1,-43.1346,151.678)">
                            <g transform="matrix(0.882222,-0,-0,0.697299,57.0083,12.7344)">
                                <path d="M105.806,37.675L114.806,34.675L105.806,31.675L105.806,37.675Z" style="fill:rgb(225,32,32);fill-opacity:0.42;fill-rule:nonzero;"/>
                                <path d="M107.606,34.675L71.754,34.675" style="fill:none;fill-rule:nonzero;stroke:rgb(225,32,32);stroke-opacity:0.42;stroke-width:2px;"/>
                            </g>
                        </g>
                        <g transform="matrix(0.697299,0,0,0.697299,-208.514,112.472)">
                            <g transform="matrix(1,-0,-0,1,301.79,74.487)">
                                <path d="M87.512,21.82L91.459,13.193L83.125,17.727L87.512,21.82Z" style="fill:rgb(64,124,191);"/>
                                <path d="M86.547,18.457C80.677,24.748 71.639,34.435 71.639,34.435" style="fill:none;stroke:rgb(64,124,191);stroke-width:2px;"/>
                            </g>
                        </g>
                        <g transform="matrix(0.0517222,0.723187,-0.729042,-0.00632406,111.972,-80.7219)">
                            <g transform="matrix(-0.00836914,-0.957053,0.964801,0.0684482,340.494,175.105)">
                                <path d="M86.572,51.831L95.319,55.506L90.526,47.318L86.572,51.831Z" style="fill:rgb(64,124,191);"/>
                                <path d="M89.903,50.761C82.914,44.637 71.639,34.758 71.639,34.758" style="fill:none;stroke:rgb(64,124,191);stroke-width:2px;"/>
                            </g>
                        </g>
                        <g transform="matrix(-0.697299,-8.53945e-17,8.53945e-17,-0.697299,287.645,263.259)">
                            <circle cx="338" cy="107" r="2"/>
                        </g>
                        <g transform="matrix(0.518045,-0.574983,0.795372,0.716609,-200.896,32.6001)">
                            <rect x="68.946" y="273" width="26.054" height="21.134" style="fill:rgb(64,124,191);fill-opacity:0.16;"/>
                        </g>
                    </g>
                    <g transform="matrix(-0.395535,0.395535,0.395535,0.395535,66.591,88.0858)">
                        <g transform="matrix(-0.881462,0.881462,0.881462,0.881462,178.231,14.7385)">
                            <path d="M79.041,24.171L71.931,23.9L77.456,28.383L79.041,24.171Z" style="fill:rgb(225,32,32);"/>
                            <path d="M76.985,25.801C78.321,26.304 79.534,27.086 80.543,28.096C84.457,32.009 84.457,38.364 80.543,42.277C77.76,45.06 73.606,45.958 69.921,44.571C73.606,45.958 77.76,45.06 80.543,42.277C84.457,38.364 84.457,32.009 80.543,28.096C79.534,27.086 78.321,26.304 76.985,25.801Z" style="fill:none;stroke:rgb(225,32,32);stroke-width:1.5px;stroke-linecap:butt;"/>
                        </g>
                    </g>
                </g>
            </g>
            <g transform="matrix(1.04695,0,0,2.4093,3.99083,-268.22)">
                <g id="path2130" transform="matrix(0.857143,0,0,0.857143,-1.34271,113.39)">
                    <path d="M121.181,76.799L135.407,62.573L164.954,92.121L170.068,87.007L135.407,52.346L116.067,71.686" style="fill:rgb(230,230,230);fill-rule:nonzero;stroke:black;stroke-width:1.05px;"/>
                </g>
                <g transform="matrix(0.597685,-2.32247e-16,-2.98603e-16,0.597685,-123.44,111.711)">
                    <path d="M370.736,105.55C371.024,106.256 371.145,106.892 371.79,107.506C372.865,108.529 374.712,109.492 376.208,110.621C376.986,111.209 376.878,112.735 377.903,113.165" style="fill:none;stroke:black;stroke-width:1.5px;"/>
                </g>
                <g id="path8281" serif:id="path828" transform="matrix(0.650377,0,0,0.857143,62.2365,156.992)">
                    <g transform="matrix(0.918982,-0,-0,0.697299,-101.554,-1.33613)">
                        <path d="M274.043,57.853L283.043,54.853L274.043,51.853L274.043,57.853Z" style="fill:rgb(225,32,32);fill-rule:nonzero;"/>
                        <path d="M275.843,54.853L241.425,54.853" style="fill:none;fill-rule:nonzero;stroke:rgb(225,32,32);stroke-width:2px;"/>
                    </g>
                </g>
                <g>
                    <g transform="matrix(-0.857143,1.0497e-16,-1.0497e-16,-0.857143,144.622,338.796)">
                        <g id="path8282" serif:id="path828" transform="matrix(0.790389,0,0,1,-43.1346,151.678)">
                            <g transform="matrix(-0.882222,-8.53945e-17,1.08041e-16,-0.697299,273.672,61.7626)">
                                <path d="M139.782,32.637L130.782,35.637L139.782,38.637L139.782,32.637Z" style="fill:rgb(225,32,32);fill-opacity:0.42;"/>
                                <path d="M137.982,35.637L173.835,35.637" style="fill:none;stroke:rgb(225,32,32);stroke-opacity:0.42;stroke-width:2px;"/>
                            </g>
                        </g>
                        <g transform="matrix(0.697299,0,0,0.697299,-208.514,112.472)">
                            <g transform="matrix(-1,-1.22465e-16,1.22465e-16,-1,547.379,144.799)">
                                <path d="M158.076,48.492L154.13,57.119L162.463,52.585L158.076,48.492Z" style="fill:rgb(64,124,191);"/>
                                <path d="M159.042,51.855C164.911,45.564 173.95,35.877 173.95,35.877" style="fill:none;stroke:rgb(64,124,191);stroke-width:2px;"/>
                            </g>
                        </g>
                        <g transform="matrix(0.0517222,0.723187,-0.729042,-0.00632406,111.972,-80.7219)">
                            <g transform="matrix(0.00836914,0.957053,-0.964801,-0.0684482,406.276,-55.1235)">
                                <path d="M159.016,18.481L150.27,14.806L155.062,22.993L159.016,18.481Z" style="fill:rgb(64,124,191);"/>
                                <path d="M155.686,19.551C162.675,25.675 173.95,35.554 173.95,35.554" style="fill:none;stroke:rgb(64,124,191);stroke-width:2px;"/>
                            </g>
                        </g>
                        <g transform="matrix(-0.697299,-8.53945e-17,8.53945e-17,-0.697299,287.645,263.259)">
                            <circle cx="338" cy="107" r="2"/>
                        </g>
                        <g transform="matrix(0.518045,-0.574983,0.795372,0.716609,-200.896,32.6001)">
                            <rect x="68.946" y="273" width="26.054" height="21.134" style="fill:rgb(64,124,191);fill-opacity:0.16;"/>
                        </g>
                    </g>
                    <g transform="matrix(0.33903,0.33903,-0.33903,0.33903,86.3991,90.6429)">
                        <g transform="matrix(0.881462,-0.881462,0.881462,0.881462,-36.8801,229.205)">
                            <path d="M166.217,28.748L171.743,24.265L164.633,24.536L166.217,28.748Z" style="fill:rgb(225,32,32);"/>
                            <path d="M166.689,26.167C165.352,26.669 164.139,27.452 163.13,28.461C159.216,32.375 159.216,38.729 163.13,42.642C165.913,45.426 170.068,46.323 173.752,44.937C170.068,46.323 165.913,45.426 163.13,42.642C159.216,38.729 159.216,32.375 163.13,28.461C164.139,27.452 165.352,26.669 166.689,26.167Z" style="fill:none;stroke:rgb(225,32,32);stroke-width:1.5px;stroke-linecap:butt;"/>
                        </g>
                    </g>
                </g>
            </g>
            <g transform="matrix(2.54409,0,0,5.85459,81.4999,171.534)">
                <g transform="matrix(2.45961,0,0,2.45961,0,0)">
                    <path d="M0.325,-0.627L0.247,-0.365L0.334,-0.365C0.373,-0.365 0.402,-0.371 0.422,-0.383C0.441,-0.395 0.461,-0.421 0.481,-0.46L0.5,-0.46L0.431,-0.219L0.412,-0.219C0.417,-0.238 0.419,-0.254 0.419,-0.267C0.419,-0.287 0.412,-0.302 0.399,-0.313C0.386,-0.324 0.361,-0.33 0.325,-0.33L0.237,-0.33L0.18,-0.13C0.169,-0.094 0.164,-0.071 0.164,-0.059C0.164,-0.047 0.169,-0.038 0.177,-0.031C0.186,-0.025 0.208,-0.02 0.243,-0.018L0.237,-0L-0.024,-0L-0.018,-0.018C0.007,-0.019 0.024,-0.021 0.033,-0.025C0.046,-0.03 0.055,-0.038 0.062,-0.047C0.07,-0.061 0.081,-0.088 0.093,-0.13L0.209,-0.529C0.219,-0.561 0.224,-0.586 0.224,-0.604C0.224,-0.613 0.222,-0.62 0.217,-0.626C0.213,-0.632 0.207,-0.637 0.198,-0.64C0.19,-0.643 0.174,-0.644 0.149,-0.644L0.155,-0.662L0.668,-0.662L0.62,-0.495L0.601,-0.495C0.605,-0.515 0.606,-0.531 0.606,-0.544C0.606,-0.566 0.601,-0.583 0.589,-0.595C0.577,-0.608 0.562,-0.617 0.543,-0.622C0.53,-0.625 0.501,-0.627 0.456,-0.627L0.325,-0.627Z" style="fill-rule:nonzero;"/>
                </g>
            </g>
            <g transform="matrix(2.54409,0,0,5.85459,171.5,206.5)">
                <g transform="matrix(2.45961,0,0,2.45961,0,0)">
                    <path d="M0.325,-0.627L0.247,-0.365L0.334,-0.365C0.373,-0.365 0.402,-0.371 0.422,-0.383C0.441,-0.395 0.461,-0.421 0.481,-0.46L0.5,-0.46L0.431,-0.219L0.412,-0.219C0.417,-0.238 0.419,-0.254 0.419,-0.267C0.419,-0.287 0.412,-0.302 0.399,-0.313C0.386,-0.324 0.361,-0.33 0.325,-0.33L0.237,-0.33L0.18,-0.13C0.169,-0.094 0.164,-0.071 0.164,-0.059C0.164,-0.047 0.169,-0.038 0.177,-0.031C0.186,-0.025 0.208,-0.02 0.243,-0.018L0.237,-0L-0.024,-0L-0.018,-0.018C0.007,-0.019 0.024,-0.021 0.033,-0.025C0.046,-0.03 0.055,-0.038 0.062,-0.047C0.07,-0.061 0.081,-0.088 0.093,-0.13L0.209,-0.529C0.219,-0.561 0.224,-0.586 0.224,-0.604C0.224,-0.613 0.222,-0.62 0.217,-0.626C0.213,-0.632 0.207,-0.637 0.198,-0.64C0.19,-0.643 0.174,-0.644 0.149,-0.644L0.155,-0.662L0.668,-0.662L0.62,-0.495L0.601,-0.495C0.605,-0.515 0.606,-0.531 0.606,-0.544C0.606,-0.566 0.601,-0.583 0.589,-0.595C0.577,-0.608 0.562,-0.617 0.543,-0.622C0.53,-0.625 0.501,-0.627 0.456,-0.627L0.325,-0.627Z" style="fill-rule:nonzero;"/>
                </g>
            </g>
            <g transform="matrix(2.54409,0,0,5.85459,7.55129,206.5)">
                <g transform="matrix(2.45961,0,0,2.45961,0,0)">
                    <path d="M0.325,-0.627L0.247,-0.365L0.334,-0.365C0.373,-0.365 0.402,-0.371 0.422,-0.383C0.441,-0.395 0.461,-0.421 0.481,-0.46L0.5,-0.46L0.431,-0.219L0.412,-0.219C0.417,-0.238 0.419,-0.254 0.419,-0.267C0.419,-0.287 0.412,-0.302 0.399,-0.313C0.386,-0.324 0.361,-0.33 0.325,-0.33L0.237,-0.33L0.18,-0.13C0.169,-0.094 0.164,-0.071 0.164,-0.059C0.164,-0.047 0.169,-0.038 0.177,-0.031C0.186,-0.025 0.208,-0.02 0.243,-0.018L0.237,-0L-0.024,-0L-0.018,-0.018C0.007,-0.019 0.024,-0.021 0.033,-0.025C0.046,-0.03 0.055,-0.038 0.062,-0.047C0.07,-0.061 0.081,-0.088 0.093,-0.13L0.209,-0.529C0.219,-0.561 0.224,-0.586 0.224,-0.604C0.224,-0.613 0.222,-0.62 0.217,-0.626C0.213,-0.632 0.207,-0.637 0.198,-0.64C0.19,-0.643 0.174,-0.644 0.149,-0.644L0.155,-0.662L0.668,-0.662L0.62,-0.495L0.601,-0.495C0.605,-0.515 0.606,-0.531 0.606,-0.544C0.606,-0.566 0.601,-0.583 0.589,-0.595C0.577,-0.608 0.562,-0.617 0.543,-0.622C0.53,-0.625 0.501,-0.627 0.456,-0.627L0.325,-0.627Z" style="fill-rule:nonzero;"/>
                </g>
            </g>
            <g transform="matrix(2.54409,0,0,5.85459,68.9849,171.534)">
                <g transform="matrix(2.45961,0,0,2.45961,0,0)">
                    <path d="M0.325,-0.627L0.247,-0.365L0.334,-0.365C0.373,-0.365 0.402,-0.371 0.422,-0.383C0.441,-0.395 0.461,-0.421 0.481,-0.46L0.5,-0.46L0.431,-0.219L0.412,-0.219C0.417,-0.238 0.419,-0.254 0.419,-0.267C0.419,-0.287 0.412,-0.302 0.399,-0.313C0.386,-0.324 0.361,-0.33 0.325,-0.33L0.237,-0.33L0.18,-0.13C0.169,-0.094 0.164,-0.071 0.164,-0.059C0.164,-0.047 0.169,-0.038 0.177,-0.031C0.186,-0.025 0.208,-0.02 0.243,-0.018L0.237,-0L-0.024,-0L-0.018,-0.018C0.007,-0.019 0.024,-0.021 0.033,-0.025C0.046,-0.03 0.055,-0.038 0.062,-0.047C0.07,-0.061 0.081,-0.088 0.093,-0.13L0.209,-0.529C0.219,-0.561 0.224,-0.586 0.224,-0.604C0.224,-0.613 0.222,-0.62 0.217,-0.626C0.213,-0.632 0.207,-0.637 0.198,-0.64C0.19,-0.643 0.174,-0.644 0.149,-0.644L0.155,-0.662L0.668,-0.662L0.62,-0.495L0.601,-0.495C0.605,-0.515 0.606,-0.531 0.606,-0.544C0.606,-0.566 0.601,-0.583 0.589,-0.595C0.577,-0.608 0.562,-0.617 0.543,-0.622C0.53,-0.625 0.501,-0.627 0.456,-0.627L0.325,-0.627Z" style="fill-rule:nonzero;"/>
                </g>
            </g>
            <g transform="matrix(2.54409,0,0,5.85459,38.0215,146.334)">
                <g transform="matrix(2.45961,0,0,2.45961,0,0)">
                    <path d="M0.317,-0.662L0.378,-0.129L0.762,-0.662L0.924,-0.662L0.924,-0.644C0.889,-0.642 0.868,-0.639 0.862,-0.637C0.851,-0.633 0.841,-0.625 0.832,-0.612C0.823,-0.599 0.814,-0.575 0.803,-0.539L0.681,-0.119C0.674,-0.094 0.67,-0.075 0.67,-0.061C0.67,-0.048 0.674,-0.039 0.683,-0.032C0.695,-0.023 0.715,-0.018 0.742,-0.018L0.753,-0.018L0.749,-0L0.47,-0L0.475,-0.018L0.488,-0.018C0.513,-0.018 0.532,-0.022 0.545,-0.029C0.555,-0.034 0.564,-0.044 0.572,-0.058C0.58,-0.073 0.591,-0.105 0.605,-0.155L0.715,-0.539L0.329,-0L0.309,-0L0.247,-0.539L0.129,-0.129C0.119,-0.094 0.114,-0.071 0.114,-0.059C0.114,-0.047 0.118,-0.037 0.127,-0.031C0.136,-0.025 0.157,-0.02 0.191,-0.018L0.186,-0L-0.033,-0L-0.027,-0.018L-0.014,-0.018C0.018,-0.018 0.041,-0.026 0.056,-0.042C0.066,-0.054 0.077,-0.08 0.088,-0.119L0.232,-0.612C0.222,-0.623 0.211,-0.631 0.202,-0.635C0.192,-0.639 0.174,-0.642 0.147,-0.644L0.152,-0.662L0.317,-0.662Z" style="fill-rule:nonzero;"/>
                </g>
            </g>
            <g transform="matrix(2.54409,0,0,5.85459,106.582,139.366)">
                <g transform="matrix(2.45961,0,0,2.45961,0,0)">
                    <path d="M0.317,-0.662L0.378,-0.129L0.762,-0.662L0.924,-0.662L0.924,-0.644C0.889,-0.642 0.868,-0.639 0.862,-0.637C0.851,-0.633 0.841,-0.625 0.832,-0.612C0.823,-0.599 0.814,-0.575 0.803,-0.539L0.681,-0.119C0.674,-0.094 0.67,-0.075 0.67,-0.061C0.67,-0.048 0.674,-0.039 0.683,-0.032C0.695,-0.023 0.715,-0.018 0.742,-0.018L0.753,-0.018L0.749,-0L0.47,-0L0.475,-0.018L0.488,-0.018C0.513,-0.018 0.532,-0.022 0.545,-0.029C0.555,-0.034 0.564,-0.044 0.572,-0.058C0.58,-0.073 0.591,-0.105 0.605,-0.155L0.715,-0.539L0.329,-0L0.309,-0L0.247,-0.539L0.129,-0.129C0.119,-0.094 0.114,-0.071 0.114,-0.059C0.114,-0.047 0.118,-0.037 0.127,-0.031C0.136,-0.025 0.157,-0.02 0.191,-0.018L0.186,-0L-0.033,-0L-0.027,-0.018L-0.014,-0.018C0.018,-0.018 0.041,-0.026 0.056,-0.042C0.066,-0.054 0.077,-0.08 0.088,-0.119L0.232,-0.612C0.222,-0.623 0.211,-0.631 0.202,-0.635C0.192,-0.639 0.174,-0.642 0.147,-0.644L0.152,-0.662L0.317,-0.662Z" style="fill-rule:nonzero;"/>
                </g>
            </g>
            <g transform="matrix(2.54409,0,0,5.85459,47.8079,127.058)">
                <g transform="matrix(2.45961,0,0,2.45961,0,0)">
                    <path d="M0.287,-0.662L0.491,-0.143L0.602,-0.531C0.611,-0.563 0.616,-0.587 0.616,-0.605C0.616,-0.617 0.611,-0.626 0.603,-0.633C0.595,-0.64 0.579,-0.644 0.556,-0.644C0.552,-0.644 0.548,-0.644 0.543,-0.644L0.549,-0.662L0.762,-0.662L0.756,-0.644C0.734,-0.644 0.717,-0.642 0.707,-0.637C0.691,-0.63 0.68,-0.622 0.672,-0.611C0.662,-0.596 0.651,-0.569 0.641,-0.531L0.485,0.015L0.467,0.015L0.247,-0.543L0.129,-0.131C0.121,-0.1 0.116,-0.076 0.116,-0.059C0.116,-0.047 0.12,-0.037 0.128,-0.031C0.136,-0.025 0.155,-0.02 0.185,-0.018L0.18,-0L-0.028,-0L-0.021,-0.018C0.005,-0.019 0.022,-0.021 0.031,-0.025C0.045,-0.031 0.055,-0.038 0.061,-0.048C0.07,-0.062 0.081,-0.09 0.093,-0.131L0.224,-0.591C0.211,-0.611 0.198,-0.624 0.183,-0.632C0.169,-0.639 0.146,-0.643 0.116,-0.644L0.121,-0.662L0.287,-0.662Z" style="fill-rule:nonzero;"/>
                </g>
            </g>
            <g transform="matrix(2.54409,0,0,5.85459,100.294,194.993)">
                <g transform="matrix(2.45961,0,0,2.45961,0,0)">
                    <path d="M0.287,-0.662L0.491,-0.143L0.602,-0.531C0.611,-0.563 0.616,-0.587 0.616,-0.605C0.616,-0.617 0.611,-0.626 0.603,-0.633C0.595,-0.64 0.579,-0.644 0.556,-0.644C0.552,-0.644 0.548,-0.644 0.543,-0.644L0.549,-0.662L0.762,-0.662L0.756,-0.644C0.734,-0.644 0.717,-0.642 0.707,-0.637C0.691,-0.63 0.68,-0.622 0.672,-0.611C0.662,-0.596 0.651,-0.569 0.641,-0.531L0.485,0.015L0.467,0.015L0.247,-0.543L0.129,-0.131C0.121,-0.1 0.116,-0.076 0.116,-0.059C0.116,-0.047 0.12,-0.037 0.128,-0.031C0.136,-0.025 0.155,-0.02 0.185,-0.018L0.18,-0L-0.028,-0L-0.021,-0.018C0.005,-0.019 0.022,-0.021 0.031,-0.025C0.045,-0.031 0.055,-0.038 0.061,-0.048C0.07,-0.062 0.081,-0.09 0.093,-0.131L0.224,-0.591C0.211,-0.611 0.198,-0.624 0.183,-0.632C0.169,-0.639 0.146,-0.643 0.116,-0.644L0.121,-0.662L0.287,-0.662Z" style="fill-rule:nonzero;"/>
                </g>
            </g>
            <g transform="matrix(2.54409,0,0,5.85459,51.7922,196.748)">
                <g transform="matrix(2.45961,0,0,2.45961,0,0)">
                    <path d="M0.152,0.015L0.207,-0.536C0.209,-0.564 0.21,-0.583 0.21,-0.593C0.21,-0.607 0.205,-0.62 0.194,-0.629C0.183,-0.639 0.166,-0.644 0.143,-0.644L0.125,-0.644L0.13,-0.662L0.391,-0.662L0.386,-0.644C0.357,-0.644 0.338,-0.641 0.327,-0.635C0.317,-0.63 0.308,-0.62 0.302,-0.607C0.299,-0.6 0.296,-0.579 0.292,-0.546L0.253,-0.151L0.511,-0.503C0.539,-0.542 0.557,-0.568 0.564,-0.583C0.569,-0.593 0.571,-0.602 0.571,-0.609C0.571,-0.618 0.568,-0.626 0.56,-0.632C0.553,-0.639 0.539,-0.643 0.518,-0.644L0.524,-0.662L0.723,-0.662L0.718,-0.644C0.702,-0.643 0.69,-0.64 0.68,-0.635C0.662,-0.626 0.644,-0.613 0.627,-0.596C0.609,-0.579 0.581,-0.544 0.542,-0.492L0.169,0.015L0.152,0.015Z" style="fill-rule:nonzero;"/>
                </g>
            </g>
            <g transform="matrix(2.54409,0,0,5.85459,95.5944,126.041)">
                <g transform="matrix(2.45961,0,0,2.45961,0,0)">
                    <path d="M0.152,0.015L0.207,-0.536C0.209,-0.564 0.21,-0.583 0.21,-0.593C0.21,-0.607 0.205,-0.62 0.194,-0.629C0.183,-0.639 0.166,-0.644 0.143,-0.644L0.125,-0.644L0.13,-0.662L0.391,-0.662L0.386,-0.644C0.357,-0.644 0.338,-0.641 0.327,-0.635C0.317,-0.63 0.308,-0.62 0.302,-0.607C0.299,-0.6 0.296,-0.579 0.292,-0.546L0.253,-0.151L0.511,-0.503C0.539,-0.542 0.557,-0.568 0.564,-0.583C0.569,-0.593 0.571,-0.602 0.571,-0.609C0.571,-0.618 0.568,-0.626 0.56,-0.632C0.553,-0.639 0.539,-0.643 0.518,-0.644L0.524,-0.662L0.723,-0.662L0.718,-0.644C0.702,-0.643 0.69,-0.64 0.68,-0.635C0.662,-0.626 0.644,-0.613 0.627,-0.596C0.609,-0.579 0.581,-0.544 0.542,-0.492L0.169,0.015L0.152,0.015Z" style="fill-rule:nonzero;"/>
                </g>
            </g>
        </g>
    </g>
</svg>
