<?xml version="1.0" encoding="UTF-8" standalone="no"?>
<!DOCTYPE svg PUBLIC "-//W3C//DTD SVG 1.1//EN" "http://www.w3.org/Graphics/SVG/1.1/DTD/svg11.dtd">
<svg width="100%" height="100%" viewBox="0 0 140 147" version="1.1" xmlns="http://www.w3.org/2000/svg" xmlns:xlink="http://www.w3.org/1999/xlink" xml:space="preserve" xmlns:serif="http://www.serif.com/" style="fill-rule:evenodd;clip-rule:evenodd;stroke-linecap:round;stroke-linejoin:round;stroke-miterlimit:1.5;">
    <g id="examples-fillet" transform="matrix(0.964564,0,0,1,260.501,-31.3672)">
        <rect x="-270.072" y="31.367" width="145.143" height="146.454" style="fill:none;"/>
        <clipPath id="_clip1">
            <rect x="-270.072" y="31.367" width="145.143" height="146.454"/>
        </clipPath>
        <g clip-path="url(#_clip1)">
            <g transform="matrix(1.07821,0,0,1,-282.824,55.6172)">
                <g transform="matrix(0.961538,-0,-0,1,11.8269,-24.25)">
                    <path d="M132.2,117.15L138.5,119.25L132.2,121.35L132.2,117.15Z"/>
                    <path d="M8.5,119.25L133.46,119.25" style="fill:none;stroke:black;stroke-width:0.7px;"/>
                </g>
            </g>
            <g transform="matrix(1.03674,0,0,1,-270.072,31.3672)">
                <path d="M28.5,19.25L58.5,19.25L58.5,59.25L58.502,59.25C58.502,75.817 71.933,89.248 88.5,89.248L88.5,89.25L118.601,89.25L118.601,119.25L28.5,119.25L28.5,19.25Z" style="fill:rgb(242,242,242);stroke:black;stroke-width:1px;"/>
            </g>
            <g transform="matrix(8.45354e-17,-1.12,0.981236,4.51539e-17,-333.742,193.017)">
                <g transform="matrix(4.25964e-17,1.05656,-0.892857,7.69214e-17,144.33,64.888)">
                    <path d="M26.4,5.55L28.5,-0.75L30.6,5.55L26.4,5.55Z"/>
                    <path d="M28.5,139.25L28.5,4.29" style="fill:none;stroke:black;stroke-width:0.7px;"/>
                </g>
            </g>
            <g transform="matrix(1.03674,2.44929e-16,-2.36311e-16,0.930624,11.477,-102.36)">
                <path d="M-213.072,150.25L-213.072,161.32" style="fill:none;stroke:black;stroke-width:0.67px;"/>
            </g>
            <g transform="matrix(-1.90446e-16,1,-0.964814,-1.70953e-16,10.8387,333.689)">
                <path d="M-213.072,150.25L-213.072,161.32" style="fill:none;stroke:black;stroke-width:0.67px;"/>
            </g>
            <g transform="matrix(-1.90446e-16,1,-0.964814,-1.70953e-16,-28.0171,303.689)">
                <path d="M-213.072,150.25L-213.072,161.32" style="fill:none;stroke:black;stroke-width:0.67px;"/>
            </g>
            <g transform="matrix(-1.90446e-16,1,-0.964814,-1.70953e-16,-97.7908,263.689)">
                <path d="M-213.072,150.25L-213.072,161.32" style="fill:none;stroke:black;stroke-width:0.67px;"/>
            </g>
            <g transform="matrix(1.03674,0,0,1.03016,10.8843,-69.3145)">
                <path d="M-182.5,150.25L-182.5,160.25" style="fill:none;stroke:black;stroke-width:0.64px;"/>
            </g>
            <g transform="matrix(1.03674,0,0,1.03016,42.0914,-2.08864)">
                <path d="M-182.5,150.25L-182.5,160.25" style="fill:none;stroke:black;stroke-width:0.64px;"/>
            </g>
            <g transform="matrix(1.03674,0,0,1,-269.399,90.427)">
                <g transform="matrix(12,0,0,12,130,70)">
                    <path d="M0.053,-0.051C0.053,-0.067 0.058,-0.08 0.068,-0.09C0.078,-0.1 0.09,-0.105 0.103,-0.105C0.126,-0.105 0.137,-0.094 0.137,-0.073C0.137,-0.064 0.134,-0.054 0.128,-0.044C0.121,-0.035 0.111,-0.028 0.098,-0.025C0.109,-0.016 0.123,-0.011 0.14,-0.011L0.142,-0.011C0.156,-0.011 0.169,-0.015 0.179,-0.023C0.19,-0.031 0.2,-0.043 0.208,-0.06C0.215,-0.077 0.221,-0.091 0.225,-0.104C0.229,-0.118 0.234,-0.135 0.239,-0.156C0.247,-0.188 0.255,-0.219 0.262,-0.247C0.276,-0.304 0.283,-0.341 0.283,-0.357C0.283,-0.377 0.279,-0.392 0.27,-0.403C0.261,-0.414 0.25,-0.42 0.235,-0.42C0.213,-0.42 0.191,-0.409 0.168,-0.388C0.146,-0.367 0.129,-0.336 0.116,-0.295C0.114,-0.287 0.112,-0.282 0.11,-0.28C0.109,-0.279 0.105,-0.278 0.098,-0.278C0.088,-0.278 0.083,-0.281 0.083,-0.288C0.083,-0.295 0.087,-0.306 0.094,-0.322C0.101,-0.338 0.11,-0.355 0.122,-0.374C0.134,-0.392 0.15,-0.408 0.171,-0.421C0.192,-0.435 0.214,-0.442 0.237,-0.442C0.284,-0.442 0.316,-0.419 0.333,-0.374C0.341,-0.389 0.354,-0.404 0.37,-0.419C0.387,-0.434 0.407,-0.442 0.431,-0.442C0.451,-0.442 0.47,-0.437 0.49,-0.427C0.509,-0.418 0.518,-0.402 0.518,-0.379C0.518,-0.362 0.513,-0.349 0.502,-0.34C0.491,-0.331 0.48,-0.326 0.469,-0.326C0.457,-0.326 0.448,-0.33 0.443,-0.336C0.437,-0.343 0.434,-0.35 0.434,-0.358C0.434,-0.361 0.434,-0.365 0.435,-0.369C0.436,-0.374 0.439,-0.38 0.446,-0.389C0.453,-0.398 0.462,-0.403 0.474,-0.406C0.463,-0.415 0.449,-0.42 0.43,-0.42C0.391,-0.42 0.361,-0.384 0.342,-0.313C0.326,-0.248 0.315,-0.202 0.308,-0.176C0.295,-0.122 0.289,-0.088 0.289,-0.075C0.289,-0.052 0.294,-0.035 0.303,-0.026C0.312,-0.016 0.323,-0.011 0.336,-0.011C0.359,-0.011 0.381,-0.022 0.403,-0.043C0.425,-0.065 0.442,-0.096 0.455,-0.136C0.458,-0.144 0.46,-0.149 0.461,-0.151C0.463,-0.152 0.467,-0.153 0.473,-0.153C0.483,-0.153 0.488,-0.15 0.488,-0.143C0.488,-0.137 0.484,-0.126 0.478,-0.111C0.471,-0.095 0.462,-0.078 0.45,-0.059C0.438,-0.04 0.422,-0.024 0.401,-0.01C0.38,0.004 0.358,0.011 0.334,0.011C0.316,0.011 0.298,0.006 0.28,-0.004C0.261,-0.014 0.248,-0.032 0.239,-0.057C0.213,-0.012 0.18,0.011 0.141,0.011C0.117,0.011 0.096,0.006 0.079,-0.006C0.062,-0.017 0.053,-0.032 0.053,-0.051Z" style="fill-rule:nonzero;"/>
                </g>
            </g>
            <g transform="matrix(1.03674,0,0,1,18.2053,8.65629)">
                <g transform="matrix(12,0,0,12,-262.5,29.5)">
                    <path d="M0.083,-0.288C0.083,-0.29 0.084,-0.296 0.087,-0.306C0.09,-0.316 0.094,-0.329 0.101,-0.344C0.108,-0.36 0.116,-0.375 0.125,-0.39C0.135,-0.404 0.147,-0.416 0.162,-0.427C0.177,-0.437 0.194,-0.442 0.211,-0.442C0.233,-0.442 0.251,-0.435 0.266,-0.42C0.28,-0.405 0.287,-0.386 0.287,-0.361C0.287,-0.347 0.283,-0.33 0.274,-0.307C0.235,-0.202 0.216,-0.129 0.216,-0.088C0.216,-0.037 0.234,-0.011 0.27,-0.011L0.27,-0.011C0.297,-0.011 0.32,-0.021 0.34,-0.042C0.359,-0.062 0.371,-0.081 0.376,-0.1L0.449,-0.394C0.455,-0.419 0.468,-0.431 0.488,-0.431C0.497,-0.431 0.504,-0.428 0.509,-0.423C0.514,-0.418 0.516,-0.412 0.516,-0.405C0.516,-0.403 0.516,-0.401 0.515,-0.398C0.514,-0.396 0.513,-0.393 0.513,-0.391L0.415,0.003C0.402,0.056 0.374,0.103 0.332,0.144C0.29,0.185 0.244,0.205 0.195,0.205C0.167,0.205 0.144,0.197 0.126,0.182C0.108,0.166 0.099,0.145 0.099,0.119C0.099,0.103 0.103,0.089 0.11,0.079C0.117,0.068 0.124,0.062 0.131,0.06C0.138,0.058 0.144,0.057 0.15,0.057C0.159,0.057 0.167,0.06 0.174,0.066C0.181,0.071 0.184,0.079 0.184,0.089C0.184,0.099 0.18,0.109 0.173,0.119C0.166,0.129 0.155,0.135 0.141,0.137C0.136,0.138 0.133,0.139 0.133,0.14C0.133,0.143 0.135,0.147 0.138,0.154C0.141,0.16 0.148,0.166 0.158,0.173C0.168,0.18 0.18,0.183 0.195,0.183C0.225,0.183 0.256,0.167 0.286,0.135C0.316,0.102 0.34,0.049 0.357,-0.026C0.332,-0.001 0.302,0.011 0.267,0.011C0.236,0.011 0.209,0.002 0.188,-0.017C0.166,-0.036 0.155,-0.065 0.155,-0.105C0.155,-0.142 0.172,-0.208 0.207,-0.301C0.223,-0.345 0.231,-0.375 0.231,-0.391C0.231,-0.41 0.224,-0.42 0.209,-0.42C0.169,-0.42 0.138,-0.378 0.116,-0.294C0.114,-0.286 0.112,-0.282 0.11,-0.28C0.108,-0.279 0.104,-0.278 0.098,-0.278C0.088,-0.278 0.083,-0.282 0.083,-0.288Z" style="fill-rule:nonzero;"/>
                </g>
            </g>
            <g transform="matrix(1.03674,0,0,1,-234.652,0.136031)">
                <g transform="matrix(8,0,0,8,34,160.25)">
                    <path d="M0.042,-0.441C0.042,-0.476 0.047,-0.506 0.058,-0.531C0.068,-0.555 0.084,-0.579 0.106,-0.603C0.146,-0.645 0.195,-0.666 0.253,-0.666C0.278,-0.666 0.301,-0.661 0.323,-0.65C0.345,-0.64 0.366,-0.623 0.387,-0.599C0.408,-0.576 0.425,-0.541 0.438,-0.494C0.451,-0.448 0.457,-0.393 0.457,-0.329C0.457,-0.226 0.432,-0.142 0.382,-0.076C0.332,-0.011 0.273,0.022 0.206,0.022C0.163,0.022 0.13,0.012 0.104,-0.007C0.079,-0.026 0.067,-0.053 0.067,-0.086C0.067,-0.103 0.072,-0.115 0.082,-0.123C0.091,-0.13 0.102,-0.134 0.113,-0.134C0.125,-0.134 0.136,-0.13 0.145,-0.122C0.154,-0.114 0.159,-0.103 0.159,-0.088C0.159,-0.076 0.155,-0.065 0.148,-0.056C0.14,-0.047 0.126,-0.042 0.107,-0.042C0.126,-0.018 0.159,-0.006 0.205,-0.006C0.222,-0.006 0.238,-0.01 0.255,-0.017C0.271,-0.025 0.289,-0.038 0.307,-0.057C0.325,-0.076 0.34,-0.105 0.351,-0.144C0.362,-0.183 0.367,-0.231 0.367,-0.286L0.367,-0.318C0.34,-0.251 0.299,-0.218 0.242,-0.218C0.186,-0.218 0.139,-0.239 0.1,-0.282C0.061,-0.325 0.042,-0.378 0.042,-0.441ZM0.132,-0.44C0.132,-0.374 0.138,-0.329 0.15,-0.304C0.17,-0.262 0.201,-0.241 0.243,-0.241C0.284,-0.241 0.314,-0.259 0.335,-0.296C0.355,-0.332 0.365,-0.374 0.365,-0.421C0.365,-0.486 0.36,-0.533 0.349,-0.562C0.329,-0.615 0.297,-0.641 0.253,-0.641C0.209,-0.641 0.176,-0.62 0.153,-0.578C0.139,-0.553 0.132,-0.507 0.132,-0.44Z" style="fill-rule:nonzero;"/>
                </g>
                <g transform="matrix(8,0,0,8,40.6602,160.25)">
                    <path d="M0.033,-0L0.033,-0.031C0.069,-0.031 0.09,-0.033 0.099,-0.037C0.107,-0.042 0.111,-0.055 0.111,-0.076L0.111,-0.345C0.111,-0.37 0.107,-0.385 0.098,-0.391C0.09,-0.397 0.07,-0.4 0.037,-0.4L0.037,-0.431L0.177,-0.442L0.177,-0.075C0.177,-0.055 0.18,-0.043 0.188,-0.038C0.195,-0.033 0.215,-0.031 0.247,-0.031L0.247,-0C0.179,-0.002 0.144,-0.003 0.143,-0.003C0.134,-0.003 0.097,-0.002 0.033,-0ZM0.075,-0.616C0.075,-0.63 0.08,-0.642 0.091,-0.653C0.101,-0.663 0.113,-0.669 0.128,-0.669C0.143,-0.669 0.155,-0.664 0.166,-0.654C0.176,-0.644 0.181,-0.631 0.181,-0.616C0.181,-0.601 0.176,-0.588 0.166,-0.578C0.155,-0.568 0.143,-0.563 0.128,-0.563C0.113,-0.563 0.1,-0.568 0.09,-0.579C0.08,-0.59 0.075,-0.602 0.075,-0.616Z" style="fill-rule:nonzero;"/>
                </g>
                <g transform="matrix(8,0,0,8,42.875,160.25)">
                    <path d="M0.032,-0L0.032,-0.031C0.068,-0.031 0.09,-0.033 0.098,-0.037C0.106,-0.042 0.11,-0.055 0.11,-0.076L0.11,-0.344C0.11,-0.369 0.106,-0.384 0.097,-0.391C0.088,-0.397 0.067,-0.4 0.032,-0.4L0.032,-0.431L0.173,-0.442L0.173,-0.337C0.204,-0.407 0.253,-0.442 0.321,-0.442C0.371,-0.442 0.406,-0.43 0.426,-0.405C0.44,-0.388 0.449,-0.371 0.452,-0.352C0.455,-0.333 0.457,-0.3 0.457,-0.252L0.457,-0.061C0.458,-0.047 0.463,-0.038 0.474,-0.035C0.485,-0.032 0.505,-0.031 0.535,-0.031L0.535,-0C0.467,-0.002 0.43,-0.003 0.423,-0.003C0.418,-0.003 0.38,-0.002 0.31,-0L0.31,-0.031C0.346,-0.031 0.367,-0.033 0.376,-0.037C0.384,-0.042 0.388,-0.055 0.388,-0.076L0.388,-0.309C0.388,-0.343 0.383,-0.37 0.373,-0.39C0.362,-0.41 0.343,-0.42 0.314,-0.42C0.279,-0.42 0.248,-0.405 0.221,-0.376C0.193,-0.347 0.179,-0.309 0.179,-0.26L0.179,-0.076C0.179,-0.055 0.183,-0.042 0.192,-0.037C0.2,-0.033 0.222,-0.031 0.257,-0.031L0.257,-0C0.189,-0.002 0.152,-0.003 0.145,-0.003C0.14,-0.003 0.102,-0.002 0.032,-0Z" style="fill-rule:nonzero;"/>
                </g>
            </g>
            <g transform="matrix(1.03674,0,0,1,-301.13,-57.0449)">
                <g transform="matrix(8,0,0,8,34,160.25)">
                    <path d="M0.089,-0.571L0.089,-0.602C0.169,-0.602 0.23,-0.623 0.271,-0.666C0.282,-0.666 0.289,-0.665 0.291,-0.662C0.293,-0.66 0.294,-0.652 0.294,-0.64L0.294,-0.079C0.294,-0.059 0.299,-0.046 0.309,-0.04C0.318,-0.034 0.345,-0.031 0.387,-0.031L0.419,-0.031L0.419,-0C0.396,-0.002 0.341,-0.003 0.257,-0.003C0.172,-0.003 0.118,-0.002 0.095,-0L0.095,-0.031L0.127,-0.031C0.169,-0.031 0.195,-0.034 0.205,-0.04C0.215,-0.046 0.22,-0.059 0.22,-0.079L0.22,-0.597C0.185,-0.58 0.142,-0.571 0.089,-0.571Z" style="fill-rule:nonzero;"/>
                </g>
                <g transform="matrix(8,0,0,8,38,160.25)">
                    <path d="M0.039,-0.32C0.039,-0.418 0.051,-0.493 0.076,-0.547C0.111,-0.626 0.169,-0.666 0.25,-0.666C0.267,-0.666 0.285,-0.664 0.303,-0.659C0.321,-0.654 0.342,-0.643 0.365,-0.625C0.387,-0.607 0.406,-0.583 0.42,-0.554C0.447,-0.498 0.46,-0.419 0.46,-0.32C0.46,-0.222 0.448,-0.147 0.423,-0.094C0.387,-0.017 0.329,0.022 0.249,0.022C0.219,0.022 0.189,0.014 0.158,-0.001C0.128,-0.016 0.103,-0.042 0.084,-0.079C0.054,-0.134 0.039,-0.214 0.039,-0.32ZM0.122,-0.332C0.122,-0.231 0.126,-0.161 0.133,-0.121C0.141,-0.078 0.156,-0.047 0.178,-0.028C0.201,-0.009 0.224,-0 0.249,-0C0.276,-0 0.3,-0.01 0.323,-0.03C0.345,-0.05 0.359,-0.082 0.366,-0.125C0.374,-0.168 0.377,-0.237 0.377,-0.332C0.377,-0.425 0.374,-0.49 0.367,-0.527C0.358,-0.57 0.342,-0.601 0.319,-0.618C0.296,-0.635 0.272,-0.644 0.249,-0.644C0.24,-0.644 0.231,-0.643 0.222,-0.64C0.213,-0.638 0.201,-0.632 0.188,-0.625C0.175,-0.618 0.163,-0.604 0.153,-0.586C0.142,-0.567 0.135,-0.544 0.13,-0.516C0.125,-0.48 0.122,-0.419 0.122,-0.332Z" style="fill-rule:nonzero;"/>
                </g>
                <g transform="matrix(8,0,0,8,44.6602,160.25)">
                    <path d="M0.033,-0L0.033,-0.031C0.069,-0.031 0.09,-0.033 0.099,-0.037C0.107,-0.042 0.111,-0.055 0.111,-0.076L0.111,-0.345C0.111,-0.37 0.107,-0.385 0.098,-0.391C0.09,-0.397 0.07,-0.4 0.037,-0.4L0.037,-0.431L0.177,-0.442L0.177,-0.075C0.177,-0.055 0.18,-0.043 0.188,-0.038C0.195,-0.033 0.215,-0.031 0.247,-0.031L0.247,-0C0.179,-0.002 0.144,-0.003 0.143,-0.003C0.134,-0.003 0.097,-0.002 0.033,-0ZM0.075,-0.616C0.075,-0.63 0.08,-0.642 0.091,-0.653C0.101,-0.663 0.113,-0.669 0.128,-0.669C0.143,-0.669 0.155,-0.664 0.166,-0.654C0.176,-0.644 0.181,-0.631 0.181,-0.616C0.181,-0.601 0.176,-0.588 0.166,-0.578C0.155,-0.568 0.143,-0.563 0.128,-0.563C0.113,-0.563 0.1,-0.568 0.09,-0.579C0.08,-0.59 0.075,-0.602 0.075,-0.616Z" style="fill-rule:nonzero;"/>
                </g>
                <g transform="matrix(8,0,0,8,46.875,160.25)">
                    <path d="M0.032,-0L0.032,-0.031C0.068,-0.031 0.09,-0.033 0.098,-0.037C0.106,-0.042 0.11,-0.055 0.11,-0.076L0.11,-0.344C0.11,-0.369 0.106,-0.384 0.097,-0.391C0.088,-0.397 0.067,-0.4 0.032,-0.4L0.032,-0.431L0.173,-0.442L0.173,-0.337C0.204,-0.407 0.253,-0.442 0.321,-0.442C0.371,-0.442 0.406,-0.43 0.426,-0.405C0.44,-0.388 0.449,-0.371 0.452,-0.352C0.455,-0.333 0.457,-0.3 0.457,-0.252L0.457,-0.061C0.458,-0.047 0.463,-0.038 0.474,-0.035C0.485,-0.032 0.505,-0.031 0.535,-0.031L0.535,-0C0.467,-0.002 0.43,-0.003 0.423,-0.003C0.418,-0.003 0.38,-0.002 0.31,-0L0.31,-0.031C0.346,-0.031 0.367,-0.033 0.376,-0.037C0.384,-0.042 0.388,-0.055 0.388,-0.076L0.388,-0.309C0.388,-0.343 0.383,-0.37 0.373,-0.39C0.362,-0.41 0.343,-0.42 0.314,-0.42C0.279,-0.42 0.248,-0.405 0.221,-0.376C0.193,-0.347 0.179,-0.309 0.179,-0.26L0.179,-0.076C0.179,-0.055 0.183,-0.042 0.192,-0.037C0.2,-0.033 0.222,-0.031 0.257,-0.031L0.257,-0C0.189,-0.002 0.152,-0.003 0.145,-0.003C0.14,-0.003 0.102,-0.002 0.032,-0Z" style="fill-rule:nonzero;"/>
                </g>
            </g>
            <g transform="matrix(1.03674,0,0,1,-177.067,-21.957)">
                <g transform="matrix(8,0,0,8,34,160.25)">
                    <path d="M0.042,-0.135C0.042,-0.155 0.048,-0.169 0.059,-0.179C0.07,-0.188 0.083,-0.193 0.098,-0.193C0.113,-0.193 0.127,-0.188 0.137,-0.178C0.148,-0.168 0.154,-0.154 0.154,-0.137C0.154,-0.119 0.147,-0.104 0.135,-0.094C0.122,-0.083 0.106,-0.079 0.088,-0.082C0.104,-0.055 0.127,-0.036 0.156,-0.024C0.185,-0.012 0.214,-0.006 0.241,-0.006C0.27,-0.006 0.296,-0.018 0.319,-0.043C0.342,-0.068 0.354,-0.11 0.354,-0.171C0.354,-0.222 0.344,-0.263 0.324,-0.292C0.304,-0.322 0.274,-0.337 0.235,-0.337L0.191,-0.337C0.181,-0.337 0.174,-0.337 0.171,-0.338C0.168,-0.339 0.167,-0.343 0.167,-0.348C0.167,-0.355 0.172,-0.359 0.182,-0.36C0.192,-0.36 0.205,-0.361 0.221,-0.363C0.26,-0.364 0.29,-0.382 0.31,-0.415C0.329,-0.446 0.338,-0.484 0.338,-0.529C0.338,-0.569 0.328,-0.598 0.309,-0.615C0.289,-0.633 0.267,-0.641 0.242,-0.641C0.219,-0.641 0.194,-0.636 0.168,-0.626C0.143,-0.617 0.123,-0.601 0.109,-0.579C0.15,-0.579 0.171,-0.562 0.171,-0.529C0.171,-0.514 0.166,-0.502 0.157,-0.492C0.148,-0.483 0.135,-0.478 0.12,-0.478C0.105,-0.478 0.093,-0.483 0.083,-0.492C0.074,-0.501 0.069,-0.514 0.069,-0.53C0.069,-0.568 0.086,-0.6 0.12,-0.626C0.154,-0.653 0.196,-0.666 0.246,-0.666C0.296,-0.666 0.339,-0.653 0.375,-0.627C0.412,-0.601 0.43,-0.568 0.43,-0.528C0.43,-0.488 0.417,-0.453 0.391,-0.42C0.365,-0.388 0.331,-0.365 0.29,-0.352C0.341,-0.342 0.381,-0.32 0.412,-0.285C0.442,-0.251 0.457,-0.213 0.457,-0.171C0.457,-0.119 0.437,-0.074 0.396,-0.035C0.354,0.003 0.304,0.022 0.244,0.022C0.189,0.022 0.141,0.007 0.102,-0.023C0.062,-0.053 0.042,-0.09 0.042,-0.135Z" style="fill-rule:nonzero;"/>
                </g>
                <g transform="matrix(8,0,0,8,40.6602,160.25)">
                    <path d="M0.033,-0L0.033,-0.031C0.069,-0.031 0.09,-0.033 0.099,-0.037C0.107,-0.042 0.111,-0.055 0.111,-0.076L0.111,-0.345C0.111,-0.37 0.107,-0.385 0.098,-0.391C0.09,-0.397 0.07,-0.4 0.037,-0.4L0.037,-0.431L0.177,-0.442L0.177,-0.075C0.177,-0.055 0.18,-0.043 0.188,-0.038C0.195,-0.033 0.215,-0.031 0.247,-0.031L0.247,-0C0.179,-0.002 0.144,-0.003 0.143,-0.003C0.134,-0.003 0.097,-0.002 0.033,-0ZM0.075,-0.616C0.075,-0.63 0.08,-0.642 0.091,-0.653C0.101,-0.663 0.113,-0.669 0.128,-0.669C0.143,-0.669 0.155,-0.664 0.166,-0.654C0.176,-0.644 0.181,-0.631 0.181,-0.616C0.181,-0.601 0.176,-0.588 0.166,-0.578C0.155,-0.568 0.143,-0.563 0.128,-0.563C0.113,-0.563 0.1,-0.568 0.09,-0.579C0.08,-0.59 0.075,-0.602 0.075,-0.616Z" style="fill-rule:nonzero;"/>
                </g>
                <g transform="matrix(8,0,0,8,42.875,160.25)">
                    <path d="M0.032,-0L0.032,-0.031C0.068,-0.031 0.09,-0.033 0.098,-0.037C0.106,-0.042 0.11,-0.055 0.11,-0.076L0.11,-0.344C0.11,-0.369 0.106,-0.384 0.097,-0.391C0.088,-0.397 0.067,-0.4 0.032,-0.4L0.032,-0.431L0.173,-0.442L0.173,-0.337C0.204,-0.407 0.253,-0.442 0.321,-0.442C0.371,-0.442 0.406,-0.43 0.426,-0.405C0.44,-0.388 0.449,-0.371 0.452,-0.352C0.455,-0.333 0.457,-0.3 0.457,-0.252L0.457,-0.061C0.458,-0.047 0.463,-0.038 0.474,-0.035C0.485,-0.032 0.505,-0.031 0.535,-0.031L0.535,-0C0.467,-0.002 0.43,-0.003 0.423,-0.003C0.418,-0.003 0.38,-0.002 0.31,-0L0.31,-0.031C0.346,-0.031 0.367,-0.033 0.376,-0.037C0.384,-0.042 0.388,-0.055 0.388,-0.076L0.388,-0.309C0.388,-0.343 0.383,-0.37 0.373,-0.39C0.362,-0.41 0.343,-0.42 0.314,-0.42C0.279,-0.42 0.248,-0.405 0.221,-0.376C0.193,-0.347 0.179,-0.309 0.179,-0.26L0.179,-0.076C0.179,-0.055 0.183,-0.042 0.192,-0.037C0.2,-0.033 0.222,-0.031 0.257,-0.031L0.257,-0C0.189,-0.002 0.152,-0.003 0.145,-0.003C0.14,-0.003 0.102,-0.002 0.032,-0Z" style="fill-rule:nonzero;"/>
                </g>
            </g>
            <g transform="matrix(1.03674,0,0,1,-237.576,-74.4539)">
                <g transform="matrix(8,0,0,8,34,160.25)">
                    <path d="M0.042,-0.135C0.042,-0.155 0.048,-0.169 0.059,-0.179C0.07,-0.188 0.083,-0.193 0.098,-0.193C0.113,-0.193 0.127,-0.188 0.137,-0.178C0.148,-0.168 0.154,-0.154 0.154,-0.137C0.154,-0.119 0.147,-0.104 0.135,-0.094C0.122,-0.083 0.106,-0.079 0.088,-0.082C0.104,-0.055 0.127,-0.036 0.156,-0.024C0.185,-0.012 0.214,-0.006 0.241,-0.006C0.27,-0.006 0.296,-0.018 0.319,-0.043C0.342,-0.068 0.354,-0.11 0.354,-0.171C0.354,-0.222 0.344,-0.263 0.324,-0.292C0.304,-0.322 0.274,-0.337 0.235,-0.337L0.191,-0.337C0.181,-0.337 0.174,-0.337 0.171,-0.338C0.168,-0.339 0.167,-0.343 0.167,-0.348C0.167,-0.355 0.172,-0.359 0.182,-0.36C0.192,-0.36 0.205,-0.361 0.221,-0.363C0.26,-0.364 0.29,-0.382 0.31,-0.415C0.329,-0.446 0.338,-0.484 0.338,-0.529C0.338,-0.569 0.328,-0.598 0.309,-0.615C0.289,-0.633 0.267,-0.641 0.242,-0.641C0.219,-0.641 0.194,-0.636 0.168,-0.626C0.143,-0.617 0.123,-0.601 0.109,-0.579C0.15,-0.579 0.171,-0.562 0.171,-0.529C0.171,-0.514 0.166,-0.502 0.157,-0.492C0.148,-0.483 0.135,-0.478 0.12,-0.478C0.105,-0.478 0.093,-0.483 0.083,-0.492C0.074,-0.501 0.069,-0.514 0.069,-0.53C0.069,-0.568 0.086,-0.6 0.12,-0.626C0.154,-0.653 0.196,-0.666 0.246,-0.666C0.296,-0.666 0.339,-0.653 0.375,-0.627C0.412,-0.601 0.43,-0.568 0.43,-0.528C0.43,-0.488 0.417,-0.453 0.391,-0.42C0.365,-0.388 0.331,-0.365 0.29,-0.352C0.341,-0.342 0.381,-0.32 0.412,-0.285C0.442,-0.251 0.457,-0.213 0.457,-0.171C0.457,-0.119 0.437,-0.074 0.396,-0.035C0.354,0.003 0.304,0.022 0.244,0.022C0.189,0.022 0.141,0.007 0.102,-0.023C0.062,-0.053 0.042,-0.09 0.042,-0.135Z" style="fill-rule:nonzero;"/>
                </g>
                <g transform="matrix(8,0,0,8,40.6602,160.25)">
                    <path d="M0.033,-0L0.033,-0.031C0.069,-0.031 0.09,-0.033 0.099,-0.037C0.107,-0.042 0.111,-0.055 0.111,-0.076L0.111,-0.345C0.111,-0.37 0.107,-0.385 0.098,-0.391C0.09,-0.397 0.07,-0.4 0.037,-0.4L0.037,-0.431L0.177,-0.442L0.177,-0.075C0.177,-0.055 0.18,-0.043 0.188,-0.038C0.195,-0.033 0.215,-0.031 0.247,-0.031L0.247,-0C0.179,-0.002 0.144,-0.003 0.143,-0.003C0.134,-0.003 0.097,-0.002 0.033,-0ZM0.075,-0.616C0.075,-0.63 0.08,-0.642 0.091,-0.653C0.101,-0.663 0.113,-0.669 0.128,-0.669C0.143,-0.669 0.155,-0.664 0.166,-0.654C0.176,-0.644 0.181,-0.631 0.181,-0.616C0.181,-0.601 0.176,-0.588 0.166,-0.578C0.155,-0.568 0.143,-0.563 0.128,-0.563C0.113,-0.563 0.1,-0.568 0.09,-0.579C0.08,-0.59 0.075,-0.602 0.075,-0.616Z" style="fill-rule:nonzero;"/>
                </g>
                <g transform="matrix(8,0,0,8,42.875,160.25)">
                    <path d="M0.032,-0L0.032,-0.031C0.068,-0.031 0.09,-0.033 0.098,-0.037C0.106,-0.042 0.11,-0.055 0.11,-0.076L0.11,-0.344C0.11,-0.369 0.106,-0.384 0.097,-0.391C0.088,-0.397 0.067,-0.4 0.032,-0.4L0.032,-0.431L0.173,-0.442L0.173,-0.337C0.204,-0.407 0.253,-0.442 0.321,-0.442C0.371,-0.442 0.406,-0.43 0.426,-0.405C0.44,-0.388 0.449,-0.371 0.452,-0.352C0.455,-0.333 0.457,-0.3 0.457,-0.252L0.457,-0.061C0.458,-0.047 0.463,-0.038 0.474,-0.035C0.485,-0.032 0.505,-0.031 0.535,-0.031L0.535,-0C0.467,-0.002 0.43,-0.003 0.423,-0.003C0.418,-0.003 0.38,-0.002 0.31,-0L0.31,-0.031C0.346,-0.031 0.367,-0.033 0.376,-0.037C0.384,-0.042 0.388,-0.055 0.388,-0.076L0.388,-0.309C0.388,-0.343 0.383,-0.37 0.373,-0.39C0.362,-0.41 0.343,-0.42 0.314,-0.42C0.279,-0.42 0.248,-0.405 0.221,-0.376C0.193,-0.347 0.179,-0.309 0.179,-0.26L0.179,-0.076C0.179,-0.055 0.183,-0.042 0.192,-0.037C0.2,-0.033 0.222,-0.031 0.257,-0.031L0.257,-0C0.189,-0.002 0.152,-0.003 0.145,-0.003C0.14,-0.003 0.102,-0.002 0.032,-0Z" style="fill-rule:nonzero;"/>
                </g>
            </g>
            <g transform="matrix(1.03674,0,0,1,-269.949,-116.764)">
                <g transform="matrix(8,0,0,8,34,160.25)">
                    <path d="M0.042,-0.135C0.042,-0.155 0.048,-0.169 0.059,-0.179C0.07,-0.188 0.083,-0.193 0.098,-0.193C0.113,-0.193 0.127,-0.188 0.137,-0.178C0.148,-0.168 0.154,-0.154 0.154,-0.137C0.154,-0.119 0.147,-0.104 0.135,-0.094C0.122,-0.083 0.106,-0.079 0.088,-0.082C0.104,-0.055 0.127,-0.036 0.156,-0.024C0.185,-0.012 0.214,-0.006 0.241,-0.006C0.27,-0.006 0.296,-0.018 0.319,-0.043C0.342,-0.068 0.354,-0.11 0.354,-0.171C0.354,-0.222 0.344,-0.263 0.324,-0.292C0.304,-0.322 0.274,-0.337 0.235,-0.337L0.191,-0.337C0.181,-0.337 0.174,-0.337 0.171,-0.338C0.168,-0.339 0.167,-0.343 0.167,-0.348C0.167,-0.355 0.172,-0.359 0.182,-0.36C0.192,-0.36 0.205,-0.361 0.221,-0.363C0.26,-0.364 0.29,-0.382 0.31,-0.415C0.329,-0.446 0.338,-0.484 0.338,-0.529C0.338,-0.569 0.328,-0.598 0.309,-0.615C0.289,-0.633 0.267,-0.641 0.242,-0.641C0.219,-0.641 0.194,-0.636 0.168,-0.626C0.143,-0.617 0.123,-0.601 0.109,-0.579C0.15,-0.579 0.171,-0.562 0.171,-0.529C0.171,-0.514 0.166,-0.502 0.157,-0.492C0.148,-0.483 0.135,-0.478 0.12,-0.478C0.105,-0.478 0.093,-0.483 0.083,-0.492C0.074,-0.501 0.069,-0.514 0.069,-0.53C0.069,-0.568 0.086,-0.6 0.12,-0.626C0.154,-0.653 0.196,-0.666 0.246,-0.666C0.296,-0.666 0.339,-0.653 0.375,-0.627C0.412,-0.601 0.43,-0.568 0.43,-0.528C0.43,-0.488 0.417,-0.453 0.391,-0.42C0.365,-0.388 0.331,-0.365 0.29,-0.352C0.341,-0.342 0.381,-0.32 0.412,-0.285C0.442,-0.251 0.457,-0.213 0.457,-0.171C0.457,-0.119 0.437,-0.074 0.396,-0.035C0.354,0.003 0.304,0.022 0.244,0.022C0.189,0.022 0.141,0.007 0.102,-0.023C0.062,-0.053 0.042,-0.09 0.042,-0.135Z" style="fill-rule:nonzero;"/>
                </g>
                <g transform="matrix(8,0,0,8,40.6602,160.25)">
                    <path d="M0.033,-0L0.033,-0.031C0.069,-0.031 0.09,-0.033 0.099,-0.037C0.107,-0.042 0.111,-0.055 0.111,-0.076L0.111,-0.345C0.111,-0.37 0.107,-0.385 0.098,-0.391C0.09,-0.397 0.07,-0.4 0.037,-0.4L0.037,-0.431L0.177,-0.442L0.177,-0.075C0.177,-0.055 0.18,-0.043 0.188,-0.038C0.195,-0.033 0.215,-0.031 0.247,-0.031L0.247,-0C0.179,-0.002 0.144,-0.003 0.143,-0.003C0.134,-0.003 0.097,-0.002 0.033,-0ZM0.075,-0.616C0.075,-0.63 0.08,-0.642 0.091,-0.653C0.101,-0.663 0.113,-0.669 0.128,-0.669C0.143,-0.669 0.155,-0.664 0.166,-0.654C0.176,-0.644 0.181,-0.631 0.181,-0.616C0.181,-0.601 0.176,-0.588 0.166,-0.578C0.155,-0.568 0.143,-0.563 0.128,-0.563C0.113,-0.563 0.1,-0.568 0.09,-0.579C0.08,-0.59 0.075,-0.602 0.075,-0.616Z" style="fill-rule:nonzero;"/>
                </g>
                <g transform="matrix(8,0,0,8,42.875,160.25)">
                    <path d="M0.032,-0L0.032,-0.031C0.068,-0.031 0.09,-0.033 0.098,-0.037C0.106,-0.042 0.11,-0.055 0.11,-0.076L0.11,-0.344C0.11,-0.369 0.106,-0.384 0.097,-0.391C0.088,-0.397 0.067,-0.4 0.032,-0.4L0.032,-0.431L0.173,-0.442L0.173,-0.337C0.204,-0.407 0.253,-0.442 0.321,-0.442C0.371,-0.442 0.406,-0.43 0.426,-0.405C0.44,-0.388 0.449,-0.371 0.452,-0.352C0.455,-0.333 0.457,-0.3 0.457,-0.252L0.457,-0.061C0.458,-0.047 0.463,-0.038 0.474,-0.035C0.485,-0.032 0.505,-0.031 0.535,-0.031L0.535,-0C0.467,-0.002 0.43,-0.003 0.423,-0.003C0.418,-0.003 0.38,-0.002 0.31,-0L0.31,-0.031C0.346,-0.031 0.367,-0.033 0.376,-0.037C0.384,-0.042 0.388,-0.055 0.388,-0.076L0.388,-0.309C0.388,-0.343 0.383,-0.37 0.373,-0.39C0.362,-0.41 0.343,-0.42 0.314,-0.42C0.279,-0.42 0.248,-0.405 0.221,-0.376C0.193,-0.347 0.179,-0.309 0.179,-0.26L0.179,-0.076C0.179,-0.055 0.183,-0.042 0.192,-0.037C0.2,-0.033 0.222,-0.031 0.257,-0.031L0.257,-0C0.189,-0.002 0.152,-0.003 0.145,-0.003C0.14,-0.003 0.102,-0.002 0.032,-0Z" style="fill-rule:nonzero;"/>
                </g>
            </g>
            <g transform="matrix(1.03674,0,0,1,-270.072,31.3672)">
                <path d="M71.668,76.821L66,79.25L69.077,73.906L71.668,76.821Z"/>
                <path d="M88.5,59.25C88.5,59.25 75.82,70.521 69.498,76.141" style="fill:none;stroke:black;stroke-width:0.65px;"/>
            </g>
        </g>
    </g>
</svg>
