<?xml version="1.0" encoding="UTF-8" standalone="no"?>
<!DOCTYPE svg PUBLIC "-//W3C//DTD SVG 1.1//EN" "http://www.w3.org/Graphics/SVG/1.1/DTD/svg11.dtd">
<svg width="100%" height="100%" viewBox="0 0 141 147" version="1.1" xmlns="http://www.w3.org/2000/svg" xmlns:xlink="http://www.w3.org/1999/xlink" xml:space="preserve" xmlns:serif="http://www.serif.com/" style="fill-rule:evenodd;clip-rule:evenodd;stroke-linecap:round;stroke-linejoin:round;stroke-miterlimit:1.5;">
    <g transform="matrix(1,0,0,1,-162,0)">
        <g id="examples-T-shape" transform="matrix(0.964564,0,0,1,423.043,-31.3672)">
            <rect x="-270.072" y="31.367" width="145.143" height="146.454" style="fill:none;"/>
            <g transform="matrix(1.03674,0,0,1,10.8843,0.367232)">
                <g transform="matrix(1.008,0,0,1,-278.66,55.25)">
                    <g transform="matrix(0.992063,-0,-0,1,7.06196,-24.25)">
                        <path d="M132.742,117.15L139.042,119.25L132.742,121.35L132.742,117.15Z"/>
                        <path d="M13.042,119.25L134.002,119.25" style="fill:none;stroke:black;stroke-width:0.7px;"/>
                    </g>
                </g>
                <g transform="matrix(1,0,0,1,-267,2.84217e-14)">
                    <path d="M28.5,90.25L58.5,90.25L58.5,150.25L88.5,150.25L88.5,90.25L118.5,90.25L118.5,70.25L28.5,70.25L28.5,90.25Z" style="fill:rgb(242,242,242);stroke:black;stroke-width:1px;"/>
                </g>
                <g transform="matrix(7.40171e-17,-1.05049,0.946465,4.87086e-17,-328.414,191.26)">
                    <g transform="matrix(4.89902e-17,1.05656,-0.951938,7.44451e-17,152.557,60.0895)">
                        <path d="M30.942,14.239L33.042,7.939L35.142,14.239L30.942,14.239Z"/>
                        <path d="M33.042,139.25L33.042,12.979" style="fill:none;stroke:black;stroke-width:0.7px;"/>
                    </g>
                </g>
                <g transform="matrix(1,0,0,1,4,2.84217e-14)">
                    <g transform="matrix(1,0,0,0.930624,0.571658,13.2222)">
                        <path d="M-213.072,150.25L-213.072,161.32" style="fill:none;stroke:black;stroke-width:0.67px;"/>
                    </g>
                    <g transform="matrix(-1.83697e-16,1,-0.930624,-1.70953e-16,-105.044,303.322)">
                        <path d="M-213.072,150.25L-213.072,161.32" style="fill:none;stroke:black;stroke-width:0.67px;"/>
                    </g>
                    <g transform="matrix(-1.83697e-16,1,-0.930624,-1.70953e-16,-104.824,283.281)">
                        <path d="M-213.072,150.25L-213.072,161.32" style="fill:none;stroke:black;stroke-width:0.67px;"/>
                    </g>
                    <g transform="matrix(1,0,0,1.03016,0,-1.73238)">
                        <path d="M-182.5,150.25L-182.5,160.25" style="fill:none;stroke:black;stroke-width:0.64px;"/>
                    </g>
                    <g transform="matrix(1,0,0,1.03016,30.1012,-1.68238)">
                        <path d="M-182.5,150.25L-182.5,160.25" style="fill:none;stroke:black;stroke-width:0.64px;"/>
                    </g>
                </g>
            </g>
            <g transform="matrix(1.03674,0,0,1,-272.51,76.1321)">
                <g transform="matrix(12,0,0,12,130,70)">
                    <path d="M0.053,-0.051C0.053,-0.067 0.058,-0.08 0.068,-0.09C0.078,-0.1 0.09,-0.105 0.103,-0.105C0.126,-0.105 0.137,-0.094 0.137,-0.073C0.137,-0.064 0.134,-0.054 0.128,-0.044C0.121,-0.035 0.111,-0.028 0.098,-0.025C0.109,-0.016 0.123,-0.011 0.14,-0.011L0.142,-0.011C0.156,-0.011 0.169,-0.015 0.179,-0.023C0.19,-0.031 0.2,-0.043 0.208,-0.06C0.215,-0.077 0.221,-0.091 0.225,-0.104C0.229,-0.118 0.234,-0.135 0.239,-0.156C0.247,-0.188 0.255,-0.219 0.262,-0.247C0.276,-0.304 0.283,-0.341 0.283,-0.357C0.283,-0.377 0.279,-0.392 0.27,-0.403C0.261,-0.414 0.25,-0.42 0.235,-0.42C0.213,-0.42 0.191,-0.409 0.168,-0.388C0.146,-0.367 0.129,-0.336 0.116,-0.295C0.114,-0.287 0.112,-0.282 0.11,-0.28C0.109,-0.279 0.105,-0.278 0.098,-0.278C0.088,-0.278 0.083,-0.281 0.083,-0.288C0.083,-0.295 0.087,-0.306 0.094,-0.322C0.101,-0.338 0.11,-0.355 0.122,-0.374C0.134,-0.392 0.15,-0.408 0.171,-0.421C0.192,-0.435 0.214,-0.442 0.237,-0.442C0.284,-0.442 0.316,-0.419 0.333,-0.374C0.341,-0.389 0.354,-0.404 0.37,-0.419C0.387,-0.434 0.407,-0.442 0.431,-0.442C0.451,-0.442 0.47,-0.437 0.49,-0.427C0.509,-0.418 0.518,-0.402 0.518,-0.379C0.518,-0.362 0.513,-0.349 0.502,-0.34C0.491,-0.331 0.48,-0.326 0.469,-0.326C0.457,-0.326 0.448,-0.33 0.443,-0.336C0.437,-0.343 0.434,-0.35 0.434,-0.358C0.434,-0.361 0.434,-0.365 0.435,-0.369C0.436,-0.374 0.439,-0.38 0.446,-0.389C0.453,-0.398 0.462,-0.403 0.474,-0.406C0.463,-0.415 0.449,-0.42 0.43,-0.42C0.391,-0.42 0.361,-0.384 0.342,-0.313C0.326,-0.248 0.315,-0.202 0.308,-0.176C0.295,-0.122 0.289,-0.088 0.289,-0.075C0.289,-0.052 0.294,-0.035 0.303,-0.026C0.312,-0.016 0.323,-0.011 0.336,-0.011C0.359,-0.011 0.381,-0.022 0.403,-0.043C0.425,-0.065 0.442,-0.096 0.455,-0.136C0.458,-0.144 0.46,-0.149 0.461,-0.151C0.463,-0.152 0.467,-0.153 0.473,-0.153C0.483,-0.153 0.488,-0.15 0.488,-0.143C0.488,-0.137 0.484,-0.126 0.478,-0.111C0.471,-0.095 0.462,-0.078 0.45,-0.059C0.438,-0.04 0.422,-0.024 0.401,-0.01C0.38,0.004 0.358,0.011 0.334,0.011C0.316,0.011 0.298,0.006 0.28,-0.004C0.261,-0.014 0.248,-0.032 0.239,-0.057C0.213,-0.012 0.18,0.011 0.141,0.011C0.117,0.011 0.096,0.006 0.079,-0.006C0.062,-0.017 0.053,-0.032 0.053,-0.051Z" style="fill-rule:nonzero;"/>
                </g>
            </g>
            <g transform="matrix(1.03674,0,0,1,17.1048,22.8764)">
                <g transform="matrix(12,0,0,12,-262.5,29.5)">
                    <path d="M0.083,-0.288C0.083,-0.29 0.084,-0.296 0.087,-0.306C0.09,-0.316 0.094,-0.329 0.101,-0.344C0.108,-0.36 0.116,-0.375 0.125,-0.39C0.135,-0.404 0.147,-0.416 0.162,-0.427C0.177,-0.437 0.194,-0.442 0.211,-0.442C0.233,-0.442 0.251,-0.435 0.266,-0.42C0.28,-0.405 0.287,-0.386 0.287,-0.361C0.287,-0.347 0.283,-0.33 0.274,-0.307C0.235,-0.202 0.216,-0.129 0.216,-0.088C0.216,-0.037 0.234,-0.011 0.27,-0.011L0.27,-0.011C0.297,-0.011 0.32,-0.021 0.34,-0.042C0.359,-0.062 0.371,-0.081 0.376,-0.1L0.449,-0.394C0.455,-0.419 0.468,-0.431 0.488,-0.431C0.497,-0.431 0.504,-0.428 0.509,-0.423C0.514,-0.418 0.516,-0.412 0.516,-0.405C0.516,-0.403 0.516,-0.401 0.515,-0.398C0.514,-0.396 0.513,-0.393 0.513,-0.391L0.415,0.003C0.402,0.056 0.374,0.103 0.332,0.144C0.29,0.185 0.244,0.205 0.195,0.205C0.167,0.205 0.144,0.197 0.126,0.182C0.108,0.166 0.099,0.145 0.099,0.119C0.099,0.103 0.103,0.089 0.11,0.079C0.117,0.068 0.124,0.062 0.131,0.06C0.138,0.058 0.144,0.057 0.15,0.057C0.159,0.057 0.167,0.06 0.174,0.066C0.181,0.071 0.184,0.079 0.184,0.089C0.184,0.099 0.18,0.109 0.173,0.119C0.166,0.129 0.155,0.135 0.141,0.137C0.136,0.138 0.133,0.139 0.133,0.14C0.133,0.143 0.135,0.147 0.138,0.154C0.141,0.16 0.148,0.166 0.158,0.173C0.168,0.18 0.18,0.183 0.195,0.183C0.225,0.183 0.256,0.167 0.286,0.135C0.316,0.102 0.34,0.049 0.357,-0.026C0.332,-0.001 0.302,0.011 0.267,0.011C0.236,0.011 0.209,0.002 0.188,-0.017C0.166,-0.036 0.155,-0.065 0.155,-0.105C0.155,-0.142 0.172,-0.208 0.207,-0.301C0.223,-0.345 0.231,-0.375 0.231,-0.391C0.231,-0.41 0.224,-0.42 0.209,-0.42C0.169,-0.42 0.138,-0.378 0.116,-0.294C0.114,-0.286 0.112,-0.282 0.11,-0.28C0.108,-0.279 0.104,-0.278 0.098,-0.278C0.088,-0.278 0.083,-0.282 0.083,-0.288Z" style="fill-rule:nonzero;"/>
                </g>
            </g>
            <g transform="matrix(1.03674,0,0,1,-266.124,-1.31266)">
                <g transform="matrix(9.33333,0,0,9.33333,38.6553,160.25)">
                    <path d="M0.042,-0.135C0.042,-0.155 0.048,-0.169 0.059,-0.179C0.07,-0.188 0.083,-0.193 0.098,-0.193C0.113,-0.193 0.127,-0.188 0.137,-0.178C0.148,-0.168 0.154,-0.154 0.154,-0.137C0.154,-0.119 0.147,-0.104 0.135,-0.094C0.122,-0.083 0.106,-0.079 0.088,-0.082C0.104,-0.055 0.127,-0.036 0.156,-0.024C0.185,-0.012 0.214,-0.006 0.241,-0.006C0.27,-0.006 0.296,-0.018 0.319,-0.043C0.342,-0.068 0.354,-0.11 0.354,-0.171C0.354,-0.222 0.344,-0.263 0.324,-0.292C0.304,-0.322 0.274,-0.337 0.235,-0.337L0.191,-0.337C0.181,-0.337 0.174,-0.337 0.171,-0.338C0.168,-0.339 0.167,-0.343 0.167,-0.348C0.167,-0.355 0.172,-0.359 0.182,-0.36C0.192,-0.36 0.205,-0.361 0.221,-0.363C0.26,-0.364 0.29,-0.382 0.31,-0.415C0.329,-0.446 0.338,-0.484 0.338,-0.529C0.338,-0.569 0.328,-0.598 0.309,-0.615C0.289,-0.633 0.267,-0.641 0.242,-0.641C0.219,-0.641 0.194,-0.636 0.168,-0.626C0.143,-0.617 0.123,-0.601 0.109,-0.579C0.15,-0.579 0.171,-0.562 0.171,-0.529C0.171,-0.514 0.166,-0.502 0.157,-0.492C0.148,-0.483 0.135,-0.478 0.12,-0.478C0.105,-0.478 0.093,-0.483 0.083,-0.492C0.074,-0.501 0.069,-0.514 0.069,-0.53C0.069,-0.568 0.086,-0.6 0.12,-0.626C0.154,-0.653 0.196,-0.666 0.246,-0.666C0.296,-0.666 0.339,-0.653 0.375,-0.627C0.412,-0.601 0.43,-0.568 0.43,-0.528C0.43,-0.488 0.417,-0.453 0.391,-0.42C0.365,-0.388 0.331,-0.365 0.29,-0.352C0.341,-0.342 0.381,-0.32 0.412,-0.285C0.442,-0.251 0.457,-0.213 0.457,-0.171C0.457,-0.119 0.437,-0.074 0.396,-0.035C0.354,0.003 0.304,0.022 0.244,0.022C0.189,0.022 0.141,0.007 0.102,-0.023C0.062,-0.053 0.042,-0.09 0.042,-0.135Z" style="fill-rule:nonzero;"/>
                </g>
                <g transform="matrix(9.33333,0,0,9.33333,43.3219,160.25)">
                    <path d="M0.039,-0.32C0.039,-0.418 0.051,-0.493 0.076,-0.547C0.111,-0.626 0.169,-0.666 0.25,-0.666C0.267,-0.666 0.285,-0.664 0.303,-0.659C0.321,-0.654 0.342,-0.643 0.365,-0.625C0.387,-0.607 0.406,-0.583 0.42,-0.554C0.447,-0.498 0.46,-0.419 0.46,-0.32C0.46,-0.222 0.448,-0.147 0.423,-0.094C0.387,-0.017 0.329,0.022 0.249,0.022C0.219,0.022 0.189,0.014 0.158,-0.001C0.128,-0.016 0.103,-0.042 0.084,-0.079C0.054,-0.134 0.039,-0.214 0.039,-0.32ZM0.122,-0.332C0.122,-0.231 0.126,-0.161 0.133,-0.121C0.141,-0.078 0.156,-0.047 0.178,-0.028C0.201,-0.009 0.224,-0 0.249,-0C0.276,-0 0.3,-0.01 0.323,-0.03C0.345,-0.05 0.359,-0.082 0.366,-0.125C0.374,-0.168 0.377,-0.237 0.377,-0.332C0.377,-0.425 0.374,-0.49 0.367,-0.527C0.358,-0.57 0.342,-0.601 0.319,-0.618C0.296,-0.635 0.272,-0.644 0.249,-0.644C0.24,-0.644 0.231,-0.643 0.222,-0.64C0.213,-0.638 0.201,-0.632 0.188,-0.625C0.175,-0.618 0.163,-0.604 0.153,-0.586C0.142,-0.567 0.135,-0.544 0.13,-0.516C0.125,-0.48 0.122,-0.419 0.122,-0.332Z" style="fill-rule:nonzero;"/>
                </g>
                <g transform="matrix(9.33333,0,0,9.33333,37.1035,169.583)">
                    <path d="M0.032,-0L0.032,-0.031C0.068,-0.031 0.09,-0.033 0.098,-0.037C0.106,-0.042 0.11,-0.055 0.11,-0.076L0.11,-0.344C0.11,-0.369 0.106,-0.384 0.097,-0.391C0.088,-0.397 0.067,-0.4 0.032,-0.4L0.032,-0.431L0.173,-0.442L0.173,-0.337C0.204,-0.407 0.253,-0.442 0.321,-0.442C0.399,-0.442 0.443,-0.409 0.454,-0.344C0.465,-0.37 0.483,-0.392 0.507,-0.412C0.531,-0.432 0.562,-0.442 0.599,-0.442C0.649,-0.442 0.684,-0.43 0.704,-0.405C0.719,-0.388 0.728,-0.371 0.73,-0.352C0.733,-0.333 0.735,-0.3 0.735,-0.252L0.735,-0.061C0.736,-0.047 0.741,-0.038 0.752,-0.035C0.763,-0.032 0.783,-0.031 0.813,-0.031L0.813,-0C0.745,-0.002 0.708,-0.003 0.701,-0.003C0.696,-0.003 0.658,-0.002 0.588,-0L0.588,-0.031C0.623,-0.031 0.645,-0.033 0.654,-0.037C0.662,-0.042 0.666,-0.055 0.666,-0.076L0.666,-0.309C0.666,-0.343 0.661,-0.37 0.65,-0.39C0.64,-0.41 0.62,-0.42 0.592,-0.42C0.557,-0.42 0.526,-0.405 0.499,-0.376C0.471,-0.347 0.457,-0.309 0.457,-0.26L0.457,-0.076C0.457,-0.055 0.461,-0.042 0.469,-0.037C0.478,-0.033 0.5,-0.031 0.535,-0.031L0.535,-0C0.467,-0.002 0.43,-0.003 0.423,-0.003C0.418,-0.003 0.38,-0.002 0.31,-0L0.31,-0.031C0.346,-0.031 0.367,-0.033 0.376,-0.037C0.384,-0.042 0.388,-0.055 0.388,-0.076L0.388,-0.309C0.388,-0.343 0.383,-0.37 0.373,-0.39C0.362,-0.41 0.343,-0.42 0.314,-0.42C0.279,-0.42 0.248,-0.405 0.221,-0.376C0.193,-0.347 0.179,-0.309 0.179,-0.26L0.179,-0.076C0.179,-0.055 0.183,-0.042 0.192,-0.037C0.2,-0.033 0.222,-0.031 0.257,-0.031L0.257,-0C0.189,-0.002 0.152,-0.003 0.145,-0.003C0.14,-0.003 0.102,-0.002 0.032,-0Z" style="fill-rule:nonzero;"/>
                </g>
                <g transform="matrix(9.33333,0,0,9.33333,44.8737,169.583)">
                    <path d="M0.032,-0L0.032,-0.031C0.068,-0.031 0.09,-0.033 0.098,-0.037C0.106,-0.042 0.11,-0.055 0.11,-0.076L0.11,-0.344C0.11,-0.369 0.106,-0.384 0.097,-0.391C0.088,-0.397 0.067,-0.4 0.032,-0.4L0.032,-0.431L0.173,-0.442L0.173,-0.337C0.204,-0.407 0.253,-0.442 0.321,-0.442C0.399,-0.442 0.443,-0.409 0.454,-0.344C0.465,-0.37 0.483,-0.392 0.507,-0.412C0.531,-0.432 0.562,-0.442 0.599,-0.442C0.649,-0.442 0.684,-0.43 0.704,-0.405C0.719,-0.388 0.728,-0.371 0.73,-0.352C0.733,-0.333 0.735,-0.3 0.735,-0.252L0.735,-0.061C0.736,-0.047 0.741,-0.038 0.752,-0.035C0.763,-0.032 0.783,-0.031 0.813,-0.031L0.813,-0C0.745,-0.002 0.708,-0.003 0.701,-0.003C0.696,-0.003 0.658,-0.002 0.588,-0L0.588,-0.031C0.623,-0.031 0.645,-0.033 0.654,-0.037C0.662,-0.042 0.666,-0.055 0.666,-0.076L0.666,-0.309C0.666,-0.343 0.661,-0.37 0.65,-0.39C0.64,-0.41 0.62,-0.42 0.592,-0.42C0.557,-0.42 0.526,-0.405 0.499,-0.376C0.471,-0.347 0.457,-0.309 0.457,-0.26L0.457,-0.076C0.457,-0.055 0.461,-0.042 0.469,-0.037C0.478,-0.033 0.5,-0.031 0.535,-0.031L0.535,-0C0.467,-0.002 0.43,-0.003 0.423,-0.003C0.418,-0.003 0.38,-0.002 0.31,-0L0.31,-0.031C0.346,-0.031 0.367,-0.033 0.376,-0.037C0.384,-0.042 0.388,-0.055 0.388,-0.076L0.388,-0.309C0.388,-0.343 0.383,-0.37 0.373,-0.39C0.362,-0.41 0.343,-0.42 0.314,-0.42C0.279,-0.42 0.248,-0.405 0.221,-0.376C0.193,-0.347 0.179,-0.309 0.179,-0.26L0.179,-0.076C0.179,-0.055 0.183,-0.042 0.192,-0.037C0.2,-0.033 0.222,-0.031 0.257,-0.031L0.257,-0C0.189,-0.002 0.152,-0.003 0.145,-0.003C0.14,-0.003 0.102,-0.002 0.032,-0Z" style="fill-rule:nonzero;"/>
                </g>
            </g>
            <g transform="matrix(1.03674,0,0,1,-234.354,-1.31266)">
                <g transform="matrix(9.33333,0,0,9.33333,38.6553,160.25)">
                    <path d="M0.042,-0.135C0.042,-0.155 0.048,-0.169 0.059,-0.179C0.07,-0.188 0.083,-0.193 0.098,-0.193C0.113,-0.193 0.127,-0.188 0.137,-0.178C0.148,-0.168 0.154,-0.154 0.154,-0.137C0.154,-0.119 0.147,-0.104 0.135,-0.094C0.122,-0.083 0.106,-0.079 0.088,-0.082C0.104,-0.055 0.127,-0.036 0.156,-0.024C0.185,-0.012 0.214,-0.006 0.241,-0.006C0.27,-0.006 0.296,-0.018 0.319,-0.043C0.342,-0.068 0.354,-0.11 0.354,-0.171C0.354,-0.222 0.344,-0.263 0.324,-0.292C0.304,-0.322 0.274,-0.337 0.235,-0.337L0.191,-0.337C0.181,-0.337 0.174,-0.337 0.171,-0.338C0.168,-0.339 0.167,-0.343 0.167,-0.348C0.167,-0.355 0.172,-0.359 0.182,-0.36C0.192,-0.36 0.205,-0.361 0.221,-0.363C0.26,-0.364 0.29,-0.382 0.31,-0.415C0.329,-0.446 0.338,-0.484 0.338,-0.529C0.338,-0.569 0.328,-0.598 0.309,-0.615C0.289,-0.633 0.267,-0.641 0.242,-0.641C0.219,-0.641 0.194,-0.636 0.168,-0.626C0.143,-0.617 0.123,-0.601 0.109,-0.579C0.15,-0.579 0.171,-0.562 0.171,-0.529C0.171,-0.514 0.166,-0.502 0.157,-0.492C0.148,-0.483 0.135,-0.478 0.12,-0.478C0.105,-0.478 0.093,-0.483 0.083,-0.492C0.074,-0.501 0.069,-0.514 0.069,-0.53C0.069,-0.568 0.086,-0.6 0.12,-0.626C0.154,-0.653 0.196,-0.666 0.246,-0.666C0.296,-0.666 0.339,-0.653 0.375,-0.627C0.412,-0.601 0.43,-0.568 0.43,-0.528C0.43,-0.488 0.417,-0.453 0.391,-0.42C0.365,-0.388 0.331,-0.365 0.29,-0.352C0.341,-0.342 0.381,-0.32 0.412,-0.285C0.442,-0.251 0.457,-0.213 0.457,-0.171C0.457,-0.119 0.437,-0.074 0.396,-0.035C0.354,0.003 0.304,0.022 0.244,0.022C0.189,0.022 0.141,0.007 0.102,-0.023C0.062,-0.053 0.042,-0.09 0.042,-0.135Z" style="fill-rule:nonzero;"/>
                </g>
                <g transform="matrix(9.33333,0,0,9.33333,43.3219,160.25)">
                    <path d="M0.039,-0.32C0.039,-0.418 0.051,-0.493 0.076,-0.547C0.111,-0.626 0.169,-0.666 0.25,-0.666C0.267,-0.666 0.285,-0.664 0.303,-0.659C0.321,-0.654 0.342,-0.643 0.365,-0.625C0.387,-0.607 0.406,-0.583 0.42,-0.554C0.447,-0.498 0.46,-0.419 0.46,-0.32C0.46,-0.222 0.448,-0.147 0.423,-0.094C0.387,-0.017 0.329,0.022 0.249,0.022C0.219,0.022 0.189,0.014 0.158,-0.001C0.128,-0.016 0.103,-0.042 0.084,-0.079C0.054,-0.134 0.039,-0.214 0.039,-0.32ZM0.122,-0.332C0.122,-0.231 0.126,-0.161 0.133,-0.121C0.141,-0.078 0.156,-0.047 0.178,-0.028C0.201,-0.009 0.224,-0 0.249,-0C0.276,-0 0.3,-0.01 0.323,-0.03C0.345,-0.05 0.359,-0.082 0.366,-0.125C0.374,-0.168 0.377,-0.237 0.377,-0.332C0.377,-0.425 0.374,-0.49 0.367,-0.527C0.358,-0.57 0.342,-0.601 0.319,-0.618C0.296,-0.635 0.272,-0.644 0.249,-0.644C0.24,-0.644 0.231,-0.643 0.222,-0.64C0.213,-0.638 0.201,-0.632 0.188,-0.625C0.175,-0.618 0.163,-0.604 0.153,-0.586C0.142,-0.567 0.135,-0.544 0.13,-0.516C0.125,-0.48 0.122,-0.419 0.122,-0.332Z" style="fill-rule:nonzero;"/>
                </g>
                <g transform="matrix(9.33333,0,0,9.33333,37.1035,169.583)">
                    <path d="M0.032,-0L0.032,-0.031C0.068,-0.031 0.09,-0.033 0.098,-0.037C0.106,-0.042 0.11,-0.055 0.11,-0.076L0.11,-0.344C0.11,-0.369 0.106,-0.384 0.097,-0.391C0.088,-0.397 0.067,-0.4 0.032,-0.4L0.032,-0.431L0.173,-0.442L0.173,-0.337C0.204,-0.407 0.253,-0.442 0.321,-0.442C0.399,-0.442 0.443,-0.409 0.454,-0.344C0.465,-0.37 0.483,-0.392 0.507,-0.412C0.531,-0.432 0.562,-0.442 0.599,-0.442C0.649,-0.442 0.684,-0.43 0.704,-0.405C0.719,-0.388 0.728,-0.371 0.73,-0.352C0.733,-0.333 0.735,-0.3 0.735,-0.252L0.735,-0.061C0.736,-0.047 0.741,-0.038 0.752,-0.035C0.763,-0.032 0.783,-0.031 0.813,-0.031L0.813,-0C0.745,-0.002 0.708,-0.003 0.701,-0.003C0.696,-0.003 0.658,-0.002 0.588,-0L0.588,-0.031C0.623,-0.031 0.645,-0.033 0.654,-0.037C0.662,-0.042 0.666,-0.055 0.666,-0.076L0.666,-0.309C0.666,-0.343 0.661,-0.37 0.65,-0.39C0.64,-0.41 0.62,-0.42 0.592,-0.42C0.557,-0.42 0.526,-0.405 0.499,-0.376C0.471,-0.347 0.457,-0.309 0.457,-0.26L0.457,-0.076C0.457,-0.055 0.461,-0.042 0.469,-0.037C0.478,-0.033 0.5,-0.031 0.535,-0.031L0.535,-0C0.467,-0.002 0.43,-0.003 0.423,-0.003C0.418,-0.003 0.38,-0.002 0.31,-0L0.31,-0.031C0.346,-0.031 0.367,-0.033 0.376,-0.037C0.384,-0.042 0.388,-0.055 0.388,-0.076L0.388,-0.309C0.388,-0.343 0.383,-0.37 0.373,-0.39C0.362,-0.41 0.343,-0.42 0.314,-0.42C0.279,-0.42 0.248,-0.405 0.221,-0.376C0.193,-0.347 0.179,-0.309 0.179,-0.26L0.179,-0.076C0.179,-0.055 0.183,-0.042 0.192,-0.037C0.2,-0.033 0.222,-0.031 0.257,-0.031L0.257,-0C0.189,-0.002 0.152,-0.003 0.145,-0.003C0.14,-0.003 0.102,-0.002 0.032,-0Z" style="fill-rule:nonzero;"/>
                </g>
                <g transform="matrix(9.33333,0,0,9.33333,44.8737,169.583)">
                    <path d="M0.032,-0L0.032,-0.031C0.068,-0.031 0.09,-0.033 0.098,-0.037C0.106,-0.042 0.11,-0.055 0.11,-0.076L0.11,-0.344C0.11,-0.369 0.106,-0.384 0.097,-0.391C0.088,-0.397 0.067,-0.4 0.032,-0.4L0.032,-0.431L0.173,-0.442L0.173,-0.337C0.204,-0.407 0.253,-0.442 0.321,-0.442C0.399,-0.442 0.443,-0.409 0.454,-0.344C0.465,-0.37 0.483,-0.392 0.507,-0.412C0.531,-0.432 0.562,-0.442 0.599,-0.442C0.649,-0.442 0.684,-0.43 0.704,-0.405C0.719,-0.388 0.728,-0.371 0.73,-0.352C0.733,-0.333 0.735,-0.3 0.735,-0.252L0.735,-0.061C0.736,-0.047 0.741,-0.038 0.752,-0.035C0.763,-0.032 0.783,-0.031 0.813,-0.031L0.813,-0C0.745,-0.002 0.708,-0.003 0.701,-0.003C0.696,-0.003 0.658,-0.002 0.588,-0L0.588,-0.031C0.623,-0.031 0.645,-0.033 0.654,-0.037C0.662,-0.042 0.666,-0.055 0.666,-0.076L0.666,-0.309C0.666,-0.343 0.661,-0.37 0.65,-0.39C0.64,-0.41 0.62,-0.42 0.592,-0.42C0.557,-0.42 0.526,-0.405 0.499,-0.376C0.471,-0.347 0.457,-0.309 0.457,-0.26L0.457,-0.076C0.457,-0.055 0.461,-0.042 0.469,-0.037C0.478,-0.033 0.5,-0.031 0.535,-0.031L0.535,-0C0.467,-0.002 0.43,-0.003 0.423,-0.003C0.418,-0.003 0.38,-0.002 0.31,-0L0.31,-0.031C0.346,-0.031 0.367,-0.033 0.376,-0.037C0.384,-0.042 0.388,-0.055 0.388,-0.076L0.388,-0.309C0.388,-0.343 0.383,-0.37 0.373,-0.39C0.362,-0.41 0.343,-0.42 0.314,-0.42C0.279,-0.42 0.248,-0.405 0.221,-0.376C0.193,-0.347 0.179,-0.309 0.179,-0.26L0.179,-0.076C0.179,-0.055 0.183,-0.042 0.192,-0.037C0.2,-0.033 0.222,-0.031 0.257,-0.031L0.257,-0C0.189,-0.002 0.152,-0.003 0.145,-0.003C0.14,-0.003 0.102,-0.002 0.032,-0Z" style="fill-rule:nonzero;"/>
                </g>
            </g>
            <g transform="matrix(1.03674,0,0,1,-202.584,-1.31266)">
                <g transform="matrix(9.33333,0,0,9.33333,38.6553,160.25)">
                    <path d="M0.042,-0.135C0.042,-0.155 0.048,-0.169 0.059,-0.179C0.07,-0.188 0.083,-0.193 0.098,-0.193C0.113,-0.193 0.127,-0.188 0.137,-0.178C0.148,-0.168 0.154,-0.154 0.154,-0.137C0.154,-0.119 0.147,-0.104 0.135,-0.094C0.122,-0.083 0.106,-0.079 0.088,-0.082C0.104,-0.055 0.127,-0.036 0.156,-0.024C0.185,-0.012 0.214,-0.006 0.241,-0.006C0.27,-0.006 0.296,-0.018 0.319,-0.043C0.342,-0.068 0.354,-0.11 0.354,-0.171C0.354,-0.222 0.344,-0.263 0.324,-0.292C0.304,-0.322 0.274,-0.337 0.235,-0.337L0.191,-0.337C0.181,-0.337 0.174,-0.337 0.171,-0.338C0.168,-0.339 0.167,-0.343 0.167,-0.348C0.167,-0.355 0.172,-0.359 0.182,-0.36C0.192,-0.36 0.205,-0.361 0.221,-0.363C0.26,-0.364 0.29,-0.382 0.31,-0.415C0.329,-0.446 0.338,-0.484 0.338,-0.529C0.338,-0.569 0.328,-0.598 0.309,-0.615C0.289,-0.633 0.267,-0.641 0.242,-0.641C0.219,-0.641 0.194,-0.636 0.168,-0.626C0.143,-0.617 0.123,-0.601 0.109,-0.579C0.15,-0.579 0.171,-0.562 0.171,-0.529C0.171,-0.514 0.166,-0.502 0.157,-0.492C0.148,-0.483 0.135,-0.478 0.12,-0.478C0.105,-0.478 0.093,-0.483 0.083,-0.492C0.074,-0.501 0.069,-0.514 0.069,-0.53C0.069,-0.568 0.086,-0.6 0.12,-0.626C0.154,-0.653 0.196,-0.666 0.246,-0.666C0.296,-0.666 0.339,-0.653 0.375,-0.627C0.412,-0.601 0.43,-0.568 0.43,-0.528C0.43,-0.488 0.417,-0.453 0.391,-0.42C0.365,-0.388 0.331,-0.365 0.29,-0.352C0.341,-0.342 0.381,-0.32 0.412,-0.285C0.442,-0.251 0.457,-0.213 0.457,-0.171C0.457,-0.119 0.437,-0.074 0.396,-0.035C0.354,0.003 0.304,0.022 0.244,0.022C0.189,0.022 0.141,0.007 0.102,-0.023C0.062,-0.053 0.042,-0.09 0.042,-0.135Z" style="fill-rule:nonzero;"/>
                </g>
                <g transform="matrix(9.33333,0,0,9.33333,43.3219,160.25)">
                    <path d="M0.039,-0.32C0.039,-0.418 0.051,-0.493 0.076,-0.547C0.111,-0.626 0.169,-0.666 0.25,-0.666C0.267,-0.666 0.285,-0.664 0.303,-0.659C0.321,-0.654 0.342,-0.643 0.365,-0.625C0.387,-0.607 0.406,-0.583 0.42,-0.554C0.447,-0.498 0.46,-0.419 0.46,-0.32C0.46,-0.222 0.448,-0.147 0.423,-0.094C0.387,-0.017 0.329,0.022 0.249,0.022C0.219,0.022 0.189,0.014 0.158,-0.001C0.128,-0.016 0.103,-0.042 0.084,-0.079C0.054,-0.134 0.039,-0.214 0.039,-0.32ZM0.122,-0.332C0.122,-0.231 0.126,-0.161 0.133,-0.121C0.141,-0.078 0.156,-0.047 0.178,-0.028C0.201,-0.009 0.224,-0 0.249,-0C0.276,-0 0.3,-0.01 0.323,-0.03C0.345,-0.05 0.359,-0.082 0.366,-0.125C0.374,-0.168 0.377,-0.237 0.377,-0.332C0.377,-0.425 0.374,-0.49 0.367,-0.527C0.358,-0.57 0.342,-0.601 0.319,-0.618C0.296,-0.635 0.272,-0.644 0.249,-0.644C0.24,-0.644 0.231,-0.643 0.222,-0.64C0.213,-0.638 0.201,-0.632 0.188,-0.625C0.175,-0.618 0.163,-0.604 0.153,-0.586C0.142,-0.567 0.135,-0.544 0.13,-0.516C0.125,-0.48 0.122,-0.419 0.122,-0.332Z" style="fill-rule:nonzero;"/>
                </g>
                <g transform="matrix(9.33333,0,0,9.33333,37.1035,169.583)">
                    <path d="M0.032,-0L0.032,-0.031C0.068,-0.031 0.09,-0.033 0.098,-0.037C0.106,-0.042 0.11,-0.055 0.11,-0.076L0.11,-0.344C0.11,-0.369 0.106,-0.384 0.097,-0.391C0.088,-0.397 0.067,-0.4 0.032,-0.4L0.032,-0.431L0.173,-0.442L0.173,-0.337C0.204,-0.407 0.253,-0.442 0.321,-0.442C0.399,-0.442 0.443,-0.409 0.454,-0.344C0.465,-0.37 0.483,-0.392 0.507,-0.412C0.531,-0.432 0.562,-0.442 0.599,-0.442C0.649,-0.442 0.684,-0.43 0.704,-0.405C0.719,-0.388 0.728,-0.371 0.73,-0.352C0.733,-0.333 0.735,-0.3 0.735,-0.252L0.735,-0.061C0.736,-0.047 0.741,-0.038 0.752,-0.035C0.763,-0.032 0.783,-0.031 0.813,-0.031L0.813,-0C0.745,-0.002 0.708,-0.003 0.701,-0.003C0.696,-0.003 0.658,-0.002 0.588,-0L0.588,-0.031C0.623,-0.031 0.645,-0.033 0.654,-0.037C0.662,-0.042 0.666,-0.055 0.666,-0.076L0.666,-0.309C0.666,-0.343 0.661,-0.37 0.65,-0.39C0.64,-0.41 0.62,-0.42 0.592,-0.42C0.557,-0.42 0.526,-0.405 0.499,-0.376C0.471,-0.347 0.457,-0.309 0.457,-0.26L0.457,-0.076C0.457,-0.055 0.461,-0.042 0.469,-0.037C0.478,-0.033 0.5,-0.031 0.535,-0.031L0.535,-0C0.467,-0.002 0.43,-0.003 0.423,-0.003C0.418,-0.003 0.38,-0.002 0.31,-0L0.31,-0.031C0.346,-0.031 0.367,-0.033 0.376,-0.037C0.384,-0.042 0.388,-0.055 0.388,-0.076L0.388,-0.309C0.388,-0.343 0.383,-0.37 0.373,-0.39C0.362,-0.41 0.343,-0.42 0.314,-0.42C0.279,-0.42 0.248,-0.405 0.221,-0.376C0.193,-0.347 0.179,-0.309 0.179,-0.26L0.179,-0.076C0.179,-0.055 0.183,-0.042 0.192,-0.037C0.2,-0.033 0.222,-0.031 0.257,-0.031L0.257,-0C0.189,-0.002 0.152,-0.003 0.145,-0.003C0.14,-0.003 0.102,-0.002 0.032,-0Z" style="fill-rule:nonzero;"/>
                </g>
                <g transform="matrix(9.33333,0,0,9.33333,44.8737,169.583)">
                    <path d="M0.032,-0L0.032,-0.031C0.068,-0.031 0.09,-0.033 0.098,-0.037C0.106,-0.042 0.11,-0.055 0.11,-0.076L0.11,-0.344C0.11,-0.369 0.106,-0.384 0.097,-0.391C0.088,-0.397 0.067,-0.4 0.032,-0.4L0.032,-0.431L0.173,-0.442L0.173,-0.337C0.204,-0.407 0.253,-0.442 0.321,-0.442C0.399,-0.442 0.443,-0.409 0.454,-0.344C0.465,-0.37 0.483,-0.392 0.507,-0.412C0.531,-0.432 0.562,-0.442 0.599,-0.442C0.649,-0.442 0.684,-0.43 0.704,-0.405C0.719,-0.388 0.728,-0.371 0.73,-0.352C0.733,-0.333 0.735,-0.3 0.735,-0.252L0.735,-0.061C0.736,-0.047 0.741,-0.038 0.752,-0.035C0.763,-0.032 0.783,-0.031 0.813,-0.031L0.813,-0C0.745,-0.002 0.708,-0.003 0.701,-0.003C0.696,-0.003 0.658,-0.002 0.588,-0L0.588,-0.031C0.623,-0.031 0.645,-0.033 0.654,-0.037C0.662,-0.042 0.666,-0.055 0.666,-0.076L0.666,-0.309C0.666,-0.343 0.661,-0.37 0.65,-0.39C0.64,-0.41 0.62,-0.42 0.592,-0.42C0.557,-0.42 0.526,-0.405 0.499,-0.376C0.471,-0.347 0.457,-0.309 0.457,-0.26L0.457,-0.076C0.457,-0.055 0.461,-0.042 0.469,-0.037C0.478,-0.033 0.5,-0.031 0.535,-0.031L0.535,-0C0.467,-0.002 0.43,-0.003 0.423,-0.003C0.418,-0.003 0.38,-0.002 0.31,-0L0.31,-0.031C0.346,-0.031 0.367,-0.033 0.376,-0.037C0.384,-0.042 0.388,-0.055 0.388,-0.076L0.388,-0.309C0.388,-0.343 0.383,-0.37 0.373,-0.39C0.362,-0.41 0.343,-0.42 0.314,-0.42C0.279,-0.42 0.248,-0.405 0.221,-0.376C0.193,-0.347 0.179,-0.309 0.179,-0.26L0.179,-0.076C0.179,-0.055 0.183,-0.042 0.192,-0.037C0.2,-0.033 0.222,-0.031 0.257,-0.031L0.257,-0C0.189,-0.002 0.152,-0.003 0.145,-0.003C0.14,-0.003 0.102,-0.002 0.032,-0Z" style="fill-rule:nonzero;"/>
                </g>
            </g>
            <g transform="matrix(1.03674,0,0,1,-303.904,-76.6272)">
                <g transform="matrix(9.33333,0,0,9.33333,34,160.25)">
                    <path d="M0.05,-0C0.05,-0.012 0.05,-0.02 0.052,-0.023C0.053,-0.027 0.056,-0.032 0.061,-0.037L0.253,-0.251C0.323,-0.33 0.358,-0.403 0.358,-0.472C0.358,-0.517 0.346,-0.555 0.323,-0.587C0.3,-0.619 0.267,-0.635 0.224,-0.635C0.195,-0.635 0.168,-0.626 0.143,-0.608C0.118,-0.59 0.1,-0.565 0.089,-0.533C0.091,-0.534 0.095,-0.534 0.102,-0.534C0.119,-0.534 0.132,-0.529 0.141,-0.519C0.15,-0.508 0.155,-0.496 0.155,-0.482C0.155,-0.464 0.149,-0.451 0.137,-0.442C0.126,-0.434 0.114,-0.429 0.103,-0.429C0.098,-0.429 0.093,-0.43 0.087,-0.431C0.081,-0.432 0.073,-0.437 0.064,-0.446C0.055,-0.455 0.05,-0.468 0.05,-0.485C0.05,-0.531 0.067,-0.573 0.103,-0.61C0.138,-0.647 0.183,-0.666 0.237,-0.666C0.298,-0.666 0.349,-0.648 0.389,-0.612C0.429,-0.575 0.449,-0.529 0.449,-0.472C0.449,-0.452 0.446,-0.433 0.44,-0.415C0.434,-0.397 0.427,-0.381 0.419,-0.367C0.411,-0.353 0.396,-0.335 0.375,-0.313C0.354,-0.29 0.334,-0.271 0.317,-0.255C0.3,-0.239 0.272,-0.214 0.233,-0.18L0.127,-0.077L0.307,-0.077C0.366,-0.077 0.397,-0.08 0.402,-0.085C0.408,-0.094 0.416,-0.124 0.424,-0.174L0.449,-0.174L0.421,-0L0.05,-0Z" style="fill-rule:nonzero;"/>
                </g>
                <g transform="matrix(9.33333,0,0,9.33333,38.6667,160.25)">
                    <path d="M0.039,-0.32C0.039,-0.418 0.051,-0.493 0.076,-0.547C0.111,-0.626 0.169,-0.666 0.25,-0.666C0.267,-0.666 0.285,-0.664 0.303,-0.659C0.321,-0.654 0.342,-0.643 0.365,-0.625C0.387,-0.607 0.406,-0.583 0.42,-0.554C0.447,-0.498 0.46,-0.419 0.46,-0.32C0.46,-0.222 0.448,-0.147 0.423,-0.094C0.387,-0.017 0.329,0.022 0.249,0.022C0.219,0.022 0.189,0.014 0.158,-0.001C0.128,-0.016 0.103,-0.042 0.084,-0.079C0.054,-0.134 0.039,-0.214 0.039,-0.32ZM0.122,-0.332C0.122,-0.231 0.126,-0.161 0.133,-0.121C0.141,-0.078 0.156,-0.047 0.178,-0.028C0.201,-0.009 0.224,-0 0.249,-0C0.276,-0 0.3,-0.01 0.323,-0.03C0.345,-0.05 0.359,-0.082 0.366,-0.125C0.374,-0.168 0.377,-0.237 0.377,-0.332C0.377,-0.425 0.374,-0.49 0.367,-0.527C0.358,-0.57 0.342,-0.601 0.319,-0.618C0.296,-0.635 0.272,-0.644 0.249,-0.644C0.24,-0.644 0.231,-0.643 0.222,-0.64C0.213,-0.638 0.201,-0.632 0.188,-0.625C0.175,-0.618 0.163,-0.604 0.153,-0.586C0.142,-0.567 0.135,-0.544 0.13,-0.516C0.125,-0.48 0.122,-0.419 0.122,-0.332Z" style="fill-rule:nonzero;"/>
                </g>
                <g transform="matrix(9.33333,0,0,9.33333,46.4368,160.25)">
                    <path d="M0.032,-0L0.032,-0.031C0.068,-0.031 0.09,-0.033 0.098,-0.037C0.106,-0.042 0.11,-0.055 0.11,-0.076L0.11,-0.344C0.11,-0.369 0.106,-0.384 0.097,-0.391C0.088,-0.397 0.067,-0.4 0.032,-0.4L0.032,-0.431L0.173,-0.442L0.173,-0.337C0.204,-0.407 0.253,-0.442 0.321,-0.442C0.399,-0.442 0.443,-0.409 0.454,-0.344C0.465,-0.37 0.483,-0.392 0.507,-0.412C0.531,-0.432 0.562,-0.442 0.599,-0.442C0.649,-0.442 0.684,-0.43 0.704,-0.405C0.719,-0.388 0.728,-0.371 0.73,-0.352C0.733,-0.333 0.735,-0.3 0.735,-0.252L0.735,-0.061C0.736,-0.047 0.741,-0.038 0.752,-0.035C0.763,-0.032 0.783,-0.031 0.813,-0.031L0.813,-0C0.745,-0.002 0.708,-0.003 0.701,-0.003C0.696,-0.003 0.658,-0.002 0.588,-0L0.588,-0.031C0.623,-0.031 0.645,-0.033 0.654,-0.037C0.662,-0.042 0.666,-0.055 0.666,-0.076L0.666,-0.309C0.666,-0.343 0.661,-0.37 0.65,-0.39C0.64,-0.41 0.62,-0.42 0.592,-0.42C0.557,-0.42 0.526,-0.405 0.499,-0.376C0.471,-0.347 0.457,-0.309 0.457,-0.26L0.457,-0.076C0.457,-0.055 0.461,-0.042 0.469,-0.037C0.478,-0.033 0.5,-0.031 0.535,-0.031L0.535,-0C0.467,-0.002 0.43,-0.003 0.423,-0.003C0.418,-0.003 0.38,-0.002 0.31,-0L0.31,-0.031C0.346,-0.031 0.367,-0.033 0.376,-0.037C0.384,-0.042 0.388,-0.055 0.388,-0.076L0.388,-0.309C0.388,-0.343 0.383,-0.37 0.373,-0.39C0.362,-0.41 0.343,-0.42 0.314,-0.42C0.279,-0.42 0.248,-0.405 0.221,-0.376C0.193,-0.347 0.179,-0.309 0.179,-0.26L0.179,-0.076C0.179,-0.055 0.183,-0.042 0.192,-0.037C0.2,-0.033 0.222,-0.031 0.257,-0.031L0.257,-0C0.189,-0.002 0.152,-0.003 0.145,-0.003C0.14,-0.003 0.102,-0.002 0.032,-0Z" style="fill-rule:nonzero;"/>
                </g>
                <g transform="matrix(9.33333,0,0,9.33333,54.207,160.25)">
                    <path d="M0.032,-0L0.032,-0.031C0.068,-0.031 0.09,-0.033 0.098,-0.037C0.106,-0.042 0.11,-0.055 0.11,-0.076L0.11,-0.344C0.11,-0.369 0.106,-0.384 0.097,-0.391C0.088,-0.397 0.067,-0.4 0.032,-0.4L0.032,-0.431L0.173,-0.442L0.173,-0.337C0.204,-0.407 0.253,-0.442 0.321,-0.442C0.399,-0.442 0.443,-0.409 0.454,-0.344C0.465,-0.37 0.483,-0.392 0.507,-0.412C0.531,-0.432 0.562,-0.442 0.599,-0.442C0.649,-0.442 0.684,-0.43 0.704,-0.405C0.719,-0.388 0.728,-0.371 0.73,-0.352C0.733,-0.333 0.735,-0.3 0.735,-0.252L0.735,-0.061C0.736,-0.047 0.741,-0.038 0.752,-0.035C0.763,-0.032 0.783,-0.031 0.813,-0.031L0.813,-0C0.745,-0.002 0.708,-0.003 0.701,-0.003C0.696,-0.003 0.658,-0.002 0.588,-0L0.588,-0.031C0.623,-0.031 0.645,-0.033 0.654,-0.037C0.662,-0.042 0.666,-0.055 0.666,-0.076L0.666,-0.309C0.666,-0.343 0.661,-0.37 0.65,-0.39C0.64,-0.41 0.62,-0.42 0.592,-0.42C0.557,-0.42 0.526,-0.405 0.499,-0.376C0.471,-0.347 0.457,-0.309 0.457,-0.26L0.457,-0.076C0.457,-0.055 0.461,-0.042 0.469,-0.037C0.478,-0.033 0.5,-0.031 0.535,-0.031L0.535,-0C0.467,-0.002 0.43,-0.003 0.423,-0.003C0.418,-0.003 0.38,-0.002 0.31,-0L0.31,-0.031C0.346,-0.031 0.367,-0.033 0.376,-0.037C0.384,-0.042 0.388,-0.055 0.388,-0.076L0.388,-0.309C0.388,-0.343 0.383,-0.37 0.373,-0.39C0.362,-0.41 0.343,-0.42 0.314,-0.42C0.279,-0.42 0.248,-0.405 0.221,-0.376C0.193,-0.347 0.179,-0.309 0.179,-0.26L0.179,-0.076C0.179,-0.055 0.183,-0.042 0.192,-0.037C0.2,-0.033 0.222,-0.031 0.257,-0.031L0.257,-0C0.189,-0.002 0.152,-0.003 0.145,-0.003C0.14,-0.003 0.102,-0.002 0.032,-0Z" style="fill-rule:nonzero;"/>
                </g>
            </g>
            <g transform="matrix(1.03674,0,0,1,-303.135,-36.6272)">
                <g transform="matrix(9.33333,0,0,9.33333,34,160.25)">
                    <path d="M0.042,-0.316C0.042,-0.421 0.069,-0.505 0.122,-0.57C0.175,-0.634 0.236,-0.666 0.305,-0.666C0.345,-0.666 0.376,-0.656 0.399,-0.635C0.421,-0.615 0.432,-0.589 0.432,-0.558C0.432,-0.541 0.427,-0.528 0.417,-0.521C0.407,-0.514 0.397,-0.51 0.386,-0.51C0.374,-0.51 0.363,-0.514 0.354,-0.522C0.345,-0.53 0.34,-0.542 0.34,-0.556C0.34,-0.586 0.358,-0.601 0.395,-0.601C0.378,-0.628 0.348,-0.641 0.307,-0.641C0.294,-0.641 0.282,-0.639 0.269,-0.635C0.256,-0.632 0.241,-0.624 0.224,-0.611C0.207,-0.599 0.192,-0.583 0.179,-0.563C0.166,-0.544 0.155,-0.516 0.146,-0.479C0.136,-0.442 0.132,-0.4 0.132,-0.352L0.132,-0.328C0.159,-0.394 0.201,-0.427 0.257,-0.427C0.313,-0.427 0.36,-0.405 0.399,-0.363C0.438,-0.32 0.457,-0.267 0.457,-0.204C0.457,-0.139 0.437,-0.085 0.396,-0.042C0.356,0 0.308,0.022 0.251,0.022C0.226,0.022 0.201,0.017 0.178,0.006C0.156,-0.004 0.133,-0.022 0.112,-0.046C0.091,-0.07 0.074,-0.105 0.061,-0.151C0.048,-0.198 0.042,-0.252 0.042,-0.316ZM0.134,-0.226C0.134,-0.161 0.14,-0.112 0.152,-0.081C0.154,-0.076 0.157,-0.07 0.161,-0.063C0.166,-0.055 0.172,-0.047 0.179,-0.038C0.187,-0.029 0.197,-0.021 0.21,-0.015C0.223,-0.009 0.236,-0.006 0.251,-0.006C0.296,-0.006 0.329,-0.028 0.35,-0.071C0.361,-0.095 0.367,-0.14 0.367,-0.205C0.367,-0.272 0.361,-0.317 0.349,-0.342C0.329,-0.383 0.298,-0.404 0.256,-0.404C0.228,-0.404 0.204,-0.394 0.185,-0.375C0.165,-0.356 0.152,-0.333 0.145,-0.308C0.137,-0.282 0.134,-0.255 0.134,-0.226Z" style="fill-rule:nonzero;"/>
                </g>
                <g transform="matrix(9.33333,0,0,9.33333,38.6667,160.25)">
                    <path d="M0.039,-0.32C0.039,-0.418 0.051,-0.493 0.076,-0.547C0.111,-0.626 0.169,-0.666 0.25,-0.666C0.267,-0.666 0.285,-0.664 0.303,-0.659C0.321,-0.654 0.342,-0.643 0.365,-0.625C0.387,-0.607 0.406,-0.583 0.42,-0.554C0.447,-0.498 0.46,-0.419 0.46,-0.32C0.46,-0.222 0.448,-0.147 0.423,-0.094C0.387,-0.017 0.329,0.022 0.249,0.022C0.219,0.022 0.189,0.014 0.158,-0.001C0.128,-0.016 0.103,-0.042 0.084,-0.079C0.054,-0.134 0.039,-0.214 0.039,-0.32ZM0.122,-0.332C0.122,-0.231 0.126,-0.161 0.133,-0.121C0.141,-0.078 0.156,-0.047 0.178,-0.028C0.201,-0.009 0.224,-0 0.249,-0C0.276,-0 0.3,-0.01 0.323,-0.03C0.345,-0.05 0.359,-0.082 0.366,-0.125C0.374,-0.168 0.377,-0.237 0.377,-0.332C0.377,-0.425 0.374,-0.49 0.367,-0.527C0.358,-0.57 0.342,-0.601 0.319,-0.618C0.296,-0.635 0.272,-0.644 0.249,-0.644C0.24,-0.644 0.231,-0.643 0.222,-0.64C0.213,-0.638 0.201,-0.632 0.188,-0.625C0.175,-0.618 0.163,-0.604 0.153,-0.586C0.142,-0.567 0.135,-0.544 0.13,-0.516C0.125,-0.48 0.122,-0.419 0.122,-0.332Z" style="fill-rule:nonzero;"/>
                </g>
                <g transform="matrix(9.33333,0,0,9.33333,46.4368,160.25)">
                    <path d="M0.032,-0L0.032,-0.031C0.068,-0.031 0.09,-0.033 0.098,-0.037C0.106,-0.042 0.11,-0.055 0.11,-0.076L0.11,-0.344C0.11,-0.369 0.106,-0.384 0.097,-0.391C0.088,-0.397 0.067,-0.4 0.032,-0.4L0.032,-0.431L0.173,-0.442L0.173,-0.337C0.204,-0.407 0.253,-0.442 0.321,-0.442C0.399,-0.442 0.443,-0.409 0.454,-0.344C0.465,-0.37 0.483,-0.392 0.507,-0.412C0.531,-0.432 0.562,-0.442 0.599,-0.442C0.649,-0.442 0.684,-0.43 0.704,-0.405C0.719,-0.388 0.728,-0.371 0.73,-0.352C0.733,-0.333 0.735,-0.3 0.735,-0.252L0.735,-0.061C0.736,-0.047 0.741,-0.038 0.752,-0.035C0.763,-0.032 0.783,-0.031 0.813,-0.031L0.813,-0C0.745,-0.002 0.708,-0.003 0.701,-0.003C0.696,-0.003 0.658,-0.002 0.588,-0L0.588,-0.031C0.623,-0.031 0.645,-0.033 0.654,-0.037C0.662,-0.042 0.666,-0.055 0.666,-0.076L0.666,-0.309C0.666,-0.343 0.661,-0.37 0.65,-0.39C0.64,-0.41 0.62,-0.42 0.592,-0.42C0.557,-0.42 0.526,-0.405 0.499,-0.376C0.471,-0.347 0.457,-0.309 0.457,-0.26L0.457,-0.076C0.457,-0.055 0.461,-0.042 0.469,-0.037C0.478,-0.033 0.5,-0.031 0.535,-0.031L0.535,-0C0.467,-0.002 0.43,-0.003 0.423,-0.003C0.418,-0.003 0.38,-0.002 0.31,-0L0.31,-0.031C0.346,-0.031 0.367,-0.033 0.376,-0.037C0.384,-0.042 0.388,-0.055 0.388,-0.076L0.388,-0.309C0.388,-0.343 0.383,-0.37 0.373,-0.39C0.362,-0.41 0.343,-0.42 0.314,-0.42C0.279,-0.42 0.248,-0.405 0.221,-0.376C0.193,-0.347 0.179,-0.309 0.179,-0.26L0.179,-0.076C0.179,-0.055 0.183,-0.042 0.192,-0.037C0.2,-0.033 0.222,-0.031 0.257,-0.031L0.257,-0C0.189,-0.002 0.152,-0.003 0.145,-0.003C0.14,-0.003 0.102,-0.002 0.032,-0Z" style="fill-rule:nonzero;"/>
                </g>
                <g transform="matrix(9.33333,0,0,9.33333,54.207,160.25)">
                    <path d="M0.032,-0L0.032,-0.031C0.068,-0.031 0.09,-0.033 0.098,-0.037C0.106,-0.042 0.11,-0.055 0.11,-0.076L0.11,-0.344C0.11,-0.369 0.106,-0.384 0.097,-0.391C0.088,-0.397 0.067,-0.4 0.032,-0.4L0.032,-0.431L0.173,-0.442L0.173,-0.337C0.204,-0.407 0.253,-0.442 0.321,-0.442C0.399,-0.442 0.443,-0.409 0.454,-0.344C0.465,-0.37 0.483,-0.392 0.507,-0.412C0.531,-0.432 0.562,-0.442 0.599,-0.442C0.649,-0.442 0.684,-0.43 0.704,-0.405C0.719,-0.388 0.728,-0.371 0.73,-0.352C0.733,-0.333 0.735,-0.3 0.735,-0.252L0.735,-0.061C0.736,-0.047 0.741,-0.038 0.752,-0.035C0.763,-0.032 0.783,-0.031 0.813,-0.031L0.813,-0C0.745,-0.002 0.708,-0.003 0.701,-0.003C0.696,-0.003 0.658,-0.002 0.588,-0L0.588,-0.031C0.623,-0.031 0.645,-0.033 0.654,-0.037C0.662,-0.042 0.666,-0.055 0.666,-0.076L0.666,-0.309C0.666,-0.343 0.661,-0.37 0.65,-0.39C0.64,-0.41 0.62,-0.42 0.592,-0.42C0.557,-0.42 0.526,-0.405 0.499,-0.376C0.471,-0.347 0.457,-0.309 0.457,-0.26L0.457,-0.076C0.457,-0.055 0.461,-0.042 0.469,-0.037C0.478,-0.033 0.5,-0.031 0.535,-0.031L0.535,-0C0.467,-0.002 0.43,-0.003 0.423,-0.003C0.418,-0.003 0.38,-0.002 0.31,-0L0.31,-0.031C0.346,-0.031 0.367,-0.033 0.376,-0.037C0.384,-0.042 0.388,-0.055 0.388,-0.076L0.388,-0.309C0.388,-0.343 0.383,-0.37 0.373,-0.39C0.362,-0.41 0.343,-0.42 0.314,-0.42C0.279,-0.42 0.248,-0.405 0.221,-0.376C0.193,-0.347 0.179,-0.309 0.179,-0.26L0.179,-0.076C0.179,-0.055 0.183,-0.042 0.192,-0.037C0.2,-0.033 0.222,-0.031 0.257,-0.031L0.257,-0C0.189,-0.002 0.152,-0.003 0.145,-0.003C0.14,-0.003 0.102,-0.002 0.032,-0Z" style="fill-rule:nonzero;"/>
                </g>
            </g>
            <g transform="matrix(0.860476,0,0,0.829984,-181.329,-211.991)">
                <g transform="matrix(1.25687,0,0,1.25687,-82.9119,18.5702)">
                    <circle cx="58.204" cy="265.722" r="1.917" style="fill:white;stroke:black;stroke-width:0.29px;"/>
                </g>
                <g transform="matrix(1,0,0,1,-60,92.3133)">
                    <path d="M47.833,260.233C47.833,261.564 48.912,262.643 50.243,262.643L50.243,260.233L47.833,260.233Z" style="fill:rgb(20,20,20);"/>
                </g>
                <g transform="matrix(-1,-1.22465e-16,1.22465e-16,-1,40.4857,612.78)">
                    <path d="M47.833,260.233C47.833,261.564 48.912,262.643 50.243,262.643L50.243,260.233L47.833,260.233Z" style="fill:rgb(20,20,20);"/>
                </g>
            </g>
            <g transform="matrix(0.860476,0,0,0.829984,-181.329,-171.567)">
                <g transform="matrix(1.25687,0,0,1.25687,-82.9119,18.5702)">
                    <circle cx="58.204" cy="265.722" r="1.917" style="fill:white;stroke:black;stroke-width:0.29px;"/>
                </g>
                <g transform="matrix(1,0,0,1,-60,92.3133)">
                    <path d="M47.833,260.233C47.833,261.564 48.912,262.643 50.243,262.643L50.243,260.233L47.833,260.233Z" style="fill:rgb(20,20,20);"/>
                </g>
                <g transform="matrix(-1,-1.22465e-16,1.22465e-16,-1,40.4857,612.78)">
                    <path d="M47.833,260.233C47.833,261.564 48.912,262.643 50.243,262.643L50.243,260.233L47.833,260.233Z" style="fill:rgb(20,20,20);"/>
                </g>
            </g>
            <g transform="matrix(1.03674,0,0,1,-438.585,31.3672)">
                <path d="M225.042,59.25L255.042,59.25" style="fill:none;stroke:black;stroke-width:0.45px;stroke-dasharray:4.5,4.5,0,0;"/>
            </g>
        </g>
    </g>
</svg>
