<?xml version="1.0" encoding="UTF-8" standalone="no"?>
<!DOCTYPE svg PUBLIC "-//W3C//DTD SVG 1.1//EN" "http://www.w3.org/Graphics/SVG/1.1/DTD/svg11.dtd">
<svg width="100%" height="100%" viewBox="0 0 241 312" version="1.1" xmlns="http://www.w3.org/2000/svg" xmlns:xlink="http://www.w3.org/1999/xlink" xml:space="preserve" xmlns:serif="http://www.serif.com/" style="fill-rule:evenodd;clip-rule:evenodd;stroke-linecap:round;stroke-linejoin:round;stroke-miterlimit:10;">
    <g transform="matrix(1,0,0,1,-366,-30)">
        <g id="Artboard2" transform="matrix(0.706415,0,0,0.936115,299.584,-719.327)">
            <rect x="94.76" y="800.928" width="339.744" height="332.29" style="fill:none;"/>
            <g transform="matrix(0.687079,0,0,0.537113,-132.04,554.532)">
                <g id="TIC" transform="matrix(1,0,0,1,307.28,511.73)">
                    <g transform="matrix(0.458882,0.158844,-0.158844,0.458882,-240.453,-416.219)">
                        <path d="M1713.49,731L1768.51,731" style="fill:none;fill-rule:nonzero;stroke:black;stroke-width:3.09px;"/>
                    </g>
                    <g transform="matrix(0.394871,-0.134107,0.0771798,0.227252,-304.549,259.489)">
                        <path d="M1712.51,749L1768.49,749" style="fill:none;fill-rule:nonzero;stroke:black;stroke-width:4.54px;"/>
                    </g>
                </g>
                <g id="bar" transform="matrix(1,0,0,1,294,511.341)">
                    <path d="M236.324,132.764C236.324,132.764 378.913,181.625 394.047,187.998C405.931,193.002 403.505,199.465 388.961,204.11C376.88,207.968 192.514,272.738 184.949,274.493C174.548,276.905 181.922,294.38 189.526,292.16C198.04,289.674 370.039,229.587 393.973,222.047C421.368,213.417 438.965,184.595 395.214,169.351C350.639,153.819 253.927,119.812 242.262,115.712C231.791,118.262 232.13,132.182 236.324,132.764Z" style="fill:rgb(239,239,239);stroke:black;stroke-width:2.02px;stroke-miterlimit:1.5;"/>
                    <path d="M184.949,274.493C190.432,272.74 196.081,289.786 189.526,292.16" style="fill:rgb(239,239,239);stroke:black;stroke-width:2.02px;stroke-miterlimit:1.5;"/>
                </g>
            </g>
            <g transform="matrix(2.12903,0,0,1.66433,-908.347,-152.596)">
                <g id="g4639" transform="matrix(1,1.11022e-16,5.55112e-17,1.0281,759.125,25.8614)">
                    <g id="path4631" transform="matrix(0.664904,-7.18017e-17,-3.46559e-17,0.624305,-288.316,531.834)">
                        <path d="M99.097,39.351L101.347,32.601L103.597,39.351L99.097,39.351Z" style="fill:rgb(233,55,41);fill-rule:nonzero;"/>
                        <path d="M101.347,56.478L101.347,38.001" style="fill:none;fill-rule:nonzero;stroke:rgb(233,55,41);stroke-width:1.5px;stroke-linecap:butt;stroke-linejoin:miter;stroke-miterlimit:1.5;"/>
                    </g>
                    <g id="path4633" transform="matrix(1,-1.97693e-15,-2.12684e-15,0.425767,0.0117798,313.283)">
                        <g transform="matrix(0.664904,2.91866e-15,3.08395e-15,1.46631,-288.328,513.31)">
                            <path d="M99.115,30.194L101.365,23.444L103.615,30.194L99.115,30.194Z" style="fill:rgb(233,55,41);fill-rule:nonzero;"/>
                            <path d="M101.365,33.61L101.365,28.844" style="fill:none;fill-rule:nonzero;stroke:rgb(233,55,41);stroke-width:1.5px;stroke-linecap:butt;stroke-linejoin:miter;stroke-miterlimit:1.5;"/>
                        </g>
                    </g>
                    <g>
                        <path id="path4635" d="M-216.845,557.861C-214.528,558.458 -213.648,559.497 -214.685,560.41C-215.723,561.323 -218.447,561.907 -221.369,561.843C-224.292,561.778 -226.762,561.08 -227.431,560.13C-228.1,559.179 -226.818,558.188 -224.286,557.697" style="fill:none;stroke:rgb(233,55,41);stroke-width:0.85px;stroke-linecap:butt;stroke-linejoin:bevel;stroke-miterlimit:4;"/>
                        <path id="path4637" d="M-215.579,559.534L-218.127,557.315L-215.072,557.411L-215.679,558.279L-215.579,559.534Z" style="fill:rgb(233,55,41);fill-rule:nonzero;"/>
                    </g>
                </g>
                <g id="path3549" transform="matrix(1,0,0,1,577.363,-101.95)">
                    <g transform="matrix(0.664904,-0,-0,0.641846,-106.554,674.588)">
                        <path d="M98.932,64.195L101.182,57.445L103.432,64.195L98.932,64.195Z" style="fill:rgb(225,32,32);fill-rule:nonzero;"/>
                        <path d="M101.182,78.538L101.182,62.845" style="fill:none;fill-rule:nonzero;stroke:rgb(225,32,32);stroke-width:1.5px;stroke-linejoin:miter;stroke-miterlimit:1.5;"/>
                    </g>
                </g>
            </g>
            <g transform="matrix(-0.750038,-1.55763,1.99254,-0.586329,-616.531,2106.25)">
                <g id="g46391" serif:id="g4639" transform="matrix(1,1.11022e-16,5.55112e-17,1.0281,759.125,25.8614)">
                    <g id="path46311" serif:id="path4631" transform="matrix(-0.234239,0.605271,-0.600697,-0.219937,-142.426,547.5)">
                        <path d="M55.483,111.467L48.376,111.823L53.848,107.274L55.483,111.467Z" style="fill:rgb(233,55,41);fill-rule:nonzero;"/>
                        <path d="M69.947,103.411C69.947,103.411 59.781,107.376 53.407,109.861" style="fill:none;fill-rule:nonzero;stroke:rgb(233,55,41);stroke-width:1.5px;stroke-linecap:butt;stroke-linejoin:miter;stroke-miterlimit:1.5;"/>
                    </g>
                    <g id="path46331" serif:id="path4633" transform="matrix(1,-1.97693e-15,-2.12684e-15,0.425767,0.0117798,313.283)">
                        <g transform="matrix(-0.234239,1.4216,-0.600697,-0.516566,-142.438,550.105)">
                            <path d="M47.204,114.676L40.098,115.032L45.569,110.483L47.204,114.676Z" style="fill:rgb(233,55,41);fill-rule:nonzero;"/>
                            <path d="M49.282,111.45C49.282,111.45 47.269,112.235 45.129,113.07" style="fill:none;fill-rule:nonzero;stroke:rgb(233,55,41);stroke-width:1.5px;stroke-linecap:butt;stroke-linejoin:miter;stroke-miterlimit:1.5;"/>
                        </g>
                    </g>
                    <g>
                        <path id="path46351" serif:id="path4635" d="M-216.845,557.861C-214.528,558.458 -213.648,559.497 -214.685,560.41C-215.723,561.323 -218.447,561.907 -221.369,561.843C-224.292,561.778 -226.762,561.08 -227.431,560.13C-228.1,559.179 -226.818,558.188 -224.286,557.697" style="fill:none;stroke:rgb(233,55,41);stroke-width:0.85px;stroke-linecap:butt;stroke-linejoin:bevel;stroke-miterlimit:4;"/>
                        <path id="path46371" serif:id="path4637" d="M-215.579,559.534L-218.127,557.315L-215.072,557.411L-215.679,558.279L-215.579,559.534Z" style="fill:rgb(233,55,41);fill-rule:nonzero;"/>
                    </g>
                </g>
                <g id="path35491" serif:id="path3549" transform="matrix(1,0,0,1,577.363,-101.95)">
                    <g transform="matrix(-0.234239,0.622277,-0.600697,-0.226116,39.3356,690.695)">
                        <path d="M77.986,102.875L70.88,103.231L76.351,98.683L77.986,102.875Z" style="fill:rgb(225,32,32);fill-rule:nonzero;"/>
                        <path d="M89.936,95.801C89.936,95.801 81.556,99.068 75.911,101.27" style="fill:none;fill-rule:nonzero;stroke:rgb(225,32,32);stroke-width:1.5px;stroke-linejoin:miter;stroke-miterlimit:1.5;"/>
                    </g>
                </g>
            </g>
            <g transform="matrix(-0.68133,1.57681,-2.01707,-0.532618,1748.28,348.457)">
                <g id="g46392" serif:id="g4639" transform="matrix(1,1.11022e-16,5.55112e-17,1.0281,759.125,25.8614)">
                    <g id="path46312" serif:id="path4631" transform="matrix(-0.212782,-0.612721,0.608092,-0.199789,-253.166,606.333)">
                        <path d="M58.177,70.985L63.805,75.339L56.691,75.233L58.177,70.985Z" style="fill:rgb(233,55,41);fill-rule:nonzero;"/>
                        <path d="M41.969,67.698C41.969,67.698 52.255,71.297 58.708,73.555" style="fill:none;fill-rule:nonzero;stroke:rgb(233,55,41);stroke-width:1.5px;stroke-linecap:butt;stroke-linejoin:miter;stroke-miterlimit:1.5;"/>
                    </g>
                    <g id="path46332" serif:id="path4633" transform="matrix(1,-1.97693e-15,-2.12684e-15,0.425767,0.0117798,313.283)">
                        <g transform="matrix(-0.212782,-1.4391,0.608092,-0.469246,-253.178,688.287)">
                            <path d="M66.546,73.933L72.174,78.286L65.059,78.181L66.546,73.933Z" style="fill:rgb(233,55,41);fill-rule:nonzero;"/>
                            <path d="M62.876,75.033C62.876,75.033 64.911,75.745 67.077,76.503" style="fill:none;fill-rule:nonzero;stroke:rgb(233,55,41);stroke-width:1.5px;stroke-linecap:butt;stroke-linejoin:miter;stroke-miterlimit:1.5;"/>
                        </g>
                    </g>
                    <g>
                        <path id="path46352" serif:id="path4635" d="M-216.845,557.861C-214.528,558.458 -213.648,559.497 -214.685,560.41C-215.723,561.323 -218.447,561.907 -221.369,561.843C-224.292,561.778 -226.762,561.08 -227.431,560.13C-228.1,559.179 -226.818,558.188 -224.286,557.697" style="fill:none;stroke:rgb(233,55,41);stroke-width:0.85px;stroke-linecap:butt;stroke-linejoin:bevel;stroke-miterlimit:4;"/>
                        <path id="path46372" serif:id="path4637" d="M-215.579,559.534L-218.127,557.315L-215.072,557.411L-215.679,558.279L-215.579,559.534Z" style="fill:rgb(233,55,41);fill-rule:nonzero;"/>
                    </g>
                </g>
                <g id="path35492" serif:id="path3549" transform="matrix(1,0,0,1,577.528,-138.08)">
                    <g transform="matrix(-0.212782,-0.629937,0.608092,-0.205403,-71.5691,787.311)">
                        <path d="M86.911,81.13L92.539,85.483L85.425,85.378L86.911,81.13Z" style="fill:rgb(225,32,32);fill-rule:nonzero;"/>
                        <path d="M73.248,78.733C73.248,78.733 81.727,81.7 87.442,83.7" style="fill:none;fill-rule:nonzero;stroke:rgb(225,32,32);stroke-width:1.5px;stroke-linejoin:miter;stroke-miterlimit:1.5;"/>
                    </g>
                </g>
            </g>
            <g transform="matrix(1.4156,0,0,1.10662,198.2,865.156)">
                <g transform="matrix(1,0,0,1,13.2289,15.1661)">
                    <path d="M2.391,-1C2.297,-0.688 1.969,-0.172 1.484,-0.172C1.453,-0.172 1.172,-0.172 0.969,-0.297C1.359,-0.422 1.391,-0.766 1.391,-0.828C1.391,-1.031 1.234,-1.172 1,-1.172C0.734,-1.172 0.453,-0.953 0.453,-0.594C0.453,-0.125 1,0.094 1.469,0.094C1.906,0.094 2.297,-0.188 2.547,-0.578C2.766,-0.078 3.297,0.094 3.688,0.094C4.781,0.094 5.375,-1.094 5.375,-1.359C5.375,-1.484 5.25,-1.484 5.219,-1.484C5.078,-1.484 5.078,-1.438 5.031,-1.313C4.828,-0.656 4.266,-0.172 3.719,-0.172C3.344,-0.172 3.141,-0.422 3.141,-0.781C3.141,-1.031 3.375,-1.891 3.641,-2.938C3.828,-3.672 4.266,-3.906 4.578,-3.906C4.594,-3.906 4.891,-3.906 5.094,-3.781C4.781,-3.688 4.672,-3.422 4.672,-3.25C4.672,-3.047 4.828,-2.906 5.063,-2.906C5.281,-2.906 5.594,-3.094 5.594,-3.484C5.594,-4.016 4.984,-4.172 4.594,-4.172C4.109,-4.172 3.734,-3.859 3.516,-3.5C3.344,-3.891 2.906,-4.172 2.375,-4.172C1.297,-4.172 0.688,-3.016 0.688,-2.734C0.688,-2.609 0.813,-2.609 0.844,-2.609C0.969,-2.609 0.984,-2.641 1.031,-2.766C1.266,-3.5 1.875,-3.906 2.344,-3.906C2.656,-3.906 2.922,-3.734 2.922,-3.281C2.922,-3.094 2.797,-2.625 2.719,-2.297L2.391,-1Z" style="fill-rule:nonzero;"/>
                </g>
                <g transform="matrix(1,0,0,1,3.4389,13.1372)">
                    <path d="M10.422,-9.391C10.422,-9.438 10.391,-9.531 10.266,-9.531C10.219,-9.531 10.203,-9.516 10.063,-9.359L9.094,-8.328C8.969,-8.516 8.344,-9.531 6.828,-9.531C3.766,-9.531 0.688,-6.547 0.688,-3.406C0.688,-1.172 2.297,0.297 4.406,0.297C5.594,0.297 6.625,-0.25 7.359,-0.859C8.641,-1.969 8.859,-3.203 8.859,-3.25C8.859,-3.375 8.734,-3.375 8.703,-3.375C8.625,-3.375 8.547,-3.359 8.516,-3.25C8.406,-2.859 8.078,-1.891 7.141,-1.109C6.188,-0.344 5.328,-0.125 4.625,-0.125C3.391,-0.125 1.938,-0.828 1.938,-2.938C1.938,-3.703 2.219,-5.891 3.594,-7.469C4.422,-8.438 5.719,-9.109 6.938,-9.109C8.328,-9.109 9.141,-8.063 9.141,-6.5C9.141,-5.953 9.094,-5.953 9.094,-5.813C9.094,-5.672 9.25,-5.672 9.297,-5.672C9.484,-5.672 9.484,-5.703 9.547,-5.953L10.422,-9.391Z" style="fill-rule:nonzero;"/>
                </g>
            </g>
            <g transform="matrix(1.4156,0,0,1.10662,243.912,863.462)">
                <g transform="matrix(1,0,0,1,13.3856,14.8999)">
                    <path d="M5.328,-3.5C5.375,-3.641 5.375,-3.656 5.375,-3.703C5.375,-3.891 5.219,-4 5.063,-4C4.953,-4 4.766,-3.953 4.656,-3.781C4.641,-3.734 4.563,-3.438 4.516,-3.25L4.313,-2.469C4.25,-2.25 3.953,-1.078 3.922,-0.969C3.922,-0.969 3.484,-0.172 2.75,-0.172C2.094,-0.172 2.094,-0.766 2.094,-0.938C2.094,-1.438 2.313,-2.031 2.594,-2.75C2.719,-3.047 2.766,-3.156 2.766,-3.313C2.766,-3.75 2.375,-4.094 1.859,-4.094C0.875,-4.094 0.453,-2.828 0.453,-2.672C0.453,-2.563 0.578,-2.563 0.609,-2.563C0.75,-2.563 0.766,-2.609 0.781,-2.703C1.031,-3.484 1.438,-3.844 1.828,-3.844C1.984,-3.844 2.063,-3.734 2.063,-3.516C2.063,-3.297 1.969,-3.094 1.922,-2.969C1.469,-1.844 1.375,-1.5 1.375,-1.094C1.375,-0.938 1.375,-0.5 1.75,-0.188C2.047,0.047 2.453,0.094 2.703,0.094C3.094,0.094 3.438,-0.047 3.75,-0.328C3.625,0.188 3.516,0.578 3.125,1.047C2.859,1.328 2.469,1.641 1.969,1.641C1.906,1.641 1.453,1.641 1.25,1.328C1.766,1.281 1.766,0.828 1.766,0.813C1.766,0.516 1.484,0.469 1.391,0.469C1.156,0.469 0.828,0.656 0.828,1.078C0.828,1.547 1.297,1.891 1.969,1.891C2.938,1.891 4.125,1.172 4.422,0.016L5.328,-3.5Z" style="fill-rule:nonzero;"/>
                </g>
                <g transform="matrix(1,0,0,1,3.59427,12.9066)">
                    <path d="M10.422,-9.234C10.422,-9.266 10.391,-9.359 10.266,-9.359C10.219,-9.359 10.203,-9.344 10.063,-9.203L9.094,-8.188C8.969,-8.375 8.344,-9.359 6.828,-9.359C3.766,-9.359 0.688,-6.422 0.688,-3.344C0.688,-1.156 2.297,0.297 4.406,0.297C5.594,0.297 6.625,-0.234 7.359,-0.844C8.641,-1.938 8.859,-3.141 8.859,-3.188C8.859,-3.328 8.734,-3.328 8.703,-3.328C8.625,-3.328 8.547,-3.297 8.516,-3.188C8.406,-2.797 8.078,-1.859 7.141,-1.094C6.188,-0.344 5.328,-0.125 4.625,-0.125C3.391,-0.125 1.938,-0.813 1.938,-2.875C1.938,-3.641 2.219,-5.797 3.594,-7.344C4.422,-8.281 5.719,-8.953 6.938,-8.953C8.328,-8.953 9.141,-7.922 9.141,-6.391C9.141,-5.859 9.094,-5.844 9.094,-5.719C9.094,-5.578 9.25,-5.578 9.297,-5.578C9.484,-5.578 9.484,-5.609 9.547,-5.844L10.422,-9.234Z" style="fill-rule:nonzero;"/>
                </g>
            </g>
            <g transform="matrix(1.375,0,0,1.08483,-42.9421,-78.5242)">
                <g transform="matrix(1.02953,0,0,1.02009,189.768,924.596)">
                    <path d="M1.563,-0.828C1.797,-1.078 1.969,-1.266 2.766,-1.906C2.953,-2.063 3.656,-2.625 3.922,-2.891C4.484,-3.469 4.844,-3.953 4.844,-4.063C4.844,-4.172 4.719,-4.172 4.688,-4.172C4.609,-4.172 4.578,-4.156 4.531,-4.078C4.234,-3.641 4.047,-3.5 3.828,-3.5C3.703,-3.5 3.563,-3.516 3.297,-3.781C2.969,-4.109 2.766,-4.172 2.563,-4.172C1.813,-4.172 1.313,-3.359 1.313,-3.063C1.313,-2.984 1.406,-2.953 1.469,-2.953C1.578,-2.953 1.594,-2.984 1.641,-3.094C1.781,-3.422 2.297,-3.438 2.438,-3.438C2.656,-3.438 2.906,-3.375 3.031,-3.359C3.547,-3.234 3.609,-3.234 3.844,-3.234C3.594,-2.984 3.438,-2.813 2.547,-2.094C1.828,-1.5 1.578,-1.266 1.391,-1.078C0.844,-0.516 0.563,-0.109 0.563,-0.016C0.563,0.094 0.688,0.094 0.719,0.094C0.813,0.094 0.844,0.078 0.891,0C1.141,-0.359 1.422,-0.578 1.734,-0.578C1.844,-0.578 1.984,-0.563 2.234,-0.328C2.531,-0.047 2.719,0.094 3.016,0.094C4,0.094 4.625,-1.047 4.625,-1.375C4.625,-1.484 4.531,-1.5 4.469,-1.5C4.359,-1.5 4.344,-1.453 4.297,-1.344C4.125,-0.875 3.578,-0.641 3.125,-0.641C2.906,-0.641 2.672,-0.688 2.438,-0.75C2.016,-0.844 1.938,-0.844 1.781,-0.844C1.75,-0.844 1.625,-0.844 1.563,-0.828Z" style="fill-rule:nonzero;"/>
                </g>
                <g transform="matrix(1.02953,0,0,1.02009,180.127,923.481)">
                    <path d="M10.422,-9.391C10.422,-9.438 10.391,-9.531 10.266,-9.531C10.219,-9.531 10.203,-9.516 10.063,-9.359L9.094,-8.328C8.969,-8.516 8.344,-9.531 6.828,-9.531C3.766,-9.531 0.688,-6.547 0.688,-3.406C0.688,-1.172 2.297,0.297 4.406,0.297C5.594,0.297 6.625,-0.25 7.359,-0.859C8.641,-1.969 8.859,-3.203 8.859,-3.25C8.859,-3.375 8.734,-3.375 8.703,-3.375C8.625,-3.375 8.547,-3.359 8.516,-3.25C8.406,-2.859 8.078,-1.891 7.141,-1.109C6.188,-0.344 5.328,-0.125 4.625,-0.125C3.391,-0.125 1.938,-0.828 1.938,-2.938C1.938,-3.703 2.219,-5.891 3.594,-7.469C4.422,-8.438 5.719,-9.109 6.938,-9.109C8.328,-9.109 9.141,-8.063 9.141,-6.5C9.141,-5.953 9.094,-5.953 9.094,-5.813C9.094,-5.672 9.25,-5.672 9.297,-5.672C9.484,-5.672 9.484,-5.703 9.547,-5.953L10.422,-9.391Z" style="fill-rule:nonzero;"/>
                </g>
            </g>
            <g transform="matrix(1.4156,0,0,1.10662,255.264,766.599)">
                <g transform="matrix(1,0,0,1,-83.7099,89.7502)">
                    <path d="M12.297,-8.188C12.422,-8.672 12.438,-8.813 13.438,-8.813C13.75,-8.813 13.859,-8.813 13.859,-9.078C13.859,-9.234 13.734,-9.234 13.5,-9.234L11.75,-9.234C11.406,-9.234 11.391,-9.234 11.234,-8.969L6.391,-1.266L5.359,-8.922C5.313,-9.234 5.281,-9.234 4.938,-9.234L3.125,-9.234C2.875,-9.234 2.719,-9.234 2.719,-8.969C2.719,-8.813 2.844,-8.813 3.109,-8.813C3.281,-8.813 3.516,-8.797 3.672,-8.781C3.891,-8.766 3.969,-8.719 3.969,-8.563C3.969,-8.516 3.953,-8.469 3.922,-8.313L2.234,-1.438C2.094,-0.891 1.875,-0.453 0.797,-0.422C0.734,-0.422 0.563,-0.406 0.563,-0.156C0.563,-0.047 0.641,0 0.75,0C1.172,0 1.641,-0.047 2.078,-0.047C2.531,-0.047 3,0 3.438,0C3.5,0 3.672,0 3.672,-0.266C3.672,-0.422 3.531,-0.422 3.438,-0.422C2.688,-0.438 2.531,-0.703 2.531,-1.016C2.531,-1.109 2.547,-1.172 2.594,-1.328L4.391,-8.688L4.406,-8.688L5.547,-0.313C5.578,-0.156 5.594,0 5.75,0C5.891,0 5.984,-0.156 6.047,-0.25L11.406,-8.797L11.422,-8.797L9.516,-1.047C9.391,-0.531 9.359,-0.422 8.313,-0.422C8.094,-0.422 7.938,-0.422 7.938,-0.156C7.938,0 8.109,0 8.141,0C8.516,0 9.422,-0.047 9.781,-0.047C10.328,-0.047 10.906,0 11.453,0C11.531,0 11.703,0 11.703,-0.266C11.703,-0.422 11.578,-0.422 11.328,-0.422C10.844,-0.422 10.469,-0.422 10.469,-0.656C10.469,-0.719 10.469,-0.75 10.531,-0.984L12.297,-8.188Z" style="fill-rule:nonzero;"/>
                </g>
                <g transform="matrix(1,0,0,1,-70.8219,91.7792)">
                    <path d="M2.313,-1C2.219,-0.688 1.922,-0.172 1.438,-0.172C1.406,-0.172 1.141,-0.172 0.938,-0.297C1.313,-0.422 1.344,-0.766 1.344,-0.828C1.344,-1.031 1.188,-1.172 0.969,-1.172C0.719,-1.172 0.453,-0.953 0.453,-0.594C0.453,-0.125 0.969,0.094 1.422,0.094C1.844,0.094 2.234,-0.188 2.469,-0.578C2.688,-0.078 3.203,0.094 3.563,0.094C4.641,0.094 5.203,-1.094 5.203,-1.359C5.203,-1.484 5.078,-1.484 5.063,-1.484C4.922,-1.484 4.922,-1.438 4.875,-1.313C4.688,-0.656 4.125,-0.172 3.609,-0.172C3.234,-0.172 3.047,-0.422 3.047,-0.781C3.047,-1.031 3.266,-1.891 3.531,-2.938C3.703,-3.672 4.125,-3.906 4.438,-3.906C4.453,-3.906 4.734,-3.906 4.938,-3.781C4.641,-3.688 4.531,-3.422 4.531,-3.25C4.531,-3.047 4.688,-2.906 4.906,-2.906C5.109,-2.906 5.422,-3.094 5.422,-3.484C5.422,-4.016 4.828,-4.172 4.453,-4.172C3.984,-4.172 3.609,-3.859 3.406,-3.5C3.25,-3.891 2.813,-4.172 2.297,-4.172C1.25,-4.172 0.656,-3.016 0.656,-2.734C0.656,-2.609 0.797,-2.609 0.813,-2.609C0.938,-2.609 0.953,-2.641 1,-2.766C1.234,-3.5 1.813,-3.906 2.266,-3.906C2.578,-3.906 2.828,-3.734 2.828,-3.281C2.828,-3.094 2.719,-2.625 2.625,-2.297L2.313,-1Z" style="fill-rule:nonzero;"/>
                </g>
            </g>
            <g transform="matrix(1.4156,0,0,1.10662,244.757,821.272)">
                <g transform="matrix(1,0,0,1,16.0093,14.8999)">
                    <path d="M5.172,-3.5C5.203,-3.641 5.203,-3.656 5.203,-3.703C5.203,-3.891 5.063,-4 4.906,-4C4.797,-4 4.625,-3.953 4.516,-3.781C4.484,-3.734 4.422,-3.438 4.375,-3.25L4.172,-2.469C4.125,-2.25 3.828,-1.078 3.797,-0.969C3.797,-0.969 3.391,-0.172 2.656,-0.172C2.031,-0.172 2.031,-0.766 2.031,-0.938C2.031,-1.438 2.234,-2.031 2.516,-2.75C2.625,-3.047 2.672,-3.156 2.672,-3.313C2.672,-3.75 2.297,-4.094 1.797,-4.094C0.859,-4.094 0.438,-2.828 0.438,-2.672C0.438,-2.563 0.563,-2.563 0.594,-2.563C0.719,-2.563 0.734,-2.609 0.766,-2.703C1,-3.484 1.391,-3.844 1.766,-3.844C1.922,-3.844 2,-3.734 2,-3.516C2,-3.297 1.922,-3.094 1.875,-2.969C1.422,-1.844 1.328,-1.5 1.328,-1.094C1.328,-0.938 1.328,-0.5 1.688,-0.188C1.984,0.047 2.375,0.094 2.625,0.094C3,0.094 3.328,-0.047 3.641,-0.328C3.516,0.188 3.406,0.578 3.016,1.047C2.766,1.328 2.406,1.641 1.906,1.641C1.844,1.641 1.406,1.641 1.203,1.328C1.703,1.281 1.703,0.828 1.703,0.813C1.703,0.516 1.438,0.469 1.344,0.469C1.109,0.469 0.813,0.656 0.813,1.078C0.813,1.547 1.25,1.891 1.922,1.891C2.859,1.891 4,1.172 4.281,0.016L5.172,-3.5Z" style="fill-rule:nonzero;"/>
                </g>
                <g transform="matrix(1,0,0,1,3.12259,12.9066)">
                    <path d="M12.297,-8.047C12.422,-8.531 12.438,-8.656 13.438,-8.656C13.75,-8.656 13.859,-8.656 13.859,-8.922C13.859,-9.078 13.734,-9.078 13.5,-9.078L11.75,-9.078C11.406,-9.078 11.391,-9.078 11.234,-8.813L6.391,-1.25L5.359,-8.766C5.313,-9.078 5.281,-9.078 4.938,-9.078L3.125,-9.078C2.875,-9.078 2.719,-9.078 2.719,-8.813C2.719,-8.656 2.844,-8.656 3.109,-8.656C3.281,-8.656 3.516,-8.641 3.672,-8.641C3.891,-8.609 3.969,-8.563 3.969,-8.422C3.969,-8.375 3.953,-8.328 3.922,-8.172L2.234,-1.406C2.094,-0.875 1.875,-0.453 0.797,-0.406C0.734,-0.406 0.563,-0.406 0.563,-0.156C0.563,-0.047 0.641,0 0.75,0C1.172,0 1.641,-0.047 2.078,-0.047C2.531,-0.047 3,0 3.438,0C3.5,0 3.672,0 3.672,-0.266C3.672,-0.406 3.531,-0.406 3.438,-0.406C2.688,-0.422 2.531,-0.688 2.531,-1C2.531,-1.094 2.547,-1.156 2.594,-1.297L4.391,-8.547L4.406,-8.547L5.547,-0.313C5.578,-0.141 5.594,0 5.75,0C5.891,0 5.984,-0.141 6.047,-0.234L11.406,-8.641L11.422,-8.641L9.516,-1.031C9.391,-0.516 9.359,-0.406 8.313,-0.406C8.094,-0.406 7.938,-0.406 7.938,-0.156C7.938,0 8.109,0 8.141,0C8.516,0 9.422,-0.047 9.781,-0.047C10.328,-0.047 10.906,0 11.453,0C11.531,0 11.703,0 11.703,-0.266C11.703,-0.406 11.578,-0.406 11.328,-0.406C10.844,-0.406 10.469,-0.406 10.469,-0.656C10.469,-0.703 10.469,-0.734 10.531,-0.969L12.297,-8.047Z" style="fill-rule:nonzero;"/>
                </g>
            </g>
            <g transform="matrix(1.375,0,0,1.08483,-21.7584,-69.3848)">
                <g transform="matrix(1.02953,0,0,1.02009,137.99,931.192)">
                    <path d="M1.563,-0.828C1.797,-1.078 1.969,-1.266 2.766,-1.906C2.953,-2.063 3.656,-2.625 3.922,-2.891C4.484,-3.469 4.844,-3.953 4.844,-4.063C4.844,-4.172 4.719,-4.172 4.688,-4.172C4.609,-4.172 4.578,-4.156 4.531,-4.078C4.234,-3.641 4.047,-3.5 3.828,-3.5C3.703,-3.5 3.563,-3.516 3.297,-3.781C2.969,-4.109 2.766,-4.172 2.563,-4.172C1.813,-4.172 1.313,-3.359 1.313,-3.063C1.313,-2.984 1.406,-2.953 1.469,-2.953C1.578,-2.953 1.594,-2.984 1.641,-3.094C1.781,-3.422 2.297,-3.438 2.438,-3.438C2.656,-3.438 2.906,-3.375 3.031,-3.359C3.547,-3.234 3.609,-3.234 3.844,-3.234C3.594,-2.984 3.438,-2.813 2.547,-2.094C1.828,-1.5 1.578,-1.266 1.391,-1.078C0.844,-0.516 0.563,-0.109 0.563,-0.016C0.563,0.094 0.688,0.094 0.719,0.094C0.813,0.094 0.844,0.078 0.891,0C1.141,-0.359 1.422,-0.578 1.734,-0.578C1.844,-0.578 1.984,-0.563 2.234,-0.328C2.531,-0.047 2.719,0.094 3.016,0.094C4,0.094 4.625,-1.047 4.625,-1.375C4.625,-1.484 4.531,-1.5 4.469,-1.5C4.359,-1.5 4.344,-1.453 4.297,-1.344C4.125,-0.875 3.578,-0.641 3.125,-0.641C2.906,-0.641 2.672,-0.688 2.438,-0.75C2.016,-0.844 1.938,-0.844 1.781,-0.844C1.75,-0.844 1.625,-0.844 1.563,-0.828Z" style="fill-rule:nonzero;"/>
                </g>
                <g transform="matrix(1.02953,0,0,1.02009,124.723,929.122)">
                    <path d="M12.297,-8.188C12.422,-8.672 12.438,-8.813 13.438,-8.813C13.75,-8.813 13.859,-8.813 13.859,-9.078C13.859,-9.234 13.734,-9.234 13.5,-9.234L11.75,-9.234C11.406,-9.234 11.391,-9.234 11.234,-8.969L6.391,-1.266L5.359,-8.922C5.313,-9.234 5.281,-9.234 4.938,-9.234L3.125,-9.234C2.875,-9.234 2.719,-9.234 2.719,-8.969C2.719,-8.813 2.844,-8.813 3.109,-8.813C3.281,-8.813 3.516,-8.797 3.672,-8.781C3.891,-8.766 3.969,-8.719 3.969,-8.563C3.969,-8.516 3.953,-8.469 3.922,-8.313L2.234,-1.438C2.094,-0.891 1.875,-0.453 0.797,-0.422C0.734,-0.422 0.563,-0.406 0.563,-0.156C0.563,-0.047 0.641,0 0.75,0C1.172,0 1.641,-0.047 2.078,-0.047C2.531,-0.047 3,0 3.438,0C3.5,0 3.672,0 3.672,-0.266C3.672,-0.422 3.531,-0.422 3.438,-0.422C2.688,-0.438 2.531,-0.703 2.531,-1.016C2.531,-1.109 2.547,-1.172 2.594,-1.328L4.391,-8.688L4.406,-8.688L5.547,-0.313C5.578,-0.156 5.594,0 5.75,0C5.891,0 5.984,-0.156 6.047,-0.25L11.406,-8.797L11.422,-8.797L9.516,-1.047C9.391,-0.531 9.359,-0.422 8.313,-0.422C8.094,-0.422 7.938,-0.422 7.938,-0.156C7.938,0 8.109,0 8.141,0C8.516,0 9.422,-0.047 9.781,-0.047C10.328,-0.047 10.906,0 11.453,0C11.531,0 11.703,0 11.703,-0.266C11.703,-0.422 11.578,-0.422 11.328,-0.422C10.844,-0.422 10.469,-0.422 10.469,-0.656C10.469,-0.719 10.469,-0.75 10.531,-0.984L12.297,-8.188Z" style="fill-rule:nonzero;"/>
                </g>
            </g>
            <g transform="matrix(1.125,0,0,1.06452,4.9521,-81.597)">
                <g transform="matrix(0.655615,0,0,0.541635,77.6717,876.579)">
                    <text x="109.975px" y="241.41px" style="font-family:'CMUSerif-Italic', 'CMU Serif';font-weight:500;font-style:italic;font-size:24.951px;">A</text>
                </g>
                <g transform="matrix(1.53371,0.332458,0.40242,1.52535,-1444.13,357.051)">
                    <path d="M999.943,204.136L1047.34,273.398" style="fill:none;stroke:rgb(194,194,194);stroke-width:0.47px;stroke-miterlimit:1.5;stroke-dasharray:4.7,4.7,0,0;"/>
                </g>
                <g id="ROPE" transform="matrix(0.00106208,-0.0526388,0.254305,-0.127169,-241.609,1324.05)">
                    <g transform="matrix(-12.0757,4.99847,-19.2582,0.08043,6429.8,1234.54)">
                        <path d="M108.826,234.794L121.888,245.041L117.587,229.006L108.826,234.794Z" style="fill:rgb(46,144,224);fill-rule:nonzero;"/>
                        <path d="M114.942,234.528C101.776,214.598 74.488,173.291 74.488,173.291" style="fill:none;fill-rule:nonzero;stroke:rgb(46,144,224);stroke-width:3.5px;"/>
                    </g>
                </g>
                <g transform="matrix(1.25831,0,0,1.03955,-830.178,750.506)">
                    <text x="850.38px" y="308.195px" style="font-family:'CMUSerif-Bold', 'CMU Serif';font-weight:700;font-size:15px;">F</text>
                </g>
                <g transform="matrix(1.22222,0,0,0.98374,-34.2955,16.6212)">
                    <g id="OVAL" transform="matrix(0.536413,0,0,0.531494,70.5133,786.731)">
                        <g transform="matrix(-0.227684,0.0758947,-0.0758947,-0.227684,811.141,1123.27)">
                            <path d="M1273.76,2570.5L1283.24,2570.5" style="fill:none;fill-rule:nonzero;stroke:black;stroke-width:2.3px;"/>
                        </g>
                        <g transform="matrix(-0.227684,0.0758947,-0.0758947,-0.227684,815.786,1120.84)">
                            <path d="M1282.67,2567L1295.33,2567" style="fill:none;fill-rule:nonzero;stroke:black;stroke-width:2.3px;"/>
                        </g>
                        <g transform="matrix(-0.237209,0.0364937,-0.0364937,-0.237209,732.778,1194.19)">
                            <path d="M1294.92,2564L1308.08,2564" style="fill:none;fill-rule:nonzero;stroke:black;stroke-width:2.3px;"/>
                        </g>
                        <g transform="matrix(-0.237588,0.0339411,-0.0339411,-0.237588,733.105,1197.07)">
                            <path d="M1307.93,2562L1322.07,2562" style="fill:none;fill-rule:nonzero;stroke:black;stroke-width:2.3px;"/>
                        </g>
                        <g transform="matrix(-0.24,0,0,-0.24,656.04,1247.4)">
                            <path d="M1322,2561L1336,2561" style="fill:none;fill-rule:nonzero;stroke:black;stroke-width:2.3px;"/>
                        </g>
                        <g transform="matrix(-0.239468,-0.0159646,0.0159646,-0.239468,621.393,1267.73)">
                            <path d="M1335.98,2561.5L1351.02,2561.5" style="fill:none;fill-rule:nonzero;stroke:black;stroke-width:2.3px;"/>
                        </g>
                        <g transform="matrix(-0.23939,-0.0170993,0.0170993,-0.23939,625.315,1269.78)">
                            <path d="M1350.98,2562.5L1365.02,2562.5" style="fill:none;fill-rule:nonzero;stroke:black;stroke-width:2.3px;"/>
                        </g>
                        <g transform="matrix(-0.237209,-0.0364937,0.0364937,-0.237209,579.043,1291.74)">
                            <path d="M1364.92,2564L1378.08,2564" style="fill:none;fill-rule:nonzero;stroke:black;stroke-width:2.3px;"/>
                        </g>
                        <g transform="matrix(-0.22555,-0.0820183,0.0820183,-0.22555,451.668,1326.66)">
                            <path d="M1377.65,2567L1389.35,2567" style="fill:none;fill-rule:nonzero;stroke:black;stroke-width:2.3px;"/>
                        </g>
                        <g transform="matrix(-0.219315,-0.0974732,0.0974732,-0.219315,407.571,1334.85)">
                            <path d="M1388.58,2571L1398.42,2571" style="fill:none;fill-rule:nonzero;stroke:black;stroke-width:2.3px;"/>
                        </g>
                        <g transform="matrix(-0.208378,-0.119073,0.119073,-0.208378,339.908,1339.58)">
                            <path d="M1397.47,2575L1405.53,2575" style="fill:none;fill-rule:nonzero;stroke:black;stroke-width:2.3px;"/>
                        </g>
                        <g transform="matrix(-0.169706,-0.169706,0.169706,-0.169706,157.025,1313.82)">
                            <path d="M1403.96,2579.5L1411.04,2579.5" style="fill:none;fill-rule:nonzero;stroke:black;stroke-width:2.3px;"/>
                        </g>
                        <g transform="matrix(-0.0470679,-0.235339,0.235339,-0.0470679,-185.205,1091.99)">
                            <path d="M1407.95,2584.5L1413.05,2584.5" style="fill:none;fill-rule:nonzero;stroke:black;stroke-width:2.3px;"/>
                        </g>
                        <g transform="matrix(0.0891338,-0.222834,0.222834,0.0891338,-346.188,722.985)">
                            <path d="M1407.31,2589.5L1412.69,2589.5" style="fill:none;fill-rule:nonzero;stroke:black;stroke-width:2.3px;"/>
                        </g>
                        <g transform="matrix(0.149927,-0.187409,0.187409,0.149927,-341.378,515.499)">
                            <path d="M1403.8,2594.5L1410.2,2594.5" style="fill:none;fill-rule:nonzero;stroke:black;stroke-width:2.3px;"/>
                        </g>
                        <g transform="matrix(0.195296,-0.139497,0.139497,0.195296,-281.85,329.833)">
                            <path d="M1397.2,2599.5L1405.8,2599.5" style="fill:none;fill-rule:nonzero;stroke:black;stroke-width:2.3px;"/>
                        </g>
                        <g transform="matrix(0.227684,-0.0758947,0.0758947,0.227684,-162.309,155.944)">
                            <path d="M1388.76,2603.5L1398.24,2603.5" style="fill:none;fill-rule:nonzero;stroke:black;stroke-width:2.3px;"/>
                        </g>
                        <g transform="matrix(0.227684,-0.0758947,0.0758947,0.227684,-162.704,155.19)">
                            <path d="M1376.67,2607L1389.33,2607" style="fill:none;fill-rule:nonzero;stroke:black;stroke-width:2.3px;"/>
                        </g>
                        <g transform="matrix(0.237209,-0.0364937,0.0364937,0.237209,-73.3038,75.4186)">
                            <path d="M1363.92,2610L1377.08,2610" style="fill:none;fill-rule:nonzero;stroke:black;stroke-width:2.3px;"/>
                        </g>
                        <g transform="matrix(0.237588,-0.0339411,0.0339411,0.237588,-67.261,70.4786)">
                            <path d="M1349.93,2612L1364.07,2612" style="fill:none;fill-rule:nonzero;stroke:black;stroke-width:2.3px;"/>
                        </g>
                        <g transform="matrix(0.24,0,0,-0.24,18.12,1272.36)">
                            <path d="M1335,2613L1350,2613" style="fill:none;fill-rule:nonzero;stroke:black;stroke-width:2.3px;"/>
                        </g>
                        <g transform="matrix(0.23939,0.0170993,-0.0170993,0.23939,63.6019,-2.99446)">
                            <path d="M1320.98,2612.5L1335.02,2612.5" style="fill:none;fill-rule:nonzero;stroke:black;stroke-width:2.3px;"/>
                        </g>
                        <g transform="matrix(0.23939,0.0170993,-0.0170993,0.23939,63.5762,-2.75568)">
                            <path d="M1306.98,2611.5L1321.02,2611.5" style="fill:none;fill-rule:nonzero;stroke:black;stroke-width:2.3px;"/>
                        </g>
                        <g transform="matrix(0.237209,0.0364937,-0.0364937,0.237209,116.998,-22.0561)">
                            <path d="M1293.92,2610L1307.08,2610" style="fill:none;fill-rule:nonzero;stroke:black;stroke-width:2.3px;"/>
                        </g>
                        <g transform="matrix(0.22555,0.0820183,-0.0820183,0.22555,250.56,-49.8906)">
                            <path d="M1282.65,2607L1294.35,2607" style="fill:none;fill-rule:nonzero;stroke:black;stroke-width:2.3px;"/>
                        </g>
                        <g transform="matrix(0.222834,0.0891338,-0.0891338,0.222834,272.073,-51.1109)">
                            <path d="M1272.62,2603L1283.38,2603" style="fill:none;fill-rule:nonzero;stroke:black;stroke-width:2.3px;"/>
                        </g>
                        <g transform="matrix(0.208378,0.119073,-0.119073,0.208378,367.735,-50.859)">
                            <path d="M1265.47,2599L1273.53,2599" style="fill:none;fill-rule:nonzero;stroke:black;stroke-width:2.3px;"/>
                        </g>
                        <g transform="matrix(0.149927,0.187409,-0.187409,0.149927,618.204,14.9305)">
                            <path d="M1260.8,2594.5L1267.2,2594.5" style="fill:none;fill-rule:nonzero;stroke:black;stroke-width:2.3px;"/>
                        </g>
                        <g transform="matrix(0.0470679,0.235339,-0.235339,0.0470679,870.915,220.837)">
                            <path d="M1258.95,2589.5L1264.05,2589.5" style="fill:none;fill-rule:nonzero;stroke:black;stroke-width:2.3px;"/>
                        </g>
                        <g transform="matrix(-0.0470679,0.235339,-0.235339,-0.0470679,988.491,463.166)">
                            <path d="M1258.95,2584.5L1264.05,2584.5" style="fill:none;fill-rule:nonzero;stroke:black;stroke-width:2.3px;"/>
                        </g>
                        <g transform="matrix(-0.169706,0.169706,-0.169706,-0.169706,973.948,860.363)">
                            <path d="M1260.96,2579.5L1268.04,2579.5" style="fill:none;fill-rule:nonzero;stroke:black;stroke-width:2.3px;"/>
                        </g>
                        <g transform="matrix(-0.195296,0.139497,-0.139497,-0.195296,930.299,961.558)">
                            <path d="M1266.2,2574.5L1274.8,2574.5" style="fill:none;fill-rule:nonzero;stroke:black;stroke-width:2.3px;"/>
                        </g>
                    </g>
                    <g transform="matrix(0.536413,0,0,0.531494,126.966,781.978)">
                        <ellipse cx="233.872" cy="648.194" rx="17.108" ry="7.515" style="fill:rgb(196,196,196);stroke:black;stroke-width:1.92px;stroke-miterlimit:1.5;"/>
                    </g>
                    <g transform="matrix(0.159876,0,0,0.15841,228.604,1031.01)">
                        <ellipse cx="147.129" cy="601.299" rx="11.896" ry="6.987" style="stroke:black;stroke-width:4.83px;stroke-miterlimit:1.5;"/>
                    </g>
                    <g transform="matrix(0.536413,0,0,0.531494,192.367,990.266)">
                        <text x="109.975px" y="237.571px" style="font-family:'CMUSerif-Italic', 'CMU Serif';font-weight:500;font-style:italic;font-size:24.951px;">B</text>
                    </g>
                </g>
            </g>
            <g transform="matrix(1.125,0,0,1.06452,-40.8989,-44.9699)">
                <g transform="matrix(0.125449,0,0,0.103639,342.568,806.393)">
                    <g id="z" transform="matrix(-0.255505,0.0873625,-0.0873625,-0.255505,426.027,968.609)">
                        <g transform="matrix(-35.1483,-12.0179,11.6011,-33.9294,6410.33,6443.5)">
                            <path d="M182.605,67.964L177.862,68.052L181.603,65.136L182.605,67.964Z" style="fill:rgb(3,44,226);fill-rule:nonzero;"/>
                            <path d="M200.852,59.909C200.852,59.909 187.651,64.585 181.256,66.85" style="fill:none;fill-rule:nonzero;stroke:rgb(3,44,226);stroke-width:1px;"/>
                        </g>
                    </g>
                    <g id="x" transform="matrix(-0.175758,-0.0615501,0.0870868,-0.248679,450.747,1114.8)">
                        <g transform="matrix(-50.8355,12.5822,-17.1851,-34.6829,13466.6,1623.15)">
                            <path d="M219.596,68.304L224.338,68.429L220.619,65.484L219.596,68.304Z" style="fill:rgb(248,41,8);fill-rule:nonzero;"/>
                            <path d="M220.954,67.201C214.452,64.843 200.852,59.909 200.852,59.909" style="fill:none;fill-rule:nonzero;stroke:rgb(248,41,8);stroke-width:1px;"/>
                        </g>
                    </g>
                    <g id="y" transform="matrix(-1.66218e-17,-0.581287,0.24,4.67812e-18,63,852.909)">
                        <path d="M671,737L1177,737" style="fill:rgb(255,38,21);fill-rule:nonzero;"/>
                        <g transform="matrix(3.3635e-16,41.7937,-16.6573,-1.15364e-15,1669.79,-7657.36)">
                            <path d="M199.352,34.084L200.852,29.584L202.352,34.084L199.352,34.084Z" style="fill:rgb(0,159,0);fill-rule:nonzero;"/>
                            <path d="M200.852,59.961L200.852,33.184" style="fill:none;fill-rule:nonzero;stroke:rgb(0,159,0);stroke-width:1px;"/>
                        </g>
                    </g>
                </g>
                <g transform="matrix(1.25831,0,0,1.03955,-966.955,827.723)">
                    <text x="1088.98px" y="37.969px" style="font-family:'CMUSerif-Italic', 'CMU Serif';font-weight:500;font-style:italic;font-size:10px;">x</text>
                </g>
                <g transform="matrix(1.25831,0,0,1.03955,-1035.35,829.079)">
                    <text x="1088.98px" y="37.969px" style="font-family:'CMUSerif-Italic', 'CMU Serif';font-weight:500;font-style:italic;font-size:12px;">z</text>
                </g>
                <g transform="matrix(1.25831,0,0,1.03955,-1002.07,779.868)">
                    <text x="1088.98px" y="37.969px" style="font-family:'CMUSerif-Italic', 'CMU Serif';font-weight:500;font-style:italic;font-size:10px;">y</text>
                </g>
            </g>
            <g id="labels">
            </g>
        </g>
    </g>
</svg>
