<?xml version="1.0" encoding="UTF-8" standalone="no"?>
<!DOCTYPE svg PUBLIC "-//W3C//DTD SVG 1.1//EN" "http://www.w3.org/Graphics/SVG/1.1/DTD/svg11.dtd">
<svg width="100%" height="100%" viewBox="0 0 300 265" version="1.1" xmlns="http://www.w3.org/2000/svg" xmlns:xlink="http://www.w3.org/1999/xlink" xml:space="preserve" xmlns:serif="http://www.serif.com/" style="fill-rule:evenodd;clip-rule:evenodd;stroke-linecap:round;stroke-linejoin:round;stroke-miterlimit:10;">
    <g id="Artboard3" transform="matrix(0.470018,0,0,0.501448,341.908,17.0308)">
        <rect x="-727.436" y="-33.963" width="638.273" height="526.503" style="fill:none;"/>
        <g id="AXIS">
        </g>
        <g transform="matrix(1.10853,0,0,1.03905,-732.755,-195.544)">
            <g id="z" transform="matrix(-0.255505,0.0873625,-0.0873625,-0.255505,426.027,968.609)">
                <g transform="matrix(-6.72544,-2.29956,2.29956,-6.72544,501.841,3353.91)">
                    <path d="M11.82,200.887L2.333,200.96L9.879,195.21L11.82,200.887Z" style="fill:rgb(3,44,226);fill-rule:nonzero;"/>
                    <path d="M122.484,159.878C122.484,159.878 34.575,189.936 9.146,198.631" style="fill:none;fill-rule:nonzero;stroke:rgb(3,44,226);stroke-width:1px;"/>
                </g>
            </g>
            <g id="x" transform="matrix(-0.248679,-0.0870868,0.0870868,-0.248679,613.117,1171.66)">
                <g transform="matrix(-6.87479,2.40754,-2.40754,-6.87479,3453.63,2876.74)">
                    <path d="M286.663,220.552L296.149,220.695L288.646,214.889L286.663,220.552Z" style="fill:rgb(248,41,8);fill-rule:nonzero;"/>
                    <path d="M289.354,218.315C257.268,207.079 122.484,159.878 122.484,159.878" style="fill:none;fill-rule:nonzero;stroke:rgb(248,41,8);stroke-width:1px;"/>
                </g>
            </g>
            <g id="y" transform="matrix(-1.66218e-17,-0.581287,0.24,4.67812e-18,63,852.909)">
                <path d="M671,737L1177,737" style="fill:rgb(255,38,21);fill-rule:nonzero;"/>
                <g transform="matrix(6.43588e-17,7.99701,-3.30178,-2.28672e-16,1199.75,-242.509)">
                    <path d="M119.484,15.891L122.484,6.891L125.484,15.891L119.484,15.891Z" style="fill:rgb(0,159,0);fill-rule:nonzero;"/>
                    <path d="M122.484,160.141L122.484,14.091" style="fill:none;fill-rule:nonzero;stroke:rgb(0,159,0);stroke-width:1px;"/>
                </g>
            </g>
        </g>
        <g id="FLOOR" transform="matrix(1.10853,0,0,1.03905,-732.755,-195.544)">
            <g transform="matrix(0.227407,-0.0781128,0.0779671,0.226983,-149.772,187.497)">
                <path d="M1311.54,2440.5L2213.46,2440.5" style="fill:none;fill-rule:nonzero;stroke:black;stroke-width:4.39px;"/>
            </g>
            <g transform="matrix(0.226008,0.0792635,-0.0794275,0.226476,216.116,-5.50733)">
                <path d="M32.2,2365L1373.8,2365" style="fill:none;fill-rule:nonzero;stroke:black;stroke-width:4.8px;"/>
            </g>
        </g>
        <g id="TIC" transform="matrix(1.10853,0,0,1.03905,-718.034,-59.1596)">
            <g transform="matrix(0.458882,0.158844,-0.158844,0.458882,-240.453,-416.219)">
                <path d="M1713.49,731L1768.51,731" style="fill:none;fill-rule:nonzero;stroke:black;stroke-width:2.96px;"/>
            </g>
            <g transform="matrix(0.394871,-0.134107,0.0771798,0.227252,-304.549,259.489)">
                <path d="M1712.51,749L1768.49,749" style="fill:none;fill-rule:nonzero;stroke:black;stroke-width:4.23px;"/>
            </g>
        </g>
        <g id="OVAL" transform="matrix(1.10853,0,0,1.03905,-732.755,-195.544)">
            <g transform="matrix(-0.227684,0.0758947,-0.0758947,-0.227684,811.141,1123.27)">
                <path d="M1273.76,2570.5L1283.24,2570.5" style="fill:none;fill-rule:nonzero;stroke:black;stroke-width:2.3px;"/>
            </g>
            <g transform="matrix(-0.227684,0.0758947,-0.0758947,-0.227684,815.786,1120.84)">
                <path d="M1282.67,2567L1295.33,2567" style="fill:none;fill-rule:nonzero;stroke:black;stroke-width:2.3px;"/>
            </g>
            <g transform="matrix(-0.237209,0.0364937,-0.0364937,-0.237209,732.778,1194.19)">
                <path d="M1294.92,2564L1308.08,2564" style="fill:none;fill-rule:nonzero;stroke:black;stroke-width:2.3px;"/>
            </g>
            <g transform="matrix(-0.237588,0.0339411,-0.0339411,-0.237588,733.105,1197.07)">
                <path d="M1307.93,2562L1322.07,2562" style="fill:none;fill-rule:nonzero;stroke:black;stroke-width:2.3px;"/>
            </g>
            <g transform="matrix(-0.24,0,0,-0.24,656.04,1247.4)">
                <path d="M1322,2561L1336,2561" style="fill:none;fill-rule:nonzero;stroke:black;stroke-width:2.3px;"/>
            </g>
            <g transform="matrix(-0.239468,-0.0159646,0.0159646,-0.239468,621.393,1267.73)">
                <path d="M1335.98,2561.5L1351.02,2561.5" style="fill:none;fill-rule:nonzero;stroke:black;stroke-width:2.3px;"/>
            </g>
            <g transform="matrix(-0.23939,-0.0170993,0.0170993,-0.23939,625.315,1269.78)">
                <path d="M1350.98,2562.5L1365.02,2562.5" style="fill:none;fill-rule:nonzero;stroke:black;stroke-width:2.3px;"/>
            </g>
            <g transform="matrix(-0.237209,-0.0364937,0.0364937,-0.237209,579.043,1291.74)">
                <path d="M1364.92,2564L1378.08,2564" style="fill:none;fill-rule:nonzero;stroke:black;stroke-width:2.3px;"/>
            </g>
            <g transform="matrix(-0.22555,-0.0820183,0.0820183,-0.22555,451.668,1326.66)">
                <path d="M1377.65,2567L1389.35,2567" style="fill:none;fill-rule:nonzero;stroke:black;stroke-width:2.3px;"/>
            </g>
            <g transform="matrix(-0.219315,-0.0974732,0.0974732,-0.219315,407.571,1334.85)">
                <path d="M1388.58,2571L1398.42,2571" style="fill:none;fill-rule:nonzero;stroke:black;stroke-width:2.3px;"/>
            </g>
            <g transform="matrix(-0.208378,-0.119073,0.119073,-0.208378,339.908,1339.58)">
                <path d="M1397.47,2575L1405.53,2575" style="fill:none;fill-rule:nonzero;stroke:black;stroke-width:2.3px;"/>
            </g>
            <g transform="matrix(-0.169706,-0.169706,0.169706,-0.169706,157.025,1313.82)">
                <path d="M1403.96,2579.5L1411.04,2579.5" style="fill:none;fill-rule:nonzero;stroke:black;stroke-width:2.3px;"/>
            </g>
            <g transform="matrix(-0.0470679,-0.235339,0.235339,-0.0470679,-185.205,1091.99)">
                <path d="M1407.95,2584.5L1413.05,2584.5" style="fill:none;fill-rule:nonzero;stroke:black;stroke-width:2.3px;"/>
            </g>
            <g transform="matrix(0.0891338,-0.222834,0.222834,0.0891338,-346.188,722.985)">
                <path d="M1407.31,2589.5L1412.69,2589.5" style="fill:none;fill-rule:nonzero;stroke:black;stroke-width:2.3px;"/>
            </g>
            <g transform="matrix(0.149927,-0.187409,0.187409,0.149927,-341.378,515.499)">
                <path d="M1403.8,2594.5L1410.2,2594.5" style="fill:none;fill-rule:nonzero;stroke:black;stroke-width:2.3px;"/>
            </g>
            <g transform="matrix(0.195296,-0.139497,0.139497,0.195296,-281.85,329.833)">
                <path d="M1397.2,2599.5L1405.8,2599.5" style="fill:none;fill-rule:nonzero;stroke:black;stroke-width:2.3px;"/>
            </g>
            <g transform="matrix(0.227684,-0.0758947,0.0758947,0.227684,-162.309,155.944)">
                <path d="M1388.76,2603.5L1398.24,2603.5" style="fill:none;fill-rule:nonzero;stroke:black;stroke-width:2.3px;"/>
            </g>
            <g transform="matrix(0.227684,-0.0758947,0.0758947,0.227684,-162.704,155.19)">
                <path d="M1376.67,2607L1389.33,2607" style="fill:none;fill-rule:nonzero;stroke:black;stroke-width:2.3px;"/>
            </g>
            <g transform="matrix(0.237209,-0.0364937,0.0364937,0.237209,-73.3038,75.4186)">
                <path d="M1363.92,2610L1377.08,2610" style="fill:none;fill-rule:nonzero;stroke:black;stroke-width:2.3px;"/>
            </g>
            <g transform="matrix(0.237588,-0.0339411,0.0339411,0.237588,-67.261,70.4786)">
                <path d="M1349.93,2612L1364.07,2612" style="fill:none;fill-rule:nonzero;stroke:black;stroke-width:2.3px;"/>
            </g>
            <g transform="matrix(0.24,0,0,-0.24,18.12,1272.36)">
                <path d="M1335,2613L1350,2613" style="fill:none;fill-rule:nonzero;stroke:black;stroke-width:2.3px;"/>
            </g>
            <g transform="matrix(0.23939,0.0170993,-0.0170993,0.23939,63.6019,-2.99446)">
                <path d="M1320.98,2612.5L1335.02,2612.5" style="fill:none;fill-rule:nonzero;stroke:black;stroke-width:2.3px;"/>
            </g>
            <g transform="matrix(0.23939,0.0170993,-0.0170993,0.23939,63.5762,-2.75568)">
                <path d="M1306.98,2611.5L1321.02,2611.5" style="fill:none;fill-rule:nonzero;stroke:black;stroke-width:2.3px;"/>
            </g>
            <g transform="matrix(0.237209,0.0364937,-0.0364937,0.237209,116.998,-22.0561)">
                <path d="M1293.92,2610L1307.08,2610" style="fill:none;fill-rule:nonzero;stroke:black;stroke-width:2.3px;"/>
            </g>
            <g transform="matrix(0.22555,0.0820183,-0.0820183,0.22555,250.56,-49.8906)">
                <path d="M1282.65,2607L1294.35,2607" style="fill:none;fill-rule:nonzero;stroke:black;stroke-width:2.3px;"/>
            </g>
            <g transform="matrix(0.222834,0.0891338,-0.0891338,0.222834,272.073,-51.1109)">
                <path d="M1272.62,2603L1283.38,2603" style="fill:none;fill-rule:nonzero;stroke:black;stroke-width:2.3px;"/>
            </g>
            <g transform="matrix(0.208378,0.119073,-0.119073,0.208378,367.735,-50.859)">
                <path d="M1265.47,2599L1273.53,2599" style="fill:none;fill-rule:nonzero;stroke:black;stroke-width:2.3px;"/>
            </g>
            <g transform="matrix(0.149927,0.187409,-0.187409,0.149927,618.204,14.9305)">
                <path d="M1260.8,2594.5L1267.2,2594.5" style="fill:none;fill-rule:nonzero;stroke:black;stroke-width:2.3px;"/>
            </g>
            <g transform="matrix(0.0470679,0.235339,-0.235339,0.0470679,870.915,220.837)">
                <path d="M1258.95,2589.5L1264.05,2589.5" style="fill:none;fill-rule:nonzero;stroke:black;stroke-width:2.3px;"/>
            </g>
            <g transform="matrix(-0.0470679,0.235339,-0.235339,-0.0470679,988.491,463.166)">
                <path d="M1258.95,2584.5L1264.05,2584.5" style="fill:none;fill-rule:nonzero;stroke:black;stroke-width:2.3px;"/>
            </g>
            <g transform="matrix(-0.169706,0.169706,-0.169706,-0.169706,973.948,860.363)">
                <path d="M1260.96,2579.5L1268.04,2579.5" style="fill:none;fill-rule:nonzero;stroke:black;stroke-width:2.3px;"/>
            </g>
            <g transform="matrix(-0.195296,0.139497,-0.139497,-0.195296,930.299,961.558)">
                <path d="M1266.2,2574.5L1274.8,2574.5" style="fill:none;fill-rule:nonzero;stroke:black;stroke-width:2.3px;"/>
            </g>
        </g>
        <g transform="matrix(1.10853,0,0,1.03905,-616.092,-204.836)">
            <ellipse cx="233.872" cy="648.194" rx="17.108" ry="7.515" style="fill:rgb(196,196,196);stroke:black;stroke-width:1.92px;stroke-miterlimit:1.5;"/>
        </g>
        <g transform="matrix(1.10853,0,0,1.03905,-732.755,-60.0617)">
            <path d="M214.583,99.846L266.005,81.992L265.642,149.572L214.838,167.01L214.583,99.846Z" style="fill:rgb(209,209,209);stroke:black;stroke-width:1.92px;stroke-miterlimit:1.5;"/>
        </g>
        <g id="bar" transform="matrix(1.10853,0,0,1.03905,-732.755,-59.5635)">
            <path d="M236.324,132.764C236.324,132.764 378.913,181.625 394.047,187.998C405.931,193.002 403.505,199.465 388.961,204.11C376.88,207.968 192.514,272.738 184.949,274.493C180.451,275.536 179.277,279.397 180.009,283.263C180.969,288.337 185.21,293.42 189.526,292.16C198.04,289.674 370.039,229.587 393.973,222.047C421.368,213.417 438.965,184.595 395.214,169.351C350.639,153.819 253.927,119.812 242.262,115.712C231.791,118.262 232.13,132.182 236.324,132.764Z" style="fill:rgb(230,229,230);stroke:black;stroke-width:1.92px;stroke-miterlimit:1.5;"/>
            <path d="M184.949,274.493C190.432,272.74 196.081,289.786 189.526,292.16" style="fill:rgb(235,235,235);stroke:black;stroke-width:1.92px;stroke-miterlimit:1.5;"/>
        </g>
        <g id="ROPE" transform="matrix(-0.056855,-0.131766,0.242481,-0.101842,-795.511,689.667)">
            <path d="M238.884,1863.5L2193.04,1620.8" style="fill:none;fill-rule:nonzero;stroke:black;stroke-width:14.52px;stroke-miterlimit:1.5;"/>
        </g>
        <g transform="matrix(0.330393,0,0,0.309685,-406.05,282.011)">
            <ellipse cx="147.129" cy="601.299" rx="11.896" ry="6.987" style="stroke:black;stroke-width:4.83px;stroke-miterlimit:1.5;"/>
        </g>
        <g transform="matrix(-0.120659,-0.288295,0.307573,-0.113096,-693.621,345.633)">
            <ellipse cx="147.129" cy="601.299" rx="11.896" ry="6.987" style="fill:rgb(230,229,230);stroke:black;stroke-width:6.44px;stroke-miterlimit:1.5;"/>
        </g>
        <g transform="matrix(-0.103539,0.294085,-0.313751,-0.0970491,-260.145,86.16)">
            <ellipse cx="147.129" cy="601.299" rx="11.896" ry="6.987" style="fill:rgb(148,142,143);stroke:rgb(143,143,143);stroke-width:4.83px;stroke-miterlimit:1.5;"/>
        </g>
        <g id="labels" transform="matrix(1.10853,0,0,1.03905,-815.453,-142.532)">
            <g transform="matrix(1,0,0,1,199.017,-46.8409)">
                <text x="109.975px" y="237.571px" style="font-family:'CMUSerif-Italic', 'CMU Serif';font-weight:500;font-style:italic;font-size:23.031px;">C</text>
            </g>
            <g transform="matrix(0.949305,0.314356,0.0255078,1.06185,-122.179,-364.478)">
                <text x="522.197px" y="438.697px" style="font-family:'CMUSerif-Roman', 'CMU Serif';font-weight:500;font-size:23.031px;">4 ft</text>
            </g>
            <g transform="matrix(1,0,0,1.01488,0,-4.10192)">
                <path d="M529.614,275.575L529.614,482.571" style="fill:none;stroke:black;stroke-width:1.14px;stroke-miterlimit:1.5;"/>
            </g>
            <g transform="matrix(1.38107,0.366222,0.0816645,1.24593,-317.924,-211.627)">
                <rect x="580.049" y="292.717" width="28.939" height="15.749" style="fill:white;"/>
                <clipPath id="_clip1">
                    <rect x="580.049" y="292.717" width="28.939" height="15.749"/>
                </clipPath>
                <g clip-path="url(#_clip1)">
                    <g transform="matrix(0.699888,-2.93183e-18,8.29188e-18,0.845042,219.995,-62.8664)">
                        <text x="522.197px" y="438.697px" style="font-family:'CMUSerif-Roman', 'CMU Serif';font-weight:500;font-size:23.031px;">4 ft</text>
                    </g>
                </g>
            </g>
            <g transform="matrix(0.931203,-0.3645,0.0318501,1.06141,-118.305,83.676)">
                <text x="522.197px" y="438.697px" style="font-family:'CMUSerif-Roman', 'CMU Serif';font-weight:500;font-size:23.031px;">5 ft</text>
            </g>
            <g transform="matrix(0.939406,-0.342806,-0.0179828,1.07106,35.3923,284.008)">
                <text x="522.197px" y="438.697px" style="font-family:'CMUSerif-Roman', 'CMU Serif';font-weight:500;font-size:23.031px;">4 ft</text>
            </g>
            <g transform="matrix(0.95603,0.293268,0.0306664,1.0554,-278.589,-67.175)">
                <text x="522.197px" y="438.697px" style="font-family:'CMUSerif-Roman', 'CMU Serif';font-weight:500;font-size:23.031px;">6 ft</text>
            </g>
            <g transform="matrix(1,0,0,1,301.766,331.929)">
                <text x="109.975px" y="237.571px" style="font-family:'CMUSerif-Italic', 'CMU Serif';font-weight:500;font-style:italic;font-size:24.951px;">B</text>
            </g>
            <g transform="matrix(1,0,0,1,121.456,131.48)">
                <text x="109.975px" y="237.571px" style="font-family:'CMUSerif-Italic', 'CMU Serif';font-weight:500;font-style:italic;font-size:23.031px;">A</text>
            </g>
            <g transform="matrix(1.91928,0,0,1.91928,569.573,115.154)">
                <text x="32.458px" y="204.968px" style="font-family:'CMUSerif-Italic', 'CMU Serif';font-weight:500;font-style:italic;font-size:12px;">x</text>
            </g>
            <g transform="matrix(1.91928,0,0,1.91928,263.502,-263.071)">
                <text x="32.458px" y="204.968px" style="font-family:'CMUSerif-Italic', 'CMU Serif';font-weight:500;font-style:italic;font-size:12px;">y</text>
            </g>
            <g transform="matrix(1.91928,0,0,1.75897,32.1474,108.901)">
                <text x="32.458px" y="204.968px" style="font-family:'CMUSerif-Italic', 'CMU Serif';font-weight:500;font-style:italic;font-size:12px;">z</text>
            </g>
            <g id="surface1">
            </g>
        </g>
    </g>
</svg>
