<?xml version="1.0" encoding="UTF-8" standalone="no"?>
<!DOCTYPE svg PUBLIC "-//W3C//DTD SVG 1.1//EN" "http://www.w3.org/Graphics/SVG/1.1/DTD/svg11.dtd">
<svg width="100%" height="100%" viewBox="0 0 211 81" version="1.1" xmlns="http://www.w3.org/2000/svg" xmlns:xlink="http://www.w3.org/1999/xlink" xml:space="preserve" xmlns:serif="http://www.serif.com/" style="fill-rule:evenodd;clip-rule:evenodd;stroke-linecap:round;stroke-linejoin:round;stroke-miterlimit:1.5;">
    <g transform="matrix(1,0,0,1,-282,-34)">
        <g transform="matrix(0.875,0,0,0.5,52.906,34.4208)">
            <rect id="Example-7-1" x="262.736" y="-0.191" width="240" height="160" style="fill:none;"/>
            <g id="Example-7-11" serif:id="Example-7-1">
                <g transform="matrix(1.11765,0,0,2,-37.785,-68.6908)">
                    <g transform="matrix(1.02256,-0,-0,1,268.069,33.9247)">
                        <path d="M202.375,37.1L205.3,38.075L202.375,39.05L202.375,37.1Z"/>
                        <path d="M5.8,38.075L202.96,38.075" style="fill:none;stroke:black;stroke-width:0.65px;"/>
                    </g>
                </g>
                <g transform="matrix(1.14286,0,0,2,-49.8354,-68.6908)">
                    <path d="M322,72L370,72" style="fill:none;stroke:black;stroke-width:0.65px;"/>
                </g>
                <g transform="matrix(1.14286,0,0,2,-49.8354,-68.6908)">
                    <path d="M418,72L466,72" style="fill:none;stroke:black;stroke-width:0.65px;"/>
                </g>
                <g transform="matrix(1.14286,0,0,0.9,-49.8354,-29.0908)">
                    <g transform="matrix(1,-0,-0,2.22222,272.7,31.3881)">
                        <path d="M24.325,5L25.3,2.075L26.275,5L24.325,5Z"/>
                        <path d="M25.3,29.075L25.3,4.415" style="fill:none;stroke:black;stroke-width:0.65px;"/>
                    </g>
                </g>
                <g transform="matrix(1.14286,0,0,2,-26.9849,-128.691)">
                    <rect x="322" y="96" width="12" height="12" style="fill:rgb(230,230,230);stroke:black;stroke-width:1.5px;"/>
                </g>
                <g transform="matrix(0.28721,0,0,0.486322,263.165,-462.381)">
                    <g transform="matrix(4.43007e-16,-7.47727,2.41162,1.52617e-16,-1.67306,2013.04)">
                        <g transform="matrix(3.36778e-17,1.65,-0.55,1.01033e-16,142.298,-1.24495)">
                            <path d="M72.3,56.923L75.3,65.923L78.3,56.923L72.3,56.923Z" style="fill:rgb(225,32,32);"/>
                            <path d="M75.3,58.723L75.3,38.723" style="fill:none;stroke:rgb(225,32,32);stroke-width:2px;stroke-linecap:butt;"/>
                        </g>
                    </g>
                    <g transform="matrix(3.11323,0,0,3.21755,113.753,250.652)">
                        <circle cx="58.204" cy="265.722" r="1.917" style="stroke:black;stroke-width:0.64px;"/>
                    </g>
                </g>
                <g transform="matrix(1.14286,0,0,2.5,-47.5564,-93.1297)">
                    <path d="M346,60L346,48" style="fill:none;stroke:black;stroke-width:0.57px;"/>
                </g>
                <g transform="matrix(1.14286,0,0,2,5.58648,-72.1297)">
                    <g transform="matrix(10,0,0,10,289,112)">
                        <path d="M0.089,-0.571L0.089,-0.602C0.169,-0.602 0.23,-0.623 0.271,-0.666C0.282,-0.666 0.289,-0.665 0.291,-0.662C0.293,-0.66 0.294,-0.652 0.294,-0.64L0.294,-0.079C0.294,-0.059 0.299,-0.046 0.309,-0.04C0.318,-0.034 0.345,-0.031 0.387,-0.031L0.419,-0.031L0.419,-0C0.396,-0.002 0.341,-0.003 0.257,-0.003C0.172,-0.003 0.118,-0.002 0.095,-0L0.095,-0.031L0.127,-0.031C0.169,-0.031 0.195,-0.034 0.205,-0.04C0.215,-0.046 0.22,-0.059 0.22,-0.079L0.22,-0.597C0.185,-0.58 0.142,-0.571 0.089,-0.571Z" style="fill-rule:nonzero;"/>
                    </g>
                    <g transform="matrix(10,0,0,10,294,112)">
                        <path d="M0.039,-0.32C0.039,-0.418 0.051,-0.493 0.076,-0.547C0.111,-0.626 0.169,-0.666 0.25,-0.666C0.267,-0.666 0.285,-0.664 0.303,-0.659C0.321,-0.654 0.342,-0.643 0.365,-0.625C0.387,-0.607 0.406,-0.583 0.42,-0.554C0.447,-0.498 0.46,-0.419 0.46,-0.32C0.46,-0.222 0.448,-0.147 0.423,-0.094C0.387,-0.017 0.329,0.022 0.249,0.022C0.219,0.022 0.189,0.014 0.158,-0.001C0.128,-0.016 0.103,-0.042 0.084,-0.079C0.054,-0.134 0.039,-0.214 0.039,-0.32ZM0.122,-0.332C0.122,-0.231 0.126,-0.161 0.133,-0.121C0.141,-0.078 0.156,-0.047 0.178,-0.028C0.201,-0.009 0.224,-0 0.249,-0C0.276,-0 0.3,-0.01 0.323,-0.03C0.345,-0.05 0.359,-0.082 0.366,-0.125C0.374,-0.168 0.377,-0.237 0.377,-0.332C0.377,-0.425 0.374,-0.49 0.367,-0.527C0.358,-0.57 0.342,-0.601 0.319,-0.618C0.296,-0.635 0.272,-0.644 0.249,-0.644C0.24,-0.644 0.231,-0.643 0.222,-0.64C0.213,-0.638 0.201,-0.632 0.188,-0.625C0.175,-0.618 0.163,-0.604 0.153,-0.586C0.142,-0.567 0.135,-0.544 0.13,-0.516C0.125,-0.48 0.122,-0.419 0.122,-0.332Z" style="fill-rule:nonzero;"/>
                    </g>
                    <g transform="matrix(10,0,0,10,302.325,112)">
                        <path d="M0.033,-0L0.033,-0.031C0.069,-0.031 0.09,-0.033 0.099,-0.037C0.107,-0.042 0.111,-0.055 0.111,-0.076L0.111,-0.596C0.111,-0.621 0.107,-0.636 0.098,-0.643C0.089,-0.649 0.068,-0.652 0.033,-0.652L0.033,-0.683L0.177,-0.694L0.177,-0.076C0.177,-0.055 0.181,-0.042 0.189,-0.037C0.198,-0.033 0.22,-0.031 0.255,-0.031L0.255,-0C0.247,-0 0.234,-0 0.217,-0.001C0.2,-0.002 0.186,-0.002 0.173,-0.002C0.161,-0.003 0.151,-0.003 0.144,-0.003C0.136,-0.003 0.099,-0.002 0.033,-0Z" style="fill-rule:nonzero;"/>
                    </g>
                    <g transform="matrix(10,0,0,10,305.094,112)">
                        <path d="M0.028,-0.652L0.028,-0.683L0.172,-0.694L0.172,-0.377C0.211,-0.42 0.256,-0.442 0.309,-0.442C0.366,-0.442 0.416,-0.42 0.458,-0.376C0.5,-0.332 0.521,-0.279 0.521,-0.216C0.521,-0.152 0.499,-0.099 0.455,-0.055C0.411,-0.011 0.359,0.011 0.298,0.011C0.243,0.011 0.199,-0.013 0.167,-0.062C0.144,-0.021 0.132,-0.001 0.131,-0L0.106,-0L0.106,-0.596C0.106,-0.621 0.102,-0.636 0.093,-0.643C0.084,-0.649 0.062,-0.652 0.028,-0.652ZM0.175,-0.114C0.175,-0.1 0.18,-0.086 0.189,-0.072C0.215,-0.031 0.25,-0.011 0.293,-0.011L0.294,-0.011C0.34,-0.011 0.378,-0.033 0.407,-0.075C0.428,-0.107 0.438,-0.154 0.438,-0.217C0.438,-0.279 0.428,-0.325 0.409,-0.356C0.382,-0.399 0.347,-0.42 0.304,-0.42C0.255,-0.42 0.216,-0.399 0.186,-0.356C0.179,-0.345 0.175,-0.333 0.175,-0.32L0.175,-0.114Z" style="fill-rule:nonzero;"/>
                    </g>
                </g>
                <g transform="matrix(1.14286,0,0,2,73.0217,-128.691)">
                    <rect x="322" y="96" width="12" height="12" style="fill:rgb(230,230,230);stroke:black;stroke-width:1.5px;"/>
                </g>
                <g transform="matrix(1.14286,0,0,2,-84.1211,-128.691)">
                    <rect x="322" y="96" width="12" height="12" style="fill:rgb(230,230,230);stroke:black;stroke-width:1.5px;"/>
                </g>
                <g transform="matrix(0.28721,0,0,0.486322,206.022,-462.381)">
                    <g transform="matrix(4.43007e-16,-7.47727,2.41162,1.52617e-16,-1.67306,2013.04)">
                        <g transform="matrix(3.36778e-17,1.65,-0.55,1.01033e-16,142.298,81.255)">
                            <path d="M22.3,56.923L25.3,65.923L28.3,56.923L22.3,56.923Z" style="fill:rgb(225,32,32);"/>
                            <path d="M25.3,58.723L25.3,38.723" style="fill:none;stroke:rgb(225,32,32);stroke-width:2px;stroke-linecap:butt;"/>
                        </g>
                    </g>
                    <g transform="matrix(3.11323,0,0,3.21755,113.753,250.652)">
                        <circle cx="58.204" cy="265.722" r="1.917" style="stroke:black;stroke-width:0.64px;"/>
                    </g>
                </g>
                <g transform="matrix(0.28721,0,0,0.486322,363.165,-462.233)">
                    <g transform="matrix(4.43007e-16,-7.47727,2.41162,1.52617e-16,-1.67306,2013.04)">
                        <g transform="matrix(3.36778e-17,1.65,-0.55,1.01033e-16,142.338,-145.62)">
                            <path d="M159.8,56.997L162.8,65.997L165.8,56.997L159.8,56.997Z" style="fill:rgb(225,32,32);"/>
                            <path d="M162.8,58.797L162.8,38.797" style="fill:none;stroke:rgb(225,32,32);stroke-width:2px;stroke-linecap:butt;"/>
                        </g>
                    </g>
                    <g transform="matrix(3.11323,0,0,3.21755,113.753,250.652)">
                        <circle cx="58.204" cy="265.722" r="1.917" style="stroke:black;stroke-width:0.64px;"/>
                    </g>
                </g>
                <g transform="matrix(1.14286,0,0,2.5,-57.264,-91.6908)">
                    <path d="M442,60L442,48" style="fill:none;stroke:black;stroke-width:0.57px;"/>
                </g>
                <g transform="matrix(1.14286,0,0,2,-51.5497,-71.6908)">
                    <g transform="matrix(10,0,0,10,289,112)">
                        <path d="M0.089,-0.571L0.089,-0.602C0.169,-0.602 0.23,-0.623 0.271,-0.666C0.282,-0.666 0.289,-0.665 0.291,-0.662C0.293,-0.66 0.294,-0.652 0.294,-0.64L0.294,-0.079C0.294,-0.059 0.299,-0.046 0.309,-0.04C0.318,-0.034 0.345,-0.031 0.387,-0.031L0.419,-0.031L0.419,-0C0.396,-0.002 0.341,-0.003 0.257,-0.003C0.172,-0.003 0.118,-0.002 0.095,-0L0.095,-0.031L0.127,-0.031C0.169,-0.031 0.195,-0.034 0.205,-0.04C0.215,-0.046 0.22,-0.059 0.22,-0.079L0.22,-0.597C0.185,-0.58 0.142,-0.571 0.089,-0.571Z" style="fill-rule:nonzero;"/>
                    </g>
                    <g transform="matrix(10,0,0,10,294,112)">
                        <path d="M0.039,-0.32C0.039,-0.418 0.051,-0.493 0.076,-0.547C0.111,-0.626 0.169,-0.666 0.25,-0.666C0.267,-0.666 0.285,-0.664 0.303,-0.659C0.321,-0.654 0.342,-0.643 0.365,-0.625C0.387,-0.607 0.406,-0.583 0.42,-0.554C0.447,-0.498 0.46,-0.419 0.46,-0.32C0.46,-0.222 0.448,-0.147 0.423,-0.094C0.387,-0.017 0.329,0.022 0.249,0.022C0.219,0.022 0.189,0.014 0.158,-0.001C0.128,-0.016 0.103,-0.042 0.084,-0.079C0.054,-0.134 0.039,-0.214 0.039,-0.32ZM0.122,-0.332C0.122,-0.231 0.126,-0.161 0.133,-0.121C0.141,-0.078 0.156,-0.047 0.178,-0.028C0.201,-0.009 0.224,-0 0.249,-0C0.276,-0 0.3,-0.01 0.323,-0.03C0.345,-0.05 0.359,-0.082 0.366,-0.125C0.374,-0.168 0.377,-0.237 0.377,-0.332C0.377,-0.425 0.374,-0.49 0.367,-0.527C0.358,-0.57 0.342,-0.601 0.319,-0.618C0.296,-0.635 0.272,-0.644 0.249,-0.644C0.24,-0.644 0.231,-0.643 0.222,-0.64C0.213,-0.638 0.201,-0.632 0.188,-0.625C0.175,-0.618 0.163,-0.604 0.153,-0.586C0.142,-0.567 0.135,-0.544 0.13,-0.516C0.125,-0.48 0.122,-0.419 0.122,-0.332Z" style="fill-rule:nonzero;"/>
                    </g>
                    <g transform="matrix(10,0,0,10,302.325,112)">
                        <path d="M0.033,-0L0.033,-0.031C0.069,-0.031 0.09,-0.033 0.099,-0.037C0.107,-0.042 0.111,-0.055 0.111,-0.076L0.111,-0.596C0.111,-0.621 0.107,-0.636 0.098,-0.643C0.089,-0.649 0.068,-0.652 0.033,-0.652L0.033,-0.683L0.177,-0.694L0.177,-0.076C0.177,-0.055 0.181,-0.042 0.189,-0.037C0.198,-0.033 0.22,-0.031 0.255,-0.031L0.255,-0C0.247,-0 0.234,-0 0.217,-0.001C0.2,-0.002 0.186,-0.002 0.173,-0.002C0.161,-0.003 0.151,-0.003 0.144,-0.003C0.136,-0.003 0.099,-0.002 0.033,-0Z" style="fill-rule:nonzero;"/>
                    </g>
                    <g transform="matrix(10,0,0,10,305.094,112)">
                        <path d="M0.028,-0.652L0.028,-0.683L0.172,-0.694L0.172,-0.377C0.211,-0.42 0.256,-0.442 0.309,-0.442C0.366,-0.442 0.416,-0.42 0.458,-0.376C0.5,-0.332 0.521,-0.279 0.521,-0.216C0.521,-0.152 0.499,-0.099 0.455,-0.055C0.411,-0.011 0.359,0.011 0.298,0.011C0.243,0.011 0.199,-0.013 0.167,-0.062C0.144,-0.021 0.132,-0.001 0.131,-0L0.106,-0L0.106,-0.596C0.106,-0.621 0.102,-0.636 0.093,-0.643C0.084,-0.649 0.062,-0.652 0.028,-0.652ZM0.175,-0.114C0.175,-0.1 0.18,-0.086 0.189,-0.072C0.215,-0.031 0.25,-0.011 0.293,-0.011L0.294,-0.011C0.34,-0.011 0.378,-0.033 0.407,-0.075C0.428,-0.107 0.438,-0.154 0.438,-0.217C0.438,-0.279 0.428,-0.325 0.409,-0.356C0.382,-0.399 0.347,-0.42 0.304,-0.42C0.255,-0.42 0.216,-0.399 0.186,-0.356C0.179,-0.345 0.175,-0.333 0.175,-0.32L0.175,-0.114Z" style="fill-rule:nonzero;"/>
                    </g>
                </g>
                <g transform="matrix(1.1902,0,0,2,-64.8192,-68.3092)">
                    <g transform="matrix(1,0,0,1,0.736,-0.190808)">
                        <g transform="matrix(0.960224,-0,-0,1,273.706,33.9247)">
                            <path d="M27.55,19.325L25.3,20.075L27.55,20.825L27.55,19.325Z"/>
                            <path d="M73.038,19.325L75.288,20.075L73.038,20.825L73.038,19.325Z"/>
                            <path d="M27.1,20.075L73.488,20.075" style="fill:none;stroke:black;stroke-width:0.5px;"/>
                        </g>
                    </g>
                    <g transform="matrix(1,0,0,1,3.5,0.5)">
                        <g transform="matrix(0.761905,0,0,1,73.5455,-81.1908)">
                            <rect x="310" y="129" width="21" height="9" style="fill:white;"/>
                        </g>
                        <g transform="matrix(0.960224,0,0,1,33.2313,-55.6908)">
                            <g transform="matrix(9,0,0,9,289,111.3)">
                                <path d="M0.05,-0C0.05,-0.012 0.05,-0.02 0.052,-0.023C0.053,-0.027 0.056,-0.032 0.061,-0.037L0.253,-0.251C0.323,-0.33 0.358,-0.403 0.358,-0.472C0.358,-0.517 0.346,-0.555 0.323,-0.587C0.3,-0.619 0.267,-0.635 0.224,-0.635C0.195,-0.635 0.168,-0.626 0.143,-0.608C0.118,-0.59 0.1,-0.565 0.089,-0.533C0.091,-0.534 0.095,-0.534 0.102,-0.534C0.119,-0.534 0.132,-0.529 0.141,-0.519C0.15,-0.508 0.155,-0.496 0.155,-0.482C0.155,-0.464 0.149,-0.451 0.137,-0.442C0.126,-0.434 0.114,-0.429 0.103,-0.429C0.098,-0.429 0.093,-0.43 0.087,-0.431C0.081,-0.432 0.073,-0.437 0.064,-0.446C0.055,-0.455 0.05,-0.468 0.05,-0.485C0.05,-0.531 0.067,-0.573 0.103,-0.61C0.138,-0.647 0.183,-0.666 0.237,-0.666C0.298,-0.666 0.349,-0.648 0.389,-0.612C0.429,-0.575 0.449,-0.529 0.449,-0.472C0.449,-0.452 0.446,-0.433 0.44,-0.415C0.434,-0.397 0.427,-0.381 0.419,-0.367C0.411,-0.353 0.396,-0.335 0.375,-0.313C0.354,-0.29 0.334,-0.271 0.317,-0.255C0.3,-0.239 0.272,-0.214 0.233,-0.18L0.127,-0.077L0.307,-0.077C0.366,-0.077 0.397,-0.08 0.402,-0.085C0.408,-0.094 0.416,-0.124 0.424,-0.174L0.449,-0.174L0.421,-0L0.05,-0Z" style="fill-rule:nonzero;"/>
                            </g>
                            <g transform="matrix(9,0,0,9,296.493,111.3)">
                                <path d="M0.033,-0.4L0.033,-0.431L0.112,-0.431L0.112,-0.546C0.112,-0.595 0.128,-0.634 0.16,-0.663C0.192,-0.691 0.228,-0.705 0.267,-0.705C0.293,-0.705 0.315,-0.698 0.332,-0.684C0.348,-0.67 0.357,-0.654 0.357,-0.635C0.357,-0.622 0.353,-0.612 0.345,-0.603C0.338,-0.595 0.327,-0.591 0.313,-0.591C0.3,-0.591 0.289,-0.595 0.281,-0.604C0.274,-0.612 0.27,-0.622 0.27,-0.634C0.27,-0.655 0.28,-0.669 0.3,-0.676C0.29,-0.68 0.279,-0.683 0.267,-0.683C0.243,-0.683 0.222,-0.671 0.203,-0.646C0.184,-0.621 0.175,-0.588 0.175,-0.547L0.175,-0.431L0.292,-0.431L0.292,-0.4L0.178,-0.4L0.178,-0.078C0.178,-0.059 0.182,-0.046 0.19,-0.04C0.198,-0.034 0.219,-0.031 0.254,-0.031L0.275,-0.031L0.275,-0C0.248,-0.002 0.206,-0.003 0.148,-0.003C0.14,-0.003 0.129,-0.003 0.117,-0.002C0.104,-0.002 0.09,-0.002 0.073,-0.001C0.056,-0 0.043,-0 0.034,-0L0.034,-0.031C0.07,-0.031 0.091,-0.033 0.1,-0.037C0.108,-0.042 0.112,-0.055 0.112,-0.076L0.112,-0.4L0.033,-0.4Z" style="fill-rule:nonzero;"/>
                            </g>
                            <g transform="matrix(9,0,0,9,299.235,111.3)">
                                <path d="M0.019,-0.4L0.019,-0.422C0.05,-0.423 0.075,-0.435 0.095,-0.456C0.116,-0.478 0.129,-0.502 0.136,-0.529C0.143,-0.556 0.147,-0.584 0.148,-0.615L0.173,-0.615L0.173,-0.431L0.316,-0.431L0.316,-0.4L0.173,-0.4L0.173,-0.122C0.173,-0.05 0.195,-0.014 0.24,-0.014C0.259,-0.014 0.275,-0.024 0.288,-0.044C0.301,-0.063 0.307,-0.091 0.307,-0.126L0.307,-0.181L0.332,-0.181L0.332,-0.124C0.332,-0.088 0.324,-0.056 0.307,-0.029C0.291,-0.002 0.266,0.011 0.233,0.011C0.221,0.011 0.209,0.01 0.197,0.007C0.185,0.003 0.171,-0.002 0.156,-0.01C0.141,-0.018 0.128,-0.032 0.118,-0.052C0.109,-0.071 0.104,-0.095 0.104,-0.124L0.104,-0.4L0.019,-0.4Z" style="fill-rule:nonzero;"/>
                            </g>
                        </g>
                    </g>
                </g>
                <g transform="matrix(1.04174,0,0,2,-13.3285,-68.3092)">
                    <g transform="matrix(0.984615,0,0,1,6.05908,-0.190808)">
                        <g transform="matrix(1.11421,-0,-0,1,262.1,33.9247)">
                            <path d="M77.55,19.325L75.3,20.075L77.55,20.825L77.55,19.325Z"/>
                            <path d="M160.556,19.325L162.806,20.075L160.556,20.825L160.556,19.325Z"/>
                            <path d="M77.1,20.075L161.006,20.075" style="fill:none;stroke:black;stroke-width:0.5px;"/>
                        </g>
                    </g>
                    <g transform="matrix(1.11537,0,0,1,37.9439,0.5)">
                        <g transform="matrix(1.09524,0,0,1,-29.7878,-81.1908)">
                            <rect x="310" y="129" width="21" height="9" style="fill:white;"/>
                        </g>
                        <g transform="matrix(0.983596,0,0,1,26.4767,-55.6908)">
                            <g transform="matrix(9,0,0,9,289,111.3)">
                                <path d="M0.042,-0.135C0.042,-0.155 0.048,-0.169 0.059,-0.179C0.07,-0.188 0.083,-0.193 0.098,-0.193C0.113,-0.193 0.127,-0.188 0.137,-0.178C0.148,-0.168 0.154,-0.154 0.154,-0.137C0.154,-0.119 0.147,-0.104 0.135,-0.094C0.122,-0.083 0.106,-0.079 0.088,-0.082C0.104,-0.055 0.127,-0.036 0.156,-0.024C0.185,-0.012 0.214,-0.006 0.241,-0.006C0.27,-0.006 0.296,-0.018 0.319,-0.043C0.342,-0.068 0.354,-0.11 0.354,-0.171C0.354,-0.222 0.344,-0.263 0.324,-0.292C0.304,-0.322 0.274,-0.337 0.235,-0.337L0.191,-0.337C0.181,-0.337 0.174,-0.337 0.171,-0.338C0.168,-0.339 0.167,-0.343 0.167,-0.348C0.167,-0.355 0.172,-0.359 0.182,-0.36C0.192,-0.36 0.205,-0.361 0.221,-0.363C0.26,-0.364 0.29,-0.382 0.31,-0.415C0.329,-0.446 0.338,-0.484 0.338,-0.529C0.338,-0.569 0.328,-0.598 0.309,-0.615C0.289,-0.633 0.267,-0.641 0.242,-0.641C0.219,-0.641 0.194,-0.636 0.168,-0.626C0.143,-0.617 0.123,-0.601 0.109,-0.579C0.15,-0.579 0.171,-0.562 0.171,-0.529C0.171,-0.514 0.166,-0.502 0.157,-0.492C0.148,-0.483 0.135,-0.478 0.12,-0.478C0.105,-0.478 0.093,-0.483 0.083,-0.492C0.074,-0.501 0.069,-0.514 0.069,-0.53C0.069,-0.568 0.086,-0.6 0.12,-0.626C0.154,-0.653 0.196,-0.666 0.246,-0.666C0.296,-0.666 0.339,-0.653 0.375,-0.627C0.412,-0.601 0.43,-0.568 0.43,-0.528C0.43,-0.488 0.417,-0.453 0.391,-0.42C0.365,-0.388 0.331,-0.365 0.29,-0.352C0.341,-0.342 0.381,-0.32 0.412,-0.285C0.442,-0.251 0.457,-0.213 0.457,-0.171C0.457,-0.119 0.437,-0.074 0.396,-0.035C0.354,0.003 0.304,0.022 0.244,0.022C0.189,0.022 0.141,0.007 0.102,-0.023C0.062,-0.053 0.042,-0.09 0.042,-0.135Z" style="fill-rule:nonzero;"/>
                            </g>
                            <g transform="matrix(9,0,0,9,293.5,111.3)">
                                <path d="M0.1,-0.016C0.09,-0.027 0.085,-0.039 0.085,-0.053C0.085,-0.067 0.09,-0.079 0.1,-0.09C0.11,-0.1 0.123,-0.105 0.138,-0.105C0.153,-0.105 0.165,-0.1 0.175,-0.091C0.185,-0.081 0.19,-0.068 0.19,-0.053C0.19,-0.038 0.185,-0.025 0.174,-0.015C0.163,-0.005 0.152,-0 0.138,-0C0.123,-0 0.11,-0.005 0.1,-0.016Z" style="fill-rule:nonzero;"/>
                            </g>
                            <g transform="matrix(9,0,0,9,296,111.3)">
                                <path d="M0.05,-0.161C0.05,-0.181 0.055,-0.195 0.066,-0.202C0.077,-0.21 0.088,-0.214 0.099,-0.214C0.114,-0.214 0.127,-0.209 0.135,-0.199C0.144,-0.19 0.149,-0.178 0.149,-0.165C0.149,-0.152 0.144,-0.14 0.135,-0.131C0.127,-0.121 0.114,-0.116 0.099,-0.116C0.092,-0.116 0.086,-0.117 0.082,-0.118C0.091,-0.088 0.109,-0.061 0.135,-0.039C0.162,-0.017 0.194,-0.006 0.229,-0.006C0.274,-0.006 0.309,-0.028 0.336,-0.071C0.352,-0.099 0.36,-0.145 0.36,-0.208C0.36,-0.264 0.354,-0.306 0.342,-0.334C0.323,-0.377 0.295,-0.398 0.257,-0.398C0.203,-0.398 0.16,-0.375 0.128,-0.328C0.124,-0.322 0.12,-0.319 0.115,-0.319C0.109,-0.319 0.105,-0.321 0.103,-0.324C0.102,-0.328 0.101,-0.335 0.101,-0.345L0.101,-0.641C0.101,-0.657 0.104,-0.665 0.111,-0.665C0.113,-0.665 0.118,-0.664 0.123,-0.662C0.165,-0.644 0.209,-0.634 0.256,-0.634C0.304,-0.634 0.349,-0.644 0.392,-0.663C0.395,-0.665 0.398,-0.666 0.4,-0.666C0.406,-0.666 0.41,-0.662 0.41,-0.655C0.41,-0.652 0.407,-0.647 0.402,-0.639C0.397,-0.632 0.388,-0.623 0.377,-0.613C0.366,-0.603 0.353,-0.593 0.338,-0.584C0.323,-0.575 0.305,-0.567 0.284,-0.56C0.263,-0.554 0.24,-0.551 0.217,-0.551C0.189,-0.551 0.16,-0.555 0.132,-0.564L0.132,-0.369C0.166,-0.403 0.209,-0.42 0.259,-0.42C0.312,-0.42 0.357,-0.398 0.394,-0.355C0.431,-0.313 0.449,-0.261 0.449,-0.201C0.449,-0.138 0.427,-0.085 0.384,-0.042C0.341,0 0.29,0.022 0.231,0.022C0.178,0.022 0.134,0.003 0.1,-0.035C0.067,-0.073 0.05,-0.115 0.05,-0.161Z" style="fill-rule:nonzero;"/>
                            </g>
                            <g transform="matrix(9,0,0,9,303.493,111.3)">
                                <path d="M0.033,-0.4L0.033,-0.431L0.112,-0.431L0.112,-0.546C0.112,-0.595 0.128,-0.634 0.16,-0.663C0.192,-0.691 0.228,-0.705 0.267,-0.705C0.293,-0.705 0.315,-0.698 0.332,-0.684C0.348,-0.67 0.357,-0.654 0.357,-0.635C0.357,-0.622 0.353,-0.612 0.345,-0.603C0.338,-0.595 0.327,-0.591 0.313,-0.591C0.3,-0.591 0.289,-0.595 0.281,-0.604C0.274,-0.612 0.27,-0.622 0.27,-0.634C0.27,-0.655 0.28,-0.669 0.3,-0.676C0.29,-0.68 0.279,-0.683 0.267,-0.683C0.243,-0.683 0.222,-0.671 0.203,-0.646C0.184,-0.621 0.175,-0.588 0.175,-0.547L0.175,-0.431L0.292,-0.431L0.292,-0.4L0.178,-0.4L0.178,-0.078C0.178,-0.059 0.182,-0.046 0.19,-0.04C0.198,-0.034 0.219,-0.031 0.254,-0.031L0.275,-0.031L0.275,-0C0.248,-0.002 0.206,-0.003 0.148,-0.003C0.14,-0.003 0.129,-0.003 0.117,-0.002C0.104,-0.002 0.09,-0.002 0.073,-0.001C0.056,-0 0.043,-0 0.034,-0L0.034,-0.031C0.07,-0.031 0.091,-0.033 0.1,-0.037C0.108,-0.042 0.112,-0.055 0.112,-0.076L0.112,-0.4L0.033,-0.4Z" style="fill-rule:nonzero;"/>
                            </g>
                            <g transform="matrix(9,0,0,9,306.235,111.3)">
                                <path d="M0.019,-0.4L0.019,-0.422C0.05,-0.423 0.075,-0.435 0.095,-0.456C0.116,-0.478 0.129,-0.502 0.136,-0.529C0.143,-0.556 0.147,-0.584 0.148,-0.615L0.173,-0.615L0.173,-0.431L0.316,-0.431L0.316,-0.4L0.173,-0.4L0.173,-0.122C0.173,-0.05 0.195,-0.014 0.24,-0.014C0.259,-0.014 0.275,-0.024 0.288,-0.044C0.301,-0.063 0.307,-0.091 0.307,-0.126L0.307,-0.181L0.332,-0.181L0.332,-0.124C0.332,-0.088 0.324,-0.056 0.307,-0.029C0.291,-0.002 0.266,0.011 0.233,0.011C0.221,0.011 0.209,0.01 0.197,0.007C0.185,0.003 0.171,-0.002 0.156,-0.01C0.141,-0.018 0.128,-0.032 0.118,-0.052C0.109,-0.071 0.104,-0.095 0.104,-0.124L0.104,-0.4L0.019,-0.4Z" style="fill-rule:nonzero;"/>
                            </g>
                        </g>
                    </g>
                </g>
                <g transform="matrix(1.14286,0,0,2,104.736,-71.6908)">
                    <g transform="matrix(10,0,0,10,289,112)">
                        <path d="M0.089,-0.571L0.089,-0.602C0.169,-0.602 0.23,-0.623 0.271,-0.666C0.282,-0.666 0.289,-0.665 0.291,-0.662C0.293,-0.66 0.294,-0.652 0.294,-0.64L0.294,-0.079C0.294,-0.059 0.299,-0.046 0.309,-0.04C0.318,-0.034 0.345,-0.031 0.387,-0.031L0.419,-0.031L0.419,-0C0.396,-0.002 0.341,-0.003 0.257,-0.003C0.172,-0.003 0.118,-0.002 0.095,-0L0.095,-0.031L0.127,-0.031C0.169,-0.031 0.195,-0.034 0.205,-0.04C0.215,-0.046 0.22,-0.059 0.22,-0.079L0.22,-0.597C0.185,-0.58 0.142,-0.571 0.089,-0.571Z" style="fill-rule:nonzero;"/>
                    </g>
                    <g transform="matrix(10,0,0,10,294,112)">
                        <path d="M0.039,-0.32C0.039,-0.418 0.051,-0.493 0.076,-0.547C0.111,-0.626 0.169,-0.666 0.25,-0.666C0.267,-0.666 0.285,-0.664 0.303,-0.659C0.321,-0.654 0.342,-0.643 0.365,-0.625C0.387,-0.607 0.406,-0.583 0.42,-0.554C0.447,-0.498 0.46,-0.419 0.46,-0.32C0.46,-0.222 0.448,-0.147 0.423,-0.094C0.387,-0.017 0.329,0.022 0.249,0.022C0.219,0.022 0.189,0.014 0.158,-0.001C0.128,-0.016 0.103,-0.042 0.084,-0.079C0.054,-0.134 0.039,-0.214 0.039,-0.32ZM0.122,-0.332C0.122,-0.231 0.126,-0.161 0.133,-0.121C0.141,-0.078 0.156,-0.047 0.178,-0.028C0.201,-0.009 0.224,-0 0.249,-0C0.276,-0 0.3,-0.01 0.323,-0.03C0.345,-0.05 0.359,-0.082 0.366,-0.125C0.374,-0.168 0.377,-0.237 0.377,-0.332C0.377,-0.425 0.374,-0.49 0.367,-0.527C0.358,-0.57 0.342,-0.601 0.319,-0.618C0.296,-0.635 0.272,-0.644 0.249,-0.644C0.24,-0.644 0.231,-0.643 0.222,-0.64C0.213,-0.638 0.201,-0.632 0.188,-0.625C0.175,-0.618 0.163,-0.604 0.153,-0.586C0.142,-0.567 0.135,-0.544 0.13,-0.516C0.125,-0.48 0.122,-0.419 0.122,-0.332Z" style="fill-rule:nonzero;"/>
                    </g>
                    <g transform="matrix(10,0,0,10,302.325,112)">
                        <path d="M0.033,-0L0.033,-0.031C0.069,-0.031 0.09,-0.033 0.099,-0.037C0.107,-0.042 0.111,-0.055 0.111,-0.076L0.111,-0.596C0.111,-0.621 0.107,-0.636 0.098,-0.643C0.089,-0.649 0.068,-0.652 0.033,-0.652L0.033,-0.683L0.177,-0.694L0.177,-0.076C0.177,-0.055 0.181,-0.042 0.189,-0.037C0.198,-0.033 0.22,-0.031 0.255,-0.031L0.255,-0C0.247,-0 0.234,-0 0.217,-0.001C0.2,-0.002 0.186,-0.002 0.173,-0.002C0.161,-0.003 0.151,-0.003 0.144,-0.003C0.136,-0.003 0.099,-0.002 0.033,-0Z" style="fill-rule:nonzero;"/>
                    </g>
                    <g transform="matrix(10,0,0,10,305.094,112)">
                        <path d="M0.028,-0.652L0.028,-0.683L0.172,-0.694L0.172,-0.377C0.211,-0.42 0.256,-0.442 0.309,-0.442C0.366,-0.442 0.416,-0.42 0.458,-0.376C0.5,-0.332 0.521,-0.279 0.521,-0.216C0.521,-0.152 0.499,-0.099 0.455,-0.055C0.411,-0.011 0.359,0.011 0.298,0.011C0.243,0.011 0.199,-0.013 0.167,-0.062C0.144,-0.021 0.132,-0.001 0.131,-0L0.106,-0L0.106,-0.596C0.106,-0.621 0.102,-0.636 0.093,-0.643C0.084,-0.649 0.062,-0.652 0.028,-0.652ZM0.175,-0.114C0.175,-0.1 0.18,-0.086 0.189,-0.072C0.215,-0.031 0.25,-0.011 0.293,-0.011L0.294,-0.011C0.34,-0.011 0.378,-0.033 0.407,-0.075C0.428,-0.107 0.438,-0.154 0.438,-0.217C0.438,-0.279 0.428,-0.325 0.409,-0.356C0.382,-0.399 0.347,-0.42 0.304,-0.42C0.255,-0.42 0.216,-0.399 0.186,-0.356C0.179,-0.345 0.175,-0.333 0.175,-0.32L0.175,-0.114Z" style="fill-rule:nonzero;"/>
                    </g>
                </g>
                <g transform="matrix(1.14286,0,0,2,-31.5497,-67.6908)">
                    <g transform="matrix(10,0,0,10,275,43)">
                        <path d="M0.083,-0.288C0.083,-0.29 0.084,-0.296 0.087,-0.306C0.09,-0.316 0.094,-0.329 0.101,-0.344C0.108,-0.36 0.116,-0.375 0.125,-0.39C0.135,-0.404 0.147,-0.416 0.162,-0.427C0.177,-0.437 0.194,-0.442 0.211,-0.442C0.233,-0.442 0.251,-0.435 0.266,-0.42C0.28,-0.405 0.287,-0.386 0.287,-0.361C0.287,-0.347 0.283,-0.33 0.274,-0.307C0.235,-0.202 0.216,-0.129 0.216,-0.088C0.216,-0.037 0.234,-0.011 0.27,-0.011L0.27,-0.011C0.297,-0.011 0.32,-0.021 0.34,-0.042C0.359,-0.062 0.371,-0.081 0.376,-0.1L0.449,-0.394C0.455,-0.419 0.468,-0.431 0.488,-0.431C0.497,-0.431 0.504,-0.428 0.509,-0.423C0.514,-0.418 0.516,-0.412 0.516,-0.405C0.516,-0.403 0.516,-0.401 0.515,-0.398C0.514,-0.396 0.513,-0.393 0.513,-0.391L0.415,0.003C0.402,0.056 0.374,0.103 0.332,0.144C0.29,0.185 0.244,0.205 0.195,0.205C0.167,0.205 0.144,0.197 0.126,0.182C0.108,0.166 0.099,0.145 0.099,0.119C0.099,0.103 0.103,0.089 0.11,0.079C0.117,0.068 0.124,0.062 0.131,0.06C0.138,0.058 0.144,0.057 0.15,0.057C0.159,0.057 0.167,0.06 0.174,0.066C0.181,0.071 0.184,0.079 0.184,0.089C0.184,0.099 0.18,0.109 0.173,0.119C0.166,0.129 0.155,0.135 0.141,0.137C0.136,0.138 0.133,0.139 0.133,0.14C0.133,0.143 0.135,0.147 0.138,0.154C0.141,0.16 0.148,0.166 0.158,0.173C0.168,0.18 0.18,0.183 0.195,0.183C0.225,0.183 0.256,0.167 0.286,0.135C0.316,0.102 0.34,0.049 0.357,-0.026C0.332,-0.001 0.302,0.011 0.267,0.011C0.236,0.011 0.209,0.002 0.188,-0.017C0.166,-0.036 0.155,-0.065 0.155,-0.105C0.155,-0.142 0.172,-0.208 0.207,-0.301C0.223,-0.345 0.231,-0.375 0.231,-0.391C0.231,-0.41 0.224,-0.42 0.209,-0.42C0.169,-0.42 0.138,-0.378 0.116,-0.294C0.114,-0.286 0.112,-0.282 0.11,-0.28C0.108,-0.279 0.104,-0.278 0.098,-0.278C0.088,-0.278 0.083,-0.282 0.083,-0.288Z" style="fill-rule:nonzero;"/>
                    </g>
                </g>
                <g transform="matrix(1.14286,0,0,2,72.263,-79.0432)">
                    <g transform="matrix(9,0,0,9,361,87.3)">
                        <path d="M0.053,-0.051C0.053,-0.067 0.058,-0.08 0.068,-0.09C0.078,-0.1 0.09,-0.105 0.103,-0.105C0.126,-0.105 0.137,-0.094 0.137,-0.073C0.137,-0.064 0.134,-0.054 0.128,-0.044C0.121,-0.035 0.111,-0.028 0.098,-0.025C0.109,-0.016 0.123,-0.011 0.14,-0.011L0.142,-0.011C0.156,-0.011 0.169,-0.015 0.179,-0.023C0.19,-0.031 0.2,-0.043 0.208,-0.06C0.215,-0.077 0.221,-0.091 0.225,-0.104C0.229,-0.118 0.234,-0.135 0.239,-0.156C0.247,-0.188 0.255,-0.219 0.262,-0.247C0.276,-0.304 0.283,-0.341 0.283,-0.357C0.283,-0.377 0.279,-0.392 0.27,-0.403C0.261,-0.414 0.25,-0.42 0.235,-0.42C0.213,-0.42 0.191,-0.409 0.168,-0.388C0.146,-0.367 0.129,-0.336 0.116,-0.295C0.114,-0.287 0.112,-0.282 0.11,-0.28C0.109,-0.279 0.105,-0.278 0.098,-0.278C0.088,-0.278 0.083,-0.281 0.083,-0.288C0.083,-0.295 0.087,-0.306 0.094,-0.322C0.101,-0.338 0.11,-0.355 0.122,-0.374C0.134,-0.392 0.15,-0.408 0.171,-0.421C0.192,-0.435 0.214,-0.442 0.237,-0.442C0.284,-0.442 0.316,-0.419 0.333,-0.374C0.341,-0.389 0.354,-0.404 0.37,-0.419C0.387,-0.434 0.407,-0.442 0.431,-0.442C0.451,-0.442 0.47,-0.437 0.49,-0.427C0.509,-0.418 0.518,-0.402 0.518,-0.379C0.518,-0.362 0.513,-0.349 0.502,-0.34C0.491,-0.331 0.48,-0.326 0.469,-0.326C0.457,-0.326 0.448,-0.33 0.443,-0.336C0.437,-0.343 0.434,-0.35 0.434,-0.358C0.434,-0.361 0.434,-0.365 0.435,-0.369C0.436,-0.374 0.439,-0.38 0.446,-0.389C0.453,-0.398 0.462,-0.403 0.474,-0.406C0.463,-0.415 0.449,-0.42 0.43,-0.42C0.391,-0.42 0.361,-0.384 0.342,-0.313C0.326,-0.248 0.315,-0.202 0.308,-0.176C0.295,-0.122 0.289,-0.088 0.289,-0.075C0.289,-0.052 0.294,-0.035 0.303,-0.026C0.312,-0.016 0.323,-0.011 0.336,-0.011C0.359,-0.011 0.381,-0.022 0.403,-0.043C0.425,-0.065 0.442,-0.096 0.455,-0.136C0.458,-0.144 0.46,-0.149 0.461,-0.151C0.463,-0.152 0.467,-0.153 0.473,-0.153C0.483,-0.153 0.488,-0.15 0.488,-0.143C0.488,-0.137 0.484,-0.126 0.478,-0.111C0.471,-0.095 0.462,-0.078 0.45,-0.059C0.438,-0.04 0.422,-0.024 0.401,-0.01C0.38,0.004 0.358,0.011 0.334,0.011C0.316,0.011 0.298,0.006 0.28,-0.004C0.261,-0.014 0.248,-0.032 0.239,-0.057C0.213,-0.012 0.18,0.011 0.141,0.011C0.117,0.011 0.096,0.006 0.079,-0.006C0.062,-0.017 0.053,-0.032 0.053,-0.051Z" style="fill:url(#_Linear1);fill-rule:nonzero;"/>
                    </g>
                </g>
            </g>
        </g>
    </g>
    <defs>
        <linearGradient id="_Linear1" x1="0" y1="0" x2="1" y2="0" gradientUnits="userSpaceOnUse" gradientTransform="matrix(1,1.11111,-1.11111,1,4.55556,-0.7)"><stop offset="0" style="stop-color:black;stop-opacity:1"/><stop offset="1" style="stop-color:black;stop-opacity:0"/></linearGradient>
    </defs>
</svg>
