<?xml version="1.0" encoding="UTF-8" standalone="no"?>
<!DOCTYPE svg PUBLIC "-//W3C//DTD SVG 1.1//EN" "http://www.w3.org/Graphics/SVG/1.1/DTD/svg11.dtd">
<svg width="100%" height="100%" viewBox="0 0 181 142" version="1.1" xmlns="http://www.w3.org/2000/svg" xmlns:xlink="http://www.w3.org/1999/xlink" xml:space="preserve" xmlns:serif="http://www.serif.com/" style="fill-rule:evenodd;clip-rule:evenodd;stroke-linecap:round;stroke-linejoin:round;stroke-miterlimit:1.5;">
    <g transform="matrix(1,0,0,1,-188,-315)">
        <g id="gate" transform="matrix(1.125,0,0,1.41682,458.044,322.091)">
            <rect x="-240" y="-4.439" width="160" height="99.644" style="fill:none;"/>
            <clipPath id="_clip1">
                <rect x="-240" y="-4.439" width="160" height="99.644"/>
            </clipPath>
            <g clip-path="url(#_clip1)">
                <g transform="matrix(0.428566,0,0,0.905565,-181.422,-220.003)">
                    <path d="M140.746,243.24L167.357,243.24" style="fill:none;stroke:black;stroke-width:0.52px;"/>
                </g>
                <g transform="matrix(0.292934,0,0,0.905565,-159.037,-177.654)">
                    <path d="M140.746,243.24L167.357,243.24" style="fill:none;stroke:black;stroke-width:0.53px;"/>
                </g>
                <g transform="matrix(2.5565e-17,-0.161368,1.14046,2.69906e-17,-397.692,58.269)">
                    <path d="M140.746,243.24L167.357,243.24" style="fill:none;stroke:black;stroke-width:0.54px;"/>
                </g>
                <g id="surface1">
                </g>
                <g transform="matrix(1.21993,0,0,0.774636,-302.389,-244.603)">
                    <path d="M105.457,348L105.457,367.822L145.457,367.622L145.579,423.385L65.457,423.385L65.457,348L65.514,348C66.521,348.839 67.517,349.379 68.48,349.684C71.246,350.559 73.737,349.492 75.404,348L75.514,348C79.412,351.251 83.157,350.011 85.404,348L85.514,348C89.393,351.251 93.12,350.011 95.357,348L95.466,348C99.364,351.251 103.21,350.011 105.457,348Z" style="fill:rgb(240,248,255);stroke:rgb(119,129,255);stroke-width:0.44px;"/>
                </g>
                <g transform="matrix(0.345446,-1.46525e-32,-6.15006e-33,0.274296,-527.06,1.75693)">
                    <g transform="matrix(1,0,0,1.26237,985.58,-17.966)">
                        <rect x="2.52" y="1.88" width="1.44" height="18.24" style="fill:rgb(230,230,230);stroke:black;stroke-width:1.81px;"/>
                    </g>
                    <g transform="matrix(9.04307,0,0,9.04307,-8942.44,-376.655)">
                        <circle cx="1099.35" cy="41.2" r="1.051" style="fill:rgb(230,230,230);stroke:black;stroke-width:0.17px;"/>
                    </g>
                </g>
                <g transform="matrix(1.27526,0,0,1.20498,7.66592,-10.3585)">
                    <g transform="matrix(0.894298,0,0,0.751519,-240,-240.112)">
                        <path d="M109.354,374.103L109.354,331.235L105.457,331.235L105.457,378L152.222,378L152.222,423L156.119,423L156.119,374.103L109.354,374.103Z" style="fill:rgb(230,230,230);stroke:black;stroke-width:1.17px;"/>
                    </g>
                    <g transform="matrix(0.894298,0,0,0.751519,-240,-240.112)">
                        <path d="M109.354,374.103L109.354,378L155.457,378" style="fill:none;stroke:black;stroke-width:0.39px;"/>
                    </g>
                </g>
                <g transform="matrix(5.48689e-17,-0.711515,1.00219,4.87271e-17,-137.157,863.261)">
                    <g transform="matrix(1,0,0,1,1086.38,3.52)">
                        <rect x="2.52" y="1.88" width="1.44" height="18.24" style="fill:rgb(230,230,230);stroke:black;stroke-width:0.75px;"/>
                    </g>
                    <g transform="matrix(1,0,0,1,0.5,-26.68)">
                        <path d="M1099.8,38.182C1101.27,38.4 1102.4,39.669 1102.4,41.2C1102.4,42.731 1101.27,44 1099.8,44.218L1089.84,46.2L1089.84,36.2L1099.8,38.182Z" style="fill:rgb(230,230,230);stroke:black;stroke-width:0.75px;"/>
                    </g>
                    <g transform="matrix(1.2108,2.61176e-32,-1.17262e-32,1.0826,-231.884,-30.0832)">
                        <circle cx="1099.35" cy="41.2" r="1.051"/>
                    </g>
                </g>
                <g transform="matrix(1.53275,0,0,1.20498,42.7676,-5.83065)">
                    <g transform="matrix(0.894298,0,0,0.751519,-240,-240.112)">
                        <rect x="65.457" y="418" width="100" height="15" style="fill:url(#_Linear2);"/>
                    </g>
                    <g transform="matrix(0.894298,0,0,0.751519,-240,-240.112)">
                        <path d="M65.457,418L165.457,418" style="fill:none;stroke:black;stroke-width:0.39px;"/>
                    </g>
                </g>
                <g transform="matrix(1.20039,0,0,0.905565,-306.834,-299.688)">
                    <g transform="matrix(0.740497,-0,-0,0.779412,55.6439,325.414)">
                        <path d="M77.18,53.889L74.93,54.639L77.18,55.389L77.18,53.889Z"/>
                        <path d="M132.542,53.889L134.792,54.639L132.542,55.389L132.542,53.889Z"/>
                        <path d="M76.73,54.639L132.992,54.639" style="fill:none;stroke:black;stroke-width:0.5px;"/>
                    </g>
                </g>
                <g transform="matrix(1.14046,0,0,0.905565,-296.758,-299.688)">
                    <g transform="matrix(0.779412,-0,-0,0.779412,49.7333,325.414)">
                        <path d="M141.305,122.957L142.061,125.205L142.805,122.953L141.305,122.957Z"/>
                        <path d="M141.152,69.721L141.895,67.469L142.652,69.717L141.152,69.721Z"/>
                        <path d="M142.056,123.405C142.031,114.795 141.925,77.878 141.901,69.269" style="fill:none;stroke:black;stroke-width:0.5px;"/>
                    </g>
                </g>
                <g transform="matrix(1.14046,0,0,1.05871,-296.685,-399.926)">
                    <g transform="matrix(0.779412,-0,-0,0.666667,49.6688,373.021)">
                        <path d="M141.228,65.219L141.978,67.469L142.728,65.219L141.228,65.219Z"/>
                        <path d="M141.228,9.719L141.978,7.469L142.728,9.719L141.228,9.719Z"/>
                        <path d="M141.978,65.669L141.978,9.269" style="fill:none;stroke:black;stroke-width:0.5px;"/>
                    </g>
                </g>
                <g transform="matrix(1.27526,0,0,1.19544,7.44803,-5.12434)">
                    <g transform="matrix(0.894298,0,0,0.751519,-240,-240.112)">
                        <g transform="matrix(0.779412,-0,-0,0.785633,51.3603,319.635)">
                            <path d="M10.922,122.955L11.672,125.205L12.422,122.955L10.922,122.955Z"/>
                            <path d="M10.922,44.719L11.672,42.469L12.422,44.719L10.922,44.719Z"/>
                            <path d="M11.672,123.405L11.672,44.269" style="fill:none;stroke:black;stroke-width:0.5px;"/>
                        </g>
                    </g>
                    <g transform="matrix(0.894298,0,0,0.751519,-253.89,59.5808)">
                        <g>
                            <g transform="matrix(1,0,0,1.63406,-59.7578,-367.43)">
                                <rect x="130.746" y="211.128" width="9.023" height="8.142" style="fill:white;"/>
                            </g>
                            <g transform="matrix(1,0,0,1,-34.678,-72.9919)">
                                <g transform="matrix(7.79412,0,0,7.79412,106.838,60)">
                                    <path d="M0.108,-0.144C0.108,-0.217 0.132,-0.284 0.181,-0.347C0.23,-0.41 0.282,-0.442 0.337,-0.442C0.374,-0.442 0.402,-0.423 0.421,-0.384L0.479,-0.618L0.48,-0.626C0.481,-0.631 0.482,-0.633 0.482,-0.635C0.482,-0.639 0.481,-0.642 0.48,-0.644C0.479,-0.646 0.474,-0.648 0.467,-0.649C0.459,-0.651 0.447,-0.652 0.432,-0.652C0.416,-0.652 0.408,-0.656 0.408,-0.663C0.408,-0.669 0.409,-0.673 0.412,-0.677C0.414,-0.68 0.416,-0.681 0.419,-0.682C0.422,-0.683 0.426,-0.683 0.431,-0.684L0.53,-0.692C0.534,-0.693 0.539,-0.694 0.546,-0.694C0.555,-0.694 0.56,-0.69 0.56,-0.682C0.56,-0.68 0.559,-0.675 0.557,-0.669L0.414,-0.098C0.41,-0.082 0.408,-0.067 0.408,-0.052C0.408,-0.025 0.417,-0.011 0.434,-0.011L0.434,-0.011C0.459,-0.011 0.481,-0.051 0.501,-0.13C0.504,-0.141 0.506,-0.147 0.508,-0.149C0.51,-0.152 0.514,-0.153 0.52,-0.153C0.53,-0.153 0.535,-0.15 0.535,-0.143C0.535,-0.142 0.534,-0.136 0.531,-0.125C0.529,-0.115 0.525,-0.102 0.521,-0.086C0.516,-0.07 0.51,-0.056 0.505,-0.045C0.487,-0.007 0.463,0.011 0.432,0.011C0.413,0.011 0.396,0.005 0.38,-0.006C0.365,-0.018 0.354,-0.036 0.349,-0.059C0.311,-0.013 0.271,0.011 0.229,0.011C0.192,0.011 0.163,-0.004 0.141,-0.033C0.119,-0.063 0.108,-0.1 0.108,-0.144ZM0.176,-0.1C0.176,-0.078 0.18,-0.058 0.188,-0.039C0.196,-0.021 0.21,-0.011 0.231,-0.011C0.256,-0.011 0.281,-0.025 0.308,-0.052C0.335,-0.079 0.35,-0.103 0.355,-0.122L0.403,-0.314C0.405,-0.32 0.406,-0.324 0.406,-0.327C0.406,-0.349 0.399,-0.37 0.386,-0.391C0.374,-0.41 0.357,-0.42 0.337,-0.42C0.317,-0.42 0.297,-0.409 0.276,-0.388C0.255,-0.367 0.238,-0.34 0.225,-0.309C0.215,-0.286 0.204,-0.251 0.193,-0.205C0.181,-0.158 0.176,-0.124 0.176,-0.1Z" style="fill-rule:nonzero;"/>
                                </g>
                            </g>
                        </g>
                    </g>
                </g>
                <g transform="matrix(1.27526,0,0,1.20498,81.7959,6.84726)">
                    <g transform="matrix(0.894298,0,0,0.751519,-240,-240.112)">
                        <rect x="55.457" y="339" width="25" height="9" style="fill:white;"/>
                    </g>
                    <g transform="matrix(0.894298,0,0,0.751519,-239.832,-233.559)">
                        <g transform="matrix(7.79412,0,0,7.79412,55.4573,338)">
                            <path d="M0.039,-0.32C0.039,-0.418 0.051,-0.493 0.076,-0.547C0.111,-0.626 0.169,-0.666 0.25,-0.666C0.267,-0.666 0.285,-0.664 0.303,-0.659C0.321,-0.654 0.342,-0.643 0.365,-0.625C0.387,-0.607 0.406,-0.583 0.42,-0.554C0.447,-0.498 0.46,-0.419 0.46,-0.32C0.46,-0.222 0.448,-0.147 0.423,-0.094C0.387,-0.017 0.329,0.022 0.249,0.022C0.219,0.022 0.189,0.014 0.158,-0.001C0.128,-0.016 0.103,-0.042 0.084,-0.079C0.054,-0.134 0.039,-0.214 0.039,-0.32ZM0.122,-0.332C0.122,-0.231 0.126,-0.161 0.133,-0.121C0.141,-0.078 0.156,-0.047 0.178,-0.028C0.201,-0.009 0.224,-0 0.249,-0C0.276,-0 0.3,-0.01 0.323,-0.03C0.345,-0.05 0.359,-0.082 0.366,-0.125C0.374,-0.168 0.377,-0.237 0.377,-0.332C0.377,-0.425 0.374,-0.49 0.367,-0.527C0.358,-0.57 0.342,-0.601 0.319,-0.618C0.296,-0.635 0.272,-0.644 0.249,-0.644C0.24,-0.644 0.231,-0.643 0.222,-0.64C0.213,-0.638 0.201,-0.632 0.188,-0.625C0.175,-0.618 0.163,-0.604 0.153,-0.586C0.142,-0.567 0.135,-0.544 0.13,-0.516C0.125,-0.48 0.122,-0.419 0.122,-0.332Z" style="fill-rule:nonzero;"/>
                        </g>
                        <g transform="matrix(7.79412,0,0,7.79412,59.3544,338)">
                            <path d="M0.1,-0.016C0.09,-0.027 0.085,-0.039 0.085,-0.053C0.085,-0.067 0.09,-0.079 0.1,-0.09C0.11,-0.1 0.123,-0.105 0.138,-0.105C0.153,-0.105 0.165,-0.1 0.175,-0.091C0.185,-0.081 0.19,-0.068 0.19,-0.053C0.19,-0.038 0.185,-0.025 0.174,-0.015C0.163,-0.005 0.152,-0 0.138,-0C0.123,-0 0.11,-0.005 0.1,-0.016Z" style="fill-rule:nonzero;"/>
                        </g>
                        <g transform="matrix(7.79412,0,0,7.79412,61.5199,338)">
                            <path d="M0.042,-0.316C0.042,-0.421 0.069,-0.505 0.122,-0.57C0.175,-0.634 0.236,-0.666 0.305,-0.666C0.345,-0.666 0.376,-0.656 0.399,-0.635C0.421,-0.615 0.432,-0.589 0.432,-0.558C0.432,-0.541 0.427,-0.528 0.417,-0.521C0.407,-0.514 0.397,-0.51 0.386,-0.51C0.374,-0.51 0.363,-0.514 0.354,-0.522C0.345,-0.53 0.34,-0.542 0.34,-0.556C0.34,-0.586 0.358,-0.601 0.395,-0.601C0.378,-0.628 0.348,-0.641 0.307,-0.641C0.294,-0.641 0.282,-0.639 0.269,-0.635C0.256,-0.632 0.241,-0.624 0.224,-0.611C0.207,-0.599 0.192,-0.583 0.179,-0.563C0.166,-0.544 0.155,-0.516 0.146,-0.479C0.136,-0.442 0.132,-0.4 0.132,-0.352L0.132,-0.328C0.159,-0.394 0.201,-0.427 0.257,-0.427C0.313,-0.427 0.36,-0.405 0.399,-0.363C0.438,-0.32 0.457,-0.267 0.457,-0.204C0.457,-0.139 0.437,-0.085 0.396,-0.042C0.356,0 0.308,0.022 0.251,0.022C0.226,0.022 0.201,0.017 0.178,0.006C0.156,-0.004 0.133,-0.022 0.112,-0.046C0.091,-0.07 0.074,-0.105 0.061,-0.151C0.048,-0.198 0.042,-0.252 0.042,-0.316ZM0.134,-0.226C0.134,-0.161 0.14,-0.112 0.152,-0.081C0.154,-0.076 0.157,-0.07 0.161,-0.063C0.166,-0.055 0.172,-0.047 0.179,-0.038C0.187,-0.029 0.197,-0.021 0.21,-0.015C0.223,-0.009 0.236,-0.006 0.251,-0.006C0.296,-0.006 0.329,-0.028 0.35,-0.071C0.361,-0.095 0.367,-0.14 0.367,-0.205C0.367,-0.272 0.361,-0.317 0.349,-0.342C0.329,-0.383 0.298,-0.404 0.256,-0.404C0.228,-0.404 0.204,-0.394 0.185,-0.375C0.165,-0.356 0.152,-0.333 0.145,-0.308C0.137,-0.282 0.134,-0.255 0.134,-0.226Z" style="fill-rule:nonzero;"/>
                        </g>
                        <g transform="matrix(7.79412,0,0,7.79412,68.0086,338)">
                            <path d="M0.032,-0L0.032,-0.031C0.068,-0.031 0.09,-0.033 0.098,-0.037C0.106,-0.042 0.11,-0.055 0.11,-0.076L0.11,-0.344C0.11,-0.369 0.106,-0.384 0.097,-0.391C0.088,-0.397 0.067,-0.4 0.032,-0.4L0.032,-0.431L0.173,-0.442L0.173,-0.337C0.204,-0.407 0.253,-0.442 0.321,-0.442C0.399,-0.442 0.443,-0.409 0.454,-0.344C0.465,-0.37 0.483,-0.392 0.507,-0.412C0.531,-0.432 0.562,-0.442 0.599,-0.442C0.649,-0.442 0.684,-0.43 0.704,-0.405C0.719,-0.388 0.728,-0.371 0.73,-0.352C0.733,-0.333 0.735,-0.3 0.735,-0.252L0.735,-0.061C0.736,-0.047 0.741,-0.038 0.752,-0.035C0.763,-0.032 0.783,-0.031 0.813,-0.031L0.813,-0C0.745,-0.002 0.708,-0.003 0.701,-0.003C0.696,-0.003 0.658,-0.002 0.588,-0L0.588,-0.031C0.623,-0.031 0.645,-0.033 0.654,-0.037C0.662,-0.042 0.666,-0.055 0.666,-0.076L0.666,-0.309C0.666,-0.343 0.661,-0.37 0.65,-0.39C0.64,-0.41 0.62,-0.42 0.592,-0.42C0.557,-0.42 0.526,-0.405 0.499,-0.376C0.471,-0.347 0.457,-0.309 0.457,-0.26L0.457,-0.076C0.457,-0.055 0.461,-0.042 0.469,-0.037C0.478,-0.033 0.5,-0.031 0.535,-0.031L0.535,-0C0.467,-0.002 0.43,-0.003 0.423,-0.003C0.418,-0.003 0.38,-0.002 0.31,-0L0.31,-0.031C0.346,-0.031 0.367,-0.033 0.376,-0.037C0.384,-0.042 0.388,-0.055 0.388,-0.076L0.388,-0.309C0.388,-0.343 0.383,-0.37 0.373,-0.39C0.362,-0.41 0.343,-0.42 0.314,-0.42C0.279,-0.42 0.248,-0.405 0.221,-0.376C0.193,-0.347 0.179,-0.309 0.179,-0.26L0.179,-0.076C0.179,-0.055 0.183,-0.042 0.192,-0.037C0.2,-0.033 0.222,-0.031 0.257,-0.031L0.257,-0C0.189,-0.002 0.152,-0.003 0.145,-0.003C0.14,-0.003 0.102,-0.002 0.032,-0Z" style="fill-rule:nonzero;"/>
                        </g>
                    </g>
                </g>
                <g transform="matrix(1.27526,0,0,1.20498,130.266,41.2587)">
                    <g transform="matrix(0.894298,0,0,0.751519,-240,-240.112)">
                        <rect x="55.457" y="339" width="25" height="9" style="fill:white;"/>
                    </g>
                    <g transform="matrix(0.894298,0,0,0.751519,-239.832,-233.559)">
                        <g transform="matrix(7.79412,0,0,7.79412,55.4573,338)">
                            <path d="M0.039,-0.32C0.039,-0.418 0.051,-0.493 0.076,-0.547C0.111,-0.626 0.169,-0.666 0.25,-0.666C0.267,-0.666 0.285,-0.664 0.303,-0.659C0.321,-0.654 0.342,-0.643 0.365,-0.625C0.387,-0.607 0.406,-0.583 0.42,-0.554C0.447,-0.498 0.46,-0.419 0.46,-0.32C0.46,-0.222 0.448,-0.147 0.423,-0.094C0.387,-0.017 0.329,0.022 0.249,0.022C0.219,0.022 0.189,0.014 0.158,-0.001C0.128,-0.016 0.103,-0.042 0.084,-0.079C0.054,-0.134 0.039,-0.214 0.039,-0.32ZM0.122,-0.332C0.122,-0.231 0.126,-0.161 0.133,-0.121C0.141,-0.078 0.156,-0.047 0.178,-0.028C0.201,-0.009 0.224,-0 0.249,-0C0.276,-0 0.3,-0.01 0.323,-0.03C0.345,-0.05 0.359,-0.082 0.366,-0.125C0.374,-0.168 0.377,-0.237 0.377,-0.332C0.377,-0.425 0.374,-0.49 0.367,-0.527C0.358,-0.57 0.342,-0.601 0.319,-0.618C0.296,-0.635 0.272,-0.644 0.249,-0.644C0.24,-0.644 0.231,-0.643 0.222,-0.64C0.213,-0.638 0.201,-0.632 0.188,-0.625C0.175,-0.618 0.163,-0.604 0.153,-0.586C0.142,-0.567 0.135,-0.544 0.13,-0.516C0.125,-0.48 0.122,-0.419 0.122,-0.332Z" style="fill-rule:nonzero;"/>
                        </g>
                        <g transform="matrix(7.79412,0,0,7.79412,59.3544,338)">
                            <path d="M0.1,-0.016C0.09,-0.027 0.085,-0.039 0.085,-0.053C0.085,-0.067 0.09,-0.079 0.1,-0.09C0.11,-0.1 0.123,-0.105 0.138,-0.105C0.153,-0.105 0.165,-0.1 0.175,-0.091C0.185,-0.081 0.19,-0.068 0.19,-0.053C0.19,-0.038 0.185,-0.025 0.174,-0.015C0.163,-0.005 0.152,-0 0.138,-0C0.123,-0 0.11,-0.005 0.1,-0.016Z" style="fill-rule:nonzero;"/>
                        </g>
                        <g transform="matrix(7.79412,0,0,7.79412,61.5199,338)">
                            <path d="M0.042,-0.316C0.042,-0.421 0.069,-0.505 0.122,-0.57C0.175,-0.634 0.236,-0.666 0.305,-0.666C0.345,-0.666 0.376,-0.656 0.399,-0.635C0.421,-0.615 0.432,-0.589 0.432,-0.558C0.432,-0.541 0.427,-0.528 0.417,-0.521C0.407,-0.514 0.397,-0.51 0.386,-0.51C0.374,-0.51 0.363,-0.514 0.354,-0.522C0.345,-0.53 0.34,-0.542 0.34,-0.556C0.34,-0.586 0.358,-0.601 0.395,-0.601C0.378,-0.628 0.348,-0.641 0.307,-0.641C0.294,-0.641 0.282,-0.639 0.269,-0.635C0.256,-0.632 0.241,-0.624 0.224,-0.611C0.207,-0.599 0.192,-0.583 0.179,-0.563C0.166,-0.544 0.155,-0.516 0.146,-0.479C0.136,-0.442 0.132,-0.4 0.132,-0.352L0.132,-0.328C0.159,-0.394 0.201,-0.427 0.257,-0.427C0.313,-0.427 0.36,-0.405 0.399,-0.363C0.438,-0.32 0.457,-0.267 0.457,-0.204C0.457,-0.139 0.437,-0.085 0.396,-0.042C0.356,0 0.308,0.022 0.251,0.022C0.226,0.022 0.201,0.017 0.178,0.006C0.156,-0.004 0.133,-0.022 0.112,-0.046C0.091,-0.07 0.074,-0.105 0.061,-0.151C0.048,-0.198 0.042,-0.252 0.042,-0.316ZM0.134,-0.226C0.134,-0.161 0.14,-0.112 0.152,-0.081C0.154,-0.076 0.157,-0.07 0.161,-0.063C0.166,-0.055 0.172,-0.047 0.179,-0.038C0.187,-0.029 0.197,-0.021 0.21,-0.015C0.223,-0.009 0.236,-0.006 0.251,-0.006C0.296,-0.006 0.329,-0.028 0.35,-0.071C0.361,-0.095 0.367,-0.14 0.367,-0.205C0.367,-0.272 0.361,-0.317 0.349,-0.342C0.329,-0.383 0.298,-0.404 0.256,-0.404C0.228,-0.404 0.204,-0.394 0.185,-0.375C0.165,-0.356 0.152,-0.333 0.145,-0.308C0.137,-0.282 0.134,-0.255 0.134,-0.226Z" style="fill-rule:nonzero;"/>
                        </g>
                        <g transform="matrix(7.79412,0,0,7.79412,68.0086,338)">
                            <path d="M0.032,-0L0.032,-0.031C0.068,-0.031 0.09,-0.033 0.098,-0.037C0.106,-0.042 0.11,-0.055 0.11,-0.076L0.11,-0.344C0.11,-0.369 0.106,-0.384 0.097,-0.391C0.088,-0.397 0.067,-0.4 0.032,-0.4L0.032,-0.431L0.173,-0.442L0.173,-0.337C0.204,-0.407 0.253,-0.442 0.321,-0.442C0.399,-0.442 0.443,-0.409 0.454,-0.344C0.465,-0.37 0.483,-0.392 0.507,-0.412C0.531,-0.432 0.562,-0.442 0.599,-0.442C0.649,-0.442 0.684,-0.43 0.704,-0.405C0.719,-0.388 0.728,-0.371 0.73,-0.352C0.733,-0.333 0.735,-0.3 0.735,-0.252L0.735,-0.061C0.736,-0.047 0.741,-0.038 0.752,-0.035C0.763,-0.032 0.783,-0.031 0.813,-0.031L0.813,-0C0.745,-0.002 0.708,-0.003 0.701,-0.003C0.696,-0.003 0.658,-0.002 0.588,-0L0.588,-0.031C0.623,-0.031 0.645,-0.033 0.654,-0.037C0.662,-0.042 0.666,-0.055 0.666,-0.076L0.666,-0.309C0.666,-0.343 0.661,-0.37 0.65,-0.39C0.64,-0.41 0.62,-0.42 0.592,-0.42C0.557,-0.42 0.526,-0.405 0.499,-0.376C0.471,-0.347 0.457,-0.309 0.457,-0.26L0.457,-0.076C0.457,-0.055 0.461,-0.042 0.469,-0.037C0.478,-0.033 0.5,-0.031 0.535,-0.031L0.535,-0C0.467,-0.002 0.43,-0.003 0.423,-0.003C0.418,-0.003 0.38,-0.002 0.31,-0L0.31,-0.031C0.346,-0.031 0.367,-0.033 0.376,-0.037C0.384,-0.042 0.388,-0.055 0.388,-0.076L0.388,-0.309C0.388,-0.343 0.383,-0.37 0.373,-0.39C0.362,-0.41 0.343,-0.42 0.314,-0.42C0.279,-0.42 0.248,-0.405 0.221,-0.376C0.193,-0.347 0.179,-0.309 0.179,-0.26L0.179,-0.076C0.179,-0.055 0.183,-0.042 0.192,-0.037C0.2,-0.033 0.222,-0.031 0.257,-0.031L0.257,-0C0.189,-0.002 0.152,-0.003 0.145,-0.003C0.14,-0.003 0.102,-0.002 0.032,-0Z" style="fill-rule:nonzero;"/>
                        </g>
                    </g>
                </g>
                <g transform="matrix(1.27526,0,0,1.20498,128.905,0.508306)">
                    <g transform="matrix(0.894298,0,0,0.751519,-240,-240.112)">
                        <rect x="55.457" y="339" width="25" height="9" style="fill:white;"/>
                    </g>
                    <g transform="matrix(0.894298,0,0,0.751519,-239.832,-233.559)">
                        <g transform="matrix(7.79412,0,0,7.79412,55.4573,338)">
                            <path d="M0.039,-0.32C0.039,-0.418 0.051,-0.493 0.076,-0.547C0.111,-0.626 0.169,-0.666 0.25,-0.666C0.267,-0.666 0.285,-0.664 0.303,-0.659C0.321,-0.654 0.342,-0.643 0.365,-0.625C0.387,-0.607 0.406,-0.583 0.42,-0.554C0.447,-0.498 0.46,-0.419 0.46,-0.32C0.46,-0.222 0.448,-0.147 0.423,-0.094C0.387,-0.017 0.329,0.022 0.249,0.022C0.219,0.022 0.189,0.014 0.158,-0.001C0.128,-0.016 0.103,-0.042 0.084,-0.079C0.054,-0.134 0.039,-0.214 0.039,-0.32ZM0.122,-0.332C0.122,-0.231 0.126,-0.161 0.133,-0.121C0.141,-0.078 0.156,-0.047 0.178,-0.028C0.201,-0.009 0.224,-0 0.249,-0C0.276,-0 0.3,-0.01 0.323,-0.03C0.345,-0.05 0.359,-0.082 0.366,-0.125C0.374,-0.168 0.377,-0.237 0.377,-0.332C0.377,-0.425 0.374,-0.49 0.367,-0.527C0.358,-0.57 0.342,-0.601 0.319,-0.618C0.296,-0.635 0.272,-0.644 0.249,-0.644C0.24,-0.644 0.231,-0.643 0.222,-0.64C0.213,-0.638 0.201,-0.632 0.188,-0.625C0.175,-0.618 0.163,-0.604 0.153,-0.586C0.142,-0.567 0.135,-0.544 0.13,-0.516C0.125,-0.48 0.122,-0.419 0.122,-0.332Z" style="fill-rule:nonzero;"/>
                        </g>
                        <g transform="matrix(7.79412,0,0,7.79412,59.3544,338)">
                            <path d="M0.1,-0.016C0.09,-0.027 0.085,-0.039 0.085,-0.053C0.085,-0.067 0.09,-0.079 0.1,-0.09C0.11,-0.1 0.123,-0.105 0.138,-0.105C0.153,-0.105 0.165,-0.1 0.175,-0.091C0.185,-0.081 0.19,-0.068 0.19,-0.053C0.19,-0.038 0.185,-0.025 0.174,-0.015C0.163,-0.005 0.152,-0 0.138,-0C0.123,-0 0.11,-0.005 0.1,-0.016Z" style="fill-rule:nonzero;"/>
                        </g>
                        <g transform="matrix(7.79412,0,0,7.79412,61.5199,338)">
                            <path d="M0.042,-0.316C0.042,-0.421 0.069,-0.505 0.122,-0.57C0.175,-0.634 0.236,-0.666 0.305,-0.666C0.345,-0.666 0.376,-0.656 0.399,-0.635C0.421,-0.615 0.432,-0.589 0.432,-0.558C0.432,-0.541 0.427,-0.528 0.417,-0.521C0.407,-0.514 0.397,-0.51 0.386,-0.51C0.374,-0.51 0.363,-0.514 0.354,-0.522C0.345,-0.53 0.34,-0.542 0.34,-0.556C0.34,-0.586 0.358,-0.601 0.395,-0.601C0.378,-0.628 0.348,-0.641 0.307,-0.641C0.294,-0.641 0.282,-0.639 0.269,-0.635C0.256,-0.632 0.241,-0.624 0.224,-0.611C0.207,-0.599 0.192,-0.583 0.179,-0.563C0.166,-0.544 0.155,-0.516 0.146,-0.479C0.136,-0.442 0.132,-0.4 0.132,-0.352L0.132,-0.328C0.159,-0.394 0.201,-0.427 0.257,-0.427C0.313,-0.427 0.36,-0.405 0.399,-0.363C0.438,-0.32 0.457,-0.267 0.457,-0.204C0.457,-0.139 0.437,-0.085 0.396,-0.042C0.356,0 0.308,0.022 0.251,0.022C0.226,0.022 0.201,0.017 0.178,0.006C0.156,-0.004 0.133,-0.022 0.112,-0.046C0.091,-0.07 0.074,-0.105 0.061,-0.151C0.048,-0.198 0.042,-0.252 0.042,-0.316ZM0.134,-0.226C0.134,-0.161 0.14,-0.112 0.152,-0.081C0.154,-0.076 0.157,-0.07 0.161,-0.063C0.166,-0.055 0.172,-0.047 0.179,-0.038C0.187,-0.029 0.197,-0.021 0.21,-0.015C0.223,-0.009 0.236,-0.006 0.251,-0.006C0.296,-0.006 0.329,-0.028 0.35,-0.071C0.361,-0.095 0.367,-0.14 0.367,-0.205C0.367,-0.272 0.361,-0.317 0.349,-0.342C0.329,-0.383 0.298,-0.404 0.256,-0.404C0.228,-0.404 0.204,-0.394 0.185,-0.375C0.165,-0.356 0.152,-0.333 0.145,-0.308C0.137,-0.282 0.134,-0.255 0.134,-0.226Z" style="fill-rule:nonzero;"/>
                        </g>
                        <g transform="matrix(7.79412,0,0,7.79412,68.0086,338)">
                            <path d="M0.032,-0L0.032,-0.031C0.068,-0.031 0.09,-0.033 0.098,-0.037C0.106,-0.042 0.11,-0.055 0.11,-0.076L0.11,-0.344C0.11,-0.369 0.106,-0.384 0.097,-0.391C0.088,-0.397 0.067,-0.4 0.032,-0.4L0.032,-0.431L0.173,-0.442L0.173,-0.337C0.204,-0.407 0.253,-0.442 0.321,-0.442C0.399,-0.442 0.443,-0.409 0.454,-0.344C0.465,-0.37 0.483,-0.392 0.507,-0.412C0.531,-0.432 0.562,-0.442 0.599,-0.442C0.649,-0.442 0.684,-0.43 0.704,-0.405C0.719,-0.388 0.728,-0.371 0.73,-0.352C0.733,-0.333 0.735,-0.3 0.735,-0.252L0.735,-0.061C0.736,-0.047 0.741,-0.038 0.752,-0.035C0.763,-0.032 0.783,-0.031 0.813,-0.031L0.813,-0C0.745,-0.002 0.708,-0.003 0.701,-0.003C0.696,-0.003 0.658,-0.002 0.588,-0L0.588,-0.031C0.623,-0.031 0.645,-0.033 0.654,-0.037C0.662,-0.042 0.666,-0.055 0.666,-0.076L0.666,-0.309C0.666,-0.343 0.661,-0.37 0.65,-0.39C0.64,-0.41 0.62,-0.42 0.592,-0.42C0.557,-0.42 0.526,-0.405 0.499,-0.376C0.471,-0.347 0.457,-0.309 0.457,-0.26L0.457,-0.076C0.457,-0.055 0.461,-0.042 0.469,-0.037C0.478,-0.033 0.5,-0.031 0.535,-0.031L0.535,-0C0.467,-0.002 0.43,-0.003 0.423,-0.003C0.418,-0.003 0.38,-0.002 0.31,-0L0.31,-0.031C0.346,-0.031 0.367,-0.033 0.376,-0.037C0.384,-0.042 0.388,-0.055 0.388,-0.076L0.388,-0.309C0.388,-0.343 0.383,-0.37 0.373,-0.39C0.362,-0.41 0.343,-0.42 0.314,-0.42C0.279,-0.42 0.248,-0.405 0.221,-0.376C0.193,-0.347 0.179,-0.309 0.179,-0.26L0.179,-0.076C0.179,-0.055 0.183,-0.042 0.192,-0.037C0.2,-0.033 0.222,-0.031 0.257,-0.031L0.257,-0C0.189,-0.002 0.152,-0.003 0.145,-0.003C0.14,-0.003 0.102,-0.002 0.032,-0Z" style="fill-rule:nonzero;"/>
                        </g>
                    </g>
                </g>
                <g transform="matrix(1.14046,0,0,0.905565,-207.686,-233.485)">
                    <g transform="matrix(7.79412,0,0,7.79412,63,348.893)">
                        <path d="M0.059,-0.014C0.059,-0.023 0.063,-0.028 0.07,-0.03C0.077,-0.032 0.087,-0.033 0.097,-0.034C0.108,-0.034 0.122,-0.041 0.14,-0.054C0.157,-0.067 0.174,-0.086 0.19,-0.113L0.517,-0.689C0.518,-0.69 0.519,-0.692 0.521,-0.695C0.522,-0.698 0.524,-0.701 0.525,-0.703C0.527,-0.704 0.529,-0.706 0.531,-0.709C0.534,-0.712 0.537,-0.713 0.54,-0.714C0.542,-0.715 0.546,-0.716 0.549,-0.716C0.551,-0.716 0.554,-0.716 0.556,-0.715C0.558,-0.715 0.56,-0.714 0.561,-0.712C0.562,-0.711 0.563,-0.71 0.564,-0.709C0.565,-0.708 0.565,-0.707 0.566,-0.704C0.567,-0.701 0.567,-0.7 0.567,-0.699C0.567,-0.699 0.567,-0.696 0.568,-0.693L0.568,-0.688L0.611,-0.067C0.611,-0.052 0.615,-0.042 0.622,-0.038C0.628,-0.034 0.642,-0.032 0.663,-0.031C0.681,-0.031 0.69,-0.026 0.69,-0.017C0.69,-0.006 0.683,-0 0.67,-0C0.667,-0 0.655,-0 0.634,-0.001C0.613,-0.002 0.591,-0.003 0.567,-0.003C0.544,-0.003 0.524,-0.003 0.507,-0.002C0.49,-0.002 0.478,-0.002 0.469,-0.001C0.461,-0 0.456,-0 0.455,-0C0.445,-0 0.44,-0.005 0.44,-0.014C0.44,-0.021 0.443,-0.025 0.448,-0.028C0.453,-0.031 0.46,-0.032 0.468,-0.031C0.475,-0.031 0.484,-0.032 0.494,-0.034C0.504,-0.036 0.513,-0.04 0.52,-0.046C0.525,-0.05 0.528,-0.06 0.528,-0.073C0.528,-0.077 0.527,-0.085 0.526,-0.097C0.525,-0.109 0.524,-0.128 0.522,-0.153C0.521,-0.177 0.519,-0.203 0.517,-0.23L0.289,-0.23C0.283,-0.219 0.277,-0.208 0.27,-0.195C0.262,-0.183 0.257,-0.173 0.252,-0.166C0.248,-0.158 0.244,-0.15 0.239,-0.142C0.233,-0.133 0.23,-0.126 0.227,-0.121C0.224,-0.116 0.222,-0.111 0.219,-0.105C0.215,-0.1 0.213,-0.095 0.212,-0.092C0.211,-0.089 0.209,-0.085 0.208,-0.082C0.206,-0.078 0.205,-0.075 0.205,-0.073C0.204,-0.07 0.204,-0.068 0.204,-0.065C0.204,-0.056 0.207,-0.048 0.213,-0.043C0.218,-0.038 0.225,-0.035 0.232,-0.034C0.239,-0.034 0.245,-0.032 0.25,-0.03C0.256,-0.027 0.259,-0.024 0.259,-0.019C0.259,-0.006 0.252,-0 0.239,-0C0.237,-0 0.232,-0 0.224,-0.001C0.217,-0.002 0.206,-0.002 0.193,-0.002C0.18,-0.003 0.165,-0.003 0.15,-0.003C0.137,-0.003 0.123,-0.002 0.107,-0.001C0.092,-0 0.083,-0 0.081,-0C0.066,-0 0.059,-0.005 0.059,-0.014ZM0.307,-0.26L0.515,-0.26L0.493,-0.587L0.307,-0.26Z" style="fill-rule:nonzero;"/>
                    </g>
                </g>
                <g transform="matrix(1.14046,0,0,0.905565,-206.108,-267.39)">
                    <g transform="matrix(7.79412,0,0,7.79412,63,348.893)">
                        <path d="M0.065,-0.012C0.065,-0.021 0.067,-0.026 0.071,-0.028C0.075,-0.03 0.082,-0.031 0.092,-0.031C0.124,-0.031 0.145,-0.033 0.154,-0.038C0.163,-0.043 0.17,-0.055 0.174,-0.073L0.309,-0.616C0.312,-0.626 0.313,-0.632 0.313,-0.635C0.313,-0.642 0.308,-0.647 0.299,-0.649C0.29,-0.651 0.275,-0.652 0.255,-0.652C0.247,-0.652 0.242,-0.652 0.239,-0.652C0.236,-0.653 0.234,-0.654 0.231,-0.656C0.229,-0.657 0.228,-0.66 0.228,-0.664C0.228,-0.673 0.23,-0.678 0.234,-0.68C0.238,-0.682 0.245,-0.683 0.255,-0.683L0.566,-0.683C0.618,-0.683 0.659,-0.67 0.689,-0.644C0.719,-0.617 0.734,-0.585 0.734,-0.547C0.734,-0.507 0.716,-0.469 0.68,-0.432C0.644,-0.395 0.597,-0.37 0.538,-0.357C0.577,-0.352 0.61,-0.338 0.637,-0.314C0.663,-0.29 0.677,-0.258 0.677,-0.219C0.677,-0.165 0.651,-0.115 0.6,-0.069C0.549,-0.023 0.489,-0 0.42,-0L0.09,-0C0.083,-0 0.079,-0 0.076,-0C0.073,-0.001 0.071,-0.002 0.068,-0.004C0.066,-0.005 0.065,-0.008 0.065,-0.012ZM0.245,-0.053C0.244,-0.048 0.243,-0.044 0.243,-0.041C0.243,-0.038 0.243,-0.036 0.244,-0.035C0.245,-0.034 0.247,-0.033 0.252,-0.032C0.257,-0.031 0.264,-0.031 0.274,-0.031L0.398,-0.031C0.451,-0.031 0.496,-0.052 0.532,-0.093C0.569,-0.135 0.588,-0.181 0.588,-0.232C0.588,-0.242 0.587,-0.252 0.585,-0.261C0.583,-0.271 0.579,-0.283 0.573,-0.297C0.568,-0.311 0.558,-0.322 0.543,-0.331C0.528,-0.34 0.51,-0.344 0.489,-0.344L0.317,-0.344L0.247,-0.063C0.247,-0.062 0.246,-0.059 0.245,-0.053ZM0.323,-0.366L0.455,-0.366C0.509,-0.366 0.554,-0.386 0.591,-0.426C0.628,-0.465 0.646,-0.508 0.646,-0.553C0.646,-0.563 0.645,-0.573 0.643,-0.582C0.641,-0.592 0.637,-0.602 0.631,-0.614C0.625,-0.625 0.615,-0.634 0.602,-0.641C0.588,-0.648 0.571,-0.652 0.552,-0.652L0.434,-0.652C0.417,-0.652 0.405,-0.65 0.4,-0.647C0.394,-0.644 0.389,-0.633 0.385,-0.616L0.323,-0.366Z" style="fill-rule:nonzero;"/>
                    </g>
                </g>
                <g transform="matrix(1.14046,0,0,0.905565,-260.196,-268.353)">
                    <g transform="matrix(7.79412,0,0,7.79412,63,348.893)">
                        <path d="M0.15,-0.245C0.15,-0.321 0.171,-0.395 0.212,-0.467C0.253,-0.539 0.307,-0.597 0.372,-0.64C0.438,-0.683 0.504,-0.705 0.571,-0.705C0.636,-0.705 0.687,-0.677 0.722,-0.62L0.785,-0.694C0.791,-0.701 0.796,-0.705 0.801,-0.705C0.808,-0.705 0.812,-0.702 0.812,-0.695C0.812,-0.691 0.811,-0.686 0.81,-0.681L0.749,-0.438C0.747,-0.43 0.745,-0.425 0.743,-0.423C0.741,-0.421 0.737,-0.42 0.731,-0.42C0.721,-0.42 0.716,-0.423 0.716,-0.43C0.716,-0.431 0.716,-0.434 0.717,-0.441C0.717,-0.448 0.718,-0.456 0.719,-0.466C0.721,-0.475 0.721,-0.484 0.721,-0.491C0.721,-0.541 0.71,-0.584 0.687,-0.62C0.663,-0.656 0.628,-0.674 0.579,-0.674C0.539,-0.674 0.498,-0.662 0.455,-0.638C0.412,-0.615 0.375,-0.581 0.342,-0.536C0.306,-0.487 0.28,-0.431 0.263,-0.366C0.245,-0.301 0.237,-0.248 0.237,-0.207C0.237,-0.141 0.254,-0.091 0.287,-0.058C0.321,-0.025 0.362,-0.009 0.409,-0.009C0.458,-0.009 0.507,-0.028 0.558,-0.067C0.608,-0.106 0.645,-0.165 0.668,-0.242C0.67,-0.247 0.675,-0.25 0.684,-0.25C0.694,-0.25 0.699,-0.247 0.699,-0.24C0.699,-0.226 0.692,-0.206 0.678,-0.178C0.664,-0.151 0.645,-0.122 0.621,-0.092C0.597,-0.061 0.565,-0.035 0.524,-0.012C0.483,0.011 0.44,0.022 0.395,0.022C0.324,0.022 0.266,-0.002 0.219,-0.051C0.173,-0.1 0.15,-0.164 0.15,-0.245Z" style="fill-rule:nonzero;"/>
                    </g>
                </g>
                <g transform="matrix(1.14046,0,0,0.905565,-243.53,-312.896)">
                    <g transform="matrix(7.79412,0,0,7.79412,63,348.893)">
                        <path d="M0.063,-0.012C0.063,-0.021 0.065,-0.026 0.069,-0.028C0.073,-0.03 0.08,-0.031 0.09,-0.031C0.122,-0.031 0.143,-0.033 0.152,-0.038C0.161,-0.043 0.168,-0.055 0.172,-0.073L0.307,-0.616C0.31,-0.626 0.311,-0.632 0.311,-0.635C0.311,-0.642 0.306,-0.647 0.297,-0.649C0.288,-0.651 0.273,-0.652 0.253,-0.652C0.245,-0.652 0.24,-0.652 0.237,-0.652C0.234,-0.653 0.232,-0.654 0.229,-0.656C0.227,-0.657 0.226,-0.66 0.226,-0.664C0.226,-0.673 0.228,-0.678 0.232,-0.68C0.236,-0.682 0.243,-0.683 0.253,-0.683L0.565,-0.683C0.629,-0.683 0.68,-0.66 0.718,-0.615C0.756,-0.57 0.775,-0.511 0.775,-0.438C0.775,-0.365 0.757,-0.294 0.72,-0.226C0.683,-0.158 0.635,-0.103 0.576,-0.062C0.517,-0.021 0.457,-0 0.395,-0L0.088,-0C0.081,-0 0.077,-0 0.074,-0C0.071,-0.001 0.069,-0.002 0.066,-0.004C0.064,-0.005 0.063,-0.008 0.063,-0.012ZM0.246,-0.053C0.245,-0.048 0.244,-0.044 0.244,-0.041C0.244,-0.038 0.244,-0.036 0.245,-0.035C0.246,-0.034 0.248,-0.033 0.253,-0.032C0.257,-0.031 0.265,-0.031 0.275,-0.031L0.378,-0.031C0.455,-0.031 0.521,-0.064 0.578,-0.13C0.616,-0.174 0.644,-0.232 0.663,-0.304C0.682,-0.376 0.692,-0.433 0.692,-0.476C0.692,-0.537 0.677,-0.581 0.646,-0.609C0.615,-0.638 0.577,-0.652 0.532,-0.652L0.435,-0.652C0.418,-0.652 0.406,-0.65 0.401,-0.646C0.395,-0.643 0.39,-0.633 0.386,-0.616L0.248,-0.063C0.248,-0.062 0.247,-0.059 0.246,-0.053Z" style="fill-rule:nonzero;"/>
                    </g>
                </g>
            </g>
        </g>
    </g>
    <defs>
        <linearGradient id="_Linear2" x1="0" y1="0" x2="1" y2="0" gradientUnits="userSpaceOnUse" gradientTransform="matrix(9.18485e-16,-15,0.625,3.82702e-17,120.457,433)"><stop offset="0" style="stop-color:white;stop-opacity:1"/><stop offset="1" style="stop-color:rgb(166,166,166);stop-opacity:1"/></linearGradient>
    </defs>
</svg>
