<?xml version="1.0" encoding="UTF-8" standalone="no"?>
<!DOCTYPE svg PUBLIC "-//W3C//DTD SVG 1.1//EN" "http://www.w3.org/Graphics/SVG/1.1/DTD/svg11.dtd">
<svg width="100%" height="100%" viewBox="0 0 300 21" version="1.1" xmlns="http://www.w3.org/2000/svg" xmlns:xlink="http://www.w3.org/1999/xlink" xml:space="preserve" xmlns:serif="http://www.serif.com/" style="fill-rule:evenodd;clip-rule:evenodd;stroke-linecap:round;stroke-linejoin:round;stroke-miterlimit:1.5;">
    <g transform="matrix(1,0,0,1,0,-602)">
        <g id="tension-compression" transform="matrix(1,0,0,0.645728,364,605.299)">
            <rect x="-364" y="-4" width="300" height="31.05" style="fill:none;"/>
            <g transform="matrix(1,0,0,4.09233,-93.4908,-35.781)">
                <g transform="matrix(1,0,0,0.378425,-347.877,-66.7522)">
                    <g>
                        <g transform="matrix(0.24,0,0,-0.24,0,413.834)">
                            <path d="M426.61,879.87L780.94,879.87C790.725,879.87 798.657,871.938 798.657,862.153C798.657,852.369 790.725,844.437 780.94,844.437L426.61,844.437C416.825,844.437 408.893,852.369 408.893,862.153C408.893,871.938 416.825,879.87 426.61,879.87" style="fill:rgb(230,230,230);stroke:black;stroke-width:6.25px;"/>
                        </g>
                        <g transform="matrix(0,0.24,-0.24,0,309.36,104.4)">
                            <path d="M427,855C423.16,855 420,858.16 420,862C420,865.84 423.16,869 427,869C430.84,869 434,865.84 434,862C434,858.16 430.84,855 427,855" style="stroke:black;stroke-width:0.6px;stroke-miterlimit:10;"/>
                        </g>
                        <g transform="matrix(0,0.24,-0.24,0,394.32,19.44)">
                            <path d="M781,855C777.16,855 774,858.16 774,862C774,865.84 777.16,869 781,869C784.84,869 788,865.84 788,862C788,858.16 784.84,855 781,855" style="stroke:black;stroke-width:0.6px;stroke-miterlimit:10;"/>
                        </g>
                    </g>
                </g>
                <g transform="matrix(-0.0676582,-0.0442949,0.117051,-0.0256035,-253.005,19.7348)">
                    <g transform="matrix(-3.70151,6.40374,-6.40374,-3.70151,271.917,7.62968)">
                        <path d="M11.8,7.716L2.8,10.716L11.8,13.716L11.8,7.716Z" style="fill:rgb(225,32,32);"/>
                        <path d="M10,10.716L25,10.716" style="fill:none;stroke:rgb(225,32,32);stroke-width:2px;"/>
                    </g>
                </g>
                <g transform="matrix(0.0676582,-0.0442949,-0.117051,-0.0256035,-153.014,19.7348)">
                    <g transform="matrix(3.70151,-6.40374,-6.40374,-3.70151,-227.787,872.134)">
                        <path d="M123.2,13.716L132.2,10.716L123.2,7.716L123.2,13.716Z" style="fill:rgb(225,32,32);"/>
                        <path d="M125,10.716L110,10.716" style="fill:none;stroke:rgb(225,32,32);stroke-width:2px;"/>
                    </g>
                </g>
            </g>
            <g transform="matrix(1,0,0,1,5,0)">
                <g transform="matrix(1,0,0,1.54864,-286.368,-308.953)">
                    <g>
                        <g transform="matrix(0.24,0,0,-0.24,0,413.834)">
                            <path d="M426.61,879.87L780.94,879.87C790.725,879.87 798.657,871.938 798.657,862.153C798.657,852.369 790.725,844.437 780.94,844.437L426.61,844.437C416.825,844.437 408.893,852.369 408.893,862.153C408.893,871.938 416.825,879.87 426.61,879.87" style="fill:rgb(230,230,230);stroke:black;stroke-width:6.25px;"/>
                        </g>
                        <g transform="matrix(0,0.24,-0.24,0,309.36,104.4)">
                            <path d="M427,855C423.16,855 420,858.16 420,862C420,865.84 423.16,869 427,869C430.84,869 434,865.84 434,862C434,858.16 430.84,855 427,855" style="stroke:black;stroke-width:0.6px;stroke-miterlimit:10;"/>
                        </g>
                        <g transform="matrix(0,0.24,-0.24,0,394.32,19.44)">
                            <path d="M781,855C777.16,855 774,858.16 774,862C774,865.84 777.16,869 781,869C784.84,869 788,865.84 788,862C788,858.16 784.84,855 781,855" style="stroke:black;stroke-width:0.6px;stroke-miterlimit:10;"/>
                        </g>
                    </g>
                </g>
                <g transform="matrix(-0.0676582,-0.18127,0.117051,-0.104778,-198.496,44.9802)">
                    <g transform="matrix(-3.70151,6.40374,-6.40374,-3.70151,838.248,-972.142)">
                        <path d="M176.2,13.716L185.2,10.716L176.2,7.716L176.2,13.716Z" style="fill:rgb(225,32,32);"/>
                        <path d="M178,10.716L163,10.716" style="fill:none;stroke:rgb(225,32,32);stroke-width:2px;"/>
                    </g>
                </g>
                <g transform="matrix(0.0676582,-0.18127,-0.117051,-0.104778,-84.5044,44.9802)">
                    <g transform="matrix(3.70151,-6.40374,-6.40374,-3.70151,-845.939,1941.56)">
                        <path d="M278.8,7.716L269.8,10.716L278.8,13.716L278.8,7.716Z" style="fill:rgb(225,32,32);"/>
                        <path d="M277,10.716L292,10.716" style="fill:none;stroke:rgb(225,32,32);stroke-width:2px;"/>
                    </g>
                </g>
            </g>
        </g>
    </g>
</svg>
