<?xml version="1.0" encoding="UTF-8" standalone="no"?>
<!DOCTYPE svg PUBLIC "-//W3C//DTD SVG 1.1//EN" "http://www.w3.org/Graphics/SVG/1.1/DTD/svg11.dtd">
<svg width="100%" height="100%" viewBox="0 0 800 150" version="1.1" xmlns="http://www.w3.org/2000/svg" xmlns:xlink="http://www.w3.org/1999/xlink" xml:space="preserve" xmlns:serif="http://www.serif.com/" style="fill-rule:evenodd;clip-rule:evenodd;stroke-linecap:round;stroke-linejoin:round;stroke-miterlimit:1.5;">
    <g transform="matrix(1,0,0,1,0,4.41732)">
        <g transform="matrix(1,0,0,1,10,6.34468)">
            <g transform="matrix(0.581494,0.0173227,-0.00608316,0.587687,-19.0493,-7.73642)">
                <g transform="matrix(1.71918,-0.0506746,0.0177953,1.70106,15.5035,-5.60527)">
                    <path d="M28.273,50.118L10,6.345L50.883,30.399L28.273,50.118Z" style="fill:rgb(0,191,39);"/>
                    <path d="M70.323,75.511C70.323,75.511 50.563,52.854 33.662,33.476" style="fill:none;stroke:rgb(0,191,39);stroke-width:10px;"/>
                </g>
            </g>
            <g transform="matrix(0.581494,-0.0173227,-0.00608316,-0.587687,-19.0493,137.373)">
                <g transform="matrix(1.71918,-0.0506746,-0.0177953,-1.70106,18.1935,251.528)">
                    <path d="M50.739,122.048L10,146.345L28.013,102.464L50.739,122.048Z" style="fill:rgb(225,32,32);"/>
                    <path d="M70.323,76.345C70.323,76.345 50.437,99.42 33.501,119.074" style="fill:none;stroke:rgb(225,32,32);stroke-width:10px;"/>
                </g>
            </g>
            <g transform="matrix(-0.3077,-0.32399,0.426115,-0.234588,35.7902,131.987)">
                <g transform="matrix(-1.11581,1.54105,-2.02681,-1.46357,340.417,138.358)">
                    <path d="M104.845,60.983L150,75.511L105.159,90.981L104.845,60.983Z" style="fill:rgb(64,124,191);"/>
                    <path d="M70.323,76.345C70.323,76.345 92.889,76.108 114.002,75.888" style="fill:none;stroke:rgb(64,124,191);stroke-width:10px;"/>
                </g>
            </g>
            <g transform="matrix(0.8,0,0,0.8,-72,-74.4173)">
                <circle cx="165" cy="175" r="15"/>
            </g>
        </g>
        <g transform="matrix(0.932849,0,0,0.932849,158.454,89.6254)">
            <text x="0px" y="0px" style="font-family:'PTSerif-Bold', 'PT Serif', sans-serif;font-weight:700;font-size:72px;fill:rgb(147,41,38);">Engineering Statics</text>
        </g>
    </g>
</svg>
