<?xml version="1.0" encoding="UTF-8" standalone="no"?>
<!DOCTYPE svg PUBLIC "-//W3C//DTD SVG 1.1//EN" "http://www.w3.org/Graphics/SVG/1.1/DTD/svg11.dtd">
<svg width="100%" height="100%" viewBox="0 0 241 102" version="1.1" xmlns="http://www.w3.org/2000/svg" xmlns:xlink="http://www.w3.org/1999/xlink" xml:space="preserve" xmlns:serif="http://www.serif.com/" style="fill-rule:evenodd;clip-rule:evenodd;stroke-linecap:round;stroke-linejoin:round;stroke-miterlimit:1.5;">
    <g transform="matrix(1,0,0,1,-266,-10)">
        <g id="force_couple1B" transform="matrix(0.4,0,0,0.167885,266.459,10.9904)">
            <rect x="0" y="0" width="600" height="600" style="fill:none;"/>
            <clipPath id="_clip1">
                <rect x="0" y="0" width="600" height="600"/>
            </clipPath>
            <g clip-path="url(#_clip1)">
                <g transform="matrix(1,0,0,1.32366,1.79067,59.5646)">
                    <g transform="matrix(2.17391,0,0,4.5,25.9839,-462.184)">
                        <rect x="10" y="132.632" width="230" height="20" style="fill:rgb(230,230,230);stroke:black;stroke-width:1.42px;"/>
                    </g>
                    <g transform="matrix(0.931545,0,0,1.65739,153.713,141.378)">
                        <ellipse cx="154.592" cy="23.097" rx="5.367" ry="5.43"/>
                    </g>
                    <g transform="matrix(0.931545,0,0,1.65739,403.713,141.725)">
                        <ellipse cx="154.592" cy="23.097" rx="5.367" ry="5.43"/>
                    </g>
                    <g id="foundation" transform="matrix(2.50732e-16,7.37057,-4.99353,5.50378e-16,1205.21,-453.97)">
                        <g transform="matrix(0.532335,0,0,1.07848,61.1466,48.6671)">
                            <rect x="12.309" y="169.714" width="68.811" height="9.284" style="fill:url(#_Linear2);"/>
                        </g>
                        <g transform="matrix(0.12776,0,0,-0.258836,30.1361,476.397)">
                            <path d="M294,945L580,945" style="fill:none;fill-rule:nonzero;stroke:black;stroke-width:5.07px;stroke-miterlimit:10;"/>
                        </g>
                    </g>
                    <g transform="matrix(0.931545,0,0,1.65739,-96.2867,141.725)">
                        <ellipse cx="154.592" cy="23.097" rx="5.367" ry="5.43"/>
                    </g>
                </g>
                <g transform="matrix(2.5,0,0,5.95646,487.5,-383.213)">
                    <g transform="matrix(12,0,0,12,38.9121,117.832)">
                    </g>
                    <text x="30px" y="117.832px" style="font-family:'CMUSerif-Italic', 'CMU Serif';font-weight:500;font-style:italic;font-size:12px;">A</text>
                </g>
                <g transform="matrix(1,0,0,1,-248.942,0)">
                    <g transform="matrix(2.5,0,0,5.95646,487.5,-650.369)">
                        <g transform="matrix(12,0,0,12,38.1328,117.832)">
                        </g>
                        <text x="30px" y="117.832px" style="font-family:'CMUSerif-Italic', 'CMU Serif';font-weight:500;font-style:italic;font-size:12px;">P</text>
                    </g>
                    <g transform="matrix(2.5,-6.57653e-05,-2.76025e-05,5.94497,-1.05498,-610.127)">
                        <g transform="matrix(1,1.10623e-05,1.10623e-05,1.00193,99.5412,101.638)">
                            <path d="M124.668,28.742L120.687,40.914L116.568,28.788L124.668,28.742Z" style="fill:rgb(204,0,0);"/>
                            <path d="M120.459,0.99C120.459,0.99 120.564,19.377 120.632,31.195" style="fill:none;stroke:rgb(204,0,0);stroke-width:2.7px;"/>
                        </g>
                    </g>
                </g>
                <g transform="matrix(1,0,0,1,-248.656,362.194)">
                    <g transform="matrix(2.5,0,0,5.95646,486.156,-492.417)">
                        <g transform="matrix(12,0,0,12,38.1328,117.832)">
                        </g>
                        <text x="30px" y="117.832px" style="font-family:'CMUSerif-Italic', 'CMU Serif';font-weight:500;font-style:italic;font-size:12px;">P</text>
                    </g>
                    <g transform="matrix(2.5,-6.57653e-05,-2.76025e-05,5.94497,-1.05498,-610.127)">
                        <g transform="matrix(1,1.10623e-05,1.10623e-05,1.00193,99.4262,40.7135)">
                            <path d="M124.693,73.924L120.573,61.797L116.593,73.97L124.693,73.924Z" style="fill:rgb(204,0,0);"/>
                            <path d="M120.629,71.517C120.696,83.335 120.802,101.721 120.802,101.721" style="fill:none;stroke:rgb(204,0,0);stroke-width:2.7px;"/>
                        </g>
                    </g>
                </g>
                <g transform="matrix(1,0,0,1,1.05785,1.45791)">
                    <g transform="matrix(2.5,0,0,5.95646,487.5,-650.369)">
                        <g transform="matrix(12,0,0,12,38.1328,117.832)">
                        </g>
                        <text x="30px" y="117.832px" style="font-family:'CMUSerif-Italic', 'CMU Serif';font-weight:500;font-style:italic;font-size:12px;">P</text>
                    </g>
                    <g transform="matrix(2.5,-6.57653e-05,-2.76025e-05,5.94497,-1.05498,-610.127)">
                        <g transform="matrix(1,1.10623e-05,1.10623e-05,1.00193,-0.45881,101.392)">
                            <path d="M224.668,28.986L220.687,41.159L216.568,29.033L224.668,28.986Z" style="fill:rgb(204,0,0);"/>
                            <path d="M220.459,1.235C220.459,1.235 220.564,19.622 220.632,31.439" style="fill:none;stroke:rgb(204,0,0);stroke-width:2.7px;"/>
                        </g>
                    </g>
                </g>
                <g transform="matrix(2.5,0,0,5.95646,234.909,-383.213)">
                    <g transform="matrix(12,0,0,12,38.4316,117.832)">
                    </g>
                    <text x="30px" y="117.832px" style="font-family:'CMUSerif-Italic', 'CMU Serif';font-weight:500;font-style:italic;font-size:12px;">B</text>
                </g>
                <g transform="matrix(2.5,0,0,5.95646,-14.6006,-383.213)">
                    <g transform="matrix(12,0,0,12,39.1875,117.832)">
                    </g>
                    <text x="30px" y="117.832px" style="font-family:'CMUSerif-Italic', 'CMU Serif';font-weight:500;font-style:italic;font-size:12px;">O</text>
                </g>
            </g>
        </g>
    </g>
    <defs>
        <linearGradient id="_Linear2" x1="0" y1="0" x2="1" y2="0" gradientUnits="userSpaceOnUse" gradientTransform="matrix(5.6297e-16,-9.19401,9.19401,5.6297e-16,20.449,178.998)"><stop offset="0" style="stop-color:white;stop-opacity:1"/><stop offset="0.49" style="stop-color:rgb(223,223,223);stop-opacity:1"/><stop offset="1" style="stop-color:rgb(128,128,128);stop-opacity:1"/></linearGradient>
    </defs>
</svg>
