<?xml version="1.0" encoding="UTF-8"?>
<!DOCTYPE svg PUBLIC "-//W3C//DTD SVG 1.1//EN" "http://www.w3.org/Graphics/SVG/1.1/DTD/svg11.dtd">
<svg version="1.1" xmlns="http://www.w3.org/2000/svg" xmlns:xlink="http://www.w3.org/1999/xlink" x="0" y="0" width="163.085" height="50.169" viewBox="0, 0, 163.085, 50.169">
  <g id="Layer_1">
    <g>
      <path d="M75.752,27.239 L59.649,27.239" fill-opacity="0" stroke="#FF0000" stroke-width="0.85" stroke-miterlimit="3.924" id="path29906"/>
      <g id="path28932">
        <path d="M74.252,27.239 L72.252,29.239 L79.252,27.239 L72.252,25.239 z" fill="#FF0000"/>
        <path d="M74.252,27.239 L72.252,29.239 L79.252,27.239 L72.252,25.239 z" fill-opacity="0" stroke="#FF0000" stroke-width="0.4"/>
      </g>
    </g>
    <g>
      <path d="M64.3,35.975 C67.102,34.773 68.986,31.466 68.99,27.745 C68.988,24.022 66.623,22.054 64.3,19.511" fill-opacity="0" stroke="#D40000" stroke-width="1.012" id="path29890"/>
      <g id="path30014">
        <path d="M65.323,20.608 L68.15,20.706 L61.913,16.951 L65.225,23.434 z" fill="#D40000"/>
        <path d="M65.323,20.608 L68.15,20.706 L61.913,16.951 L65.225,23.434 z" fill-opacity="0" stroke="#D40000" stroke-width="0.4"/>
      </g>
    </g>
    <g>
      <text transform="matrix(2.835, 0, 0, 2.835, 69.738, 16.847)">
        <tspan x="-2.626" y="0.5" font-family="TimesNewRomanPS-ItalicMT" font-size="3.175" kerning="-3.175" fill="#D40000">+</tspan>
      </text>
      <text transform="matrix(2.835, 0, 0, 2.835, 72.068, 16.847)">
        <tspan x="-2.095" y="0.5" font-family="TimesNewRomanPS-ItalicMT" font-size="3.175" kerning="-3.175" fill="#D40000">M</tspan>
      </text>
    </g>
    <g>
      <path d="M86.424,27.239 L103.087,27.239" fill-opacity="0" stroke="#FF0000" stroke-width="0.85" stroke-miterlimit="3.924" id="path29908"/>
      <g id="path35312">
        <path d="M87.924,27.239 L89.924,25.239 L82.924,27.239 L89.924,29.239 z" fill="#FF0000"/>
        <path d="M87.924,27.239 L89.924,25.239 L82.924,27.239 L89.924,29.239 z" fill-opacity="0" stroke="#FF0000" stroke-width="0.4"/>
      </g>
    </g>
    <g>
      <path d="M100.156,35.975 C97.354,34.773 95.469,31.466 95.465,27.745 C95.468,24.022 97.833,22.054 100.156,19.511" fill-opacity="0" stroke="#D40000" stroke-width="1.012" id="path29898"/>
      <g id="path5393">
        <path d="M99.132,20.608 L99.231,23.434 L102.543,16.951 L96.306,20.706 z" fill="#D40000"/>
        <path d="M99.132,20.608 L99.231,23.434 L102.543,16.951 L96.306,20.706 z" fill-opacity="0" stroke="#D40000" stroke-width="0.4"/>
      </g>
    </g>
    <g>
      <text transform="matrix(2.835, 0, 0, 2.835, 92.264, 16.847)">
        <tspan x="-2.626" y="0.5" font-family="TimesNewRomanPS-ItalicMT" font-size="3.175" kerning="-3.175" fill="#D40000">+</tspan>
      </text>
      <text transform="matrix(2.835, 0, 0, 2.835, 94.594, 16.847)">
        <tspan x="-2.095" y="0.5" font-family="TimesNewRomanPS-ItalicMT" font-size="3.175" kerning="-3.175" fill="#D40000">M</tspan>
      </text>
    </g>
    <g>
      <text transform="matrix(2.835, 0, 0, 2.835, 77.532, 23.441)">
        <tspan x="-2.626" y="0.5" font-family="TimesNewRomanPS-ItalicMT" font-size="3.175" kerning="-3.175" fill="#FF0000">+</tspan>
      </text>
      <text transform="matrix(2.835, 0, 0, 2.835, 81.372, 23.441)">
        <tspan x="-2.626" y="0.5" font-family="TimesNewRomanPS-ItalicMT" font-size="3.175" kerning="-3.175" fill="#FF0000">N</tspan>
      </text>
    </g>
    <g>
      <text transform="matrix(2.835, 0, 0, 2.835, 87.994, 33.077)">
        <tspan x="-2.626" y="0.5" font-family="TimesNewRomanPS-ItalicMT" font-size="3.175" kerning="-3.175" fill="#FF0000">+</tspan>
      </text>
      <text transform="matrix(2.835, 0, 0, 2.835, 91.834, 33.077)">
        <tspan x="-2.626" y="0.5" font-family="TimesNewRomanPS-ItalicMT" font-size="3.175" kerning="-3.175" fill="#FF0000">N</tspan>
      </text>
    </g>
    <g>
      <path d="M159.085,27.239 L145.833,27.239" fill-opacity="0" stroke="#FF0000" stroke-width="0.85" stroke-miterlimit="3.924" id="path29922"/>
      <g id="path49505-9">
        <path d="M157.585,27.239 L155.585,29.239 L162.585,27.239 L155.585,25.239 z" fill="#FF0000"/>
        <path d="M157.585,27.239 L155.585,29.239 L162.585,27.239 L155.585,25.239 z" fill-opacity="0" stroke="#FF0000" stroke-width="0.4"/>
      </g>
    </g>
    <g>
      <path d="M5,27.239 L18.253,27.239" fill-opacity="0" stroke="#FF0000" stroke-width="0.85" stroke-miterlimit="3.924" id="path29924"/>
      <g id="path47129">
        <path d="M6.5,27.239 L8.5,25.239 L1.5,27.239 L8.5,29.239 z" fill="#FF0000"/>
        <path d="M6.5,27.239 L8.5,25.239 L1.5,27.239 L8.5,29.239 z" fill-opacity="0" stroke="#FF0000" stroke-width="0.4"/>
      </g>
    </g>
    <path d="M18.337,33.495 L18.337,49.831" fill-opacity="0" stroke="#808080" stroke-width="0.283" stroke-miterlimit="3.971" id="path29926"/>
    <g>
      <path d="M19.032,46.169 L60.998,46.169" fill-opacity="0" stroke="#808080" stroke-width="0.283" stroke-linecap="square" stroke-miterlimit="3.971" id="path29928"/>
      <g id="path23118">
        <path d="M22.032,46.169 L26.032,42.169 L12.032,46.169 L26.032,50.169 z" fill="#808080"/>
        <path d="M22.032,46.169 L26.032,42.169 L12.032,46.169 L26.032,50.169 z" fill-opacity="0" stroke="#808080" stroke-width="0.8"/>
      </g>
      <g id="path23710">
        <path d="M57.998,46.169 L53.998,50.169 L67.998,46.169 L53.998,42.169 z" fill="#808080"/>
        <path d="M57.998,46.169 L53.998,50.169 L67.998,46.169 L53.998,42.169 z" fill-opacity="0" stroke="#808080" stroke-width="0.8"/>
      </g>
    </g>
    <g>
      <path d="M18.478,10.354 L18.478,26.947" fill-opacity="0" stroke="#FF0000" stroke-width="0.85" stroke-linecap="square" stroke-miterlimit="3.924" id="path29930"/>
      <g id="path47913-5">
        <path d="M18.478,11.854 L20.478,13.854 L18.478,6.854 L16.478,13.854 z" fill="#FF0000"/>
        <path d="M18.478,11.854 L20.478,13.854 L18.478,6.854 L16.478,13.854 z" fill-opacity="0" stroke="#FF0000" stroke-width="0.4"/>
      </g>
    </g>
    <g>
      <text transform="matrix(2.835, 0, 0, 2.835, 27.381, 12.542)">
        <tspan x="-1.47" y="0.5" font-family="TimesNewRomanPS-ItalicMT" font-size="3.175" fill="#FF0000">A</tspan>
      </text>
      <text transform="matrix(2.835, 0, 0, 2.835, 36.714, 17.042)">
        <tspan x="-1.205" y="0.5" font-family="TimesNewRomanPS-ItalicMT" font-size="3.175" fill="#FF0000">y</tspan>
      </text>
    </g>
    <g>
      <text transform="matrix(2.835, 0, 0, 2.835, 7.092, 18.913)">
        <tspan x="-1.47" y="0.5" font-family="TimesNewRomanPS-ItalicMT" font-size="3.175" fill="#FF0000">A</tspan>
      </text>
      <text transform="matrix(2.835, 0, 0, 2.835, 16.425, 23.413)">
        <tspan x="-1.205" y="0.5" font-family="TimesNewRomanPS-ItalicMT" font-size="3.175" fill="#FF0000">x</tspan>
      </text>
    </g>
    <text transform="matrix(2.835, 0, 0, 2.835, 154.525, 22.12)">
      <tspan x="-1.47" y="0.5" font-family="TimesNewRomanPS-ItalicMT" font-size="3.175" fill="#FF0000">F</tspan>
    </text>
    <text transform="matrix(2.835, 0, 0, 2.835, 39.283, 40.849)">
      <tspan x="-1.294" y="0.5" font-family="TimesNewRomanPS-ItalicMT" font-size="3.175" fill="#808080">a</tspan>
    </text>
    <g>
      <text transform="matrix(2.835, 0, 0, 2.835, 10.121, 38.987)">
        <tspan x="-2.626" y="0.5" font-family="TimesNewRomanPS-ItalicMT" font-size="3.175" kerning="-3.175" fill="#FF0000">M</tspan>
      </text>
      <text transform="matrix(2.835, 0, 0, 2.835, 16.199, 43.33)">
        <tspan x="-2.626" y="-0" font-family="TimesNewRomanPS-ItalicMT" font-size="2.064" kerning="-2.064" fill="#FF0000">A</tspan>
      </text>
    </g>
    <g>
      <path d="M145.607,20.304 L145.607,3.649" fill-opacity="0" stroke="#FF0000" stroke-width="0.85" stroke-miterlimit="3.924" id="path29960"/>
      <g id="path48709-9">
        <path d="M145.607,18.804 L143.607,16.804 L145.607,23.804 L147.607,16.804 z" fill="#FF0000"/>
        <path d="M145.607,18.804 L143.607,16.804 L145.607,23.804 L147.607,16.804 z" fill-opacity="0" stroke="#FF0000" stroke-width="0.4"/>
      </g>
    </g>
    <text transform="matrix(2.835, 0, 0, 2.835, 150.754, 7.587)">
      <tspan x="-1.47" y="0.5" font-family="TimesNewRomanPS-ItalicMT" font-size="3.175" kerning="-1.701" fill="#FF0000">P</tspan>
    </text>
    <path d="M145.534,33.495 L145.534,49.831" fill-opacity="0" stroke="#808080" stroke-width="0.283" stroke-miterlimit="3.971" id="path29966"/>
    <text transform="matrix(2.835, 0, 0, 2.835, 150.867, 37.537)">
      <tspan x="-1.47" y="0.5" font-family="TimesNewRomanPS-ItalicMT" font-size="3.175" kerning="-1.488" fill="#000000">B</tspan>
    </text>
    <g id="path29972">
      <path d="M60.998,22.484 L18.478,22.484 L18.478,31.995 L60.601,31.995 C60.573,31.848 60.534,31.705 60.567,31.538 C60.615,31.295 60.742,31.037 60.998,30.778 C61.253,30.519 61.381,30.259 61.429,30.016 C61.476,29.773 61.446,29.545 61.382,29.351 C61.254,28.962 60.998,28.703 60.998,28.703 C60.998,28.703 60.743,28.445 60.616,28.056 C60.552,27.861 60.519,27.634 60.567,27.391 C60.615,27.148 60.742,26.89 60.998,26.631 C61.253,26.372 61.381,26.112 61.428,25.869 C61.476,25.626 61.445,25.4 61.382,25.205 C61.254,24.817 60.998,24.556 60.998,24.556 C60.998,24.556 60.743,24.298 60.616,23.909 C60.552,23.714 60.519,23.488 60.567,23.245 C60.615,23.002 60.742,22.743 60.998,22.484 z" fill="#CCCCCC"/>
      <path d="M60.998,22.484 L18.478,22.484 L18.478,31.995 L60.601,31.995 C60.573,31.848 60.534,31.705 60.567,31.538 C60.615,31.295 60.742,31.037 60.998,30.778 C61.253,30.519 61.381,30.259 61.429,30.016 C61.476,29.773 61.446,29.545 61.382,29.351 C61.254,28.962 60.998,28.703 60.998,28.703 C60.998,28.703 60.743,28.445 60.616,28.056 C60.552,27.861 60.519,27.634 60.567,27.391 C60.615,27.148 60.742,26.89 60.998,26.631 C61.253,26.372 61.381,26.112 61.428,25.869 C61.476,25.626 61.445,25.4 61.382,25.205 C61.254,24.817 60.998,24.556 60.998,24.556 C60.998,24.556 60.743,24.298 60.616,23.909 C60.552,23.714 60.519,23.488 60.567,23.245 C60.615,23.002 60.742,22.743 60.998,22.484 z" fill-opacity="0" stroke="#000000" stroke-width="0.567" stroke-miterlimit="3.988"/>
    </g>
    <g>
      <path d="M10.247,31.995 C11.45,34.797 14.757,36.682 18.478,36.686 C22.201,36.683 24.169,34.318 26.712,31.995" fill-opacity="0" stroke="#FF0000" stroke-width="0.85" stroke-miterlimit="3.924" id="path29974"/>
      <g id="path38859-0">
        <path d="M25.615,33.018 L25.517,35.845 L29.272,29.608 L22.789,32.92 z" fill="#FF0000"/>
        <path d="M25.615,33.018 L25.517,35.845 L29.272,29.608 L22.789,32.92 z" fill-opacity="0" stroke="#FF0000" stroke-width="0.4"/>
      </g>
    </g>
    <g id="path29976">
      <path d="M103.087,22.484 C102.832,22.743 102.704,23.002 102.656,23.245 C102.608,23.488 102.642,23.715 102.705,23.909 C102.833,24.298 103.087,24.556 103.087,24.556 C103.087,24.556 103.343,24.817 103.471,25.205 C103.535,25.4 103.566,25.626 103.518,25.869 C103.47,26.112 103.343,26.371 103.087,26.631 C102.832,26.89 102.704,27.148 102.656,27.391 C102.608,27.634 102.642,27.862 102.705,28.056 C102.833,28.445 103.087,28.703 103.087,28.703 C103.087,28.703 103.343,28.962 103.471,29.351 C103.535,29.545 103.566,29.773 103.518,30.016 C103.47,30.259 103.343,30.518 103.087,30.778 C102.832,31.037 102.704,31.295 102.656,31.538 C102.623,31.705 102.662,31.848 102.69,31.995 L145.607,31.995 L145.607,22.484 z" fill="#CCCCCC"/>
      <path d="M103.087,22.484 C102.832,22.743 102.704,23.002 102.656,23.245 C102.608,23.488 102.642,23.715 102.705,23.909 C102.833,24.298 103.087,24.556 103.087,24.556 C103.087,24.556 103.343,24.817 103.471,25.205 C103.535,25.4 103.566,25.626 103.518,25.869 C103.47,26.112 103.343,26.371 103.087,26.631 C102.832,26.89 102.704,27.148 102.656,27.391 C102.608,27.634 102.642,27.862 102.705,28.056 C102.833,28.445 103.087,28.703 103.087,28.703 C103.087,28.703 103.343,28.962 103.471,29.351 C103.535,29.545 103.566,29.773 103.518,30.016 C103.47,30.259 103.343,30.518 103.087,30.778 C102.832,31.037 102.704,31.295 102.656,31.538 C102.623,31.705 102.662,31.848 102.69,31.995 L145.607,31.995 L145.607,22.484 z" fill-opacity="0" stroke="#000000" stroke-width="0.567" stroke-miterlimit="3.988"/>
    </g>
    <path d="M61.594,42.639 L61.594,49.831" fill-opacity="0" stroke="#808080" stroke-width="0.283" stroke-miterlimit="3.971" id="path29978"/>
    <path d="M102.492,33.495 L102.492,49.831" fill-opacity="0" stroke="#808080" stroke-width="0.283" stroke-miterlimit="3.971" id="path29980"/>
    <g id="g29986">
      <g id="path29982">
        <path d="M62.489,32.194 L62.489,17.813" fill="#FF5555"/>
        <path d="M62.489,32.194 L62.489,17.813" fill-opacity="0" stroke="#FF5555" stroke-width="0.839" stroke-miterlimit="3.914"/>
      </g>
      <path d="M61.543,36.166 L64.026,26.264 L62.252,28.325 L61.538,29.154 z" fill="#FF5555" id="path29984"/>
    </g>
    <g>
      <text transform="matrix(2.835, 0, 0, 2.835, 58.626, 37.485)">
        <tspan x="-2.626" y="0.5" font-family="TimesNewRomanPS-ItalicMT" font-size="3.175" kerning="-3.175" fill="#FF5555">+</tspan>
      </text>
      <text transform="matrix(2.835, 0, 0, 2.835, 62.464, 37.485)">
        <tspan x="-2.626" y="0.5" font-family="TimesNewRomanPS-ItalicMT" font-size="3.175" kerning="-3.175" fill="#FF5555">V</tspan>
      </text>
    </g>
    <g id="g29998">
      <g id="path29994">
        <path d="M101.409,22.285 L101.409,36.666" fill="#FF5555"/>
        <path d="M101.409,22.285 L101.409,36.666" fill-opacity="0" stroke="#FF5555" stroke-width="0.839" stroke-miterlimit="3.914"/>
      </g>
      <path d="M101.355,17.313 L98.872,27.215 L101.36,24.325 z" fill="#FF5555" id="path29996"/>
    </g>
    <g>
      <text transform="matrix(2.835, 0, 0, 2.835, 107.409, 17.427)">
        <tspan x="-2.626" y="0.5" font-family="TimesNewRomanPS-ItalicMT" font-size="3.175" kerning="-3.175" fill="#FF5555">+</tspan>
      </text>
      <text transform="matrix(2.835, 0, 0, 2.835, 111.247, 17.427)">
        <tspan x="-2.626" y="0.5" font-family="TimesNewRomanPS-ItalicMT" font-size="3.175" kerning="-3.175" fill="#FF5555">V</tspan>
      </text>
    </g>
    <g>
      <path d="M103.159,46.169 L145.125,46.169" fill-opacity="0" stroke="#808080" stroke-width="0.283" stroke-linecap="square" stroke-miterlimit="3.971" id="path30006"/>
      <g id="path24578">
        <path d="M106.159,46.169 L110.159,42.169 L96.159,46.169 L110.159,50.169 z" fill="#808080"/>
        <path d="M106.159,46.169 L110.159,42.169 L96.159,46.169 L110.159,50.169 z" fill-opacity="0" stroke="#808080" stroke-width="0.8"/>
      </g>
      <g id="path25182">
        <path d="M142.125,46.169 L138.125,50.169 L152.125,46.169 L138.125,42.169 z" fill="#808080"/>
        <path d="M142.125,46.169 L138.125,50.169 L152.125,46.169 L138.125,42.169 z" fill-opacity="0" stroke="#808080" stroke-width="0.8"/>
      </g>
    </g>
    <text transform="matrix(2.835, 0, 0, 2.835, 123.41, 41.182)">
      <tspan x="-1.294" y="0.5" font-family="TimesNewRomanPS-ItalicMT" font-size="3.175" fill="#808080">b</tspan>
    </text>
  </g>
</svg>
