<?xml version="1.0" encoding="UTF-8"?>
<!DOCTYPE svg PUBLIC "-//W3C//DTD SVG 1.1//EN" "http://www.w3.org/Graphics/SVG/1.1/DTD/svg11.dtd">
<svg version="1.1" xmlns="http://www.w3.org/2000/svg" xmlns:xlink="http://www.w3.org/1999/xlink" x="0" y="0" width="110.973" height="50.169" viewBox="0, 0, 110.973, 50.169">
  <defs>
    <linearGradient id="Gradient_1" gradientUnits="userSpaceOnUse" x1="291.562" y1="-7.421" x2="286.562" y2="-7.421" gradientTransform="matrix(1.591, 0, 0, 2.526, -455.448, 47.252)">
      <stop offset="0" stop-color="#000000"/>
      <stop offset="1" stop-color="#808080" stop-opacity="0"/>
    </linearGradient>
  </defs>
  <g id="Layer_1">
    <g id="path10088">
      <path d="M8.421,22.434 L8.421,31.946 L93.995,31.946 L93.995,22.434 z" fill="#CCCCCC"/>
      <path d="M8.421,22.434 L8.421,31.946 L93.995,31.946 L93.995,22.434 z" fill-opacity="0" stroke="#000000" stroke-width="0.567" stroke-miterlimit="3.988"/>
    </g>
    <path d="M0.5,7.746 L8.456,7.746 L8.456,45.633 L0.5,45.633 z" fill="url(#Gradient_1)" id="rect10090"/>
    <g>
      <path d="M93.995,20.254 L93.995,3.599" fill-opacity="0" stroke="#FF0000" stroke-width="0.85" stroke-miterlimit="3.924" id="path10100"/>
      <g id="path10106">
        <path d="M93.995,18.754 L91.995,16.754 L93.995,23.754 L95.995,16.754 z" fill="#FF0000"/>
        <path d="M93.995,18.754 L91.995,16.754 L93.995,23.754 L95.995,16.754 z" fill-opacity="0" stroke="#FF0000" stroke-width="0.4"/>
      </g>
    </g>
    <text transform="matrix(2.835, 0, 0, 2.835, 98.897, 7.537)">
      <tspan x="-1.383" y="0.5" font-family="TimesNewRomanPS-ItalicMT" font-size="3.175" kerning="-1.701" fill="#FF0000">P</tspan>
    </text>
    <path d="M93.922,33.037 L93.922,49.373" fill-opacity="0" stroke="#808080" stroke-width="0.283" stroke-miterlimit="3.971" id="path13560"/>
    <g>
      <path d="M15.002,46.119 L87.669,46.119" fill-opacity="0" stroke="#808080" stroke-width="0.283" stroke-linecap="square" stroke-miterlimit="3.971" id="path13564"/>
      <g id="path21107-1">
        <path d="M17.594,46.119 L21.049,42.119 L8.956,46.119 L21.049,50.119 z" fill="#808080"/>
        <path d="M17.594,46.119 L21.049,42.119 L8.956,46.119 L21.049,50.119 z" fill-opacity="0" stroke="#808080" stroke-width="0.8"/>
      </g>
      <g id="path21687-1">
        <path d="M85.077,46.119 L81.622,50.119 L93.716,46.119 L81.622,42.119 z" fill="#808080"/>
        <path d="M85.077,46.119 L81.622,50.119 L93.716,46.119 L81.622,42.119 z" fill-opacity="0" stroke="#808080" stroke-width="0.8"/>
      </g>
    </g>
    <text transform="matrix(2.835, 0, 0, 2.835, 52.364, 42.632)">
      <tspan x="-1.47" y="0.5" font-family="TimesNewRomanPS-ItalicMT" font-size="3.175" fill="#808080">L</tspan>
    </text>
    <g>
      <path d="M107.473,27.19 L94.221,27.19" fill-opacity="0" stroke="#FF0000" stroke-width="0.85" stroke-miterlimit="3.924" id="path17940"/>
      <g id="path17946-6">
        <path d="M105.973,27.19 L103.973,29.19 L110.973,27.19 L103.973,25.19 z" fill="#FF0000"/>
        <path d="M105.973,27.19 L103.973,29.19 L110.973,27.19 L103.973,25.19 z" fill-opacity="0" stroke="#FF0000" stroke-width="0.4"/>
      </g>
    </g>
    <text transform="matrix(2.835, 0, 0, 2.835, 102.913, 22.004)">
      <tspan x="-1.383" y="0.5" font-family="TimesNewRomanPS-ItalicMT" font-size="3.175" fill="#FF0000">F</tspan>
    </text>
    <path d="M93.922,33.446 L93.922,49.781" fill-opacity="0" stroke="#808080" stroke-width="0.283" stroke-miterlimit="3.971" id="path18712"/>
    <text transform="matrix(2.835, 0, 0, 2.835, 13.471, 37.623)">
      <tspan x="-1.646" y="0.5" font-family="TimesNewRomanPS-ItalicMT" font-size="3.175" fill="#000000">A</tspan>
    </text>
    <text transform="matrix(2.835, 0, 0, 2.835, 99.257, 37.487)">
      <tspan x="-1.559" y="0.5" font-family="TimesNewRomanPS-ItalicMT" font-size="3.175" kerning="-1.488" fill="#000000">B</tspan>
    </text>
  </g>
</svg>
