<?xml version="1.0" encoding="UTF-8" standalone="no"?>
<!DOCTYPE svg PUBLIC "-//W3C//DTD SVG 1.1//EN" "http://www.w3.org/Graphics/SVG/1.1/DTD/svg11.dtd">
<svg width="100%" height="100%" viewBox="0 0 150 180" version="1.1" xmlns="http://www.w3.org/2000/svg" xmlns:xlink="http://www.w3.org/1999/xlink" xml:space="preserve" xmlns:serif="http://www.serif.com/" style="fill-rule:evenodd;clip-rule:evenodd;stroke-linecap:round;stroke-linejoin:round;stroke-miterlimit:1.5;">
    <g transform="matrix(1,0,0,1,-123,-426)">
        <g id="example-moment-fd" transform="matrix(1.06572,0,0,0.809184,-556.104,296.786)">
            <rect x="637.228" y="160.699" width="140.75" height="221.21" style="fill:none;"/>
            <g transform="matrix(-0.121423,0,0,-0.438495,655.688,91.5791)">
                <path d="M-273,-307L-143,-307" style="fill:none;fill-rule:nonzero;stroke:black;stroke-width:1.87px;"/>
            </g>
            <g transform="matrix(-0.0607116,-0.138493,0.288338,-0.219248,760.782,121.08)">
                <path d="M-273,-307L-143,-307" style="fill:none;fill-rule:nonzero;stroke:black;stroke-width:1.87px;"/>
            </g>
            <g transform="matrix(1.6,0,0,1.06036,-452.712,68.8607)">
                <g transform="matrix(0.886785,0,0,0.823071,671.307,276.341)">
                    <rect x="17.24" y="2.36" width="59.52" height="14.16" style="fill:rgb(203,203,203);"/>
                </g>
                <g transform="matrix(0.886785,0,0,1.72307,116.18,-355.249)">
                    <path d="M643.24,367.678L702.76,367.678" style="fill:none;stroke:black;stroke-width:1px;stroke-linecap:square;"/>
                </g>
            </g>
            <g transform="matrix(1.6,0,0,1.05403,-434.884,1.78482)">
                <path d="M699.497,343.592L699.497,212.319C699.497,210.508 699.981,208.835 700.767,207.933C705.968,201.955 725.68,179.303 732.092,171.935C733.213,170.646 734.645,171.416 735.291,173.655C735.292,173.656 735.292,173.657 735.292,173.659C735.941,175.905 735.556,178.778 734.432,180.075C728.234,187.229 709.735,208.581 705.201,213.816C704.574,214.538 704.189,215.874 704.189,217.32C704.189,234.731 704.189,343.592 704.189,343.592L699.497,343.592Z" style="fill:rgb(230,229,230);stroke:black;stroke-width:0.99px;"/>
            </g>
            <g transform="matrix(7.25461e-18,-1.71641,-1.42172,9.55451e-18,953.472,588.172)">
                <path d="M130.64,185.36C131.435,185.36 132.08,185.951 132.08,186.68C132.08,187.409 131.435,188 130.64,188C129.845,188 129.2,187.409 129.2,186.68C129.2,185.951 129.845,185.36 130.64,185.36" style="fill-rule:nonzero;stroke:black;stroke-width:0.1px;stroke-linecap:butt;stroke-miterlimit:10;"/>
            </g>
            <g transform="matrix(-1.30324,-4.70893e-16,-8.88178e-17,1.87244,907.077,-161.092)">
                <g>
                    <path d="M130.64,185.36C131.435,185.36 132.08,185.951 132.08,186.68C132.08,187.409 131.435,188 130.64,188C129.845,188 129.2,187.409 129.2,186.68C129.2,185.951 129.845,185.36 130.64,185.36" style="fill-rule:nonzero;stroke:black;stroke-width:0.1px;stroke-linecap:butt;stroke-miterlimit:10;"/>
                </g>
            </g>
            <g transform="matrix(-0.265783,0,0,-0.438495,702.605,53.2689)">
                <path d="M-273,-307L-143,-307" style="fill:none;fill-rule:nonzero;stroke:black;stroke-width:1.56px;"/>
            </g>
            <g transform="matrix(0.132836,0.208495,-0.25505,0.281859,615.232,259.228)">
                <g transform="matrix(2.91862,-2.15895,3.47828,1.81157,-211.756,-196.531)">
                    <path d="M126.546,41.38L131.195,53.144L120.418,46.522L126.546,41.38Z" style="fill:rgb(204,28,0);fill-rule:nonzero;"/>
                    <path d="M106.138,23.281C106.138,23.281 117.605,36.947 125.024,45.79" style="fill:none;fill-rule:nonzero;stroke:rgb(204,28,0);stroke-width:2.67px;"/>
                </g>
            </g>
            <g transform="matrix(-1.30324,-4.70893e-16,-8.88178e-17,1.87244,907.077,-161.092)">
                <g>
                    <path d="M130.64,185.36C131.435,185.36 132.08,185.951 132.08,186.68C132.08,187.409 131.435,188 130.64,188C129.845,188 129.2,187.409 129.2,186.68C129.2,185.951 129.845,185.36 130.64,185.36" style="fill-rule:nonzero;stroke:black;stroke-width:0.1px;stroke-linecap:butt;stroke-miterlimit:10;"/>
                </g>
            </g>
            <g transform="matrix(1.09238,0,0,1.43869,-101.02,-129.462)">
                <g transform="matrix(10.3078,0,0,10.3078,713.655,341)">
                </g>
                <text x="706px" y="341px" style="font-family:'CMUSerif-Italic', 'CMU Serif';font-weight:500;font-style:italic;font-size:10.308px;">A</text>
            </g>
            <g transform="matrix(1.09238,0,0,1.43869,-101.514,-269.741)">
                <g transform="matrix(10.3078,0,0,10.3078,713.243,341)">
                </g>
                <text x="706px" y="341px" style="font-family:'CMUSerif-Italic', 'CMU Serif';font-weight:500;font-style:italic;font-size:10.308px;">B</text>
            </g>
            <g transform="matrix(1.09238,0,0,1.43869,-38.596,-312.96)">
                <g transform="matrix(10.3078,0,0,10.3078,713.368,341)">
                </g>
                <text x="706px" y="341px" style="font-family:'CMUSerif-Italic', 'CMU Serif';font-weight:500;font-style:italic;font-size:10.308px;">C</text>
            </g>
            <g transform="matrix(0.946028,-0.719345,0.546189,1.24594,-129.861,386.68)">
                <g transform="matrix(10.3078,0,0,10.3078,740.163,270.605)">
                </g>
                <text x="723px" y="270.605px" style="font-family:'CMUSerif-Roman', 'CMU Serif';font-weight:500;font-size:10.308px;">3 m</text>
            </g>
            <g transform="matrix(1.09238,1.1312e-32,0,1.44531,-137.345,-100.65)">
                <g transform="matrix(10.2606,0,0,10.2606,748.065,270.605)">
                </g>
                <text x="723px" y="270.605px" style="font-family:'CMUSerif-Roman', 'CMU Serif';font-weight:500;font-size:10.261px;">5.5 m</text>
            </g>
            <g transform="matrix(1.09238,1.1312e-32,0,1.44531,-82.0862,-143.914)">
                <g transform="matrix(10.2606,0,0,10.2606,741.803,270.605)">
                </g>
                <text x="723px" y="270.605px" style="font-family:'CMUSerif-Roman', 'CMU Serif';font-weight:500;font-size:10.261px;">120°</text>
            </g>
            <g transform="matrix(1.09238,1.1312e-32,0,1.44531,-38.5844,-189.165)">
                <g transform="matrix(10.2606,0,0,10.2606,736.672,270.605)">
                </g>
                <text x="723px" y="270.605px" style="font-family:'CMUSerif-Roman', 'CMU Serif';font-weight:500;font-size:10.261px;">50°</text>
            </g>
            <g transform="matrix(7.25461e-18,-1.71641,-1.42172,9.55451e-18,954.243,450.429)">
                <path d="M130.64,185.36C131.435,185.36 132.08,185.951 132.08,186.68C132.08,187.409 131.435,188 130.64,188C129.845,188 129.2,187.409 129.2,186.68C129.2,185.951 129.845,185.36 130.64,185.36" style="fill-rule:nonzero;stroke:black;stroke-width:0.1px;stroke-linecap:butt;stroke-miterlimit:10;"/>
            </g>
            <g transform="matrix(0.938336,0,0,1.23581,344.467,152.048)">
                <g transform="matrix(1,-0,-0,1,312,6.17883)">
                    <path d="M76.357,50.832L73.576,46.7L73.322,51.674L76.357,50.832Z"/>
                    <path d="M63.358,74.156L58.433,73.416L62.817,71.053L63.358,74.156Z"/>
                    <path d="M74.587,50.343C74.786,51.472 74.89,52.635 74.89,53.821C74.89,63.629 67.777,71.788 58.433,73.416C57.582,73.564 63.471,72.538 62.156,72.767" style="fill:none;stroke:black;stroke-width:0.7px;"/>
                </g>
            </g>
        </g>
    </g>
</svg>
