<?xml version="1.0" encoding="UTF-8" standalone="no"?>
<!DOCTYPE svg PUBLIC "-//W3C//DTD SVG 1.1//EN" "http://www.w3.org/Graphics/SVG/1.1/DTD/svg11.dtd">
<svg width="100%" height="100%" viewBox="0 0 360 198" version="1.1" xmlns="http://www.w3.org/2000/svg" xmlns:xlink="http://www.w3.org/1999/xlink" xml:space="preserve" xmlns:serif="http://www.serif.com/" style="fill-rule:evenodd;clip-rule:evenodd;stroke-linecap:round;stroke-miterlimit:1.5;">
    <g transform="matrix(1,0,0,1,-1553,-50)">
        <g id="mobile_crane" transform="matrix(0.72,0,0,0.528,1511.96,23.6)">
            <rect x="57" y="50" width="500" height="375" style="fill:none;"/>
            <g transform="matrix(0.999928,0,0,1.36354,-12.5691,-155.449)">
                <g id="track">
                    <path d="M265.888,381C270.426,381 274.779,382.803 277.988,386.012C281.197,389.221 283,393.574 283,398.112L283,398.114C283,407.44 275.44,415 266.114,415C228.629,415 138.814,415 101.116,415C91.663,415 84,407.337 84,397.884C84,397.883 84,397.883 84,397.882C84,393.405 85.779,389.111 88.945,385.945C92.111,382.779 96.405,381 100.882,381L265.888,381Z" style="fill:rgb(128,128,128);stroke:black;stroke-width:8.33px;"/>
                    <g transform="matrix(0.833333,0,0,0.833333,9.33233,57.1667)">
                        <circle cx="110" cy="409" r="12" style="fill-opacity:0.28;stroke:black;stroke-width:3.33px;stroke-linecap:butt;"/>
                    </g>
                    <g transform="matrix(0.833333,0,0,0.833333,174.221,57.1667)">
                        <circle cx="110" cy="409" r="12" style="fill-opacity:0.28;stroke:black;stroke-width:3.33px;stroke-linecap:butt;"/>
                    </g>
                </g>
                <g id="body">
                    <g transform="matrix(1,0,0,0.625,18,140)">
                        <rect x="66" y="320" width="153" height="56" style="fill:rgb(255,197,0);stroke:black;stroke-width:3.33px;stroke-linejoin:round;"/>
                    </g>
                    <g transform="matrix(0.881356,0,0,1,28.4322,0)">
                        <path d="M227.567,340L218.49,310L177.644,310L169.702,340L227.567,340Z" style="fill:rgb(255,197,0);stroke:black;stroke-width:2.95px;stroke-linejoin:round;"/>
                    </g>
                    <g id="weight" transform="matrix(0.881356,0,0,1.96667,-64.0678,-293.667)">
                        <path d="M227,340L227.077,310L168,310L168,340L227,340Z" style="fill:rgb(255,197,0);stroke:black;stroke-width:1.82px;stroke-linejoin:round;"/>
                    </g>
                </g>
                <g id="cab">
                    <g transform="matrix(1,0,0,1,14,0)">
                        <path d="M228,375L274,375L280,349L265,320L243,320L228,328.924L228,375Z" style="fill:rgb(255,197,0);stroke:black;stroke-width:2.78px;stroke-linejoin:round;"/>
                    </g>
                    <g transform="matrix(0.7667,0,0,0.726146,56.7732,95.3833)">
                        <path d="M248,326L263,316.213L285.46,316.213L299.212,345.655L248,345.425L248,326Z" style="fill:white;stroke:black;stroke-width:4.96px;stroke-linejoin:round;"/>
                    </g>
                    <path d="M258.415,325L258.415,346.26" style="fill:none;stroke:black;stroke-width:4.63px;stroke-linecap:butt;"/>
                </g>
            </g>
            <g id="boom" transform="matrix(0.956978,-0.395335,0.289912,1.30497,-21.6164,11.1142)">
                <g transform="matrix(1.08738,-0.191735,0.173648,0.984808,-111.228,110.413)">
                    <g transform="matrix(-1.11692,0,0,0.667761,771.623,70.1025)">
                        <g>
                            <g transform="matrix(1.00366,0,0,1.00366,-19.8718,8.26007)">
                                <path d="M374.5,202L238,193.5L238,158.5L374.5,150" style="fill:none;stroke:black;stroke-width:2.09px;stroke-linejoin:round;"/>
                            </g>
                            <g transform="matrix(-1.15547,0,0,1.49754,827.954,-104.981)">
                                <path d="M527.018,181.846C539.719,181.928 539.499,188.404 539.55,193.575C539.601,198.746 538.468,204.278 527.018,205.303" style="fill:none;stroke:black;stroke-width:1.69px;stroke-linejoin:round;"/>
                            </g>
                            <g transform="matrix(0.999989,0.00110936,0.00110936,0.884626,-0.172592,17.9495)">
                                <path d="M356,159L355.935,217.782" style="fill:none;stroke:black;stroke-width:2.15px;stroke-linejoin:round;"/>
                            </g>
                            <path d="M248.349,165.672L273.914,185" style="fill:none;stroke:black;stroke-width:2.1px;stroke-linejoin:round;"/>
                            <path d="M248.349,204.328L273.914,185" style="fill:none;stroke:black;stroke-width:2.1px;stroke-linejoin:round;"/>
                            <path d="M248.349,165.672L219,185.048" style="fill:none;stroke:black;stroke-width:2.1px;stroke-linejoin:round;"/>
                            <path d="M219,185.048L248.349,204.328" style="fill:none;stroke:black;stroke-width:2.1px;stroke-linejoin:round;"/>
                            <path d="M248.349,165.672L248.349,204.424" style="fill:none;stroke:black;stroke-width:2.1px;stroke-linejoin:round;"/>
                            <path d="M273.914,185L273.914,205.895" style="fill:none;stroke:black;stroke-width:2.1px;stroke-linejoin:round;"/>
                            <path d="M273.914,185L273.914,164.004" style="fill:none;stroke:black;stroke-width:2.1px;stroke-linejoin:round;"/>
                            <g transform="matrix(0.959167,0.0408163,0.0408163,0.9592,4.04679,-4.04513)">
                                <path d="M307,207.98L360.356,154.646" style="fill:none;stroke:black;stroke-width:2.1px;stroke-linejoin:round;"/>
                            </g>
                            <path d="M307,162.02L356,210.969" style="fill:none;stroke:black;stroke-width:2.1px;stroke-linejoin:round;"/>
                            <path d="M307,162.02L307,207.98" style="fill:none;stroke:black;stroke-width:2.1px;stroke-linejoin:round;"/>
                            <path d="M307,162.02L273.914,185" style="fill:none;stroke:black;stroke-width:2.1px;stroke-linejoin:round;"/>
                            <path d="M307,207.98L273.914,185" style="fill:none;stroke:black;stroke-width:2.1px;stroke-linejoin:round;"/>
                        </g>
                    </g>
                    <g transform="matrix(1.11692,0,0,0.667761,-23.6234,70.1025)">
                        <g>
                            <g transform="matrix(1.00366,0,0,1.00366,-19.8718,8.26007)">
                                <path d="M374.5,202L238,193.5L238,158.5L374.5,150" style="fill:none;stroke:black;stroke-width:2.09px;stroke-linejoin:round;"/>
                            </g>
                            <g transform="matrix(-1.15547,0,0,1.49754,827.954,-104.981)">
                                <path d="M527.018,181.846C539.719,181.928 539.499,188.404 539.55,193.575C539.601,198.746 538.468,204.278 527.018,205.303" style="fill:none;stroke:black;stroke-width:1.69px;stroke-linejoin:round;"/>
                            </g>
                            <g transform="matrix(0.999989,0.00110936,0.00110936,0.884626,-0.172592,17.9495)">
                                <path d="M356,159L355.935,217.782" style="fill:none;stroke:black;stroke-width:2.15px;stroke-linejoin:round;"/>
                            </g>
                            <path d="M248.349,165.672L273.914,185" style="fill:none;stroke:black;stroke-width:2.1px;stroke-linejoin:round;"/>
                            <path d="M248.349,204.328L273.914,185" style="fill:none;stroke:black;stroke-width:2.1px;stroke-linejoin:round;"/>
                            <path d="M248.349,165.672L219,185.048" style="fill:none;stroke:black;stroke-width:2.1px;stroke-linejoin:round;"/>
                            <path d="M219,185.048L248.349,204.328" style="fill:none;stroke:black;stroke-width:2.1px;stroke-linejoin:round;"/>
                            <path d="M248.349,165.672L248.349,204.424" style="fill:none;stroke:black;stroke-width:2.1px;stroke-linejoin:round;"/>
                            <path d="M273.914,185L273.914,205.895" style="fill:none;stroke:black;stroke-width:2.1px;stroke-linejoin:round;"/>
                            <path d="M273.914,185L273.914,164.004" style="fill:none;stroke:black;stroke-width:2.1px;stroke-linejoin:round;"/>
                            <g transform="matrix(0.959167,0.0408163,0.0408163,0.9592,4.04679,-4.04513)">
                                <path d="M307,207.98L360.356,154.646" style="fill:none;stroke:black;stroke-width:2.1px;stroke-linejoin:round;"/>
                            </g>
                            <path d="M307,162.02L356,210.969" style="fill:none;stroke:black;stroke-width:2.1px;stroke-linejoin:round;"/>
                            <path d="M307,162.02L307,207.98" style="fill:none;stroke:black;stroke-width:2.1px;stroke-linejoin:round;"/>
                            <path d="M307,162.02L273.914,185" style="fill:none;stroke:black;stroke-width:2.1px;stroke-linejoin:round;"/>
                            <path d="M307,207.98L273.914,185" style="fill:none;stroke:black;stroke-width:2.1px;stroke-linejoin:round;"/>
                        </g>
                    </g>
                </g>
                <g transform="matrix(0.776806,1.38253e-16,1.38253e-16,-0.776806,-214.558,459.214)">
                    <circle cx="475" cy="257" r="2.575" style="stroke:black;stroke-width:2.68px;stroke-linejoin:round;"/>
                </g>
            </g>
            <g id="topping-lift" serif:id="topping lift" transform="matrix(1.54013,-0.0824141,-0.0572472,1.37305,-61.4739,-148.133)">
                <path d="M111.691,222.105L383.745,183.006" style="fill:none;stroke:black;stroke-width:2.23px;stroke-linejoin:round;"/>
            </g>
            <g transform="matrix(0.706679,-0.964681,0.605599,0.824937,-96.8591,161.276)">
                <g transform="matrix(-5.55112e-17,0.931244,1,5.55112e-17,37.9078,44.0081)">
                    <rect x="110.034" y="103" width="196.966" height="7" style="fill:rgb(255,197,0);stroke:black;stroke-width:2.05px;stroke-linecap:butt;"/>
                </g>
                <g transform="matrix(-0.776806,-5.55112e-17,5.55112e-17,0.907429,513.391,91.7907)">
                    <circle cx="475" cy="257" r="2.575" style="stroke:black;stroke-width:1.43px;stroke-linejoin:round;"/>
                </g>
            </g>
            <g transform="matrix(0.999928,0,0,1.03199,-12.5691,-45.9467)">
                <g transform="matrix(1,0,0,1,-34,0.373805)">
                    <g transform="matrix(-0.776806,0,0,1.02637,513.391,61.2222)">
                        <circle cx="475" cy="257" r="2.575"/>
                    </g>
                    <g transform="matrix(1.5238e-17,0.751145,1,1.5238e-17,37.9078,99.2985)">
                        <rect x="110.034" y="103" width="196.966" height="7" style="fill:rgb(255,197,0);stroke:black;stroke-width:2.28px;stroke-linecap:butt;"/>
                    </g>
                </g>
                <g transform="matrix(-0.776806,-1.70925e-16,-1.29364e-16,1.02637,479.391,-76.2089)">
                    <circle cx="475" cy="257" r="2.575" style="stroke:black;stroke-width:1.43px;stroke-linejoin:round;"/>
                </g>
            </g>
            <g id="Hook" transform="matrix(0.999928,0,0,1.36354,11.4316,-128.495)">
                <g transform="matrix(0.749252,0,0,0.749252,127.823,52.4215)">
                    <g transform="matrix(1,0,0,1,36.9877,4)">
                        <path d="M476,205L480,212L475,234L465,234L460,212L464,205L476,205Z" style="fill:rgb(255,197,0);stroke:black;stroke-width:2.22px;stroke-linejoin:round;"/>
                    </g>
                    <circle cx="506.988" cy="212.988" r="1.988"/>
                    <g transform="matrix(1,0,0,1,0,20.8693)">
                        <circle cx="506.988" cy="212.988" r="1.988"/>
                    </g>
                    <g transform="matrix(1,0,0,1,35.0063,2.12686)">
                        <path d="M469,235.873C470.314,235.873 472.687,235.878 474.11,235.873C473.766,239.869 482.123,240.781 482,249C481.859,258.409 474.389,257.816 473,258C471.611,258.184 461.49,258.202 462,245C462.532,242.614 462.716,242.969 464,245C465.284,247.031 466.893,252 471,252C475.107,252 476,249.537 476,247C476,244.463 474.332,241.22 470,241C468.414,240.919 469.021,238.859 469,235.873Z"/>
                    </g>
                </g>
                <g transform="matrix(0.999759,-0.0118415,0.0219602,0.539093,18.8729,99.9228)">
                    <path d="M486.832,95.807L484.258,213" style="fill:none;stroke:black;stroke-width:3.42px;stroke-linejoin:round;"/>
                </g>
                <g transform="matrix(-0.766044,0.642788,0.642788,0.766044,706.366,-355.391)">
                    <circle cx="475" cy="257" r="2.575" style="stroke:black;stroke-width:2.78px;stroke-linejoin:round;"/>
                </g>
            </g>
            <g transform="matrix(0.999928,0,0,1.36354,237.468,-230.84)">
                <g transform="matrix(16.6679,0,0,16.6679,310.379,221.744)">
                </g>
                <text x="298px" y="221.744px" style="font-family:'CMUSerif-Italic', 'CMU Serif';font-weight:500;font-style:italic;font-size:16.668px;">A</text>
            </g>
            <g transform="matrix(0.999928,0,0,1.36354,-226.593,-147.282)">
                <g transform="matrix(16.6679,0,0,16.6679,309.711,221.744)">
                </g>
                <text x="298px" y="221.744px" style="font-family:'CMUSerif-Italic', 'CMU Serif';font-weight:500;font-style:italic;font-size:16.668px;">B</text>
            </g>
            <g transform="matrix(1.14192,0,0,1.0472,-11.1205,-22.7777)">
                <g transform="matrix(0.875657,0,0,1.30208,79.4874,-39.666)">
                    <g transform="matrix(16.6679,0,0,16.6679,306.334,221.744)">
                    </g>
                    <text x="298px" y="221.744px" style="font-family:'CMUSerif-Roman', 'CMU Serif';font-weight:500;font-size:16.668px;">2</text>
                </g>
                <g transform="matrix(0.875657,0,0,1.30208,102.969,-67.0305)">
                    <g transform="matrix(16.6679,0,0,16.6679,306.334,221.744)">
                    </g>
                    <text x="298px" y="221.744px" style="font-family:'CMUSerif-Roman', 'CMU Serif';font-weight:500;font-size:16.668px;">1</text>
                </g>
                <g transform="matrix(0.711489,0,0,1.05797,105.557,-35.3043)">
                    <path d="M307.885,250.772L357.115,226.228L357.115,250.772L307.885,250.772Z" style="fill:none;stroke:black;stroke-width:1.2px;stroke-linejoin:round;"/>
                </g>
            </g>
            <g transform="matrix(0.999928,0,0,1.36354,-125.959,-7.20337)">
                <g transform="matrix(16.6679,0,0,16.6679,309.915,221.744)">
                </g>
                <text x="298px" y="221.744px" style="font-family:'CMUSerif-Italic', 'CMU Serif';font-weight:500;font-style:italic;font-size:16.668px;">C</text>
            </g>
            <g transform="matrix(0.999928,0,0,1.36354,38.3571,-208.662)">
                <g transform="matrix(16.6679,0,0,16.6679,324.841,221.744)">
                </g>
                <text x="298px" y="221.744px" style="font-family:'CMUSerif-Roman', 'CMU Serif';font-weight:500;font-size:16.668px;">7.5°</text>
            </g>
            <g transform="matrix(0.999928,0,0,1.36354,-475.536,-496.333)">
                <g transform="matrix(1.38899,-0,-0,1.38899,532.574,400.673)">
                    <path d="M231.843,19.833L233.935,24.353L234.973,19.482L231.843,19.833Z"/>
                    <path d="M231.605,16.202L233.09,11.448L234.755,16.142L231.605,16.202Z"/>
                    <path d="M233.513,20.597C233.348,18.81 233.23,17.02 233.162,15.227" style="fill:none;stroke:black;stroke-width:0.7px;stroke-linejoin:round;"/>
                </g>
            </g>
            <g transform="matrix(1.07646,2.1399e-16,2.1515e-16,1.36354,295.531,-514.218)">
                <path d="M34.377,429.569L176,429.569" style="fill:none;stroke:black;stroke-width:1px;stroke-linejoin:round;stroke-dasharray:5.01,5.01,0,0;"/>
            </g>
            <g transform="matrix(1.38889,0,0,1.89394,-2052,-63.1021)">
                <rect x="1830.33" y="181.456" width="41.713" height="5.257" style="fill:rgb(128,128,128);stroke:black;stroke-width:1.33px;"/>
            </g>
            <g transform="matrix(1.38889,0,0,1.89394,-2052,-63.1021)">
                <rect x="1837.95" y="164.042" width="27.163" height="17.414" style="fill:rgb(230,229,230);stroke:black;stroke-width:1.33px;stroke-linejoin:round;"/>
            </g>
            <g transform="matrix(1.38889,0,0,1.89394,-2099.93,-49.0688)">
                <path d="M1868.72,179.303L1885.69,133.831" style="fill:none;stroke:black;stroke-width:1.4px;stroke-linejoin:round;"/>
            </g>
            <g transform="matrix(-1.38889,0,0,1.89394,3138.1,-48.9453)">
                <path d="M1868.72,179.303L1885.69,133.831" style="fill:none;stroke:black;stroke-width:1.4px;stroke-linejoin:round;"/>
            </g>
        </g>
    </g>
</svg>
