<?xml version="1.0" encoding="UTF-8" standalone="no"?>
<!DOCTYPE svg PUBLIC "-//W3C//DTD SVG 1.1//EN" "http://www.w3.org/Graphics/SVG/1.1/DTD/svg11.dtd">
<svg width="100%" height="100%" viewBox="0 0 151 201" version="1.1" xmlns="http://www.w3.org/2000/svg" xmlns:xlink="http://www.w3.org/1999/xlink" xml:space="preserve" xmlns:serif="http://www.serif.com/" style="fill-rule:evenodd;clip-rule:evenodd;stroke-linecap:round;stroke-linejoin:round;stroke-miterlimit:1.5;">
    <g transform="matrix(1,0,0,1,-687,-161)">
        <g id="equiv_load_example_C" transform="matrix(1.25,0,0,1.17647,414.071,-433.089)">
            <rect x="218.372" y="505.31" width="120" height="170" style="fill:none;"/>
            <g transform="matrix(1,0,0,1.25,24.0561,-125.678)">
                <g transform="matrix(1,2.09541e-33,-9.86076e-33,1,-18.2369,-17.1132)">
                    <g transform="matrix(0.8,0,0,0.8,55.6743,118.062)">
                        <g transform="matrix(1,4.14511e-35,1.65805e-34,0.866815,0.371693,78.3816)">
                            <g transform="matrix(1,-2.46519e-33,8.21906e-33,0.980602,195.69,491.554)">
                                <path d="M108.885,105.118L107.31,100.393L105.735,105.118L108.885,105.118Z"/>
                                <path d="M107.31,104.173L107.31,131.178" style="fill:none;stroke:black;stroke-width:0.7px;"/>
                            </g>
                        </g>
                        <g transform="matrix(1,-5.30459e-35,-2.12184e-34,0.828482,0.371693,102.581)">
                            <g transform="matrix(1,-2.46519e-33,8.59934e-33,1.02597,195.69,485.088)">
                                <path d="M108.885,175.668L107.31,180.393L105.735,175.668L108.885,175.668Z"/>
                                <path d="M107.31,150.99L107.31,176.613" style="fill:none;stroke:black;stroke-width:0.7px;"/>
                            </g>
                        </g>
                        <g transform="matrix(1,0,0,0.85,-17.8803,162.424)">
                            <g transform="matrix(12,0,0,12,330.137,545.378)">
                            </g>
                            <text x="311.838px" y="545.378px" style="font-family:'CMUSerif-Roman', 'CMU Serif';font-weight:500;font-size:12px;">6 ft</text>
                        </g>
                    </g>
                    <g transform="matrix(0.8,0,0,0.8,55.6743,63.662)">
                        <g transform="matrix(1,4.14511e-35,1.65805e-34,0.866815,0.371693,78.3816)">
                            <g transform="matrix(1,-2.46519e-33,8.21906e-33,0.980602,195.69,570.002)">
                                <path d="M108.885,25.118L107.31,20.393L105.735,25.118L108.885,25.118Z"/>
                                <path d="M107.31,24.173L107.31,51.178" style="fill:none;stroke:black;stroke-width:0.7px;"/>
                            </g>
                        </g>
                        <g transform="matrix(1,-5.30459e-35,-2.12184e-34,0.828482,0.371693,102.581)">
                            <g transform="matrix(1,-2.46519e-33,8.59934e-33,1.02597,195.69,567.166)">
                                <path d="M108.885,95.668L107.31,100.393L105.735,95.668L108.885,95.668Z"/>
                                <path d="M107.31,70.99L107.31,96.613" style="fill:none;stroke:black;stroke-width:0.7px;"/>
                            </g>
                        </g>
                        <g transform="matrix(1,0,0,0.85,-17.8803,162.424)">
                            <g transform="matrix(12,0,0,12,330.137,545.378)">
                            </g>
                            <text x="311.838px" y="545.378px" style="font-family:'CMUSerif-Roman', 'CMU Serif';font-weight:500;font-size:12px;">6 ft</text>
                        </g>
                    </g>
                    <g transform="matrix(0.762655,7.82522e-35,3.13009e-34,0.68,66.028,79.9037)">
                        <path d="M289.927,670L318,670" style="fill:none;stroke:black;stroke-width:0.51px;"/>
                    </g>
                    <g transform="matrix(0.668046,2.76498e-34,1.10599e-33,0.68,95.5843,188.704)">
                        <path d="M285.951,670L318,670" style="fill:none;stroke:black;stroke-width:0.54px;"/>
                    </g>
                </g>
                <g transform="matrix(0.801404,1.04771e-33,-9.86076e-33,0.906667,11.5254,42.3905)">
                    <rect x="278" y="525" width="40" height="120" style="fill:rgb(230,230,230);stroke:black;stroke-width:1.13px;"/>
                </g>
                <g id="MOMENT" transform="matrix(1.50281,-1.76319e-17,-5.21393e-17,0.635256,85.6749,541.253)">
                    <g transform="matrix(0.788311,0.135922,-0.0675953,1.58516,39.9819,2.28138)">
                        <circle cx="94.845" cy="76.285" r="8.021" style="fill:none;"/>
                    </g>
                    <g transform="matrix(0.788311,0.135922,-0.0675953,1.58516,39.9854,2.28198)">
                        <g transform="matrix(0.670357,-0.0574811,0.0574811,0.670357,37.4309,-41.1248)">
                            <path d="M54.903,181.203L59.886,173.13L60.743,182.578L54.903,181.203Z" style="fill:rgb(204,1,0);"/>
                            <path d="M79.514,173.828C81.299,176.117 82.259,179.058 81.992,182.176C81.43,188.731 75.649,193.62 69.095,193.035C58.163,192.061 58.041,180.967 58.236,180.139" style="fill:none;stroke:rgb(204,1,0);stroke-width:2px;stroke-linecap:butt;"/>
                        </g>
                    </g>
                </g>
                <g transform="matrix(0.298095,0,0,0.25045,204.289,621.406)">
                    <ellipse cx="154.592" cy="23.097" rx="5.367" ry="5.43"/>
                </g>
                <g transform="matrix(0.619702,0,0,0.68,93.2505,117.191)">
                    <path d="M285.951,670L318,670" style="fill:none;stroke:black;stroke-width:0.56px;"/>
                </g>
            </g>
            <g id="MOMENT1" serif:id="MOMENT" transform="matrix(1.50281,-2.20399e-17,-5.21393e-17,0.794071,109.675,550.435)">
                <g transform="matrix(0.788311,0.135922,-0.0675953,1.58516,39.9819,2.28138)">
                    <circle cx="94.845" cy="76.285" r="8.021" style="fill:none;"/>
                </g>
                <g transform="matrix(0.788311,0.135922,-0.0675953,1.58516,39.9854,2.28198)">
                    <g transform="matrix(0.670357,-0.0574811,0.0574811,0.670357,37.5085,-40.7717)">
                        <path d="M54.833,180.671L59.815,172.598L60.673,182.046L54.833,180.671Z" style="fill:rgb(204,1,0);"/>
                        <path d="M79.443,173.295C81.229,175.584 82.189,178.526 81.922,181.643C81.36,188.199 75.579,193.087 69.025,192.503C58.093,191.528 57.97,180.434 58.165,179.606" style="fill:none;stroke:rgb(204,1,0);stroke-width:2px;stroke-linecap:butt;"/>
                    </g>
                </g>
            </g>
            <g id="MOMENT2" serif:id="MOMENT" transform="matrix(1.50281,2.20399e-17,-5.21393e-17,-0.794071,109.671,632.214)">
                <g transform="matrix(0.788311,0.135922,-0.0675953,1.58516,39.9819,2.28138)">
                    <circle cx="94.845" cy="76.285" r="8.021" style="fill:none;"/>
                </g>
                <g transform="matrix(0.788311,0.135922,-0.0675953,1.58516,39.9854,2.28198)">
                    <g transform="matrix(0.670357,-0.0574811,-0.0574811,-0.670357,49.1901,95.4274)">
                        <path d="M60.669,21.129L59.811,30.577L54.829,22.504L60.669,21.129Z" style="fill:rgb(204,1,0);"/>
                        <path d="M79.439,29.879C81.225,27.59 82.185,24.649 81.917,21.531C81.355,14.976 75.575,10.087 69.021,10.672C58.089,11.646 57.966,22.74 58.161,23.568" style="fill:none;stroke:rgb(204,1,0);stroke-width:2px;stroke-linecap:butt;"/>
                    </g>
                </g>
            </g>
            <g transform="matrix(0.298095,0,0,0.313063,228.289,515.275)">
                <ellipse cx="154.592" cy="23.097" rx="5.367" ry="5.43"/>
            </g>
            <g transform="matrix(0.8,0,0,0.85,66.7915,89.1476)">
                <path d="M285.951,670L318,670" style="fill:none;stroke:black;stroke-width:0.5px;"/>
            </g>
            <g transform="matrix(0.8,0,0,0.85,67.9717,156.81)">
                <g transform="matrix(1,-0,-0,1,187.964,409.607)">
                    <path d="M102.186,184.443L90.036,180.393L102.186,176.343L102.186,184.443Z" style="fill:rgb(204,0,0);"/>
                    <path d="M140.036,180.393L99.756,180.393" style="fill:none;stroke:rgb(204,0,0);stroke-width:2.7px;"/>
                </g>
            </g>
            <g transform="matrix(0.8,0,0,0.85,69.0713,82.5156)">
                <g transform="matrix(12,0,0,12,320.181,693.933)">
                </g>
                <text x="294.213px" y="693.933px" style="font-family:'CMUSerif-Roman', 'CMU Serif';font-weight:500;font-size:12px;">10 lb</text>
            </g>
            <g transform="matrix(0.8,0,0,0.85,-14.4019,79.7767)">
                <g transform="matrix(12,0,0,12,340.454,693.933)">
                </g>
                <text x="302.187px" y="693.933px" style="font-family:'CMUSerif-Roman', 'CMU Serif';font-weight:500;font-size:12px;">40 ft-lb</text>
            </g>
            <g transform="matrix(0.8,0,0,0.85,-14.4019,-70.5835)">
                <g transform="matrix(12,0,0,12,340.454,693.933)">
                </g>
                <text x="302.187px" y="693.933px" style="font-family:'CMUSerif-Roman', 'CMU Serif';font-weight:500;font-size:12px;">20 ft-lb</text>
            </g>
        </g>
    </g>
</svg>
