<?xml version="1.0" encoding="UTF-8" standalone="no"?>
<!DOCTYPE svg PUBLIC "-//W3C//DTD SVG 1.1//EN" "http://www.w3.org/Graphics/SVG/1.1/DTD/svg11.dtd">
<svg width="100%" height="100%" viewBox="0 0 180 199" version="1.1" xmlns="http://www.w3.org/2000/svg" xmlns:xlink="http://www.w3.org/1999/xlink" xml:space="preserve" xmlns:serif="http://www.serif.com/" style="fill-rule:evenodd;clip-rule:evenodd;stroke-linecap:round;stroke-linejoin:round;stroke-miterlimit:10;">
    <g id="example_column" transform="matrix(1.87852,0,0,0.993379,-114.865,-48.3449)">
        <rect x="61.147" y="48.667" width="95.82" height="199.934" style="fill:none;"/>
        <g transform="matrix(1,0,0,0.93341,0,16.5543)">
            <g transform="matrix(0.12776,0,0,-0.258836,30.1361,335.849)">
                <rect x="357" y="402" width="16" height="543" style="fill:rgb(210,219,233);stroke:black;stroke-width:4.2px;"/>
            </g>
            <g transform="matrix(0.12776,0,0,-0.258836,30.1361,335.849)">
                <rect x="501" y="402" width="16" height="543" style="fill:rgb(210,219,233);stroke:black;stroke-width:4.2px;"/>
            </g>
            <g transform="matrix(0.532335,0,0,1.07848,30.1361,-12.802)">
                <rect x="89.52" y="96.48" width="30.72" height="130.32" style="fill:url(#_Linear1);stroke:black;stroke-width:1.01px;"/>
            </g>
        </g>
        <g transform="matrix(1,0,0,0.93341,45.2069,16.4634)">
            <g transform="matrix(0.12776,0,0,-0.258836,30.1361,335.849)">
                <rect x="357" y="402" width="16" height="543" style="fill:rgb(210,219,233);stroke:black;stroke-width:4.2px;"/>
            </g>
            <g transform="matrix(0.12776,0,0,-0.258836,30.1361,335.849)">
                <rect x="501" y="402" width="16" height="543" style="fill:rgb(210,219,233);stroke:black;stroke-width:4.2px;"/>
            </g>
            <g transform="matrix(0.532335,0,0,1.07848,30.1361,-12.802)">
                <rect x="89.52" y="96.48" width="30.72" height="130.32" style="fill:url(#_Linear2);stroke:black;stroke-width:1.01px;"/>
            </g>
        </g>
        <g id="foundation" transform="matrix(1,0,0,0.93341,0,16.5543)">
            <g transform="matrix(0.532335,0,0,1.07848,61.1466,48.6671)">
                <rect x="12.309" y="169.714" width="68.811" height="9.284" style="fill:url(#_Linear3);"/>
            </g>
            <g transform="matrix(0.12776,0,0,-0.258836,30.1361,476.397)">
                <path d="M294,945L580,945" style="fill:none;fill-rule:nonzero;stroke:black;stroke-width:3px;"/>
            </g>
        </g>
        <g id="foundation1" serif:id="foundation" transform="matrix(1,0,0,0.93341,45.1605,16.5543)">
            <g transform="matrix(0.532335,0,0,1.07848,61.1466,48.6671)">
                <rect x="12.309" y="169.714" width="68.811" height="9.284" style="fill:url(#_Linear4);"/>
            </g>
            <g transform="matrix(0.12776,0,0,-0.258836,30.1361,476.397)">
                <path d="M294,945L580,945" style="fill:none;fill-rule:nonzero;stroke:black;stroke-width:3px;"/>
            </g>
        </g>
        <g transform="matrix(0,-0.303745,0.12776,0,55.4327,233.553)">
            <g transform="matrix(0,4.16667,-3.31417,0,608.688,44.7236)">
                <path d="M62.076,41.459L65.826,52.709L69.576,41.459L62.076,41.459Z" style="fill:rgb(204,0,0);fill-rule:nonzero;"/>
                <path d="M65.826,43.709L65.826,21.041" style="fill:none;fill-rule:nonzero;stroke:rgb(204,0,0);stroke-width:2.5px;stroke-linecap:butt;stroke-miterlimit:1.5;"/>
            </g>
        </g>
        <g transform="matrix(-2.87694e-18,-0.192043,0.12776,6.83982e-18,90.4826,185.074)">
            <g transform="matrix(1.48401e-16,4.16667,-5.24188,-1.18038e-16,710.296,-229.618)">
                <path d="M127.918,41.459L131.668,52.709L135.418,41.459L127.918,41.459Z" style="fill:rgb(204,0,0);fill-rule:nonzero;"/>
                <path d="M131.668,43.709L131.668,21.041" style="fill:none;fill-rule:nonzero;stroke:rgb(204,0,0);stroke-width:2.5px;stroke-linecap:butt;stroke-miterlimit:1.5;"/>
            </g>
        </g>
        <g transform="matrix(0,-0.2416,0.12776,0,40.6763,195.831)">
            <path d="M401.5,354.5L472.5,354.5" style="fill:none;fill-rule:nonzero;stroke:black;stroke-width:2.08px;stroke-miterlimit:1.5;"/>
        </g>
        <g transform="matrix(0.12776,0,0,-0.2416,30.1361,164.544)">
            <g transform="matrix(4.16667,0,0,-4.16667,242.724,479.622)">
                <path d="M51.351,34.094L46.626,35.669L51.351,37.244L51.351,34.094Z" style="fill-rule:nonzero;"/>
                <path d="M61.101,34.094L65.826,35.669L61.101,37.244L61.101,34.094Z" style="fill-rule:nonzero;"/>
                <path d="M50.406,35.669L62.046,35.669" style="fill:none;fill-rule:nonzero;stroke:black;stroke-width:0.7px;stroke-miterlimit:1.5;"/>
            </g>
        </g>
        <g id="surface1">
        </g>
        <g id="surface11" serif:id="surface1" transform="matrix(0.532335,0,0,1.00667,69.5703,126.09)">
            <g transform="matrix(1,0,0,1,123.756,-42.175)">
                <g transform="matrix(12,0,0,12,15.6393,10.4495)">
                </g>
                <text x="4.887px" y="10.45px" style="font-family:'CMUSerif-Italic', 'CMU Serif';font-weight:500;font-style:italic;font-size:12px;">M</text>
            </g>
            <g transform="matrix(1,0,0,1,25.9149,-72.2337)">
                <g transform="matrix(12,0,0,12,42.8561,10.4495)">
                </g>
                <text x="4.887px" y="10.45px" style="font-family:'CMUSerif-Roman', 'CMU Serif';font-weight:500;font-size:12px;">1200 lb</text>
            </g>
            <g transform="matrix(1,0,0,1,1.19816,-48.1871)">
                <g transform="matrix(12,0,0,12,24.8561,10.4495)">
                </g>
                <text x="4.887px" y="10.45px" style="font-family:'CMUSerif-Roman', 'CMU Serif';font-weight:500;font-size:12px;">9 in</text>
            </g>
            <g transform="matrix(1,0,0,1,106.256,-72.2337)">
                <g transform="matrix(12,0,0,12,13.0202,10.4495)">
                </g>
                <text x="4.887px" y="10.45px" style="font-family:'CMUSerif-Italic', 'CMU Serif';font-weight:500;font-style:italic;font-size:12px;">P</text>
            </g>
        </g>
        <g transform="matrix(0.788311,0.127825,-0.0675953,1.49072,62.0942,-21.77)">
            <g id="MOMENT">
                <g transform="matrix(0.670357,-0.0574811,0.0574811,0.670357,2.82863,47.0077)">
                    <path d="M116.502,55.352L122.73,45.261L123.802,57.071L116.502,55.352Z" style="fill:rgb(204,1,0);"/>
                    <path d="M141.945,47.71C143.731,49.999 144.691,52.941 144.424,56.058C143.862,62.614 138.081,67.502 131.527,66.918C120.595,65.943 120.472,54.849 120.667,54.021" style="fill:none;stroke:rgb(204,1,0);stroke-width:2.5px;stroke-linecap:butt;stroke-miterlimit:1.5;"/>
                </g>
            </g>
        </g>
        <g transform="matrix(1.52982,0,0,2.89295,-38.146,0.152537)">
            <g transform="matrix(1,0,0,1,36.3473,27.0533)">
                <rect x="57.146" y="22.883" width="4.715" height="1.036"/>
            </g>
            <g transform="matrix(1,0,0,1,36.3473,29.2182)">
                <rect x="57.146" y="22.883" width="4.715" height="1.036"/>
            </g>
        </g>
    </g>
    <defs>
        <linearGradient id="_Linear1" x1="0" y1="0" x2="1" y2="0" gradientUnits="userSpaceOnUse" gradientTransform="matrix(31.44,0,0,-130.8,89.52,227.28)"><stop offset="0" style="stop-color:rgb(142,148,159);stop-opacity:1"/><stop offset="1" style="stop-color:rgb(223,232,250);stop-opacity:1"/></linearGradient>
        <linearGradient id="_Linear2" x1="0" y1="0" x2="1" y2="0" gradientUnits="userSpaceOnUse" gradientTransform="matrix(31.44,0,0,-130.8,89.52,227.28)"><stop offset="0" style="stop-color:rgb(142,148,159);stop-opacity:1"/><stop offset="1" style="stop-color:rgb(223,232,250);stop-opacity:1"/></linearGradient>
        <linearGradient id="_Linear3" x1="0" y1="0" x2="1" y2="0" gradientUnits="userSpaceOnUse" gradientTransform="matrix(5.6297e-16,-9.19401,9.19401,5.6297e-16,20.449,178.998)"><stop offset="0" style="stop-color:white;stop-opacity:1"/><stop offset="1" style="stop-color:rgb(128,128,128);stop-opacity:1"/></linearGradient>
        <linearGradient id="_Linear4" x1="0" y1="0" x2="1" y2="0" gradientUnits="userSpaceOnUse" gradientTransform="matrix(5.6297e-16,-9.19401,9.19401,5.6297e-16,20.449,178.998)"><stop offset="0" style="stop-color:white;stop-opacity:1"/><stop offset="1" style="stop-color:rgb(128,128,128);stop-opacity:1"/></linearGradient>
    </defs>
</svg>
