<?xml version="1.0" encoding="UTF-8" standalone="no"?>
<!DOCTYPE svg PUBLIC "-//W3C//DTD SVG 1.1//EN" "http://www.w3.org/Graphics/SVG/1.1/DTD/svg11.dtd">
<svg width="100%" height="100%" viewBox="0 0 180 150" version="1.1" xmlns="http://www.w3.org/2000/svg" xmlns:xlink="http://www.w3.org/1999/xlink" xml:space="preserve" xmlns:serif="http://www.serif.com/" style="fill-rule:evenodd;clip-rule:evenodd;stroke-linecap:round;stroke-linejoin:round;stroke-miterlimit:1.5;">
    <g id="Ibeam-centroid" transform="matrix(1.1998,0,0,1,0,0)">
        <rect x="0" y="0" width="150" height="150" style="fill:none;"/>
        <clipPath id="_clip1">
            <rect x="0" y="0" width="150" height="150"/>
        </clipPath>
        <g clip-path="url(#_clip1)">
            <g id="surface1" transform="matrix(0.83347,0,0,1,109.607,124.388)">
                <g transform="matrix(0.529101,0,0,0.529101,-111.432,-95.7977)">
                    <path d="M9.309,8.964L214.059,8.964L214.059,40.464L135.309,40.464L135.309,182.214L214.059,182.269L214.059,213.714L9.309,213.714L9.654,182.214L103.809,182.214L103.809,40.614L9.309,40.614L9.309,8.964Z" style="fill:rgb(230,230,230);fill-rule:nonzero;stroke:black;stroke-width:2.84px;"/>
                </g>
                <g transform="matrix(0,-0.140623,0.114286,0,-103.174,-116.135)">
                    <g transform="matrix(0,8.75,-7.11122,0,58.6889,-247.91)">
                        <path d="M24.025,11.258L25,8.333L25.975,11.258L24.025,11.258Z" style="fill-rule:nonzero;"/>
                        <path d="M25,150L25,10.673" style="fill:none;fill-rule:nonzero;stroke:black;stroke-width:0.65px;"/>
                    </g>
                </g>
                <g transform="matrix(0,-0.126984,0.126984,0,-7.0465,-111.436)">
                    <path d="M-147.5,-389.5L-88.5,-389.5" style="fill:none;fill-rule:nonzero;stroke:black;stroke-width:3.97px;stroke-miterlimit:10;"/>
                </g>
                <g transform="matrix(0.141243,0,0,-0.126984,-39.8401,-148.285)">
                    <g transform="matrix(7.08,0,0,-7.875,-649,-188.187)">
                        <path d="M27.25,27.163L25,27.913L27.25,28.663L27.25,27.163Z" style="fill-rule:nonzero;"/>
                        <path d="M72.75,27.163L75,27.913L72.75,28.663L72.75,27.163Z" style="fill-rule:nonzero;"/>
                        <path d="M26.8,27.913L73.2,27.913" style="fill:none;fill-rule:nonzero;stroke:black;stroke-width:0.5px;"/>
                    </g>
                </g>
                <g transform="matrix(0,-0.126984,0.126984,0,9.62017,-96.4514)">
                    <path d="M-29.5,-389.5L29.5,-389.5" style="fill:none;fill-rule:nonzero;stroke:black;stroke-width:3.97px;stroke-miterlimit:10;"/>
                </g>
                <g transform="matrix(0.141243,0,0,-0.126984,-39.8401,-148.285)">
                    <g transform="matrix(7.08,0,0,-7.875,-649,-188.187)">
                        <path d="M77.25,27.163L75,27.913L77.25,28.663L77.25,27.163Z" style="fill-rule:nonzero;"/>
                        <path d="M89.417,27.163L91.667,27.913L89.417,28.663L89.417,27.163Z" style="fill-rule:nonzero;"/>
                        <path d="M76.8,27.913L89.867,27.913" style="fill:none;fill-rule:nonzero;stroke:black;stroke-width:0.5px;"/>
                    </g>
                </g>
                <g transform="matrix(0,-0.126984,0.126984,0,51.2868,-51.3721)">
                    <path d="M325.5,-389.5L384.5,-389.5" style="fill:none;fill-rule:nonzero;stroke:black;stroke-width:5.12px;"/>
                </g>
                <g transform="matrix(0.117371,0,0,-0.126984,-39.8401,-148.261)">
                    <g transform="matrix(8.52,0,0,-7.875,-781,-188)">
                        <path d="M93.917,27.187L91.667,27.937L93.917,28.687L93.917,27.187Z" style="fill-rule:nonzero;"/>
                        <path d="M131.083,27.187L133.333,27.937L131.083,28.687L131.083,27.187Z" style="fill-rule:nonzero;"/>
                        <path d="M93.467,27.937L131.533,27.937" style="fill:none;fill-rule:nonzero;stroke:black;stroke-width:0.5px;"/>
                    </g>
                </g>
                <g transform="matrix(0.126984,0,0,-0.126984,-42.6622,-135.372)">
                    <path d="M366,-349L437,-349" style="fill:none;fill-rule:nonzero;stroke:black;stroke-width:3.97px;stroke-miterlimit:10;"/>
                </g>
                <g transform="matrix(0.126984,0,0,-0.126984,-42.6622,-103.594)">
                    <path d="M366,-230L437,-230" style="fill:none;fill-rule:nonzero;stroke:black;stroke-width:3.97px;stroke-miterlimit:10;"/>
                </g>
                <g transform="matrix(0.126984,0,0,-0.126984,-42.6622,-28.5784)">
                    <path d="M366,-230L437,-230" style="fill:none;fill-rule:nonzero;stroke:black;stroke-width:3.97px;stroke-miterlimit:10;"/>
                </g>
                <g transform="matrix(0,0.139145,-0.126984,0,-26.6021,-142.051)">
                    <g transform="matrix(0,-7.875,7.18677,0,126.941,826.125)">
                        <path d="M142.417,35.583L141.667,33.333L140.917,35.583L142.417,35.583Z" style="fill-rule:nonzero;"/>
                        <path d="M142.417,47.642L141.667,49.892L140.917,47.642L142.417,47.642Z" style="fill-rule:nonzero;"/>
                        <path d="M141.667,35.133L141.667,48.092" style="fill:none;fill-rule:nonzero;stroke:black;stroke-width:0.5px;"/>
                    </g>
                </g>
                <g transform="matrix(0,0.126984,-0.126984,0,18.4138,-90.9144)">
                    <g transform="matrix(0,-7.875,7.875,0,-263.604,1180.63)">
                        <path d="M142.417,52.358L141.667,50.108L140.917,52.358L142.417,52.358Z" style="fill-rule:nonzero;"/>
                        <path d="M142.417,122.779L141.667,125.029L140.917,122.779L142.417,122.779Z" style="fill-rule:nonzero;"/>
                        <path d="M141.667,51.908L141.667,123.229" style="fill:none;fill-rule:nonzero;stroke:black;stroke-width:0.5px;"/>
                    </g>
                </g>
                <g transform="matrix(4.96767,0,0,0.725975,-350.155,-270.195)">
                    <rect x="52.04" y="218.64" width="4.32" height="10.32" style="fill:white;"/>
                    <g transform="matrix(0.201302,0,0,1.37746,40.4309,214.574)">
                        <g transform="matrix(10,0,0,10,57.6699,9.95184)">
                            <path d="M0.042,-0.135C0.042,-0.155 0.048,-0.169 0.059,-0.179C0.07,-0.188 0.083,-0.193 0.098,-0.193C0.113,-0.193 0.127,-0.188 0.137,-0.178C0.148,-0.168 0.154,-0.154 0.154,-0.137C0.154,-0.119 0.147,-0.104 0.135,-0.094C0.122,-0.083 0.106,-0.079 0.088,-0.082C0.104,-0.055 0.127,-0.036 0.156,-0.024C0.185,-0.012 0.214,-0.006 0.241,-0.006C0.27,-0.006 0.296,-0.018 0.319,-0.043C0.342,-0.068 0.354,-0.11 0.354,-0.171C0.354,-0.222 0.344,-0.263 0.324,-0.292C0.304,-0.322 0.274,-0.337 0.235,-0.337L0.191,-0.337C0.181,-0.337 0.174,-0.337 0.171,-0.338C0.168,-0.339 0.167,-0.343 0.167,-0.348C0.167,-0.355 0.172,-0.359 0.182,-0.36C0.192,-0.36 0.205,-0.361 0.221,-0.363C0.26,-0.364 0.29,-0.382 0.31,-0.415C0.329,-0.446 0.338,-0.484 0.338,-0.529C0.338,-0.569 0.328,-0.598 0.309,-0.615C0.289,-0.633 0.267,-0.641 0.242,-0.641C0.219,-0.641 0.194,-0.636 0.168,-0.626C0.143,-0.617 0.123,-0.601 0.109,-0.579C0.15,-0.579 0.171,-0.562 0.171,-0.529C0.171,-0.514 0.166,-0.502 0.157,-0.492C0.148,-0.483 0.135,-0.478 0.12,-0.478C0.105,-0.478 0.093,-0.483 0.083,-0.492C0.074,-0.501 0.069,-0.514 0.069,-0.53C0.069,-0.568 0.086,-0.6 0.12,-0.626C0.154,-0.653 0.196,-0.666 0.246,-0.666C0.296,-0.666 0.339,-0.653 0.375,-0.627C0.412,-0.601 0.43,-0.568 0.43,-0.528C0.43,-0.488 0.417,-0.453 0.391,-0.42C0.365,-0.388 0.331,-0.365 0.29,-0.352C0.341,-0.342 0.381,-0.32 0.412,-0.285C0.442,-0.251 0.457,-0.213 0.457,-0.171C0.457,-0.119 0.437,-0.074 0.396,-0.035C0.354,0.003 0.304,0.022 0.244,0.022C0.189,0.022 0.141,0.007 0.102,-0.023C0.062,-0.053 0.042,-0.09 0.042,-0.135Z" style="fill-rule:nonzero;"/>
                        </g>
                        <g transform="matrix(10,0,0,10,65.9951,9.95184)">
                            <path d="M0.098,-0.055C0.055,-0.099 0.034,-0.153 0.034,-0.216C0.034,-0.279 0.055,-0.334 0.097,-0.38C0.138,-0.425 0.19,-0.448 0.251,-0.448C0.292,-0.448 0.327,-0.439 0.358,-0.419C0.389,-0.4 0.404,-0.374 0.404,-0.341C0.404,-0.326 0.399,-0.315 0.391,-0.306C0.382,-0.298 0.371,-0.294 0.358,-0.294C0.344,-0.294 0.333,-0.298 0.324,-0.307C0.316,-0.316 0.312,-0.326 0.312,-0.34C0.312,-0.346 0.313,-0.352 0.315,-0.357C0.317,-0.363 0.322,-0.369 0.329,-0.375C0.336,-0.382 0.346,-0.385 0.359,-0.386C0.335,-0.411 0.3,-0.423 0.254,-0.423L0.252,-0.423C0.218,-0.423 0.187,-0.407 0.159,-0.375C0.131,-0.343 0.117,-0.291 0.117,-0.218C0.117,-0.18 0.122,-0.147 0.131,-0.119C0.14,-0.091 0.153,-0.07 0.168,-0.056C0.183,-0.041 0.198,-0.031 0.213,-0.024C0.228,-0.017 0.243,-0.014 0.258,-0.014C0.323,-0.014 0.367,-0.049 0.389,-0.119C0.391,-0.126 0.395,-0.129 0.402,-0.129C0.411,-0.129 0.415,-0.126 0.415,-0.119C0.415,-0.116 0.414,-0.11 0.411,-0.102C0.409,-0.093 0.403,-0.082 0.395,-0.069C0.387,-0.056 0.377,-0.043 0.365,-0.031C0.354,-0.02 0.338,-0.01 0.318,-0.001C0.297,0.007 0.274,0.011 0.249,0.011C0.19,0.011 0.14,-0.011 0.098,-0.055Z" style="fill-rule:nonzero;"/>
                        </g>
                        <g transform="matrix(10,0,0,10,70.4336,9.95184)">
                            <path d="M0.032,-0L0.032,-0.031C0.068,-0.031 0.09,-0.033 0.098,-0.037C0.106,-0.042 0.11,-0.055 0.11,-0.076L0.11,-0.344C0.11,-0.369 0.106,-0.384 0.097,-0.391C0.088,-0.397 0.067,-0.4 0.032,-0.4L0.032,-0.431L0.173,-0.442L0.173,-0.337C0.204,-0.407 0.253,-0.442 0.321,-0.442C0.399,-0.442 0.443,-0.409 0.454,-0.344C0.465,-0.37 0.483,-0.392 0.507,-0.412C0.531,-0.432 0.562,-0.442 0.599,-0.442C0.649,-0.442 0.684,-0.43 0.704,-0.405C0.719,-0.388 0.728,-0.371 0.73,-0.352C0.733,-0.333 0.735,-0.3 0.735,-0.252L0.735,-0.061C0.736,-0.047 0.741,-0.038 0.752,-0.035C0.763,-0.032 0.783,-0.031 0.813,-0.031L0.813,-0C0.745,-0.002 0.708,-0.003 0.701,-0.003C0.696,-0.003 0.658,-0.002 0.588,-0L0.588,-0.031C0.623,-0.031 0.645,-0.033 0.654,-0.037C0.662,-0.042 0.666,-0.055 0.666,-0.076L0.666,-0.309C0.666,-0.343 0.661,-0.37 0.65,-0.39C0.64,-0.41 0.62,-0.42 0.592,-0.42C0.557,-0.42 0.526,-0.405 0.499,-0.376C0.471,-0.347 0.457,-0.309 0.457,-0.26L0.457,-0.076C0.457,-0.055 0.461,-0.042 0.469,-0.037C0.478,-0.033 0.5,-0.031 0.535,-0.031L0.535,-0C0.467,-0.002 0.43,-0.003 0.423,-0.003C0.418,-0.003 0.38,-0.002 0.31,-0L0.31,-0.031C0.346,-0.031 0.367,-0.033 0.376,-0.037C0.384,-0.042 0.388,-0.055 0.388,-0.076L0.388,-0.309C0.388,-0.343 0.383,-0.37 0.373,-0.39C0.362,-0.41 0.343,-0.42 0.314,-0.42C0.279,-0.42 0.248,-0.405 0.221,-0.376C0.193,-0.347 0.179,-0.309 0.179,-0.26L0.179,-0.076C0.179,-0.055 0.183,-0.042 0.192,-0.037C0.2,-0.033 0.222,-0.031 0.257,-0.031L0.257,-0C0.189,-0.002 0.152,-0.003 0.145,-0.003C0.14,-0.003 0.102,-0.002 0.032,-0Z" style="fill-rule:nonzero;"/>
                        </g>
                    </g>
                </g>
                <g transform="matrix(4.96767,0,0,0.725975,-284.687,-270.195)">
                    <rect x="52.04" y="218.64" width="4.32" height="10.32" style="fill:white;"/>
                    <g transform="matrix(0.201302,0,0,1.37746,40.4309,214.574)">
                        <g transform="matrix(10,0,0,10,57.6699,9.95184)">
                            <path d="M0.042,-0.135C0.042,-0.155 0.048,-0.169 0.059,-0.179C0.07,-0.188 0.083,-0.193 0.098,-0.193C0.113,-0.193 0.127,-0.188 0.137,-0.178C0.148,-0.168 0.154,-0.154 0.154,-0.137C0.154,-0.119 0.147,-0.104 0.135,-0.094C0.122,-0.083 0.106,-0.079 0.088,-0.082C0.104,-0.055 0.127,-0.036 0.156,-0.024C0.185,-0.012 0.214,-0.006 0.241,-0.006C0.27,-0.006 0.296,-0.018 0.319,-0.043C0.342,-0.068 0.354,-0.11 0.354,-0.171C0.354,-0.222 0.344,-0.263 0.324,-0.292C0.304,-0.322 0.274,-0.337 0.235,-0.337L0.191,-0.337C0.181,-0.337 0.174,-0.337 0.171,-0.338C0.168,-0.339 0.167,-0.343 0.167,-0.348C0.167,-0.355 0.172,-0.359 0.182,-0.36C0.192,-0.36 0.205,-0.361 0.221,-0.363C0.26,-0.364 0.29,-0.382 0.31,-0.415C0.329,-0.446 0.338,-0.484 0.338,-0.529C0.338,-0.569 0.328,-0.598 0.309,-0.615C0.289,-0.633 0.267,-0.641 0.242,-0.641C0.219,-0.641 0.194,-0.636 0.168,-0.626C0.143,-0.617 0.123,-0.601 0.109,-0.579C0.15,-0.579 0.171,-0.562 0.171,-0.529C0.171,-0.514 0.166,-0.502 0.157,-0.492C0.148,-0.483 0.135,-0.478 0.12,-0.478C0.105,-0.478 0.093,-0.483 0.083,-0.492C0.074,-0.501 0.069,-0.514 0.069,-0.53C0.069,-0.568 0.086,-0.6 0.12,-0.626C0.154,-0.653 0.196,-0.666 0.246,-0.666C0.296,-0.666 0.339,-0.653 0.375,-0.627C0.412,-0.601 0.43,-0.568 0.43,-0.528C0.43,-0.488 0.417,-0.453 0.391,-0.42C0.365,-0.388 0.331,-0.365 0.29,-0.352C0.341,-0.342 0.381,-0.32 0.412,-0.285C0.442,-0.251 0.457,-0.213 0.457,-0.171C0.457,-0.119 0.437,-0.074 0.396,-0.035C0.354,0.003 0.304,0.022 0.244,0.022C0.189,0.022 0.141,0.007 0.102,-0.023C0.062,-0.053 0.042,-0.09 0.042,-0.135Z" style="fill-rule:nonzero;"/>
                        </g>
                        <g transform="matrix(10,0,0,10,65.9951,9.95184)">
                            <path d="M0.098,-0.055C0.055,-0.099 0.034,-0.153 0.034,-0.216C0.034,-0.279 0.055,-0.334 0.097,-0.38C0.138,-0.425 0.19,-0.448 0.251,-0.448C0.292,-0.448 0.327,-0.439 0.358,-0.419C0.389,-0.4 0.404,-0.374 0.404,-0.341C0.404,-0.326 0.399,-0.315 0.391,-0.306C0.382,-0.298 0.371,-0.294 0.358,-0.294C0.344,-0.294 0.333,-0.298 0.324,-0.307C0.316,-0.316 0.312,-0.326 0.312,-0.34C0.312,-0.346 0.313,-0.352 0.315,-0.357C0.317,-0.363 0.322,-0.369 0.329,-0.375C0.336,-0.382 0.346,-0.385 0.359,-0.386C0.335,-0.411 0.3,-0.423 0.254,-0.423L0.252,-0.423C0.218,-0.423 0.187,-0.407 0.159,-0.375C0.131,-0.343 0.117,-0.291 0.117,-0.218C0.117,-0.18 0.122,-0.147 0.131,-0.119C0.14,-0.091 0.153,-0.07 0.168,-0.056C0.183,-0.041 0.198,-0.031 0.213,-0.024C0.228,-0.017 0.243,-0.014 0.258,-0.014C0.323,-0.014 0.367,-0.049 0.389,-0.119C0.391,-0.126 0.395,-0.129 0.402,-0.129C0.411,-0.129 0.415,-0.126 0.415,-0.119C0.415,-0.116 0.414,-0.11 0.411,-0.102C0.409,-0.093 0.403,-0.082 0.395,-0.069C0.387,-0.056 0.377,-0.043 0.365,-0.031C0.354,-0.02 0.338,-0.01 0.318,-0.001C0.297,0.007 0.274,0.011 0.249,0.011C0.19,0.011 0.14,-0.011 0.098,-0.055Z" style="fill-rule:nonzero;"/>
                        </g>
                        <g transform="matrix(10,0,0,10,70.4336,9.95184)">
                            <path d="M0.032,-0L0.032,-0.031C0.068,-0.031 0.09,-0.033 0.098,-0.037C0.106,-0.042 0.11,-0.055 0.11,-0.076L0.11,-0.344C0.11,-0.369 0.106,-0.384 0.097,-0.391C0.088,-0.397 0.067,-0.4 0.032,-0.4L0.032,-0.431L0.173,-0.442L0.173,-0.337C0.204,-0.407 0.253,-0.442 0.321,-0.442C0.399,-0.442 0.443,-0.409 0.454,-0.344C0.465,-0.37 0.483,-0.392 0.507,-0.412C0.531,-0.432 0.562,-0.442 0.599,-0.442C0.649,-0.442 0.684,-0.43 0.704,-0.405C0.719,-0.388 0.728,-0.371 0.73,-0.352C0.733,-0.333 0.735,-0.3 0.735,-0.252L0.735,-0.061C0.736,-0.047 0.741,-0.038 0.752,-0.035C0.763,-0.032 0.783,-0.031 0.813,-0.031L0.813,-0C0.745,-0.002 0.708,-0.003 0.701,-0.003C0.696,-0.003 0.658,-0.002 0.588,-0L0.588,-0.031C0.623,-0.031 0.645,-0.033 0.654,-0.037C0.662,-0.042 0.666,-0.055 0.666,-0.076L0.666,-0.309C0.666,-0.343 0.661,-0.37 0.65,-0.39C0.64,-0.41 0.62,-0.42 0.592,-0.42C0.557,-0.42 0.526,-0.405 0.499,-0.376C0.471,-0.347 0.457,-0.309 0.457,-0.26L0.457,-0.076C0.457,-0.055 0.461,-0.042 0.469,-0.037C0.478,-0.033 0.5,-0.031 0.535,-0.031L0.535,-0C0.467,-0.002 0.43,-0.003 0.423,-0.003C0.418,-0.003 0.38,-0.002 0.31,-0L0.31,-0.031C0.346,-0.031 0.367,-0.033 0.376,-0.037C0.384,-0.042 0.388,-0.055 0.388,-0.076L0.388,-0.309C0.388,-0.343 0.383,-0.37 0.373,-0.39C0.362,-0.41 0.343,-0.42 0.314,-0.42C0.279,-0.42 0.248,-0.405 0.221,-0.376C0.193,-0.347 0.179,-0.309 0.179,-0.26L0.179,-0.076C0.179,-0.055 0.183,-0.042 0.192,-0.037C0.2,-0.033 0.222,-0.031 0.257,-0.031L0.257,-0C0.189,-0.002 0.152,-0.003 0.145,-0.003C0.14,-0.003 0.102,-0.002 0.032,-0Z" style="fill-rule:nonzero;"/>
                        </g>
                    </g>
                </g>
                <g transform="matrix(4.96767,0,0,0.682961,-317.421,-260.79)">
                    <rect x="52.04" y="218.64" width="4.32" height="10.32" style="fill:white;"/>
                    <clipPath id="_clip2">
                        <rect x="52.04" y="218.64" width="4.32" height="10.32"/>
                    </clipPath>
                    <g clip-path="url(#_clip2)">
                        <g transform="matrix(0.201302,0,0,1.46421,40.4309,214.318)">
                            <g transform="matrix(10,0,0,10,57.6699,9.95184)">
                                <path d="M0.089,-0.571L0.089,-0.602C0.169,-0.602 0.23,-0.623 0.271,-0.666C0.282,-0.666 0.289,-0.665 0.291,-0.662C0.293,-0.66 0.294,-0.652 0.294,-0.64L0.294,-0.079C0.294,-0.059 0.299,-0.046 0.309,-0.04C0.318,-0.034 0.345,-0.031 0.387,-0.031L0.419,-0.031L0.419,-0C0.396,-0.002 0.341,-0.003 0.257,-0.003C0.172,-0.003 0.118,-0.002 0.095,-0L0.095,-0.031L0.127,-0.031C0.169,-0.031 0.195,-0.034 0.205,-0.04C0.215,-0.046 0.22,-0.059 0.22,-0.079L0.22,-0.597C0.185,-0.58 0.142,-0.571 0.089,-0.571Z" style="fill-rule:nonzero;"/>
                            </g>
                            <g transform="matrix(10,0,0,10,65.9951,9.95184)">
                                <path d="M0.098,-0.055C0.055,-0.099 0.034,-0.153 0.034,-0.216C0.034,-0.279 0.055,-0.334 0.097,-0.38C0.138,-0.425 0.19,-0.448 0.251,-0.448C0.292,-0.448 0.327,-0.439 0.358,-0.419C0.389,-0.4 0.404,-0.374 0.404,-0.341C0.404,-0.326 0.399,-0.315 0.391,-0.306C0.382,-0.298 0.371,-0.294 0.358,-0.294C0.344,-0.294 0.333,-0.298 0.324,-0.307C0.316,-0.316 0.312,-0.326 0.312,-0.34C0.312,-0.346 0.313,-0.352 0.315,-0.357C0.317,-0.363 0.322,-0.369 0.329,-0.375C0.336,-0.382 0.346,-0.385 0.359,-0.386C0.335,-0.411 0.3,-0.423 0.254,-0.423L0.252,-0.423C0.218,-0.423 0.187,-0.407 0.159,-0.375C0.131,-0.343 0.117,-0.291 0.117,-0.218C0.117,-0.18 0.122,-0.147 0.131,-0.119C0.14,-0.091 0.153,-0.07 0.168,-0.056C0.183,-0.041 0.198,-0.031 0.213,-0.024C0.228,-0.017 0.243,-0.014 0.258,-0.014C0.323,-0.014 0.367,-0.049 0.389,-0.119C0.391,-0.126 0.395,-0.129 0.402,-0.129C0.411,-0.129 0.415,-0.126 0.415,-0.119C0.415,-0.116 0.414,-0.11 0.411,-0.102C0.409,-0.093 0.403,-0.082 0.395,-0.069C0.387,-0.056 0.377,-0.043 0.365,-0.031C0.354,-0.02 0.338,-0.01 0.318,-0.001C0.297,0.007 0.274,0.011 0.249,0.011C0.19,0.011 0.14,-0.011 0.098,-0.055Z" style="fill-rule:nonzero;"/>
                            </g>
                            <g transform="matrix(10,0,0,10,70.4336,9.95184)">
                                <path d="M0.032,-0L0.032,-0.031C0.068,-0.031 0.09,-0.033 0.098,-0.037C0.106,-0.042 0.11,-0.055 0.11,-0.076L0.11,-0.344C0.11,-0.369 0.106,-0.384 0.097,-0.391C0.088,-0.397 0.067,-0.4 0.032,-0.4L0.032,-0.431L0.173,-0.442L0.173,-0.337C0.204,-0.407 0.253,-0.442 0.321,-0.442C0.399,-0.442 0.443,-0.409 0.454,-0.344C0.465,-0.37 0.483,-0.392 0.507,-0.412C0.531,-0.432 0.562,-0.442 0.599,-0.442C0.649,-0.442 0.684,-0.43 0.704,-0.405C0.719,-0.388 0.728,-0.371 0.73,-0.352C0.733,-0.333 0.735,-0.3 0.735,-0.252L0.735,-0.061C0.736,-0.047 0.741,-0.038 0.752,-0.035C0.763,-0.032 0.783,-0.031 0.813,-0.031L0.813,-0C0.745,-0.002 0.708,-0.003 0.701,-0.003C0.696,-0.003 0.658,-0.002 0.588,-0L0.588,-0.031C0.623,-0.031 0.645,-0.033 0.654,-0.037C0.662,-0.042 0.666,-0.055 0.666,-0.076L0.666,-0.309C0.666,-0.343 0.661,-0.37 0.65,-0.39C0.64,-0.41 0.62,-0.42 0.592,-0.42C0.557,-0.42 0.526,-0.405 0.499,-0.376C0.471,-0.347 0.457,-0.309 0.457,-0.26L0.457,-0.076C0.457,-0.055 0.461,-0.042 0.469,-0.037C0.478,-0.033 0.5,-0.031 0.535,-0.031L0.535,-0C0.467,-0.002 0.43,-0.003 0.423,-0.003C0.418,-0.003 0.38,-0.002 0.31,-0L0.31,-0.031C0.346,-0.031 0.367,-0.033 0.376,-0.037C0.384,-0.042 0.388,-0.055 0.388,-0.076L0.388,-0.309C0.388,-0.343 0.383,-0.37 0.373,-0.39C0.362,-0.41 0.343,-0.42 0.314,-0.42C0.279,-0.42 0.248,-0.405 0.221,-0.376C0.193,-0.347 0.179,-0.309 0.179,-0.26L0.179,-0.076C0.179,-0.055 0.183,-0.042 0.192,-0.037C0.2,-0.033 0.222,-0.031 0.257,-0.031L0.257,-0C0.189,-0.002 0.152,-0.003 0.145,-0.003C0.14,-0.003 0.102,-0.002 0.032,-0Z" style="fill-rule:nonzero;"/>
                            </g>
                        </g>
                    </g>
                </g>
                <g transform="matrix(4.96767,0,0,0.725975,-242.421,-245.195)">
                    <rect x="52.04" y="218.64" width="4.32" height="10.32" style="fill:white;"/>
                    <g transform="matrix(0.201302,0,0,1.37746,40.4309,214.574)">
                        <g transform="matrix(10,0,0,10,57.6699,9.95184)">
                            <path d="M0.089,-0.571L0.089,-0.602C0.169,-0.602 0.23,-0.623 0.271,-0.666C0.282,-0.666 0.289,-0.665 0.291,-0.662C0.293,-0.66 0.294,-0.652 0.294,-0.64L0.294,-0.079C0.294,-0.059 0.299,-0.046 0.309,-0.04C0.318,-0.034 0.345,-0.031 0.387,-0.031L0.419,-0.031L0.419,-0C0.396,-0.002 0.341,-0.003 0.257,-0.003C0.172,-0.003 0.118,-0.002 0.095,-0L0.095,-0.031L0.127,-0.031C0.169,-0.031 0.195,-0.034 0.205,-0.04C0.215,-0.046 0.22,-0.059 0.22,-0.079L0.22,-0.597C0.185,-0.58 0.142,-0.571 0.089,-0.571Z" style="fill-rule:nonzero;"/>
                        </g>
                        <g transform="matrix(10,0,0,10,65.9951,9.95184)">
                            <path d="M0.098,-0.055C0.055,-0.099 0.034,-0.153 0.034,-0.216C0.034,-0.279 0.055,-0.334 0.097,-0.38C0.138,-0.425 0.19,-0.448 0.251,-0.448C0.292,-0.448 0.327,-0.439 0.358,-0.419C0.389,-0.4 0.404,-0.374 0.404,-0.341C0.404,-0.326 0.399,-0.315 0.391,-0.306C0.382,-0.298 0.371,-0.294 0.358,-0.294C0.344,-0.294 0.333,-0.298 0.324,-0.307C0.316,-0.316 0.312,-0.326 0.312,-0.34C0.312,-0.346 0.313,-0.352 0.315,-0.357C0.317,-0.363 0.322,-0.369 0.329,-0.375C0.336,-0.382 0.346,-0.385 0.359,-0.386C0.335,-0.411 0.3,-0.423 0.254,-0.423L0.252,-0.423C0.218,-0.423 0.187,-0.407 0.159,-0.375C0.131,-0.343 0.117,-0.291 0.117,-0.218C0.117,-0.18 0.122,-0.147 0.131,-0.119C0.14,-0.091 0.153,-0.07 0.168,-0.056C0.183,-0.041 0.198,-0.031 0.213,-0.024C0.228,-0.017 0.243,-0.014 0.258,-0.014C0.323,-0.014 0.367,-0.049 0.389,-0.119C0.391,-0.126 0.395,-0.129 0.402,-0.129C0.411,-0.129 0.415,-0.126 0.415,-0.119C0.415,-0.116 0.414,-0.11 0.411,-0.102C0.409,-0.093 0.403,-0.082 0.395,-0.069C0.387,-0.056 0.377,-0.043 0.365,-0.031C0.354,-0.02 0.338,-0.01 0.318,-0.001C0.297,0.007 0.274,0.011 0.249,0.011C0.19,0.011 0.14,-0.011 0.098,-0.055Z" style="fill-rule:nonzero;"/>
                        </g>
                        <g transform="matrix(10,0,0,10,70.4336,9.95184)">
                            <path d="M0.032,-0L0.032,-0.031C0.068,-0.031 0.09,-0.033 0.098,-0.037C0.106,-0.042 0.11,-0.055 0.11,-0.076L0.11,-0.344C0.11,-0.369 0.106,-0.384 0.097,-0.391C0.088,-0.397 0.067,-0.4 0.032,-0.4L0.032,-0.431L0.173,-0.442L0.173,-0.337C0.204,-0.407 0.253,-0.442 0.321,-0.442C0.399,-0.442 0.443,-0.409 0.454,-0.344C0.465,-0.37 0.483,-0.392 0.507,-0.412C0.531,-0.432 0.562,-0.442 0.599,-0.442C0.649,-0.442 0.684,-0.43 0.704,-0.405C0.719,-0.388 0.728,-0.371 0.73,-0.352C0.733,-0.333 0.735,-0.3 0.735,-0.252L0.735,-0.061C0.736,-0.047 0.741,-0.038 0.752,-0.035C0.763,-0.032 0.783,-0.031 0.813,-0.031L0.813,-0C0.745,-0.002 0.708,-0.003 0.701,-0.003C0.696,-0.003 0.658,-0.002 0.588,-0L0.588,-0.031C0.623,-0.031 0.645,-0.033 0.654,-0.037C0.662,-0.042 0.666,-0.055 0.666,-0.076L0.666,-0.309C0.666,-0.343 0.661,-0.37 0.65,-0.39C0.64,-0.41 0.62,-0.42 0.592,-0.42C0.557,-0.42 0.526,-0.405 0.499,-0.376C0.471,-0.347 0.457,-0.309 0.457,-0.26L0.457,-0.076C0.457,-0.055 0.461,-0.042 0.469,-0.037C0.478,-0.033 0.5,-0.031 0.535,-0.031L0.535,-0C0.467,-0.002 0.43,-0.003 0.423,-0.003C0.418,-0.003 0.38,-0.002 0.31,-0L0.31,-0.031C0.346,-0.031 0.367,-0.033 0.376,-0.037C0.384,-0.042 0.388,-0.055 0.388,-0.076L0.388,-0.309C0.388,-0.343 0.383,-0.37 0.373,-0.39C0.362,-0.41 0.343,-0.42 0.314,-0.42C0.279,-0.42 0.248,-0.405 0.221,-0.376C0.193,-0.347 0.179,-0.309 0.179,-0.26L0.179,-0.076C0.179,-0.055 0.183,-0.042 0.192,-0.037C0.2,-0.033 0.222,-0.031 0.257,-0.031L0.257,-0C0.189,-0.002 0.152,-0.003 0.145,-0.003C0.14,-0.003 0.102,-0.002 0.032,-0Z" style="fill-rule:nonzero;"/>
                        </g>
                    </g>
                </g>
                <g transform="matrix(4.96767,0,0,0.725975,-242.421,-203.038)">
                    <rect x="52.04" y="218.64" width="4.32" height="10.32" style="fill:white;"/>
                    <g transform="matrix(0.201302,0,0,1.37746,40.4309,214.574)">
                        <g transform="matrix(10,0,0,10,57.6699,9.95184)">
                            <path d="M0.05,-0.161C0.05,-0.181 0.055,-0.195 0.066,-0.202C0.077,-0.21 0.088,-0.214 0.099,-0.214C0.114,-0.214 0.127,-0.209 0.135,-0.199C0.144,-0.19 0.149,-0.178 0.149,-0.165C0.149,-0.152 0.144,-0.14 0.135,-0.131C0.127,-0.121 0.114,-0.116 0.099,-0.116C0.092,-0.116 0.086,-0.117 0.082,-0.118C0.091,-0.088 0.109,-0.061 0.135,-0.039C0.162,-0.017 0.194,-0.006 0.229,-0.006C0.274,-0.006 0.309,-0.028 0.336,-0.071C0.352,-0.099 0.36,-0.145 0.36,-0.208C0.36,-0.264 0.354,-0.306 0.342,-0.334C0.323,-0.377 0.295,-0.398 0.257,-0.398C0.203,-0.398 0.16,-0.375 0.128,-0.328C0.124,-0.322 0.12,-0.319 0.115,-0.319C0.109,-0.319 0.105,-0.321 0.103,-0.324C0.102,-0.328 0.101,-0.335 0.101,-0.345L0.101,-0.641C0.101,-0.657 0.104,-0.665 0.111,-0.665C0.113,-0.665 0.118,-0.664 0.123,-0.662C0.165,-0.644 0.209,-0.634 0.256,-0.634C0.304,-0.634 0.349,-0.644 0.392,-0.663C0.395,-0.665 0.398,-0.666 0.4,-0.666C0.406,-0.666 0.41,-0.662 0.41,-0.655C0.41,-0.652 0.407,-0.647 0.402,-0.639C0.397,-0.632 0.388,-0.623 0.377,-0.613C0.366,-0.603 0.353,-0.593 0.338,-0.584C0.323,-0.575 0.305,-0.567 0.284,-0.56C0.263,-0.554 0.24,-0.551 0.217,-0.551C0.189,-0.551 0.16,-0.555 0.132,-0.564L0.132,-0.369C0.166,-0.403 0.209,-0.42 0.259,-0.42C0.312,-0.42 0.357,-0.398 0.394,-0.355C0.431,-0.313 0.449,-0.261 0.449,-0.201C0.449,-0.138 0.427,-0.085 0.384,-0.042C0.341,0 0.29,0.022 0.231,0.022C0.178,0.022 0.134,0.003 0.1,-0.035C0.067,-0.073 0.05,-0.115 0.05,-0.161Z" style="fill-rule:nonzero;"/>
                        </g>
                        <g transform="matrix(10,0,0,10,65.9951,9.95184)">
                            <path d="M0.098,-0.055C0.055,-0.099 0.034,-0.153 0.034,-0.216C0.034,-0.279 0.055,-0.334 0.097,-0.38C0.138,-0.425 0.19,-0.448 0.251,-0.448C0.292,-0.448 0.327,-0.439 0.358,-0.419C0.389,-0.4 0.404,-0.374 0.404,-0.341C0.404,-0.326 0.399,-0.315 0.391,-0.306C0.382,-0.298 0.371,-0.294 0.358,-0.294C0.344,-0.294 0.333,-0.298 0.324,-0.307C0.316,-0.316 0.312,-0.326 0.312,-0.34C0.312,-0.346 0.313,-0.352 0.315,-0.357C0.317,-0.363 0.322,-0.369 0.329,-0.375C0.336,-0.382 0.346,-0.385 0.359,-0.386C0.335,-0.411 0.3,-0.423 0.254,-0.423L0.252,-0.423C0.218,-0.423 0.187,-0.407 0.159,-0.375C0.131,-0.343 0.117,-0.291 0.117,-0.218C0.117,-0.18 0.122,-0.147 0.131,-0.119C0.14,-0.091 0.153,-0.07 0.168,-0.056C0.183,-0.041 0.198,-0.031 0.213,-0.024C0.228,-0.017 0.243,-0.014 0.258,-0.014C0.323,-0.014 0.367,-0.049 0.389,-0.119C0.391,-0.126 0.395,-0.129 0.402,-0.129C0.411,-0.129 0.415,-0.126 0.415,-0.119C0.415,-0.116 0.414,-0.11 0.411,-0.102C0.409,-0.093 0.403,-0.082 0.395,-0.069C0.387,-0.056 0.377,-0.043 0.365,-0.031C0.354,-0.02 0.338,-0.01 0.318,-0.001C0.297,0.007 0.274,0.011 0.249,0.011C0.19,0.011 0.14,-0.011 0.098,-0.055Z" style="fill-rule:nonzero;"/>
                        </g>
                        <g transform="matrix(10,0,0,10,70.4336,9.95184)">
                            <path d="M0.032,-0L0.032,-0.031C0.068,-0.031 0.09,-0.033 0.098,-0.037C0.106,-0.042 0.11,-0.055 0.11,-0.076L0.11,-0.344C0.11,-0.369 0.106,-0.384 0.097,-0.391C0.088,-0.397 0.067,-0.4 0.032,-0.4L0.032,-0.431L0.173,-0.442L0.173,-0.337C0.204,-0.407 0.253,-0.442 0.321,-0.442C0.399,-0.442 0.443,-0.409 0.454,-0.344C0.465,-0.37 0.483,-0.392 0.507,-0.412C0.531,-0.432 0.562,-0.442 0.599,-0.442C0.649,-0.442 0.684,-0.43 0.704,-0.405C0.719,-0.388 0.728,-0.371 0.73,-0.352C0.733,-0.333 0.735,-0.3 0.735,-0.252L0.735,-0.061C0.736,-0.047 0.741,-0.038 0.752,-0.035C0.763,-0.032 0.783,-0.031 0.813,-0.031L0.813,-0C0.745,-0.002 0.708,-0.003 0.701,-0.003C0.696,-0.003 0.658,-0.002 0.588,-0L0.588,-0.031C0.623,-0.031 0.645,-0.033 0.654,-0.037C0.662,-0.042 0.666,-0.055 0.666,-0.076L0.666,-0.309C0.666,-0.343 0.661,-0.37 0.65,-0.39C0.64,-0.41 0.62,-0.42 0.592,-0.42C0.557,-0.42 0.526,-0.405 0.499,-0.376C0.471,-0.347 0.457,-0.309 0.457,-0.26L0.457,-0.076C0.457,-0.055 0.461,-0.042 0.469,-0.037C0.478,-0.033 0.5,-0.031 0.535,-0.031L0.535,-0C0.467,-0.002 0.43,-0.003 0.423,-0.003C0.418,-0.003 0.38,-0.002 0.31,-0L0.31,-0.031C0.346,-0.031 0.367,-0.033 0.376,-0.037C0.384,-0.042 0.388,-0.055 0.388,-0.076L0.388,-0.309C0.388,-0.343 0.383,-0.37 0.373,-0.39C0.362,-0.41 0.343,-0.42 0.314,-0.42C0.279,-0.42 0.248,-0.405 0.221,-0.376C0.193,-0.347 0.179,-0.309 0.179,-0.26L0.179,-0.076C0.179,-0.055 0.183,-0.042 0.192,-0.037C0.2,-0.033 0.222,-0.031 0.257,-0.031L0.257,-0C0.189,-0.002 0.152,-0.003 0.145,-0.003C0.14,-0.003 0.102,-0.002 0.032,-0Z" style="fill-rule:nonzero;"/>
                        </g>
                    </g>
                </g>
                <g transform="matrix(4.96767,0,0,0.682961,-242.421,-144.727)">
                    <rect x="52.04" y="218.64" width="4.32" height="10.32" style="fill:white;"/>
                    <clipPath id="_clip3">
                        <rect x="52.04" y="218.64" width="4.32" height="10.32"/>
                    </clipPath>
                    <g clip-path="url(#_clip3)">
                        <g transform="matrix(0.201302,0,0,1.46421,40.4309,214.318)">
                            <g transform="matrix(10,0,0,10,57.6699,9.95184)">
                                <path d="M0.089,-0.571L0.089,-0.602C0.169,-0.602 0.23,-0.623 0.271,-0.666C0.282,-0.666 0.289,-0.665 0.291,-0.662C0.293,-0.66 0.294,-0.652 0.294,-0.64L0.294,-0.079C0.294,-0.059 0.299,-0.046 0.309,-0.04C0.318,-0.034 0.345,-0.031 0.387,-0.031L0.419,-0.031L0.419,-0C0.396,-0.002 0.341,-0.003 0.257,-0.003C0.172,-0.003 0.118,-0.002 0.095,-0L0.095,-0.031L0.127,-0.031C0.169,-0.031 0.195,-0.034 0.205,-0.04C0.215,-0.046 0.22,-0.059 0.22,-0.079L0.22,-0.597C0.185,-0.58 0.142,-0.571 0.089,-0.571Z" style="fill-rule:nonzero;"/>
                            </g>
                            <g transform="matrix(10,0,0,10,65.9951,9.95184)">
                                <path d="M0.098,-0.055C0.055,-0.099 0.034,-0.153 0.034,-0.216C0.034,-0.279 0.055,-0.334 0.097,-0.38C0.138,-0.425 0.19,-0.448 0.251,-0.448C0.292,-0.448 0.327,-0.439 0.358,-0.419C0.389,-0.4 0.404,-0.374 0.404,-0.341C0.404,-0.326 0.399,-0.315 0.391,-0.306C0.382,-0.298 0.371,-0.294 0.358,-0.294C0.344,-0.294 0.333,-0.298 0.324,-0.307C0.316,-0.316 0.312,-0.326 0.312,-0.34C0.312,-0.346 0.313,-0.352 0.315,-0.357C0.317,-0.363 0.322,-0.369 0.329,-0.375C0.336,-0.382 0.346,-0.385 0.359,-0.386C0.335,-0.411 0.3,-0.423 0.254,-0.423L0.252,-0.423C0.218,-0.423 0.187,-0.407 0.159,-0.375C0.131,-0.343 0.117,-0.291 0.117,-0.218C0.117,-0.18 0.122,-0.147 0.131,-0.119C0.14,-0.091 0.153,-0.07 0.168,-0.056C0.183,-0.041 0.198,-0.031 0.213,-0.024C0.228,-0.017 0.243,-0.014 0.258,-0.014C0.323,-0.014 0.367,-0.049 0.389,-0.119C0.391,-0.126 0.395,-0.129 0.402,-0.129C0.411,-0.129 0.415,-0.126 0.415,-0.119C0.415,-0.116 0.414,-0.11 0.411,-0.102C0.409,-0.093 0.403,-0.082 0.395,-0.069C0.387,-0.056 0.377,-0.043 0.365,-0.031C0.354,-0.02 0.338,-0.01 0.318,-0.001C0.297,0.007 0.274,0.011 0.249,0.011C0.19,0.011 0.14,-0.011 0.098,-0.055Z" style="fill-rule:nonzero;"/>
                            </g>
                            <g transform="matrix(10,0,0,10,70.4336,9.95184)">
                                <path d="M0.032,-0L0.032,-0.031C0.068,-0.031 0.09,-0.033 0.098,-0.037C0.106,-0.042 0.11,-0.055 0.11,-0.076L0.11,-0.344C0.11,-0.369 0.106,-0.384 0.097,-0.391C0.088,-0.397 0.067,-0.4 0.032,-0.4L0.032,-0.431L0.173,-0.442L0.173,-0.337C0.204,-0.407 0.253,-0.442 0.321,-0.442C0.399,-0.442 0.443,-0.409 0.454,-0.344C0.465,-0.37 0.483,-0.392 0.507,-0.412C0.531,-0.432 0.562,-0.442 0.599,-0.442C0.649,-0.442 0.684,-0.43 0.704,-0.405C0.719,-0.388 0.728,-0.371 0.73,-0.352C0.733,-0.333 0.735,-0.3 0.735,-0.252L0.735,-0.061C0.736,-0.047 0.741,-0.038 0.752,-0.035C0.763,-0.032 0.783,-0.031 0.813,-0.031L0.813,-0C0.745,-0.002 0.708,-0.003 0.701,-0.003C0.696,-0.003 0.658,-0.002 0.588,-0L0.588,-0.031C0.623,-0.031 0.645,-0.033 0.654,-0.037C0.662,-0.042 0.666,-0.055 0.666,-0.076L0.666,-0.309C0.666,-0.343 0.661,-0.37 0.65,-0.39C0.64,-0.41 0.62,-0.42 0.592,-0.42C0.557,-0.42 0.526,-0.405 0.499,-0.376C0.471,-0.347 0.457,-0.309 0.457,-0.26L0.457,-0.076C0.457,-0.055 0.461,-0.042 0.469,-0.037C0.478,-0.033 0.5,-0.031 0.535,-0.031L0.535,-0C0.467,-0.002 0.43,-0.003 0.423,-0.003C0.418,-0.003 0.38,-0.002 0.31,-0L0.31,-0.031C0.346,-0.031 0.367,-0.033 0.376,-0.037C0.384,-0.042 0.388,-0.055 0.388,-0.076L0.388,-0.309C0.388,-0.343 0.383,-0.37 0.373,-0.39C0.362,-0.41 0.343,-0.42 0.314,-0.42C0.279,-0.42 0.248,-0.405 0.221,-0.376C0.193,-0.347 0.179,-0.309 0.179,-0.26L0.179,-0.076C0.179,-0.055 0.183,-0.042 0.192,-0.037C0.2,-0.033 0.222,-0.031 0.257,-0.031L0.257,-0C0.189,-0.002 0.152,-0.003 0.145,-0.003C0.14,-0.003 0.102,-0.002 0.032,-0Z" style="fill-rule:nonzero;"/>
                            </g>
                        </g>
                    </g>
                </g>
                <g transform="matrix(1,0,0,1,-124.84,-125.989)">
                    <g transform="matrix(12,0,0,12,8.33333,16.7333)">
                        <path d="M0.083,-0.288C0.083,-0.29 0.084,-0.296 0.087,-0.306C0.09,-0.316 0.094,-0.329 0.101,-0.344C0.108,-0.36 0.116,-0.375 0.125,-0.39C0.135,-0.404 0.147,-0.416 0.162,-0.427C0.177,-0.437 0.194,-0.442 0.211,-0.442C0.233,-0.442 0.251,-0.435 0.266,-0.42C0.28,-0.405 0.287,-0.386 0.287,-0.361C0.287,-0.347 0.283,-0.33 0.274,-0.307C0.235,-0.202 0.216,-0.129 0.216,-0.088C0.216,-0.037 0.234,-0.011 0.27,-0.011L0.27,-0.011C0.297,-0.011 0.32,-0.021 0.34,-0.042C0.359,-0.062 0.371,-0.081 0.376,-0.1L0.449,-0.394C0.455,-0.419 0.468,-0.431 0.488,-0.431C0.497,-0.431 0.504,-0.428 0.509,-0.423C0.514,-0.418 0.516,-0.412 0.516,-0.405C0.516,-0.403 0.516,-0.401 0.515,-0.398C0.514,-0.396 0.513,-0.393 0.513,-0.391L0.415,0.003C0.402,0.056 0.374,0.103 0.332,0.144C0.29,0.185 0.244,0.205 0.195,0.205C0.167,0.205 0.144,0.197 0.126,0.182C0.108,0.166 0.099,0.145 0.099,0.119C0.099,0.103 0.103,0.089 0.11,0.079C0.117,0.068 0.124,0.062 0.131,0.06C0.138,0.058 0.144,0.057 0.15,0.057C0.159,0.057 0.167,0.06 0.174,0.066C0.181,0.071 0.184,0.079 0.184,0.089C0.184,0.099 0.18,0.109 0.173,0.119C0.166,0.129 0.155,0.135 0.141,0.137C0.136,0.138 0.133,0.139 0.133,0.14C0.133,0.143 0.135,0.147 0.138,0.154C0.141,0.16 0.148,0.166 0.158,0.173C0.168,0.18 0.18,0.183 0.195,0.183C0.225,0.183 0.256,0.167 0.286,0.135C0.316,0.102 0.34,0.049 0.357,-0.026C0.332,-0.001 0.302,0.011 0.267,0.011C0.236,0.011 0.209,0.002 0.188,-0.017C0.166,-0.036 0.155,-0.065 0.155,-0.105C0.155,-0.142 0.172,-0.208 0.207,-0.301C0.223,-0.345 0.231,-0.375 0.231,-0.391C0.231,-0.41 0.224,-0.42 0.209,-0.42C0.169,-0.42 0.138,-0.378 0.116,-0.294C0.114,-0.286 0.112,-0.282 0.11,-0.28C0.108,-0.279 0.104,-0.278 0.098,-0.278C0.088,-0.278 0.083,-0.282 0.083,-0.288Z" style="fill-rule:nonzero;"/>
                    </g>
                </g>
                <g transform="matrix(1,0,0,1,29.2233,3.31075)">
                    <g transform="matrix(12,0,0,12,8.33333,16.7333)">
                        <path d="M0.053,-0.051C0.053,-0.067 0.058,-0.08 0.068,-0.09C0.078,-0.1 0.09,-0.105 0.103,-0.105C0.126,-0.105 0.137,-0.094 0.137,-0.073C0.137,-0.064 0.134,-0.054 0.128,-0.044C0.121,-0.035 0.111,-0.028 0.098,-0.025C0.109,-0.016 0.123,-0.011 0.14,-0.011L0.142,-0.011C0.156,-0.011 0.169,-0.015 0.179,-0.023C0.19,-0.031 0.2,-0.043 0.208,-0.06C0.215,-0.077 0.221,-0.091 0.225,-0.104C0.229,-0.118 0.234,-0.135 0.239,-0.156C0.247,-0.188 0.255,-0.219 0.262,-0.247C0.276,-0.304 0.283,-0.341 0.283,-0.357C0.283,-0.377 0.279,-0.392 0.27,-0.403C0.261,-0.414 0.25,-0.42 0.235,-0.42C0.213,-0.42 0.191,-0.409 0.168,-0.388C0.146,-0.367 0.129,-0.336 0.116,-0.295C0.114,-0.287 0.112,-0.282 0.11,-0.28C0.109,-0.279 0.105,-0.278 0.098,-0.278C0.088,-0.278 0.083,-0.281 0.083,-0.288C0.083,-0.295 0.087,-0.306 0.094,-0.322C0.101,-0.338 0.11,-0.355 0.122,-0.374C0.134,-0.392 0.15,-0.408 0.171,-0.421C0.192,-0.435 0.214,-0.442 0.237,-0.442C0.284,-0.442 0.316,-0.419 0.333,-0.374C0.341,-0.389 0.354,-0.404 0.37,-0.419C0.387,-0.434 0.407,-0.442 0.431,-0.442C0.451,-0.442 0.47,-0.437 0.49,-0.427C0.509,-0.418 0.518,-0.402 0.518,-0.379C0.518,-0.362 0.513,-0.349 0.502,-0.34C0.491,-0.331 0.48,-0.326 0.469,-0.326C0.457,-0.326 0.448,-0.33 0.443,-0.336C0.437,-0.343 0.434,-0.35 0.434,-0.358C0.434,-0.361 0.434,-0.365 0.435,-0.369C0.436,-0.374 0.439,-0.38 0.446,-0.389C0.453,-0.398 0.462,-0.403 0.474,-0.406C0.463,-0.415 0.449,-0.42 0.43,-0.42C0.391,-0.42 0.361,-0.384 0.342,-0.313C0.326,-0.248 0.315,-0.202 0.308,-0.176C0.295,-0.122 0.289,-0.088 0.289,-0.075C0.289,-0.052 0.294,-0.035 0.303,-0.026C0.312,-0.016 0.323,-0.011 0.336,-0.011C0.359,-0.011 0.381,-0.022 0.403,-0.043C0.425,-0.065 0.442,-0.096 0.455,-0.136C0.458,-0.144 0.46,-0.149 0.461,-0.151C0.463,-0.152 0.467,-0.153 0.473,-0.153C0.483,-0.153 0.488,-0.15 0.488,-0.143C0.488,-0.137 0.484,-0.126 0.478,-0.111C0.471,-0.095 0.462,-0.078 0.45,-0.059C0.438,-0.04 0.422,-0.024 0.401,-0.01C0.38,0.004 0.358,0.011 0.334,0.011C0.316,0.011 0.298,0.006 0.28,-0.004C0.261,-0.014 0.248,-0.032 0.239,-0.057C0.213,-0.012 0.18,0.011 0.141,0.011C0.117,0.011 0.096,0.006 0.079,-0.006C0.062,-0.017 0.053,-0.032 0.053,-0.051Z" style="fill-rule:nonzero;"/>
                    </g>
                </g>
                <g transform="matrix(0.15051,0,0,-0.126984,-43.7993,77.9771)">
                    <g transform="matrix(6.64407,0,0,-7.875,-582.734,1593.63)">
                        <path d="M161.242,140.692L164.167,141.667L161.242,142.642L161.242,140.692Z" style="fill-rule:nonzero;"/>
                        <path d="M16.667,141.667L161.827,141.667" style="fill:none;fill-rule:nonzero;stroke:black;stroke-width:0.65px;"/>
                    </g>
                </g>
                <g transform="matrix(0.126984,0,0,-0.126984,-70.8686,45.9166)">
                    <path d="M366,360L437,360" style="fill:none;fill-rule:nonzero;stroke:black;stroke-width:3.97px;stroke-miterlimit:10;"/>
                </g>
                <g transform="matrix(0,0.140189,-0.126984,0,63.3662,-50.8215)">
                    <g transform="matrix(0,-7.875,7.13321,0,-524.765,1534.63)">
                        <path d="M142.417,127.266L141.667,125.016L140.917,127.266L142.417,127.266Z" style="fill-rule:nonzero;"/>
                        <path d="M142.417,139.308L141.667,141.558L140.917,139.308L142.417,139.308Z" style="fill-rule:nonzero;"/>
                        <path d="M141.667,126.816L141.667,139.758" style="fill:none;fill-rule:nonzero;stroke:black;stroke-width:0.5px;"/>
                    </g>
                </g>
            </g>
        </g>
    </g>
</svg>
