<?xml version="1.0" encoding="UTF-8"?>
<svg xmlns="http://www.w3.org/2000/svg" xmlns:xlink="http://www.w3.org/1999/xlink" width="285pt" height="285pt" viewBox="0 0 285 285" version="1.1">
<defs>
<clipPath id="clip1">
  <path d="M 20 20 L 264 20 L 264 263 L 20 263 Z M 20 20 "/>
</clipPath>
<clipPath id="clip2">
  <path d="M 20 20 L 21 20 L 21 265 L 20 265 Z M 20 20 "/>
</clipPath>
<clipPath id="clip3">
  <path d="M 263 20 L 265 20 L 265 265 L 263 265 Z M 263 20 "/>
</clipPath>
<clipPath id="clip4">
  <path d="M 43 20 L 45 20 L 45 265 L 43 265 Z M 43 20 "/>
</clipPath>
<clipPath id="clip5">
  <path d="M 68 20 L 70 20 L 70 265 L 68 265 Z M 68 20 "/>
</clipPath>
<clipPath id="clip6">
  <path d="M 92 20 L 94 20 L 94 265 L 92 265 Z M 92 20 "/>
</clipPath>
<clipPath id="clip7">
  <path d="M 117 20 L 118 20 L 118 265 L 117 265 Z M 117 20 "/>
</clipPath>
<clipPath id="clip8">
  <path d="M 165 20 L 167 20 L 167 265 L 165 265 Z M 165 20 "/>
</clipPath>
<clipPath id="clip9">
  <path d="M 190 20 L 191 20 L 191 265 L 190 265 Z M 190 20 "/>
</clipPath>
<clipPath id="clip10">
  <path d="M 214 20 L 216 20 L 216 265 L 214 265 Z M 214 20 "/>
</clipPath>
<clipPath id="clip11">
  <path d="M 238 20 L 240 20 L 240 265 L 238 265 Z M 238 20 "/>
</clipPath>
<clipPath id="clip12">
  <path d="M 20 20 L 265 20 L 265 21 L 20 21 Z M 20 20 "/>
</clipPath>
<clipPath id="clip13">
  <path d="M 20 263 L 265 263 L 265 265 L 20 265 Z M 20 263 "/>
</clipPath>
<clipPath id="clip14">
  <path d="M 20 20 L 265 20 L 265 21 L 20 21 Z M 20 20 "/>
</clipPath>
<clipPath id="clip15">
  <path d="M 20 43 L 265 43 L 265 45 L 20 45 Z M 20 43 "/>
</clipPath>
<clipPath id="clip16">
  <path d="M 20 68 L 265 68 L 265 70 L 20 70 Z M 20 68 "/>
</clipPath>
<clipPath id="clip17">
  <path d="M 20 92 L 265 92 L 265 94 L 20 94 Z M 20 92 "/>
</clipPath>
<clipPath id="clip18">
  <path d="M 20 117 L 265 117 L 265 118 L 20 118 Z M 20 117 "/>
</clipPath>
<clipPath id="clip19">
  <path d="M 20 165 L 265 165 L 265 167 L 20 167 Z M 20 165 "/>
</clipPath>
<clipPath id="clip20">
  <path d="M 20 190 L 265 190 L 265 191 L 20 191 Z M 20 190 "/>
</clipPath>
<clipPath id="clip21">
  <path d="M 20 214 L 265 214 L 265 216 L 20 216 Z M 20 214 "/>
</clipPath>
<clipPath id="clip22">
  <path d="M 20 238 L 265 238 L 265 240 L 20 240 Z M 20 238 "/>
</clipPath>
<clipPath id="clip23">
  <path d="M 141 20 L 143 20 L 143 265 L 141 265 Z M 141 20 "/>
</clipPath>
<clipPath id="clip24">
  <path d="M 20 141 L 265 141 L 265 143 L 20 143 Z M 20 141 "/>
</clipPath>
<clipPath id="clip25">
  <path d="M 20 147 L 27 147 L 27 155 L 20 155 Z M 20 147 "/>
</clipPath>
<clipPath id="clip26">
  <path d="M 20 147 L 25 147 L 25 155 L 20 155 Z M 20 147 "/>
</clipPath>
<clipPath id="clip27">
  <path d="M 20 148 L 26 148 L 26 156 L 20 156 Z M 20 148 "/>
</clipPath>
<clipPath id="clip28">
  <path d="M 20 146 L 26 146 L 26 154 L 20 154 Z M 20 146 "/>
</clipPath>
<clipPath id="clip29">
  <path d="M 20 147 L 26 147 L 26 155 L 20 155 Z M 20 147 "/>
</clipPath>
<clipPath id="clip30">
  <path d="M 263 147 L 265 147 L 265 155 L 263 155 Z M 263 147 "/>
</clipPath>
<clipPath id="clip31">
  <path d="M 262 147 L 265 147 L 265 155 L 262 155 Z M 262 147 "/>
</clipPath>
<clipPath id="clip32">
  <path d="M 262 148 L 265 148 L 265 156 L 262 156 Z M 262 148 "/>
</clipPath>
<clipPath id="clip33">
  <path d="M 262 146 L 265 146 L 265 154 L 262 154 Z M 262 146 "/>
</clipPath>
<clipPath id="clip34">
  <path d="M 262 147 L 265 147 L 265 155 L 262 155 Z M 262 147 "/>
</clipPath>
<clipPath id="clip35">
  <path d="M 259 20 L 265 20 L 265 25 L 259 25 Z M 259 20 "/>
</clipPath>
<clipPath id="clip36">
  <path d="M 20 259 L 25 259 L 25 265 L 20 265 Z M 20 259 "/>
</clipPath>
</defs>
<g id="surface1">
<g clip-path="url(#clip1)" clip-rule="nonzero">
<path style=" stroke:none;fill-rule:nonzero;fill:rgb(100%,100%,100%);fill-opacity:1;" d="M 19.382812 19.21875 L 263.050781 19.21875 L 263.050781 262.882812 L 19.382812 262.882812 Z M 19.382812 19.21875 "/>
</g>
<g clip-path="url(#clip2)" clip-rule="nonzero">
<path style="fill:none;stroke-width:1;stroke-linecap:round;stroke-linejoin:round;stroke:rgb(75.292969%,75.292969%,75.292969%);stroke-opacity:1;stroke-miterlimit:10;" d="M 205.74 -0.000255294 L 205.74 389.001695 " transform="matrix(0.831625,0,0,0.831625,-151.098612,0.0900561)"/>
</g>
<g clip-path="url(#clip3)" clip-rule="nonzero">
<path style="fill:none;stroke-width:1;stroke-linecap:round;stroke-linejoin:round;stroke:rgb(75.292969%,75.292969%,75.292969%);stroke-opacity:1;stroke-miterlimit:10;" d="M 498.760861 -0.000255294 L 498.760861 389.001695 " transform="matrix(0.831625,0,0,0.831625,-151.098612,0.0900561)"/>
</g>
<g clip-path="url(#clip4)" clip-rule="nonzero">
<path style="fill:none;stroke-width:1;stroke-linecap:round;stroke-linejoin:round;stroke:rgb(75.292969%,75.292969%,75.292969%);stroke-opacity:0.23529;stroke-miterlimit:10;" d="M 235.040677 -0.000255294 L 235.040677 389.001695 " transform="matrix(0.831625,0,0,0.831625,-151.098612,0.0900561)"/>
</g>
<g clip-path="url(#clip5)" clip-rule="nonzero">
<path style="fill:none;stroke-width:1;stroke-linecap:round;stroke-linejoin:round;stroke:rgb(75.292969%,75.292969%,75.292969%);stroke-opacity:0.23529;stroke-miterlimit:10;" d="M 264.341354 -0.000255294 L 264.341354 389.001695 " transform="matrix(0.831625,0,0,0.831625,-151.098612,0.0900561)"/>
</g>
<g clip-path="url(#clip6)" clip-rule="nonzero">
<path style="fill:none;stroke-width:1;stroke-linecap:round;stroke-linejoin:round;stroke:rgb(75.292969%,75.292969%,75.292969%);stroke-opacity:0.23529;stroke-miterlimit:10;" d="M 293.651425 -0.000255294 L 293.651425 389.001695 " transform="matrix(0.831625,0,0,0.831625,-151.098612,0.0900561)"/>
</g>
<g clip-path="url(#clip7)" clip-rule="nonzero">
<path style="fill:none;stroke-width:1;stroke-linecap:round;stroke-linejoin:round;stroke:rgb(75.292969%,75.292969%,75.292969%);stroke-opacity:0.23529;stroke-miterlimit:10;" d="M 322.952102 -0.000255294 L 322.952102 389.001695 " transform="matrix(0.831625,0,0,0.831625,-151.098612,0.0900561)"/>
</g>
<g clip-path="url(#clip8)" clip-rule="nonzero">
<path style="fill:none;stroke-width:1;stroke-linecap:round;stroke-linejoin:round;stroke:rgb(75.292969%,75.292969%,75.292969%);stroke-opacity:0.23529;stroke-miterlimit:10;" d="M 381.548759 -0.000255294 L 381.548759 389.001695 " transform="matrix(0.831625,0,0,0.831625,-151.098612,0.0900561)"/>
</g>
<g clip-path="url(#clip9)" clip-rule="nonzero">
<path style="fill:none;stroke-width:1;stroke-linecap:round;stroke-linejoin:round;stroke:rgb(75.292969%,75.292969%,75.292969%);stroke-opacity:0.23529;stroke-miterlimit:10;" d="M 410.849436 -0.000255294 L 410.849436 389.001695 " transform="matrix(0.831625,0,0,0.831625,-151.098612,0.0900561)"/>
</g>
<g clip-path="url(#clip10)" clip-rule="nonzero">
<path style="fill:none;stroke-width:1;stroke-linecap:round;stroke-linejoin:round;stroke:rgb(75.292969%,75.292969%,75.292969%);stroke-opacity:0.23529;stroke-miterlimit:10;" d="M 440.159507 -0.000255294 L 440.159507 389.001695 " transform="matrix(0.831625,0,0,0.831625,-151.098612,0.0900561)"/>
</g>
<g clip-path="url(#clip11)" clip-rule="nonzero">
<path style="fill:none;stroke-width:1;stroke-linecap:round;stroke-linejoin:round;stroke:rgb(75.292969%,75.292969%,75.292969%);stroke-opacity:0.23529;stroke-miterlimit:10;" d="M 469.460184 -0.000255294 L 469.460184 389.001695 " transform="matrix(0.831625,0,0,0.831625,-151.098612,0.0900561)"/>
</g>
<g clip-path="url(#clip12)" clip-rule="nonzero">
<path style="fill:none;stroke-width:1;stroke-linecap:round;stroke-linejoin:round;stroke:rgb(75.292969%,75.292969%,75.292969%);stroke-opacity:1;stroke-miterlimit:10;" d="M 0.00114908 23.941 L 890.999132 23.941 " transform="matrix(0.831625,0,0,0.831625,-151.098612,0.0900561)"/>
<path style="fill:none;stroke-width:1;stroke-linecap:round;stroke-linejoin:round;stroke:rgb(75.292969%,75.292969%,75.292969%);stroke-opacity:1;stroke-miterlimit:10;" d="M 0.00114908 23.941 L 890.999132 23.941 " transform="matrix(0.831625,0,0,0.831625,-151.098612,0.0900561)"/>
</g>
<g clip-path="url(#clip13)" clip-rule="nonzero">
<path style="fill:none;stroke-width:1;stroke-linecap:round;stroke-linejoin:round;stroke:rgb(75.292969%,75.292969%,75.292969%);stroke-opacity:1;stroke-miterlimit:10;" d="M 0.00114908 316.961861 L 890.999132 316.961861 " transform="matrix(0.831625,0,0,0.831625,-151.098612,0.0900561)"/>
</g>
<g clip-path="url(#clip14)" clip-rule="nonzero">
<path style="fill:none;stroke-width:1;stroke-linecap:round;stroke-linejoin:round;stroke:rgb(75.292969%,75.292969%,75.292969%);stroke-opacity:0.23529;stroke-miterlimit:10;" d="M 0.00114908 23.941 L 890.999132 23.941 " transform="matrix(0.831625,0,0,0.831625,-151.098612,0.0900561)"/>
</g>
<g clip-path="url(#clip15)" clip-rule="nonzero">
<path style="fill:none;stroke-width:1;stroke-linecap:round;stroke-linejoin:round;stroke:rgb(75.292969%,75.292969%,75.292969%);stroke-opacity:0.23529;stroke-miterlimit:10;" d="M 0.00114908 53.241677 L 890.999132 53.241677 " transform="matrix(0.831625,0,0,0.831625,-151.098612,0.0900561)"/>
</g>
<g clip-path="url(#clip16)" clip-rule="nonzero">
<path style="fill:none;stroke-width:1;stroke-linecap:round;stroke-linejoin:round;stroke:rgb(75.292969%,75.292969%,75.292969%);stroke-opacity:0.23529;stroke-miterlimit:10;" d="M 0.00114908 82.547051 L 890.999132 82.547051 " transform="matrix(0.831625,0,0,0.831625,-151.098612,0.0900561)"/>
</g>
<g clip-path="url(#clip17)" clip-rule="nonzero">
<path style="fill:none;stroke-width:1;stroke-linecap:round;stroke-linejoin:round;stroke:rgb(75.292969%,75.292969%,75.292969%);stroke-opacity:0.23529;stroke-miterlimit:10;" d="M 0.00114908 111.847728 L 890.999132 111.847728 " transform="matrix(0.831625,0,0,0.831625,-151.098612,0.0900561)"/>
</g>
<g clip-path="url(#clip18)" clip-rule="nonzero">
<path style="fill:none;stroke-width:1;stroke-linecap:round;stroke-linejoin:round;stroke:rgb(75.292969%,75.292969%,75.292969%);stroke-opacity:0.23529;stroke-miterlimit:10;" d="M 0.00114908 141.148405 L 890.999132 141.148405 " transform="matrix(0.831625,0,0,0.831625,-151.098612,0.0900561)"/>
</g>
<g clip-path="url(#clip19)" clip-rule="nonzero">
<path style="fill:none;stroke-width:1;stroke-linecap:round;stroke-linejoin:round;stroke:rgb(75.292969%,75.292969%,75.292969%);stroke-opacity:0.23529;stroke-miterlimit:10;" d="M 0.00114908 199.749759 L 890.999132 199.749759 " transform="matrix(0.831625,0,0,0.831625,-151.098612,0.0900561)"/>
</g>
<g clip-path="url(#clip20)" clip-rule="nonzero">
<path style="fill:none;stroke-width:1;stroke-linecap:round;stroke-linejoin:round;stroke:rgb(75.292969%,75.292969%,75.292969%);stroke-opacity:0.23529;stroke-miterlimit:10;" d="M 0.00114908 229.050436 L 890.999132 229.050436 " transform="matrix(0.831625,0,0,0.831625,-151.098612,0.0900561)"/>
</g>
<g clip-path="url(#clip21)" clip-rule="nonzero">
<path style="fill:none;stroke-width:1;stroke-linecap:round;stroke-linejoin:round;stroke:rgb(75.292969%,75.292969%,75.292969%);stroke-opacity:0.23529;stroke-miterlimit:10;" d="M 0.00114908 258.360507 L 890.999132 258.360507 " transform="matrix(0.831625,0,0,0.831625,-151.098612,0.0900561)"/>
</g>
<g clip-path="url(#clip22)" clip-rule="nonzero">
<path style="fill:none;stroke-width:1;stroke-linecap:round;stroke-linejoin:round;stroke:rgb(75.292969%,75.292969%,75.292969%);stroke-opacity:0.23529;stroke-miterlimit:10;" d="M 0.00114908 287.661184 L 890.999132 287.661184 " transform="matrix(0.831625,0,0,0.831625,-151.098612,0.0900561)"/>
</g>
<g clip-path="url(#clip23)" clip-rule="nonzero">
<path style="fill:none;stroke-width:1;stroke-linecap:butt;stroke-linejoin:miter;stroke:rgb(0%,0%,0%);stroke-opacity:1;stroke-miterlimit:10;" d="M 352.248082 2.000721 L 352.248082 389.001695 " transform="matrix(0.831625,0,0,0.831625,-151.098612,0.0900561)"/>
</g>
<g clip-path="url(#clip24)" clip-rule="nonzero">
<path style="fill:none;stroke-width:1;stroke-linecap:butt;stroke-linejoin:miter;stroke:rgb(0%,0%,0%);stroke-opacity:1;stroke-miterlimit:10;" d="M 0.00114908 170.449082 L 888.998156 170.449082 " transform="matrix(0.831625,0,0,0.831625,-151.098612,0.0900561)"/>
</g>
<g clip-path="url(#clip25)" clip-rule="nonzero">
<path style=" stroke:none;fill-rule:nonzero;fill:rgb(100%,100%,100%);fill-opacity:1;" d="M 16.574219 152.128906 L 16.574219 151.460938 L 20.53125 151.460938 L 20.53125 152.128906 Z M 22.542969 154.773438 L 22.542969 154.050781 L 23.992188 154.050781 L 23.992188 148.359375 L 22.542969 148.71875 L 22.542969 147.976562 L 24.957031 147.378906 L 24.957031 154.050781 L 26.394531 154.050781 L 26.394531 154.773438 Z M 22.542969 154.773438 "/>
</g>
<g clip-path="url(#clip26)" clip-rule="nonzero">
<path style=" stroke:none;fill-rule:nonzero;fill:rgb(100%,100%,100%);fill-opacity:1;" d="M 14.910156 152.128906 L 14.910156 151.460938 L 18.867188 151.460938 L 18.867188 152.128906 Z M 20.882812 154.773438 L 20.882812 154.050781 L 22.328125 154.050781 L 22.328125 148.359375 L 20.882812 148.71875 L 20.882812 147.976562 L 23.292969 147.378906 L 23.292969 154.050781 L 24.730469 154.050781 L 24.730469 154.773438 Z M 20.882812 154.773438 "/>
</g>
<g clip-path="url(#clip27)" clip-rule="nonzero">
<path style=" stroke:none;fill-rule:nonzero;fill:rgb(100%,100%,100%);fill-opacity:1;" d="M 15.742188 152.960938 L 15.742188 152.292969 L 19.699219 152.292969 L 19.699219 152.960938 Z M 21.714844 155.605469 L 21.714844 154.878906 L 23.160156 154.878906 L 23.160156 149.191406 L 21.714844 149.550781 L 21.714844 148.808594 L 24.125 148.210938 L 24.125 154.878906 L 25.5625 154.878906 L 25.5625 155.605469 Z M 21.714844 155.605469 "/>
</g>
<g clip-path="url(#clip28)" clip-rule="nonzero">
<path style=" stroke:none;fill-rule:nonzero;fill:rgb(100%,100%,100%);fill-opacity:1;" d="M 15.742188 151.296875 L 15.742188 150.632812 L 19.699219 150.632812 L 19.699219 151.296875 Z M 21.714844 153.941406 L 21.714844 153.21875 L 23.160156 153.21875 L 23.160156 147.527344 L 21.714844 147.886719 L 21.714844 147.144531 L 24.125 146.546875 L 24.125 153.21875 L 25.5625 153.21875 L 25.5625 153.941406 Z M 21.714844 153.941406 "/>
</g>
<g clip-path="url(#clip29)" clip-rule="nonzero">
<path style=" stroke:none;fill-rule:nonzero;fill:rgb(0%,0%,0%);fill-opacity:1;" d="M 15.742188 152.128906 L 15.742188 151.460938 L 19.699219 151.460938 L 19.699219 152.128906 Z M 21.714844 154.773438 L 21.714844 154.050781 L 23.160156 154.050781 L 23.160156 148.359375 L 21.714844 148.71875 L 21.714844 147.976562 L 24.125 147.378906 L 24.125 154.050781 L 25.5625 154.050781 L 25.5625 154.773438 Z M 21.714844 154.773438 "/>
</g>
<g clip-path="url(#clip30)" clip-rule="nonzero">
<path style=" stroke:none;fill-rule:nonzero;fill:rgb(100%,100%,100%);fill-opacity:1;" d="M 263.714844 154.773438 L 263.714844 154.050781 L 265.164062 154.050781 L 265.164062 148.359375 L 263.714844 148.71875 L 263.714844 147.976562 L 266.128906 147.378906 L 266.128906 154.050781 L 267.566406 154.050781 L 267.566406 154.773438 Z M 263.714844 154.773438 "/>
</g>
<g clip-path="url(#clip31)" clip-rule="nonzero">
<path style=" stroke:none;fill-rule:nonzero;fill:rgb(100%,100%,100%);fill-opacity:1;" d="M 262.054688 154.773438 L 262.054688 154.050781 L 263.5 154.050781 L 263.5 148.359375 L 262.054688 148.71875 L 262.054688 147.976562 L 264.464844 147.378906 L 264.464844 154.050781 L 265.902344 154.050781 L 265.902344 154.773438 Z M 262.054688 154.773438 "/>
</g>
<g clip-path="url(#clip32)" clip-rule="nonzero">
<path style=" stroke:none;fill-rule:nonzero;fill:rgb(100%,100%,100%);fill-opacity:1;" d="M 262.882812 155.605469 L 262.882812 154.878906 L 264.332031 154.878906 L 264.332031 149.191406 L 262.882812 149.550781 L 262.882812 148.808594 L 265.296875 148.210938 L 265.296875 154.878906 L 266.734375 154.878906 L 266.734375 155.605469 Z M 262.882812 155.605469 "/>
</g>
<g clip-path="url(#clip33)" clip-rule="nonzero">
<path style=" stroke:none;fill-rule:nonzero;fill:rgb(100%,100%,100%);fill-opacity:1;" d="M 262.882812 153.941406 L 262.882812 153.21875 L 264.332031 153.21875 L 264.332031 147.527344 L 262.882812 147.886719 L 262.882812 147.144531 L 265.296875 146.546875 L 265.296875 153.21875 L 266.734375 153.21875 L 266.734375 153.941406 Z M 262.882812 153.941406 "/>
</g>
<g clip-path="url(#clip34)" clip-rule="nonzero">
<path style=" stroke:none;fill-rule:nonzero;fill:rgb(0%,0%,0%);fill-opacity:1;" d="M 262.882812 154.773438 L 262.882812 154.050781 L 264.332031 154.050781 L 264.332031 148.359375 L 262.882812 148.71875 L 262.882812 147.976562 L 265.296875 147.378906 L 265.296875 154.050781 L 266.734375 154.050781 L 266.734375 154.773438 Z M 262.882812 154.773438 "/>
</g>
<path style=" stroke:none;fill-rule:nonzero;fill:rgb(100%,100%,100%);fill-opacity:1;" d="M 133.117188 154.957031 C 132.378906 154.957031 131.769531 154.605469 131.3125 153.898438 C 130.855469 153.199219 130.621094 152.285156 130.621094 151.164062 C 130.621094 150.023438 130.855469 149.109375 131.320312 148.417969 C 131.777344 147.726562 132.394531 147.378906 133.152344 147.378906 C 133.90625 147.378906 134.515625 147.726562 134.980469 148.417969 C 135.4375 149.109375 135.671875 150.023438 135.671875 151.148438 C 135.671875 152.300781 135.4375 153.226562 134.980469 153.914062 C 134.515625 154.605469 133.898438 154.957031 133.117188 154.957031 Z M 133.125 154.230469 C 134.148438 154.230469 134.65625 153.199219 134.65625 151.128906 C 134.65625 149.109375 134.148438 148.101562 133.152344 148.101562 C 132.144531 148.101562 131.644531 149.125 131.644531 151.164062 C 131.644531 153.207031 132.144531 154.230469 133.125 154.230469 Z M 133.125 154.230469 "/>
<path style=" stroke:none;fill-rule:nonzero;fill:rgb(100%,100%,100%);fill-opacity:1;" d="M 131.453125 154.957031 C 130.714844 154.957031 130.105469 154.605469 129.648438 153.898438 C 129.191406 153.199219 128.960938 152.285156 128.960938 151.164062 C 128.960938 150.023438 129.191406 149.109375 129.65625 148.417969 C 130.117188 147.726562 130.730469 147.378906 131.488281 147.378906 C 132.246094 147.378906 132.851562 147.726562 133.316406 148.417969 C 133.773438 149.109375 134.007812 150.023438 134.007812 151.148438 C 134.007812 152.300781 133.773438 153.226562 133.316406 153.914062 C 132.851562 154.605469 132.234375 154.957031 131.453125 154.957031 Z M 131.460938 154.230469 C 132.484375 154.230469 132.992188 153.199219 132.992188 151.128906 C 132.992188 149.109375 132.484375 148.101562 131.488281 148.101562 C 130.480469 148.101562 129.984375 149.125 129.984375 151.164062 C 129.984375 153.207031 130.480469 154.230469 131.460938 154.230469 Z M 131.460938 154.230469 "/>
<path style=" stroke:none;fill-rule:nonzero;fill:rgb(100%,100%,100%);fill-opacity:1;" d="M 132.285156 155.785156 C 131.546875 155.785156 130.9375 155.4375 130.480469 154.730469 C 130.023438 154.03125 129.792969 153.117188 129.792969 151.996094 C 129.792969 150.855469 130.023438 149.941406 130.488281 149.25 C 130.945312 148.558594 131.5625 148.210938 132.320312 148.210938 C 133.074219 148.210938 133.683594 148.558594 134.148438 149.25 C 134.605469 149.941406 134.839844 150.855469 134.839844 151.976562 C 134.839844 153.132812 134.605469 154.058594 134.148438 154.746094 C 133.683594 155.4375 133.066406 155.785156 132.285156 155.785156 Z M 132.292969 155.0625 C 133.316406 155.0625 133.824219 154.03125 133.824219 151.960938 C 133.824219 149.941406 133.316406 148.933594 132.320312 148.933594 C 131.3125 148.933594 130.8125 149.957031 130.8125 151.996094 C 130.8125 154.039062 131.3125 155.0625 132.292969 155.0625 Z M 132.292969 155.0625 "/>
<path style=" stroke:none;fill-rule:nonzero;fill:rgb(100%,100%,100%);fill-opacity:1;" d="M 132.285156 154.125 C 131.546875 154.125 130.9375 153.773438 130.480469 153.066406 C 130.023438 152.367188 129.792969 151.453125 129.792969 150.332031 C 129.792969 149.191406 130.023438 148.277344 130.488281 147.585938 C 130.945312 146.898438 131.5625 146.546875 132.320312 146.546875 C 133.074219 146.546875 133.683594 146.898438 134.148438 147.585938 C 134.605469 148.277344 134.839844 149.191406 134.839844 150.316406 C 134.839844 151.472656 134.605469 152.394531 134.148438 153.085938 C 133.683594 153.773438 133.066406 154.125 132.285156 154.125 Z M 132.292969 153.398438 C 133.316406 153.398438 133.824219 152.367188 133.824219 150.296875 C 133.824219 148.277344 133.316406 147.269531 132.320312 147.269531 C 131.3125 147.269531 130.8125 148.292969 130.8125 150.332031 C 130.8125 152.378906 131.3125 153.398438 132.292969 153.398438 Z M 132.292969 153.398438 "/>
<path style=" stroke:none;fill-rule:nonzero;fill:rgb(0%,0%,0%);fill-opacity:1;" d="M 132.285156 154.957031 C 131.546875 154.957031 130.9375 154.605469 130.480469 153.898438 C 130.023438 153.199219 129.792969 152.285156 129.792969 151.164062 C 129.792969 150.023438 130.023438 149.109375 130.488281 148.417969 C 130.945312 147.726562 131.5625 147.378906 132.320312 147.378906 C 133.074219 147.378906 133.683594 147.726562 134.148438 148.417969 C 134.605469 149.109375 134.839844 150.023438 134.839844 151.148438 C 134.839844 152.300781 134.605469 153.226562 134.148438 153.914062 C 133.683594 154.605469 133.066406 154.957031 132.285156 154.957031 Z M 132.292969 154.230469 C 133.316406 154.230469 133.824219 153.199219 133.824219 151.128906 C 133.824219 149.109375 133.316406 148.101562 132.320312 148.101562 C 131.3125 148.101562 130.8125 149.125 130.8125 151.164062 C 130.8125 153.207031 131.3125 154.230469 132.292969 154.230469 Z M 132.292969 154.230469 "/>
<path style="fill-rule:evenodd;fill:rgb(0%,0%,0%);fill-opacity:0.24706;stroke-width:1;stroke-linecap:round;stroke-linejoin:round;stroke:rgb(0%,0%,0%);stroke-opacity:0.69804;stroke-miterlimit:10;" d="M 372.290722 115.379967 L 297.178967 150.411139 L 332.210139 225.518197 L 407.321894 190.491722 Z M 372.290722 115.379967 " transform="matrix(0.831625,0,0,0.831625,-151.098612,0.0900561)"/>
<path style="fill:none;stroke-width:1;stroke-linecap:round;stroke-linejoin:round;stroke:rgb(0%,0%,0%);stroke-opacity:0.8;stroke-miterlimit:10;" d="M 412.24918 170.449082 C 412.24918 166.959117 411.939169 163.469152 411.337937 160.030855 L 352.248082 170.449082 Z M 412.24918 170.449082 " transform="matrix(0.831625,0,0,0.831625,-151.098612,0.0900561)"/>
<path style=" stroke:none;fill-rule:nonzero;fill:rgb(100%,100%,100%);fill-opacity:1;" d="M 232.621094 141.464844 L 232.621094 140.5 L 234.542969 140.5 L 234.542969 132.917969 L 232.621094 133.398438 L 232.621094 132.410156 L 235.832031 131.613281 L 235.832031 140.5 L 237.753906 140.5 L 237.753906 141.464844 Z M 243.199219 141.707031 C 242.210938 141.707031 241.410156 141.242188 240.796875 140.308594 C 240.179688 139.371094 239.875 138.15625 239.875 136.652344 C 239.875 135.136719 240.179688 133.914062 240.804688 132.992188 C 241.421875 132.070312 242.234375 131.613281 243.242188 131.613281 C 244.246094 131.613281 245.0625 132.070312 245.679688 132.992188 C 246.300781 133.914062 246.609375 135.128906 246.609375 136.632812 C 246.609375 138.171875 246.300781 139.402344 245.679688 140.328125 C 245.0625 141.25 244.238281 141.707031 243.199219 141.707031 Z M 243.214844 140.742188 C 244.570312 140.742188 245.246094 139.371094 245.246094 136.609375 C 245.246094 133.914062 244.582031 132.566406 243.242188 132.566406 C 241.910156 132.566406 241.238281 133.933594 241.238281 136.652344 C 241.238281 139.378906 241.902344 140.742188 243.214844 140.742188 Z M 250.308594 134.886719 C 249.785156 134.886719 249.34375 134.707031 248.972656 134.324219 C 248.597656 133.941406 248.40625 133.492188 248.40625 132.96875 C 248.40625 132.441406 248.597656 131.984375 248.972656 131.613281 C 249.34375 131.238281 249.804688 131.046875 250.328125 131.046875 C 250.859375 131.046875 251.308594 131.238281 251.691406 131.613281 C 252.066406 131.984375 252.257812 132.441406 252.257812 132.96875 C 252.257812 133.507812 252.066406 133.957031 251.691406 134.332031 C 251.308594 134.707031 250.851562 134.886719 250.308594 134.886719 Z M 250.320312 134.089844 C 250.632812 134.089844 250.902344 133.980469 251.125 133.765625 C 251.339844 133.550781 251.449219 133.28125 251.449219 132.96875 C 251.449219 132.660156 251.339844 132.402344 251.125 132.175781 C 250.902344 131.960938 250.632812 131.851562 250.328125 131.851562 C 250.019531 131.851562 249.761719 131.960938 249.535156 132.175781 C 249.3125 132.402344 249.203125 132.660156 249.203125 132.96875 C 249.203125 133.273438 249.3125 133.539062 249.535156 133.757812 C 249.753906 133.980469 250.011719 134.089844 250.320312 134.089844 Z M 250.320312 134.089844 "/>
<path style=" stroke:none;fill-rule:nonzero;fill:rgb(100%,100%,100%);fill-opacity:1;" d="M 230.957031 141.464844 L 230.957031 140.5 L 232.878906 140.5 L 232.878906 132.917969 L 230.957031 133.398438 L 230.957031 132.410156 L 234.167969 131.613281 L 234.167969 140.5 L 236.089844 140.5 L 236.089844 141.464844 Z M 241.535156 141.707031 C 240.546875 141.707031 239.75 141.242188 239.132812 140.308594 C 238.519531 139.371094 238.210938 138.15625 238.210938 136.652344 C 238.210938 135.136719 238.519531 133.914062 239.140625 132.992188 C 239.757812 132.070312 240.570312 131.613281 241.578125 131.613281 C 242.585938 131.613281 243.398438 132.070312 244.015625 132.992188 C 244.636719 133.914062 244.945312 135.128906 244.945312 136.632812 C 244.945312 138.171875 244.636719 139.402344 244.015625 140.328125 C 243.398438 141.25 242.578125 141.707031 241.535156 141.707031 Z M 241.554688 140.742188 C 242.910156 140.742188 243.582031 139.371094 243.582031 136.609375 C 243.582031 133.914062 242.917969 132.566406 241.578125 132.566406 C 240.246094 132.566406 239.574219 133.933594 239.574219 136.652344 C 239.574219 139.378906 240.238281 140.742188 241.554688 140.742188 Z M 248.648438 134.886719 C 248.125 134.886719 247.683594 134.707031 247.308594 134.324219 C 246.933594 133.941406 246.742188 133.492188 246.742188 132.96875 C 246.742188 132.441406 246.933594 131.984375 247.308594 131.613281 C 247.683594 131.238281 248.140625 131.046875 248.664062 131.046875 C 249.195312 131.046875 249.644531 131.238281 250.027344 131.613281 C 250.402344 131.984375 250.59375 132.441406 250.59375 132.96875 C 250.59375 133.507812 250.402344 133.957031 250.027344 134.332031 C 249.644531 134.707031 249.1875 134.886719 248.648438 134.886719 Z M 248.65625 134.089844 C 248.972656 134.089844 249.238281 133.980469 249.460938 133.765625 C 249.679688 133.550781 249.785156 133.28125 249.785156 132.96875 C 249.785156 132.660156 249.679688 132.402344 249.460938 132.175781 C 249.238281 131.960938 248.972656 131.851562 248.664062 131.851562 C 248.355469 131.851562 248.097656 131.960938 247.875 132.175781 C 247.648438 132.402344 247.542969 132.660156 247.542969 132.96875 C 247.542969 133.273438 247.648438 133.539062 247.875 133.757812 C 248.089844 133.980469 248.347656 134.089844 248.65625 134.089844 Z M 248.65625 134.089844 "/>
<path style=" stroke:none;fill-rule:nonzero;fill:rgb(100%,100%,100%);fill-opacity:1;" d="M 231.789062 142.296875 L 231.789062 141.332031 L 233.710938 141.332031 L 233.710938 133.75 L 231.789062 134.230469 L 231.789062 133.242188 L 235 132.441406 L 235 141.332031 L 236.921875 141.332031 L 236.921875 142.296875 Z M 242.367188 142.539062 C 241.378906 142.539062 240.582031 142.074219 239.964844 141.140625 C 239.347656 140.203125 239.042969 138.988281 239.042969 137.484375 C 239.042969 135.96875 239.347656 134.746094 239.972656 133.824219 C 240.589844 132.902344 241.402344 132.441406 242.410156 132.441406 C 243.417969 132.441406 244.230469 132.902344 244.847656 133.824219 C 245.46875 134.746094 245.777344 135.960938 245.777344 137.464844 C 245.777344 139.003906 245.46875 140.234375 244.847656 141.160156 C 244.230469 142.082031 243.40625 142.539062 242.367188 142.539062 Z M 242.386719 141.574219 C 243.742188 141.574219 244.414062 140.203125 244.414062 137.441406 C 244.414062 134.746094 243.75 133.398438 242.410156 133.398438 C 241.078125 133.398438 240.40625 134.761719 240.40625 137.484375 C 240.40625 140.210938 241.070312 141.574219 242.386719 141.574219 Z M 249.480469 135.71875 C 248.953125 135.71875 248.515625 135.535156 248.140625 135.15625 C 247.765625 134.773438 247.574219 134.324219 247.574219 133.796875 C 247.574219 133.273438 247.765625 132.816406 248.140625 132.441406 C 248.515625 132.070312 248.972656 131.878906 249.496094 131.878906 C 250.027344 131.878906 250.476562 132.070312 250.859375 132.441406 C 251.234375 132.816406 251.425781 133.273438 251.425781 133.796875 C 251.425781 134.339844 251.234375 134.789062 250.859375 135.164062 C 250.476562 135.535156 250.019531 135.71875 249.480469 135.71875 Z M 249.488281 134.921875 C 249.804688 134.921875 250.070312 134.8125 250.292969 134.597656 C 250.511719 134.382812 250.617188 134.113281 250.617188 133.796875 C 250.617188 133.492188 250.511719 133.234375 250.292969 133.007812 C 250.070312 132.792969 249.804688 132.683594 249.496094 132.683594 C 249.1875 132.683594 248.929688 132.792969 248.707031 133.007812 C 248.480469 133.234375 248.371094 133.492188 248.371094 133.796875 C 248.371094 134.105469 248.480469 134.371094 248.707031 134.589844 C 248.921875 134.8125 249.179688 134.921875 249.488281 134.921875 Z M 249.488281 134.921875 "/>
<path style=" stroke:none;fill-rule:nonzero;fill:rgb(100%,100%,100%);fill-opacity:1;" d="M 231.789062 140.632812 L 231.789062 139.671875 L 233.710938 139.671875 L 233.710938 132.085938 L 231.789062 132.566406 L 231.789062 131.578125 L 235 130.78125 L 235 139.671875 L 236.921875 139.671875 L 236.921875 140.632812 Z M 242.367188 140.875 C 241.378906 140.875 240.582031 140.410156 239.964844 139.480469 C 239.347656 138.539062 239.042969 137.324219 239.042969 135.820312 C 239.042969 134.304688 239.347656 133.082031 239.972656 132.160156 C 240.589844 131.238281 241.402344 130.78125 242.410156 130.78125 C 243.417969 130.78125 244.230469 131.238281 244.847656 132.160156 C 245.46875 133.082031 245.777344 134.296875 245.777344 135.804688 C 245.777344 137.339844 245.46875 138.574219 244.847656 139.496094 C 244.230469 140.417969 243.40625 140.875 242.367188 140.875 Z M 242.386719 139.910156 C 243.742188 139.910156 244.414062 138.539062 244.414062 135.777344 C 244.414062 133.082031 243.75 131.738281 242.410156 131.738281 C 241.078125 131.738281 240.40625 133.101562 240.40625 135.820312 C 240.40625 138.546875 241.070312 139.910156 242.386719 139.910156 Z M 249.480469 134.054688 C 248.953125 134.054688 248.515625 133.875 248.140625 133.492188 C 247.765625 133.109375 247.574219 132.660156 247.574219 132.136719 C 247.574219 131.613281 247.765625 131.152344 248.140625 130.78125 C 248.515625 130.40625 248.972656 130.214844 249.496094 130.214844 C 250.027344 130.214844 250.476562 130.40625 250.859375 130.78125 C 251.234375 131.152344 251.425781 131.613281 251.425781 132.136719 C 251.425781 132.675781 251.234375 133.125 250.859375 133.5 C 250.476562 133.875 250.019531 134.054688 249.480469 134.054688 Z M 249.488281 133.257812 C 249.804688 133.257812 250.070312 133.148438 250.292969 132.933594 C 250.511719 132.71875 250.617188 132.453125 250.617188 132.136719 C 250.617188 131.828125 250.511719 131.570312 250.292969 131.34375 C 250.070312 131.128906 249.804688 131.019531 249.496094 131.019531 C 249.1875 131.019531 248.929688 131.128906 248.707031 131.34375 C 248.480469 131.570312 248.371094 131.828125 248.371094 132.136719 C 248.371094 132.441406 248.480469 132.710938 248.707031 132.925781 C 248.921875 133.148438 249.179688 133.257812 249.488281 133.257812 Z M 249.488281 133.257812 "/>
<path style=" stroke:none;fill-rule:nonzero;fill:rgb(0%,0%,0%);fill-opacity:1;" d="M 231.789062 141.464844 L 231.789062 140.5 L 233.710938 140.5 L 233.710938 132.917969 L 231.789062 133.398438 L 231.789062 132.410156 L 235 131.613281 L 235 140.5 L 236.921875 140.5 L 236.921875 141.464844 Z M 242.367188 141.707031 C 241.378906 141.707031 240.582031 141.242188 239.964844 140.308594 C 239.347656 139.371094 239.042969 138.15625 239.042969 136.652344 C 239.042969 135.136719 239.347656 133.914062 239.972656 132.992188 C 240.589844 132.070312 241.402344 131.613281 242.410156 131.613281 C 243.417969 131.613281 244.230469 132.070312 244.847656 132.992188 C 245.46875 133.914062 245.777344 135.128906 245.777344 136.632812 C 245.777344 138.171875 245.46875 139.402344 244.847656 140.328125 C 244.230469 141.25 243.40625 141.707031 242.367188 141.707031 Z M 242.386719 140.742188 C 243.742188 140.742188 244.414062 139.371094 244.414062 136.609375 C 244.414062 133.914062 243.75 132.566406 242.410156 132.566406 C 241.078125 132.566406 240.40625 133.933594 240.40625 136.652344 C 240.40625 139.378906 241.070312 140.742188 242.386719 140.742188 Z M 249.480469 134.886719 C 248.953125 134.886719 248.515625 134.707031 248.140625 134.324219 C 247.765625 133.941406 247.574219 133.492188 247.574219 132.96875 C 247.574219 132.441406 247.765625 131.984375 248.140625 131.613281 C 248.515625 131.238281 248.972656 131.046875 249.496094 131.046875 C 250.027344 131.046875 250.476562 131.238281 250.859375 131.613281 C 251.234375 131.984375 251.425781 132.441406 251.425781 132.96875 C 251.425781 133.507812 251.234375 133.957031 250.859375 134.332031 C 250.476562 134.707031 250.019531 134.886719 249.480469 134.886719 Z M 249.488281 134.089844 C 249.804688 134.089844 250.070312 133.980469 250.292969 133.765625 C 250.511719 133.550781 250.617188 133.28125 250.617188 132.96875 C 250.617188 132.660156 250.511719 132.402344 250.292969 132.175781 C 250.070312 131.960938 249.804688 131.851562 249.496094 131.851562 C 249.1875 131.851562 248.929688 131.960938 248.707031 132.175781 C 248.480469 132.402344 248.371094 132.660156 248.371094 132.96875 C 248.371094 133.273438 248.480469 133.539062 248.707031 133.757812 C 248.921875 133.980469 249.179688 134.089844 249.488281 134.089844 Z M 249.488281 134.089844 "/>
<path style="fill:none;stroke-width:1;stroke-linecap:round;stroke-linejoin:round;stroke:rgb(0%,0%,0%);stroke-opacity:0.8;stroke-miterlimit:10;" d="M 352.248082 110.447984 C 343.487941 110.447984 334.831136 112.369109 326.888294 116.070445 L 352.248082 170.449082 Z M 352.248082 110.447984 " transform="matrix(0.831625,0,0,0.831625,-151.098612,0.0900561)"/>
<path style=" stroke:none;fill-rule:nonzero;fill:rgb(100%,100%,100%);fill-opacity:1;" d="M 115.296875 55.808594 L 115.296875 54.683594 C 115.671875 53.816406 116.417969 52.867188 117.558594 51.839844 L 118.289062 51.183594 C 119.238281 50.328125 119.703125 49.484375 119.703125 48.644531 C 119.703125 48.105469 119.546875 47.683594 119.222656 47.375 C 118.898438 47.070312 118.457031 46.914062 117.890625 46.914062 C 117.226562 46.914062 116.445312 47.171875 115.539062 47.6875 L 115.539062 46.558594 C 116.386719 46.15625 117.234375 45.953125 118.074219 45.953125 C 118.980469 45.953125 119.695312 46.195312 120.242188 46.679688 C 120.792969 47.164062 121.066406 47.808594 121.066406 48.609375 C 121.066406 49.1875 120.925781 49.699219 120.652344 50.144531 C 120.378906 50.589844 119.863281 51.132812 119.113281 51.769531 L 118.621094 52.191406 C 117.589844 53.058594 117 53.890625 116.84375 54.683594 L 121.015625 54.683594 L 121.015625 55.808594 Z M 124.21875 55.847656 L 124.21875 54.703125 C 124.859375 54.960938 125.464844 55.089844 126.039062 55.089844 C 126.671875 55.089844 127.171875 54.902344 127.527344 54.527344 C 127.894531 54.15625 128.078125 53.644531 128.078125 52.988281 C 128.078125 51.546875 127.082031 50.824219 125.09375 50.824219 C 124.867188 50.824219 124.625 50.839844 124.386719 50.871094 L 124.386719 46.195312 L 129.25 46.195312 L 129.25 47.3125 L 125.507812 47.3125 L 125.507812 49.84375 C 126.738281 49.84375 127.703125 50.128906 128.402344 50.695312 C 129.09375 51.261719 129.441406 52.050781 129.441406 53.054688 C 129.441406 53.988281 129.125 54.722656 128.492188 55.253906 C 127.863281 55.785156 126.988281 56.050781 125.875 56.050781 C 125.382812 56.050781 124.835938 55.980469 124.21875 55.847656 Z M 133.882812 49.234375 C 133.359375 49.234375 132.917969 49.042969 132.542969 48.664062 C 132.167969 48.285156 131.976562 47.835938 131.976562 47.3125 C 131.976562 46.78125 132.167969 46.332031 132.542969 45.953125 C 132.917969 45.574219 133.375 45.386719 133.898438 45.386719 C 134.433594 45.386719 134.878906 45.574219 135.261719 45.953125 C 135.636719 46.332031 135.828125 46.78125 135.828125 47.3125 C 135.828125 47.847656 135.636719 48.300781 135.261719 48.675781 C 134.878906 49.046875 134.421875 49.234375 133.882812 49.234375 Z M 133.890625 48.433594 C 134.207031 48.433594 134.472656 48.324219 134.699219 48.105469 C 134.914062 47.886719 135.023438 47.621094 135.023438 47.3125 C 135.023438 47.003906 134.914062 46.738281 134.699219 46.519531 C 134.472656 46.300781 134.207031 46.195312 133.898438 46.195312 C 133.589844 46.195312 133.332031 46.300781 133.109375 46.519531 C 132.886719 46.738281 132.777344 47.003906 132.777344 47.3125 C 132.777344 47.617188 132.886719 47.882812 133.109375 48.101562 C 133.324219 48.324219 133.582031 48.433594 133.890625 48.433594 Z M 133.890625 48.433594 "/>
<path style=" stroke:none;fill-rule:nonzero;fill:rgb(100%,100%,100%);fill-opacity:1;" d="M 113.632812 55.808594 L 113.632812 54.683594 C 114.007812 53.816406 114.753906 52.867188 115.894531 51.839844 L 116.625 51.183594 C 117.574219 50.328125 118.039062 49.484375 118.039062 48.644531 C 118.039062 48.105469 117.882812 47.683594 117.558594 47.375 C 117.234375 47.070312 116.792969 46.914062 116.226562 46.914062 C 115.5625 46.914062 114.78125 47.171875 113.875 47.6875 L 113.875 46.558594 C 114.722656 46.15625 115.570312 45.953125 116.410156 45.953125 C 117.316406 45.953125 118.03125 46.195312 118.582031 46.679688 C 119.128906 47.164062 119.402344 47.808594 119.402344 48.609375 C 119.402344 49.1875 119.261719 49.699219 118.988281 50.144531 C 118.714844 50.589844 118.199219 51.132812 117.449219 51.769531 L 116.960938 52.191406 C 115.929688 53.058594 115.335938 53.890625 115.179688 54.683594 L 119.355469 54.683594 L 119.355469 55.808594 Z M 122.554688 55.847656 L 122.554688 54.703125 C 123.195312 54.960938 123.804688 55.089844 124.378906 55.089844 C 125.007812 55.089844 125.507812 54.902344 125.867188 54.527344 C 126.230469 54.15625 126.414062 53.644531 126.414062 52.988281 C 126.414062 51.546875 125.417969 50.824219 123.429688 50.824219 C 123.203125 50.824219 122.964844 50.839844 122.722656 50.871094 L 122.722656 46.195312 L 127.585938 46.195312 L 127.585938 47.3125 L 123.84375 47.3125 L 123.84375 49.84375 C 125.074219 49.84375 126.039062 50.128906 126.738281 50.695312 C 127.429688 51.261719 127.777344 52.050781 127.777344 53.054688 C 127.777344 53.988281 127.460938 54.722656 126.832031 55.253906 C 126.199219 55.785156 125.324219 56.050781 124.210938 56.050781 C 123.71875 56.050781 123.171875 55.980469 122.554688 55.847656 Z M 132.21875 49.234375 C 131.695312 49.234375 131.253906 49.042969 130.878906 48.664062 C 130.507812 48.285156 130.316406 47.835938 130.316406 47.3125 C 130.316406 46.78125 130.507812 46.332031 130.878906 45.953125 C 131.253906 45.574219 131.710938 45.386719 132.234375 45.386719 C 132.769531 45.386719 133.21875 45.574219 133.601562 45.953125 C 133.972656 46.332031 134.164062 46.78125 134.164062 47.3125 C 134.164062 47.847656 133.972656 48.300781 133.601562 48.675781 C 133.21875 49.046875 132.761719 49.234375 132.21875 49.234375 Z M 132.226562 48.433594 C 132.542969 48.433594 132.808594 48.324219 133.035156 48.105469 C 133.25 47.886719 133.359375 47.621094 133.359375 47.3125 C 133.359375 47.003906 133.25 46.738281 133.035156 46.519531 C 132.808594 46.300781 132.542969 46.195312 132.234375 46.195312 C 131.929688 46.195312 131.671875 46.300781 131.445312 46.519531 C 131.222656 46.738281 131.113281 47.003906 131.113281 47.3125 C 131.113281 47.617188 131.222656 47.882812 131.445312 48.101562 C 131.664062 48.324219 131.921875 48.433594 132.226562 48.433594 Z M 132.226562 48.433594 "/>
<path style=" stroke:none;fill-rule:nonzero;fill:rgb(100%,100%,100%);fill-opacity:1;" d="M 114.464844 56.640625 L 114.464844 55.515625 C 114.839844 54.644531 115.585938 53.699219 116.726562 52.671875 L 117.457031 52.015625 C 118.40625 51.160156 118.871094 50.3125 118.871094 49.472656 C 118.871094 48.9375 118.714844 48.515625 118.390625 48.207031 C 118.066406 47.898438 117.625 47.746094 117.058594 47.746094 C 116.394531 47.746094 115.613281 48.003906 114.707031 48.519531 L 114.707031 47.390625 C 115.554688 46.984375 116.402344 46.785156 117.242188 46.785156 C 118.148438 46.785156 118.863281 47.027344 119.414062 47.511719 C 119.960938 47.996094 120.234375 48.640625 120.234375 49.441406 C 120.234375 50.015625 120.09375 50.527344 119.820312 50.976562 C 119.546875 51.421875 119.03125 51.960938 118.28125 52.601562 L 117.789062 53.019531 C 116.757812 53.890625 116.167969 54.722656 116.011719 55.515625 L 120.1875 55.515625 L 120.1875 56.640625 Z M 123.386719 56.679688 L 123.386719 55.535156 C 124.027344 55.792969 124.636719 55.917969 125.207031 55.917969 C 125.839844 55.917969 126.339844 55.734375 126.699219 55.359375 C 127.0625 54.988281 127.246094 54.476562 127.246094 53.820312 C 127.246094 52.378906 126.25 51.65625 124.261719 51.65625 C 124.035156 51.65625 123.796875 51.671875 123.554688 51.703125 L 123.554688 47.023438 L 128.417969 47.023438 L 128.417969 48.140625 L 124.675781 48.140625 L 124.675781 50.675781 C 125.90625 50.675781 126.871094 50.960938 127.570312 51.527344 C 128.261719 52.09375 128.609375 52.878906 128.609375 53.886719 C 128.609375 54.820312 128.292969 55.554688 127.664062 56.085938 C 127.03125 56.617188 126.15625 56.882812 125.042969 56.882812 C 124.550781 56.882812 124.003906 56.8125 123.386719 56.679688 Z M 133.050781 50.066406 C 132.527344 50.066406 132.085938 49.875 131.710938 49.496094 C 131.339844 49.117188 131.148438 48.667969 131.148438 48.140625 C 131.148438 47.613281 131.339844 47.160156 131.710938 46.785156 C 132.085938 46.40625 132.542969 46.21875 133.066406 46.21875 C 133.601562 46.21875 134.050781 46.40625 134.433594 46.785156 C 134.804688 47.160156 134.996094 47.613281 134.996094 48.140625 C 134.996094 48.679688 134.804688 49.132812 134.433594 49.507812 C 134.050781 49.878906 133.589844 50.066406 133.050781 50.066406 Z M 133.058594 49.265625 C 133.375 49.265625 133.640625 49.15625 133.867188 48.9375 C 134.082031 48.71875 134.191406 48.453125 134.191406 48.140625 C 134.191406 47.835938 134.082031 47.570312 133.867188 47.351562 C 133.640625 47.132812 133.375 47.023438 133.066406 47.023438 C 132.761719 47.023438 132.503906 47.132812 132.277344 47.351562 C 132.054688 47.570312 131.945312 47.835938 131.945312 48.140625 C 131.945312 48.449219 132.054688 48.714844 132.277344 48.933594 C 132.492188 49.15625 132.75 49.265625 133.058594 49.265625 Z M 133.058594 49.265625 "/>
<path style=" stroke:none;fill-rule:nonzero;fill:rgb(100%,100%,100%);fill-opacity:1;" d="M 114.464844 54.976562 L 114.464844 53.851562 C 114.839844 52.984375 115.585938 52.035156 116.726562 51.007812 L 117.457031 50.351562 C 118.40625 49.496094 118.871094 48.652344 118.871094 47.8125 C 118.871094 47.273438 118.714844 46.851562 118.390625 46.542969 C 118.066406 46.238281 117.625 46.082031 117.058594 46.082031 C 116.394531 46.082031 115.613281 46.339844 114.707031 46.855469 L 114.707031 45.726562 C 115.554688 45.324219 116.402344 45.121094 117.242188 45.121094 C 118.148438 45.121094 118.863281 45.363281 119.414062 45.847656 C 119.960938 46.335938 120.234375 46.976562 120.234375 47.777344 C 120.234375 48.355469 120.09375 48.867188 119.820312 49.3125 C 119.546875 49.757812 119.03125 50.300781 118.28125 50.9375 L 117.789062 51.359375 C 116.757812 52.230469 116.167969 53.058594 116.011719 53.851562 L 120.1875 53.851562 L 120.1875 54.976562 Z M 123.386719 55.015625 L 123.386719 53.871094 C 124.027344 54.128906 124.636719 54.257812 125.207031 54.257812 C 125.839844 54.257812 126.339844 54.070312 126.699219 53.699219 C 127.0625 53.324219 127.246094 52.8125 127.246094 52.15625 C 127.246094 50.714844 126.25 49.996094 124.261719 49.996094 C 124.035156 49.996094 123.796875 50.007812 123.554688 50.039062 L 123.554688 45.363281 L 128.417969 45.363281 L 128.417969 46.480469 L 124.675781 46.480469 L 124.675781 49.011719 C 125.90625 49.011719 126.871094 49.296875 127.570312 49.863281 C 128.261719 50.433594 128.609375 51.21875 128.609375 52.222656 C 128.609375 53.15625 128.292969 53.890625 127.664062 54.421875 C 127.03125 54.953125 126.15625 55.21875 125.042969 55.21875 C 124.550781 55.21875 124.003906 55.148438 123.386719 55.015625 Z M 133.050781 48.402344 C 132.527344 48.402344 132.085938 48.214844 131.710938 47.832031 C 131.339844 47.453125 131.148438 47.003906 131.148438 46.480469 C 131.148438 45.949219 131.339844 45.5 131.710938 45.121094 C 132.085938 44.746094 132.542969 44.554688 133.066406 44.554688 C 133.601562 44.554688 134.050781 44.746094 134.433594 45.121094 C 134.804688 45.5 134.996094 45.949219 134.996094 46.480469 C 134.996094 47.015625 134.804688 47.472656 134.433594 47.84375 C 134.050781 48.214844 133.589844 48.402344 133.050781 48.402344 Z M 133.058594 47.601562 C 133.375 47.601562 133.640625 47.492188 133.867188 47.273438 C 134.082031 47.054688 134.191406 46.789062 134.191406 46.480469 C 134.191406 46.171875 134.082031 45.910156 133.867188 45.691406 C 133.640625 45.472656 133.375 45.363281 133.066406 45.363281 C 132.761719 45.363281 132.503906 45.472656 132.277344 45.691406 C 132.054688 45.910156 131.945312 46.171875 131.945312 46.480469 C 131.945312 46.785156 132.054688 47.050781 132.277344 47.273438 C 132.492188 47.492188 132.75 47.601562 133.058594 47.601562 Z M 133.058594 47.601562 "/>
<path style=" stroke:none;fill-rule:nonzero;fill:rgb(0%,0%,0%);fill-opacity:1;" d="M 114.464844 55.808594 L 114.464844 54.683594 C 114.839844 53.816406 115.585938 52.867188 116.726562 51.839844 L 117.457031 51.183594 C 118.40625 50.328125 118.871094 49.484375 118.871094 48.644531 C 118.871094 48.105469 118.714844 47.683594 118.390625 47.375 C 118.066406 47.070312 117.625 46.914062 117.058594 46.914062 C 116.394531 46.914062 115.613281 47.171875 114.707031 47.6875 L 114.707031 46.558594 C 115.554688 46.15625 116.402344 45.953125 117.242188 45.953125 C 118.148438 45.953125 118.863281 46.195312 119.414062 46.679688 C 119.960938 47.164062 120.234375 47.808594 120.234375 48.609375 C 120.234375 49.1875 120.09375 49.699219 119.820312 50.144531 C 119.546875 50.589844 119.03125 51.132812 118.28125 51.769531 L 117.789062 52.191406 C 116.757812 53.058594 116.167969 53.890625 116.011719 54.683594 L 120.1875 54.683594 L 120.1875 55.808594 Z M 123.386719 55.847656 L 123.386719 54.703125 C 124.027344 54.960938 124.636719 55.089844 125.207031 55.089844 C 125.839844 55.089844 126.339844 54.902344 126.699219 54.527344 C 127.0625 54.15625 127.246094 53.644531 127.246094 52.988281 C 127.246094 51.546875 126.25 50.824219 124.261719 50.824219 C 124.035156 50.824219 123.796875 50.839844 123.554688 50.871094 L 123.554688 46.195312 L 128.417969 46.195312 L 128.417969 47.3125 L 124.675781 47.3125 L 124.675781 49.84375 C 125.90625 49.84375 126.871094 50.128906 127.570312 50.695312 C 128.261719 51.261719 128.609375 52.050781 128.609375 53.054688 C 128.609375 53.988281 128.292969 54.722656 127.664062 55.253906 C 127.03125 55.785156 126.15625 56.050781 125.042969 56.050781 C 124.550781 56.050781 124.003906 55.980469 123.386719 55.847656 Z M 133.050781 49.234375 C 132.527344 49.234375 132.085938 49.042969 131.710938 48.664062 C 131.339844 48.285156 131.148438 47.835938 131.148438 47.3125 C 131.148438 46.78125 131.339844 46.332031 131.710938 45.953125 C 132.085938 45.574219 132.542969 45.386719 133.066406 45.386719 C 133.601562 45.386719 134.050781 45.574219 134.433594 45.953125 C 134.804688 46.332031 134.996094 46.78125 134.996094 47.3125 C 134.996094 47.847656 134.804688 48.300781 134.433594 48.675781 C 134.050781 49.046875 133.589844 49.234375 133.050781 49.234375 Z M 133.058594 48.433594 C 133.375 48.433594 133.640625 48.324219 133.867188 48.105469 C 134.082031 47.886719 134.191406 47.621094 134.191406 47.3125 C 134.191406 47.003906 134.082031 46.738281 133.867188 46.519531 C 133.640625 46.300781 133.375 46.195312 133.066406 46.195312 C 132.761719 46.195312 132.503906 46.300781 132.277344 46.519531 C 132.054688 46.738281 131.945312 47.003906 131.945312 47.3125 C 131.945312 47.617188 132.054688 47.882812 132.277344 48.101562 C 132.492188 48.324219 132.75 48.433594 133.058594 48.433594 Z M 133.058594 48.433594 "/>
<path style="fill:none;stroke-width:3.5;stroke-linecap:round;stroke-linejoin:round;stroke:rgb(0%,0%,0%);stroke-opacity:1;stroke-miterlimit:10;" d="M 351.158349 171.538815 L 351.158349 299.051717 " transform="matrix(0.831625,0,0,0.831625,-151.098612,0.0900561)"/>
<path style=" stroke:none;fill-rule:evenodd;fill:rgb(0%,0%,0%);fill-opacity:1;" d="M 140.933594 264.589844 L 136.984375 248.789062 L 144.886719 248.789062 Z M 140.933594 264.589844 "/>
<path style=" stroke:none;fill-rule:nonzero;fill:rgb(0%,0%,0%);fill-opacity:1;" d="M 131.808594 195.066406 L 128.351562 204.449219 C 128.1875 204.613281 128.0625 204.738281 127.980469 204.820312 C 127.898438 204.902344 127.777344 204.941406 127.609375 204.941406 C 127.445312 204.941406 127.324219 204.902344 127.242188 204.820312 C 127.160156 204.738281 127.117188 204.613281 127.117188 204.449219 L 124.402344 197.289062 L 121.6875 204.449219 C 121.6875 204.613281 121.644531 204.738281 121.5625 204.820312 C 121.480469 204.902344 121.355469 204.941406 121.191406 204.941406 C 121.027344 204.941406 120.902344 204.902344 120.820312 204.820312 C 120.738281 204.738281 120.617188 204.613281 120.453125 204.449219 L 116.75 194.574219 L 115.511719 194.574219 L 115.511719 193.832031 C 115.84375 193.832031 116.582031 193.832031 117.734375 193.832031 C 119.21875 193.832031 120.203125 193.832031 120.699219 193.832031 L 120.699219 194.574219 L 118.96875 194.574219 L 121.933594 201.734375 L 123.90625 196.300781 L 123.414062 194.574219 L 121.933594 194.574219 L 121.933594 193.832031 C 122.425781 193.832031 123.25 193.832031 124.402344 193.832031 C 125.882812 193.832031 126.789062 193.832031 127.117188 193.832031 L 127.117188 194.574219 L 125.636719 194.574219 L 128.351562 201.734375 L 131.066406 194.820312 C 130.902344 194.65625 130.410156 194.574219 129.585938 194.574219 L 129.585938 193.832031 C 129.914062 193.832031 130.65625 193.832031 131.808594 193.832031 C 131.972656 193.832031 132.46875 193.832031 133.289062 193.832031 L 133.289062 194.574219 C 132.960938 194.574219 132.714844 194.574219 132.550781 194.574219 C 132.21875 194.574219 132.054688 194.613281 132.054688 194.695312 C 132.054688 194.777344 131.972656 194.902344 131.808594 195.066406 Z M 131.808594 195.066406 "/>
<path style="fill:none;stroke-width:3.5;stroke-linecap:round;stroke-linejoin:round;stroke:rgb(100%,0%,0%);stroke-opacity:1;stroke-miterlimit:10;" d="M 352.249961 170.447718 L 477.821944 148.310337 " transform="matrix(0.831632,0,0,0.831632,-151.098612,0.0900561)"/>
<path style=" stroke:none;fill-rule:evenodd;fill:rgb(100%,0%,0%);fill-opacity:1;" d="M 261.832031 120.683594 L 246.960938 127.320312 L 245.589844 119.539062 Z M 261.832031 120.683594 "/>
<path style=" stroke:none;fill-rule:nonzero;fill:rgb(100%,0%,0%);fill-opacity:1;" d="M 241.71875 112.691406 L 241.71875 116.640625 L 243.445312 116.640625 L 243.445312 117.382812 C 243.117188 117.382812 242.210938 117.382812 240.730469 117.382812 C 239.25 117.382812 238.261719 117.382812 237.769531 117.382812 L 237.769531 116.640625 L 239.496094 116.640625 L 239.496094 107.257812 L 237.769531 107.257812 L 237.769531 106.519531 L 244.433594 106.519531 C 245.75 106.519531 246.78125 106.804688 247.519531 107.382812 C 248.261719 107.957031 248.632812 108.699219 248.632812 109.605469 C 248.632812 110.507812 248.261719 111.25 247.519531 111.824219 C 246.78125 112.402344 245.832031 112.691406 244.679688 112.691406 Z M 243.941406 111.949219 C 244.269531 111.949219 244.558594 111.910156 244.804688 111.824219 C 245.050781 111.742188 245.257812 111.703125 245.421875 111.703125 C 245.585938 111.703125 245.710938 111.621094 245.792969 111.457031 C 245.875 111.289062 245.957031 111.167969 246.039062 111.085938 C 246.121094 111.003906 246.164062 110.839844 246.164062 110.589844 C 246.164062 110.34375 246.164062 110.179688 246.164062 110.097656 C 246.164062 110.015625 246.164062 109.890625 246.164062 109.726562 C 246.164062 109.398438 246.164062 109.152344 246.164062 108.988281 C 246.164062 108.820312 246.164062 108.65625 246.164062 108.492188 C 246.164062 108.328125 246.121094 108.164062 246.039062 108 C 245.957031 107.835938 245.832031 107.710938 245.667969 107.628906 C 245.503906 107.546875 245.257812 107.464844 244.929688 107.382812 C 244.597656 107.300781 244.269531 107.257812 243.941406 107.257812 L 241.71875 107.257812 L 241.71875 111.949219 Z M 243.941406 111.949219 "/>
<path style="fill:none;stroke-width:3.5;stroke-linecap:round;stroke-linejoin:round;stroke:rgb(100%,0%,0%);stroke-opacity:1;stroke-miterlimit:10;" d="M 352.25184 170.451052 L 298.35787 54.88949 " transform="matrix(0.831639,0,0,0.831639,-151.098612,0.0900561)"/>
<path style=" stroke:none;fill-rule:evenodd;fill:rgb(100%,0%,0%);fill-opacity:1;" d="M 90.351562 31.417969 L 100.613281 44.066406 L 93.453125 47.40625 Z M 90.351562 31.417969 "/>
<path style=" stroke:none;fill-rule:nonzero;fill:rgb(100%,0%,0%);fill-opacity:1;" d="M 86.453125 61.023438 L 92.871094 68.429688 L 92.871094 62.011719 C 92.871094 61.847656 92.832031 61.722656 92.75 61.640625 C 92.667969 61.558594 92.542969 61.519531 92.378906 61.519531 C 92.050781 61.519531 91.722656 61.519531 91.390625 61.519531 L 91.144531 61.519531 L 91.144531 60.777344 C 91.472656 60.777344 92.132812 60.777344 93.121094 60.777344 C 94.273438 60.777344 95.011719 60.777344 95.34375 60.777344 L 95.34375 61.519531 L 94.847656 61.519531 C 94.683594 61.519531 94.4375 61.519531 94.105469 61.519531 C 93.941406 61.519531 93.820312 61.558594 93.738281 61.640625 C 93.65625 61.722656 93.613281 61.847656 93.613281 62.011719 L 93.613281 71.148438 C 93.613281 71.3125 93.613281 71.433594 93.613281 71.515625 C 93.613281 71.597656 93.449219 71.640625 93.121094 71.640625 C 93.121094 71.640625 93.078125 71.640625 92.996094 71.640625 C 92.914062 71.640625 92.871094 71.558594 92.871094 71.394531 L 84.972656 62.257812 L 84.972656 70.40625 C 84.972656 70.570312 84.972656 70.695312 84.972656 70.777344 C 84.972656 70.859375 85.136719 70.898438 85.464844 70.898438 C 85.628906 70.898438 85.878906 70.898438 86.207031 70.898438 L 86.699219 70.898438 L 86.699219 71.640625 C 86.207031 71.640625 85.464844 71.640625 84.480469 71.640625 C 83.492188 71.640625 82.75 71.640625 82.257812 71.640625 L 82.257812 70.898438 L 82.75 70.898438 C 83.078125 70.898438 83.410156 70.898438 83.738281 70.898438 C 83.902344 70.898438 83.984375 70.859375 83.984375 70.777344 C 83.984375 70.695312 83.984375 70.570312 83.984375 70.40625 L 83.984375 61.519531 L 82.257812 61.519531 L 82.257812 60.777344 L 85.960938 60.777344 C 86.125 60.777344 86.246094 60.777344 86.332031 60.777344 C 86.414062 60.777344 86.453125 60.859375 86.453125 61.023438 Z M 86.453125 61.023438 "/>
<path style="fill-rule:nonzero;fill:rgb(0%,0%,0%);fill-opacity:1;stroke-width:1;stroke-linecap:round;stroke-linejoin:round;stroke:rgb(0%,0%,0%);stroke-opacity:1;stroke-miterlimit:10;" d="M 357.251342 170.449688 C 357.251342 173.211533 355.010866 175.452008 352.249022 175.452008 C 349.491875 175.452008 347.251399 173.211533 347.251399 170.449688 C 347.251399 167.687844 349.491875 165.452065 352.249022 165.452065 C 355.010866 165.452065 357.251342 167.687844 357.251342 170.449688 Z M 357.251342 170.449688 " transform="matrix(0.831645,0,0,0.831645,-151.098612,0.0900561)"/>
<g clip-path="url(#clip35)" clip-rule="nonzero">
<path style="fill-rule:nonzero;fill:rgb(30.195618%,30.195618%,100%);fill-opacity:1;stroke-width:1;stroke-linecap:round;stroke-linejoin:round;stroke:rgb(0%,0%,0%);stroke-opacity:1;stroke-miterlimit:10;" d="M 503.760605 23.940425 C 503.760605 26.70227 501.520129 28.942745 498.758285 28.942745 C 496.001138 28.942745 493.760662 26.70227 493.760662 23.940425 C 493.760662 21.178581 496.001138 18.942802 498.758285 18.942802 C 501.520129 18.942802 503.760605 21.178581 503.760605 23.940425 Z M 503.760605 23.940425 " transform="matrix(0.831645,0,0,0.831645,-151.098612,0.0900561)"/>
</g>
<g clip-path="url(#clip36)" clip-rule="nonzero">
<path style="fill-rule:nonzero;fill:rgb(30.195618%,30.195618%,100%);fill-opacity:1;stroke-width:1;stroke-linecap:round;stroke-linejoin:round;stroke:rgb(0%,0%,0%);stroke-opacity:1;stroke-miterlimit:10;" d="M 210.742079 316.958951 C 210.742079 319.720795 208.501604 321.961271 205.739759 321.961271 C 202.977915 321.961271 200.742136 319.720795 200.742136 316.958951 C 200.742136 314.201804 202.977915 311.961328 205.739759 311.961328 C 208.501604 311.961328 210.742079 314.201804 210.742079 316.958951 Z M 210.742079 316.958951 " transform="matrix(0.831645,0,0,0.831645,-151.098612,0.0900561)"/>
</g>
</g>
</svg>
