<?xml version="1.0" encoding="UTF-8" standalone="no"?>
<svg
   xmlns:dc="http://purl.org/dc/elements/1.1/"
   xmlns:cc="http://creativecommons.org/ns#"
   xmlns:rdf="http://www.w3.org/1999/02/22-rdf-syntax-ns#"
   xmlns:svg="http://www.w3.org/2000/svg"
   xmlns="http://www.w3.org/2000/svg"
   xmlns:sodipodi="http://sodipodi.sourceforge.net/DTD/sodipodi-0.dtd"
   xmlns:inkscape="http://www.inkscape.org/namespaces/inkscape"
   width="10.054167cm"
   height="10.054167cm"
   viewBox="0 0 285 285"
   version="1.1"
   id="svg315"
   sodipodi:docname="inclinedplanefbd.svg"
   inkscape:version="0.92.2 5c3e80d, 2017-08-06">
  <metadata
     id="metadata319">
    <rdf:RDF>
      <cc:Work
         rdf:about="">
        <dc:format>image/svg+xml</dc:format>
        <dc:type
           rdf:resource="http://purl.org/dc/dcmitype/StillImage" />
        <dc:title></dc:title>
      </cc:Work>
    </rdf:RDF>
  </metadata>
  <sodipodi:namedview
     pagecolor="#ffffff"
     bordercolor="#666666"
     borderopacity="1"
     objecttolerance="10"
     gridtolerance="10"
     guidetolerance="10"
     inkscape:pageopacity="0"
     inkscape:pageshadow="2"
     inkscape:window-width="640"
     inkscape:window-height="480"
     id="namedview317"
     showgrid="false"
     units="cm"
     inkscape:zoom="0.62105263"
     inkscape:cx="190"
     inkscape:cy="190"
     inkscape:window-x="0"
     inkscape:window-y="94"
     inkscape:window-maximized="0"
     inkscape:current-layer="svg315" />
  <defs
     id="defs110">
    <clipPath
       id="clip1">
      <path
         d="M 20,20 H 264 V 263 H 20 Z m 0,0"
         id="path2"
         inkscape:connector-curvature="0" />
    </clipPath>
    <clipPath
       id="clip2">
      <path
         d="m 20,20 h 1 v 245 h -1 z m 0,0"
         id="path5"
         inkscape:connector-curvature="0" />
    </clipPath>
    <clipPath
       id="clip3">
      <path
         d="m 263,20 h 2 v 245 h -2 z m 0,0"
         id="path8"
         inkscape:connector-curvature="0" />
    </clipPath>
    <clipPath
       id="clip4">
      <path
         d="m 43,20 h 2 v 245 h -2 z m 0,0"
         id="path11"
         inkscape:connector-curvature="0" />
    </clipPath>
    <clipPath
       id="clip5">
      <path
         d="m 68,20 h 2 v 245 h -2 z m 0,0"
         id="path14"
         inkscape:connector-curvature="0" />
    </clipPath>
    <clipPath
       id="clip6">
      <path
         d="m 92,20 h 2 v 245 h -2 z m 0,0"
         id="path17"
         inkscape:connector-curvature="0" />
    </clipPath>
    <clipPath
       id="clip7">
      <path
         d="m 117,20 h 1 v 245 h -1 z m 0,0"
         id="path20"
         inkscape:connector-curvature="0" />
    </clipPath>
    <clipPath
       id="clip8">
      <path
         d="m 165,20 h 2 v 245 h -2 z m 0,0"
         id="path23"
         inkscape:connector-curvature="0" />
    </clipPath>
    <clipPath
       id="clip9">
      <path
         d="m 190,20 h 1 v 245 h -1 z m 0,0"
         id="path26"
         inkscape:connector-curvature="0" />
    </clipPath>
    <clipPath
       id="clip10">
      <path
         d="m 214,20 h 2 v 245 h -2 z m 0,0"
         id="path29"
         inkscape:connector-curvature="0" />
    </clipPath>
    <clipPath
       id="clip11">
      <path
         d="m 238,20 h 2 v 245 h -2 z m 0,0"
         id="path32"
         inkscape:connector-curvature="0" />
    </clipPath>
    <clipPath
       id="clip12">
      <path
         d="m 20,20 h 245 v 1 H 20 Z m 0,0"
         id="path35"
         inkscape:connector-curvature="0" />
    </clipPath>
    <clipPath
       id="clip13">
      <path
         d="m 20,263 h 245 v 2 H 20 Z m 0,0"
         id="path38"
         inkscape:connector-curvature="0" />
    </clipPath>
    <clipPath
       id="clip14">
      <path
         d="m 20,20 h 245 v 1 H 20 Z m 0,0"
         id="path41"
         inkscape:connector-curvature="0" />
    </clipPath>
    <clipPath
       id="clip15">
      <path
         d="m 20,43 h 245 v 2 H 20 Z m 0,0"
         id="path44"
         inkscape:connector-curvature="0" />
    </clipPath>
    <clipPath
       id="clip16">
      <path
         d="m 20,68 h 245 v 2 H 20 Z m 0,0"
         id="path47"
         inkscape:connector-curvature="0" />
    </clipPath>
    <clipPath
       id="clip17">
      <path
         d="m 20,92 h 245 v 2 H 20 Z m 0,0"
         id="path50"
         inkscape:connector-curvature="0" />
    </clipPath>
    <clipPath
       id="clip18">
      <path
         d="m 20,117 h 245 v 1 H 20 Z m 0,0"
         id="path53"
         inkscape:connector-curvature="0" />
    </clipPath>
    <clipPath
       id="clip19">
      <path
         d="m 20,165 h 245 v 2 H 20 Z m 0,0"
         id="path56"
         inkscape:connector-curvature="0" />
    </clipPath>
    <clipPath
       id="clip20">
      <path
         d="m 20,190 h 245 v 1 H 20 Z m 0,0"
         id="path59"
         inkscape:connector-curvature="0" />
    </clipPath>
    <clipPath
       id="clip21">
      <path
         d="m 20,214 h 245 v 2 H 20 Z m 0,0"
         id="path62"
         inkscape:connector-curvature="0" />
    </clipPath>
    <clipPath
       id="clip22">
      <path
         d="m 20,238 h 245 v 2 H 20 Z m 0,0"
         id="path65"
         inkscape:connector-curvature="0" />
    </clipPath>
    <clipPath
       id="clip23">
      <path
         d="m 141,20 h 2 v 245 h -2 z m 0,0"
         id="path68"
         inkscape:connector-curvature="0" />
    </clipPath>
    <clipPath
       id="clip24">
      <path
         d="m 20,141 h 245 v 2 H 20 Z m 0,0"
         id="path71"
         inkscape:connector-curvature="0" />
    </clipPath>
    <clipPath
       id="clip25">
      <path
         d="m 20,147 h 7 v 8 h -7 z m 0,0"
         id="path74"
         inkscape:connector-curvature="0" />
    </clipPath>
    <clipPath
       id="clip26">
      <path
         d="m 20,147 h 5 v 8 h -5 z m 0,0"
         id="path77"
         inkscape:connector-curvature="0" />
    </clipPath>
    <clipPath
       id="clip27">
      <path
         d="m 20,148 h 6 v 8 h -6 z m 0,0"
         id="path80"
         inkscape:connector-curvature="0" />
    </clipPath>
    <clipPath
       id="clip28">
      <path
         d="m 20,146 h 6 v 8 h -6 z m 0,0"
         id="path83"
         inkscape:connector-curvature="0" />
    </clipPath>
    <clipPath
       id="clip29">
      <path
         d="m 20,147 h 6 v 8 h -6 z m 0,0"
         id="path86"
         inkscape:connector-curvature="0" />
    </clipPath>
    <clipPath
       id="clip30">
      <path
         d="m 263,147 h 2 v 8 h -2 z m 0,0"
         id="path89"
         inkscape:connector-curvature="0" />
    </clipPath>
    <clipPath
       id="clip31">
      <path
         d="m 262,147 h 3 v 8 h -3 z m 0,0"
         id="path92"
         inkscape:connector-curvature="0" />
    </clipPath>
    <clipPath
       id="clip32">
      <path
         d="m 262,148 h 3 v 8 h -3 z m 0,0"
         id="path95"
         inkscape:connector-curvature="0" />
    </clipPath>
    <clipPath
       id="clip33">
      <path
         d="m 262,146 h 3 v 8 h -3 z m 0,0"
         id="path98"
         inkscape:connector-curvature="0" />
    </clipPath>
    <clipPath
       id="clip34">
      <path
         d="m 262,147 h 3 v 8 h -3 z m 0,0"
         id="path101"
         inkscape:connector-curvature="0" />
    </clipPath>
    <clipPath
       id="clip35">
      <path
         d="m 259,20 h 6 v 5 h -6 z m 0,0"
         id="path104"
         inkscape:connector-curvature="0" />
    </clipPath>
    <clipPath
       id="clip36">
      <path
         d="m 20,259 h 5 v 6 h -5 z m 0,0"
         id="path107"
         inkscape:connector-curvature="0" />
    </clipPath>
  </defs>
  <g
     id="surface1">
    <g
       clip-path="url(#clip1)"
       id="g114"
       style="clip-rule:nonzero">
      <path
         style="fill:#ffffff;fill-opacity:1;fill-rule:nonzero;stroke:none"
         d="M 19.382812,19.21875 H 263.05078 V 262.88281 H 19.382812 Z m 0,0"
         id="path112"
         inkscape:connector-curvature="0" />
    </g>
    <g
       clip-path="url(#clip2)"
       id="g118"
       style="clip-rule:nonzero">
      <path
         style="fill:none;stroke:#bfbfbf;stroke-width:1;stroke-linecap:round;stroke-linejoin:round;stroke-miterlimit:10;stroke-opacity:1"
         d="M 205.74,-2.55294e-4 V 389.00169"
         transform="matrix(0.831625,0,0,0.831625,-151.09861,0.0900561)"
         id="path116"
         inkscape:connector-curvature="0" />
    </g>
    <g
       clip-path="url(#clip3)"
       id="g122"
       style="clip-rule:nonzero">
      <path
         style="fill:none;stroke:#bfbfbf;stroke-width:1;stroke-linecap:round;stroke-linejoin:round;stroke-miterlimit:10;stroke-opacity:1"
         d="M 498.76086,-2.55294e-4 V 389.00169"
         transform="matrix(0.831625,0,0,0.831625,-151.09861,0.0900561)"
         id="path120"
         inkscape:connector-curvature="0" />
    </g>
    <g
       clip-path="url(#clip4)"
       id="g126"
       style="clip-rule:nonzero">
      <path
         style="fill:none;stroke:#bfbfbf;stroke-width:1;stroke-linecap:round;stroke-linejoin:round;stroke-miterlimit:10;stroke-opacity:0.23528999"
         d="M 235.04068,-2.55294e-4 V 389.00169"
         transform="matrix(0.831625,0,0,0.831625,-151.09861,0.0900561)"
         id="path124"
         inkscape:connector-curvature="0" />
    </g>
    <g
       clip-path="url(#clip5)"
       id="g130"
       style="clip-rule:nonzero">
      <path
         style="fill:none;stroke:#bfbfbf;stroke-width:1;stroke-linecap:round;stroke-linejoin:round;stroke-miterlimit:10;stroke-opacity:0.23528999"
         d="M 264.34135,-2.55294e-4 V 389.00169"
         transform="matrix(0.831625,0,0,0.831625,-151.09861,0.0900561)"
         id="path128"
         inkscape:connector-curvature="0" />
    </g>
    <g
       clip-path="url(#clip6)"
       id="g134"
       style="clip-rule:nonzero">
      <path
         style="fill:none;stroke:#bfbfbf;stroke-width:1;stroke-linecap:round;stroke-linejoin:round;stroke-miterlimit:10;stroke-opacity:0.23528999"
         d="M 293.65143,-2.55294e-4 V 389.00169"
         transform="matrix(0.831625,0,0,0.831625,-151.09861,0.0900561)"
         id="path132"
         inkscape:connector-curvature="0" />
    </g>
    <g
       clip-path="url(#clip7)"
       id="g138"
       style="clip-rule:nonzero">
      <path
         style="fill:none;stroke:#bfbfbf;stroke-width:1;stroke-linecap:round;stroke-linejoin:round;stroke-miterlimit:10;stroke-opacity:0.23528999"
         d="M 322.9521,-2.55294e-4 V 389.00169"
         transform="matrix(0.831625,0,0,0.831625,-151.09861,0.0900561)"
         id="path136"
         inkscape:connector-curvature="0" />
    </g>
    <g
       clip-path="url(#clip8)"
       id="g142"
       style="clip-rule:nonzero">
      <path
         style="fill:none;stroke:#bfbfbf;stroke-width:1;stroke-linecap:round;stroke-linejoin:round;stroke-miterlimit:10;stroke-opacity:0.23528999"
         d="M 381.54876,-2.55294e-4 V 389.00169"
         transform="matrix(0.831625,0,0,0.831625,-151.09861,0.0900561)"
         id="path140"
         inkscape:connector-curvature="0" />
    </g>
    <g
       clip-path="url(#clip9)"
       id="g146"
       style="clip-rule:nonzero">
      <path
         style="fill:none;stroke:#bfbfbf;stroke-width:1;stroke-linecap:round;stroke-linejoin:round;stroke-miterlimit:10;stroke-opacity:0.23528999"
         d="M 410.84944,-2.55294e-4 V 389.00169"
         transform="matrix(0.831625,0,0,0.831625,-151.09861,0.0900561)"
         id="path144"
         inkscape:connector-curvature="0" />
    </g>
    <g
       clip-path="url(#clip10)"
       id="g150"
       style="clip-rule:nonzero">
      <path
         style="fill:none;stroke:#bfbfbf;stroke-width:1;stroke-linecap:round;stroke-linejoin:round;stroke-miterlimit:10;stroke-opacity:0.23528999"
         d="M 440.15951,-2.55294e-4 V 389.00169"
         transform="matrix(0.831625,0,0,0.831625,-151.09861,0.0900561)"
         id="path148"
         inkscape:connector-curvature="0" />
    </g>
    <g
       clip-path="url(#clip11)"
       id="g154"
       style="clip-rule:nonzero">
      <path
         style="fill:none;stroke:#bfbfbf;stroke-width:1;stroke-linecap:round;stroke-linejoin:round;stroke-miterlimit:10;stroke-opacity:0.23528999"
         d="M 469.46018,-2.55294e-4 V 389.00169"
         transform="matrix(0.831625,0,0,0.831625,-151.09861,0.0900561)"
         id="path152"
         inkscape:connector-curvature="0" />
    </g>
    <g
       clip-path="url(#clip12)"
       id="g160"
       style="clip-rule:nonzero">
      <path
         style="fill:none;stroke:#bfbfbf;stroke-width:1;stroke-linecap:round;stroke-linejoin:round;stroke-miterlimit:10;stroke-opacity:1"
         d="M 0.00114908,23.941 H 890.99913"
         transform="matrix(0.831625,0,0,0.831625,-151.09861,0.0900561)"
         id="path156"
         inkscape:connector-curvature="0" />
      <path
         style="fill:none;stroke:#bfbfbf;stroke-width:1;stroke-linecap:round;stroke-linejoin:round;stroke-miterlimit:10;stroke-opacity:1"
         d="M 0.00114908,23.941 H 890.99913"
         transform="matrix(0.831625,0,0,0.831625,-151.09861,0.0900561)"
         id="path158"
         inkscape:connector-curvature="0" />
    </g>
    <g
       clip-path="url(#clip13)"
       id="g164"
       style="clip-rule:nonzero">
      <path
         style="fill:none;stroke:#bfbfbf;stroke-width:1;stroke-linecap:round;stroke-linejoin:round;stroke-miterlimit:10;stroke-opacity:1"
         d="M 0.00114908,316.96186 H 890.99913"
         transform="matrix(0.831625,0,0,0.831625,-151.09861,0.0900561)"
         id="path162"
         inkscape:connector-curvature="0" />
    </g>
    <g
       clip-path="url(#clip14)"
       id="g168"
       style="clip-rule:nonzero">
      <path
         style="fill:none;stroke:#bfbfbf;stroke-width:1;stroke-linecap:round;stroke-linejoin:round;stroke-miterlimit:10;stroke-opacity:0.23528999"
         d="M 0.00114908,23.941 H 890.99913"
         transform="matrix(0.831625,0,0,0.831625,-151.09861,0.0900561)"
         id="path166"
         inkscape:connector-curvature="0" />
    </g>
    <g
       clip-path="url(#clip15)"
       id="g172"
       style="clip-rule:nonzero">
      <path
         style="fill:none;stroke:#bfbfbf;stroke-width:1;stroke-linecap:round;stroke-linejoin:round;stroke-miterlimit:10;stroke-opacity:0.23528999"
         d="M 0.00114908,53.241677 H 890.99913"
         transform="matrix(0.831625,0,0,0.831625,-151.09861,0.0900561)"
         id="path170"
         inkscape:connector-curvature="0" />
    </g>
    <g
       clip-path="url(#clip16)"
       id="g176"
       style="clip-rule:nonzero">
      <path
         style="fill:none;stroke:#bfbfbf;stroke-width:1;stroke-linecap:round;stroke-linejoin:round;stroke-miterlimit:10;stroke-opacity:0.23528999"
         d="M 0.00114908,82.547051 H 890.99913"
         transform="matrix(0.831625,0,0,0.831625,-151.09861,0.0900561)"
         id="path174"
         inkscape:connector-curvature="0" />
    </g>
    <g
       clip-path="url(#clip17)"
       id="g180"
       style="clip-rule:nonzero">
      <path
         style="fill:none;stroke:#bfbfbf;stroke-width:1;stroke-linecap:round;stroke-linejoin:round;stroke-miterlimit:10;stroke-opacity:0.23528999"
         d="M 0.00114908,111.84773 H 890.99913"
         transform="matrix(0.831625,0,0,0.831625,-151.09861,0.0900561)"
         id="path178"
         inkscape:connector-curvature="0" />
    </g>
    <g
       clip-path="url(#clip18)"
       id="g184"
       style="clip-rule:nonzero">
      <path
         style="fill:none;stroke:#bfbfbf;stroke-width:1;stroke-linecap:round;stroke-linejoin:round;stroke-miterlimit:10;stroke-opacity:0.23528999"
         d="M 0.00114908,141.1484 H 890.99913"
         transform="matrix(0.831625,0,0,0.831625,-151.09861,0.0900561)"
         id="path182"
         inkscape:connector-curvature="0" />
    </g>
    <g
       clip-path="url(#clip19)"
       id="g188"
       style="clip-rule:nonzero">
      <path
         style="fill:none;stroke:#bfbfbf;stroke-width:1;stroke-linecap:round;stroke-linejoin:round;stroke-miterlimit:10;stroke-opacity:0.23528999"
         d="M 0.00114908,199.74976 H 890.99913"
         transform="matrix(0.831625,0,0,0.831625,-151.09861,0.0900561)"
         id="path186"
         inkscape:connector-curvature="0" />
    </g>
    <g
       clip-path="url(#clip20)"
       id="g192"
       style="clip-rule:nonzero">
      <path
         style="fill:none;stroke:#bfbfbf;stroke-width:1;stroke-linecap:round;stroke-linejoin:round;stroke-miterlimit:10;stroke-opacity:0.23528999"
         d="M 0.00114908,229.05044 H 890.99913"
         transform="matrix(0.831625,0,0,0.831625,-151.09861,0.0900561)"
         id="path190"
         inkscape:connector-curvature="0" />
    </g>
    <g
       clip-path="url(#clip21)"
       id="g196"
       style="clip-rule:nonzero">
      <path
         style="fill:none;stroke:#bfbfbf;stroke-width:1;stroke-linecap:round;stroke-linejoin:round;stroke-miterlimit:10;stroke-opacity:0.23528999"
         d="M 0.00114908,258.36051 H 890.99913"
         transform="matrix(0.831625,0,0,0.831625,-151.09861,0.0900561)"
         id="path194"
         inkscape:connector-curvature="0" />
    </g>
    <g
       clip-path="url(#clip22)"
       id="g200"
       style="clip-rule:nonzero">
      <path
         style="fill:none;stroke:#bfbfbf;stroke-width:1;stroke-linecap:round;stroke-linejoin:round;stroke-miterlimit:10;stroke-opacity:0.23528999"
         d="M 0.00114908,287.66118 H 890.99913"
         transform="matrix(0.831625,0,0,0.831625,-151.09861,0.0900561)"
         id="path198"
         inkscape:connector-curvature="0" />
    </g>
    <g
       clip-path="url(#clip23)"
       id="g204"
       style="clip-rule:nonzero">
      <path
         style="fill:none;stroke:#000000;stroke-width:1;stroke-linecap:butt;stroke-linejoin:miter;stroke-miterlimit:10;stroke-opacity:1"
         d="M 352.24808,2.000721 V 389.00169"
         transform="matrix(0.831625,0,0,0.831625,-151.09861,0.0900561)"
         id="path202"
         inkscape:connector-curvature="0" />
    </g>
    <g
       clip-path="url(#clip24)"
       id="g208"
       style="clip-rule:nonzero">
      <path
         style="fill:none;stroke:#000000;stroke-width:1;stroke-linecap:butt;stroke-linejoin:miter;stroke-miterlimit:10;stroke-opacity:1"
         d="M 0.00114908,170.44908 H 888.99816"
         transform="matrix(0.831625,0,0,0.831625,-151.09861,0.0900561)"
         id="path206"
         inkscape:connector-curvature="0" />
    </g>
    <g
       clip-path="url(#clip25)"
       id="g212"
       style="clip-rule:nonzero">
      <path
         style="fill:#ffffff;fill-opacity:1;fill-rule:nonzero;stroke:none"
         d="m 16.574219,152.12891 v -0.66797 h 3.957031 v 0.66797 z m 5.96875,2.64453 v -0.72266 h 1.449219 v -5.69141 l -1.449219,0.35938 v -0.74219 l 2.414062,-0.59765 v 6.67187 h 1.4375 v 0.72266 z m 0,0"
         id="path210"
         inkscape:connector-curvature="0" />
    </g>
    <g
       clip-path="url(#clip26)"
       id="g216"
       style="clip-rule:nonzero">
      <path
         style="fill:#ffffff;fill-opacity:1;fill-rule:nonzero;stroke:none"
         d="m 14.910156,152.12891 v -0.66797 h 3.957032 v 0.66797 z m 5.972656,2.64453 v -0.72266 h 1.445313 v -5.69141 l -1.445313,0.35938 v -0.74219 l 2.410157,-0.59765 v 6.67187 h 1.4375 v 0.72266 z m 0,0"
         id="path214"
         inkscape:connector-curvature="0" />
    </g>
    <g
       clip-path="url(#clip27)"
       id="g220"
       style="clip-rule:nonzero">
      <path
         style="fill:#ffffff;fill-opacity:1;fill-rule:nonzero;stroke:none"
         d="m 15.742188,152.96094 v -0.66797 h 3.957031 v 0.66797 z m 5.972656,2.64453 v -0.72656 h 1.445312 v -5.6875 l -1.445312,0.35937 v -0.74219 L 24.125,148.21094 v 6.66797 h 1.4375 v 0.72656 z m 0,0"
         id="path218"
         inkscape:connector-curvature="0" />
    </g>
    <g
       clip-path="url(#clip28)"
       id="g224"
       style="clip-rule:nonzero">
      <path
         style="fill:#ffffff;fill-opacity:1;fill-rule:nonzero;stroke:none"
         d="m 15.742188,151.29687 v -0.66406 h 3.957031 v 0.66406 z m 5.972656,2.64454 v -0.72266 h 1.445312 v -5.69141 l -1.445312,0.35938 v -0.74219 L 24.125,146.54687 v 6.67188 h 1.4375 v 0.72266 z m 0,0"
         id="path222"
         inkscape:connector-curvature="0" />
    </g>
    <g
       clip-path="url(#clip29)"
       id="g228"
       style="clip-rule:nonzero">
      <path
         style="fill:#000000;fill-opacity:1;fill-rule:nonzero;stroke:none"
         d="m 15.742188,152.12891 v -0.66797 h 3.957031 v 0.66797 z m 5.972656,2.64453 v -0.72266 h 1.445312 v -5.69141 l -1.445312,0.35938 v -0.74219 L 24.125,147.37891 v 6.67187 h 1.4375 v 0.72266 z m 0,0"
         id="path226"
         inkscape:connector-curvature="0" />
    </g>
    <g
       clip-path="url(#clip30)"
       id="g232"
       style="clip-rule:nonzero">
      <path
         style="fill:#ffffff;fill-opacity:1;fill-rule:nonzero;stroke:none"
         d="m 263.71484,154.77344 v -0.72266 h 1.44922 v -5.69141 l -1.44922,0.35938 v -0.74219 l 2.41407,-0.59765 v 6.67187 h 1.4375 v 0.72266 z m 0,0"
         id="path230"
         inkscape:connector-curvature="0" />
    </g>
    <g
       clip-path="url(#clip31)"
       id="g236"
       style="clip-rule:nonzero">
      <path
         style="fill:#ffffff;fill-opacity:1;fill-rule:nonzero;stroke:none"
         d="m 262.05469,154.77344 v -0.72266 H 263.5 v -5.69141 l -1.44531,0.35938 v -0.74219 l 2.41015,-0.59765 v 6.67187 h 1.4375 v 0.72266 z m 0,0"
         id="path234"
         inkscape:connector-curvature="0" />
    </g>
    <g
       clip-path="url(#clip32)"
       id="g240"
       style="clip-rule:nonzero">
      <path
         style="fill:#ffffff;fill-opacity:1;fill-rule:nonzero;stroke:none"
         d="m 262.88281,155.60547 v -0.72656 h 1.44922 v -5.6875 l -1.44922,0.35937 v -0.74219 l 2.41406,-0.59765 v 6.66797 h 1.4375 v 0.72656 z m 0,0"
         id="path238"
         inkscape:connector-curvature="0" />
    </g>
    <g
       clip-path="url(#clip33)"
       id="g244"
       style="clip-rule:nonzero">
      <path
         style="fill:#ffffff;fill-opacity:1;fill-rule:nonzero;stroke:none"
         d="m 262.88281,153.94141 v -0.72266 h 1.44922 v -5.69141 l -1.44922,0.35938 v -0.74219 l 2.41406,-0.59766 v 6.67188 h 1.4375 v 0.72266 z m 0,0"
         id="path242"
         inkscape:connector-curvature="0" />
    </g>
    <g
       clip-path="url(#clip34)"
       id="g248"
       style="clip-rule:nonzero">
      <path
         style="fill:#000000;fill-opacity:1;fill-rule:nonzero;stroke:none"
         d="m 262.88281,154.77344 v -0.72266 h 1.44922 v -5.69141 l -1.44922,0.35938 v -0.74219 l 2.41406,-0.59765 v 6.67187 h 1.4375 v 0.72266 z m 0,0"
         id="path246"
         inkscape:connector-curvature="0" />
    </g>
    <path
       style="fill:#ffffff;fill-opacity:1;fill-rule:nonzero;stroke:none"
       d="m 133.11719,154.95703 c -0.73828,0 -1.34766,-0.35156 -1.80469,-1.05859 -0.45703,-0.69922 -0.69141,-1.61328 -0.69141,-2.73438 0,-1.14062 0.23438,-2.05469 0.69922,-2.74609 0.45703,-0.69141 1.07422,-1.03906 1.83203,-1.03906 0.75391,0 1.36328,0.34765 1.82813,1.03906 0.45703,0.6914 0.6914,1.60547 0.6914,2.73047 0,1.15234 -0.23437,2.07812 -0.6914,2.76562 -0.46485,0.69141 -1.08203,1.04297 -1.86328,1.04297 z m 0.008,-0.72656 c 1.02344,0 1.53125,-1.03125 1.53125,-3.10156 0,-2.01954 -0.50781,-3.02735 -1.50391,-3.02735 -1.00781,0 -1.50781,1.02344 -1.50781,3.0625 0,2.04297 0.5,3.06641 1.48047,3.06641 z m 0,0"
       id="path250"
       inkscape:connector-curvature="0" />
    <path
       style="fill:#ffffff;fill-opacity:1;fill-rule:nonzero;stroke:none"
       d="m 131.45312,154.95703 c -0.73828,0 -1.34765,-0.35156 -1.80468,-1.05859 -0.45703,-0.69922 -0.6875,-1.61328 -0.6875,-2.73438 0,-1.14062 0.23047,-2.05469 0.69531,-2.74609 0.46094,-0.69141 1.07422,-1.03906 1.83203,-1.03906 0.75781,0 1.36328,0.34765 1.82813,1.03906 0.45703,0.6914 0.6914,1.60547 0.6914,2.73047 0,1.15234 -0.23437,2.07812 -0.6914,2.76562 -0.46485,0.69141 -1.08204,1.04297 -1.86329,1.04297 z m 0.008,-0.72656 c 1.02343,0 1.53125,-1.03125 1.53125,-3.10156 0,-2.01954 -0.50782,-3.02735 -1.50391,-3.02735 -1.00781,0 -1.50391,1.02344 -1.50391,3.0625 0,2.04297 0.4961,3.06641 1.47657,3.06641 z m 0,0"
       id="path252"
       inkscape:connector-curvature="0" />
    <path
       style="fill:#ffffff;fill-opacity:1;fill-rule:nonzero;stroke:none"
       d="m 132.28516,155.78516 c -0.73829,0 -1.34766,-0.34766 -1.80469,-1.05469 -0.45703,-0.69922 -0.6875,-1.61328 -0.6875,-2.73438 0,-1.14062 0.23047,-2.05468 0.69531,-2.74609 0.45703,-0.69141 1.07422,-1.03906 1.83203,-1.03906 0.75391,0 1.36328,0.34765 1.82813,1.03906 0.45703,0.69141 0.6914,1.60547 0.6914,2.72656 0,1.15625 -0.23437,2.08203 -0.6914,2.76953 -0.46485,0.69141 -1.08203,1.03907 -1.86328,1.03907 z m 0.008,-0.72266 c 1.02344,0 1.53125,-1.03125 1.53125,-3.10156 0,-2.01953 -0.50781,-3.02735 -1.50391,-3.02735 -1.00781,0 -1.50781,1.02344 -1.50781,3.0625 0,2.04297 0.5,3.06641 1.48047,3.06641 z m 0,0"
       id="path254"
       inkscape:connector-curvature="0" />
    <path
       style="fill:#ffffff;fill-opacity:1;fill-rule:nonzero;stroke:none"
       d="m 132.28516,154.125 c -0.73829,0 -1.34766,-0.35156 -1.80469,-1.05859 -0.45703,-0.69922 -0.6875,-1.61329 -0.6875,-2.73438 0,-1.14062 0.23047,-2.05469 0.69531,-2.74609 0.45703,-0.6875 1.07422,-1.03907 1.83203,-1.03907 0.75391,0 1.36328,0.35157 1.82813,1.03907 0.45703,0.6914 0.6914,1.60547 0.6914,2.73047 0,1.15625 -0.23437,2.07812 -0.6914,2.76953 -0.46485,0.6875 -1.08203,1.03906 -1.86328,1.03906 z m 0.008,-0.72656 c 1.02344,0 1.53125,-1.03125 1.53125,-3.10157 0,-2.01953 -0.50781,-3.02734 -1.50391,-3.02734 -1.00781,0 -1.50781,1.02344 -1.50781,3.0625 0,2.04688 0.5,3.06641 1.48047,3.06641 z m 0,0"
       id="path256"
       inkscape:connector-curvature="0" />
    <path
       style="fill:#000000;fill-opacity:1;fill-rule:nonzero;stroke:none"
       d="m 132.28516,154.95703 c -0.73829,0 -1.34766,-0.35156 -1.80469,-1.05859 -0.45703,-0.69922 -0.6875,-1.61328 -0.6875,-2.73438 0,-1.14062 0.23047,-2.05469 0.69531,-2.74609 0.45703,-0.69141 1.07422,-1.03906 1.83203,-1.03906 0.75391,0 1.36328,0.34765 1.82813,1.03906 0.45703,0.6914 0.6914,1.60547 0.6914,2.73047 0,1.15234 -0.23437,2.07812 -0.6914,2.76562 -0.46485,0.69141 -1.08203,1.04297 -1.86328,1.04297 z m 0.008,-0.72656 c 1.02344,0 1.53125,-1.03125 1.53125,-3.10156 0,-2.01954 -0.50781,-3.02735 -1.50391,-3.02735 -1.00781,0 -1.50781,1.02344 -1.50781,3.0625 0,2.04297 0.5,3.06641 1.48047,3.06641 z m 0,0"
       id="path258"
       inkscape:connector-curvature="0" />
    <path
       style="fill:#000000;fill-opacity:0.24706002;fill-rule:evenodd;stroke:#000000;stroke-width:1;stroke-linecap:round;stroke-linejoin:round;stroke-miterlimit:10;stroke-opacity:0.69803999"
       d="m 372.29072,115.37997 -75.11175,35.03117 35.03117,75.10706 75.11175,-35.02648 z m 0,0"
       transform="matrix(0.831625,0,0,0.831625,-151.09861,0.0900561)"
       id="path260"
       inkscape:connector-curvature="0" />
    <path
       style="fill:none;stroke:#000000;stroke-width:1;stroke-linecap:round;stroke-linejoin:round;stroke-miterlimit:10;stroke-opacity:0.8"
       d="m 412.24918,170.44908 c 0,-3.48996 -0.31001,-6.97993 -0.91124,-10.41823 l -59.08986,10.41823 z m 0,0"
       transform="matrix(0.831625,0,0,0.831625,-151.09861,0.0900561)"
       id="path262"
       inkscape:connector-curvature="0" />
    <path
       style="fill:#ffffff;fill-opacity:1;fill-rule:nonzero;stroke:none"
       d="M 232.62109,141.46484 V 140.5 h 1.92188 v -7.58203 l -1.92188,0.48047 v -0.98828 l 3.21094,-0.79688 V 140.5 h 1.92188 v 0.96484 z m 10.57813,0.24219 c -0.98828,0 -1.78906,-0.46484 -2.40235,-1.39844 -0.61718,-0.9375 -0.92187,-2.15234 -0.92187,-3.65625 0,-1.51562 0.30469,-2.73828 0.92969,-3.66015 0.61718,-0.92188 1.42968,-1.37891 2.4375,-1.37891 1.0039,0 1.82031,0.45703 2.4375,1.37891 0.62109,0.92187 0.92968,2.13672 0.92968,3.64062 0,1.53906 -0.30859,2.76953 -0.92968,3.69531 -0.61719,0.92188 -1.44141,1.37891 -2.48047,1.37891 z m 0.0156,-0.96484 c 1.35547,0 2.03125,-1.3711 2.03125,-4.13282 0,-2.69531 -0.66406,-4.04296 -2.0039,-4.04296 -1.33203,0 -2.00391,1.36718 -2.00391,4.08593 0,2.72657 0.66406,4.08985 1.97656,4.08985 z m 7.09375,-5.85547 c -0.52343,0 -0.96484,-0.17969 -1.33593,-0.5625 -0.375,-0.38281 -0.56641,-0.83203 -0.56641,-1.35547 0,-0.52734 0.19141,-0.98438 0.56641,-1.35547 0.37109,-0.375 0.83203,-0.56641 1.35546,-0.56641 0.53125,0 0.98047,0.19141 1.36329,0.56641 0.375,0.37109 0.5664,0.82813 0.5664,1.35547 0,0.53906 -0.1914,0.98828 -0.5664,1.36328 -0.38282,0.375 -0.83985,0.55469 -1.38282,0.55469 z m 0.0117,-0.79688 c 0.3125,0 0.58203,-0.10937 0.80469,-0.32422 0.21484,-0.21484 0.32422,-0.48437 0.32422,-0.79687 0,-0.30859 -0.10938,-0.56641 -0.32422,-0.79297 -0.22266,-0.21484 -0.49219,-0.32422 -0.79688,-0.32422 -0.30859,0 -0.5664,0.10938 -0.79296,0.32422 -0.22266,0.22656 -0.33204,0.48438 -0.33204,0.79297 0,0.30469 0.10938,0.57031 0.33204,0.78906 0.21875,0.22266 0.47656,0.33203 0.78515,0.33203 z m 0,0"
       id="path264"
       inkscape:connector-curvature="0" />
    <path
       style="fill:#ffffff;fill-opacity:1;fill-rule:nonzero;stroke:none"
       d="M 230.95703,141.46484 V 140.5 h 1.92188 v -7.58203 l -1.92188,0.48047 v -0.98828 l 3.21094,-0.79688 V 140.5 h 1.92187 v 0.96484 z m 10.57813,0.24219 c -0.98829,0 -1.78516,-0.46484 -2.40235,-1.39844 -0.61328,-0.9375 -0.92187,-2.15234 -0.92187,-3.65625 0,-1.51562 0.30859,-2.73828 0.92968,-3.66015 0.61719,-0.92188 1.42969,-1.37891 2.4375,-1.37891 1.00782,0 1.82032,0.45703 2.4375,1.37891 0.6211,0.92187 0.92969,2.13672 0.92969,3.64062 0,1.53906 -0.30859,2.76953 -0.92969,3.69531 -0.61718,0.92188 -1.4375,1.37891 -2.48046,1.37891 z m 0.0195,-0.96484 c 1.35547,0 2.02734,-1.3711 2.02734,-4.13282 0,-2.69531 -0.66406,-4.04296 -2.00391,-4.04296 -1.33203,0 -2.0039,1.36718 -2.0039,4.08593 0,2.72657 0.66406,4.08985 1.98047,4.08985 z m 7.09375,-5.85547 c -0.52344,0 -0.96485,-0.17969 -1.33985,-0.5625 -0.375,-0.38281 -0.5664,-0.83203 -0.5664,-1.35547 0,-0.52734 0.1914,-0.98438 0.5664,-1.35547 0.375,-0.375 0.83203,-0.56641 1.35547,-0.56641 0.53125,0 0.98047,0.19141 1.36328,0.56641 0.375,0.37109 0.56641,0.82813 0.56641,1.35547 0,0.53906 -0.19141,0.98828 -0.56641,1.36328 -0.38281,0.375 -0.83984,0.55469 -1.3789,0.55469 z m 0.008,-0.79688 c 0.31641,0 0.58203,-0.10937 0.80469,-0.32422 0.21875,-0.21484 0.32422,-0.48437 0.32422,-0.79687 0,-0.30859 -0.10547,-0.56641 -0.32422,-0.79297 -0.22266,-0.21484 -0.48828,-0.32422 -0.79688,-0.32422 -0.30859,0 -0.5664,0.10938 -0.78906,0.32422 -0.22656,0.22656 -0.33203,0.48438 -0.33203,0.79297 0,0.30469 0.10547,0.57031 0.33203,0.78906 0.21484,0.22266 0.47266,0.33203 0.78125,0.33203 z m 0,0"
       id="path266"
       inkscape:connector-curvature="0" />
    <path
       style="fill:#ffffff;fill-opacity:1;fill-rule:nonzero;stroke:none"
       d="m 231.78906,142.29687 v -0.96484 h 1.92188 V 133.75 l -1.92188,0.48047 v -0.98828 L 235,132.44141 v 8.89062 h 1.92187 v 0.96484 z m 10.57813,0.24219 c -0.98828,0 -1.78516,-0.46484 -2.40235,-1.39844 -0.61718,-0.9375 -0.92187,-2.15234 -0.92187,-3.65625 0,-1.51562 0.30469,-2.73828 0.92969,-3.66015 0.61718,-0.92188 1.42968,-1.38281 2.4375,-1.38281 1.00781,0 1.82031,0.46093 2.4375,1.38281 0.62109,0.92187 0.92968,2.13672 0.92968,3.64062 0,1.53907 -0.30859,2.76953 -0.92968,3.69532 -0.61719,0.92187 -1.44141,1.3789 -2.48047,1.3789 z m 0.0195,-0.96484 c 1.35547,0 2.02734,-1.3711 2.02734,-4.13281 0,-2.69532 -0.66406,-4.04297 -2.0039,-4.04297 -1.33204,0 -2.00391,1.36328 -2.00391,4.08593 0,2.72657 0.66406,4.08985 1.98047,4.08985 z m 7.09375,-5.85547 c -0.52735,0 -0.96485,-0.18359 -1.33985,-0.5625 -0.375,-0.38281 -0.5664,-0.83203 -0.5664,-1.35938 0,-0.52343 0.1914,-0.98046 0.5664,-1.35546 0.375,-0.3711 0.83204,-0.5625 1.35547,-0.5625 0.53125,0 0.98047,0.1914 1.36328,0.5625 0.375,0.375 0.56641,0.83203 0.56641,1.35546 0,0.54297 -0.19141,0.99219 -0.56641,1.36719 -0.38281,0.3711 -0.83984,0.55469 -1.3789,0.55469 z m 0.008,-0.79688 c 0.31641,0 0.58203,-0.10937 0.80469,-0.32421 0.21875,-0.21485 0.32422,-0.48438 0.32422,-0.80079 0,-0.30468 -0.10547,-0.5625 -0.32422,-0.78906 -0.22266,-0.21484 -0.48828,-0.32422 -0.79688,-0.32422 -0.30859,0 -0.5664,0.10938 -0.78906,0.32422 -0.22656,0.22656 -0.33594,0.48438 -0.33594,0.78906 0,0.3086 0.10938,0.57422 0.33594,0.79297 0.21484,0.22266 0.47266,0.33203 0.78125,0.33203 z m 0,0"
       id="path268"
       inkscape:connector-curvature="0" />
    <path
       style="fill:#ffffff;fill-opacity:1;fill-rule:nonzero;stroke:none"
       d="m 231.78906,140.63281 v -0.96094 h 1.92188 v -7.58593 l -1.92188,0.48047 v -0.98829 L 235,130.78125 v 8.89062 h 1.92187 v 0.96094 z m 10.57813,0.24219 c -0.98828,0 -1.78516,-0.46484 -2.40235,-1.39453 -0.61718,-0.94141 -0.92187,-2.15625 -0.92187,-3.66016 0,-1.51562 0.30469,-2.73828 0.92969,-3.66015 0.61718,-0.92188 1.42968,-1.37891 2.4375,-1.37891 1.00781,0 1.82031,0.45703 2.4375,1.37891 0.62109,0.92187 0.92968,2.13671 0.92968,3.64453 0,1.53515 -0.30859,2.76953 -0.92968,3.6914 -0.61719,0.92188 -1.44141,1.37891 -2.48047,1.37891 z m 0.0195,-0.96484 c 1.35547,0 2.02734,-1.3711 2.02734,-4.13282 0,-2.69531 -0.66406,-4.03906 -2.0039,-4.03906 -1.33204,0 -2.00391,1.36328 -2.00391,4.08203 0,2.72656 0.66406,4.08985 1.98047,4.08985 z m 7.09375,-5.85547 c -0.52735,0 -0.96485,-0.17969 -1.33985,-0.5625 -0.375,-0.38282 -0.5664,-0.83203 -0.5664,-1.35547 0,-0.52344 0.1914,-0.98438 0.5664,-1.35547 0.375,-0.375 0.83204,-0.56641 1.35547,-0.56641 0.53125,0 0.98047,0.19141 1.36328,0.56641 0.375,0.37109 0.56641,0.83203 0.56641,1.35547 0,0.53906 -0.19141,0.98828 -0.56641,1.36328 -0.38281,0.375 -0.83984,0.55469 -1.3789,0.55469 z m 0.008,-0.79688 c 0.31641,0 0.58203,-0.10937 0.80469,-0.32422 0.21875,-0.21484 0.32422,-0.48047 0.32422,-0.79687 0,-0.3086 -0.10547,-0.56641 -0.32422,-0.79297 -0.22266,-0.21484 -0.48828,-0.32422 -0.79688,-0.32422 -0.30859,0 -0.5664,0.10938 -0.78906,0.32422 -0.22656,0.22656 -0.33594,0.48437 -0.33594,0.79297 0,0.30469 0.10938,0.57422 0.33594,0.78906 0.21484,0.22266 0.47266,0.33203 0.78125,0.33203 z m 0,0"
       id="path270"
       inkscape:connector-curvature="0" />
    <path
       style="fill:#000000;fill-opacity:1;fill-rule:nonzero;stroke:none"
       d="M 231.78906,141.46484 V 140.5 h 1.92188 v -7.58203 l -1.92188,0.48047 v -0.98828 L 235,131.61328 V 140.5 h 1.92187 v 0.96484 z m 10.57813,0.24219 c -0.98828,0 -1.78516,-0.46484 -2.40235,-1.39844 -0.61718,-0.9375 -0.92187,-2.15234 -0.92187,-3.65625 0,-1.51562 0.30469,-2.73828 0.92969,-3.66015 0.61718,-0.92188 1.42968,-1.37891 2.4375,-1.37891 1.00781,0 1.82031,0.45703 2.4375,1.37891 0.62109,0.92187 0.92968,2.13672 0.92968,3.64062 0,1.53906 -0.30859,2.76953 -0.92968,3.69531 -0.61719,0.92188 -1.44141,1.37891 -2.48047,1.37891 z m 0.0195,-0.96484 c 1.35547,0 2.02734,-1.3711 2.02734,-4.13282 0,-2.69531 -0.66406,-4.04296 -2.0039,-4.04296 -1.33204,0 -2.00391,1.36718 -2.00391,4.08593 0,2.72657 0.66406,4.08985 1.98047,4.08985 z m 7.09375,-5.85547 c -0.52735,0 -0.96485,-0.17969 -1.33985,-0.5625 -0.375,-0.38281 -0.5664,-0.83203 -0.5664,-1.35547 0,-0.52734 0.1914,-0.98438 0.5664,-1.35547 0.375,-0.375 0.83204,-0.56641 1.35547,-0.56641 0.53125,0 0.98047,0.19141 1.36328,0.56641 0.375,0.37109 0.56641,0.82813 0.56641,1.35547 0,0.53906 -0.19141,0.98828 -0.56641,1.36328 -0.38281,0.375 -0.83984,0.55469 -1.3789,0.55469 z m 0.008,-0.79688 c 0.31641,0 0.58203,-0.10937 0.80469,-0.32422 0.21875,-0.21484 0.32422,-0.48437 0.32422,-0.79687 0,-0.30859 -0.10547,-0.56641 -0.32422,-0.79297 -0.22266,-0.21484 -0.48828,-0.32422 -0.79688,-0.32422 -0.30859,0 -0.5664,0.10938 -0.78906,0.32422 -0.22656,0.22656 -0.33594,0.48438 -0.33594,0.79297 0,0.30469 0.10938,0.57031 0.33594,0.78906 0.21484,0.22266 0.47266,0.33203 0.78125,0.33203 z m 0,0"
       id="path272"
       inkscape:connector-curvature="0" />
    <path
       style="fill:none;stroke:#000000;stroke-width:1;stroke-linecap:round;stroke-linejoin:round;stroke-miterlimit:10;stroke-opacity:0.8"
       d="m 352.24808,110.44798 c -8.76014,0 -17.41694,1.92113 -25.35979,5.62247 l 25.35979,54.37863 z m 0,0"
       transform="matrix(0.831625,0,0,0.831625,-151.09861,0.0900561)"
       id="path274"
       inkscape:connector-curvature="0" />
    <path
       style="fill:#ffffff;fill-opacity:1;fill-rule:nonzero;stroke:none"
       d="m 115.29688,55.808594 v -1.125 c 0.375,-0.867188 1.12109,-1.816406 2.26171,-2.84375 l 0.73047,-0.65625 c 0.94922,-0.855469 1.41407,-1.699219 1.41407,-2.539063 0,-0.539062 -0.15625,-0.960937 -0.48047,-1.269531 -0.32422,-0.304688 -0.76563,-0.460938 -1.33203,-0.460938 -0.66407,0 -1.44532,0.257813 -2.35157,0.773438 v -1.128906 c 0.84766,-0.402344 1.69532,-0.605469 2.53516,-0.605469 0.90625,0 1.62109,0.242187 2.16797,0.726563 0.55078,0.484374 0.82422,1.128906 0.82422,1.929687 0,0.578125 -0.14063,1.089844 -0.41407,1.535156 -0.27343,0.445313 -0.78906,0.988281 -1.53906,1.625 l -0.49219,0.421875 c -1.03125,0.867188 -1.62109,1.699219 -1.77734,2.492188 h 4.17188 v 1.125 z m 8.92187,0.03906 v -1.144531 c 0.64063,0.257813 1.24609,0.386719 1.82031,0.386719 0.63282,0 1.13282,-0.1875 1.48828,-0.5625 0.36719,-0.371094 0.55078,-0.882813 0.55078,-1.539063 0,-1.441406 -0.99609,-2.164062 -2.98437,-2.164062 -0.22656,0 -0.46875,0.01563 -0.70703,0.04687 V 46.195312 H 129.25 V 47.3125 h -3.74219 v 2.53125 c 1.23047,0 2.19532,0.285156 2.89453,0.851562 0.69141,0.566407 1.03907,1.355469 1.03907,2.359376 0,0.933593 -0.31641,1.667968 -0.94922,2.199218 -0.62891,0.53125 -1.50391,0.796875 -2.61719,0.796875 -0.49219,0 -1.03906,-0.07031 -1.65625,-0.203125 z m 9.66406,-6.613281 c -0.52344,0 -0.96484,-0.191406 -1.33984,-0.570313 -0.375,-0.378906 -0.56641,-0.828124 -0.56641,-1.351562 0,-0.53125 0.19141,-0.980469 0.56641,-1.359375 0.375,-0.378906 0.83203,-0.566406 1.35547,-0.566406 0.53515,0 0.98047,0.1875 1.36328,0.566406 0.375,0.378906 0.5664,0.828125 0.5664,1.359375 0,0.535156 -0.1914,0.988281 -0.5664,1.363281 -0.38281,0.371094 -0.83985,0.558594 -1.37891,0.558594 z m 0.008,-0.800781 c 0.31641,0 0.58204,-0.109375 0.8086,-0.328125 0.21484,-0.21875 0.32422,-0.484375 0.32422,-0.792969 0,-0.308594 -0.10938,-0.574219 -0.32422,-0.792969 -0.22656,-0.21875 -0.49219,-0.324219 -0.80078,-0.324219 -0.3086,0 -0.56641,0.105469 -0.78907,0.324219 -0.22265,0.21875 -0.33203,0.484375 -0.33203,0.792969 0,0.304688 0.10938,0.570312 0.33203,0.789062 0.21485,0.222657 0.47266,0.332032 0.78125,0.332032 z m 0,0"
       id="path276"
       inkscape:connector-curvature="0" />
    <path
       style="fill:#ffffff;fill-opacity:1;fill-rule:nonzero;stroke:none"
       d="m 113.63281,55.808594 v -1.125 c 0.375,-0.867188 1.1211,-1.816406 2.26172,-2.84375 l 0.73047,-0.65625 c 0.94922,-0.855469 1.41406,-1.699219 1.41406,-2.539063 0,-0.539062 -0.15625,-0.960937 -0.48047,-1.269531 -0.32421,-0.304688 -0.76562,-0.460938 -1.33203,-0.460938 -0.66406,0 -1.44531,0.257813 -2.35156,0.773438 v -1.128906 c 0.84766,-0.402344 1.69531,-0.605469 2.53516,-0.605469 0.90625,0 1.62109,0.242187 2.17187,0.726563 0.54688,0.484374 0.82031,1.128906 0.82031,1.929687 0,0.578125 -0.14062,1.089844 -0.41406,1.535156 -0.27344,0.445313 -0.78906,0.988281 -1.53906,1.625 l -0.48828,0.421875 c -1.03125,0.867188 -1.625,1.699219 -1.78125,2.492188 h 4.17578 v 1.125 z m 8.92188,0.03906 v -1.144531 c 0.64062,0.257813 1.25,0.386719 1.82422,0.386719 0.6289,0 1.1289,-0.1875 1.48828,-0.5625 0.36328,-0.371094 0.54687,-0.882813 0.54687,-1.539063 0,-1.441406 -0.99609,-2.164062 -2.98437,-2.164062 -0.22656,0 -0.46485,0.01563 -0.70703,0.04687 v -4.675782 h 4.86328 V 47.3125 h -3.74219 v 2.53125 c 1.23047,0 2.19531,0.285156 2.89453,0.851562 0.69141,0.566407 1.03906,1.355469 1.03906,2.359376 0,0.933593 -0.3164,1.667968 -0.94531,2.199218 -0.63281,0.53125 -1.50781,0.796875 -2.62109,0.796875 -0.49219,0 -1.03906,-0.07031 -1.65625,-0.203125 z m 9.66406,-6.613281 c -0.52344,0 -0.96484,-0.191406 -1.33984,-0.570313 -0.3711,-0.378906 -0.5625,-0.828124 -0.5625,-1.351562 0,-0.53125 0.1914,-0.980469 0.5625,-1.359375 0.375,-0.378906 0.83203,-0.566406 1.35546,-0.566406 0.53516,0 0.98438,0.1875 1.36719,0.566406 0.3711,0.378906 0.5625,0.828125 0.5625,1.359375 0,0.535156 -0.1914,0.988281 -0.5625,1.363281 -0.38281,0.371094 -0.83984,0.558594 -1.38281,0.558594 z m 0.008,-0.800781 c 0.31641,0 0.58203,-0.109375 0.8086,-0.328125 0.21484,-0.21875 0.32421,-0.484375 0.32421,-0.792969 0,-0.308594 -0.10937,-0.574219 -0.32421,-0.792969 -0.22657,-0.21875 -0.49219,-0.324219 -0.80079,-0.324219 -0.30468,0 -0.5625,0.105469 -0.78906,0.324219 -0.22265,0.21875 -0.33203,0.484375 -0.33203,0.792969 0,0.304688 0.10938,0.570312 0.33203,0.789062 0.21875,0.222657 0.47656,0.332032 0.78125,0.332032 z m 0,0"
       id="path278"
       inkscape:connector-curvature="0" />
    <path
       style="fill:#ffffff;fill-opacity:1;fill-rule:nonzero;stroke:none"
       d="m 114.46484,56.640625 v -1.125 c 0.375,-0.871094 1.1211,-1.816406 2.26172,-2.84375 l 0.73047,-0.65625 c 0.94922,-0.855469 1.41406,-1.703125 1.41406,-2.542969 0,-0.535156 -0.15625,-0.957031 -0.48046,-1.265625 -0.32422,-0.308593 -0.76563,-0.460937 -1.33204,-0.460937 -0.66406,0 -1.44531,0.257812 -2.35156,0.773437 v -1.128906 c 0.84766,-0.40625 1.69531,-0.605469 2.53516,-0.605469 0.90625,0 1.62109,0.242188 2.17187,0.726563 0.54688,0.484375 0.82032,1.128906 0.82032,1.929687 0,0.574219 -0.14063,1.085938 -0.41407,1.535156 -0.27343,0.445313 -0.78906,0.984376 -1.53906,1.625 l -0.49219,0.417969 c -1.03125,0.871094 -1.62109,1.703125 -1.77734,2.496094 h 4.17578 v 1.125 z m 8.92188,0.03906 v -1.144532 c 0.64062,0.257813 1.25,0.382813 1.82031,0.382813 0.63281,0 1.13281,-0.183594 1.49219,-0.558594 0.36328,-0.371094 0.54687,-0.882813 0.54687,-1.539063 0,-1.441406 -0.99609,-2.164062 -2.98437,-2.164062 -0.22656,0 -0.46484,0.01563 -0.70703,0.04687 v -4.679687 h 4.86328 v 1.117187 h -3.74219 v 2.535156 c 1.23047,0 2.19531,0.285157 2.89453,0.851563 0.69141,0.566406 1.03906,1.351562 1.03906,2.359375 0,0.933593 -0.3164,1.667969 -0.94531,2.199219 -0.63281,0.53125 -1.50781,0.796874 -2.62109,0.796874 -0.49219,0 -1.03906,-0.07031 -1.65625,-0.203124 z m 9.66406,-6.613282 c -0.52344,0 -0.96484,-0.191406 -1.33984,-0.570312 -0.3711,-0.378906 -0.5625,-0.828125 -0.5625,-1.355469 0,-0.527344 0.1914,-0.980469 0.5625,-1.355469 0.375,-0.378906 0.83203,-0.566406 1.35547,-0.566406 0.53515,0 0.98437,0.1875 1.36718,0.566406 0.3711,0.375 0.5625,0.828125 0.5625,1.355469 0,0.539063 -0.1914,0.992187 -0.5625,1.367187 -0.38281,0.371094 -0.84375,0.558594 -1.38281,0.558594 z m 0.008,-0.800781 c 0.31641,0 0.58203,-0.109375 0.8086,-0.328125 0.21484,-0.21875 0.32422,-0.484375 0.32422,-0.796875 0,-0.304687 -0.10938,-0.570313 -0.32422,-0.789063 -0.22657,-0.21875 -0.49219,-0.328124 -0.80078,-0.328124 -0.30469,0 -0.5625,0.109374 -0.78907,0.328124 -0.22265,0.21875 -0.33203,0.484376 -0.33203,0.789063 0,0.308594 0.10938,0.574219 0.33203,0.792969 0.21485,0.222656 0.47266,0.332031 0.78125,0.332031 z m 0,0"
       id="path280"
       inkscape:connector-curvature="0" />
    <path
       style="fill:#ffffff;fill-opacity:1;fill-rule:nonzero;stroke:none"
       d="m 114.46484,54.976562 v -1.125 c 0.375,-0.867187 1.1211,-1.816406 2.26172,-2.84375 l 0.73047,-0.65625 c 0.94922,-0.855468 1.41406,-1.699218 1.41406,-2.539062 0,-0.539062 -0.15625,-0.960938 -0.48046,-1.269531 -0.32422,-0.304688 -0.76563,-0.460938 -1.33204,-0.460938 -0.66406,0 -1.44531,0.257813 -2.35156,0.773438 v -1.128907 c 0.84766,-0.402343 1.69531,-0.605468 2.53516,-0.605468 0.90625,0 1.62109,0.242187 2.17187,0.726562 0.54688,0.488282 0.82032,1.128906 0.82032,1.929688 0,0.578125 -0.14063,1.089844 -0.41407,1.535156 -0.27343,0.445312 -0.78906,0.988281 -1.53906,1.625 l -0.49219,0.421875 c -1.03125,0.871094 -1.62109,1.699219 -1.77734,2.492187 h 4.17578 v 1.125 z m 8.92188,0.03906 v -1.144531 c 0.64062,0.257812 1.25,0.386718 1.82031,0.386718 0.63281,0 1.13281,-0.1875 1.49219,-0.558593 0.36328,-0.375 0.54687,-0.886719 0.54687,-1.542969 0,-1.441406 -0.99609,-2.160156 -2.98437,-2.160156 -0.22656,0 -0.46484,0.01172 -0.70703,0.04297 v -4.675781 h 4.86328 v 1.117188 h -3.74219 v 2.53125 c 1.23047,0 2.19531,0.285156 2.89453,0.851562 0.69141,0.570313 1.03906,1.355469 1.03906,2.359375 0,0.933594 -0.3164,1.667969 -0.94531,2.199219 -0.63281,0.53125 -1.50781,0.796875 -2.62109,0.796875 -0.49219,0 -1.03906,-0.07031 -1.65625,-0.203125 z m 9.66406,-6.613281 c -0.52344,0 -0.96484,-0.1875 -1.33984,-0.570313 -0.3711,-0.378906 -0.5625,-0.828125 -0.5625,-1.351562 0,-0.53125 0.1914,-0.980469 0.5625,-1.359375 0.375,-0.375 0.83203,-0.566406 1.35547,-0.566406 0.53515,0 0.98437,0.191406 1.36718,0.566406 0.3711,0.378906 0.5625,0.828125 0.5625,1.359375 0,0.535156 -0.1914,0.992187 -0.5625,1.363281 -0.38281,0.371094 -0.84375,0.558594 -1.38281,0.558594 z m 0.008,-0.800782 c 0.31641,0 0.58203,-0.109374 0.8086,-0.328124 0.21484,-0.21875 0.32422,-0.484376 0.32422,-0.792969 0,-0.308594 -0.10938,-0.570313 -0.32422,-0.789063 -0.22657,-0.21875 -0.49219,-0.328125 -0.80078,-0.328125 -0.30469,0 -0.5625,0.109375 -0.78907,0.328125 -0.22265,0.21875 -0.33203,0.480469 -0.33203,0.789063 0,0.304687 0.10938,0.570312 0.33203,0.792969 0.21485,0.21875 0.47266,0.328124 0.78125,0.328124 z m 0,0"
       id="path282"
       inkscape:connector-curvature="0" />
    <path
       style="fill:#000000;fill-opacity:1;fill-rule:nonzero;stroke:none"
       d="m 114.46484,55.808594 v -1.125 c 0.375,-0.867188 1.1211,-1.816406 2.26172,-2.84375 l 0.73047,-0.65625 c 0.94922,-0.855469 1.41406,-1.699219 1.41406,-2.539063 0,-0.539062 -0.15625,-0.960937 -0.48046,-1.269531 -0.32422,-0.304688 -0.76563,-0.460938 -1.33204,-0.460938 -0.66406,0 -1.44531,0.257813 -2.35156,0.773438 v -1.128906 c 0.84766,-0.402344 1.69531,-0.605469 2.53516,-0.605469 0.90625,0 1.62109,0.242187 2.17187,0.726563 0.54688,0.484374 0.82032,1.128906 0.82032,1.929687 0,0.578125 -0.14063,1.089844 -0.41407,1.535156 -0.27343,0.445313 -0.78906,0.988281 -1.53906,1.625 l -0.49219,0.421875 c -1.03125,0.867188 -1.62109,1.699219 -1.77734,2.492188 h 4.17578 v 1.125 z m 8.92188,0.03906 v -1.144531 c 0.64062,0.257813 1.25,0.386719 1.82031,0.386719 0.63281,0 1.13281,-0.1875 1.49219,-0.5625 0.36328,-0.371094 0.54687,-0.882813 0.54687,-1.539063 0,-1.441406 -0.99609,-2.164062 -2.98437,-2.164062 -0.22656,0 -0.46484,0.01563 -0.70703,0.04687 v -4.675782 h 4.86328 V 47.3125 h -3.74219 v 2.53125 c 1.23047,0 2.19531,0.285156 2.89453,0.851562 0.69141,0.566407 1.03906,1.355469 1.03906,2.359376 0,0.933593 -0.3164,1.667968 -0.94531,2.199218 -0.63281,0.53125 -1.50781,0.796875 -2.62109,0.796875 -0.49219,0 -1.03906,-0.07031 -1.65625,-0.203125 z m 9.66406,-6.613281 c -0.52344,0 -0.96484,-0.191406 -1.33984,-0.570313 -0.3711,-0.378906 -0.5625,-0.828124 -0.5625,-1.351562 0,-0.53125 0.1914,-0.980469 0.5625,-1.359375 0.375,-0.378906 0.83203,-0.566406 1.35547,-0.566406 0.53515,0 0.98437,0.1875 1.36718,0.566406 0.3711,0.378906 0.5625,0.828125 0.5625,1.359375 0,0.535156 -0.1914,0.988281 -0.5625,1.363281 -0.38281,0.371094 -0.84375,0.558594 -1.38281,0.558594 z m 0.008,-0.800781 c 0.31641,0 0.58203,-0.109375 0.8086,-0.328125 0.21484,-0.21875 0.32422,-0.484375 0.32422,-0.792969 0,-0.308594 -0.10938,-0.574219 -0.32422,-0.792969 -0.22657,-0.21875 -0.49219,-0.324219 -0.80078,-0.324219 -0.30469,0 -0.5625,0.105469 -0.78907,0.324219 -0.22265,0.21875 -0.33203,0.484375 -0.33203,0.792969 0,0.304688 0.10938,0.570312 0.33203,0.789062 0.21485,0.222657 0.47266,0.332032 0.78125,0.332032 z m 0,0"
       id="path284"
       inkscape:connector-curvature="0" />
    <path
       style="fill:none;stroke:#000000;stroke-width:3.5;stroke-linecap:round;stroke-linejoin:round;stroke-miterlimit:10;stroke-opacity:1"
       d="M 351.15835,171.53881 V 299.05172"
       transform="matrix(0.831625,0,0,0.831625,-151.09861,0.0900561)"
       id="path286"
       inkscape:connector-curvature="0" />
    <path
       style="fill:#000000;fill-opacity:1;fill-rule:evenodd;stroke:none"
       d="m 140.93359,264.58984 -3.94922,-15.80078 h 7.90235 z m 0,0"
       id="path288"
       inkscape:connector-curvature="0" />
    <path
       style="fill:#000000;fill-opacity:1;fill-rule:nonzero;stroke:none"
       d="m 131.80859,195.06641 -3.45703,9.38281 c -0.16406,0.16406 -0.28906,0.28906 -0.37109,0.37109 -0.082,0.082 -0.20313,0.1211 -0.37109,0.1211 -0.16407,0 -0.28516,-0.0391 -0.36719,-0.1211 -0.082,-0.082 -0.125,-0.20703 -0.125,-0.37109 l -2.71485,-7.16016 -2.71484,7.16016 c 0,0.16406 -0.043,0.28906 -0.125,0.37109 -0.082,0.082 -0.20703,0.1211 -0.37109,0.1211 -0.16407,0 -0.28907,-0.0391 -0.3711,-0.1211 -0.082,-0.082 -0.20312,-0.20703 -0.36718,-0.37109 l -3.70313,-9.875 h -1.23828 v -0.74219 c 0.33203,0 1.07031,0 2.22266,0 1.48437,0 2.46875,0 2.96484,0 v 0.74219 h -1.73047 l 2.96484,7.16015 1.97266,-5.43359 -0.49219,-1.72656 h -1.48047 v -0.74219 c 0.49219,0 1.31641,0 2.46875,0 1.48047,0 2.38672,0 2.71485,0 v 0.74219 h -1.48047 l 2.71484,7.16015 2.71485,-6.91406 c -0.16407,-0.16406 -0.65625,-0.24609 -1.48047,-0.24609 v -0.74219 c 0.32812,0 1.07031,0 2.22265,0 0.16407,0 0.66016,0 1.48047,0 v 0.74219 c -0.32812,0 -0.57422,0 -0.73828,0 -0.33203,0 -0.49609,0.0391 -0.49609,0.12109 0,0.082 -0.082,0.20703 -0.2461,0.3711 z m 0,0"
       id="path290"
       inkscape:connector-curvature="0" />
    <path
       style="fill:none;stroke:#ff0000;stroke-width:3.5;stroke-linecap:round;stroke-linejoin:round;stroke-miterlimit:10;stroke-opacity:1"
       d="M 352.24996,170.44772 477.82194,148.31034"
       transform="matrix(0.831632,0,0,0.831632,-151.09861,0.0900561)"
       id="path292"
       inkscape:connector-curvature="0" />
    <path
       style="fill:#ff0000;fill-opacity:1;fill-rule:evenodd;stroke:none"
       d="m 261.83203,120.68359 -14.87109,6.63672 -1.3711,-7.78125 z m 0,0"
       id="path294"
       inkscape:connector-curvature="0" />
    <path
       style="fill:#ff0000;fill-opacity:1;fill-rule:nonzero;stroke:none"
       d="m 241.71875,112.69141 v 3.94922 h 1.72656 v 0.74218 c -0.32812,0 -1.23437,0 -2.71484,0 -1.48047,0 -2.46875,0 -2.96094,0 v -0.74218 h 1.72656 v -9.38282 h -1.72656 v -0.73828 h 6.66406 c 1.31641,0 2.34766,0.28516 3.08594,0.86328 0.74219,0.57422 1.11328,1.31641 1.11328,2.22266 0,0.90234 -0.37109,1.64453 -1.11328,2.21875 -0.73828,0.57812 -1.6875,0.86719 -2.83984,0.86719 z m 2.22266,-0.74219 c 0.32812,0 0.61718,-0.0391 0.86328,-0.125 0.24609,-0.082 0.45312,-0.12109 0.61718,-0.12109 0.16407,0 0.28907,-0.082 0.3711,-0.2461 0.082,-0.16797 0.16406,-0.28906 0.24609,-0.37109 0.082,-0.082 0.125,-0.2461 0.125,-0.4961 0,-0.24609 0,-0.41015 0,-0.49218 0,-0.082 0,-0.20703 0,-0.3711 0,-0.32812 0,-0.57422 0,-0.73828 0,-0.16797 0,-0.33203 0,-0.49609 0,-0.16406 -0.043,-0.32813 -0.125,-0.49219 -0.082,-0.16406 -0.20703,-0.28906 -0.37109,-0.37109 -0.16406,-0.082 -0.41016,-0.16407 -0.73828,-0.2461 -0.33203,-0.082 -0.66016,-0.125 -0.98828,-0.125 h -2.22266 v 4.69141 z m 0,0"
       id="path296"
       inkscape:connector-curvature="0" />
    <path
       style="fill:none;stroke:#ff0000;stroke-width:3.5;stroke-linecap:round;stroke-linejoin:round;stroke-miterlimit:10;stroke-opacity:1"
       d="M 352.25184,170.45105 298.35787,54.88949"
       transform="matrix(0.831639,0,0,0.831639,-151.09861,0.0900561)"
       id="path298"
       inkscape:connector-curvature="0" />
    <path
       style="fill:#ff0000;fill-opacity:1;fill-rule:evenodd;stroke:none"
       d="m 90.351562,31.417969 10.261718,12.648437 -7.160155,3.339844 z m 0,0"
       id="path300"
       inkscape:connector-curvature="0" />
    <path
       style="fill:#ff0000;fill-opacity:1;fill-rule:nonzero;stroke:none"
       d="m 86.453125,61.023438 6.417969,7.40625 v -6.417969 c 0,-0.164063 -0.03906,-0.289063 -0.121094,-0.371094 -0.08203,-0.08203 -0.207031,-0.121094 -0.371094,-0.121094 -0.328125,0 -0.65625,0 -0.988281,0 h -0.246094 v -0.742187 c 0.328125,0 0.988281,0 1.976563,0 1.152344,0 1.890625,0 2.222656,0 v 0.742187 h -0.496094 c -0.164062,0 -0.410156,0 -0.742187,0 -0.164063,0 -0.285157,0.03906 -0.367188,0.121094 -0.08203,0.08203 -0.125,0.207031 -0.125,0.371094 v 9.136719 c 0,0.164062 0,0.285156 0,0.367187 0,0.08203 -0.164062,0.125 -0.492187,0.125 0,0 -0.04297,0 -0.125,0 -0.08203,0 -0.125,-0.08203 -0.125,-0.246094 l -7.898438,-9.136719 v 8.148438 c 0,0.164062 0,0.289062 0,0.371094 0,0.08203 0.164063,0.121094 0.492188,0.121094 0.164062,0 0.414062,0 0.742187,0 h 0.492188 v 0.742187 c -0.492188,0 -1.234375,0 -2.21875,0 -0.988281,0 -1.730469,0 -2.222657,0 V 70.898438 H 82.75 c 0.328125,0 0.660156,0 0.988281,0 0.164063,0 0.246094,-0.03906 0.246094,-0.121094 0,-0.08203 0,-0.207032 0,-0.371094 v -8.886719 h -1.726563 v -0.742187 h 3.703126 c 0.164062,0 0.285156,0 0.371093,0 0.08203,0 0.121094,0.08203 0.121094,0.246094 z m 0,0"
       id="path302"
       inkscape:connector-curvature="0" />
    <path
       style="fill:#000000;fill-opacity:1;fill-rule:nonzero;stroke:#000000;stroke-width:1;stroke-linecap:round;stroke-linejoin:round;stroke-miterlimit:10;stroke-opacity:1"
       d="m 357.25134,170.44969 c 0,2.76184 -2.24047,5.00232 -5.00232,5.00232 -2.75715,0 -4.99762,-2.24048 -4.99762,-5.00232 0,-2.76185 2.24047,-4.99763 4.99762,-4.99763 2.76185,0 5.00232,2.23578 5.00232,4.99763 z m 0,0"
       transform="matrix(0.831645,0,0,0.831645,-151.09861,0.0900561)"
       id="path304"
       inkscape:connector-curvature="0" />
    <g
       clip-path="url(#clip35)"
       id="g308"
       style="clip-rule:nonzero">
      <path
         style="fill:#4c4cff;fill-opacity:1;fill-rule:nonzero;stroke:#000000;stroke-width:1;stroke-linecap:round;stroke-linejoin:round;stroke-miterlimit:10;stroke-opacity:1"
         d="m 503.7606,23.940425 c 0,2.761845 -2.24047,5.00232 -5.00232,5.00232 -2.75714,0 -4.99762,-2.240475 -4.99762,-5.00232 0,-2.761844 2.24048,-4.997623 4.99762,-4.997623 2.76185,0 5.00232,2.235779 5.00232,4.997623 z m 0,0"
         transform="matrix(0.831645,0,0,0.831645,-151.09861,0.0900561)"
         id="path306"
         inkscape:connector-curvature="0" />
    </g>
    <g
       clip-path="url(#clip36)"
       id="g312"
       style="clip-rule:nonzero">
      <path
         style="fill:#4c4cff;fill-opacity:1;fill-rule:nonzero;stroke:#000000;stroke-width:1;stroke-linecap:round;stroke-linejoin:round;stroke-miterlimit:10;stroke-opacity:1"
         d="m 210.74208,316.95895 c 0,2.76184 -2.24048,5.00232 -5.00232,5.00232 -2.76185,0 -4.99762,-2.24048 -4.99762,-5.00232 0,-2.75715 2.23577,-4.99762 4.99762,-4.99762 2.76184,0 5.00232,2.24047 5.00232,4.99762 z m 0,0"
         transform="matrix(0.831645,0,0,0.831645,-151.09861,0.0900561)"
         id="path310"
         inkscape:connector-curvature="0" />
    </g>
  </g>
</svg>
