<?xml version="1.0" encoding="UTF-8"?>
<!DOCTYPE svg PUBLIC "-//W3C//DTD SVG 1.1//EN" "http://www.w3.org/Graphics/SVG/1.1/DTD/svg11.dtd">
<svg version="1.1" xmlns="http://www.w3.org/2000/svg" xmlns:xlink="http://www.w3.org/1999/xlink" x="0" y="0" width="119.68" height="35.84" viewBox="0, 0, 119.68, 35.84">
  <g id="Layer_1">
    <g>
      <path d="M24.32,3.64 L95.36,3.64 L95.36,31.96 L24.32,31.96 z" fill="#E4E4E4"/>
      <path d="M24.82,4.14 L95.86,4.14 L95.86,32.46 L24.82,32.46 z" fill-opacity="0" stroke="#000000" stroke-width="1.44" stroke-linecap="round" stroke-linejoin="round"/>
      <path d="M30.58,1.5 L38.02,3.18" fill-opacity="0" stroke="#000000" stroke-width="1.44" stroke-dasharray="4.32,4.32" stroke-linecap="round" stroke-linejoin="round"/>
      <path d="M38.02,3.18 L45.46,4.14" fill-opacity="0" stroke="#000000" stroke-width="1.44" stroke-dasharray="4.32,4.32" stroke-linecap="round" stroke-linejoin="round"/>
      <path d="M45.46,4.14 L49.3,4.62" fill-opacity="0" stroke="#000000" stroke-width="1.44" stroke-linecap="round" stroke-linejoin="round"/>
      <path d="M52.9,4.86 L60.34,5.1" fill-opacity="0" stroke="#000000" stroke-width="1.44" stroke-dasharray="4.32,4.32" stroke-linecap="round" stroke-linejoin="round"/>
      <path d="M60.34,5.1 L67.78,4.86" fill-opacity="0" stroke="#000000" stroke-width="1.44" stroke-dasharray="4.32,4.32" stroke-linecap="round" stroke-linejoin="round"/>
      <path d="M67.78,4.86 L75.22,4.14" fill-opacity="0" stroke="#000000" stroke-width="1.44" stroke-dasharray="4.32,4.32" stroke-linecap="round" stroke-linejoin="round"/>
      <path d="M79.54,3.66 L82.66,3.18" fill-opacity="0" stroke="#000000" stroke-width="1.44" stroke-linecap="round" stroke-linejoin="round"/>
      <path d="M82.66,3.18 L90.1,1.5" fill-opacity="0" stroke="#000000" stroke-width="1.44" stroke-dasharray="4.32,4.32" stroke-linecap="round" stroke-linejoin="round"/>
      <path d="M90.1,1.5 L101.38,29.82" fill-opacity="0" stroke="#000000" stroke-width="1.44" stroke-dasharray="4.32,4.32" stroke-linecap="round" stroke-linejoin="round"/>
      <path d="M101.14,29.34 L101.38,29.82" fill-opacity="0" stroke="#000000" stroke-width="1.44" stroke-linecap="round" stroke-linejoin="round"/>
      <path d="M101.38,29.82 L91.3,32.22" fill-opacity="0" stroke="#000000" stroke-width="1.44" stroke-dasharray="4.32,4.32" stroke-linecap="round" stroke-linejoin="round"/>
      <path d="M91.3,32.22 L80.98,33.9" fill-opacity="0" stroke="#000000" stroke-width="1.44" stroke-dasharray="4.32,4.32" stroke-linecap="round" stroke-linejoin="round"/>
      <path d="M80.98,33.9 L70.66,35.1" fill-opacity="0" stroke="#000000" stroke-width="1.44" stroke-dasharray="4.32,4.32" stroke-linecap="round" stroke-linejoin="round"/>
      <path d="M70.66,35.1 L60.34,35.34" fill-opacity="0" stroke="#000000" stroke-width="1.44" stroke-dasharray="4.32,4.32" stroke-linecap="round" stroke-linejoin="round"/>
      <path d="M60.34,35.34 L50.02,35.1" fill-opacity="0" stroke="#000000" stroke-width="1.44" stroke-dasharray="4.32,4.32" stroke-linecap="round" stroke-linejoin="round"/>
      <path d="M50.02,35.1 L39.7,33.9" fill-opacity="0" stroke="#000000" stroke-width="1.44" stroke-dasharray="4.32,4.32" stroke-linecap="round" stroke-linejoin="round"/>
      <path d="M39.7,33.9 L29.38,32.22" fill-opacity="0" stroke="#000000" stroke-width="1.44" stroke-dasharray="4.32,4.32" stroke-linecap="round" stroke-linejoin="round"/>
      <path d="M29.38,32.22 L19.3,29.82" fill-opacity="0" stroke="#000000" stroke-width="1.44" stroke-dasharray="4.32,4.32" stroke-linecap="round" stroke-linejoin="round"/>
      <path d="M19.3,29.82 L30.58,1.5" fill-opacity="0" stroke="#000000" stroke-width="1.44" stroke-dasharray="4.32,4.32" stroke-linecap="round" stroke-linejoin="round"/>
      <path d="M30.34,1.98 L30.58,1.5" fill-opacity="0" stroke="#000000" stroke-width="1.44" stroke-linecap="round" stroke-linejoin="round"/>
      <path d="M109.947,32.38 L109.947,32.38 C117.722,24.605 117.722,11.808 109.947,4.033" fill-opacity="0" stroke="#E62100" stroke-width="2.016" stroke-linecap="round" stroke-linejoin="round"/>
      <path d="M112.66,15.42 L112.66,14.94 L112.66,14.7 L112.66,14.22 L112.66,13.98 L112.66,13.5 L112.66,13.26 L112.66,12.78 L112.66,12.54 L112.42,12.06 L112.42,11.82 L112.42,11.34 L112.42,11.1 L112.18,10.62 L112.18,10.38 L112.18,9.9 L111.94,9.66 L111.94,9.18 L111.94,8.94 L111.7,8.46 L111.7,8.22 L111.46,7.74 L111.46,7.5 L111.22,7.02 L111.22,6.78 L110.98,6.3 L110.98,6.06 L110.74,5.82 L110.5,5.34 L110.5,5.1 L110.26,4.62 L110.02,4.38 L110.02,4.14 L110.02,4.38 L110.26,4.62 L110.5,5.1 L110.74,5.34 L110.98,5.58 L111.22,5.82 L111.46,6.3 L111.7,6.54 L111.94,6.78 L111.94,7.02 L112.18,7.5 L112.42,7.74 L112.66,7.98 L112.9,8.22 L113.14,8.46 L113.62,8.7 L113.86,8.94 L114.1,9.18 L114.34,9.42 L114.58,9.9 L114.82,10.14 L115.06,10.38 L115.3,10.62 L115.78,10.86 L116.02,10.86 L116.26,11.1 L116.5,11.34 L116.74,11.58 L117.22,11.82 L117.46,12.06 L117.7,12.3 L118.18,12.54 L118.18,12.54" fill-opacity="0" stroke="#E62100" stroke-width="2.016" stroke-linecap="round" stroke-linejoin="round"/>
      <path d="M10.735,4.033 L10.735,4.033 C2.959,11.808 2.959,24.605 10.735,32.38" fill-opacity="0" stroke="#E62100" stroke-width="2.016" stroke-linecap="round" stroke-linejoin="round"/>
      <path d="M2.5,12.54 L2.98,12.3 L3.22,12.06 L3.46,11.82 L3.94,11.58 L4.18,11.34 L4.42,11.1 L4.66,10.86 L4.9,10.86 L5.38,10.62 L5.62,10.38 L5.86,10.14 L6.1,9.9 L6.34,9.42 L6.58,9.18 L6.82,8.94 L7.06,8.7 L7.54,8.46 L7.78,8.22 L8.02,7.98 L8.26,7.74 L8.5,7.5 L8.74,7.02 L8.74,6.78 L8.98,6.54 L9.22,6.3 L9.46,5.82 L9.7,5.58 L9.94,5.34 L10.18,5.1 L10.42,4.62 L10.66,4.38 L10.66,4.14 L10.66,4.38 L10.42,4.62 L10.18,5.1 L10.18,5.34 L9.94,5.82 L9.7,6.06 L9.7,6.3 L9.46,6.78 L9.46,7.02 L9.22,7.5 L9.22,7.74 L8.98,8.22 L8.98,8.46 L8.74,8.94 L8.74,9.18 L8.74,9.66 L8.5,9.9 L8.5,10.38 L8.5,10.62 L8.26,11.1 L8.26,11.34 L8.26,11.82 L8.26,12.06 L8.02,12.54 L8.02,12.78 L8.02,13.26 L8.02,13.5 L8.02,13.98 L8.02,14.22 L8.02,14.7 L8.02,14.94 L8.02,15.42 L8.02,15.42" fill-opacity="0" stroke="#E62100" stroke-width="2.016" stroke-linecap="round" stroke-linejoin="round"/>
    </g>
  </g>
</svg>
