<?xml version="1.0" encoding="UTF-8" standalone="no"?>
<!DOCTYPE svg PUBLIC "-//W3C//DTD SVG 1.1//EN" "http://www.w3.org/Graphics/SVG/1.1/DTD/svg11.dtd">
<svg width="100%" height="100%" viewBox="0 0 311 91" version="1.1" xmlns="http://www.w3.org/2000/svg" xmlns:xlink="http://www.w3.org/1999/xlink" xml:space="preserve" xmlns:serif="http://www.serif.com/" style="fill-rule:evenodd;clip-rule:evenodd;stroke-linejoin:round;stroke-miterlimit:1.5;">
    <g transform="matrix(1,0,0,1,-724,-280)">
        <g id="triangle-load-equiv" transform="matrix(1.82912,0,0,1.30625,208.523,270.809)">
            <rect x="281.989" y="7.574" width="169.48" height="68.853" style="fill:none;"/>
            <g transform="matrix(0.023144,0,0,0.121531,240.695,-179.79)">
                <path d="M4724.41,1606.3L1889.76,1889.76L4724.41,1889.76L4724.41,1606.3Z" style="fill:rgb(225,32,32);fill-opacity:0.07;"/>
                <clipPath id="_clip1">
                    <path d="M4724.41,1606.3L1889.76,1889.76L4724.41,1889.76L4724.41,1606.3Z"/>
                </clipPath>
                <g clip-path="url(#_clip1)">
                    <g transform="matrix(21.805,0,0,17.9343,-4477.04,1002.75)">
                        <g transform="matrix(1,0,0,0.998282,-29.6982,17.0982)">
                            <g transform="matrix(1.08333,-0,-0,0.351843,316.503,12.728)">
                                <path d="M12.516,50.274L14.016,54.774L15.516,50.274L12.516,50.274Z" style="fill:rgb(225,32,32);"/>
                                <path d="M14.016,51.174L14.016,12.142" style="fill:none;stroke:rgb(225,32,32);stroke-width:1px;"/>
                            </g>
                        </g>
                        <g transform="matrix(1,0,0,0.998282,-19.6982,17.0982)">
                            <g transform="matrix(1.08333,-0,-0,0.351843,306.503,12.728)">
                                <path d="M21.747,50.274L23.247,54.774L24.747,50.274L21.747,50.274Z" style="fill:rgb(225,32,32);"/>
                                <path d="M23.247,51.174L23.247,12.142" style="fill:none;stroke:rgb(225,32,32);stroke-width:1px;"/>
                            </g>
                        </g>
                        <g transform="matrix(1,0,0,0.998282,-9.6982,17.0982)">
                            <g transform="matrix(1.08333,-0,-0,0.351843,296.503,12.728)">
                                <path d="M30.978,50.274L32.478,54.774L33.978,50.274L30.978,50.274Z" style="fill:rgb(225,32,32);"/>
                                <path d="M32.478,51.174L32.478,12.142" style="fill:none;stroke:rgb(225,32,32);stroke-width:1px;"/>
                            </g>
                        </g>
                        <g transform="matrix(1,0,0,0.998282,0.301802,17.0982)">
                            <g transform="matrix(1.08333,-0,-0,0.351843,286.503,12.728)">
                                <path d="M40.208,50.274L41.708,54.774L43.208,50.274L40.208,50.274Z" style="fill:rgb(225,32,32);"/>
                                <path d="M41.708,51.174L41.708,12.142" style="fill:none;stroke:rgb(225,32,32);stroke-width:1px;"/>
                            </g>
                        </g>
                        <g transform="matrix(1,0,0,0.998282,10.3018,17.0982)">
                            <g transform="matrix(1.08333,-0,-0,0.351843,276.503,12.728)">
                                <path d="M49.439,50.274L50.939,54.774L52.439,50.274L49.439,50.274Z" style="fill:rgb(225,32,32);"/>
                                <path d="M50.939,51.174L50.939,12.142" style="fill:none;stroke:rgb(225,32,32);stroke-width:1px;"/>
                            </g>
                        </g>
                        <g transform="matrix(1,0,0,0.998282,20.3018,17.0982)">
                            <g transform="matrix(1.08333,-0,-0,0.351843,266.503,12.728)">
                                <path d="M58.67,50.274L60.17,54.774L61.67,50.274L58.67,50.274Z" style="fill:rgb(225,32,32);"/>
                                <path d="M60.17,51.174L60.17,12.142" style="fill:none;stroke:rgb(225,32,32);stroke-width:1px;"/>
                            </g>
                        </g>
                        <g transform="matrix(1,0,0,0.998282,30.3018,17.0982)">
                            <g transform="matrix(1.08333,-0,-0,0.351843,256.503,12.728)">
                                <path d="M67.901,50.274L69.401,54.774L70.901,50.274L67.901,50.274Z" style="fill:rgb(225,32,32);"/>
                                <path d="M69.401,51.174L69.401,12.142" style="fill:none;stroke:rgb(225,32,32);stroke-width:1px;"/>
                            </g>
                        </g>
                        <g transform="matrix(1,0,0,0.998282,40.3018,17.0982)">
                            <g transform="matrix(1.08333,-0,-0,0.351843,246.503,12.728)">
                                <path d="M77.132,50.274L78.632,54.774L80.132,50.274L77.132,50.274Z" style="fill:rgb(225,32,32);"/>
                                <path d="M78.632,51.174L78.632,12.142" style="fill:none;stroke:rgb(225,32,32);stroke-width:1px;"/>
                            </g>
                        </g>
                        <g transform="matrix(1,0,0,0.998282,50.3018,17.0982)">
                            <g transform="matrix(1.08333,-0,-0,0.351843,236.503,12.728)">
                                <path d="M86.362,50.274L87.862,54.774L89.362,50.274L86.362,50.274Z" style="fill:rgb(225,32,32);"/>
                                <path d="M87.862,51.174L87.862,12.142" style="fill:none;stroke:rgb(225,32,32);stroke-width:1px;"/>
                            </g>
                        </g>
                        <g transform="matrix(1,0,0,0.998282,60.3018,17.0982)">
                            <g transform="matrix(1.08333,-0,-0,0.351843,226.503,12.728)">
                                <path d="M95.593,50.274L97.093,54.774L98.593,50.274L95.593,50.274Z" style="fill:rgb(225,32,32);"/>
                                <path d="M97.093,51.174L97.093,12.142" style="fill:none;stroke:rgb(225,32,32);stroke-width:1px;"/>
                            </g>
                        </g>
                        <g transform="matrix(1,0,0,0.998282,70.3018,17.0982)">
                            <g transform="matrix(1.08333,-0,-0,0.351843,216.503,12.728)">
                                <path d="M104.824,50.274L106.324,54.774L107.824,50.274L104.824,50.274Z" style="fill:rgb(225,32,32);"/>
                                <path d="M106.324,51.174L106.324,12.142" style="fill:none;stroke:rgb(225,32,32);stroke-width:1px;"/>
                            </g>
                        </g>
                        <g transform="matrix(1,0,0,0.998282,80.3018,17.0982)">
                            <g transform="matrix(1.08333,-0,-0,0.351843,206.503,12.728)">
                                <path d="M114.055,50.274L115.555,54.774L117.055,50.274L114.055,50.274Z" style="fill:rgb(225,32,32);"/>
                                <path d="M115.555,51.174L115.555,12.142" style="fill:none;stroke:rgb(225,32,32);stroke-width:1px;"/>
                            </g>
                        </g>
                    </g>
                </g>
                <path d="M4724.41,1606.3L1889.76,1889.76L4724.41,1889.76L4724.41,1606.3Z" style="fill:none;stroke:black;stroke-width:8.61px;stroke-linecap:round;"/>
            </g>
            <g transform="matrix(0.023144,0,0,0.121531,339.103,-179.79)">
                <path d="M4724.41,1606.3L1889.76,1889.76L4724.41,1889.76L4724.41,1606.3Z" style="fill:rgb(225,32,32);fill-opacity:0.07;stroke:black;stroke-width:8.61px;stroke-linecap:round;"/>
            </g>
            <g transform="matrix(0.54671,0,0,0.765549,87.0116,5.30471)">
                <g transform="matrix(10,0,0,10,415.687,68)">
                    <path d="M0.042,-0.316C0.042,-0.421 0.069,-0.505 0.122,-0.57C0.175,-0.634 0.236,-0.666 0.305,-0.666C0.345,-0.666 0.376,-0.656 0.399,-0.635C0.421,-0.615 0.432,-0.589 0.432,-0.558C0.432,-0.541 0.427,-0.528 0.417,-0.521C0.407,-0.514 0.397,-0.51 0.386,-0.51C0.374,-0.51 0.363,-0.514 0.354,-0.522C0.345,-0.53 0.34,-0.542 0.34,-0.556C0.34,-0.586 0.358,-0.601 0.395,-0.601C0.378,-0.628 0.348,-0.641 0.307,-0.641C0.294,-0.641 0.282,-0.639 0.269,-0.635C0.256,-0.632 0.241,-0.624 0.224,-0.611C0.207,-0.599 0.192,-0.583 0.179,-0.563C0.166,-0.544 0.155,-0.516 0.146,-0.479C0.136,-0.442 0.132,-0.4 0.132,-0.352L0.132,-0.328C0.159,-0.394 0.201,-0.427 0.257,-0.427C0.313,-0.427 0.36,-0.405 0.399,-0.363C0.438,-0.32 0.457,-0.267 0.457,-0.204C0.457,-0.139 0.437,-0.085 0.396,-0.042C0.356,0 0.308,0.022 0.251,0.022C0.226,0.022 0.201,0.017 0.178,0.006C0.156,-0.004 0.133,-0.022 0.112,-0.046C0.091,-0.07 0.074,-0.105 0.061,-0.151C0.048,-0.198 0.042,-0.252 0.042,-0.316ZM0.134,-0.226C0.134,-0.161 0.14,-0.112 0.152,-0.081C0.154,-0.076 0.157,-0.07 0.161,-0.063C0.166,-0.055 0.172,-0.047 0.179,-0.038C0.187,-0.029 0.197,-0.021 0.21,-0.015C0.223,-0.009 0.236,-0.006 0.251,-0.006C0.296,-0.006 0.329,-0.028 0.35,-0.071C0.361,-0.095 0.367,-0.14 0.367,-0.205C0.367,-0.272 0.361,-0.317 0.349,-0.342C0.329,-0.383 0.298,-0.404 0.256,-0.404C0.228,-0.404 0.204,-0.394 0.185,-0.375C0.165,-0.356 0.152,-0.333 0.145,-0.308C0.137,-0.282 0.134,-0.255 0.134,-0.226Z" style="fill-rule:nonzero;"/>
                </g>
                <g transform="matrix(10,0,0,10,424.012,68)">
                    <path d="M0.033,-0.4L0.033,-0.431L0.112,-0.431L0.112,-0.546C0.112,-0.595 0.128,-0.634 0.16,-0.663C0.192,-0.691 0.228,-0.705 0.267,-0.705C0.293,-0.705 0.315,-0.698 0.332,-0.684C0.348,-0.67 0.357,-0.654 0.357,-0.635C0.357,-0.622 0.353,-0.612 0.345,-0.603C0.338,-0.595 0.327,-0.591 0.313,-0.591C0.3,-0.591 0.289,-0.595 0.281,-0.604C0.274,-0.612 0.27,-0.622 0.27,-0.634C0.27,-0.655 0.28,-0.669 0.3,-0.676C0.29,-0.68 0.279,-0.683 0.267,-0.683C0.243,-0.683 0.222,-0.671 0.203,-0.646C0.184,-0.621 0.175,-0.588 0.175,-0.547L0.175,-0.431L0.292,-0.431L0.292,-0.4L0.178,-0.4L0.178,-0.078C0.178,-0.059 0.182,-0.046 0.19,-0.04C0.198,-0.034 0.219,-0.031 0.254,-0.031L0.275,-0.031L0.275,-0C0.248,-0.002 0.206,-0.003 0.148,-0.003C0.14,-0.003 0.129,-0.003 0.117,-0.002C0.104,-0.002 0.09,-0.002 0.073,-0.001C0.056,-0 0.043,-0 0.034,-0L0.034,-0.031C0.07,-0.031 0.091,-0.033 0.1,-0.037C0.108,-0.042 0.112,-0.055 0.112,-0.076L0.112,-0.4L0.033,-0.4Z" style="fill-rule:nonzero;"/>
                </g>
                <g transform="matrix(10,0,0,10,427.059,68)">
                    <path d="M0.019,-0.4L0.019,-0.422C0.05,-0.423 0.075,-0.435 0.095,-0.456C0.116,-0.478 0.129,-0.502 0.136,-0.529C0.143,-0.556 0.147,-0.584 0.148,-0.615L0.173,-0.615L0.173,-0.431L0.316,-0.431L0.316,-0.4L0.173,-0.4L0.173,-0.122C0.173,-0.05 0.195,-0.014 0.24,-0.014C0.259,-0.014 0.275,-0.024 0.288,-0.044C0.301,-0.063 0.307,-0.091 0.307,-0.126L0.307,-0.181L0.332,-0.181L0.332,-0.124C0.332,-0.088 0.324,-0.056 0.307,-0.029C0.291,-0.002 0.266,0.011 0.233,0.011C0.221,0.011 0.209,0.01 0.197,0.007C0.185,0.003 0.171,-0.002 0.156,-0.01C0.141,-0.018 0.128,-0.032 0.118,-0.052C0.109,-0.071 0.104,-0.095 0.104,-0.124L0.104,-0.4L0.019,-0.4Z" style="fill-rule:nonzero;"/>
                </g>
            </g>
            <g transform="matrix(0.54671,0,0,0.765549,174.28,5.30471)">
                <g transform="matrix(10,0,0,10,415.687,68)">
                    <path d="M0.028,-0.165L0.028,-0.196L0.335,-0.665C0.34,-0.673 0.347,-0.677 0.355,-0.677C0.362,-0.677 0.367,-0.675 0.369,-0.672C0.37,-0.669 0.371,-0.662 0.371,-0.651L0.371,-0.196L0.471,-0.196L0.471,-0.165L0.371,-0.165L0.371,-0.078C0.371,-0.059 0.375,-0.046 0.383,-0.04C0.391,-0.034 0.412,-0.031 0.447,-0.031L0.468,-0.031L0.468,-0C0.44,-0.002 0.395,-0.003 0.332,-0.003C0.269,-0.003 0.224,-0.002 0.197,-0L0.197,-0.031L0.218,-0.031C0.252,-0.031 0.274,-0.034 0.282,-0.04C0.29,-0.046 0.294,-0.059 0.294,-0.078L0.294,-0.165L0.028,-0.165ZM0.056,-0.196L0.3,-0.196L0.3,-0.569L0.056,-0.196Z" style="fill-rule:nonzero;"/>
                </g>
                <g transform="matrix(10,0,0,10,424.012,68)">
                    <path d="M0.033,-0.4L0.033,-0.431L0.112,-0.431L0.112,-0.546C0.112,-0.595 0.128,-0.634 0.16,-0.663C0.192,-0.691 0.228,-0.705 0.267,-0.705C0.293,-0.705 0.315,-0.698 0.332,-0.684C0.348,-0.67 0.357,-0.654 0.357,-0.635C0.357,-0.622 0.353,-0.612 0.345,-0.603C0.338,-0.595 0.327,-0.591 0.313,-0.591C0.3,-0.591 0.289,-0.595 0.281,-0.604C0.274,-0.612 0.27,-0.622 0.27,-0.634C0.27,-0.655 0.28,-0.669 0.3,-0.676C0.29,-0.68 0.279,-0.683 0.267,-0.683C0.243,-0.683 0.222,-0.671 0.203,-0.646C0.184,-0.621 0.175,-0.588 0.175,-0.547L0.175,-0.431L0.292,-0.431L0.292,-0.4L0.178,-0.4L0.178,-0.078C0.178,-0.059 0.182,-0.046 0.19,-0.04C0.198,-0.034 0.219,-0.031 0.254,-0.031L0.275,-0.031L0.275,-0C0.248,-0.002 0.206,-0.003 0.148,-0.003C0.14,-0.003 0.129,-0.003 0.117,-0.002C0.104,-0.002 0.09,-0.002 0.073,-0.001C0.056,-0 0.043,-0 0.034,-0L0.034,-0.031C0.07,-0.031 0.091,-0.033 0.1,-0.037C0.108,-0.042 0.112,-0.055 0.112,-0.076L0.112,-0.4L0.033,-0.4Z" style="fill-rule:nonzero;"/>
                </g>
                <g transform="matrix(10,0,0,10,427.059,68)">
                    <path d="M0.019,-0.4L0.019,-0.422C0.05,-0.423 0.075,-0.435 0.095,-0.456C0.116,-0.478 0.129,-0.502 0.136,-0.529C0.143,-0.556 0.147,-0.584 0.148,-0.615L0.173,-0.615L0.173,-0.431L0.316,-0.431L0.316,-0.4L0.173,-0.4L0.173,-0.122C0.173,-0.05 0.195,-0.014 0.24,-0.014C0.259,-0.014 0.275,-0.024 0.288,-0.044C0.301,-0.063 0.307,-0.091 0.307,-0.126L0.307,-0.181L0.332,-0.181L0.332,-0.124C0.332,-0.088 0.324,-0.056 0.307,-0.029C0.291,-0.002 0.266,0.011 0.233,0.011C0.221,0.011 0.209,0.01 0.197,0.007C0.185,0.003 0.171,-0.002 0.156,-0.01C0.141,-0.018 0.128,-0.032 0.118,-0.052C0.109,-0.071 0.104,-0.095 0.104,-0.124L0.104,-0.4L0.019,-0.4Z" style="fill-rule:nonzero;"/>
                </g>
            </g>
            <g transform="matrix(0.54671,0,0,0.765549,205.631,5.30471)">
                <g transform="matrix(10,0,0,10,415.687,68)">
                    <path d="M0.05,-0C0.05,-0.012 0.05,-0.02 0.052,-0.023C0.053,-0.027 0.056,-0.032 0.061,-0.037L0.253,-0.251C0.323,-0.33 0.358,-0.403 0.358,-0.472C0.358,-0.517 0.346,-0.555 0.323,-0.587C0.3,-0.619 0.267,-0.635 0.224,-0.635C0.195,-0.635 0.168,-0.626 0.143,-0.608C0.118,-0.59 0.1,-0.565 0.089,-0.533C0.091,-0.534 0.095,-0.534 0.102,-0.534C0.119,-0.534 0.132,-0.529 0.141,-0.519C0.15,-0.508 0.155,-0.496 0.155,-0.482C0.155,-0.464 0.149,-0.451 0.137,-0.442C0.126,-0.434 0.114,-0.429 0.103,-0.429C0.098,-0.429 0.093,-0.43 0.087,-0.431C0.081,-0.432 0.073,-0.437 0.064,-0.446C0.055,-0.455 0.05,-0.468 0.05,-0.485C0.05,-0.531 0.067,-0.573 0.103,-0.61C0.138,-0.647 0.183,-0.666 0.237,-0.666C0.298,-0.666 0.349,-0.648 0.389,-0.612C0.429,-0.575 0.449,-0.529 0.449,-0.472C0.449,-0.452 0.446,-0.433 0.44,-0.415C0.434,-0.397 0.427,-0.381 0.419,-0.367C0.411,-0.353 0.396,-0.335 0.375,-0.313C0.354,-0.29 0.334,-0.271 0.317,-0.255C0.3,-0.239 0.272,-0.214 0.233,-0.18L0.127,-0.077L0.307,-0.077C0.366,-0.077 0.397,-0.08 0.402,-0.085C0.408,-0.094 0.416,-0.124 0.424,-0.174L0.449,-0.174L0.421,-0L0.05,-0Z" style="fill-rule:nonzero;"/>
                </g>
                <g transform="matrix(10,0,0,10,424.012,68)">
                    <path d="M0.033,-0.4L0.033,-0.431L0.112,-0.431L0.112,-0.546C0.112,-0.595 0.128,-0.634 0.16,-0.663C0.192,-0.691 0.228,-0.705 0.267,-0.705C0.293,-0.705 0.315,-0.698 0.332,-0.684C0.348,-0.67 0.357,-0.654 0.357,-0.635C0.357,-0.622 0.353,-0.612 0.345,-0.603C0.338,-0.595 0.327,-0.591 0.313,-0.591C0.3,-0.591 0.289,-0.595 0.281,-0.604C0.274,-0.612 0.27,-0.622 0.27,-0.634C0.27,-0.655 0.28,-0.669 0.3,-0.676C0.29,-0.68 0.279,-0.683 0.267,-0.683C0.243,-0.683 0.222,-0.671 0.203,-0.646C0.184,-0.621 0.175,-0.588 0.175,-0.547L0.175,-0.431L0.292,-0.431L0.292,-0.4L0.178,-0.4L0.178,-0.078C0.178,-0.059 0.182,-0.046 0.19,-0.04C0.198,-0.034 0.219,-0.031 0.254,-0.031L0.275,-0.031L0.275,-0C0.248,-0.002 0.206,-0.003 0.148,-0.003C0.14,-0.003 0.129,-0.003 0.117,-0.002C0.104,-0.002 0.09,-0.002 0.073,-0.001C0.056,-0 0.043,-0 0.034,-0L0.034,-0.031C0.07,-0.031 0.091,-0.033 0.1,-0.037C0.108,-0.042 0.112,-0.055 0.112,-0.076L0.112,-0.4L0.033,-0.4Z" style="fill-rule:nonzero;"/>
                </g>
                <g transform="matrix(10,0,0,10,427.059,68)">
                    <path d="M0.019,-0.4L0.019,-0.422C0.05,-0.423 0.075,-0.435 0.095,-0.456C0.116,-0.478 0.129,-0.502 0.136,-0.529C0.143,-0.556 0.147,-0.584 0.148,-0.615L0.173,-0.615L0.173,-0.431L0.316,-0.431L0.316,-0.4L0.173,-0.4L0.173,-0.122C0.173,-0.05 0.195,-0.014 0.24,-0.014C0.259,-0.014 0.275,-0.024 0.288,-0.044C0.301,-0.063 0.307,-0.091 0.307,-0.126L0.307,-0.181L0.332,-0.181L0.332,-0.124C0.332,-0.088 0.324,-0.056 0.307,-0.029C0.291,-0.002 0.266,0.011 0.233,0.011C0.221,0.011 0.209,0.01 0.197,0.007C0.185,0.003 0.171,-0.002 0.156,-0.01C0.141,-0.018 0.128,-0.032 0.118,-0.052C0.109,-0.071 0.104,-0.095 0.104,-0.124L0.104,-0.4L0.019,-0.4Z" style="fill-rule:nonzero;"/>
                </g>
            </g>
            <g id="surface1" transform="matrix(0.103947,0,0,0.145555,324.614,41.1932)">
                <g transform="matrix(5.25951,0,0,5.25951,-1510.18,-421.498)">
                    <g transform="matrix(10,0,0,10,336.687,74)">
                        <path d="M0.089,-0.571L0.089,-0.602C0.169,-0.602 0.23,-0.623 0.271,-0.666C0.282,-0.666 0.289,-0.665 0.291,-0.662C0.293,-0.66 0.294,-0.652 0.294,-0.64L0.294,-0.079C0.294,-0.059 0.299,-0.046 0.309,-0.04C0.318,-0.034 0.345,-0.031 0.387,-0.031L0.419,-0.031L0.419,-0C0.396,-0.002 0.341,-0.003 0.257,-0.003C0.172,-0.003 0.118,-0.002 0.095,-0L0.095,-0.031L0.127,-0.031C0.169,-0.031 0.195,-0.034 0.205,-0.04C0.215,-0.046 0.22,-0.059 0.22,-0.079L0.22,-0.597C0.185,-0.58 0.142,-0.571 0.089,-0.571Z" style="fill-rule:nonzero;"/>
                    </g>
                    <g transform="matrix(10,0,0,10,341.687,74)">
                        <path d="M0.039,-0.32C0.039,-0.418 0.051,-0.493 0.076,-0.547C0.111,-0.626 0.169,-0.666 0.25,-0.666C0.267,-0.666 0.285,-0.664 0.303,-0.659C0.321,-0.654 0.342,-0.643 0.365,-0.625C0.387,-0.607 0.406,-0.583 0.42,-0.554C0.447,-0.498 0.46,-0.419 0.46,-0.32C0.46,-0.222 0.448,-0.147 0.423,-0.094C0.387,-0.017 0.329,0.022 0.249,0.022C0.219,0.022 0.189,0.014 0.158,-0.001C0.128,-0.016 0.103,-0.042 0.084,-0.079C0.054,-0.134 0.039,-0.214 0.039,-0.32ZM0.122,-0.332C0.122,-0.231 0.126,-0.161 0.133,-0.121C0.141,-0.078 0.156,-0.047 0.178,-0.028C0.201,-0.009 0.224,-0 0.249,-0C0.276,-0 0.3,-0.01 0.323,-0.03C0.345,-0.05 0.359,-0.082 0.366,-0.125C0.374,-0.168 0.377,-0.237 0.377,-0.332C0.377,-0.425 0.374,-0.49 0.367,-0.527C0.358,-0.57 0.342,-0.601 0.319,-0.618C0.296,-0.635 0.272,-0.644 0.249,-0.644C0.24,-0.644 0.231,-0.643 0.222,-0.64C0.213,-0.638 0.201,-0.632 0.188,-0.625C0.175,-0.618 0.163,-0.604 0.153,-0.586C0.142,-0.567 0.135,-0.544 0.13,-0.516C0.125,-0.48 0.122,-0.419 0.122,-0.332Z" style="fill-rule:nonzero;"/>
                    </g>
                    <g transform="matrix(10,0,0,10,350.012,74)">
                        <path d="M0.033,-0L0.033,-0.031C0.069,-0.031 0.09,-0.033 0.099,-0.037C0.107,-0.042 0.111,-0.055 0.111,-0.076L0.111,-0.596C0.111,-0.621 0.107,-0.636 0.098,-0.643C0.089,-0.649 0.068,-0.652 0.033,-0.652L0.033,-0.683L0.177,-0.694L0.177,-0.076C0.177,-0.055 0.181,-0.042 0.189,-0.037C0.198,-0.033 0.22,-0.031 0.255,-0.031L0.255,-0C0.247,-0 0.234,-0 0.217,-0.001C0.2,-0.002 0.186,-0.002 0.173,-0.002C0.161,-0.003 0.151,-0.003 0.144,-0.003C0.136,-0.003 0.099,-0.002 0.033,-0Z" style="fill-rule:nonzero;"/>
                    </g>
                    <g transform="matrix(10,0,0,10,352.781,74)">
                        <path d="M0.028,-0.652L0.028,-0.683L0.172,-0.694L0.172,-0.377C0.211,-0.42 0.256,-0.442 0.309,-0.442C0.366,-0.442 0.416,-0.42 0.458,-0.376C0.5,-0.332 0.521,-0.279 0.521,-0.216C0.521,-0.152 0.499,-0.099 0.455,-0.055C0.411,-0.011 0.359,0.011 0.298,0.011C0.243,0.011 0.199,-0.013 0.167,-0.062C0.144,-0.021 0.132,-0.001 0.131,-0L0.106,-0L0.106,-0.596C0.106,-0.621 0.102,-0.636 0.093,-0.643C0.084,-0.649 0.062,-0.652 0.028,-0.652ZM0.175,-0.114C0.175,-0.1 0.18,-0.086 0.189,-0.072C0.215,-0.031 0.25,-0.011 0.293,-0.011L0.294,-0.011C0.34,-0.011 0.378,-0.033 0.407,-0.075C0.428,-0.107 0.438,-0.154 0.438,-0.217C0.438,-0.279 0.428,-0.325 0.409,-0.356C0.382,-0.399 0.347,-0.42 0.304,-0.42C0.255,-0.42 0.216,-0.399 0.186,-0.356C0.179,-0.345 0.175,-0.333 0.175,-0.32L0.175,-0.114Z" style="fill-rule:nonzero;"/>
                    </g>
                    <g transform="matrix(10,0,0,10,358.328,74)">
                        <path d="M0.057,0.236C0.057,0.233 0.058,0.227 0.061,0.22L0.414,-0.723C0.414,-0.724 0.415,-0.726 0.417,-0.729C0.418,-0.733 0.419,-0.736 0.42,-0.739C0.421,-0.741 0.423,-0.743 0.425,-0.745C0.427,-0.747 0.43,-0.748 0.432,-0.748C0.439,-0.748 0.442,-0.744 0.442,-0.736C0.442,-0.735 0.441,-0.731 0.439,-0.723L0.085,0.221C0.081,0.233 0.078,0.24 0.075,0.243C0.073,0.246 0.07,0.248 0.066,0.248C0.06,0.248 0.057,0.244 0.057,0.236Z" style="fill-rule:nonzero;"/>
                    </g>
                    <g transform="matrix(10,0,0,10,363.328,74)">
                        <path d="M0.033,-0.4L0.033,-0.431L0.112,-0.431L0.112,-0.546C0.112,-0.595 0.128,-0.634 0.16,-0.663C0.192,-0.691 0.228,-0.705 0.267,-0.705C0.293,-0.705 0.315,-0.698 0.332,-0.684C0.348,-0.67 0.357,-0.654 0.357,-0.635C0.357,-0.622 0.353,-0.612 0.345,-0.603C0.338,-0.595 0.327,-0.591 0.313,-0.591C0.3,-0.591 0.289,-0.595 0.281,-0.604C0.274,-0.612 0.27,-0.622 0.27,-0.634C0.27,-0.655 0.28,-0.669 0.3,-0.676C0.29,-0.68 0.279,-0.683 0.267,-0.683C0.243,-0.683 0.222,-0.671 0.203,-0.646C0.184,-0.621 0.175,-0.588 0.175,-0.547L0.175,-0.431L0.292,-0.431L0.292,-0.4L0.178,-0.4L0.178,-0.078C0.178,-0.059 0.182,-0.046 0.19,-0.04C0.198,-0.034 0.219,-0.031 0.254,-0.031L0.275,-0.031L0.275,-0C0.248,-0.002 0.206,-0.003 0.148,-0.003C0.14,-0.003 0.129,-0.003 0.117,-0.002C0.104,-0.002 0.09,-0.002 0.073,-0.001C0.056,-0 0.043,-0 0.034,-0L0.034,-0.031C0.07,-0.031 0.091,-0.033 0.1,-0.037C0.108,-0.042 0.112,-0.055 0.112,-0.076L0.112,-0.4L0.033,-0.4Z" style="fill-rule:nonzero;"/>
                    </g>
                    <g transform="matrix(10,0,0,10,366.374,74)">
                        <path d="M0.019,-0.4L0.019,-0.422C0.05,-0.423 0.075,-0.435 0.095,-0.456C0.116,-0.478 0.129,-0.502 0.136,-0.529C0.143,-0.556 0.147,-0.584 0.148,-0.615L0.173,-0.615L0.173,-0.431L0.316,-0.431L0.316,-0.4L0.173,-0.4L0.173,-0.122C0.173,-0.05 0.195,-0.014 0.24,-0.014C0.259,-0.014 0.275,-0.024 0.288,-0.044C0.301,-0.063 0.307,-0.091 0.307,-0.126L0.307,-0.181L0.332,-0.181L0.332,-0.124C0.332,-0.088 0.324,-0.056 0.307,-0.029C0.291,-0.002 0.266,0.011 0.233,0.011C0.221,0.011 0.209,0.01 0.197,0.007C0.185,0.003 0.171,-0.002 0.156,-0.01C0.141,-0.018 0.128,-0.032 0.118,-0.052C0.109,-0.071 0.104,-0.095 0.104,-0.124L0.104,-0.4L0.019,-0.4Z" style="fill-rule:nonzero;"/>
                    </g>
                </g>
                <g transform="matrix(5.25951,0,0,5.25951,-844.705,-161.578)">
                    <g transform="matrix(10,0,0,10,336.687,74)">
                        <path d="M0.042,-0.135C0.042,-0.155 0.048,-0.169 0.059,-0.179C0.07,-0.188 0.083,-0.193 0.098,-0.193C0.113,-0.193 0.127,-0.188 0.137,-0.178C0.148,-0.168 0.154,-0.154 0.154,-0.137C0.154,-0.119 0.147,-0.104 0.135,-0.094C0.122,-0.083 0.106,-0.079 0.088,-0.082C0.104,-0.055 0.127,-0.036 0.156,-0.024C0.185,-0.012 0.214,-0.006 0.241,-0.006C0.27,-0.006 0.296,-0.018 0.319,-0.043C0.342,-0.068 0.354,-0.11 0.354,-0.171C0.354,-0.222 0.344,-0.263 0.324,-0.292C0.304,-0.322 0.274,-0.337 0.235,-0.337L0.191,-0.337C0.181,-0.337 0.174,-0.337 0.171,-0.338C0.168,-0.339 0.167,-0.343 0.167,-0.348C0.167,-0.355 0.172,-0.359 0.182,-0.36C0.192,-0.36 0.205,-0.361 0.221,-0.363C0.26,-0.364 0.29,-0.382 0.31,-0.415C0.329,-0.446 0.338,-0.484 0.338,-0.529C0.338,-0.569 0.328,-0.598 0.309,-0.615C0.289,-0.633 0.267,-0.641 0.242,-0.641C0.219,-0.641 0.194,-0.636 0.168,-0.626C0.143,-0.617 0.123,-0.601 0.109,-0.579C0.15,-0.579 0.171,-0.562 0.171,-0.529C0.171,-0.514 0.166,-0.502 0.157,-0.492C0.148,-0.483 0.135,-0.478 0.12,-0.478C0.105,-0.478 0.093,-0.483 0.083,-0.492C0.074,-0.501 0.069,-0.514 0.069,-0.53C0.069,-0.568 0.086,-0.6 0.12,-0.626C0.154,-0.653 0.196,-0.666 0.246,-0.666C0.296,-0.666 0.339,-0.653 0.375,-0.627C0.412,-0.601 0.43,-0.568 0.43,-0.528C0.43,-0.488 0.417,-0.453 0.391,-0.42C0.365,-0.388 0.331,-0.365 0.29,-0.352C0.341,-0.342 0.381,-0.32 0.412,-0.285C0.442,-0.251 0.457,-0.213 0.457,-0.171C0.457,-0.119 0.437,-0.074 0.396,-0.035C0.354,0.003 0.304,0.022 0.244,0.022C0.189,0.022 0.141,0.007 0.102,-0.023C0.062,-0.053 0.042,-0.09 0.042,-0.135Z" style="fill-rule:nonzero;"/>
                    </g>
                    <g transform="matrix(10,0,0,10,341.687,74)">
                        <path d="M0.039,-0.32C0.039,-0.418 0.051,-0.493 0.076,-0.547C0.111,-0.626 0.169,-0.666 0.25,-0.666C0.267,-0.666 0.285,-0.664 0.303,-0.659C0.321,-0.654 0.342,-0.643 0.365,-0.625C0.387,-0.607 0.406,-0.583 0.42,-0.554C0.447,-0.498 0.46,-0.419 0.46,-0.32C0.46,-0.222 0.448,-0.147 0.423,-0.094C0.387,-0.017 0.329,0.022 0.249,0.022C0.219,0.022 0.189,0.014 0.158,-0.001C0.128,-0.016 0.103,-0.042 0.084,-0.079C0.054,-0.134 0.039,-0.214 0.039,-0.32ZM0.122,-0.332C0.122,-0.231 0.126,-0.161 0.133,-0.121C0.141,-0.078 0.156,-0.047 0.178,-0.028C0.201,-0.009 0.224,-0 0.249,-0C0.276,-0 0.3,-0.01 0.323,-0.03C0.345,-0.05 0.359,-0.082 0.366,-0.125C0.374,-0.168 0.377,-0.237 0.377,-0.332C0.377,-0.425 0.374,-0.49 0.367,-0.527C0.358,-0.57 0.342,-0.601 0.319,-0.618C0.296,-0.635 0.272,-0.644 0.249,-0.644C0.24,-0.644 0.231,-0.643 0.222,-0.64C0.213,-0.638 0.201,-0.632 0.188,-0.625C0.175,-0.618 0.163,-0.604 0.153,-0.586C0.142,-0.567 0.135,-0.544 0.13,-0.516C0.125,-0.48 0.122,-0.419 0.122,-0.332Z" style="fill-rule:nonzero;"/>
                    </g>
                    <g transform="matrix(10,0,0,10,350.012,74)">
                        <path d="M0.033,-0L0.033,-0.031C0.069,-0.031 0.09,-0.033 0.099,-0.037C0.107,-0.042 0.111,-0.055 0.111,-0.076L0.111,-0.596C0.111,-0.621 0.107,-0.636 0.098,-0.643C0.089,-0.649 0.068,-0.652 0.033,-0.652L0.033,-0.683L0.177,-0.694L0.177,-0.076C0.177,-0.055 0.181,-0.042 0.189,-0.037C0.198,-0.033 0.22,-0.031 0.255,-0.031L0.255,-0C0.247,-0 0.234,-0 0.217,-0.001C0.2,-0.002 0.186,-0.002 0.173,-0.002C0.161,-0.003 0.151,-0.003 0.144,-0.003C0.136,-0.003 0.099,-0.002 0.033,-0Z" style="fill-rule:nonzero;"/>
                    </g>
                    <g transform="matrix(10,0,0,10,352.781,74)">
                        <path d="M0.028,-0.652L0.028,-0.683L0.172,-0.694L0.172,-0.377C0.211,-0.42 0.256,-0.442 0.309,-0.442C0.366,-0.442 0.416,-0.42 0.458,-0.376C0.5,-0.332 0.521,-0.279 0.521,-0.216C0.521,-0.152 0.499,-0.099 0.455,-0.055C0.411,-0.011 0.359,0.011 0.298,0.011C0.243,0.011 0.199,-0.013 0.167,-0.062C0.144,-0.021 0.132,-0.001 0.131,-0L0.106,-0L0.106,-0.596C0.106,-0.621 0.102,-0.636 0.093,-0.643C0.084,-0.649 0.062,-0.652 0.028,-0.652ZM0.175,-0.114C0.175,-0.1 0.18,-0.086 0.189,-0.072C0.215,-0.031 0.25,-0.011 0.293,-0.011L0.294,-0.011C0.34,-0.011 0.378,-0.033 0.407,-0.075C0.428,-0.107 0.438,-0.154 0.438,-0.217C0.438,-0.279 0.428,-0.325 0.409,-0.356C0.382,-0.399 0.347,-0.42 0.304,-0.42C0.255,-0.42 0.216,-0.399 0.186,-0.356C0.179,-0.345 0.175,-0.333 0.175,-0.32L0.175,-0.114Z" style="fill-rule:nonzero;"/>
                    </g>
                </g>
                <g transform="matrix(5.25951,0,0,5.25951,-1925.48,-1254.06)">
                    <path d="M292.597,259.777L292.597,252.664" style="fill:none;stroke:black;stroke-width:0.5px;stroke-linecap:round;"/>
                </g>
                <g transform="matrix(5.25951,0,0,5.25951,-1296.06,-1254.06)">
                    <path d="M292.597,259.777L292.597,252.664" style="fill:none;stroke:black;stroke-width:0.5px;stroke-linecap:round;"/>
                </g>
                <g transform="matrix(5.25951,0,0,5.25951,-977.577,-1254.06)">
                    <path d="M292.597,259.777L292.597,252.664" style="fill:none;stroke:black;stroke-width:0.5px;stroke-linecap:round;"/>
                </g>
                <g transform="matrix(5.25951,0,0,5.25951,-347.687,-1254.06)">
                    <path d="M292.597,259.777L292.597,252.664" style="fill:none;stroke:black;stroke-width:0.5px;stroke-linecap:round;"/>
                </g>
            </g>
            <g transform="matrix(0.54671,0,0,0.765549,124.467,-141.342)">
                <g transform="matrix(1,-0,-0,1,287.811,193.819)">
                    <path d="M261.785,69.158L264.785,78.158L267.785,69.158L261.785,69.158Z" style="fill:rgb(225,32,32);"/>
                    <path d="M264.785,70.958L264.785,40.958" style="fill:none;stroke:rgb(225,32,32);stroke-width:2px;stroke-linecap:round;"/>
                </g>
            </g>
            <g transform="matrix(0.4254,0,0,0.595681,430.727,-171.614)">
                <g transform="matrix(1.25687,0,0,1.25687,-82.9119,18.5702)">
                    <circle cx="58.204" cy="265.722" r="1.917" style="fill:white;stroke:black;stroke-width:0.51px;stroke-linecap:round;"/>
                </g>
                <g transform="matrix(1,0,0,1,-60,92.3133)">
                    <path d="M47.833,260.233C47.833,261.564 48.912,262.643 50.243,262.643L50.243,260.233L47.833,260.233Z" style="fill:rgb(20,20,20);"/>
                </g>
                <g transform="matrix(-1,-1.22465e-16,1.22465e-16,-1,40.4857,612.78)">
                    <path d="M47.833,260.233C47.833,261.564 48.912,262.643 50.243,262.643L50.243,260.233L47.833,260.233Z" style="fill:rgb(20,20,20);"/>
                </g>
            </g>
            <g transform="matrix(1.09103,0,0,1,-28.6946,0)">
                <g transform="matrix(0.501093,0,0,0.765549,140.382,-141.342)">
                    <path d="M462.597,219.777L472.597,219.777" style="fill:none;stroke:black;stroke-width:2px;"/>
                </g>
                <g transform="matrix(0.501093,0,0,0.765549,140.382,-141.342)">
                    <path d="M462.597,224.777L472.597,224.777" style="fill:none;stroke:black;stroke-width:2px;"/>
                </g>
            </g>
        </g>
    </g>
</svg>
