<?xml version="1.0" encoding="UTF-8" standalone="no"?>
<!DOCTYPE svg PUBLIC "-//W3C//DTD SVG 1.1//EN" "http://www.w3.org/Graphics/SVG/1.1/DTD/svg11.dtd">
<svg width="100%" height="100%" viewBox="0 0 172 101" version="1.1" xmlns="http://www.w3.org/2000/svg" xmlns:xlink="http://www.w3.org/1999/xlink" xml:space="preserve" xmlns:serif="http://www.serif.com/" style="fill-rule:evenodd;clip-rule:evenodd;stroke-linecap:round;stroke-linejoin:round;stroke-miterlimit:1.5;">
    <g transform="matrix(1,0,0,1,-375,-512)">
        <g transform="matrix(1.13517,0,0,1.0178,319.148,-9.12282)">
            <rect id="friction-dist-a" x="49.949" y="512.391" width="150.279" height="98.251" style="fill:none;"/>
            <g id="friction-dist-a1" serif:id="friction-dist-a">
                <g transform="matrix(0.913943,0,0,1.01933,135.941,202.155)">
                    <g transform="matrix(1.25687,0,0,1.25687,-82.9119,18.5702)">
                        <circle cx="58.204" cy="265.722" r="1.917" style="fill:white;stroke:black;stroke-width:0.38px;"/>
                    </g>
                    <g transform="matrix(1,0,0,1,-60,92.3133)">
                        <path d="M47.833,260.233C47.833,261.564 48.912,262.643 50.243,262.643L50.243,260.233L47.833,260.233Z" style="fill:rgb(20,20,20);"/>
                    </g>
                    <g transform="matrix(-1,-1.22465e-16,1.22465e-16,-1,40.4857,612.78)">
                        <path d="M47.833,260.233C47.833,261.564 48.912,262.643 50.243,262.643L50.243,260.233L47.833,260.233Z" style="fill:rgb(20,20,20);"/>
                    </g>
                </g>
                <g transform="matrix(-0.880927,-1.20322e-16,1.07882e-16,-0.982507,303.265,604.762)">
                    <g transform="matrix(1,0,0,1,15.3415,-7.82982)">
                        <path d="M184.783,85.207L184.783,56.806" style="fill:none;fill-rule:nonzero;stroke:black;stroke-width:0.84px;stroke-miterlimit:10;"/>
                    </g>
                    <g transform="matrix(1,0,0,1,15.3415,-12.79)">
                        <g>
                            <path d="M184.783,56.806L186.206,62.497L183.36,62.497L184.783,56.806Z"/>
                        </g>
                    </g>
                </g>
                <g>
                    <g transform="matrix(0.880927,0,0,0.982507,108.156,9.46227)">
                        <g transform="matrix(13.3333,0,0,13.3333,36.7585,539.522)">
                        </g>
                        <text x="23.067px" y="539.522px" style="font-family:'CMUSerif-Roman', 'CMU Serif';font-weight:500;font-size:13.333px;">W</text>
                    </g>
                    <g transform="matrix(0.880927,0,0,0.982507,13.9251,25.1826)">
                        <g transform="matrix(13.3333,0,0,13.3333,54.2798,539.786)">
                        </g>
                        <text x="45.217px" y="539.786px" style="font-family:'CMUSerif-Roman', 'CMU Serif';font-weight:500;font-size:13.333px;">P</text>
                    </g>
                    <g transform="matrix(0.880927,0,0,0.982507,74.8019,71.0578)">
                        <g transform="matrix(13.3333,0,0,13.3333,74.2798,539.786)">
                        </g>
                        <text x="45.217px" y="539.786px" style="font-family:'CMUSerif-Roman', 'CMU Serif';font-weight:500;font-size:13.333px;">F+N</text>
                    </g>
                </g>
                <g id="layer0" transform="matrix(0.779814,0,0,0.869735,28.1147,523.746)">
                    <g>
                        <path d="M80.938,67.965L74.922,61.088" style="fill:none;fill-rule:nonzero;stroke:rgb(225,32,32);stroke-width:0.84px;stroke-miterlimit:10;"/>
                        <path d="M71.172,56.806L75.993,60.15L73.85,62.025L71.172,56.806Z" style="fill:rgb(225,32,32);"/>
                        <path d="M93.895,69.689L86.298,61.074" style="fill:none;fill-rule:nonzero;stroke:rgb(225,32,32);stroke-width:0.84px;stroke-miterlimit:10;"/>
                        <path d="M82.535,56.806L87.366,60.134L85.23,62.015L82.535,56.806Z" style="fill:rgb(225,32,32);"/>
                        <path d="M106.852,71.413L97.672,61.061" style="fill:none;fill-rule:nonzero;stroke:rgb(225,32,32);stroke-width:0.84px;stroke-miterlimit:10;"/>
                        <path d="M93.895,56.806L98.736,60.117L96.607,62.008L93.895,56.806Z" style="fill:rgb(225,32,32);"/>
                        <path d="M119.809,73.137L109.041,61.054" style="fill:none;fill-rule:nonzero;stroke:rgb(225,32,32);stroke-width:0.84px;stroke-miterlimit:10;"/>
                        <path d="M105.255,56.806L110.106,60.107L107.98,62.002L105.255,56.806Z" style="fill:rgb(225,32,32);"/>
                        <path d="M132.765,74.861L120.411,61.048" style="fill:none;fill-rule:nonzero;stroke:rgb(225,32,32);stroke-width:0.84px;stroke-miterlimit:10;"/>
                        <path d="M116.618,56.806L121.473,60.1L119.35,61.995L116.618,56.806Z" style="fill:rgb(225,32,32);"/>
                        <path d="M145.722,76.586L131.778,61.041" style="fill:none;fill-rule:nonzero;stroke:rgb(225,32,32);stroke-width:0.84px;stroke-miterlimit:10;"/>
                        <path d="M127.978,56.806L132.839,60.09L130.72,61.992L127.978,56.806Z" style="fill:rgb(225,32,32);"/>
                        <path d="M158.679,78.31L143.144,61.038" style="fill:none;fill-rule:nonzero;stroke:rgb(225,32,32);stroke-width:0.84px;stroke-miterlimit:10;"/>
                        <path d="M139.338,56.806L144.202,60.083L142.086,61.988L139.338,56.806Z" style="fill:rgb(225,32,32);"/>
                        <path d="M171.636,80.034L154.511,61.031" style="fill:none;fill-rule:nonzero;stroke:rgb(225,32,32);stroke-width:0.84px;stroke-miterlimit:10;"/>
                        <path d="M150.701,56.806L155.565,60.08L153.453,61.985L150.701,56.806Z" style="fill:rgb(225,32,32);"/>
                        <path d="M184.593,81.758L165.874,61.027" style="fill:none;fill-rule:nonzero;stroke:rgb(225,32,32);stroke-width:0.84px;stroke-miterlimit:10;"/>
                        <path d="M162.06,56.806L166.932,60.077L164.819,61.982L162.06,56.806Z" style="fill:rgb(225,32,32);"/>
                        <path d="M197.549,83.483L177.24,61.024" style="fill:none;fill-rule:nonzero;stroke:rgb(225,32,32);stroke-width:0.84px;stroke-miterlimit:10;"/>
                        <path d="M173.42,56.806L178.295,60.07L176.182,61.982L173.42,56.806Z" style="fill:rgb(225,32,32);"/>
                        <path d="M210.506,85.207L188.603,61.024" style="fill:none;fill-rule:nonzero;stroke:rgb(225,32,32);stroke-width:0.84px;stroke-miterlimit:10;"/>
                        <path d="M184.783,56.806L189.658,60.067L187.549,61.978L184.783,56.806Z" style="fill:rgb(225,32,32);"/>
                    </g>
                    <g>
                        <g>
                            <rect x="71.172" y="28.402" width="113.611" height="28.403" style="fill-opacity:0.09;stroke:black;stroke-width:1.5px;stroke-linecap:butt;stroke-miterlimit:2;"/>
                        </g>
                    </g>
                    <g>
                        <g>
                            <path d="M71.172,56.806L80.938,67.965L210.506,85.207L184.783,56.806L71.172,56.806Z" style="fill:rgb(255,0,0);fill-opacity:0.06;stroke:rgb(225,32,32);stroke-width:0.4px;stroke-linecap:butt;stroke-miterlimit:2;"/>
                        </g>
                    </g>
                    <g>
                        <path d="M71.172,56.806L71.172,28.402" style="fill:none;fill-rule:nonzero;stroke:black;stroke-opacity:0.7;stroke-width:1px;stroke-miterlimit:10;"/>
                        <path d="M71.172,28.402L184.783,28.402" style="fill:none;fill-rule:nonzero;stroke:black;stroke-opacity:0.7;stroke-width:1px;stroke-miterlimit:10;"/>
                        <path d="M184.783,28.402L184.783,56.806" style="fill:none;fill-rule:nonzero;stroke:black;stroke-opacity:0.7;stroke-width:1px;stroke-miterlimit:10;"/>
                        <path d="M184.783,56.806L71.172,56.806" style="fill:none;fill-rule:nonzero;stroke:black;stroke-opacity:0.7;stroke-width:1px;stroke-miterlimit:10;"/>
                    </g>
                    <g>
                        <g>
                            <path d="M80.938,67.965L210.506,85.207" style="fill:none;fill-rule:nonzero;stroke:rgb(255,0,0);stroke-opacity:0.7;stroke-width:0.5px;stroke-miterlimit:10;"/>
                        </g>
                    </g>
                    <g>
                        <g>
                            <path d="M210.506,85.207L184.783,56.806" style="fill:none;fill-rule:nonzero;stroke:rgb(255,0,0);stroke-opacity:0.7;stroke-width:0.84px;stroke-miterlimit:10;"/>
                        </g>
                    </g>
                </g>
                <g transform="matrix(0.879291,0,0,1,6.14955,-0.0757485)">
                    <g transform="matrix(1.36721,0,0,1.3408,-544.31,-215.749)">
                        <circle cx="462.694" cy="579.759" r="1.099"/>
                    </g>
                    <g transform="matrix(-1.84039e-16,0.982507,-1.00186,-1.80484e-16,131.439,364.892)">
                        <g transform="matrix(1,0,0,1,15.3415,-7.82982)">
                            <path d="M184.783,85.207L184.783,56.806" style="fill:none;fill-rule:nonzero;stroke:black;stroke-width:0.84px;stroke-miterlimit:10;"/>
                        </g>
                        <g transform="matrix(1,0,0,1,15.3415,-12.79)">
                            <g>
                                <path d="M184.783,56.806L186.206,62.497L183.36,62.497L184.783,56.806Z"/>
                            </g>
                        </g>
                    </g>
                </g>
            </g>
        </g>
    </g>
</svg>
