<?xml version="1.0" encoding="UTF-8" standalone="no"?>
<!DOCTYPE svg PUBLIC "-//W3C//DTD SVG 1.1//EN" "http://www.w3.org/Graphics/SVG/1.1/DTD/svg11.dtd">
<svg width="100%" height="100%" viewBox="0 0 151 101" version="1.1" xmlns="http://www.w3.org/2000/svg" xmlns:xlink="http://www.w3.org/1999/xlink" xml:space="preserve" xmlns:serif="http://www.serif.com/" style="fill-rule:evenodd;clip-rule:evenodd;stroke-linecap:round;stroke-linejoin:round;stroke-miterlimit:1.5;">
    <g transform="matrix(1,0,0,1,-815,-512)">
        <g transform="matrix(0.998143,0,0,1.0178,765.407,-9.12282)">
            <rect id="friction-dist-c" x="49.949" y="512.391" width="150.279" height="98.251" style="fill:none;"/>
            <g id="friction-dist-c1" serif:id="friction-dist-c">
                <g transform="matrix(0.880825,0,0,0.869735,25.6003,523.745)">
                    <path d="M71.172,56.806L71.172,68.165L184.783,85.207L184.783,56.806L71.172,56.806Z" style="fill:rgb(255,0,0);fill-opacity:0.06;"/>
                    <g id="force-resultant" serif:id="force/resultant" transform="matrix(-2.02273,1.15987,1.24734,2.14574,833.404,-687.502)">
                        <g transform="matrix(0.226624,-0.1225,0.284876,0.461964,259.918,26.827)">
                            <rect x="273.072" y="291.851" width="36.813" height="29.285" style="fill:rgb(214,46,26);fill-opacity:0.1;stroke:rgb(96,129,203);stroke-opacity:0.22;stroke-width:0.07px;"/>
                        </g>
                        <g transform="matrix(-1.09512e-16,1.65918,-0.481667,1.45009e-16,472.531,-59.0319)">
                            <g transform="matrix(0.137398,0.875578,0.23798,-0.505515,80.1973,58.918)">
                                <path d="M116.216,68.527L109.118,62.233L111.02,71.527L116.216,68.527Z" style="fill:rgb(96,129,203);"/>
                                <path d="M112.718,68.468C118.48,78.448 129.133,96.899 129.133,96.899" style="fill:none;stroke:rgb(96,129,203);stroke-width:2px;stroke-linecap:butt;"/>
                            </g>
                        </g>
                        <g transform="matrix(0.547348,0.887597,-0.417136,0.22548,404.386,-1.67924)">
                            <path d="M110,123L125.242,123" style="fill:none;"/>
                            <g transform="matrix(-3.745e-16,1.01103,0.444853,-5.99201e-16,82.1356,12.442)">
                                <path d="M111.352,68.637L109.352,62.637L107.352,68.637L111.352,68.637Z" style="fill:rgb(214,46,26);"/>
                                <path d="M109.352,67.437C109.352,76.867 109.352,96.899 109.352,96.899" style="fill:none;stroke:rgb(214,46,26);stroke-width:1.33px;stroke-linecap:butt;"/>
                            </g>
                        </g>
                        <g transform="matrix(-0.547358,0.295863,-0.240832,-0.390543,503.118,139.182)">
                            <path d="M110,123L125.242,123" style="fill:none;"/>
                            <g transform="matrix(0.7705,-1.11217e-05,-2.82531e-06,-1.01103,25.7446,186.329)">
                                <path d="M115.352,60.637L109.352,62.637L115.352,64.637L115.352,60.637Z" style="fill:rgb(214,46,26);"/>
                                <path d="M114.152,62.637L129.133,62.637" style="fill:none;stroke:rgb(214,46,26);stroke-width:1.33px;stroke-linecap:butt;"/>
                            </g>
                        </g>
                    </g>
                    <g>
                        <path d="M71.172,56.806L71.172,28.402" style="fill:none;fill-rule:nonzero;stroke:black;stroke-opacity:0.7;stroke-width:1.51px;stroke-miterlimit:10;"/>
                        <path d="M71.172,28.402L184.783,28.402" style="fill:none;fill-rule:nonzero;stroke:black;stroke-opacity:0.7;stroke-width:1.51px;stroke-miterlimit:10;"/>
                        <path d="M184.783,28.402L184.783,56.806" style="fill:none;fill-rule:nonzero;stroke:black;stroke-opacity:0.7;stroke-width:1.51px;stroke-miterlimit:10;"/>
                        <path d="M184.783,56.806L71.172,56.806" style="fill:none;fill-rule:nonzero;stroke:black;stroke-opacity:0.7;stroke-width:1.51px;stroke-miterlimit:10;"/>
                    </g>
                    <rect x="71.172" y="28.402" width="113.611" height="28.403" style="fill-opacity:0.09;"/>
                </g>
                <g transform="matrix(1.36721,0,0,1.3408,-544.31,-215.749)">
                    <circle cx="462.694" cy="579.759" r="1.099"/>
                </g>
                <g transform="matrix(1.00186,0,0,0.982507,118.617,4.4293)">
                    <g transform="matrix(13.3333,0,0,13.3333,36.7585,539.522)">
                    </g>
                    <text x="23.067px" y="539.522px" style="font-family:'CMUSerif-Roman', 'CMU Serif';font-weight:500;font-size:13.333px;">W</text>
                </g>
                <g transform="matrix(1.00186,0,0,0.982507,8.01811,25.1826)">
                    <g transform="matrix(13.3333,0,0,13.3333,54.2798,539.786)">
                    </g>
                    <text x="45.217px" y="539.786px" style="font-family:'CMUSerif-Roman', 'CMU Serif';font-weight:500;font-size:13.333px;">P</text>
                </g>
                <g transform="matrix(1.00186,0,0,0.982507,115.803,38.4748)">
                    <g transform="matrix(13.3333,0,0,13.3333,53.9087,539.786)">
                    </g>
                    <text x="45.217px" y="539.786px" style="font-family:'CMUSerif-Roman', 'CMU Serif';font-weight:500;font-size:13.333px;">F</text>
                </g>
                <g transform="matrix(1.00186,0,0,0.982507,100.339,76.577)">
                    <g transform="matrix(13.3333,0,0,13.3333,55.2173,539.786)">
                    </g>
                    <text x="45.217px" y="539.786px" style="font-family:'CMUSerif-Roman', 'CMU Serif';font-weight:500;font-size:13.333px;">N</text>
                </g>
                <g transform="matrix(1.00186,0,0,0.982507,137.916,76.577)">
                    <g transform="matrix(13.3333,0,0,13.3333,55.0285,539.786)">
                    </g>
                    <text x="45.217px" y="539.786px" style="font-family:'CMUSerif-Roman', 'CMU Serif';font-weight:500;font-size:13.333px;">R</text>
                </g>
                <g transform="matrix(1.36467,0,0,1.36467,-57.8751,-208.809)">
                    <g transform="matrix(1.00186,0,0,0.982507,-304.434,3.38455)">
                        <circle cx="462.694" cy="579.759" r="1.099" style="fill:rgb(225,32,32);"/>
                    </g>
                </g>
                <g transform="matrix(1,0,0,1,-1.76709,-0.0757485)">
                    <g transform="matrix(1.36721,0,0,1.3408,-544.31,-215.749)">
                        <circle cx="462.694" cy="579.759" r="1.099"/>
                    </g>
                    <g transform="matrix(-1.84039e-16,0.982507,-1.00186,-1.80484e-16,131.439,364.892)">
                        <g transform="matrix(1,0,0,1,15.3415,-7.82982)">
                            <path d="M184.783,85.207L184.783,56.806" style="fill:none;fill-rule:nonzero;stroke:black;stroke-width:0.84px;stroke-miterlimit:10;"/>
                        </g>
                        <g transform="matrix(1,0,0,1,15.3415,-12.79)">
                            <g>
                                <path d="M184.783,56.806L186.206,62.497L183.36,62.497L184.783,56.806Z"/>
                            </g>
                        </g>
                    </g>
                </g>
                <g transform="matrix(-1.00186,-1.20322e-16,1.22693e-16,-0.982507,338.823,601.589)">
                    <g transform="matrix(1,0,0,1,15.3415,-7.82982)">
                        <path d="M184.783,85.207L184.783,56.806" style="fill:none;fill-rule:nonzero;stroke:black;stroke-width:0.84px;stroke-miterlimit:10;"/>
                    </g>
                    <g transform="matrix(1,0,0,1,15.3415,-12.79)">
                        <g>
                            <path d="M184.783,56.806L186.206,62.497L183.36,62.497L184.783,56.806Z"/>
                        </g>
                    </g>
                </g>
                <g transform="matrix(1.03941,0,0,1.01933,148.468,201.438)">
                    <g transform="matrix(1.25687,0,0,1.25687,-82.9119,18.5702)">
                        <circle cx="58.204" cy="265.722" r="1.917" style="fill:white;stroke:black;stroke-width:0.38px;"/>
                    </g>
                    <g transform="matrix(1,0,0,1,-60,92.3133)">
                        <path d="M47.833,260.233C47.833,261.564 48.912,262.643 50.243,262.643L50.243,260.233L47.833,260.233Z" style="fill:rgb(20,20,20);"/>
                    </g>
                    <g transform="matrix(-1,-1.22465e-16,1.22465e-16,-1,40.4857,612.78)">
                        <path d="M47.833,260.233C47.833,261.564 48.912,262.643 50.243,262.643L50.243,260.233L47.833,260.233Z" style="fill:rgb(20,20,20);"/>
                    </g>
                </g>
            </g>
        </g>
    </g>
</svg>
