<?xml version="1.0" encoding="UTF-8" standalone="no"?>
<!DOCTYPE svg PUBLIC "-//W3C//DTD SVG 1.1//EN" "http://www.w3.org/Graphics/SVG/1.1/DTD/svg11.dtd">
<svg width="100%" height="100%" viewBox="0 0 151 101" version="1.1" xmlns="http://www.w3.org/2000/svg" xmlns:xlink="http://www.w3.org/1999/xlink" xml:space="preserve" xmlns:serif="http://www.serif.com/" style="fill-rule:evenodd;clip-rule:evenodd;stroke-linecap:round;stroke-linejoin:round;stroke-miterlimit:10;">
    <g transform="matrix(1,0,0,1,-347,-512)">
        <g transform="matrix(0.998143,0,0,1.0178,297.971,-9.12282)">
            <rect id="friction-dist-c" x="49.949" y="512.391" width="150.279" height="98.251" style="fill:none;"/>
            <g id="friction-dist-c1" serif:id="friction-dist-c">
                <g>
                    <g transform="matrix(-1.00186,-1.20322e-16,1.22693e-16,-0.982507,338.823,604.762)">
                        <g transform="matrix(1,0,0,1,15.3415,-7.82982)">
                            <path d="M184.783,85.207L184.783,56.806" style="fill:none;fill-rule:nonzero;stroke:black;stroke-width:0.84px;"/>
                        </g>
                        <g transform="matrix(1,0,0,1,15.3415,-12.79)">
                            <g>
                                <path d="M184.783,56.806L186.206,62.497L183.36,62.497L184.783,56.806Z"/>
                            </g>
                        </g>
                    </g>
                    <g transform="matrix(1.03941,0,0,1.01933,148.468,202.155)">
                        <g transform="matrix(1.25687,0,0,1.25687,-82.9119,18.5702)">
                            <circle cx="58.204" cy="265.722" r="1.917" style="fill:white;stroke:black;stroke-width:0.38px;stroke-miterlimit:1.5;"/>
                        </g>
                        <g transform="matrix(1,0,0,1,-60,92.3133)">
                            <path d="M47.833,260.233C47.833,261.564 48.912,262.643 50.243,262.643L50.243,260.233L47.833,260.233Z" style="fill:rgb(20,20,20);"/>
                        </g>
                        <g transform="matrix(-1,-1.22465e-16,1.22465e-16,-1,40.4857,612.78)">
                            <path d="M47.833,260.233C47.833,261.564 48.912,262.643 50.243,262.643L50.243,260.233L47.833,260.233Z" style="fill:rgb(20,20,20);"/>
                        </g>
                    </g>
                </g>
                <g transform="matrix(0.880825,0,0,0.869735,25.6003,523.745)">
                    <path d="M71.172,56.806L71.172,68.165L184.783,85.207L184.783,56.806L71.172,56.806Z" style="fill:rgb(255,0,0);fill-opacity:0.06;"/>
                    <g>
                        <path d="M71.172,56.806L71.172,28.402" style="fill:none;fill-rule:nonzero;stroke:black;stroke-opacity:0.7;stroke-width:1.51px;"/>
                        <path d="M71.172,28.402L184.783,28.402" style="fill:none;fill-rule:nonzero;stroke:black;stroke-opacity:0.7;stroke-width:1.51px;"/>
                        <path d="M184.783,28.402L184.783,56.806" style="fill:none;fill-rule:nonzero;stroke:black;stroke-opacity:0.7;stroke-width:1.51px;"/>
                        <path d="M184.783,56.806L71.172,56.806" style="fill:none;fill-rule:nonzero;stroke:black;stroke-opacity:0.7;stroke-width:1.51px;"/>
                    </g>
                    <rect x="71.172" y="28.402" width="113.611" height="28.403" style="fill-opacity:0.09;"/>
                </g>
                <g>
                    <g transform="matrix(1.36721,0,0,1.3408,-544.31,-215.749)">
                        <circle cx="462.694" cy="579.759" r="1.099"/>
                    </g>
                    <g transform="matrix(-1.84039e-16,0.982507,-1.00186,-1.80484e-16,131.439,364.892)">
                        <g transform="matrix(1,0,0,1,15.3415,-7.82982)">
                            <path d="M184.783,85.207L184.783,56.806" style="fill:none;fill-rule:nonzero;stroke:black;stroke-width:0.84px;"/>
                        </g>
                        <g transform="matrix(1,0,0,1,15.3415,-12.79)">
                            <g>
                                <path d="M184.783,56.806L186.206,62.497L183.36,62.497L184.783,56.806Z"/>
                            </g>
                        </g>
                    </g>
                </g>
                <g transform="matrix(1.13728,0,0,1,-7.81862,-5.86198e-14)">
                    <g transform="matrix(0.880927,0,0,0.982507,108.156,9.46227)">
                        <g transform="matrix(12,0,0,12,35.0378,539.522)">
                        </g>
                        <text x="23.067px" y="539.522px" style="font-family:'CMUSerif-Italic', 'CMU Serif';font-weight:500;font-style:italic;font-size:12px;">W</text>
                    </g>
                    <g transform="matrix(0.880927,0,0,0.982507,13.9251,25.1826)">
                        <g transform="matrix(12,0,0,12,53.3501,539.786)">
                        </g>
                        <text x="45.217px" y="539.786px" style="font-family:'CMUSerif-Italic', 'CMU Serif';font-weight:500;font-style:italic;font-size:12px;">P</text>
                    </g>
                    <g transform="matrix(0.880927,0,0,0.982507,108.699,38.4748)">
                        <g transform="matrix(12,0,0,12,53.0396,539.786)">
                        </g>
                        <text x="45.217px" y="539.786px" style="font-family:'CMUSerif-Italic', 'CMU Serif';font-weight:500;font-style:italic;font-size:12px;">F</text>
                    </g>
                    <g transform="matrix(0.880927,0,0,0.982507,95.1257,71.5356)">
                        <g transform="matrix(12,0,0,12,54.1294,539.786)">
                        </g>
                        <text x="45.217px" y="539.786px" style="font-family:'CMUSerif-Italic', 'CMU Serif';font-weight:500;font-style:italic;font-size:12px;">N</text>
                    </g>
                </g>
                <g transform="matrix(1.36467,0,0,1.36467,-57.8751,-208.809)">
                    <g transform="matrix(1.00186,0,0,0.982507,-304.434,3.38455)">
                        <circle cx="462.694" cy="579.759" r="1.099" style="fill:rgb(225,32,32);"/>
                    </g>
                </g>
                <g transform="matrix(1,0,0,1,37.5708,7.81597e-13)">
                    <g transform="matrix(9.28556e-17,-0.863809,1.52685,5.32559e-17,35.3559,732.768)">
                        <path d="M184.783,77.605L184.783,62.497" style="fill:none;fill-rule:nonzero;stroke:rgb(225,32,32);stroke-width:1.61px;"/>
                    </g>
                    <g transform="matrix(0.880825,3.81688e-17,3.91877e-17,1.49736,-41.0591,487.995)">
                        <path d="M184.783,77.605L184.783,62.497" style="fill:none;fill-rule:nonzero;stroke:rgb(225,32,32);stroke-width:1.61px;"/>
                    </g>
                    <g transform="matrix(1.07049e-16,-1.71448,1.76024,1.05702e-16,21.711,889.957)">
                        <path d="M184.783,56.806L186.206,62.497L183.36,62.497L184.783,56.806Z" style="fill:rgb(225,32,32);"/>
                    </g>
                    <g transform="matrix(1.74825,7.34518e-32,3.69779e-32,1.71448,-201.344,475.349)">
                        <path d="M184.783,56.806L186.206,62.497L183.36,62.497L184.783,56.806Z" style="fill:rgb(225,32,32);"/>
                    </g>
                </g>
            </g>
        </g>
    </g>
</svg>
