<?xml version="1.0" encoding="UTF-8" standalone="no"?>
<!DOCTYPE svg PUBLIC "-//W3C//DTD SVG 1.1//EN" "http://www.w3.org/Graphics/SVG/1.1/DTD/svg11.dtd">
<svg width="100%" height="100%" viewBox="0 0 241 131" version="1.1" xmlns="http://www.w3.org/2000/svg" xmlns:xlink="http://www.w3.org/1999/xlink" xml:space="preserve" xmlns:serif="http://www.serif.com/" style="fill-rule:evenodd;clip-rule:evenodd;stroke-linecap:round;stroke-linejoin:round;stroke-miterlimit:10;">
    <g transform="matrix(1,0,0,1,0,-171)">
        <g id="Artboard3" transform="matrix(0.813878,0,0,0.963071,115.612,44.961)">
            <rect x="-142.05" y="130.872" width="295.505" height="135.393" style="fill:none;"/>
            <clipPath id="_clip1">
                <rect x="-142.05" y="130.872" width="295.505" height="135.393"/>
            </clipPath>
            <g clip-path="url(#_clip1)">
                <g transform="matrix(2.4357,0,0,2.09612,75.8543,-158.375)">
                    <g transform="matrix(1,0,0,1,-142.05,130.872)">
                        <g>
                            <path d="M69.569,64.612L118.724,64.612" style="fill:none;fill-rule:nonzero;stroke:black;stroke-width:0.42px;"/>
                        </g>
                    </g>
                    <g transform="matrix(1,0,0,1,-142.05,130.872)">
                        <g>
                            <path d="M122.89,64.612L118.724,65.653L118.724,63.57L122.89,64.612Z"/>
                        </g>
                    </g>
                    <g transform="matrix(1,0,0,1,-142.05,130.872)">
                        <g>
                            <path d="M122.89,64.612L73.734,64.612" style="fill:none;fill-rule:nonzero;stroke:black;stroke-width:0.42px;"/>
                        </g>
                    </g>
                    <g transform="matrix(1,0,0,1,-142.05,130.872)">
                        <g>
                            <path d="M69.569,64.612L73.734,63.57L73.734,65.653L69.569,64.612Z"/>
                        </g>
                    </g>
                    <g transform="matrix(1,0,0,1,-142.05,130.872)">
                        <g>
                            <path d="M69.569,32.64L69.569,60.446" style="fill:none;fill-rule:nonzero;stroke:black;stroke-width:0.42px;"/>
                        </g>
                    </g>
                    <g transform="matrix(1,0,0,1,-142.05,130.872)">
                        <g>
                            <path d="M69.569,64.612L68.527,60.446L70.61,60.446L69.569,64.612Z"/>
                        </g>
                    </g>
                    <g transform="matrix(1,0,0,1,-142.05,130.872)">
                        <g>
                            <path d="M69.569,64.612L69.569,36.806" style="fill:none;fill-rule:nonzero;stroke:black;stroke-width:0.42px;"/>
                        </g>
                    </g>
                    <g transform="matrix(1,0,0,1,-142.05,130.872)">
                        <g>
                            <path d="M69.569,32.64L70.61,36.806L68.527,36.806L69.569,32.64Z"/>
                        </g>
                    </g>
                    <g transform="matrix(1,0,0,1,-142.05,130.872)">
                        <g>
                            <rect x="122.89" y="13.656" width="35.597" height="18.983" style="fill:rgb(255,38,0);fill-opacity:0.09;"/>
                        </g>
                    </g>
                    <g transform="matrix(1,0,0,1,-142.05,130.872)">
                        <path d="M-1.389,32.64L223.85,32.64" style="fill:none;fill-rule:nonzero;stroke:rgb(125,125,255);stroke-opacity:0.7;stroke-width:0.42px;stroke-linecap:butt;stroke-dasharray:4.17,4.17,0,0;"/>
                    </g>
                    <g transform="matrix(1,0,0,1,-142.05,130.872)">
                        <path d="M122.89,103.402L122.89,-1.302" style="fill:none;fill-rule:nonzero;stroke:rgb(125,125,255);stroke-opacity:0.7;stroke-width:0.42px;stroke-linecap:butt;stroke-dasharray:4.17,4.17,0,0;"/>
                    </g>
                    <g transform="matrix(1,0,0,1,-142.05,130.872)">
                        <g>
                            <path d="M122.89,32.64L153.829,16.14" style="fill:none;fill-rule:nonzero;stroke:rgb(255,38,0);stroke-opacity:0.7;stroke-width:0.97px;"/>
                        </g>
                    </g>
                    <g transform="matrix(1,0,0,1,-142.05,130.872)">
                        <g>
                            <path d="M158.487,13.656L154.451,17.304L153.21,14.976L158.487,13.656Z" style="fill:rgb(255,38,0);fill-opacity:0.7;"/>
                        </g>
                    </g>
                    <g transform="matrix(1,0,0,1,-142.05,130.872)">
                        <g>
                            <path d="M122.89,32.64L153.765,32.64" style="fill:none;fill-rule:nonzero;stroke:rgb(4,50,255);stroke-opacity:0.7;stroke-width:0.69px;"/>
                        </g>
                    </g>
                    <g transform="matrix(1,0,0,1,-142.05,130.872)">
                        <g>
                            <path d="M158.487,32.64L153.765,33.82L153.765,31.459L158.487,32.64Z" style="fill:rgb(4,50,255);fill-opacity:0.7;"/>
                        </g>
                    </g>
                    <g transform="matrix(1,0,0,1,-142.05,130.872)">
                        <g>
                            <path d="M122.89,32.64L122.89,18.378" style="fill:none;fill-rule:nonzero;stroke:rgb(4,50,255);stroke-opacity:0.7;stroke-width:0.69px;"/>
                        </g>
                    </g>
                    <g transform="matrix(1,0,0,1,-142.05,130.872)">
                        <g>
                            <path d="M122.89,13.656L124.07,18.378L121.71,18.378L122.89,13.656Z" style="fill:rgb(4,50,255);fill-opacity:0.7;"/>
                        </g>
                    </g>
                    <g transform="matrix(1,0,0,1,-142.05,130.872)">
                        <g>
                            <path d="M70.679,64.612C70.679,65.226 70.182,65.723 69.569,65.723C68.955,65.723 68.458,65.226 68.458,64.612C68.458,63.998 68.955,63.501 69.569,63.501C70.182,63.501 70.679,63.998 70.679,64.612Z" style="fill-rule:nonzero;"/>
                        </g>
                    </g>
                    <g transform="matrix(1,0,0,1,-142.05,130.872)">
                        <g>
                            <path d="M70.679,64.612C70.679,65.226 70.182,65.723 69.569,65.723C68.955,65.723 68.458,65.226 68.458,64.612C68.458,63.998 68.955,63.501 69.569,63.501C70.182,63.501 70.679,63.998 70.679,64.612Z" style="fill:none;fill-rule:nonzero;stroke:black;stroke-width:0.28px;"/>
                        </g>
                    </g>
                    <g transform="matrix(0.236068,0,0,0.236068,19.7618,146.911)">
                        <g>
                            <g>
                                <path d="M17.887,-18.799L18.747,-12.107L17.441,-12.107C17.348,-12.848 17.246,-13.454 17.135,-13.925C17.023,-14.397 16.848,-14.883 16.607,-15.384C16.367,-15.884 16.058,-16.273 15.679,-16.551C15.3,-16.829 14.795,-17.055 14.164,-17.23C13.534,-17.405 12.784,-17.493 11.916,-17.493L8.028,-17.493L8.028,-10.024L9.417,-10.024C10.655,-10.024 11.451,-10.274 11.804,-10.773C12.156,-11.272 12.333,-12.104 12.333,-13.27L13.635,-13.27L13.635,-5.468L12.333,-5.468C12.333,-6.634 12.156,-7.467 11.804,-7.967C11.451,-8.468 10.655,-8.718 9.417,-8.718L8.028,-8.718L8.028,-1.219L11.777,-1.219L11.777,0.087C10.962,0.032 9.091,0.004 6.166,0.004C3.482,0.004 1.788,0.032 1.085,0.087L1.085,-1.219L4.083,-1.219L4.083,-17.493L1.085,-17.493L1.085,-18.799L17.887,-18.799Z" style="fill-rule:nonzero;"/>
                            </g>
                        </g>
                    </g>
                    <g transform="matrix(0.236068,0,0,0.236068,-82.2092,196.377)">
                        <g>
                            <g>
                                <path d="M4.973,-3.107L14.637,-19.328C14.822,-19.623 15.062,-19.78 15.358,-19.797C15.635,-19.797 15.793,-19.704 15.831,-19.519C15.848,-19.464 15.867,-19.335 15.887,-19.133L17.579,-1.775C17.634,-1.312 17.746,-1.034 17.914,-0.942L17.94,-0.942L17.94,-0.911C18.162,-0.819 18.644,-0.772 19.385,-0.772C19.793,-0.772 20.005,-0.671 20.023,-0.469C20.023,-0.098 19.856,0.087 19.524,0.087L16.412,0.004L16.386,0.004L12.941,0.087L12.914,0.087C12.654,0.087 12.524,-0.014 12.524,-0.217C12.674,-0.57 12.897,-0.755 13.192,-0.772C14.526,-0.772 15.193,-1.079 15.193,-1.692C15.193,-1.672 15.044,-3.217 14.746,-6.327L7.776,-6.327L5.667,-2.773C5.407,-2.31 5.277,-1.967 5.277,-1.744C5.277,-1.172 5.712,-0.848 6.583,-0.772C6.878,-0.772 7.026,-0.662 7.026,-0.443C7.026,-0.09 6.851,0.087 6.501,0.087L3.832,0.004L3.723,0.004L1.389,0.087L1.332,0.087C1.092,0.087 0.972,-0.014 0.972,-0.217C0.972,-0.552 1.111,-0.729 1.389,-0.746L1.389,-0.772L1.554,-0.772C2.722,-0.848 3.677,-1.348 4.418,-2.274C4.603,-2.514 4.788,-2.792 4.973,-3.107ZM8.306,-7.19L14.663,-7.19L13.774,-16.356L8.306,-7.19Z" style="fill-rule:nonzero;"/>
                            </g>
                        </g>
                    </g>
                    <g transform="matrix(1.57378,0,0,1.57378,28.1854,-109.264)">
                        <g transform="matrix(0.15,0,0,0.15,-49.2886,191.534)">
                            <g>
                                <g>
                                    <path d="M14.329,-18.881L10.332,-2.829C10.22,-2.366 10.163,-1.922 10.163,-1.497C10.163,-0.644 10.441,-0.217 10.996,-0.217C11.702,-0.217 12.295,-0.958 12.776,-2.439C12.868,-2.754 12.98,-3.162 13.11,-3.662C13.257,-3.978 13.386,-4.144 13.496,-4.162C13.719,-4.162 13.83,-4.069 13.83,-3.884C13.83,-3.606 13.664,-2.958 13.331,-1.94C13.221,-1.624 13.11,-1.357 12.997,-1.137C12.479,-0.119 11.795,0.391 10.944,0.391C9.906,0.391 9.155,-0.053 8.692,-0.942C8.562,-1.164 8.469,-1.415 8.414,-1.692C7.248,-0.304 6.045,0.391 4.804,0.391C3.415,0.391 2.388,-0.239 1.723,-1.497C1.315,-2.238 1.111,-3.09 1.111,-4.053C1.111,-6.052 1.805,-7.904 3.194,-9.608C4.49,-11.161 5.897,-12.012 7.416,-12.159C7.546,-12.18 7.675,-12.19 7.803,-12.19C8.934,-12.19 9.786,-11.597 10.358,-10.41L12.025,-16.994L12.107,-17.549C12.107,-17.752 11.979,-17.882 11.721,-17.939C11.498,-17.994 11.164,-18.022 10.719,-18.022C10.314,-18.022 10.092,-18.133 10.055,-18.356C10.055,-18.669 10.183,-18.844 10.441,-18.881C12.183,-19.087 13.359,-19.189 13.969,-19.189C14.209,-19.189 14.329,-19.087 14.329,-18.881ZM8.553,-3.22L9.942,-8.662C9.997,-8.939 10.024,-9.097 10.024,-9.135C10.024,-9.522 9.858,-9.994 9.525,-10.549C9.117,-11.235 8.553,-11.578 7.833,-11.578C6.869,-11.578 5.952,-10.949 5.082,-9.69C4.917,-9.45 4.759,-9.191 4.609,-8.913C4.073,-7.837 3.621,-6.31 3.25,-4.331C3.138,-3.7 3.081,-3.2 3.081,-2.829C3.081,-1.571 3.434,-0.756 4.14,-0.386C4.342,-0.273 4.583,-0.217 4.86,-0.217C5.896,-0.217 6.942,-0.875 7.998,-2.191C8.258,-2.486 8.435,-2.792 8.527,-3.107L8.527,-3.133C8.545,-3.171 8.553,-3.2 8.553,-3.22Z" style="fill-rule:nonzero;"/>
                                </g>
                            </g>
                        </g>
                        <g transform="matrix(0.105,0,0,0.105,-47.1195,192.159)">
                            <g>
                                <g>
                                    <path d="M9.278,-8.301L8.332,-4.496C8.017,-3.237 7.859,-2.423 7.859,-2.053C7.859,-1.089 8.202,-0.506 8.887,-0.304C9.035,-0.246 9.201,-0.217 9.386,-0.217C10.312,-0.217 11.155,-0.68 11.916,-1.606C12.414,-2.199 12.802,-2.949 13.079,-3.858C13.137,-4.06 13.259,-4.162 13.444,-4.162C13.664,-4.162 13.774,-4.069 13.774,-3.884C13.774,-3.421 13.487,-2.754 12.914,-1.883C11.913,-0.367 10.719,0.391 9.33,0.391C8.072,0.391 7.156,-0.136 6.583,-1.189C6.47,-1.357 6.386,-1.533 6.331,-1.718C5.889,-0.83 5.278,-0.21 4.5,0.143C4.147,0.308 3.786,0.391 3.415,0.391C2.304,0.391 1.528,0.067 1.085,-0.581C0.9,-0.822 0.807,-1.108 0.807,-1.441C0.807,-2.126 1.102,-2.608 1.692,-2.886C1.898,-2.996 2.112,-3.051 2.335,-3.051C2.89,-3.051 3.223,-2.819 3.333,-2.356C3.35,-2.264 3.359,-2.171 3.359,-2.079C3.359,-1.451 3.045,-0.988 2.417,-0.69C2.304,-0.635 2.184,-0.599 2.057,-0.581C2.445,-0.338 2.907,-0.217 3.446,-0.217C4.426,-0.217 5.203,-0.875 5.776,-2.191C5.889,-2.469 5.991,-2.774 6.084,-3.107C7.082,-6.885 7.581,-9.088 7.581,-9.716C7.471,-10.865 6.972,-11.485 6.084,-11.578C5.121,-11.578 4.241,-11.087 3.446,-10.107L3.446,-10.076C3.446,-10.059 3.435,-10.05 3.415,-10.05C3.138,-9.68 2.887,-9.255 2.664,-8.774C2.572,-8.552 2.489,-8.329 2.417,-8.106L2.361,-7.941C2.323,-7.736 2.203,-7.633 2.001,-7.633C1.778,-7.633 1.666,-7.726 1.666,-7.911C1.666,-8.374 1.963,-9.041 2.556,-9.911C3.554,-11.43 4.748,-12.19 6.136,-12.19C7.562,-12.19 8.563,-11.485 9.139,-10.076C9.729,-11.225 10.516,-11.911 11.5,-12.133C11.685,-12.171 11.87,-12.19 12.055,-12.19C13.146,-12.19 13.914,-11.884 14.359,-11.274C14.545,-11.014 14.637,-10.707 14.637,-10.354C14.637,-9.596 14.294,-9.087 13.609,-8.827C13.441,-8.772 13.283,-8.744 13.136,-8.744C12.563,-8.744 12.22,-8.994 12.107,-9.495C12.09,-9.57 12.081,-9.644 12.081,-9.716C12.081,-10.272 12.35,-10.707 12.888,-11.022C13.053,-11.115 13.228,-11.18 13.414,-11.218C13.026,-11.458 12.563,-11.578 12.025,-11.578C10.766,-11.578 9.878,-10.597 9.36,-8.636C9.323,-8.523 9.295,-8.411 9.278,-8.301Z" style="fill-rule:nonzero;"/>
                                </g>
                            </g>
                        </g>
                    </g>
                    <g transform="matrix(1.57378,0,0,1.57378,39.9778,-102.574)">
                        <g transform="matrix(0.15,0,0,0.15,-69.8406,179.591)">
                            <g>
                                <g>
                                    <path d="M14.329,-18.881L10.332,-2.829C10.22,-2.366 10.163,-1.922 10.163,-1.497C10.163,-0.644 10.441,-0.217 10.996,-0.217C11.702,-0.217 12.295,-0.958 12.776,-2.439C12.868,-2.754 12.98,-3.162 13.11,-3.662C13.257,-3.978 13.386,-4.144 13.496,-4.162C13.719,-4.162 13.83,-4.069 13.83,-3.884C13.83,-3.606 13.664,-2.958 13.331,-1.94C13.221,-1.624 13.11,-1.357 12.997,-1.137C12.479,-0.119 11.795,0.391 10.944,0.391C9.906,0.391 9.155,-0.053 8.692,-0.942C8.562,-1.164 8.469,-1.415 8.414,-1.692C7.248,-0.304 6.045,0.391 4.804,0.391C3.415,0.391 2.388,-0.239 1.723,-1.497C1.315,-2.238 1.111,-3.09 1.111,-4.053C1.111,-6.052 1.805,-7.904 3.194,-9.608C4.49,-11.161 5.897,-12.012 7.416,-12.159C7.546,-12.18 7.675,-12.19 7.803,-12.19C8.934,-12.19 9.786,-11.597 10.358,-10.41L12.025,-16.994L12.107,-17.549C12.107,-17.752 11.979,-17.882 11.721,-17.939C11.498,-17.994 11.164,-18.022 10.719,-18.022C10.314,-18.022 10.092,-18.133 10.055,-18.356C10.055,-18.669 10.183,-18.844 10.441,-18.881C12.183,-19.087 13.359,-19.189 13.969,-19.189C14.209,-19.189 14.329,-19.087 14.329,-18.881ZM8.553,-3.22L9.942,-8.662C9.997,-8.939 10.024,-9.097 10.024,-9.135C10.024,-9.522 9.858,-9.994 9.525,-10.549C9.117,-11.235 8.553,-11.578 7.833,-11.578C6.869,-11.578 5.952,-10.949 5.082,-9.69C4.917,-9.45 4.759,-9.191 4.609,-8.913C4.073,-7.837 3.621,-6.31 3.25,-4.331C3.138,-3.7 3.081,-3.2 3.081,-2.829C3.081,-1.571 3.434,-0.756 4.14,-0.386C4.342,-0.273 4.583,-0.217 4.86,-0.217C5.896,-0.217 6.942,-0.875 7.998,-2.191C8.258,-2.486 8.435,-2.792 8.527,-3.107L8.527,-3.133C8.545,-3.171 8.553,-3.2 8.553,-3.22Z" style="fill-rule:nonzero;"/>
                                </g>
                            </g>
                        </g>
                        <g transform="matrix(0.105,0,0,0.105,-67.6715,180.216)">
                            <g>
                                <g>
                                    <path d="M13.496,-10.493L10.831,0.113C10.386,1.93 9.395,3.402 7.859,4.531C6.731,5.364 5.555,5.78 4.331,5.78C3.093,5.78 2.213,5.355 1.692,4.504C1.49,4.152 1.389,3.771 1.389,3.363C1.389,2.42 1.768,1.837 2.526,1.614C2.676,1.577 2.815,1.558 2.942,1.558C3.535,1.558 3.869,1.817 3.945,2.335C3.962,2.393 3.971,2.458 3.971,2.53C3.971,2.955 3.786,3.336 3.415,3.671C3.158,3.891 2.76,4.001 2.222,4.001C2.555,4.779 3.258,5.168 4.331,5.168C5.479,5.168 6.498,4.586 7.386,3.42C8.109,2.456 8.683,1.151 9.109,-0.495C9.129,-0.57 9.156,-0.691 9.191,-0.859C8.358,-0.026 7.424,0.391 6.388,0.391C4.907,0.391 3.897,-0.155 3.359,-1.245C3.119,-1.729 2.999,-2.284 2.999,-2.912C2.999,-3.93 3.489,-5.754 4.47,-8.384C4.507,-8.494 4.554,-8.614 4.609,-8.744C4.924,-9.597 5.082,-10.246 5.082,-10.688C5.082,-11.281 4.85,-11.578 4.387,-11.578C3.369,-11.578 2.536,-10.736 1.888,-9.052L1.888,-9.022C1.778,-8.744 1.676,-8.448 1.584,-8.132C1.379,-7.82 1.23,-7.653 1.137,-7.633C0.917,-7.633 0.807,-7.726 0.807,-7.911C0.807,-8.244 1.001,-8.827 1.389,-9.66C2.204,-11.346 3.232,-12.19 4.47,-12.19C5.453,-12.19 6.139,-11.773 6.527,-10.94C6.674,-10.625 6.748,-10.282 6.748,-9.911C6.748,-9.524 6.563,-8.857 6.193,-7.911C5.249,-5.466 4.778,-3.652 4.778,-2.469C4.778,-0.968 5.352,-0.217 6.501,-0.217C7.574,-0.217 8.508,-0.791 9.304,-1.94C9.489,-2.217 9.6,-2.43 9.638,-2.578L10.888,-7.577C11.018,-8.19 11.203,-8.931 11.443,-9.799C11.628,-10.597 11.757,-11.098 11.83,-11.3C12.073,-11.688 12.397,-11.882 12.802,-11.882C13.265,-11.789 13.534,-11.54 13.609,-11.135C13.609,-10.967 13.571,-10.753 13.496,-10.493Z" style="fill-rule:nonzero;"/>
                                </g>
                            </g>
                        </g>
                    </g>
                    <g transform="matrix(1.57378,0,0,1.57378,0.97477,-92.8192)">
                        <g transform="matrix(0.15,0,0,0.15,-3.18543,168.713)">
                            <g>
                                <g>
                                    <path d="M8.414,-8.939L6.692,-2.022C6.619,-1.744 6.583,-1.532 6.583,-1.384C6.583,-1.127 6.703,-0.969 6.943,-0.911C7.073,-0.877 7.25,-0.849 7.473,-0.829C7.935,-0.791 8.416,-0.772 8.913,-0.772C9.376,-0.772 9.637,-0.764 9.694,-0.746L9.833,-0.551C9.851,-0.513 9.859,-0.477 9.859,-0.443C9.859,-0.09 9.666,0.087 9.278,0.087L5.164,0.004L5.138,0.004L1.501,0.087L1.471,0.087C1.193,0.087 1.055,-0.025 1.055,-0.247C1.055,-0.563 1.203,-0.738 1.501,-0.772L1.831,-0.772C3.035,-0.772 3.758,-0.903 4.001,-1.163C4.111,-1.293 4.221,-1.552 4.331,-1.94C4.331,-1.96 4.341,-2.006 4.361,-2.079L8.028,-16.772C8.121,-17.105 8.167,-17.326 8.167,-17.436C8.167,-17.752 7.74,-17.919 6.887,-17.939L6.362,-17.939C5.879,-17.939 5.618,-18.041 5.581,-18.243C5.581,-18.576 5.73,-18.761 6.028,-18.799L20.023,-18.799C20.468,-18.799 20.71,-18.734 20.747,-18.604L20.773,-18.604C20.811,-18.494 20.811,-18.308 20.773,-18.048L20.218,-13.244C20.088,-12.819 19.959,-12.587 19.832,-12.55C19.609,-12.55 19.497,-12.661 19.497,-12.884C19.497,-12.977 19.516,-13.143 19.554,-13.383C19.609,-13.884 19.636,-14.384 19.636,-14.884C19.636,-16.123 19.321,-16.946 18.69,-17.354L18.664,-17.384C18.071,-17.754 17.043,-17.939 15.579,-17.939L11.916,-17.939C11.231,-17.939 10.823,-17.837 10.693,-17.631L10.666,-17.631L10.666,-17.605C10.609,-17.53 10.562,-17.419 10.528,-17.271L10.528,-17.245L10.497,-17.215C10.48,-17.142 10.452,-17.022 10.415,-16.855L8.636,-9.799L11.166,-9.799C12.517,-9.799 13.424,-10.049 13.886,-10.549L13.913,-10.58C14.228,-10.93 14.506,-11.559 14.746,-12.467C14.838,-12.817 14.977,-13.011 15.162,-13.049C15.368,-13.049 15.479,-12.948 15.496,-12.745C15.496,-12.653 15.469,-12.504 15.414,-12.298L13.886,-6.275C13.701,-5.905 13.562,-5.709 13.47,-5.689C13.247,-5.689 13.136,-5.8 13.136,-6.023C13.136,-6.098 13.163,-6.2 13.218,-6.327C13.348,-6.882 13.414,-7.337 13.414,-7.69C13.414,-8.228 13.21,-8.579 12.802,-8.744C12.452,-8.874 11.887,-8.939 11.109,-8.939L8.414,-8.939Z" style="fill-rule:nonzero;"/>
                                </g>
                            </g>
                        </g>
                        <g transform="matrix(0.105,0,0,0.105,-0.505336,169.338)">
                            <g>
                                <g>
                                    <path d="M9.278,-8.301L8.332,-4.496C8.017,-3.237 7.859,-2.423 7.859,-2.053C7.859,-1.089 8.202,-0.506 8.887,-0.304C9.035,-0.246 9.201,-0.217 9.386,-0.217C10.312,-0.217 11.155,-0.68 11.916,-1.606C12.414,-2.199 12.802,-2.949 13.079,-3.858C13.137,-4.06 13.259,-4.162 13.444,-4.162C13.664,-4.162 13.774,-4.069 13.774,-3.884C13.774,-3.421 13.487,-2.754 12.914,-1.883C11.913,-0.367 10.719,0.391 9.33,0.391C8.072,0.391 7.156,-0.136 6.583,-1.189C6.47,-1.357 6.386,-1.533 6.331,-1.718C5.889,-0.83 5.278,-0.21 4.5,0.143C4.147,0.308 3.786,0.391 3.415,0.391C2.304,0.391 1.528,0.067 1.085,-0.581C0.9,-0.822 0.807,-1.108 0.807,-1.441C0.807,-2.126 1.102,-2.608 1.692,-2.886C1.898,-2.996 2.112,-3.051 2.335,-3.051C2.89,-3.051 3.223,-2.819 3.333,-2.356C3.35,-2.264 3.359,-2.171 3.359,-2.079C3.359,-1.451 3.045,-0.988 2.417,-0.69C2.304,-0.635 2.184,-0.599 2.057,-0.581C2.445,-0.338 2.907,-0.217 3.446,-0.217C4.426,-0.217 5.203,-0.875 5.776,-2.191C5.889,-2.469 5.991,-2.774 6.084,-3.107C7.082,-6.885 7.581,-9.088 7.581,-9.716C7.471,-10.865 6.972,-11.485 6.084,-11.578C5.121,-11.578 4.241,-11.087 3.446,-10.107L3.446,-10.076C3.446,-10.059 3.435,-10.05 3.415,-10.05C3.138,-9.68 2.887,-9.255 2.664,-8.774C2.572,-8.552 2.489,-8.329 2.417,-8.106L2.361,-7.941C2.323,-7.736 2.203,-7.633 2.001,-7.633C1.778,-7.633 1.666,-7.726 1.666,-7.911C1.666,-8.374 1.963,-9.041 2.556,-9.911C3.554,-11.43 4.748,-12.19 6.136,-12.19C7.562,-12.19 8.563,-11.485 9.139,-10.076C9.729,-11.225 10.516,-11.911 11.5,-12.133C11.685,-12.171 11.87,-12.19 12.055,-12.19C13.146,-12.19 13.914,-11.884 14.359,-11.274C14.545,-11.014 14.637,-10.707 14.637,-10.354C14.637,-9.596 14.294,-9.087 13.609,-8.827C13.441,-8.772 13.283,-8.744 13.136,-8.744C12.563,-8.744 12.22,-8.994 12.107,-9.495C12.09,-9.57 12.081,-9.644 12.081,-9.716C12.081,-10.272 12.35,-10.707 12.888,-11.022C13.053,-11.115 13.228,-11.18 13.414,-11.218C13.026,-11.458 12.563,-11.578 12.025,-11.578C10.766,-11.578 9.878,-10.597 9.36,-8.636C9.323,-8.523 9.295,-8.411 9.278,-8.301Z" style="fill-rule:nonzero;"/>
                                </g>
                            </g>
                        </g>
                    </g>
                    <g transform="matrix(1.57378,0,0,1.57378,13.2825,-85.8661)">
                        <g transform="matrix(0.15,0,0,0.15,-28.1811,151.771)">
                            <g>
                                <g>
                                    <path d="M8.414,-8.939L6.692,-2.022C6.619,-1.744 6.583,-1.532 6.583,-1.384C6.583,-1.127 6.703,-0.969 6.943,-0.911C7.073,-0.877 7.25,-0.849 7.473,-0.829C7.935,-0.791 8.416,-0.772 8.913,-0.772C9.376,-0.772 9.637,-0.764 9.694,-0.746L9.833,-0.551C9.851,-0.513 9.859,-0.477 9.859,-0.443C9.859,-0.09 9.666,0.087 9.278,0.087L5.164,0.004L5.138,0.004L1.501,0.087L1.471,0.087C1.193,0.087 1.055,-0.025 1.055,-0.247C1.055,-0.563 1.203,-0.738 1.501,-0.772L1.831,-0.772C3.035,-0.772 3.758,-0.903 4.001,-1.163C4.111,-1.293 4.221,-1.552 4.331,-1.94C4.331,-1.96 4.341,-2.006 4.361,-2.079L8.028,-16.772C8.121,-17.105 8.167,-17.326 8.167,-17.436C8.167,-17.752 7.74,-17.919 6.887,-17.939L6.362,-17.939C5.879,-17.939 5.618,-18.041 5.581,-18.243C5.581,-18.576 5.73,-18.761 6.028,-18.799L20.023,-18.799C20.468,-18.799 20.71,-18.734 20.747,-18.604L20.773,-18.604C20.811,-18.494 20.811,-18.308 20.773,-18.048L20.218,-13.244C20.088,-12.819 19.959,-12.587 19.832,-12.55C19.609,-12.55 19.497,-12.661 19.497,-12.884C19.497,-12.977 19.516,-13.143 19.554,-13.383C19.609,-13.884 19.636,-14.384 19.636,-14.884C19.636,-16.123 19.321,-16.946 18.69,-17.354L18.664,-17.384C18.071,-17.754 17.043,-17.939 15.579,-17.939L11.916,-17.939C11.231,-17.939 10.823,-17.837 10.693,-17.631L10.666,-17.631L10.666,-17.605C10.609,-17.53 10.562,-17.419 10.528,-17.271L10.528,-17.245L10.497,-17.215C10.48,-17.142 10.452,-17.022 10.415,-16.855L8.636,-9.799L11.166,-9.799C12.517,-9.799 13.424,-10.049 13.886,-10.549L13.913,-10.58C14.228,-10.93 14.506,-11.559 14.746,-12.467C14.838,-12.817 14.977,-13.011 15.162,-13.049C15.368,-13.049 15.479,-12.948 15.496,-12.745C15.496,-12.653 15.469,-12.504 15.414,-12.298L13.886,-6.275C13.701,-5.905 13.562,-5.709 13.47,-5.689C13.247,-5.689 13.136,-5.8 13.136,-6.023C13.136,-6.098 13.163,-6.2 13.218,-6.327C13.348,-6.882 13.414,-7.337 13.414,-7.69C13.414,-8.228 13.21,-8.579 12.802,-8.744C12.452,-8.874 11.887,-8.939 11.109,-8.939L8.414,-8.939Z" style="fill-rule:nonzero;"/>
                                </g>
                            </g>
                        </g>
                        <g transform="matrix(0.105,0,0,0.105,-25.501,152.396)">
                            <g>
                                <g>
                                    <path d="M13.496,-10.493L10.831,0.113C10.386,1.93 9.395,3.402 7.859,4.531C6.731,5.364 5.555,5.78 4.331,5.78C3.093,5.78 2.213,5.355 1.692,4.504C1.49,4.152 1.389,3.771 1.389,3.363C1.389,2.42 1.768,1.837 2.526,1.614C2.676,1.577 2.815,1.558 2.942,1.558C3.535,1.558 3.869,1.817 3.945,2.335C3.962,2.393 3.971,2.458 3.971,2.53C3.971,2.955 3.786,3.336 3.415,3.671C3.158,3.891 2.76,4.001 2.222,4.001C2.555,4.779 3.258,5.168 4.331,5.168C5.479,5.168 6.498,4.586 7.386,3.42C8.109,2.456 8.683,1.151 9.109,-0.495C9.129,-0.57 9.156,-0.691 9.191,-0.859C8.358,-0.026 7.424,0.391 6.388,0.391C4.907,0.391 3.897,-0.155 3.359,-1.245C3.119,-1.729 2.999,-2.284 2.999,-2.912C2.999,-3.93 3.489,-5.754 4.47,-8.384C4.507,-8.494 4.554,-8.614 4.609,-8.744C4.924,-9.597 5.082,-10.246 5.082,-10.688C5.082,-11.281 4.85,-11.578 4.387,-11.578C3.369,-11.578 2.536,-10.736 1.888,-9.052L1.888,-9.022C1.778,-8.744 1.676,-8.448 1.584,-8.132C1.379,-7.82 1.23,-7.653 1.137,-7.633C0.917,-7.633 0.807,-7.726 0.807,-7.911C0.807,-8.244 1.001,-8.827 1.389,-9.66C2.204,-11.346 3.232,-12.19 4.47,-12.19C5.453,-12.19 6.139,-11.773 6.527,-10.94C6.674,-10.625 6.748,-10.282 6.748,-9.911C6.748,-9.524 6.563,-8.857 6.193,-7.911C5.249,-5.466 4.778,-3.652 4.778,-2.469C4.778,-0.968 5.352,-0.217 6.501,-0.217C7.574,-0.217 8.508,-0.791 9.304,-1.94C9.489,-2.217 9.6,-2.43 9.638,-2.578L10.888,-7.577C11.018,-8.19 11.203,-8.931 11.443,-9.799C11.628,-10.597 11.757,-11.098 11.83,-11.3C12.073,-11.688 12.397,-11.882 12.802,-11.882C13.265,-11.789 13.534,-11.54 13.609,-11.135C13.609,-10.967 13.571,-10.753 13.496,-10.493Z" style="fill-rule:nonzero;"/>
                                </g>
                            </g>
                        </g>
                    </g>
                </g>
            </g>
        </g>
    </g>
</svg>
