<?xml version="1.0" encoding="UTF-8" standalone="no"?>
<!DOCTYPE svg PUBLIC "-//W3C//DTD SVG 1.1//EN" "http://www.w3.org/Graphics/SVG/1.1/DTD/svg11.dtd">
<svg width="100%" height="100%" viewBox="0 0 234 131" version="1.1" xmlns="http://www.w3.org/2000/svg" xmlns:xlink="http://www.w3.org/1999/xlink" xml:space="preserve" xmlns:serif="http://www.serif.com/" style="fill-rule:evenodd;clip-rule:evenodd;stroke-linecap:round;stroke-linejoin:round;stroke-miterlimit:10;">
    <g transform="matrix(1,0,0,1,-69,0)">
        <g id="CH04-moment-example" transform="matrix(1.65541,0,0,0.591618,-985.825,-95.0725)">
            <rect x="637.228" y="160.699" width="140.75" height="221.21" style="fill:none;"/>
            <clipPath id="_clip1">
                <rect x="637.228" y="160.699" width="140.75" height="221.21"/>
            </clipPath>
            <g clip-path="url(#_clip1)">
                <g transform="matrix(0.161352,-0.260662,0.107171,0.5194,760.889,458.97)">
                    <g transform="matrix(2.8079,1.40915,-1.62114,2.44072,-288.878,-719.234)">
                        <path d="M224.842,5.145L231.813,3.718L227.092,9.042L224.842,5.145Z" style="fill:rgb(233,55,41);fill-rule:nonzero;"/>
                        <path d="M184.535,31.014C184.535,31.014 215.199,13.31 227.136,6.418" style="fill:none;fill-rule:nonzero;stroke:rgb(233,55,41);stroke-width:1.5px;"/>
                    </g>
                </g>
                <g transform="matrix(0,-1.04956,0.214341,0,825.834,405.492)">
                    <path d="M193,-357L230.012,-357" style="fill:none;fill-rule:nonzero;stroke:black;stroke-width:1px;"/>
                </g>
                <g transform="matrix(0,-0.599751,0.214341,0,748.778,106.066)">
                    <path d="M-166.5,-354.5L-95.5,-354.5" style="fill:none;fill-rule:nonzero;stroke:black;stroke-width:1.42px;"/>
                </g>
                <g transform="matrix(-0.214341,0,0,-0.599751,721.235,-41.7726)">
                    <g transform="matrix(-2.8183,-0,-0,-2.8183,392.074,-337.593)">
                        <path d="M184.011,10.836L185.145,10.08L184.011,9.324" style="fill:none;fill-rule:nonzero;stroke:black;stroke-width:0.5px;stroke-linejoin:miter;"/>
                        <path d="M61.195,10.836L58.927,10.08L61.195,9.324L61.195,10.836Z" style="fill-rule:nonzero;"/>
                        <path d="M185.145,10.08L60.741,10.08" style="fill:none;fill-rule:nonzero;stroke:black;stroke-width:0.5px;"/>
                    </g>
                </g>
                <g transform="matrix(-0.214341,0,0,-0.599751,611.707,28.9981)">
                    <path d="M-273,-307L-143,-307" style="fill:none;fill-rule:nonzero;stroke:black;stroke-width:1.42px;"/>
                </g>
                <g transform="matrix(0,0.199335,-0.214341,0,657.683,333.42)">
                    <g transform="matrix(0,-2.8183,8.47961,0,-866.488,95.5743)">
                        <path d="M17.814,33.282L17.058,31.014L16.302,33.282L17.814,33.282Z" style="fill-rule:nonzero;"/>
                        <path d="M17.814,112.358L17.058,114.626L16.302,112.358L17.814,112.358Z" style="fill-rule:nonzero;"/>
                        <path d="M17.058,32.829L17.058,112.812" style="fill:none;fill-rule:nonzero;stroke:black;stroke-width:0.5px;"/>
                    </g>
                </g>
                <g transform="matrix(1.14214,0,0,2.49896,-96.2819,-452.5)">
                    <g transform="matrix(0.781947,0,0,1,139.128,0.69913)">
                        <rect x="714.112" y="245" width="23.888" height="13" style="fill:white;"/>
                    </g>
                    <g transform="matrix(0.615731,0,0,0.787433,255.185,42.2969)">
                        <g transform="matrix(11.4531,0,0,11.4531,723,270.605)">
                            <path d="M0.051,-0.536C0.07,-0.581 0.094,-0.615 0.122,-0.639C0.151,-0.664 0.187,-0.676 0.23,-0.676C0.283,-0.676 0.324,-0.659 0.352,-0.624C0.374,-0.598 0.384,-0.571 0.384,-0.542C0.384,-0.493 0.354,-0.444 0.293,-0.392C0.334,-0.376 0.365,-0.353 0.386,-0.324C0.407,-0.294 0.417,-0.259 0.417,-0.219C0.417,-0.162 0.399,-0.112 0.362,-0.07C0.315,-0.016 0.246,0.012 0.156,0.012C0.111,0.012 0.081,0.006 0.065,-0.005C0.049,-0.016 0.041,-0.028 0.041,-0.041C0.041,-0.05 0.044,-0.058 0.052,-0.065C0.06,-0.073 0.069,-0.076 0.08,-0.076C0.088,-0.076 0.096,-0.075 0.104,-0.072C0.11,-0.071 0.123,-0.065 0.142,-0.054C0.162,-0.044 0.175,-0.038 0.183,-0.036C0.195,-0.033 0.208,-0.031 0.221,-0.031C0.254,-0.031 0.283,-0.044 0.308,-0.069C0.332,-0.095 0.345,-0.125 0.345,-0.161C0.345,-0.186 0.339,-0.211 0.328,-0.236C0.319,-0.254 0.31,-0.268 0.3,-0.277C0.286,-0.29 0.267,-0.302 0.242,-0.313C0.218,-0.323 0.193,-0.329 0.167,-0.329L0.152,-0.329L0.152,-0.343C0.178,-0.347 0.203,-0.356 0.229,-0.371C0.255,-0.386 0.274,-0.405 0.286,-0.426C0.297,-0.448 0.303,-0.471 0.303,-0.497C0.303,-0.531 0.293,-0.558 0.272,-0.578C0.251,-0.599 0.225,-0.609 0.193,-0.609C0.143,-0.609 0.101,-0.582 0.067,-0.528L0.051,-0.536Z" style="fill-rule:nonzero;"/>
                        </g>
                        <g transform="matrix(11.4531,0,0,11.4531,731.59,270.605)">
                            <path d="M0.206,-0.412L0.206,-0.118C0.206,-0.076 0.211,-0.05 0.22,-0.039C0.232,-0.025 0.248,-0.018 0.268,-0.018L0.309,-0.018L0.309,-0L0.042,-0L0.042,-0.018L0.062,-0.018C0.075,-0.018 0.086,-0.021 0.097,-0.027C0.108,-0.034 0.115,-0.043 0.119,-0.054C0.123,-0.065 0.125,-0.086 0.125,-0.118L0.125,-0.412L0.039,-0.412L0.039,-0.447L0.125,-0.447L0.125,-0.477C0.125,-0.521 0.133,-0.559 0.147,-0.59C0.161,-0.621 0.183,-0.646 0.213,-0.665C0.242,-0.684 0.275,-0.693 0.312,-0.693C0.346,-0.693 0.378,-0.682 0.406,-0.66C0.425,-0.646 0.435,-0.629 0.435,-0.611C0.435,-0.601 0.43,-0.592 0.422,-0.583C0.413,-0.575 0.404,-0.57 0.395,-0.57C0.387,-0.57 0.379,-0.573 0.371,-0.578C0.363,-0.584 0.352,-0.595 0.34,-0.613C0.328,-0.631 0.317,-0.643 0.307,-0.649C0.297,-0.655 0.286,-0.658 0.273,-0.658C0.258,-0.658 0.246,-0.654 0.235,-0.646C0.225,-0.638 0.217,-0.626 0.213,-0.609C0.208,-0.592 0.206,-0.549 0.206,-0.479L0.206,-0.447L0.321,-0.447L0.321,-0.412L0.206,-0.412Z" style="fill-rule:nonzero;"/>
                        </g>
                        <g transform="matrix(11.4531,0,0,11.4531,735.404,270.605)">
                            <path d="M0.161,-0.594L0.161,-0.447L0.266,-0.447L0.266,-0.413L0.161,-0.413L0.161,-0.123C0.161,-0.094 0.165,-0.075 0.174,-0.064C0.182,-0.054 0.193,-0.049 0.206,-0.049C0.216,-0.049 0.227,-0.053 0.237,-0.059C0.247,-0.066 0.255,-0.076 0.26,-0.089L0.279,-0.089C0.268,-0.057 0.252,-0.033 0.231,-0.017C0.21,-0.001 0.189,0.007 0.167,0.007C0.152,0.007 0.137,0.003 0.123,-0.005C0.108,-0.013 0.098,-0.025 0.091,-0.041C0.084,-0.056 0.081,-0.08 0.081,-0.112L0.081,-0.413L0.01,-0.413L0.01,-0.429C0.028,-0.436 0.046,-0.448 0.065,-0.466C0.083,-0.483 0.1,-0.503 0.115,-0.526C0.122,-0.539 0.133,-0.561 0.146,-0.594L0.161,-0.594Z" style="fill-rule:nonzero;"/>
                        </g>
                    </g>
                </g>
                <g transform="matrix(1.14214,0,0,2.49896,-159.441,-350.662)">
                    <g transform="matrix(0.781947,0,0,1,139.128,0.69913)">
                        <rect x="714.112" y="245" width="23.888" height="13" style="fill:white;"/>
                    </g>
                    <g transform="matrix(0.615731,0,0,0.787433,255.158,42.2969)">
                        <g transform="matrix(11.4531,0,0,11.4531,723,270.605)">
                            <path d="M0.458,-0.127L0.412,-0L0.021,-0L0.021,-0.018C0.136,-0.123 0.217,-0.208 0.264,-0.275C0.311,-0.341 0.334,-0.402 0.334,-0.457C0.334,-0.499 0.322,-0.534 0.296,-0.561C0.27,-0.588 0.239,-0.601 0.204,-0.601C0.171,-0.601 0.142,-0.592 0.116,-0.573C0.09,-0.553 0.071,-0.526 0.059,-0.489L0.041,-0.489C0.049,-0.549 0.07,-0.595 0.103,-0.627C0.137,-0.66 0.179,-0.676 0.229,-0.676C0.283,-0.676 0.328,-0.659 0.364,-0.624C0.4,-0.59 0.418,-0.549 0.418,-0.502C0.418,-0.468 0.41,-0.435 0.395,-0.401C0.37,-0.349 0.331,-0.293 0.277,-0.234C0.196,-0.145 0.146,-0.092 0.125,-0.074L0.298,-0.074C0.333,-0.074 0.358,-0.075 0.372,-0.078C0.386,-0.08 0.399,-0.086 0.411,-0.094C0.422,-0.101 0.432,-0.113 0.44,-0.127L0.458,-0.127Z" style="fill-rule:nonzero;"/>
                        </g>
                        <g transform="matrix(11.4531,0,0,11.4531,731.59,270.605)">
                            <path d="M0.206,-0.412L0.206,-0.118C0.206,-0.076 0.211,-0.05 0.22,-0.039C0.232,-0.025 0.248,-0.018 0.268,-0.018L0.309,-0.018L0.309,-0L0.042,-0L0.042,-0.018L0.062,-0.018C0.075,-0.018 0.086,-0.021 0.097,-0.027C0.108,-0.034 0.115,-0.043 0.119,-0.054C0.123,-0.065 0.125,-0.086 0.125,-0.118L0.125,-0.412L0.039,-0.412L0.039,-0.447L0.125,-0.447L0.125,-0.477C0.125,-0.521 0.133,-0.559 0.147,-0.59C0.161,-0.621 0.183,-0.646 0.213,-0.665C0.242,-0.684 0.275,-0.693 0.312,-0.693C0.346,-0.693 0.378,-0.682 0.406,-0.66C0.425,-0.646 0.435,-0.629 0.435,-0.611C0.435,-0.601 0.43,-0.592 0.422,-0.583C0.413,-0.575 0.404,-0.57 0.395,-0.57C0.387,-0.57 0.379,-0.573 0.371,-0.578C0.363,-0.584 0.352,-0.595 0.34,-0.613C0.328,-0.631 0.317,-0.643 0.307,-0.649C0.297,-0.655 0.286,-0.658 0.273,-0.658C0.258,-0.658 0.246,-0.654 0.235,-0.646C0.225,-0.638 0.217,-0.626 0.213,-0.609C0.208,-0.592 0.206,-0.549 0.206,-0.479L0.206,-0.447L0.321,-0.447L0.321,-0.412L0.206,-0.412Z" style="fill-rule:nonzero;"/>
                        </g>
                        <g transform="matrix(11.4531,0,0,11.4531,735.404,270.605)">
                            <path d="M0.161,-0.594L0.161,-0.447L0.266,-0.447L0.266,-0.413L0.161,-0.413L0.161,-0.123C0.161,-0.094 0.165,-0.075 0.174,-0.064C0.182,-0.054 0.193,-0.049 0.206,-0.049C0.216,-0.049 0.227,-0.053 0.237,-0.059C0.247,-0.066 0.255,-0.076 0.26,-0.089L0.279,-0.089C0.268,-0.057 0.252,-0.033 0.231,-0.017C0.21,-0.001 0.189,0.007 0.167,0.007C0.152,0.007 0.137,0.003 0.123,-0.005C0.108,-0.013 0.098,-0.025 0.091,-0.041C0.084,-0.056 0.081,-0.08 0.081,-0.112L0.081,-0.413L0.01,-0.413L0.01,-0.429C0.028,-0.436 0.046,-0.448 0.065,-0.466C0.083,-0.483 0.1,-0.503 0.115,-0.526C0.122,-0.539 0.133,-0.561 0.146,-0.594L0.161,-0.594Z" style="fill-rule:nonzero;"/>
                        </g>
                    </g>
                </g>
                <g transform="matrix(0.703248,0,0,1.96777,273.045,-467.288)">
                    <g transform="matrix(11.4531,0,0,11.4531,706,341)">
                        <path d="M0.062,-0.012C0.062,-0.021 0.064,-0.026 0.068,-0.028C0.072,-0.03 0.079,-0.031 0.089,-0.031C0.121,-0.031 0.142,-0.033 0.151,-0.038C0.16,-0.043 0.167,-0.055 0.171,-0.073L0.305,-0.609C0.308,-0.619 0.309,-0.627 0.309,-0.632C0.309,-0.636 0.308,-0.639 0.307,-0.641C0.306,-0.643 0.301,-0.645 0.292,-0.646C0.282,-0.648 0.269,-0.649 0.251,-0.649C0.243,-0.649 0.237,-0.649 0.234,-0.649C0.231,-0.65 0.229,-0.651 0.227,-0.653C0.225,-0.655 0.224,-0.658 0.224,-0.662C0.224,-0.67 0.226,-0.675 0.23,-0.677C0.234,-0.679 0.241,-0.68 0.251,-0.68L0.706,-0.68C0.713,-0.68 0.717,-0.68 0.719,-0.68C0.721,-0.68 0.724,-0.679 0.727,-0.677C0.73,-0.675 0.731,-0.674 0.731,-0.671C0.731,-0.67 0.731,-0.67 0.73,-0.669C0.729,-0.666 0.729,-0.661 0.73,-0.654L0.707,-0.477C0.706,-0.471 0.706,-0.466 0.705,-0.463C0.704,-0.46 0.703,-0.458 0.7,-0.457C0.698,-0.456 0.694,-0.455 0.69,-0.455C0.68,-0.455 0.675,-0.459 0.675,-0.467L0.676,-0.483C0.68,-0.514 0.682,-0.535 0.682,-0.549C0.682,-0.586 0.673,-0.611 0.656,-0.626C0.639,-0.641 0.604,-0.649 0.553,-0.649L0.436,-0.649C0.419,-0.649 0.407,-0.647 0.402,-0.644C0.397,-0.641 0.392,-0.631 0.388,-0.615L0.324,-0.356L0.402,-0.356C0.441,-0.356 0.468,-0.362 0.483,-0.375C0.498,-0.389 0.51,-0.414 0.519,-0.452C0.522,-0.462 0.524,-0.467 0.526,-0.47C0.528,-0.472 0.532,-0.473 0.538,-0.473C0.548,-0.473 0.553,-0.469 0.553,-0.462C0.553,-0.458 0.552,-0.453 0.551,-0.448L0.496,-0.228C0.493,-0.219 0.491,-0.213 0.489,-0.211C0.487,-0.209 0.483,-0.208 0.477,-0.208C0.467,-0.208 0.462,-0.212 0.462,-0.22C0.462,-0.223 0.463,-0.227 0.465,-0.234C0.47,-0.255 0.473,-0.272 0.473,-0.283C0.473,-0.298 0.468,-0.309 0.459,-0.315C0.45,-0.322 0.43,-0.325 0.399,-0.325L0.316,-0.325L0.253,-0.073C0.25,-0.063 0.249,-0.056 0.249,-0.052C0.249,-0.047 0.25,-0.043 0.251,-0.041C0.253,-0.038 0.259,-0.036 0.271,-0.034C0.282,-0.032 0.299,-0.031 0.322,-0.031L0.332,-0.031C0.339,-0.031 0.343,-0.031 0.346,-0.03C0.349,-0.03 0.351,-0.029 0.354,-0.027C0.356,-0.026 0.357,-0.023 0.357,-0.019C0.357,-0.006 0.35,-0 0.336,-0C0.321,-0 0.299,-0 0.268,-0.001C0.237,-0.002 0.214,-0.003 0.198,-0.003C0.185,-0.003 0.165,-0.002 0.137,-0.001C0.11,-0 0.09,-0 0.076,-0C0.067,-0 0.062,-0.004 0.062,-0.012Z" style="fill-rule:nonzero;"/>
                    </g>
                </g>
                <g transform="matrix(0,-2.49896,-0.893089,0,915.5,539.586)">
                    <path d="M130.64,185.36C131.435,185.36 132.08,185.951 132.08,186.68C132.08,187.409 131.435,188 130.64,188C129.845,188 129.2,187.409 129.2,186.68C129.2,185.951 129.845,185.36 130.64,185.36" style="fill-rule:nonzero;stroke:black;stroke-width:0.1px;stroke-linecap:butt;"/>
                </g>
                <g id="surface1">
                </g>
                <g transform="matrix(0.703248,0,0,1.96777,673.876,39.6522)">
                    <g transform="matrix(11.4531,0,0,11.4531,111.281,73)">
                        <path d="M0.448,-0.676L0.448,-0.658C0.405,-0.653 0.37,-0.645 0.343,-0.632C0.316,-0.619 0.289,-0.6 0.262,-0.573C0.236,-0.547 0.214,-0.517 0.197,-0.485C0.179,-0.453 0.165,-0.414 0.153,-0.37C0.2,-0.402 0.247,-0.418 0.294,-0.418C0.339,-0.418 0.378,-0.4 0.412,-0.363C0.445,-0.327 0.461,-0.28 0.461,-0.223C0.461,-0.167 0.445,-0.117 0.411,-0.071C0.371,-0.016 0.317,0.012 0.251,0.012C0.206,0.012 0.167,-0.003 0.136,-0.033C0.074,-0.091 0.043,-0.167 0.043,-0.26C0.043,-0.319 0.055,-0.375 0.079,-0.429C0.102,-0.482 0.136,-0.529 0.18,-0.571C0.225,-0.612 0.267,-0.64 0.307,-0.654C0.347,-0.669 0.385,-0.676 0.42,-0.676L0.448,-0.676ZM0.145,-0.334C0.139,-0.29 0.136,-0.255 0.136,-0.228C0.136,-0.196 0.142,-0.162 0.153,-0.126C0.165,-0.089 0.182,-0.06 0.205,-0.039C0.221,-0.023 0.241,-0.016 0.265,-0.016C0.293,-0.016 0.319,-0.029 0.341,-0.056C0.363,-0.082 0.375,-0.12 0.375,-0.17C0.375,-0.226 0.363,-0.274 0.341,-0.314C0.319,-0.355 0.288,-0.375 0.247,-0.375C0.235,-0.375 0.221,-0.373 0.207,-0.368C0.193,-0.362 0.172,-0.351 0.145,-0.334Z" style="fill-rule:nonzero;"/>
                    </g>
                    <g transform="matrix(11.4531,0,0,11.4531,117.008,73)">
                        <path d="M0.036,-0.327C0.036,-0.403 0.048,-0.468 0.07,-0.522C0.093,-0.577 0.123,-0.617 0.161,-0.644C0.19,-0.665 0.221,-0.676 0.252,-0.676C0.303,-0.676 0.348,-0.65 0.389,-0.598C0.439,-0.534 0.464,-0.447 0.464,-0.337C0.464,-0.261 0.453,-0.195 0.431,-0.142C0.409,-0.088 0.381,-0.049 0.346,-0.025C0.312,-0 0.279,0.012 0.247,0.012C0.184,0.012 0.131,-0.026 0.089,-0.1C0.054,-0.163 0.036,-0.239 0.036,-0.327ZM0.132,-0.315C0.132,-0.224 0.143,-0.149 0.166,-0.092C0.184,-0.043 0.212,-0.019 0.249,-0.019C0.266,-0.019 0.284,-0.027 0.303,-0.043C0.322,-0.059 0.336,-0.085 0.346,-0.122C0.361,-0.178 0.369,-0.257 0.369,-0.359C0.369,-0.434 0.361,-0.497 0.345,-0.548C0.333,-0.585 0.318,-0.612 0.3,-0.627C0.286,-0.638 0.27,-0.644 0.251,-0.644C0.229,-0.644 0.21,-0.634 0.192,-0.614C0.169,-0.587 0.153,-0.544 0.145,-0.486C0.136,-0.428 0.132,-0.371 0.132,-0.315Z" style="fill-rule:nonzero;"/>
                    </g>
                    <g transform="matrix(11.4531,0,0,11.4531,122.735,73)">
                        <path d="M0.198,-0.677C0.24,-0.677 0.275,-0.662 0.304,-0.633C0.334,-0.604 0.348,-0.568 0.348,-0.526C0.348,-0.485 0.333,-0.45 0.304,-0.42C0.275,-0.391 0.239,-0.376 0.198,-0.376C0.156,-0.376 0.121,-0.391 0.092,-0.42C0.063,-0.45 0.048,-0.485 0.048,-0.526C0.048,-0.568 0.062,-0.604 0.092,-0.633C0.121,-0.662 0.156,-0.677 0.198,-0.677ZM0.198,-0.636C0.167,-0.636 0.142,-0.625 0.121,-0.604C0.099,-0.583 0.089,-0.557 0.089,-0.527C0.089,-0.497 0.099,-0.471 0.121,-0.45C0.142,-0.429 0.167,-0.418 0.198,-0.418C0.228,-0.418 0.253,-0.429 0.275,-0.45C0.296,-0.471 0.307,-0.497 0.307,-0.527C0.307,-0.557 0.296,-0.583 0.275,-0.604C0.254,-0.625 0.228,-0.636 0.198,-0.636Z" style="fill-rule:nonzero;"/>
                    </g>
                </g>
                <g transform="matrix(0.893089,0,0,2.49896,667.986,197.497)">
                    <path d="M1.873,6.269L1.873,62.962L8.96,62.962L8.96,9.813L90.456,9.813C92.413,9.813 93.999,8.226 93.999,6.269C93.999,4.313 92.413,2.726 90.456,2.726L5.417,2.726C3.46,2.726 1.873,4.313 1.873,6.269" style="fill:rgb(218,226,237);fill-rule:nonzero;stroke:black;stroke-width:0.49px;"/>
                </g>
                <g transform="matrix(1.14214,0,0,2.49896,-106.893,-288.144)">
                    <g transform="matrix(-0.187667,0,0,-0.24,629.047,353.624)">
                        <path d="M-273,402L-143,402" style="fill:none;fill-rule:nonzero;stroke:black;stroke-width:1.42px;"/>
                    </g>
                    <g transform="matrix(0.781947,0,0,1,646.907,254.784)">
                        <rect x="17.24" y="2.36" width="59.52" height="14.16" style="fill:rgb(228,228,228);"/>
                    </g>
                    <g transform="matrix(0.781947,0,0,1,157.408,-110.533)">
                        <path d="M643.24,367.678L702.76,367.678" style="fill:none;stroke:black;stroke-width:1.01px;stroke-miterlimit:1.5;"/>
                    </g>
                    <g transform="matrix(0.615731,0,0,0.787433,235.668,-15.3337)">
                        <g transform="matrix(11.4531,0,0,11.4531,706,341)">
                            <path d="M0.059,-0.014C0.059,-0.023 0.063,-0.028 0.07,-0.03C0.077,-0.032 0.087,-0.033 0.097,-0.034C0.108,-0.034 0.122,-0.041 0.14,-0.054C0.157,-0.067 0.174,-0.086 0.19,-0.113L0.517,-0.689C0.518,-0.69 0.519,-0.692 0.521,-0.695C0.522,-0.698 0.524,-0.701 0.525,-0.703C0.527,-0.704 0.529,-0.706 0.531,-0.709C0.534,-0.712 0.537,-0.713 0.54,-0.714C0.542,-0.715 0.546,-0.716 0.549,-0.716C0.551,-0.716 0.554,-0.716 0.556,-0.715C0.558,-0.715 0.56,-0.714 0.561,-0.712C0.562,-0.711 0.563,-0.71 0.564,-0.709C0.565,-0.708 0.565,-0.707 0.566,-0.704C0.567,-0.701 0.567,-0.7 0.567,-0.699C0.567,-0.699 0.567,-0.696 0.568,-0.693L0.568,-0.688L0.611,-0.067C0.611,-0.052 0.615,-0.042 0.622,-0.038C0.628,-0.034 0.642,-0.032 0.663,-0.031C0.681,-0.031 0.69,-0.026 0.69,-0.017C0.69,-0.006 0.683,-0 0.67,-0C0.667,-0 0.655,-0 0.634,-0.001C0.613,-0.002 0.591,-0.003 0.567,-0.003C0.544,-0.003 0.524,-0.003 0.507,-0.002C0.49,-0.002 0.478,-0.002 0.469,-0.001C0.461,-0 0.456,-0 0.455,-0C0.445,-0 0.44,-0.005 0.44,-0.014C0.44,-0.021 0.443,-0.025 0.448,-0.028C0.453,-0.031 0.46,-0.032 0.468,-0.031C0.475,-0.031 0.484,-0.032 0.494,-0.034C0.504,-0.036 0.513,-0.04 0.52,-0.046C0.525,-0.05 0.528,-0.06 0.528,-0.073C0.528,-0.077 0.527,-0.085 0.526,-0.097C0.525,-0.109 0.524,-0.128 0.522,-0.153C0.521,-0.177 0.519,-0.203 0.517,-0.23L0.289,-0.23C0.283,-0.219 0.277,-0.208 0.27,-0.195C0.262,-0.183 0.257,-0.173 0.252,-0.166C0.248,-0.158 0.244,-0.15 0.239,-0.142C0.233,-0.133 0.23,-0.126 0.227,-0.121C0.224,-0.116 0.222,-0.111 0.219,-0.105C0.215,-0.1 0.213,-0.095 0.212,-0.092C0.211,-0.089 0.209,-0.085 0.208,-0.082C0.206,-0.078 0.205,-0.075 0.205,-0.073C0.204,-0.07 0.204,-0.068 0.204,-0.065C0.204,-0.056 0.207,-0.048 0.213,-0.043C0.218,-0.038 0.225,-0.035 0.232,-0.034C0.239,-0.034 0.245,-0.032 0.25,-0.03C0.256,-0.027 0.259,-0.024 0.259,-0.019C0.259,-0.006 0.252,-0 0.239,-0C0.237,-0 0.232,-0 0.224,-0.001C0.217,-0.002 0.206,-0.002 0.193,-0.002C0.18,-0.003 0.165,-0.003 0.15,-0.003C0.137,-0.003 0.123,-0.002 0.107,-0.001C0.092,-0 0.083,-0 0.081,-0C0.066,-0 0.059,-0.005 0.059,-0.014ZM0.307,-0.26L0.515,-0.26L0.493,-0.587L0.307,-0.26Z" style="fill-rule:nonzero;"/>
                        </g>
                    </g>
                    <g transform="matrix(0,-1,-0.781947,0,828.6,387.784)">
                        <path d="M130.64,185.36C131.435,185.36 132.08,185.951 132.08,186.68C132.08,187.409 131.435,188 130.64,188C129.845,188 129.2,187.409 129.2,186.68C129.2,185.951 129.845,185.36 130.64,185.36" style="fill-rule:nonzero;stroke:black;stroke-width:0.1px;stroke-linecap:butt;"/>
                    </g>
                </g>
            </g>
        </g>
    </g>
</svg>
