<?xml version="1.0" encoding="UTF-8" standalone="no"?>
<!DOCTYPE svg PUBLIC "-//W3C//DTD SVG 1.1//EN" "http://www.w3.org/Graphics/SVG/1.1/DTD/svg11.dtd">
<svg width="100%" height="100%" viewBox="0 0 181 147" version="1.1" xmlns="http://www.w3.org/2000/svg" xmlns:xlink="http://www.w3.org/1999/xlink" xml:space="preserve" xmlns:serif="http://www.serif.com/" style="fill-rule:evenodd;clip-rule:evenodd;stroke-miterlimit:10;">
    <g transform="matrix(1,0,0,1,-1262,-517)">
        <g id="MOI-summary-y-dx" transform="matrix(1.5,0,0,1.5,47.8061,-828.349)">
            <rect x="809.992" y="897.187" width="120" height="97.241" style="fill:none;"/>
            <g transform="matrix(6.08238,0,0,6.08238,869.992,945.807)">
                <g transform="matrix(1,0,0,1,-9.86457,-7.9937)">
                    <clipPath id="_clip1">
                        <rect x="0" y="0" width="19.729" height="15.987"/>
                    </clipPath>
                    <g clip-path="url(#_clip1)">
                        <g>
                            <g transform="matrix(0.109606,-0,-0,0.109606,-0.0869766,-0.0472078)">
                                <path d="M25.779,10.765L23.361,3.511L20.943,10.765L25.779,10.765Z" style="fill-rule:nonzero;"/>
                                <path d="M23.361,9.314L23.361,153.959" style="fill:none;fill-rule:nonzero;stroke:black;stroke-width:0.54px;"/>
                            </g>
                            <g transform="matrix(1,0,0,1,-1.1969,0)">
                                <g id="layer0">
                                    <g>
                                        <path d="M5.418,14.001L5.51,13.819L5.602,13.644L5.694,13.473L5.786,13.307L5.878,13.146L5.971,12.988L6.062,12.836L6.154,12.687L6.246,12.541L6.338,12.399L6.431,12.26L6.522,12.125L6.614,11.993L6.707,11.864L6.799,11.737L6.89,11.613L6.982,11.491L7.074,11.372L7.167,11.256L7.259,11.142L7.35,11.029L7.443,10.92L7.535,10.811L7.627,10.705L7.719,10.601L7.81,10.498L7.903,10.398L7.995,10.299L8.087,10.202L8.179,10.106L8.271,10.011L8.363,9.919L8.455,9.827L8.547,9.738L8.639,9.649L8.731,9.561L8.823,9.475L8.915,9.391L9.007,9.308L9.099,9.225L9.191,9.144L9.283,9.064L9.375,8.984L9.467,8.907L9.559,8.829L9.651,8.753L9.743,8.679L9.835,8.604L9.927,8.531L10.019,8.459L10.111,8.388L10.203,8.317L10.295,8.248L10.388,8.179L10.479,8.11L10.571,8.043L10.663,7.977L10.755,7.911L10.847,7.846L10.939,7.781L11.031,7.717L11.124,7.654L11.307,7.531L11.399,7.47L11.491,7.409L11.584,7.349L11.767,7.232L11.86,7.174L11.952,7.116L12.044,7.059L12.227,6.947L12.32,6.892L12.412,6.837L12.504,6.783L12.596,6.729L12.688,6.676L12.78,6.623L12.872,6.57L12.964,6.518L13.056,6.467L13.148,6.416L13.24,6.366L13.332,6.316L13.424,6.266L13.516,6.216L13.608,6.167L13.7,6.119L13.884,6.023L13.976,5.976L14.068,5.929L14.16,5.883L14.252,5.837L14.344,5.791L14.436,5.745L14.62,5.655L14.712,5.611L14.896,5.523L14.988,5.479L15.08,5.436L15.172,5.393L15.264,5.351L15.356,5.309L15.448,5.267L15.541,5.225L15.633,5.184L15.724,5.143L15.816,5.102L15.908,5.062L16.001,5.021L16.092,4.981L16.184,4.942L16.277,4.902L16.369,4.863L16.461,4.824L16.552,4.786L16.644,4.747L16.829,4.671L16.921,4.634L17.105,4.559L17.197,4.522L17.197,14.001L5.418,14.001" style="fill:rgb(242,242,242);"/>
                                        <path d="M4.296,16.828L4.336,16.698L4.378,16.568L4.42,16.438L4.463,16.309L4.508,16.179L4.553,16.049L4.599,15.92L4.647,15.79L4.695,15.66L4.745,15.53L4.795,15.401L4.847,15.271L4.9,15.141L4.954,15.011L5.009,14.881L5.066,14.752L5.123,14.622L5.182,14.492L5.243,14.362L5.304,14.233L5.368,14.103L5.432,13.973L5.498,13.844L5.565,13.713L5.634,13.584L5.705,13.454L5.777,13.325L5.85,13.195L5.925,13.065L6.002,12.935L6.081,12.805L6.161,12.676L6.243,12.546L6.327,12.416L6.413,12.286L6.501,12.157L6.591,12.027L6.683,11.897L6.776,11.768L6.872,11.638L6.97,11.508L7.07,11.378L7.173,11.249L7.277,11.119L7.384,10.989L7.494,10.859L7.605,10.729L7.72,10.6L7.836,10.47L7.956,10.34L8.078,10.21L8.203,10.081L8.33,9.951L8.461,9.821L8.594,9.692L8.731,9.561L8.87,9.432L9.012,9.302L9.158,9.173L9.307,9.043L9.459,8.913L9.615,8.783L9.774,8.653L9.937,8.524L10.103,8.394L10.273,8.264L10.446,8.134L10.624,8.005L10.806,7.875L10.991,7.745L11.181,7.616L11.375,7.486L11.574,7.356L11.776,7.226L11.984,7.097L12.195,6.967L12.412,6.837L12.633,6.707L12.859,6.577L13.091,6.448L13.327,6.318L13.569,6.188L13.816,6.059L14.069,5.929L14.327,5.799L14.591,5.669L14.861,5.54L15.137,5.41L15.419,5.28L15.708,5.15L16.002,5.021L16.304,4.891L16.612,4.761L16.927,4.631L17.249,4.502L17.578,4.372L17.915,4.242L18.259,4.112L18.61,3.983L18.969,3.853L19.337,3.723L19.713,3.593L20.097,3.464L20.489,3.334L20.891,3.204" style="fill:none;fill-rule:nonzero;stroke:rgb(204,0,0);stroke-opacity:0.7;stroke-width:0.15px;stroke-linecap:round;stroke-linejoin:round;"/>
                                    </g>
                                </g>
                            </g>
                            <g transform="matrix(0.966464,0,0,1,0,0)">
                                <g transform="matrix(0.11341,-0,-0,0.109606,-0.0899946,-0.0472078)">
                                    <path d="M173.336,125.79L180.469,128.168L173.336,130.545L173.336,125.79Z" style="fill-rule:nonzero;"/>
                                    <path d="M0.794,128.168L174.763,128.168" style="fill:none;fill-rule:nonzero;stroke:black;stroke-width:0.53px;"/>
                                </g>
                            </g>
                            <path d="M16,14.001L16.052,4.502" style="fill:none;stroke:black;stroke-width:0.05px;stroke-linecap:round;stroke-linejoin:round;stroke-miterlimit:1.5;"/>
                        </g>
                    </g>
                </g>
            </g>
            <g transform="matrix(0.666667,0,0,0.666667,320.235,348.904)">
                <path d="M757.65,960.878C757.663,960.864 757.676,960.851 757.688,960.838" style="fill:none;stroke:black;stroke-width:0.85px;stroke-linecap:round;stroke-linejoin:round;stroke-miterlimit:1.5;"/>
            </g>
            <g transform="matrix(0.666667,0,0,0.666667,320.235,348.904)">
                <g transform="matrix(1,-0,-0,1,733.842,821.994)">
                    <path d="M29.658,136.934L23.808,138.884L29.658,140.834L29.658,136.934Z"/>
                    <path d="M141.512,136.934L147.362,138.884L141.512,140.834L141.512,136.934Z"/>
                    <path d="M28.488,138.884L142.682,138.884" style="fill:none;stroke:black;stroke-width:0.65px;stroke-linecap:round;stroke-linejoin:round;stroke-miterlimit:1.5;"/>
                </g>
            </g>
            <g transform="matrix(0.666667,0,0,0.666667,320.235,348.904)">
                <path d="M840.668,882.319L862.924,882.319" style="fill:none;stroke:black;stroke-width:0.45px;stroke-linecap:round;stroke-linejoin:round;stroke-miterlimit:1.5;"/>
            </g>
            <g transform="matrix(0.666667,0,0,0.666667,320.235,348.904)">
                <g transform="matrix(1,-0,-0,1,733.842,821.994)">
                    <path d="M124.719,66.175L122.769,60.325L120.819,66.175L124.719,66.175Z"/>
                    <path d="M122.769,65.005L122.769,127.995" style="fill:none;stroke:black;stroke-width:0.65px;stroke-linecap:round;stroke-linejoin:round;stroke-miterlimit:1.5;"/>
                </g>
            </g>
            <g transform="matrix(1.2968,0,0,0.666667,-206.016,348.904)">
                <path d="M840.668,882.319L835.302,882.319L835.302,949.989L840.668,949.989L840.668,882.319Z" style="fill:rgb(204,204,204);"/>
            </g>
            <g transform="matrix(0.356693,0,0,0.356693,592.225,626.071)">
                <circle cx="808.692" cy="872.024" r="4.673" style="fill:rgb(225,32,32);stroke:rgb(225,32,32);stroke-width:1.87px;stroke-linecap:round;stroke-linejoin:round;stroke-miterlimit:1.5;"/>
            </g>
            <g transform="matrix(0.666667,0,0,0.666667,325.161,356.572)">
                <g transform="matrix(16,0,0,16,787.639,868.137)">
                    <path d="M0.053,-0.051C0.053,-0.067 0.058,-0.08 0.068,-0.09C0.078,-0.1 0.09,-0.105 0.103,-0.105C0.126,-0.105 0.137,-0.094 0.137,-0.073C0.137,-0.064 0.134,-0.054 0.128,-0.044C0.121,-0.035 0.111,-0.028 0.098,-0.025C0.109,-0.016 0.123,-0.011 0.14,-0.011L0.142,-0.011C0.156,-0.011 0.169,-0.015 0.179,-0.023C0.19,-0.031 0.2,-0.043 0.208,-0.06C0.215,-0.077 0.221,-0.091 0.225,-0.104C0.229,-0.118 0.234,-0.135 0.239,-0.156C0.247,-0.188 0.255,-0.219 0.262,-0.247C0.276,-0.304 0.283,-0.341 0.283,-0.357C0.283,-0.377 0.279,-0.392 0.27,-0.403C0.261,-0.414 0.25,-0.42 0.235,-0.42C0.213,-0.42 0.191,-0.409 0.168,-0.388C0.146,-0.367 0.129,-0.336 0.116,-0.295C0.114,-0.287 0.112,-0.282 0.11,-0.28C0.109,-0.279 0.105,-0.278 0.098,-0.278C0.088,-0.278 0.083,-0.281 0.083,-0.288C0.083,-0.295 0.087,-0.306 0.094,-0.322C0.101,-0.338 0.11,-0.355 0.122,-0.374C0.134,-0.392 0.15,-0.408 0.171,-0.421C0.192,-0.435 0.214,-0.442 0.237,-0.442C0.284,-0.442 0.316,-0.419 0.333,-0.374C0.341,-0.389 0.354,-0.404 0.37,-0.419C0.387,-0.434 0.407,-0.442 0.431,-0.442C0.451,-0.442 0.47,-0.437 0.49,-0.427C0.509,-0.418 0.518,-0.402 0.518,-0.379C0.518,-0.362 0.513,-0.349 0.502,-0.34C0.491,-0.331 0.48,-0.326 0.469,-0.326C0.457,-0.326 0.448,-0.33 0.443,-0.336C0.437,-0.343 0.434,-0.35 0.434,-0.358C0.434,-0.361 0.434,-0.365 0.435,-0.369C0.436,-0.374 0.439,-0.38 0.446,-0.389C0.453,-0.398 0.462,-0.403 0.474,-0.406C0.463,-0.415 0.449,-0.42 0.43,-0.42C0.391,-0.42 0.361,-0.384 0.342,-0.313C0.326,-0.248 0.315,-0.202 0.308,-0.176C0.295,-0.122 0.289,-0.088 0.289,-0.075C0.289,-0.052 0.294,-0.035 0.303,-0.026C0.312,-0.016 0.323,-0.011 0.336,-0.011C0.359,-0.011 0.381,-0.022 0.403,-0.043C0.425,-0.065 0.442,-0.096 0.455,-0.136C0.458,-0.144 0.46,-0.149 0.461,-0.151C0.463,-0.152 0.467,-0.153 0.473,-0.153C0.483,-0.153 0.488,-0.15 0.488,-0.143C0.488,-0.137 0.484,-0.126 0.478,-0.111C0.471,-0.095 0.462,-0.078 0.45,-0.059C0.438,-0.04 0.422,-0.024 0.401,-0.01C0.38,0.004 0.358,0.011 0.334,0.011C0.316,0.011 0.298,0.006 0.28,-0.004C0.261,-0.014 0.248,-0.032 0.239,-0.057C0.213,-0.012 0.18,0.011 0.141,0.011C0.117,0.011 0.096,0.006 0.079,-0.006C0.062,-0.017 0.053,-0.032 0.053,-0.051Z" style="fill-rule:nonzero;"/>
                </g>
            </g>
            <g transform="matrix(0.666667,0,0,0.666667,346.037,386.197)">
                <g transform="matrix(16,0,0,16,819.427,862.108)">
                    <path d="M0.083,-0.288C0.083,-0.29 0.084,-0.296 0.087,-0.306C0.09,-0.316 0.094,-0.329 0.101,-0.344C0.108,-0.36 0.116,-0.375 0.125,-0.39C0.135,-0.404 0.147,-0.416 0.162,-0.427C0.177,-0.437 0.194,-0.442 0.211,-0.442C0.233,-0.442 0.251,-0.435 0.266,-0.42C0.28,-0.405 0.287,-0.386 0.287,-0.361C0.287,-0.347 0.283,-0.33 0.274,-0.307C0.235,-0.202 0.216,-0.129 0.216,-0.088C0.216,-0.037 0.234,-0.011 0.27,-0.011L0.27,-0.011C0.297,-0.011 0.32,-0.021 0.34,-0.042C0.359,-0.062 0.371,-0.081 0.376,-0.1L0.449,-0.394C0.455,-0.419 0.468,-0.431 0.488,-0.431C0.497,-0.431 0.504,-0.428 0.509,-0.423C0.514,-0.418 0.516,-0.412 0.516,-0.405C0.516,-0.403 0.516,-0.401 0.515,-0.398C0.514,-0.396 0.513,-0.393 0.513,-0.391L0.415,0.003C0.402,0.056 0.374,0.103 0.332,0.144C0.29,0.185 0.244,0.205 0.195,0.205C0.167,0.205 0.144,0.197 0.126,0.182C0.108,0.166 0.099,0.145 0.099,0.119C0.099,0.103 0.103,0.089 0.11,0.079C0.117,0.068 0.124,0.062 0.131,0.06C0.138,0.058 0.144,0.057 0.15,0.057C0.159,0.057 0.167,0.06 0.174,0.066C0.181,0.071 0.184,0.079 0.184,0.089C0.184,0.099 0.18,0.109 0.173,0.119C0.166,0.129 0.155,0.135 0.141,0.137C0.136,0.138 0.133,0.139 0.133,0.14C0.133,0.143 0.135,0.147 0.138,0.154C0.141,0.16 0.148,0.166 0.158,0.173C0.168,0.18 0.18,0.183 0.195,0.183C0.225,0.183 0.256,0.167 0.286,0.135C0.316,0.102 0.34,0.049 0.357,-0.026C0.332,-0.001 0.302,0.011 0.267,0.011C0.236,0.011 0.209,0.002 0.188,-0.017C0.166,-0.036 0.155,-0.065 0.155,-0.105C0.155,-0.142 0.172,-0.208 0.207,-0.301C0.223,-0.345 0.231,-0.375 0.231,-0.391C0.231,-0.41 0.224,-0.42 0.209,-0.42C0.169,-0.42 0.138,-0.378 0.116,-0.294C0.114,-0.286 0.112,-0.282 0.11,-0.28C0.108,-0.279 0.104,-0.278 0.098,-0.278C0.088,-0.278 0.083,-0.282 0.083,-0.288Z" style="fill-rule:nonzero;"/>
                </g>
            </g>
            <g transform="matrix(0.666667,0,0,0.666667,320.235,348.904)">
                <g transform="matrix(1,-0,-0,1,733.842,821.994)">
                    <path d="M100.976,58.375L106.826,60.325L100.976,62.275L100.976,58.375Z"/>
                    <path d="M23.846,60.325L102.146,60.325" style="fill:none;stroke:black;stroke-width:0.65px;stroke-linecap:round;stroke-linejoin:round;stroke-miterlimit:1.5;"/>
                </g>
            </g>
            <g>
                <g transform="matrix(0.666667,0,0,0.666667,367.411,376.293)">
                    <rect x="740.401" y="914.904" width="9.688" height="9.78" style="fill:white;"/>
                </g>
                <g transform="matrix(0.666667,0,0,0.666667,292.947,420.95)">
                    <g transform="matrix(16,0,0,16,851.796,856.213)">
                        <path d="M0.108,-0.144C0.108,-0.217 0.132,-0.284 0.181,-0.347C0.23,-0.41 0.282,-0.442 0.337,-0.442C0.375,-0.442 0.403,-0.422 0.42,-0.383C0.425,-0.409 0.438,-0.422 0.46,-0.422C0.478,-0.422 0.487,-0.413 0.487,-0.396C0.487,-0.391 0.486,-0.384 0.483,-0.375L0.415,-0.103C0.41,-0.084 0.408,-0.067 0.408,-0.052C0.408,-0.025 0.417,-0.011 0.434,-0.011L0.434,-0.011C0.459,-0.011 0.481,-0.051 0.501,-0.13C0.504,-0.141 0.506,-0.147 0.508,-0.149C0.51,-0.152 0.514,-0.153 0.52,-0.153C0.53,-0.153 0.535,-0.15 0.535,-0.143C0.535,-0.142 0.534,-0.136 0.531,-0.125C0.529,-0.115 0.525,-0.102 0.521,-0.086C0.516,-0.07 0.51,-0.056 0.505,-0.045C0.487,-0.007 0.463,0.011 0.432,0.011C0.413,0.011 0.396,0.005 0.38,-0.006C0.365,-0.018 0.354,-0.036 0.349,-0.059C0.311,-0.013 0.271,0.011 0.229,0.011C0.192,0.011 0.163,-0.004 0.141,-0.033C0.119,-0.063 0.108,-0.1 0.108,-0.144ZM0.176,-0.1C0.176,-0.078 0.18,-0.058 0.188,-0.039C0.196,-0.021 0.21,-0.011 0.231,-0.011C0.256,-0.011 0.282,-0.025 0.309,-0.053C0.336,-0.08 0.351,-0.104 0.356,-0.124L0.403,-0.313C0.405,-0.319 0.406,-0.323 0.406,-0.326C0.406,-0.35 0.399,-0.371 0.387,-0.391C0.374,-0.41 0.358,-0.42 0.337,-0.42C0.317,-0.42 0.297,-0.409 0.276,-0.388C0.255,-0.367 0.238,-0.34 0.225,-0.309C0.215,-0.286 0.204,-0.251 0.193,-0.205C0.181,-0.158 0.176,-0.124 0.176,-0.1Z" style="fill-rule:nonzero;"/>
                    </g>
                </g>
            </g>
        </g>
    </g>
</svg>
