<?xml version="1.0" encoding="UTF-8" standalone="no"?>
<!DOCTYPE svg PUBLIC "-//W3C//DTD SVG 1.1//EN" "http://www.w3.org/Graphics/SVG/1.1/DTD/svg11.dtd">
<svg width="100%" height="100%" viewBox="0 0 180 199" version="1.1" xmlns="http://www.w3.org/2000/svg" xmlns:xlink="http://www.w3.org/1999/xlink" xml:space="preserve" xmlns:serif="http://www.serif.com/" style="fill-rule:evenodd;clip-rule:evenodd;stroke-miterlimit:10;">
    <g transform="matrix(1,0,0,1,-893,-297)">
        <g id="MOI-rect-square-da" transform="matrix(1,0,0,1,-294.352,-198.722)">
            <rect x="1187.35" y="496.193" width="180" height="198.529" style="fill:none;"/>
            <clipPath id="_clip1">
                <rect x="1187.35" y="496.193" width="180" height="198.529"/>
            </clipPath>
            <g clip-path="url(#_clip1)">
                <g transform="matrix(0,1.25677,1.25677,0,1118.99,566.815)">
                    <g transform="matrix(-0,0.795688,0.795688,-0,-56.5677,54.3942)">
                        <path d="M40.248,9.871L37.548,1.771L34.848,9.871L40.248,9.871Z" style="fill-rule:nonzero;"/>
                        <path d="M37.548,8.251L37.548,214.877" style="fill:none;fill-rule:nonzero;stroke:black;stroke-width:0.6px;"/>
                    </g>
                </g>
                <g transform="matrix(1.25677,0,0,1.25677,1187.67,639.778)">
                    <g transform="matrix(0.795688,-0,-0,0.795688,-0.252109,-114.624)">
                        <path d="M172.217,176.445L180.317,179.145L172.217,181.845L172.217,176.445Z" style="fill-rule:nonzero;"/>
                        <path d="M0.689,179.145L173.837,179.145" style="fill:none;fill-rule:nonzero;stroke:black;stroke-width:0.6px;"/>
                    </g>
                </g>
                <g transform="matrix(1.25677,0,0,1.25677,1187.67,496.849)">
                    <rect x="29.625" y="27.92" width="85.296" height="113.727" style="fill:rgb(242,242,242);stroke:black;stroke-width:0.8px;stroke-linejoin:round;stroke-miterlimit:2;"/>
                </g>
                <g transform="matrix(1.25677,0,0,1.25677,1186.76,491.982)">
                    <g transform="matrix(1,0,0,1,0.720102,-63.8443)">
                        <path d="M58.378,114.969L56.83,121.186C56.786,121.366 56.764,121.538 56.764,121.702C56.764,122.033 56.872,122.198 57.087,122.198C57.361,122.198 57.59,121.911 57.776,121.338C57.812,121.215 57.855,121.057 57.906,120.864C57.963,120.741 58.013,120.677 58.055,120.67C58.142,120.67 58.185,120.706 58.185,120.778C58.185,120.885 58.12,121.136 57.991,121.531C57.949,121.653 57.906,121.757 57.862,121.842C57.661,122.236 57.396,122.434 57.067,122.434C56.665,122.434 56.374,122.262 56.195,121.918C56.144,121.831 56.108,121.734 56.087,121.627C55.635,122.165 55.169,122.434 54.688,122.434C54.151,122.434 53.753,122.19 53.495,121.702C53.337,121.416 53.258,121.085 53.258,120.712C53.258,119.938 53.527,119.221 54.065,118.561C54.567,117.959 55.112,117.629 55.7,117.572C55.751,117.564 55.801,117.561 55.85,117.561C56.288,117.561 56.618,117.79 56.84,118.25L57.486,115.7L57.517,115.485C57.517,115.406 57.468,115.356 57.368,115.333C57.282,115.312 57.152,115.301 56.98,115.301C56.823,115.301 56.737,115.258 56.722,115.172C56.722,115.051 56.772,114.983 56.872,114.969C57.547,114.889 58.002,114.849 58.239,114.849C58.332,114.849 58.378,114.889 58.378,114.969ZM56.141,121.035L56.679,118.927C56.7,118.82 56.711,118.759 56.711,118.744C56.711,118.594 56.646,118.411 56.517,118.196C56.359,117.93 56.141,117.798 55.862,117.798C55.489,117.798 55.133,118.041 54.796,118.529C54.732,118.622 54.671,118.722 54.613,118.83C54.405,119.247 54.23,119.838 54.087,120.605C54.043,120.849 54.021,121.043 54.021,121.186C54.021,121.674 54.158,121.989 54.431,122.133C54.51,122.176 54.603,122.198 54.71,122.198C55.111,122.198 55.517,121.943 55.926,121.433C56.026,121.319 56.095,121.201 56.131,121.079L56.131,121.069C56.137,121.054 56.141,121.043 56.141,121.035Z" style="fill-rule:nonzero;"/>
                    </g>
                    <g transform="matrix(1,0,0,1,0.720102,-64.1973)">
                        <path d="M60.353,121.432L64.097,115.148C64.168,115.034 64.261,114.974 64.376,114.967C64.483,114.967 64.544,115.003 64.559,115.074C64.566,115.096 64.573,115.146 64.581,115.224L65.236,121.948C65.258,122.127 65.301,122.235 65.366,122.271L65.376,122.271L65.376,122.282C65.462,122.318 65.649,122.336 65.936,122.336C66.094,122.336 66.176,122.375 66.183,122.454C66.183,122.597 66.118,122.669 65.989,122.669L64.784,122.637L64.774,122.637L63.439,122.669L63.429,122.669C63.329,122.669 63.278,122.63 63.278,122.551C63.336,122.415 63.423,122.343 63.537,122.336C64.054,122.336 64.312,122.217 64.312,121.98C64.312,121.988 64.254,121.389 64.139,120.184L61.439,120.184L60.622,121.561C60.521,121.74 60.471,121.873 60.471,121.96C60.471,122.181 60.64,122.307 60.977,122.336C61.091,122.336 61.148,122.379 61.148,122.464C61.148,122.601 61.081,122.669 60.945,122.669L59.911,122.637L59.869,122.637L58.965,122.669L58.943,122.669C58.85,122.669 58.803,122.63 58.803,122.551C58.803,122.421 58.857,122.353 58.965,122.346L58.965,122.336L59.029,122.336C59.481,122.307 59.851,122.113 60.138,121.754C60.21,121.661 60.282,121.554 60.353,121.432ZM61.644,119.85L64.107,119.85L63.762,116.3L61.644,119.85Z" style="fill-rule:nonzero;"/>
                    </g>
                </g>
                <g transform="matrix(1.25677,0,0,1.25677,1186.76,491.982)">
                    <g transform="matrix(0,-1,-1,0,169.753,172.905)">
                        <path d="M27.386,84.783L141.113,84.783" style="fill:none;fill-rule:nonzero;stroke:black;stroke-opacity:0.7;stroke-width:0.4px;stroke-linejoin:round;stroke-dasharray:3.88,3.11;"/>
                    </g>
                    <g transform="matrix(0,-1,-1,0,155.532,158.684)">
                        <path d="M13.165,84.783L126.892,84.783" style="fill:none;fill-rule:nonzero;stroke:black;stroke-opacity:0.7;stroke-width:0.4px;stroke-linejoin:round;stroke-dasharray:3.88,3.11;"/>
                    </g>
                    <g transform="matrix(-1,0,0,1,145.265,-46.7213)">
                        <path d="M29.624,110.08L114.92,110.08" style="fill:none;fill-rule:nonzero;stroke:black;stroke-opacity:0.7;stroke-width:0.4px;stroke-linejoin:round;stroke-dasharray:3.88,3.11;"/>
                    </g>
                    <g transform="matrix(-1,0,0,1,145.265,-18.2789)">
                        <path d="M29.624,95.859L114.92,95.859" style="fill:none;fill-rule:nonzero;stroke:black;stroke-opacity:0.7;stroke-width:0.4px;stroke-linejoin:round;stroke-dasharray:3.88,3.11;"/>
                    </g>
                </g>
                <g transform="matrix(1.25677,0,0,1.25677,1187.67,451.137)">
                    <rect x="70.028" y="95.859" width="14.221" height="14.221" style="fill-opacity:0.09;stroke:black;stroke-opacity:0.7;stroke-width:0.72px;stroke-linecap:round;stroke-linejoin:round;"/>
                </g>
                <g transform="matrix(1.25677,0,0,1.25677,1186.76,491.982)">
                    <g transform="matrix(1,0,0,1,0.720102,-109.855)">
                        <path d="M117.763,141.647L129.136,141.647" style="fill:none;fill-rule:nonzero;stroke:black;stroke-opacity:0.7;stroke-width:0.2px;stroke-linecap:round;stroke-linejoin:round;"/>
                    </g>
                    <g transform="matrix(0,-1,-1,0,265.817,138.182)">
                        <path d="M109.234,150.176L120.607,150.176" style="fill:none;fill-rule:nonzero;stroke:black;stroke-opacity:0.7;stroke-width:0.2px;stroke-linecap:round;stroke-linejoin:round;"/>
                    </g>
                </g>
                <g transform="matrix(0,-1.25677,-1.25677,0,1510.12,676.366)">
                    <circle cx="114.92" cy="141.647" r="2.049" style="stroke:black;stroke-width:0.41px;stroke-linecap:round;stroke-linejoin:round;"/>
                </g>
                <g transform="matrix(1.25677,0,0,1.25677,1186.76,491.982)">
                    <g transform="matrix(1,0,0,1,0.720102,-131.371)">
                        <path d="M119.911,157.677C119.911,157.748 119.875,157.784 119.804,157.784C119.718,157.784 119.528,157.637 119.234,157.344C118.789,156.899 118.42,156.372 118.126,155.762C117.653,154.786 117.417,153.667 117.417,152.405C117.417,151.193 117.642,150.099 118.094,149.124C118.467,148.328 118.941,147.69 119.514,147.209C119.665,147.087 119.761,147.026 119.804,147.026C119.875,147.026 119.911,147.062 119.911,147.134C119.911,147.17 119.865,147.231 119.772,147.317C118.617,148.492 118.04,150.189 118.04,152.405C118.04,154.614 118.603,156.292 119.73,157.44C119.851,157.562 119.911,157.641 119.911,157.677Z" style="fill-rule:nonzero;"/>
                    </g>
                    <g transform="matrix(1,0,0,1,0.720102,-133.341)">
                        <path d="M123.108,149.717L122.311,152.955C122.727,152.524 123.147,152.309 123.57,152.309C124.108,152.309 124.51,152.557 124.776,153.052C124.926,153.339 125.001,153.665 125.001,154.031C125.001,154.791 124.735,155.501 124.204,156.16C123.71,156.77 123.165,157.107 122.57,157.172C122.512,157.179 122.458,157.182 122.409,157.182C121.892,157.182 121.508,156.942 121.257,156.463C121.114,156.189 121.042,155.867 121.042,155.495C121.042,155.25 121.099,154.888 121.214,154.407L122.096,150.901C122.197,150.477 122.248,150.255 122.248,150.233C122.248,150.155 122.197,150.104 122.096,150.082C122.01,150.061 121.881,150.05 121.71,150.05C121.552,150.05 121.465,150.007 121.451,149.921C121.451,149.8 121.519,149.728 121.656,149.705L122.967,149.598C123.061,149.598 123.108,149.638 123.108,149.717ZM122.096,153.783L121.859,154.773C121.745,155.225 121.688,155.587 121.688,155.859C121.688,156.477 121.874,156.832 122.248,156.925C122.297,156.94 122.351,156.947 122.409,156.947C122.789,156.947 123.143,156.696 123.473,156.194C123.545,156.086 123.613,155.968 123.678,155.838C123.872,155.43 124.033,154.878 124.162,154.182C124.205,153.931 124.226,153.723 124.226,153.558C124.226,152.984 124.051,152.654 123.7,152.568L123.688,152.556C123.646,152.55 123.599,152.546 123.549,152.546C123.118,152.546 122.688,152.833 122.258,153.407C122.2,153.479 122.147,153.604 122.096,153.783Z" style="fill-rule:nonzero;"/>
                    </g>
                    <g transform="matrix(1,0,0,1,0.720102,-125.055)">
                        <path d="M127.336,148.769C127.336,149.463 127.11,150.073 126.658,150.597C126.536,150.741 126.436,150.827 126.357,150.855C126.286,150.855 126.25,150.815 126.25,150.737C126.25,150.701 126.289,150.643 126.367,150.564C126.798,150.133 127.038,149.607 127.088,148.984C127.095,148.912 127.099,148.84 127.099,148.769C127.099,148.661 127.092,148.607 127.078,148.607C127.071,148.607 127.053,148.618 127.025,148.639C126.924,148.732 126.798,148.779 126.648,148.779C126.382,148.779 126.207,148.656 126.12,148.412C126.091,148.348 126.077,148.28 126.077,148.209C126.077,147.95 126.188,147.774 126.411,147.681C126.483,147.653 126.562,147.639 126.648,147.639C126.963,147.639 127.174,147.847 127.282,148.263C127.318,148.413 127.336,148.581 127.336,148.769Z" style="fill-rule:nonzero;"/>
                    </g>
                    <g transform="matrix(1,0,0,1,0.720102,-133.341)">
                        <path d="M133.02,149.717L132.181,153.138C132.625,152.585 133.155,152.309 133.773,152.309C134.41,152.309 134.805,152.557 134.956,153.052L134.956,153.062C134.992,153.184 135.01,153.317 135.01,153.461C135.01,153.862 134.791,154.651 134.353,155.827C134.224,156.143 134.159,156.398 134.159,156.591C134.159,156.828 134.245,156.947 134.418,156.947C134.863,156.947 135.214,156.552 135.472,155.764L135.516,155.612C135.552,155.498 135.587,155.437 135.623,155.429L135.623,155.419L135.677,155.419C135.762,155.419 135.805,155.455 135.805,155.527C135.805,155.649 135.73,155.874 135.58,156.204C135.271,156.856 134.877,157.182 134.396,157.182C134.031,157.182 133.769,157.028 133.611,156.72C133.546,156.591 133.514,156.452 133.514,156.301C133.514,156.171 133.56,155.974 133.653,155.71C134.098,154.576 134.321,153.772 134.321,153.299C134.321,152.797 134.127,152.546 133.741,152.546C133.396,152.546 133.051,152.672 132.707,152.923C132.441,153.131 132.208,153.439 132.008,153.847L131.976,153.913C131.947,154.084 131.907,154.246 131.858,154.397C131.822,154.562 131.761,154.802 131.675,155.118L131.438,156.086L131.233,156.903C131.183,157.053 131.072,157.143 130.9,157.172C130.879,157.179 130.857,157.182 130.836,157.182C130.663,157.182 130.563,157.107 130.533,156.957C130.527,156.928 130.523,156.903 130.523,156.881C130.523,156.824 130.538,156.745 130.567,156.644L132.127,150.448L132.159,150.233C132.159,150.155 132.108,150.104 132.008,150.082C131.921,150.061 131.792,150.05 131.621,150.05C131.463,150.05 131.377,150.007 131.362,149.921C131.362,149.8 131.43,149.728 131.567,149.705L132.88,149.598C132.973,149.598 133.02,149.638 133.02,149.717Z" style="fill-rule:nonzero;"/>
                    </g>
                    <g transform="matrix(1,0,0,1,0.720102,-131.371)">
                        <path d="M139.24,152.405C139.24,153.618 139.014,154.711 138.561,155.686C138.189,156.482 137.716,157.12 137.142,157.601C136.991,157.723 136.894,157.784 136.851,157.784C136.78,157.784 136.744,157.748 136.744,157.677C136.744,157.641 136.79,157.58 136.883,157.493C138.038,156.318 138.615,154.622 138.615,152.405C138.615,150.218 138.077,148.561 137.001,147.435L136.947,147.381C136.812,147.252 136.744,147.17 136.744,147.134C136.744,147.062 136.78,147.026 136.851,147.026C136.938,147.026 137.128,147.173 137.421,147.467C137.866,147.911 138.235,148.439 138.529,149.048C139.003,150.024 139.24,151.143 139.24,152.405Z" style="fill-rule:nonzero;"/>
                    </g>
                </g>
                <g transform="matrix(0,-1.25677,-1.25677,0,1414.02,677.493)">
                    <ellipse cx="77.139" cy="102.969" rx="2.049" ry="2.049" style="stroke:black;stroke-width:0.41px;stroke-linecap:round;stroke-linejoin:round;"/>
                </g>
                <g transform="matrix(1.25677,0,0,1.25677,1186.76,491.982)">
                    <g transform="matrix(1,0,0,1,0.720102,-0.2261)">
                        <path d="M88.15,92.104C88.15,92.176 88.114,92.211 88.042,92.211C87.957,92.211 87.767,92.065 87.472,91.771C87.027,91.326 86.658,90.799 86.364,90.189C85.891,89.213 85.655,88.094 85.655,86.832C85.655,85.62 85.881,84.526 86.332,83.551C86.706,82.756 87.179,82.117 87.753,81.637C87.903,81.515 87.999,81.453 88.042,81.453C88.114,81.453 88.15,81.489 88.15,81.561C88.15,81.597 88.103,81.658 88.01,81.744C86.856,82.92 86.279,84.616 86.279,86.832C86.279,89.041 86.842,90.719 87.968,91.867C88.089,91.989 88.15,92.068 88.15,92.104Z" style="fill-rule:nonzero;"/>
                    </g>
                    <g transform="matrix(1,0,0,1,0.720102,0.5153)">
                        <path d="M92.369,85.531L92.002,87.006C91.88,87.493 91.819,87.808 91.819,87.952C91.819,88.325 91.952,88.551 92.217,88.629C92.274,88.652 92.339,88.663 92.411,88.663C92.769,88.663 93.096,88.484 93.391,88.125C93.583,87.895 93.733,87.604 93.841,87.253C93.863,87.174 93.91,87.135 93.982,87.135C94.067,87.135 94.11,87.171 94.11,87.243C94.11,87.422 93.999,87.68 93.777,88.017C93.389,88.605 92.927,88.898 92.389,88.898C91.901,88.898 91.547,88.694 91.325,88.286C91.281,88.221 91.248,88.153 91.227,88.081C91.056,88.425 90.819,88.666 90.518,88.802C90.381,88.866 90.241,88.898 90.098,88.898C89.667,88.898 89.366,88.773 89.195,88.522C89.123,88.429 89.087,88.318 89.087,88.189C89.087,87.923 89.202,87.737 89.43,87.629C89.51,87.587 89.593,87.565 89.679,87.565C89.894,87.565 90.023,87.655 90.066,87.834C90.072,87.87 90.076,87.906 90.076,87.942C90.076,88.185 89.954,88.364 89.711,88.48C89.667,88.501 89.621,88.515 89.571,88.522C89.722,88.616 89.901,88.663 90.109,88.663C90.489,88.663 90.79,88.408 91.012,87.898C91.056,87.791 91.095,87.672 91.131,87.543C91.518,86.08 91.711,85.227 91.711,84.983C91.669,84.538 91.475,84.298 91.131,84.262C90.758,84.262 90.418,84.452 90.109,84.832L90.109,84.844C90.109,84.851 90.105,84.854 90.098,84.854C89.99,84.997 89.893,85.162 89.807,85.348C89.771,85.434 89.739,85.521 89.711,85.607L89.689,85.671C89.675,85.75 89.628,85.79 89.55,85.79C89.463,85.79 89.42,85.754 89.42,85.683C89.42,85.503 89.535,85.245 89.765,84.908C90.151,84.319 90.614,84.025 91.152,84.025C91.704,84.025 92.092,84.298 92.315,84.844C92.543,84.399 92.848,84.133 93.229,84.047C93.301,84.033 93.372,84.025 93.444,84.025C93.867,84.025 94.164,84.143 94.337,84.38C94.409,84.481 94.444,84.6 94.444,84.736C94.444,85.03 94.312,85.227 94.046,85.328C93.981,85.349 93.92,85.36 93.863,85.36C93.641,85.36 93.508,85.263 93.465,85.069C93.458,85.04 93.454,85.011 93.454,84.983C93.454,84.768 93.559,84.6 93.767,84.477C93.831,84.442 93.899,84.416 93.97,84.402C93.82,84.309 93.641,84.262 93.433,84.262C92.945,84.262 92.601,84.642 92.4,85.402C92.386,85.446 92.375,85.489 92.369,85.531Z" style="fill-rule:nonzero;"/>
                    </g>
                    <g transform="matrix(1,0,0,1,0.720102,6.0892)">
                        <path d="M97.106,83.197C97.106,83.891 96.88,84.501 96.428,85.025C96.306,85.169 96.206,85.255 96.127,85.283C96.056,85.283 96.02,85.243 96.02,85.165C96.02,85.129 96.059,85.071 96.137,84.992C96.568,84.562 96.808,84.035 96.858,83.412C96.865,83.34 96.869,83.268 96.869,83.197C96.869,83.089 96.862,83.035 96.848,83.035C96.841,83.035 96.823,83.046 96.795,83.067C96.694,83.16 96.568,83.207 96.418,83.207C96.152,83.207 95.977,83.085 95.89,82.84C95.861,82.776 95.847,82.709 95.847,82.637C95.847,82.378 95.958,82.202 96.181,82.109C96.253,82.081 96.332,82.067 96.418,82.067C96.733,82.067 96.944,82.275 97.052,82.691C97.088,82.841 97.106,83.009 97.106,83.197Z" style="fill-rule:nonzero;"/>
                    </g>
                    <g transform="matrix(1,0,0,1,0.720102,2.603)">
                        <path d="M104.929,82.595L103.897,86.703C103.725,87.407 103.341,87.977 102.746,88.414C102.309,88.737 101.853,88.898 101.379,88.898C100.9,88.898 100.559,88.734 100.357,88.404C100.279,88.267 100.24,88.12 100.24,87.962C100.24,87.597 100.386,87.371 100.68,87.285C100.738,87.27 100.792,87.263 100.841,87.263C101.071,87.263 101.201,87.363 101.23,87.564C101.236,87.586 101.24,87.611 101.24,87.639C101.24,87.804 101.168,87.951 101.025,88.081C100.925,88.167 100.771,88.209 100.562,88.209C100.691,88.511 100.964,88.661 101.379,88.661C101.824,88.661 102.219,88.435 102.563,87.984C102.843,87.611 103.065,87.105 103.23,86.468C103.238,86.438 103.248,86.391 103.262,86.326C102.939,86.649 102.577,86.811 102.176,86.811C101.602,86.811 101.211,86.599 101.003,86.177C100.91,85.99 100.863,85.775 100.863,85.531C100.863,85.137 101.053,84.43 101.433,83.412C101.448,83.369 101.466,83.323 101.487,83.272C101.609,82.942 101.67,82.691 101.67,82.519C101.67,82.289 101.58,82.175 101.401,82.175C101.007,82.175 100.684,82.501 100.433,83.153L100.433,83.165C100.39,83.272 100.351,83.387 100.315,83.509C100.236,83.63 100.178,83.695 100.142,83.702C100.057,83.702 100.014,83.667 100.014,83.595C100.014,83.466 100.089,83.24 100.24,82.917C100.556,82.264 100.953,81.938 101.433,81.938C101.814,81.938 102.08,82.099 102.23,82.422C102.287,82.544 102.316,82.677 102.316,82.82C102.316,82.97 102.244,83.228 102.1,83.595C101.735,84.542 101.552,85.244 101.552,85.703C101.552,86.284 101.775,86.575 102.22,86.575C102.635,86.575 102.997,86.353 103.306,85.908C103.377,85.8 103.42,85.718 103.435,85.661L103.919,83.724C103.97,83.487 104.041,83.2 104.134,82.864C104.206,82.554 104.256,82.361 104.284,82.282C104.378,82.132 104.504,82.057 104.66,82.057C104.84,82.093 104.944,82.189 104.973,82.346C104.973,82.411 104.959,82.494 104.929,82.595Z" style="fill-rule:nonzero;"/>
                    </g>
                    <g transform="matrix(1,0,0,1,0.720102,-0.2261)">
                        <path d="M108.472,86.832C108.472,88.045 108.246,89.139 107.793,90.114C107.421,90.909 106.948,91.548 106.374,92.028C106.223,92.15 106.126,92.211 106.084,92.211C106.012,92.211 105.976,92.176 105.976,92.104C105.976,92.068 106.022,92.007 106.116,91.921C107.27,90.745 107.847,89.049 107.847,86.832C107.847,84.645 107.309,82.988 106.233,81.862L106.179,81.808C106.044,81.679 105.976,81.597 105.976,81.561C105.976,81.489 106.012,81.453 106.084,81.453C106.17,81.453 106.36,81.6 106.653,81.894C107.098,82.339 107.468,82.866 107.761,83.476C108.235,84.452 108.472,85.571 108.472,86.832Z" style="fill-rule:nonzero;"/>
                    </g>
                </g>
                <g transform="matrix(1.25677,0,0,1.25677,1186.76,491.982)">
                    <g transform="matrix(1,0,0,1,0.720102,132.873)">
                        <path d="M77.333,16.61L75.784,22.828C75.741,23.007 75.719,23.179 75.719,23.344C75.719,23.674 75.827,23.84 76.042,23.84C76.315,23.84 76.545,23.553 76.731,22.979C76.767,22.857 76.81,22.699 76.86,22.505C76.917,22.383 76.967,22.318 77.01,22.312C77.096,22.312 77.139,22.347 77.139,22.419C77.139,22.527 77.075,22.778 76.946,23.172C76.903,23.294 76.86,23.398 76.817,23.483C76.616,23.878 76.351,24.075 76.021,24.075C75.619,24.075 75.328,23.903 75.149,23.559C75.099,23.473 75.063,23.376 75.042,23.268C74.59,23.806 74.124,24.075 73.643,24.075C73.105,24.075 72.707,23.831 72.45,23.344C72.292,23.057 72.213,22.727 72.213,22.354C72.213,21.579 72.481,20.862 73.019,20.202C73.521,19.6 74.067,19.271 74.655,19.214C74.705,19.206 74.755,19.202 74.805,19.202C75.243,19.202 75.573,19.432 75.795,19.891L76.44,17.341L76.472,17.126C76.472,17.047 76.422,16.997 76.322,16.975C76.236,16.953 76.107,16.943 75.934,16.943C75.777,16.943 75.691,16.9 75.677,16.813C75.677,16.692 75.727,16.624 75.827,16.61C76.501,16.53 76.957,16.491 77.193,16.491C77.286,16.491 77.333,16.53 77.333,16.61ZM75.095,22.676L75.633,20.568C75.655,20.461 75.665,20.4 75.665,20.385C75.665,20.235 75.601,20.052 75.472,19.837C75.314,19.572 75.095,19.439 74.816,19.439C74.443,19.439 74.088,19.683 73.751,20.17C73.687,20.263 73.626,20.363 73.567,20.471C73.36,20.888 73.185,21.48 73.041,22.246C72.998,22.49 72.976,22.684 72.976,22.828C72.976,23.315 73.112,23.631 73.386,23.774C73.464,23.818 73.557,23.84 73.665,23.84C74.066,23.84 74.471,23.585 74.88,23.075C74.981,22.96 75.049,22.842 75.085,22.72L75.085,22.71C75.092,22.695 75.095,22.684 75.095,22.676Z" style="fill-rule:nonzero;"/>
                    </g>
                    <g transform="matrix(1,0,0,1,0.720102,135.584)">
                        <path d="M80.975,17.997L80.609,19.471C80.487,19.958 80.426,20.274 80.426,20.417C80.426,20.79 80.558,21.016 80.824,21.095C80.881,21.117 80.946,21.128 81.017,21.128C81.376,21.128 81.703,20.949 81.997,20.59C82.19,20.361 82.34,20.07 82.448,19.718C82.47,19.639 82.517,19.6 82.589,19.6C82.674,19.6 82.717,19.636 82.717,19.708C82.717,19.887 82.606,20.145 82.384,20.483C81.996,21.07 81.533,21.364 80.996,21.364C80.508,21.364 80.153,21.16 79.931,20.752C79.888,20.687 79.855,20.618 79.834,20.547C79.662,20.891 79.426,21.131 79.125,21.268C78.988,21.332 78.848,21.364 78.704,21.364C78.274,21.364 77.973,21.238 77.802,20.987C77.73,20.894 77.694,20.783 77.694,20.654C77.694,20.389 77.808,20.202 78.037,20.094C78.117,20.052 78.2,20.031 78.286,20.031C78.501,20.031 78.63,20.12 78.672,20.299C78.679,20.335 78.682,20.371 78.682,20.407C78.682,20.65 78.561,20.83 78.318,20.945C78.274,20.966 78.228,20.98 78.178,20.987C78.328,21.081 78.508,21.128 78.716,21.128C79.096,21.128 79.397,20.873 79.619,20.363C79.662,20.256 79.702,20.138 79.738,20.009C80.125,18.545 80.318,17.692 80.318,17.449C80.275,17.004 80.082,16.763 79.738,16.728C79.365,16.728 79.024,16.917 78.716,17.297L78.716,17.309C78.716,17.316 78.712,17.319 78.704,17.319C78.597,17.463 78.5,17.627 78.414,17.813C78.378,17.9 78.346,17.986 78.318,18.072L78.296,18.136C78.281,18.216 78.235,18.255 78.156,18.255C78.07,18.255 78.027,18.22 78.027,18.148C78.027,17.969 78.142,17.71 78.372,17.373C78.758,16.785 79.22,16.491 79.758,16.491C80.311,16.491 80.699,16.763 80.921,17.309C81.15,16.864 81.455,16.599 81.836,16.512C81.908,16.498 81.979,16.491 82.051,16.491C82.474,16.491 82.771,16.609 82.944,16.845C83.015,16.946 83.051,17.065 83.051,17.201C83.051,17.495 82.918,17.692 82.653,17.793C82.588,17.814 82.527,17.825 82.47,17.825C82.248,17.825 82.115,17.728 82.071,17.534C82.065,17.505 82.061,17.477 82.061,17.449C82.061,17.233 82.165,17.065 82.374,16.943C82.438,16.907 82.506,16.882 82.577,16.867C82.427,16.774 82.248,16.728 82.039,16.728C81.552,16.728 81.208,17.107 81.007,17.867C80.993,17.911 80.982,17.954 80.975,17.997Z" style="fill-rule:nonzero;"/>
                    </g>
                </g>
                <g transform="matrix(1.25677,0,0,1.25677,1186.76,491.982)">
                    <g transform="matrix(1,0,0,1,0.720102,-34.1314)">
                        <path d="M19.444,100.112L17.896,106.33C17.853,106.509 17.831,106.681 17.831,106.846C17.831,107.176 17.938,107.342 18.153,107.342C18.427,107.342 18.657,107.055 18.843,106.481C18.878,106.359 18.922,106.201 18.972,106.007C19.029,105.885 19.079,105.82 19.122,105.814C19.208,105.814 19.251,105.849 19.251,105.921C19.251,106.029 19.187,106.28 19.058,106.674C19.015,106.796 18.972,106.9 18.928,106.985C18.728,107.38 18.463,107.577 18.133,107.577C17.731,107.577 17.44,107.405 17.261,107.061C17.21,106.975 17.175,106.878 17.153,106.77C16.702,107.308 16.235,107.577 15.755,107.577C15.217,107.577 14.819,107.333 14.561,106.846C14.403,106.559 14.324,106.229 14.324,105.856C14.324,105.081 14.593,104.364 15.131,103.704C15.633,103.102 16.178,102.773 16.767,102.716C16.817,102.708 16.867,102.704 16.916,102.704C17.354,102.704 17.684,102.934 17.906,103.393L18.552,100.843L18.584,100.628C18.584,100.549 18.534,100.499 18.434,100.477C18.348,100.455 18.218,100.445 18.046,100.445C17.889,100.445 17.803,100.402 17.789,100.315C17.789,100.194 17.839,100.126 17.938,100.112C18.613,100.032 19.068,99.993 19.305,99.993C19.398,99.993 19.444,100.032 19.444,100.112ZM17.207,106.178L17.745,104.07C17.766,103.963 17.777,103.902 17.777,103.887C17.777,103.737 17.712,103.554 17.584,103.339C17.426,103.074 17.207,102.941 16.928,102.941C16.555,102.941 16.2,103.185 15.862,103.672C15.798,103.765 15.737,103.865 15.679,103.973C15.472,104.39 15.296,104.981 15.153,105.748C15.109,105.992 15.087,106.186 15.087,106.33C15.087,106.817 15.224,107.133 15.498,107.276C15.576,107.32 15.669,107.342 15.777,107.342C16.178,107.342 16.583,107.087 16.992,106.577C17.093,106.462 17.161,106.344 17.197,106.222L17.197,106.212C17.204,106.197 17.207,106.186 17.207,106.178Z" style="fill-rule:nonzero;"/>
                    </g>
                    <g transform="matrix(1,0,0,1,0.720102,-29.3327)">
                        <path d="M24.721,98.562L23.689,102.67C23.516,103.374 23.132,103.945 22.537,104.382C22.1,104.705 21.645,104.866 21.171,104.866C20.691,104.866 20.35,104.701 20.149,104.372C20.07,104.235 20.031,104.088 20.031,103.93C20.031,103.564 20.178,103.339 20.472,103.252C20.53,103.238 20.583,103.23 20.633,103.23C20.863,103.23 20.992,103.331 21.021,103.531C21.028,103.554 21.031,103.579 21.031,103.607C21.031,103.772 20.959,103.919 20.816,104.049C20.716,104.134 20.562,104.177 20.354,104.177C20.483,104.478 20.755,104.629 21.171,104.629C21.616,104.629 22.01,104.403 22.354,103.952C22.634,103.578 22.857,103.073 23.022,102.435C23.029,102.406 23.04,102.359 23.053,102.294C22.731,102.616 22.369,102.778 21.967,102.778C21.394,102.778 21.003,102.567 20.794,102.144C20.701,101.957 20.655,101.742 20.655,101.499C20.655,101.104 20.845,100.398 21.225,99.379C21.239,99.336 21.257,99.29 21.278,99.239C21.4,98.909 21.462,98.658 21.462,98.486C21.462,98.257 21.372,98.142 21.193,98.142C20.798,98.142 20.475,98.468 20.224,99.12L20.224,99.132C20.182,99.239 20.143,99.354 20.107,99.476C20.027,99.598 19.969,99.662 19.934,99.67C19.848,99.67 19.806,99.634 19.806,99.562C19.806,99.433 19.881,99.208 20.031,98.885C20.347,98.231 20.745,97.905 21.225,97.905C21.606,97.905 21.871,98.066 22.021,98.389C22.078,98.511 22.107,98.644 22.107,98.787C22.107,98.937 22.035,99.196 21.892,99.562C21.527,100.509 21.344,101.212 21.344,101.67C21.344,102.252 21.566,102.543 22.011,102.543C22.427,102.543 22.789,102.32 23.097,101.875C23.169,101.768 23.212,101.685 23.226,101.628L23.711,99.692C23.761,99.454 23.833,99.167 23.926,98.831C23.998,98.522 24.047,98.328 24.075,98.249C24.17,98.099 24.295,98.024 24.452,98.024C24.631,98.06 24.735,98.156 24.765,98.313C24.765,98.378 24.75,98.461 24.721,98.562Z" style="fill-rule:nonzero;"/>
                    </g>
                </g>
            </g>
        </g>
    </g>
</svg>
