<?xml version="1.0" encoding="UTF-8" standalone="no"?>
<!DOCTYPE svg PUBLIC "-//W3C//DTD SVG 1.1//EN" "http://www.w3.org/Graphics/SVG/1.1/DTD/svg11.dtd">
<svg width="100%" height="100%" viewBox="0 0 601 164" version="1.1" xmlns="http://www.w3.org/2000/svg" xmlns:xlink="http://www.w3.org/1999/xlink" xml:space="preserve" xmlns:serif="http://www.serif.com/" style="fill-rule:evenodd;clip-rule:evenodd;stroke-linecap:round;">
    <g transform="matrix(1,0,0,1,-709,-1379)">
        <g transform="matrix(1,0,0,1.28232,709.034,-271.127)">
            <rect id="rhr3" x="0" y="1286.95" width="600" height="127.674" style="fill:none;"/>
            <clipPath id="_clip1">
                <rect id="rhr31" serif:id="rhr3" x="0" y="1286.95" width="600" height="127.674"/>
            </clipPath>
            <g clip-path="url(#_clip1)">
                <g transform="matrix(0.905822,0,0,1.06028,9.08016,-86.2506)">
                    <g transform="matrix(0.52739,0,0,0.351363,324.986,1024.09)">
                        <g id="path1062" transform="matrix(0.95194,0,0,0.951825,-475.699,538.962)">
                            <path d="M253.5,468.647C250.458,478.483 252.25,501.609 248.385,507.53M243.674,446.188C242.588,455.612 240.269,459.164 235.992,463.128M148.484,373.07C157.516,372.481 150.95,375.044 166.679,368.482M158.697,425.337C157.303,433.294 156.334,439.628 157.993,443.878M81.595,489.28C88.942,492.707 91.03,499.203 89.411,507.921M98.547,477.138C104.057,479.046 107.566,493.631 106.225,496.978M112.976,468.534C119.465,470.236 124.456,479.405 123.938,486.667M48.666,429.929C44.389,433.893 44.572,442.669 44.005,444.831M85.13,428.4C81.833,432.159 75.443,440.653 78.222,444.157M118.092,429.651C112.426,431.863 108.453,447.003 112.212,450.301M169.04,430.188C173.192,448.731 184.31,462.745 196.063,466.406M120.345,459.833C144.991,453.123 154.228,468.392 162.772,479.881" style="fill:none;fill-rule:nonzero;stroke:rgb(128,128,128);stroke-width:1.05px;"/>
                        </g>
                        <g id="path1064" transform="matrix(0.95194,0,0,0.951825,-475.699,538.962)">
                            <path d="M170.486,352.283C166.335,357.09 160.972,350.376 161.766,342.049C162.559,333.721 164.931,329.563 168.203,328.31" style="fill:none;stroke:rgb(128,128,128);stroke-width:1.05px;stroke-linejoin:round;"/>
                        </g>
                        <g id="path1066" transform="matrix(0.95194,0,0,0.951825,-475.699,538.962)">
                            <path d="M287.232,534.366C284.169,531.944 252.91,524.205 252.91,524.205C244.748,521.831 230.327,521.285 225.948,524.76C221.568,528.235 216.367,527.794 207.559,529.644C198.751,531.494 184.664,534.965 171.095,531.173C157.527,527.381 141.835,486.739 130.786,490.082C119.738,493.424 107.49,498.714 97.78,504.846C76.852,523.309 71.838,522.571 65.586,520.815C59.335,519.06 54.488,501.79 71.132,491.885C87.81,481.96 87.119,479.772 100.446,471.668C108.148,466.985 112.039,467.174 114.337,462.245C118.046,454.288 78.458,448.324 61.694,448.78C44.93,449.236 13.912,451.154 16.891,439.799C19.87,428.444 42.198,425.286 97.82,427.396C153.442,429.507 154.41,423.172 163.761,416.61C173.111,410.047 150.488,382.612 148.484,373.07C146.479,363.529 147.065,348.078 149.465,337.611C151.864,327.144 162.294,325.72 168.203,328.31C167.08,333.911 168.156,346.33 169.97,351.313C171.783,356.297 176.723,365.222 181.664,374.147C186.604,383.072 198.224,398.258 209.961,410.353C221.699,422.448 242.435,437.252 246.567,438.683C250.7,440.114 279.473,449.397 296.083,448.207L288.878,534.288" style="fill:none;fill-rule:nonzero;stroke:black;stroke-width:2.1px;stroke-linecap:butt;"/>
                        </g>
                        <g id="path1068" transform="matrix(0.95194,0,0,0.951825,-475.699,538.962)">
                            <path d="M184.282,525.849C195.466,521.062 203.523,517.721 209.472,514.427C215.421,511.133 223.587,503.797 225.007,498.391C226.426,492.984 224.263,492.417 222.075,489.299C219.888,486.182 204.152,491.532 200.545,493.822C196.939,496.113 193.822,498.3 178.189,504.138C162.555,509.977 158.408,512.125 149.884,512.894C142.895,513.524 154.307,529.08 158.143,530.318C161.979,531.556 163.188,534.879 184.282,525.849Z" style="fill:white;fill-rule:nonzero;stroke:black;stroke-width:2.36px;stroke-linecap:butt;"/>
                        </g>
                        <g id="path1070" transform="matrix(0.95194,0,0,0.951825,-475.699,538.962)">
                            <path d="M187.074,477.237C200.739,473.345 207.47,470.909 212.026,474.039C216.582,477.169 215.803,481.421 214.943,482.623C214.082,483.825 202.942,491.785 196.951,495.088C190.96,498.39 189.585,497.146 177.399,502.772C165.212,508.397 164.351,509.6 160.924,511.852C157.498,514.105 149.927,515.184 141.862,511.258C133.796,507.333 132.909,497.812 132.826,494.764C132.743,491.716 131.941,485.242 145.072,481.462C158.203,477.682 154.859,482.982 172.034,479.885C189.208,476.789 187.074,477.237 187.074,477.237Z" style="fill:white;fill-rule:nonzero;stroke:black;stroke-width:2.36px;stroke-linecap:butt;"/>
                        </g>
                        <g id="path1072" transform="matrix(0.95194,0,0,0.951825,-475.699,538.962)">
                            <path d="M136.012,493.073C137.269,506.071 139.627,506.235 147.747,510.022M157.594,488.794C158.416,492.708 161.245,501.31 161.245,501.31M181.558,482.482C181.969,484.439 184.593,492.062 185.21,494.998M191.077,503.475C191.694,506.411 198.643,515.169 198.643,515.169M168.527,514.087C169.917,515.839 172.746,524.44 175.887,524.803" style="fill:none;fill-rule:nonzero;stroke:rgb(128,128,128);stroke-width:1.05px;stroke-linejoin:round;"/>
                        </g>
                        <g id="path1074" transform="matrix(0.95194,0,0,0.951825,-475.699,538.962)">
                            <path d="M207.978,500.934C210.556,504.802 212.877,507.509 215.843,506.478C218.808,505.446 225.126,497.839 222.547,493.843C219.968,489.846 214.811,490.49 211.975,491.522C209.138,492.553 206.044,497.71 207.978,500.934Z" style="fill:none;stroke:rgb(128,128,128);stroke-width:1.05px;stroke-linecap:butt;"/>
                        </g>
                        <g id="path1076" transform="matrix(0.95194,0,0,0.951825,-475.699,538.962)">
                            <path d="M199.137,480.454C200.095,484.059 201.182,486.722 203.874,486.748C206.566,486.773 213.871,482.763 212.95,479.062C212.029,475.36 207.68,474.451 205.093,474.46C202.505,474.468 198.512,477.509 199.137,480.454Z" style="fill:none;stroke:rgb(128,128,128);stroke-width:1.05px;stroke-linecap:butt;"/>
                        </g>
                    </g>
                    <g transform="matrix(-0.769963,0.00446827,0.0092945,0.370154,576.529,884.148)">
                        <g transform="matrix(-1.43359,0.0173053,0.0239823,1.98671,775.13,1100.63)">
                            <path d="M68.954,92.772L57.704,89.022L68.954,85.272L68.954,92.772Z" style="fill:rgb(225,32,32);"/>
                            <path d="M152.81,89.022L66.704,89.022" style="fill:none;stroke:rgb(225,32,32);stroke-width:2.5px;stroke-linejoin:round;stroke-miterlimit:1.5;"/>
                        </g>
                    </g>
                    <g transform="matrix(0.555636,0,0,0.332656,-151.518,934.897)">
                        <g transform="matrix(1.98686,-0,-0,2.21099,254.583,1082.55)">
                            <path d="M98.408,131.04L87.003,134.285L94.18,124.846L98.408,131.04Z" style="fill:rgb(77,179,88);"/>
                            <path d="M152.812,89.363C152.812,89.363 111.654,117.458 94.436,129.211" style="fill:none;stroke:rgb(77,179,88);stroke-width:2.5px;stroke-linejoin:round;stroke-miterlimit:1.5;"/>
                        </g>
                    </g>
                    <g transform="matrix(0.537302,0,0,0.370181,-428.075,932.793)">
                        <g transform="matrix(40.2366,0,0,40.2366,885.458,1169.05)">
                        </g>
                        <text x="859.229px" y="1169.05px" style="font-family:'CMUSerif-Italic', 'CMU Serif';font-weight:500;font-style:italic;font-size:40.237px;">F</text>
                    </g>
                    <g transform="matrix(0.537302,0,0,0.370181,-399.171,973.712)">
                        <g transform="matrix(40.2366,0,0,40.2366,890.37,1169.05)">
                        </g>
                        <text x="854.318px" y="1169.05px" style="font-family:'CMUSerif-Italic', 'CMU Serif';font-weight:500;font-style:italic;font-size:40.237px;">M</text>
                    </g>
                    <g transform="matrix(0.537302,0,0,0.370181,-311.707,868.949)">
                        <g transform="matrix(40.2366,0,0,40.2366,880.811,1169.05)">
                        </g>
                        <text x="863.876px" y="1169.05px" style="font-family:'CMUSerif-Italic', 'CMU Serif';font-weight:500;font-style:italic;font-size:40.237px;">r</text>
                    </g>
                    <g transform="matrix(1,0,0,0.66623,-26.5696,263.767)">
                        <g transform="matrix(1.10397,-0,-0,1.10397,16.5076,1547.88)">
                            <path d="M149.06,30.779L152.81,19.529L156.56,30.779L149.06,30.779Z" style="fill:rgb(64,124,191);"/>
                            <path d="M152.81,88.68L152.81,28.529" style="fill:none;stroke:rgb(64,124,191);stroke-width:2.5px;stroke-linejoin:round;stroke-miterlimit:1.5;"/>
                        </g>
                    </g>
                </g>
                <g transform="matrix(0.905822,0,0,1.06028,30.0082,-84.8909)">
                    <g transform="matrix(0.52739,0,0,0.351363,647.319,1024.09)">
                        <g id="path10621" serif:id="path1062" transform="matrix(0.95194,0,0,0.951825,-475.699,538.962)">
                            <path d="M253.5,468.647C250.458,478.483 252.25,501.609 248.385,507.53M243.674,446.188C242.588,455.612 240.269,459.164 235.992,463.128M148.484,373.07C157.516,372.481 150.95,375.044 166.679,368.482M158.697,425.337C157.303,433.294 156.334,439.628 157.993,443.878M81.595,489.28C88.942,492.707 91.03,499.203 89.411,507.921M98.547,477.138C104.057,479.046 107.566,493.631 106.225,496.978M112.976,468.534C119.465,470.236 124.456,479.405 123.938,486.667M48.666,429.929C44.389,433.893 44.572,442.669 44.005,444.831M85.13,428.4C81.833,432.159 75.443,440.653 78.222,444.157M118.092,429.651C112.426,431.863 108.453,447.003 112.212,450.301M169.04,430.188C173.192,448.731 184.31,462.745 196.063,466.406M120.345,459.833C144.991,453.123 154.228,468.392 162.772,479.881" style="fill:none;fill-rule:nonzero;stroke:rgb(128,128,128);stroke-width:1.05px;"/>
                        </g>
                        <g id="path10641" serif:id="path1064" transform="matrix(0.95194,0,0,0.951825,-475.699,538.962)">
                            <path d="M170.486,352.283C166.335,357.09 160.972,350.376 161.766,342.049C162.559,333.721 164.931,329.563 168.203,328.31" style="fill:none;stroke:rgb(128,128,128);stroke-width:1.05px;stroke-linejoin:round;"/>
                        </g>
                        <g id="path10661" serif:id="path1066" transform="matrix(0.95194,0,0,0.951825,-475.699,538.962)">
                            <path d="M287.232,534.366C284.169,531.944 252.91,524.205 252.91,524.205C244.748,521.831 230.327,521.285 225.948,524.76C221.568,528.235 216.367,527.794 207.559,529.644C198.751,531.494 184.664,534.965 171.095,531.173C157.527,527.381 141.835,486.739 130.786,490.082C119.738,493.424 107.49,498.714 97.78,504.846C76.852,523.309 71.838,522.571 65.586,520.815C59.335,519.06 54.488,501.79 71.132,491.885C87.81,481.96 87.119,479.772 100.446,471.668C108.148,466.985 112.039,467.174 114.337,462.245C118.046,454.288 78.458,448.324 61.694,448.78C44.93,449.236 13.912,451.154 16.891,439.799C19.87,428.444 42.198,425.286 97.82,427.396C153.442,429.507 154.41,423.172 163.761,416.61C173.111,410.047 150.488,382.612 148.484,373.07C146.479,363.529 147.065,348.078 149.465,337.611C151.864,327.144 162.294,325.72 168.203,328.31C167.08,333.911 168.156,346.33 169.97,351.313C171.783,356.297 176.723,365.222 181.664,374.147C186.604,383.072 198.224,398.258 209.961,410.353C221.699,422.448 242.435,437.252 246.567,438.683C250.7,440.114 279.473,449.397 296.083,448.207L288.878,534.288" style="fill:none;fill-rule:nonzero;stroke:black;stroke-width:2.1px;stroke-linecap:butt;"/>
                        </g>
                        <g id="path10681" serif:id="path1068" transform="matrix(0.95194,0,0,0.951825,-475.699,538.962)">
                            <path d="M184.282,525.849C195.466,521.062 203.523,517.721 209.472,514.427C215.421,511.133 223.587,503.797 225.007,498.391C226.426,492.984 224.263,492.417 222.075,489.299C219.888,486.182 204.152,491.532 200.545,493.822C196.939,496.113 193.822,498.3 178.189,504.138C162.555,509.977 158.408,512.125 149.884,512.894C142.895,513.524 154.307,529.08 158.143,530.318C161.979,531.556 163.188,534.879 184.282,525.849Z" style="fill:white;fill-rule:nonzero;stroke:black;stroke-width:2.36px;stroke-linecap:butt;"/>
                        </g>
                        <g id="path10701" serif:id="path1070" transform="matrix(0.95194,0,0,0.951825,-475.699,538.962)">
                            <path d="M187.074,477.237C200.739,473.345 207.47,470.909 212.026,474.039C216.582,477.169 215.803,481.421 214.943,482.623C214.082,483.825 202.942,491.785 196.951,495.088C190.96,498.39 189.585,497.146 177.399,502.772C165.212,508.397 164.351,509.6 160.924,511.852C157.498,514.105 149.927,515.184 141.862,511.258C133.796,507.333 132.909,497.812 132.826,494.764C132.743,491.716 131.941,485.242 145.072,481.462C158.203,477.682 154.859,482.982 172.034,479.885C189.208,476.789 187.074,477.237 187.074,477.237Z" style="fill:white;fill-rule:nonzero;stroke:black;stroke-width:2.36px;stroke-linecap:butt;"/>
                        </g>
                        <g id="path10721" serif:id="path1072" transform="matrix(0.95194,0,0,0.951825,-475.699,538.962)">
                            <path d="M136.012,493.073C137.269,506.071 139.627,506.235 147.747,510.022M157.594,488.794C158.416,492.708 161.245,501.31 161.245,501.31M181.558,482.482C181.969,484.439 184.593,492.062 185.21,494.998M191.077,503.475C191.694,506.411 198.643,515.169 198.643,515.169M168.527,514.087C169.917,515.839 172.746,524.44 175.887,524.803" style="fill:none;fill-rule:nonzero;stroke:rgb(128,128,128);stroke-width:1.05px;stroke-linejoin:round;"/>
                        </g>
                        <g id="path10741" serif:id="path1074" transform="matrix(0.95194,0,0,0.951825,-475.699,538.962)">
                            <path d="M207.978,500.934C210.556,504.802 212.877,507.509 215.843,506.478C218.808,505.446 225.126,497.839 222.547,493.843C219.968,489.846 214.811,490.49 211.975,491.522C209.138,492.553 206.044,497.71 207.978,500.934Z" style="fill:none;stroke:rgb(128,128,128);stroke-width:1.05px;stroke-linecap:butt;"/>
                        </g>
                        <g id="path10761" serif:id="path1076" transform="matrix(0.95194,0,0,0.951825,-475.699,538.962)">
                            <path d="M199.137,480.454C200.095,484.059 201.182,486.722 203.874,486.748C206.566,486.773 213.871,482.763 212.95,479.062C212.029,475.36 207.68,474.451 205.093,474.46C202.505,474.468 198.512,477.509 199.137,480.454Z" style="fill:none;stroke:rgb(128,128,128);stroke-width:1.05px;stroke-linecap:butt;"/>
                        </g>
                    </g>
                    <g transform="matrix(-0.769963,0.00446827,0.0092945,0.370154,898.255,884.145)">
                        <g transform="matrix(-1.43359,0.0173053,0.0239823,1.98671,1222.87,1091.76)">
                            <path d="M381.308,94.511L370.058,90.761L381.308,87.011L381.308,94.511Z" style="fill:rgb(64,124,191);"/>
                            <path d="M465.163,90.761L379.058,90.761" style="fill:none;stroke:rgb(64,124,191);stroke-width:2.5px;stroke-linejoin:round;stroke-miterlimit:1.5;"/>
                        </g>
                    </g>
                    <g transform="matrix(0.555636,0,0,0.332656,170.208,934.894)">
                        <g transform="matrix(1.98686,-0,-0,2.21099,-366.02,1078.7)">
                            <path d="M410.762,132.78L399.356,136.025L406.534,126.585L410.762,132.78Z" style="fill:rgb(225,32,32);"/>
                            <path d="M465.166,91.103C465.166,91.103 424.008,119.198 406.79,130.951" style="fill:none;stroke:rgb(225,32,32);stroke-width:2.5px;stroke-linejoin:round;stroke-miterlimit:1.5;"/>
                        </g>
                    </g>
                    <g transform="matrix(0.537302,0,0,0.370181,-74.4057,971.147)">
                        <g transform="matrix(40.2366,0,0,40.2366,885.458,1169.05)">
                        </g>
                        <text x="859.229px" y="1169.05px" style="font-family:'CMUSerif-Italic', 'CMU Serif';font-weight:500;font-style:italic;font-size:40.237px;">F</text>
                    </g>
                    <g transform="matrix(0.537302,0,0,0.370181,9.88884,872.542)">
                        <g transform="matrix(40.2366,0,0,40.2366,890.37,1169.05)">
                        </g>
                        <text x="854.318px" y="1169.05px" style="font-family:'CMUSerif-Italic', 'CMU Serif';font-weight:500;font-style:italic;font-size:40.237px;">M</text>
                    </g>
                    <g transform="matrix(0.537302,0,0,0.370181,-105.585,930.681)">
                        <g transform="matrix(40.2366,0,0,40.2366,880.811,1169.05)">
                        </g>
                        <text x="863.876px" y="1169.05px" style="font-family:'CMUSerif-Italic', 'CMU Serif';font-weight:500;font-style:italic;font-size:40.237px;">r</text>
                    </g>
                    <g transform="matrix(1,0,0,0.66623,295.156,263.764)">
                        <g transform="matrix(1.10397,-0,-0,1.10397,-328.322,1545.96)">
                            <path d="M461.413,32.519L465.163,21.269L468.913,32.519L461.413,32.519Z" style="fill:rgb(77,179,88);"/>
                            <path d="M465.163,90.42L465.163,30.269" style="fill:none;stroke:rgb(77,179,88);stroke-width:2.5px;stroke-linejoin:round;stroke-miterlimit:1.5;"/>
                        </g>
                    </g>
                </g>
            </g>
        </g>
    </g>
</svg>
