<?xml version="1.0" encoding="UTF-8" standalone="no"?>
<!DOCTYPE svg PUBLIC "-//W3C//DTD SVG 1.1//EN" "http://www.w3.org/Graphics/SVG/1.1/DTD/svg11.dtd">
<svg width="100%" height="100%" viewBox="0 0 318 416" version="1.1" xmlns="http://www.w3.org/2000/svg" xmlns:xlink="http://www.w3.org/1999/xlink" xml:space="preserve" xmlns:serif="http://www.serif.com/" style="fill-rule:evenodd;clip-rule:evenodd;">
    <g transform="matrix(1,0,0,1,-632,-8)">
        <g id="Artboard3" transform="matrix(1,0,0,1,-0.515954,-0.493827)">
            <rect x="632.516" y="8.494" width="317.181" height="415.207" style="fill:none;"/>
            <clipPath id="_clip1">
                <rect x="632.516" y="8.494" width="317.181" height="415.207"/>
            </clipPath>
            <g clip-path="url(#_clip1)">
                <g transform="matrix(1,0,0,1,-1085.42,-263.294)">
                    <g id="path5091" transform="matrix(1,0,0,1,1137.82,73.6934)">
                        <path d="M590.08,374.201L590.223,331.611" style="fill:none;fill-rule:nonzero;stroke:black;stroke-width:0.8px;"/>
                    </g>
                    <g id="path4505" transform="matrix(1,0,0,1,1137.82,73.6934)">
                        <path d="M699.561,563.193L758.571,596.574" style="fill:none;stroke:black;stroke-width:2.4px;"/>
                    </g>
                    <g id="path4507" transform="matrix(1,0,0,1,1137.82,73.6934)">
                        <path d="M699.561,563.193L641.269,596.015" style="fill:none;stroke:black;stroke-width:2.4px;"/>
                    </g>
                    <g transform="matrix(1,0,0,1,1756.4,681.09)">
                        <g id="text4511">
                            <g transform="matrix(32,0,0,32,0,0)">
                                <path d="M0.422,-0.388L0.605,-0.117C0.635,-0.072 0.657,-0.045 0.67,-0.035C0.683,-0.026 0.698,-0.02 0.715,-0.018L0.715,-0L0.393,-0L0.393,-0.018C0.418,-0.02 0.435,-0.024 0.442,-0.03C0.45,-0.036 0.454,-0.043 0.454,-0.051C0.454,-0.057 0.452,-0.062 0.45,-0.067C0.446,-0.077 0.434,-0.095 0.416,-0.122L0.319,-0.265L0.218,-0.141C0.188,-0.104 0.173,-0.078 0.173,-0.065C0.173,-0.056 0.177,-0.047 0.185,-0.039C0.192,-0.03 0.204,-0.025 0.219,-0.021C0.226,-0.019 0.24,-0.018 0.261,-0.018L0.261,-0L0.007,-0L0.007,-0.018C0.036,-0.022 0.059,-0.03 0.075,-0.042C0.097,-0.056 0.127,-0.088 0.167,-0.135L0.298,-0.295L0.129,-0.543C0.102,-0.584 0.086,-0.606 0.082,-0.611C0.073,-0.622 0.065,-0.629 0.056,-0.634C0.048,-0.638 0.036,-0.642 0.021,-0.644L0.021,-0.662L0.35,-0.662L0.35,-0.644L0.333,-0.644C0.314,-0.644 0.301,-0.641 0.293,-0.635C0.286,-0.629 0.282,-0.621 0.282,-0.612C0.282,-0.605 0.283,-0.599 0.286,-0.594L0.319,-0.543L0.401,-0.418L0.471,-0.503C0.507,-0.547 0.525,-0.578 0.525,-0.596C0.525,-0.604 0.522,-0.613 0.517,-0.62C0.512,-0.628 0.505,-0.633 0.496,-0.638C0.486,-0.642 0.472,-0.644 0.452,-0.644L0.452,-0.662L0.695,-0.662L0.695,-0.644C0.676,-0.644 0.661,-0.641 0.649,-0.637C0.637,-0.633 0.625,-0.624 0.611,-0.612C0.603,-0.604 0.582,-0.58 0.548,-0.54L0.422,-0.388Z" style="fill-rule:nonzero;"/>
                            </g>
                        </g>
                    </g>
                    <g transform="matrix(1,0,0,1,1896.83,683.447)">
                        <g id="text4515">
                            <g transform="matrix(32,0,0,32,0,0)">
                                <path d="M0.711,-0.662L0.711,-0.644C0.689,-0.641 0.672,-0.635 0.661,-0.625C0.644,-0.611 0.619,-0.574 0.583,-0.513L0.44,-0.273L0.44,-0.113C0.44,-0.079 0.442,-0.058 0.445,-0.05C0.449,-0.041 0.456,-0.034 0.467,-0.028C0.477,-0.021 0.491,-0.018 0.509,-0.018L0.546,-0.018L0.546,-0L0.174,-0L0.174,-0.018L0.209,-0.018C0.229,-0.018 0.244,-0.021 0.255,-0.028C0.264,-0.033 0.271,-0.041 0.275,-0.052C0.279,-0.06 0.281,-0.08 0.281,-0.113L0.281,-0.246L0.125,-0.53C0.094,-0.586 0.072,-0.619 0.06,-0.629C0.047,-0.639 0.03,-0.644 0.009,-0.644L0.009,-0.662L0.326,-0.662L0.326,-0.644L0.312,-0.644C0.293,-0.644 0.279,-0.641 0.272,-0.636C0.264,-0.63 0.26,-0.624 0.26,-0.618C0.26,-0.606 0.273,-0.577 0.299,-0.53L0.419,-0.311L0.538,-0.51C0.568,-0.559 0.583,-0.591 0.583,-0.607C0.583,-0.616 0.578,-0.624 0.57,-0.629C0.559,-0.638 0.538,-0.642 0.509,-0.644L0.509,-0.662L0.711,-0.662Z" style="fill-rule:nonzero;"/>
                            </g>
                        </g>
                    </g>
                    <g id="path4727" transform="matrix(1,0,0,1,1137.82,73.6934)">
                        <path d="M621.199,357.468C699.755,312.113 699.755,448.176 621.199,493.531L699.771,539.102L778.327,493.748L778.327,357.685L621.199,357.468Z" style="fill:url(#_Linear2);stroke:black;stroke-width:0.8px;"/>
                    </g>
                    <g id="path4719" transform="matrix(1,0,0,1,1012.75,190.481)">
                        <path d="M942.672,172.866L824.838,240.897L824.838,286.252C903.394,240.897 903.394,376.96 824.838,422.314L824.838,444.992L942.672,376.961L942.672,172.866Z" style="fill:rgb(204,204,204);stroke:black;stroke-width:0.8px;"/>
                    </g>
                    <g id="path4721" transform="matrix(1,0,0,1,1137.82,73.6934)">
                        <path d="M699.771,561.779L621.215,516.425L621.215,493.748L699.771,539.102L699.771,561.779" style="fill:rgb(204,204,204);stroke:black;stroke-width:0.8px;"/>
                    </g>
                    <g id="path4723" transform="matrix(1,0,0,1,1137.82,73.6934)">
                        <path d="M699.771,357.685L621.215,312.33L621.215,357.685L699.771,403.039L699.771,357.685Z" style="fill:rgb(204,204,204);stroke:black;stroke-width:0.8px;"/>
                    </g>
                    <g id="path4729" transform="matrix(1,0,0,1,1137.82,73.6934)">
                        <path d="M621.215,312.33L739.049,244.299L817.605,289.653L699.771,357.685L621.215,312.33Z" style="fill:rgb(204,204,204);stroke:black;stroke-width:0.8px;"/>
                    </g>
                    <g transform="matrix(1,0,0,1,1843.46,410.087)">
                        <g id="text4519">
                            <g transform="matrix(32,0,0,32,0,0)">
                                <path d="M0.61,-0.662L0.221,-0.037L0.347,-0.037C0.407,-0.037 0.448,-0.041 0.472,-0.048C0.511,-0.06 0.544,-0.082 0.572,-0.113C0.6,-0.144 0.62,-0.187 0.63,-0.239L0.649,-0.239L0.623,-0L0.016,-0L0.406,-0.626L0.308,-0.626C0.27,-0.626 0.244,-0.625 0.232,-0.623C0.21,-0.618 0.188,-0.61 0.168,-0.597C0.148,-0.585 0.132,-0.568 0.118,-0.547C0.105,-0.527 0.095,-0.5 0.087,-0.468L0.069,-0.468L0.087,-0.662L0.61,-0.662Z" style="fill-rule:nonzero;"/>
                            </g>
                        </g>
                    </g>
                    <g id="path4509" transform="matrix(1,0,0,1,1137.82,73.6934)">
                        <path d="M699.561,563.86L699.982,329.909" style="fill:none;stroke:black;stroke-width:2.4px;"/>
                    </g>
                    <g id="path4731" transform="matrix(1,0,0,1,1137.82,73.6934)">
                        <path d="M758.907,527.596L758.907,436.887L798.185,550.273L758.907,527.596Z" style="fill:rgb(153,153,153);stroke:black;stroke-width:0.8px;"/>
                    </g>
                    <g id="path5105" transform="matrix(1,0,0,1,1137.82,73.6934)">
                        <path d="M857.417,471.018L819.462,493.079" style="fill:none;stroke:black;stroke-width:0.8px;"/>
                    </g>
                    <g id="path4733" transform="matrix(1,0,0,1,1137.82,73.6934)">
                        <path d="M758.688,437.055L817.605,403.039L856.883,516.425L797.966,550.441L758.688,437.055Z" style="fill:rgb(153,153,153);stroke:black;stroke-width:0.8px;"/>
                    </g>
                    <g id="path5338" transform="matrix(1,0,0,1,1137.82,73.6934)">
                        <path d="M858.781,517.488L896.161,539.369" style="fill:none;stroke:black;stroke-width:0.8px;"/>
                    </g>
                    <g id="path5340" transform="matrix(1,0,0,1,1137.82,73.6934)">
                        <path d="M800.394,551.429L837.774,573.31" style="fill:none;stroke:black;stroke-width:0.8px;"/>
                    </g>
                    <g id="path5342" transform="matrix(1,0,0,1,1137.82,73.6934)">
                        <path d="M620.233,517.391L582.279,539.452" style="fill:none;stroke:black;stroke-width:0.8px;"/>
                    </g>
                    <g id="path5344" transform="matrix(1,0,0,1,1137.82,73.6934)">
                        <path d="M620.233,313.391L582.85,334.595" style="fill:none;stroke:black;stroke-width:0.8px;"/>
                    </g>
                    <g id="path5346" transform="matrix(1,0,0,1,1137.82,73.6934)">
                        <path d="M620.233,358.82L582.564,380.309" style="fill:none;stroke:black;stroke-width:0.8px;"/>
                    </g>
                    <g id="path5348" transform="matrix(1,0,0,1,1137.82,73.6934)">
                        <path d="M620.233,517.391L582.279,539.452" style="fill:none;stroke:black;stroke-width:0.8px;"/>
                    </g>
                    <g id="path5350" transform="matrix(1,0,0,1,1137.82,73.6934)">
                        <path d="M620.233,493.963L582.279,516.024" style="fill:none;stroke:black;stroke-width:0.8px;"/>
                    </g>
                    <g transform="matrix(1,0,0,1,1730.89,518.269)">
                        <g id="text5024-1-2-9-8">
                            <g transform="matrix(23.04,0,0,23.04,0,0)">
                                <path d="M0.172,-0.375C0.218,-0.434 0.276,-0.464 0.345,-0.464C0.408,-0.464 0.46,-0.443 0.5,-0.401C0.54,-0.359 0.561,-0.306 0.561,-0.24C0.561,-0.165 0.538,-0.103 0.493,-0.055C0.448,-0.006 0.391,0.018 0.321,0.018C0.242,0.018 0.179,-0.014 0.134,-0.078C0.089,-0.142 0.067,-0.231 0.067,-0.345C0.067,-0.471 0.093,-0.568 0.144,-0.637C0.196,-0.707 0.269,-0.741 0.362,-0.741C0.405,-0.741 0.459,-0.732 0.523,-0.714L0.523,-0.63C0.455,-0.656 0.4,-0.669 0.356,-0.669C0.233,-0.669 0.172,-0.571 0.172,-0.375ZM0.464,-0.219C0.464,-0.273 0.452,-0.316 0.427,-0.348C0.402,-0.379 0.368,-0.395 0.325,-0.395C0.284,-0.395 0.249,-0.381 0.22,-0.354C0.19,-0.326 0.176,-0.293 0.176,-0.255C0.176,-0.194 0.19,-0.146 0.218,-0.109C0.245,-0.073 0.282,-0.054 0.328,-0.054C0.369,-0.054 0.402,-0.069 0.427,-0.099C0.452,-0.129 0.464,-0.169 0.464,-0.219Z" style="fill-rule:nonzero;"/>
                            </g>
                        </g>
                    </g>
                    <g transform="matrix(1,0,0,1,1731.75,428.957)">
                        <g id="text5024-1-2-9-8-3">
                            <g transform="matrix(23.04,0,0,23.04,0,0)">
                                <path d="M0.083,-0L0.083,-0.084C0.111,-0.15 0.168,-0.221 0.253,-0.298L0.308,-0.348C0.379,-0.412 0.415,-0.475 0.415,-0.539C0.415,-0.579 0.402,-0.611 0.378,-0.634C0.354,-0.657 0.321,-0.668 0.278,-0.668C0.228,-0.668 0.169,-0.649 0.101,-0.61L0.101,-0.695C0.165,-0.726 0.229,-0.741 0.292,-0.741C0.36,-0.741 0.414,-0.722 0.455,-0.686C0.496,-0.65 0.517,-0.601 0.517,-0.541C0.517,-0.498 0.506,-0.459 0.486,-0.426C0.465,-0.392 0.426,-0.352 0.37,-0.304L0.333,-0.272C0.256,-0.207 0.211,-0.144 0.199,-0.084L0.513,-0.084L0.513,-0L0.083,-0Z" style="fill-rule:nonzero;"/>
                            </g>
                        </g>
                    </g>
                    <g id="path5388" transform="matrix(1,0,0,1,1137.82,73.6934)">
                        <path d="M699.729,470.601L755.788,437.86" style="fill:none;stroke:black;stroke-width:1.36px;"/>
                    </g>
                    <g id="text5024-1-2-9-8-3-8" transform="matrix(0.876795,-0.480864,0.480864,0.876795,1137.82,73.6934)">
                        <g transform="matrix(1,0,0,1,398.334,742.819)">
                            <g transform="matrix(17.28,0,0,17.28,0,0)">
                                <path d="M0.096,-0L0.096,-0.53L0.192,-0.53L0.192,-0.431C0.23,-0.505 0.286,-0.542 0.358,-0.542C0.368,-0.542 0.378,-0.541 0.389,-0.54L0.389,-0.45C0.373,-0.455 0.358,-0.458 0.345,-0.458C0.284,-0.458 0.233,-0.422 0.192,-0.35L0.192,-0L0.096,-0Z" style="fill-rule:nonzero;"/>
                            </g>
                            <g transform="matrix(17.28,0,0,17.28,7.07062,0)">
                                <path d="M0.37,-0.067C0.312,-0.014 0.257,0.012 0.203,0.012C0.159,0.012 0.123,-0.002 0.094,-0.029C0.065,-0.057 0.05,-0.091 0.05,-0.133C0.05,-0.191 0.075,-0.236 0.123,-0.267C0.172,-0.298 0.242,-0.313 0.333,-0.313L0.355,-0.313L0.355,-0.377C0.355,-0.439 0.324,-0.47 0.261,-0.47C0.21,-0.47 0.155,-0.454 0.096,-0.423L0.096,-0.502C0.161,-0.529 0.222,-0.542 0.278,-0.542C0.338,-0.542 0.381,-0.529 0.409,-0.502C0.438,-0.475 0.452,-0.434 0.452,-0.377L0.452,-0.137C0.452,-0.082 0.469,-0.055 0.502,-0.055C0.507,-0.055 0.513,-0.055 0.521,-0.057L0.528,-0.003C0.506,0.007 0.482,0.012 0.456,0.012C0.411,0.012 0.382,-0.014 0.37,-0.067ZM0.355,-0.12L0.355,-0.257L0.323,-0.258C0.271,-0.258 0.228,-0.248 0.195,-0.228C0.163,-0.208 0.146,-0.181 0.146,-0.149C0.146,-0.126 0.155,-0.106 0.171,-0.09C0.187,-0.074 0.207,-0.066 0.23,-0.066C0.271,-0.066 0.312,-0.084 0.355,-0.12Z" style="fill-rule:nonzero;"/>
                            </g>
                            <g transform="matrix(17.28,0,0,17.28,16.6134,0)">
                                <path d="M0.437,-0L0.437,-0.1C0.397,-0.025 0.339,0.012 0.26,0.012C0.196,0.012 0.146,-0.011 0.109,-0.058C0.073,-0.104 0.054,-0.168 0.054,-0.249C0.054,-0.337 0.075,-0.408 0.116,-0.461C0.158,-0.515 0.213,-0.542 0.28,-0.542C0.343,-0.542 0.395,-0.518 0.437,-0.47L0.437,-0.771L0.533,-0.771L0.533,-0L0.437,-0ZM0.437,-0.404C0.387,-0.448 0.34,-0.47 0.295,-0.47C0.203,-0.47 0.157,-0.399 0.157,-0.258C0.157,-0.134 0.198,-0.072 0.28,-0.072C0.333,-0.072 0.385,-0.101 0.437,-0.16L0.437,-0.404Z" style="fill-rule:nonzero;"/>
                            </g>
                            <g transform="matrix(17.28,0,0,17.28,27.4894,0)">
                                <path d="M0.096,-0L0.096,-0.53L0.192,-0.53L0.192,-0L0.096,-0ZM0.096,-0.626L0.096,-0.723L0.192,-0.723L0.192,-0.626L0.096,-0.626Z" style="fill-rule:nonzero;"/>
                            </g>
                            <g transform="matrix(17.28,0,0,17.28,32.4844,0)">
                                <path d="M0.428,-0L0.428,-0.1C0.377,-0.025 0.315,0.012 0.242,0.012C0.195,0.012 0.159,-0.002 0.131,-0.031C0.104,-0.061 0.09,-0.1 0.09,-0.149L0.09,-0.53L0.187,-0.53L0.187,-0.181C0.187,-0.141 0.192,-0.113 0.204,-0.096C0.215,-0.079 0.235,-0.071 0.262,-0.071C0.32,-0.071 0.376,-0.109 0.428,-0.187L0.428,-0.53L0.524,-0.53L0.524,-0L0.428,-0Z" style="fill-rule:nonzero;"/>
                            </g>
                            <g transform="matrix(17.28,0,0,17.28,43.2084,0)">
                                <path d="M0.237,0.012C0.193,0.012 0.139,0.002 0.077,-0.019L0.077,-0.107C0.139,-0.076 0.194,-0.06 0.241,-0.06C0.268,-0.06 0.291,-0.068 0.31,-0.083C0.328,-0.097 0.337,-0.116 0.337,-0.139C0.337,-0.172 0.311,-0.199 0.26,-0.22L0.204,-0.244C0.121,-0.279 0.08,-0.328 0.08,-0.393C0.08,-0.439 0.096,-0.476 0.129,-0.502C0.161,-0.529 0.206,-0.542 0.263,-0.542C0.293,-0.542 0.329,-0.538 0.373,-0.53L0.393,-0.526L0.393,-0.446C0.339,-0.462 0.297,-0.47 0.265,-0.47C0.203,-0.47 0.172,-0.447 0.172,-0.402C0.172,-0.373 0.196,-0.349 0.243,-0.329L0.289,-0.31C0.341,-0.287 0.379,-0.264 0.4,-0.24C0.422,-0.215 0.433,-0.184 0.433,-0.147C0.433,-0.101 0.415,-0.063 0.378,-0.033C0.341,-0.003 0.294,0.012 0.237,0.012Z" style="fill-rule:nonzero;"/>
                            </g>
                        </g>
                        <g transform="matrix(1,0,0,1,398.334,764.419)">
                            <g transform="matrix(17.28,0,0,17.28,0,0)">
                                <path d="M0.102,-0.005L0.102,-0.095C0.171,-0.068 0.225,-0.054 0.265,-0.054C0.311,-0.054 0.348,-0.068 0.377,-0.094C0.406,-0.121 0.42,-0.156 0.42,-0.199C0.42,-0.3 0.349,-0.351 0.207,-0.351L0.168,-0.351L0.168,-0.416L0.202,-0.417C0.336,-0.417 0.402,-0.464 0.402,-0.558C0.402,-0.632 0.358,-0.668 0.271,-0.668C0.222,-0.668 0.169,-0.655 0.111,-0.628L0.111,-0.712C0.168,-0.731 0.224,-0.741 0.277,-0.741C0.425,-0.741 0.499,-0.685 0.499,-0.573C0.499,-0.488 0.449,-0.428 0.348,-0.392C0.465,-0.365 0.523,-0.301 0.523,-0.2C0.523,-0.132 0.5,-0.079 0.456,-0.04C0.411,-0.001 0.349,0.018 0.271,0.018C0.226,0.018 0.17,0.01 0.102,-0.005Z" style="fill-rule:nonzero;"/>
                            </g>
                        </g>
                    </g>
                    <g id="path5774" transform="matrix(1,0,0,1,1137.82,73.6934)">
                        <path d="M622,309.02L622,266.523" style="fill:none;stroke:black;stroke-width:0.8px;"/>
                    </g>
                    <g id="path5776" transform="matrix(1,0,0,1,1137.82,73.6934)">
                        <path d="M739.142,242.734L739.142,200.237" style="fill:none;stroke:black;stroke-width:0.8px;"/>
                    </g>
                    <g transform="matrix(1,0,0,1,1814.17,335.031)">
                        <g id="text5024-1-2-9-8-3-3">
                            <g transform="matrix(23.04,0,0,23.04,0,0)">
                                <path d="M0.172,-0.375C0.218,-0.434 0.276,-0.464 0.345,-0.464C0.408,-0.464 0.46,-0.443 0.5,-0.401C0.54,-0.359 0.561,-0.306 0.561,-0.24C0.561,-0.165 0.538,-0.103 0.493,-0.055C0.448,-0.006 0.391,0.018 0.321,0.018C0.242,0.018 0.179,-0.014 0.134,-0.078C0.089,-0.142 0.067,-0.231 0.067,-0.345C0.067,-0.471 0.093,-0.568 0.144,-0.637C0.196,-0.707 0.269,-0.741 0.362,-0.741C0.405,-0.741 0.459,-0.732 0.523,-0.714L0.523,-0.63C0.455,-0.656 0.4,-0.669 0.356,-0.669C0.233,-0.669 0.172,-0.571 0.172,-0.375ZM0.464,-0.219C0.464,-0.273 0.452,-0.316 0.427,-0.348C0.402,-0.379 0.368,-0.395 0.325,-0.395C0.284,-0.395 0.249,-0.381 0.22,-0.354C0.19,-0.326 0.176,-0.293 0.176,-0.255C0.176,-0.194 0.19,-0.146 0.218,-0.109C0.245,-0.073 0.282,-0.054 0.328,-0.054C0.369,-0.054 0.402,-0.069 0.427,-0.099C0.452,-0.129 0.464,-0.169 0.464,-0.219Z" style="fill-rule:nonzero;"/>
                            </g>
                        </g>
                    </g>
                    <g transform="matrix(1,0,0,1,1977.77,627.696)">
                        <g id="text5796">
                            <g transform="matrix(23.04,0,0,23.04,0,0)">
                                <path d="M0.102,-0.005L0.102,-0.095C0.171,-0.068 0.225,-0.054 0.265,-0.054C0.311,-0.054 0.348,-0.068 0.377,-0.094C0.406,-0.121 0.42,-0.156 0.42,-0.199C0.42,-0.3 0.349,-0.351 0.207,-0.351L0.168,-0.351L0.168,-0.416L0.202,-0.417C0.336,-0.417 0.402,-0.464 0.402,-0.558C0.402,-0.632 0.358,-0.668 0.271,-0.668C0.222,-0.668 0.169,-0.655 0.111,-0.628L0.111,-0.712C0.168,-0.731 0.224,-0.741 0.277,-0.741C0.425,-0.741 0.499,-0.685 0.499,-0.573C0.499,-0.488 0.449,-0.428 0.348,-0.392C0.465,-0.365 0.523,-0.301 0.523,-0.2C0.523,-0.132 0.5,-0.079 0.456,-0.04C0.411,-0.001 0.349,0.018 0.271,0.018C0.226,0.018 0.17,0.01 0.102,-0.005Z" style="fill-rule:nonzero;"/>
                            </g>
                        </g>
                    </g>
                    <g transform="matrix(1,0,0,1,1765.2,631.234)">
                        <g id="text5800">
                            <g transform="matrix(23.04,0,0,23.04,0,0)">
                                <path d="M0.376,-0L0.376,-0.205L0.051,-0.205L0.051,-0.277L0.376,-0.723L0.467,-0.723L0.467,-0.283L0.563,-0.283L0.563,-0.205L0.467,-0.205L0.467,-0L0.376,-0ZM0.146,-0.283L0.383,-0.283L0.383,-0.604L0.146,-0.283Z" style="fill-rule:nonzero;"/>
                            </g>
                        </g>
                    </g>
                    <g transform="matrix(1,0,0,1,1730.89,598.269)">
                        <g id="text5804">
                            <g transform="matrix(23.04,0,0,23.04,0,0)">
                                <path d="M0.15,-0L0.15,-0.072L0.295,-0.072L0.295,-0.643L0.15,-0.606L0.15,-0.681L0.392,-0.741L0.392,-0.072L0.536,-0.072L0.536,-0L0.15,-0Z" style="fill-rule:nonzero;"/>
                            </g>
                        </g>
                    </g>
                    <g id="path6190" transform="matrix(1,0,0,1,1137.82,73.6934)">
                        <path d="M590.08,509.793L590.223,377.163" style="fill:none;fill-rule:nonzero;stroke:black;stroke-width:0.8px;"/>
                    </g>
                    <g id="path6538" transform="matrix(1,0,0,1,1137.82,73.6934)">
                        <path d="M590.08,533.239L590.223,512.859" style="fill:none;fill-rule:nonzero;stroke:black;stroke-width:0.8px;"/>
                    </g>
                    <g id="path7034" transform="matrix(1,0,0,1,1137.82,73.6934)">
                        <path d="M591.772,535.632L665.91,579.489" style="fill:none;stroke:black;stroke-width:0.8px;"/>
                    </g>
                    <g id="path7632" transform="matrix(1,0,0,1,1137.82,73.6934)">
                        <path d="M737.682,205.807L623.86,273.474" style="fill:none;fill-rule:nonzero;stroke:black;stroke-width:0.8px;"/>
                    </g>
                    <g id="path8124" transform="matrix(1,0,0,1,1137.82,73.6934)">
                        <path d="M887.588,536.127L832.759,568.438" style="fill:none;fill-rule:nonzero;stroke:black;stroke-width:0.8px;"/>
                    </g>
                    <g id="path12026" transform="matrix(1,0,0,1,1137.82,73.6934)">
                        <path d="M758.976,572.468L758.976,529.971" style="fill:none;stroke:black;stroke-width:0.8px;"/>
                    </g>
                    <g id="path12028" transform="matrix(1,0,0,1,1137.82,73.6934)">
                        <path d="M797.766,595.095L797.766,552.598" style="fill:none;stroke:black;stroke-width:0.8px;"/>
                    </g>
                    <g transform="matrix(1,0,0,1,1907.87,644.262)">
                        <g id="text12030">
                            <g transform="matrix(23.04,0,0,23.04,0,0)">
                                <path d="M0.083,-0L0.083,-0.084C0.111,-0.15 0.168,-0.221 0.253,-0.298L0.308,-0.348C0.379,-0.412 0.415,-0.475 0.415,-0.539C0.415,-0.579 0.402,-0.611 0.378,-0.634C0.354,-0.657 0.321,-0.668 0.278,-0.668C0.228,-0.668 0.169,-0.649 0.101,-0.61L0.101,-0.695C0.165,-0.726 0.229,-0.741 0.292,-0.741C0.36,-0.741 0.414,-0.722 0.455,-0.686C0.496,-0.65 0.517,-0.601 0.517,-0.541C0.517,-0.498 0.506,-0.459 0.486,-0.426C0.465,-0.392 0.426,-0.352 0.37,-0.304L0.333,-0.272C0.256,-0.207 0.211,-0.144 0.199,-0.084L0.513,-0.084L0.513,-0L0.083,-0Z" style="fill-rule:nonzero;"/>
                            </g>
                        </g>
                    </g>
                    <g id="path12040" transform="matrix(1,0,0,1,1137.82,73.6934)">
                        <path d="M760.669,565.33L795.209,586.358" style="fill:none;stroke:black;stroke-width:0.8px;"/>
                    </g>
                    <g id="path5103" transform="matrix(1,0,0,1,1137.82,73.6934)">
                        <path d="M857.417,380.011L819.462,402.071" style="fill:none;stroke:black;stroke-width:0.8px;"/>
                    </g>
                    <g transform="matrix(1,0,0,1,1973.83,512.282)">
                        <g id="text5796-9">
                            <g transform="matrix(23.04,0,0,23.04,0,0)">
                                <path d="M0.376,-0L0.376,-0.205L0.051,-0.205L0.051,-0.277L0.376,-0.723L0.467,-0.723L0.467,-0.283L0.563,-0.283L0.563,-0.205L0.467,-0.205L0.467,-0L0.376,-0ZM0.146,-0.283L0.383,-0.283L0.383,-0.604L0.146,-0.283Z" style="fill-rule:nonzero;"/>
                            </g>
                        </g>
                    </g>
                    <g id="path5132" transform="matrix(1,0,0,1,1137.82,73.6934)">
                        <path d="M851.912,472.773L852.055,385.724" style="fill:none;fill-rule:nonzero;stroke:black;stroke-width:0.8px;"/>
                    </g>
                    <g id="path5696" transform="matrix(1,0,0,1,1137.82,73.6934)">
                        <path d="M817.789,493.854L759.177,527.507" style="fill:none;stroke:black;stroke-width:0.8px;stroke-dasharray:8,8;"/>
                    </g>
                    <g id="path4938" transform="matrix(1,0,0,1,1137.82,73.6934)">
                        <path d="M817.605,403.039L817.605,493.96L856.883,516.638" style="fill:none;fill-rule:nonzero;stroke:black;stroke-width:0.8px;stroke-dasharray:8,8;"/>
                    </g>
                    <g id="text7260" transform="matrix(0.866025,0.5,-0.5,0.866025,1137.82,73.6934)">
                        <g transform="matrix(1,0,0,1,831.639,99.3367)">
                            <g transform="matrix(12,0,0,12,-23.8682,0)">
                                <path d="M0.163,-0.694L0.163,-0.367C0.199,-0.407 0.227,-0.432 0.249,-0.444C0.27,-0.455 0.291,-0.46 0.312,-0.46C0.337,-0.46 0.359,-0.453 0.377,-0.439C0.396,-0.425 0.409,-0.403 0.418,-0.374C0.424,-0.353 0.427,-0.315 0.427,-0.259L0.427,-0.101C0.427,-0.073 0.43,-0.053 0.434,-0.043C0.437,-0.035 0.443,-0.029 0.451,-0.024C0.458,-0.02 0.473,-0.018 0.494,-0.018L0.494,-0L0.274,-0L0.274,-0.018L0.284,-0.018C0.305,-0.018 0.319,-0.021 0.328,-0.027C0.336,-0.033 0.341,-0.043 0.345,-0.055C0.346,-0.06 0.346,-0.076 0.346,-0.101L0.346,-0.259C0.346,-0.308 0.344,-0.34 0.339,-0.355C0.334,-0.371 0.326,-0.382 0.314,-0.39C0.303,-0.398 0.29,-0.401 0.274,-0.401C0.258,-0.401 0.242,-0.397 0.225,-0.389C0.207,-0.38 0.187,-0.363 0.163,-0.337L0.163,-0.101C0.163,-0.07 0.164,-0.051 0.168,-0.044C0.171,-0.036 0.177,-0.03 0.187,-0.025C0.196,-0.02 0.212,-0.018 0.235,-0.018L0.235,-0L0.013,-0L0.013,-0.018C0.033,-0.018 0.049,-0.021 0.06,-0.027C0.067,-0.03 0.072,-0.036 0.076,-0.045C0.08,-0.055 0.082,-0.073 0.082,-0.101L0.082,-0.506C0.082,-0.557 0.08,-0.588 0.078,-0.6C0.075,-0.612 0.072,-0.62 0.067,-0.624C0.062,-0.628 0.055,-0.63 0.046,-0.63C0.04,-0.63 0.028,-0.628 0.013,-0.623L0.006,-0.64L0.14,-0.694L0.163,-0.694Z" style="fill:rgb(102,102,102);fill-rule:nonzero;"/>
                            </g>
                            <g transform="matrix(12,0,0,12,-17.9244,0)">
                                <path d="M0.285,-0.064C0.239,-0.029 0.21,-0.008 0.198,-0.003C0.181,0.005 0.162,0.009 0.142,0.009C0.111,0.009 0.086,-0.001 0.066,-0.022C0.046,-0.044 0.036,-0.071 0.036,-0.106C0.036,-0.128 0.041,-0.147 0.05,-0.163C0.064,-0.185 0.087,-0.206 0.12,-0.225C0.153,-0.245 0.208,-0.268 0.285,-0.296L0.285,-0.314C0.285,-0.359 0.278,-0.389 0.263,-0.406C0.249,-0.422 0.229,-0.431 0.202,-0.431C0.181,-0.431 0.165,-0.425 0.153,-0.414C0.14,-0.403 0.134,-0.39 0.134,-0.376L0.135,-0.348C0.135,-0.333 0.131,-0.321 0.124,-0.313C0.116,-0.305 0.106,-0.301 0.094,-0.301C0.082,-0.301 0.072,-0.305 0.064,-0.313C0.057,-0.322 0.053,-0.333 0.053,-0.348C0.053,-0.376 0.067,-0.402 0.096,-0.425C0.124,-0.449 0.165,-0.46 0.216,-0.46C0.256,-0.46 0.289,-0.454 0.314,-0.44C0.333,-0.43 0.347,-0.415 0.356,-0.393C0.362,-0.379 0.365,-0.35 0.365,-0.307L0.365,-0.155C0.365,-0.113 0.366,-0.087 0.368,-0.077C0.369,-0.067 0.372,-0.061 0.376,-0.058C0.379,-0.054 0.384,-0.053 0.389,-0.053C0.394,-0.053 0.398,-0.054 0.402,-0.056C0.409,-0.06 0.422,-0.072 0.442,-0.092L0.442,-0.064C0.405,-0.016 0.371,0.009 0.337,0.009C0.321,0.009 0.309,0.003 0.299,-0.008C0.29,-0.019 0.285,-0.038 0.285,-0.064ZM0.285,-0.096L0.285,-0.267C0.236,-0.247 0.204,-0.233 0.189,-0.225C0.164,-0.211 0.145,-0.196 0.134,-0.18C0.123,-0.165 0.118,-0.147 0.118,-0.129C0.118,-0.105 0.125,-0.086 0.139,-0.071C0.153,-0.055 0.169,-0.047 0.187,-0.047C0.212,-0.047 0.244,-0.064 0.285,-0.096Z" style="fill:rgb(102,102,102);fill-rule:nonzero;"/>
                            </g>
                            <g transform="matrix(12,0,0,12,-12.6545,0)">
                                <path d="M0.185,-0.694L0.185,-0.101C0.185,-0.073 0.187,-0.055 0.191,-0.045C0.195,-0.036 0.201,-0.029 0.21,-0.025C0.218,-0.02 0.234,-0.018 0.257,-0.018L0.257,-0L0.038,-0L0.038,-0.018C0.059,-0.018 0.073,-0.02 0.08,-0.024C0.088,-0.028 0.093,-0.035 0.098,-0.045C0.102,-0.055 0.104,-0.073 0.104,-0.101L0.104,-0.507C0.104,-0.558 0.103,-0.589 0.101,-0.6C0.098,-0.612 0.095,-0.62 0.09,-0.624C0.085,-0.628 0.078,-0.63 0.07,-0.63C0.062,-0.63 0.051,-0.628 0.038,-0.623L0.03,-0.64L0.163,-0.694L0.185,-0.694Z" style="fill:rgb(102,102,102);fill-rule:nonzero;"/>
                            </g>
                            <g transform="matrix(12,0,0,12,-9.37676,0)">
                                <path d="M0.206,-0.412L0.206,-0.118C0.206,-0.076 0.211,-0.05 0.22,-0.039C0.232,-0.025 0.248,-0.018 0.268,-0.018L0.309,-0.018L0.309,-0L0.042,-0L0.042,-0.018L0.062,-0.018C0.075,-0.018 0.086,-0.021 0.097,-0.027C0.108,-0.034 0.115,-0.043 0.119,-0.054C0.123,-0.065 0.125,-0.086 0.125,-0.118L0.125,-0.412L0.039,-0.412L0.039,-0.447L0.125,-0.447L0.125,-0.477C0.125,-0.521 0.133,-0.559 0.147,-0.59C0.161,-0.621 0.183,-0.646 0.213,-0.665C0.242,-0.684 0.275,-0.693 0.312,-0.693C0.346,-0.693 0.378,-0.682 0.406,-0.66C0.425,-0.646 0.435,-0.629 0.435,-0.611C0.435,-0.601 0.43,-0.592 0.422,-0.583C0.413,-0.575 0.404,-0.57 0.395,-0.57C0.387,-0.57 0.379,-0.573 0.371,-0.578C0.363,-0.584 0.352,-0.595 0.34,-0.613C0.328,-0.631 0.317,-0.643 0.307,-0.649C0.297,-0.655 0.286,-0.658 0.273,-0.658C0.258,-0.658 0.246,-0.654 0.235,-0.646C0.225,-0.638 0.217,-0.626 0.213,-0.609C0.208,-0.592 0.206,-0.549 0.206,-0.479L0.206,-0.447L0.321,-0.447L0.321,-0.412L0.206,-0.412Z" style="fill:rgb(102,102,102);fill-rule:nonzero;"/>
                            </g>
                            <g transform="matrix(12,0,0,12,-2.49316,0)">
                                <path d="M0.411,-0.17C0.399,-0.111 0.375,-0.066 0.34,-0.034C0.305,-0.002 0.266,0.014 0.224,0.014C0.173,0.014 0.129,-0.008 0.091,-0.05C0.053,-0.093 0.034,-0.151 0.034,-0.223C0.034,-0.293 0.055,-0.351 0.097,-0.395C0.139,-0.438 0.189,-0.46 0.248,-0.46C0.292,-0.46 0.328,-0.449 0.356,-0.426C0.384,-0.402 0.398,-0.378 0.398,-0.353C0.398,-0.341 0.394,-0.331 0.386,-0.323C0.378,-0.315 0.367,-0.312 0.353,-0.312C0.334,-0.312 0.319,-0.318 0.31,-0.33C0.304,-0.337 0.3,-0.35 0.299,-0.369C0.297,-0.388 0.29,-0.403 0.279,-0.413C0.267,-0.423 0.252,-0.428 0.231,-0.428C0.199,-0.428 0.173,-0.416 0.153,-0.392C0.126,-0.36 0.113,-0.318 0.113,-0.265C0.113,-0.212 0.126,-0.165 0.153,-0.124C0.179,-0.083 0.214,-0.063 0.259,-0.063C0.291,-0.063 0.319,-0.073 0.345,-0.095C0.363,-0.11 0.38,-0.137 0.397,-0.177L0.411,-0.17Z" style="fill:rgb(102,102,102);fill-rule:nonzero;"/>
                            </g>
                            <g transform="matrix(12,0,0,12,2.77676,0)">
                                <path d="M0.145,-0.694C0.159,-0.694 0.17,-0.69 0.18,-0.68C0.19,-0.67 0.194,-0.659 0.194,-0.645C0.194,-0.631 0.19,-0.62 0.18,-0.61C0.17,-0.6 0.159,-0.595 0.145,-0.595C0.131,-0.595 0.12,-0.6 0.11,-0.61C0.1,-0.62 0.095,-0.631 0.095,-0.645C0.095,-0.659 0.1,-0.67 0.11,-0.68C0.119,-0.69 0.131,-0.694 0.145,-0.694ZM0.186,-0.46L0.186,-0.101C0.186,-0.073 0.188,-0.054 0.192,-0.045C0.196,-0.036 0.202,-0.029 0.21,-0.024C0.218,-0.02 0.232,-0.018 0.253,-0.018L0.253,-0L0.036,-0L0.036,-0.018C0.058,-0.018 0.073,-0.02 0.08,-0.024C0.088,-0.028 0.094,-0.035 0.098,-0.045C0.102,-0.055 0.104,-0.073 0.104,-0.101L0.104,-0.273C0.104,-0.322 0.103,-0.353 0.1,-0.368C0.098,-0.378 0.094,-0.385 0.089,-0.389C0.084,-0.393 0.078,-0.396 0.069,-0.396C0.06,-0.396 0.049,-0.393 0.036,-0.388L0.029,-0.406L0.164,-0.46L0.186,-0.46Z" style="fill:rgb(102,102,102);fill-rule:nonzero;"/>
                            </g>
                            <g transform="matrix(12,0,0,12,6.05449,0)">
                                <path d="M0.162,-0.46L0.162,-0.36C0.2,-0.427 0.238,-0.46 0.277,-0.46C0.295,-0.46 0.31,-0.455 0.322,-0.444C0.333,-0.433 0.339,-0.421 0.339,-0.406C0.339,-0.394 0.335,-0.383 0.327,-0.374C0.318,-0.365 0.308,-0.361 0.296,-0.361C0.285,-0.361 0.272,-0.366 0.258,-0.378C0.244,-0.389 0.233,-0.395 0.227,-0.395C0.221,-0.395 0.214,-0.391 0.208,-0.385C0.193,-0.371 0.178,-0.349 0.162,-0.319L0.162,-0.104C0.162,-0.08 0.165,-0.061 0.171,-0.048C0.176,-0.04 0.183,-0.032 0.194,-0.026C0.205,-0.021 0.22,-0.018 0.24,-0.018L0.24,-0L0.011,-0L0.011,-0.018C0.034,-0.018 0.051,-0.021 0.062,-0.028C0.07,-0.034 0.076,-0.042 0.079,-0.053C0.081,-0.059 0.082,-0.075 0.082,-0.101L0.082,-0.274C0.082,-0.326 0.08,-0.357 0.078,-0.367C0.076,-0.377 0.072,-0.384 0.067,-0.389C0.061,-0.393 0.054,-0.396 0.045,-0.396C0.035,-0.396 0.024,-0.393 0.011,-0.388L0.006,-0.406L0.142,-0.46L0.162,-0.46Z" style="fill:rgb(102,102,102);fill-rule:nonzero;"/>
                            </g>
                            <g transform="matrix(12,0,0,12,9.99434,0)">
                                <path d="M0.411,-0.17C0.399,-0.111 0.375,-0.066 0.34,-0.034C0.305,-0.002 0.266,0.014 0.224,0.014C0.173,0.014 0.129,-0.008 0.091,-0.05C0.053,-0.093 0.034,-0.151 0.034,-0.223C0.034,-0.293 0.055,-0.351 0.097,-0.395C0.139,-0.438 0.189,-0.46 0.248,-0.46C0.292,-0.46 0.328,-0.449 0.356,-0.426C0.384,-0.402 0.398,-0.378 0.398,-0.353C0.398,-0.341 0.394,-0.331 0.386,-0.323C0.378,-0.315 0.367,-0.312 0.353,-0.312C0.334,-0.312 0.319,-0.318 0.31,-0.33C0.304,-0.337 0.3,-0.35 0.299,-0.369C0.297,-0.388 0.29,-0.403 0.279,-0.413C0.267,-0.423 0.252,-0.428 0.231,-0.428C0.199,-0.428 0.173,-0.416 0.153,-0.392C0.126,-0.36 0.113,-0.318 0.113,-0.265C0.113,-0.212 0.126,-0.165 0.153,-0.124C0.179,-0.083 0.214,-0.063 0.259,-0.063C0.291,-0.063 0.319,-0.073 0.345,-0.095C0.363,-0.11 0.38,-0.137 0.397,-0.177L0.411,-0.17Z" style="fill:rgb(102,102,102);fill-rule:nonzero;"/>
                            </g>
                            <g transform="matrix(12,0,0,12,15.2643,0)">
                                <path d="M0.185,-0.694L0.185,-0.101C0.185,-0.073 0.187,-0.055 0.191,-0.045C0.195,-0.036 0.201,-0.029 0.21,-0.025C0.218,-0.02 0.234,-0.018 0.257,-0.018L0.257,-0L0.038,-0L0.038,-0.018C0.059,-0.018 0.073,-0.02 0.08,-0.024C0.088,-0.028 0.093,-0.035 0.098,-0.045C0.102,-0.055 0.104,-0.073 0.104,-0.101L0.104,-0.507C0.104,-0.558 0.103,-0.589 0.101,-0.6C0.098,-0.612 0.095,-0.62 0.09,-0.624C0.085,-0.628 0.078,-0.63 0.07,-0.63C0.062,-0.63 0.051,-0.628 0.038,-0.623L0.03,-0.64L0.163,-0.694L0.185,-0.694Z" style="fill:rgb(102,102,102);fill-rule:nonzero;"/>
                            </g>
                            <g transform="matrix(12,0,0,12,18.542,0)">
                                <path d="M0.106,-0.279C0.106,-0.212 0.122,-0.16 0.155,-0.123C0.187,-0.085 0.226,-0.066 0.27,-0.066C0.299,-0.066 0.324,-0.074 0.346,-0.09C0.368,-0.106 0.386,-0.134 0.4,-0.173L0.416,-0.163C0.409,-0.118 0.389,-0.078 0.356,-0.041C0.323,-0.005 0.282,0.014 0.232,0.014C0.179,0.014 0.133,-0.007 0.094,-0.049C0.056,-0.091 0.037,-0.147 0.037,-0.218C0.037,-0.294 0.057,-0.354 0.096,-0.397C0.135,-0.44 0.184,-0.461 0.244,-0.461C0.294,-0.461 0.335,-0.444 0.367,-0.411C0.399,-0.378 0.416,-0.334 0.416,-0.279L0.106,-0.279ZM0.106,-0.307L0.313,-0.307C0.312,-0.336 0.308,-0.356 0.303,-0.368C0.295,-0.386 0.283,-0.4 0.267,-0.411C0.251,-0.421 0.234,-0.426 0.216,-0.426C0.189,-0.426 0.165,-0.416 0.144,-0.395C0.122,-0.374 0.11,-0.345 0.106,-0.307Z" style="fill:rgb(102,102,102);fill-rule:nonzero;"/>
                            </g>
                        </g>
                        <g transform="matrix(1,0,0,1,831.639,110.137)">
                            <g transform="matrix(12,0,0,12,-14.8564,0)">
                                <path d="M0.411,-0.17C0.399,-0.111 0.375,-0.066 0.34,-0.034C0.305,-0.002 0.266,0.014 0.224,0.014C0.173,0.014 0.129,-0.008 0.091,-0.05C0.053,-0.093 0.034,-0.151 0.034,-0.223C0.034,-0.293 0.055,-0.351 0.097,-0.395C0.139,-0.438 0.189,-0.46 0.248,-0.46C0.292,-0.46 0.328,-0.449 0.356,-0.426C0.384,-0.402 0.398,-0.378 0.398,-0.353C0.398,-0.341 0.394,-0.331 0.386,-0.323C0.378,-0.315 0.367,-0.312 0.353,-0.312C0.334,-0.312 0.319,-0.318 0.31,-0.33C0.304,-0.337 0.3,-0.35 0.299,-0.369C0.297,-0.388 0.29,-0.403 0.279,-0.413C0.267,-0.423 0.252,-0.428 0.231,-0.428C0.199,-0.428 0.173,-0.416 0.153,-0.392C0.126,-0.36 0.113,-0.318 0.113,-0.265C0.113,-0.212 0.126,-0.165 0.153,-0.124C0.179,-0.083 0.214,-0.063 0.259,-0.063C0.291,-0.063 0.319,-0.073 0.345,-0.095C0.363,-0.11 0.38,-0.137 0.397,-0.177L0.411,-0.17Z" style="fill:rgb(102,102,102);fill-rule:nonzero;"/>
                            </g>
                            <g transform="matrix(12,0,0,12,-9.58652,0)">
                                <path d="M0.423,-0.447L0.423,-0.176C0.423,-0.125 0.425,-0.093 0.427,-0.081C0.429,-0.07 0.433,-0.062 0.439,-0.057C0.444,-0.053 0.45,-0.05 0.458,-0.05C0.468,-0.05 0.479,-0.053 0.492,-0.059L0.499,-0.042L0.365,0.014L0.343,0.014L0.343,-0.081C0.304,-0.039 0.275,-0.013 0.255,-0.002C0.235,0.008 0.213,0.014 0.191,0.014C0.166,0.014 0.144,0.006 0.126,-0.008C0.107,-0.023 0.095,-0.041 0.087,-0.064C0.08,-0.087 0.077,-0.119 0.077,-0.161L0.077,-0.36C0.077,-0.382 0.074,-0.396 0.07,-0.404C0.065,-0.412 0.059,-0.419 0.05,-0.423C0.041,-0.427 0.024,-0.43 0.001,-0.429L0.001,-0.447L0.158,-0.447L0.158,-0.148C0.158,-0.106 0.165,-0.079 0.179,-0.066C0.194,-0.053 0.211,-0.046 0.232,-0.046C0.246,-0.046 0.262,-0.051 0.28,-0.06C0.297,-0.068 0.318,-0.085 0.343,-0.11L0.343,-0.363C0.343,-0.389 0.338,-0.406 0.329,-0.415C0.32,-0.424 0.3,-0.429 0.271,-0.429L0.271,-0.447L0.423,-0.447Z" style="fill:rgb(102,102,102);fill-rule:nonzero;"/>
                            </g>
                            <g transform="matrix(12,0,0,12,-3.64277,0)">
                                <path d="M0.161,-0.594L0.161,-0.447L0.266,-0.447L0.266,-0.413L0.161,-0.413L0.161,-0.123C0.161,-0.094 0.165,-0.075 0.174,-0.064C0.182,-0.054 0.193,-0.049 0.206,-0.049C0.216,-0.049 0.227,-0.053 0.237,-0.059C0.247,-0.066 0.255,-0.076 0.26,-0.089L0.279,-0.089C0.268,-0.057 0.252,-0.033 0.231,-0.017C0.21,-0.001 0.189,0.007 0.167,0.007C0.152,0.007 0.137,0.003 0.123,-0.005C0.108,-0.013 0.098,-0.025 0.091,-0.041C0.084,-0.056 0.081,-0.08 0.081,-0.112L0.081,-0.413L0.01,-0.413L0.01,-0.429C0.028,-0.436 0.046,-0.448 0.065,-0.466C0.083,-0.483 0.1,-0.503 0.115,-0.526C0.122,-0.539 0.133,-0.561 0.146,-0.594L0.161,-0.594Z" style="fill:rgb(102,102,102);fill-rule:nonzero;"/>
                            </g>
                            <g transform="matrix(12,0,0,12,-0.365039,0)">
                                <path d="M0.25,-0.46C0.318,-0.46 0.372,-0.435 0.413,-0.383C0.448,-0.339 0.465,-0.289 0.465,-0.232C0.465,-0.192 0.456,-0.151 0.437,-0.11C0.417,-0.069 0.391,-0.038 0.357,-0.018C0.323,0.003 0.286,0.014 0.245,0.014C0.177,0.014 0.124,-0.013 0.084,-0.067C0.05,-0.112 0.034,-0.163 0.034,-0.219C0.034,-0.26 0.044,-0.301 0.064,-0.342C0.085,-0.382 0.111,-0.412 0.145,-0.431C0.178,-0.451 0.213,-0.46 0.25,-0.46ZM0.235,-0.429C0.218,-0.429 0.2,-0.424 0.183,-0.413C0.165,-0.403 0.151,-0.385 0.141,-0.359C0.13,-0.334 0.125,-0.301 0.125,-0.26C0.125,-0.195 0.137,-0.139 0.163,-0.092C0.189,-0.045 0.223,-0.021 0.266,-0.021C0.297,-0.021 0.323,-0.034 0.344,-0.06C0.364,-0.086 0.375,-0.131 0.375,-0.194C0.375,-0.274 0.357,-0.336 0.323,-0.382C0.3,-0.413 0.271,-0.429 0.235,-0.429Z" style="fill:rgb(102,102,102);fill-rule:nonzero;"/>
                            </g>
                            <g transform="matrix(12,0,0,12,5.57871,0)">
                                <path d="M0.423,-0.447L0.423,-0.176C0.423,-0.125 0.425,-0.093 0.427,-0.081C0.429,-0.07 0.433,-0.062 0.439,-0.057C0.444,-0.053 0.45,-0.05 0.458,-0.05C0.468,-0.05 0.479,-0.053 0.492,-0.059L0.499,-0.042L0.365,0.014L0.343,0.014L0.343,-0.081C0.304,-0.039 0.275,-0.013 0.255,-0.002C0.235,0.008 0.213,0.014 0.191,0.014C0.166,0.014 0.144,0.006 0.126,-0.008C0.107,-0.023 0.095,-0.041 0.087,-0.064C0.08,-0.087 0.077,-0.119 0.077,-0.161L0.077,-0.36C0.077,-0.382 0.074,-0.396 0.07,-0.404C0.065,-0.412 0.059,-0.419 0.05,-0.423C0.041,-0.427 0.024,-0.43 0.001,-0.429L0.001,-0.447L0.158,-0.447L0.158,-0.148C0.158,-0.106 0.165,-0.079 0.179,-0.066C0.194,-0.053 0.211,-0.046 0.232,-0.046C0.246,-0.046 0.262,-0.051 0.28,-0.06C0.297,-0.068 0.318,-0.085 0.343,-0.11L0.343,-0.363C0.343,-0.389 0.338,-0.406 0.329,-0.415C0.32,-0.424 0.3,-0.429 0.271,-0.429L0.271,-0.447L0.423,-0.447Z" style="fill:rgb(102,102,102);fill-rule:nonzero;"/>
                            </g>
                            <g transform="matrix(12,0,0,12,11.5225,0)">
                                <path d="M0.161,-0.594L0.161,-0.447L0.266,-0.447L0.266,-0.413L0.161,-0.413L0.161,-0.123C0.161,-0.094 0.165,-0.075 0.174,-0.064C0.182,-0.054 0.193,-0.049 0.206,-0.049C0.216,-0.049 0.227,-0.053 0.237,-0.059C0.247,-0.066 0.255,-0.076 0.26,-0.089L0.279,-0.089C0.268,-0.057 0.252,-0.033 0.231,-0.017C0.21,-0.001 0.189,0.007 0.167,0.007C0.152,0.007 0.137,0.003 0.123,-0.005C0.108,-0.013 0.098,-0.025 0.091,-0.041C0.084,-0.056 0.081,-0.08 0.081,-0.112L0.081,-0.413L0.01,-0.413L0.01,-0.429C0.028,-0.436 0.046,-0.448 0.065,-0.466C0.083,-0.483 0.1,-0.503 0.115,-0.526C0.122,-0.539 0.133,-0.561 0.146,-0.594L0.161,-0.594Z" style="fill:rgb(102,102,102);fill-rule:nonzero;"/>
                            </g>
                        </g>
                    </g>
                </g>
            </g>
        </g>
    </g>
    <defs>
        <linearGradient id="_Linear2" x1="0" y1="0" x2="1" y2="0" gradientUnits="userSpaceOnUse" gradientTransform="matrix(39.278,-90.7086,90.7086,39.278,680.132,505.086)"><stop offset="0" style="stop-color:rgb(236,236,236);stop-opacity:1"/><stop offset="0.5" style="stop-color:rgb(128,128,128);stop-opacity:1"/><stop offset="1" style="stop-color:rgb(230,230,230);stop-opacity:1"/></linearGradient>
    </defs>
</svg>
