<?xml version="1.0" encoding="UTF-8" standalone="no"?>
<!-- Created with Inkscape (http://www.inkscape.org/) -->

<svg
   xmlns:dc="http://purl.org/dc/elements/1.1/"
   xmlns:cc="http://creativecommons.org/ns#"
   xmlns:rdf="http://www.w3.org/1999/02/22-rdf-syntax-ns#"
   xmlns:svg="http://www.w3.org/2000/svg"
   xmlns="http://www.w3.org/2000/svg"
   xmlns:sodipodi="http://sodipodi.sourceforge.net/DTD/sodipodi-0.dtd"
   xmlns:inkscape="http://www.inkscape.org/namespaces/inkscape"
   version="1.1"
   id="svg1176"
   xml:space="preserve"
   width="255.82491"
   height="391.60336"
   viewBox="0 0 255.82491 391.60336"
   sodipodi:docname="C.svg"
   inkscape:version="0.92.2 5c3e80d, 2017-08-06"><metadata
     id="metadata1182"><rdf:RDF><cc:Work
         rdf:about=""><dc:format>image/svg+xml</dc:format><dc:type
           rdf:resource="http://purl.org/dc/dcmitype/StillImage" /><dc:title></dc:title></cc:Work></rdf:RDF></metadata><defs
     id="defs1180"><clipPath
       clipPathUnits="userSpaceOnUse"
       id="clipPath1194"><path
         d="M 18,40.08 H 594 V 774 H 18 Z"
         id="path1192"
         inkscape:connector-curvature="0" /></clipPath><clipPath
       clipPathUnits="userSpaceOnUse"
       id="clipPath1266"><path
         d="m 71.808,623.2243 h 9 v 12.92571 h -9 z"
         id="path1264"
         inkscape:connector-curvature="0" /></clipPath><clipPath
       clipPathUnits="userSpaceOnUse"
       id="clipPath1278"><path
         d="m 69,622 h 13 v 15 H 69 Z"
         id="path1276"
         inkscape:connector-curvature="0" /></clipPath><clipPath
       clipPathUnits="userSpaceOnUse"
       id="clipPath1288"><path
         d="M 18,40.08 H 594 V 774 H 18 Z"
         id="path1286"
         inkscape:connector-curvature="0" /></clipPath><clipPath
       clipPathUnits="userSpaceOnUse"
       id="clipPath1298"><path
         d="m 154.4138,490.8532 h 14.85 v 19.152 h -14.85 z"
         id="path1296"
         inkscape:connector-curvature="0" /></clipPath><clipPath
       clipPathUnits="userSpaceOnUse"
       id="clipPath1312"><path
         d="m 154,490 h 17 v 21 h -17 z"
         id="path1310"
         inkscape:connector-curvature="0" /></clipPath><clipPath
       clipPathUnits="userSpaceOnUse"
       id="clipPath1322"><path
         d="M 18,40.08 H 594 V 774 H 18 Z"
         id="path1320"
         inkscape:connector-curvature="0" /></clipPath><clipPath
       clipPathUnits="userSpaceOnUse"
       id="clipPath1380"><path
         d="m 139.812,753.786 h 10 v 12 h -10 z"
         id="path1378"
         inkscape:connector-curvature="0" /></clipPath><clipPath
       clipPathUnits="userSpaceOnUse"
       id="clipPath1394"><path
         d="m 138,753 h 13 v 13 h -13 z"
         id="path1392"
         inkscape:connector-curvature="0" /></clipPath><clipPath
       clipPathUnits="userSpaceOnUse"
       id="clipPath1404"><path
         d="M 18,40.08 H 594 V 774 H 18 Z"
         id="path1402"
         inkscape:connector-curvature="0" /></clipPath></defs><sodipodi:namedview
     pagecolor="#ffffff"
     bordercolor="#666666"
     borderopacity="1"
     objecttolerance="10"
     gridtolerance="10"
     guidetolerance="10"
     inkscape:pageopacity="0"
     inkscape:pageshadow="2"
     inkscape:window-width="1315"
     inkscape:window-height="896"
     id="namedview1178"
     showgrid="false"
     inkscape:zoom="1.8360415"
     inkscape:cx="127.91245"
     inkscape:cy="393.02598"
     inkscape:window-x="27"
     inkscape:window-y="254"
     inkscape:window-maximized="0"
     inkscape:current-layer="g1184" /><g
     id="g1184"
     inkscape:groupmode="layer"
     inkscape:label="C"
     transform="matrix(1.3333333,0,0,-1.3333333,-92.879998,1045.2833)"><g
       id="g1186" /><g
       id="g1188"><g
         id="g1190"
         clip-path="url(#clipPath1194)"><path
           d="m 126.12,514.6849 v 230.4 h 72.7776 v 0 c 0,-3.3297 -2.4369,-6.1579 -5.73,-6.65 l -23.646,-3.5339 v 0 l -19.387,-2.8974 c -5.7407,-0.858 -9.989,-5.7883 -9.989,-11.5929 v -90.5258 0 -90.5258 c 0,-5.8046 4.2483,-10.7349 9.989,-11.5929 l 19.387,-2.8974 v 0 l 23.646,-3.5339 c 3.2931,-0.4921 5.73,-3.3203 5.73,-6.65 v 0 0 z"
           style="fill:#e4e4e4;fill-opacity:1;fill-rule:nonzero;stroke:none"
           id="path1196"
           inkscape:connector-curvature="0" /><g
           id="g1198"
           transform="matrix(0.24,0,0,-0.24,18.12,773.88)"><path
             d="M 450,1079.98 V 119.9796 h 303.24 v 0 c 0,13.8736 -10.1539,25.6577 -23.8751,27.7084 L 630.84,162.4126 v 0 l -80.779,12.0725 c -23.9199,3.5749 -41.621,24.118 -41.621,48.3036 v 377.1909 0 377.1909 c 0,24.1855 17.7011,44.7285 41.621,48.3035 l 80.779,12.073 v 0 l 98.5249,14.724 c 13.7212,2.051 23.8751,13.835 23.8751,27.709 v 0 0 H 450"
             style="fill:none;stroke:#000000;stroke-width:4.19999981;stroke-linecap:round;stroke-linejoin:round;stroke-miterlimit:10;stroke-dasharray:none;stroke-opacity:1"
             id="path1200"
             inkscape:connector-curvature="0" /></g><g
           id="g1202"
           transform="matrix(0.24,0,0,-0.24,18.12,773.88)"><path
             d="M 438,1080 H 216"
             style="fill:none;stroke:#000000;stroke-width:2.0999999;stroke-linecap:round;stroke-linejoin:round;stroke-miterlimit:10;stroke-dasharray:none;stroke-opacity:1"
             id="path1204"
             inkscape:connector-curvature="0" /></g><g
           id="g1206"
           transform="matrix(0.24,0,0,-0.24,18.12,773.88)"><path
             d="M 438,120 H 216"
             style="fill:none;stroke:#000000;stroke-width:2.0999999;stroke-linecap:round;stroke-linejoin:round;stroke-miterlimit:10;stroke-dasharray:none;stroke-opacity:1"
             id="path1208"
             inkscape:connector-curvature="0" /></g><g
           id="g1210"
           transform="matrix(0.24,0,0,-0.24,18.12,773.88)"><path
             d="M 240,1080 V 120"
             style="fill:none;stroke:#000000;stroke-width:2.0999999;stroke-linecap:round;stroke-linejoin:round;stroke-miterlimit:10;stroke-dasharray:none;stroke-opacity:1"
             id="path1212"
             inkscape:connector-curvature="0" /></g><g
           id="g1214"
           transform="matrix(0.24,0,0,-0.24,18.12,773.88)"><path
             d="m 246,1056 v 1 1 h -1 v 1 1 l -1,1 v 0 1 l -1,1 v 0 1 1 l -1,1 v 0 1 1 1 h -1 v 1 1 1 0 1 1 l -1,1 v 0 1 1 1 0 1 1 -1 -1 0 -1 -1 -1 0 l -1,-1 v -1 -1 0 -1 -1 -1 h -1 v -1 -1 -1 0 l -1,-1 v -1 -1 0 l -1,-1 v -1 0 l -1,-1 v -1 -1 h -1 v -1 -1 0"
             style="fill:none;stroke:#000000;stroke-width:2.0999999;stroke-linecap:round;stroke-linejoin:round;stroke-miterlimit:10;stroke-dasharray:none;stroke-opacity:1"
             id="path1216"
             inkscape:connector-curvature="0" /></g><g
           id="g1218"
           transform="matrix(0.24,0,0,-0.24,18.12,773.88)"><path
             d="m 246,1056 v 1 1 h -1 v 1 1 l -1,1 v 0 1 l -1,1 v 0 1 1 l -1,1 v 0 1 1 1 h -1 v 1 1 1 0 1 1 l -1,1 v 0 1 1 1 0 1 1 -1 -1 0 -1 -1 -1 0 l -1,-1 v -1 -1 0 -1 -1 -1 h -1 v -1 -1 -1 0 l -1,-1 v -1 -1 0 l -1,-1 v -1 0 l -1,-1 v -1 -1 h -1 v -1 -1 0"
             style="fill:none;stroke:#000000;stroke-width:1;stroke-linecap:round;stroke-linejoin:round;stroke-miterlimit:10;stroke-dasharray:none;stroke-opacity:1"
             id="path1220"
             inkscape:connector-curvature="0" /></g><g
           id="g1222"
           transform="matrix(0.24,0,0,-0.24,18.12,773.88)"><path
             d="m 234,144 v -1 -1 h 1 v -1 -1 l 1,-1 v 0 -1 l 1,-1 v 0 -1 -1 l 1,-1 v 0 -1 -1 -1 h 1 v -1 -1 -1 0 -1 -1 l 1,-1 v 0 -1 -1 -1 0 -1 -1 1 1 0 1 1 1 0 l 1,1 v 1 1 0 1 1 1 h 1 v 1 1 1 0 l 1,1 v 1 1 0 l 1,1 v 1 0 l 1,1 v 1 1 h 1 v 1 1 0"
             style="fill:none;stroke:#000000;stroke-width:2.0999999;stroke-linecap:round;stroke-linejoin:round;stroke-miterlimit:10;stroke-dasharray:none;stroke-opacity:1"
             id="path1224"
             inkscape:connector-curvature="0" /></g><g
           id="g1226"
           transform="matrix(0.24,0,0,-0.24,18.12,773.88)"><path
             d="m 234,144 v -1 -1 h 1 v -1 -1 l 1,-1 v 0 -1 l 1,-1 v 0 -1 -1 l 1,-1 v 0 -1 -1 -1 h 1 v -1 -1 -1 0 -1 -1 l 1,-1 v 0 -1 -1 -1 0 -1 -1 1 1 0 1 1 1 0 l 1,1 v 1 1 0 1 1 1 h 1 v 1 1 1 0 l 1,1 v 1 1 0 l 1,1 v 1 0 l 1,1 v 1 1 h 1 v 1 1 0"
             style="fill:none;stroke:#000000;stroke-width:1;stroke-linecap:round;stroke-linejoin:round;stroke-miterlimit:10;stroke-dasharray:none;stroke-opacity:1"
             id="path1228"
             inkscape:connector-curvature="0" /></g><g
           id="g1230"
           transform="matrix(0.24,0,0,-0.24,18.12,773.88)"><path
             d="m 450,1092 v 72"
             style="fill:none;stroke:#000000;stroke-width:2.0999999;stroke-linecap:round;stroke-linejoin:round;stroke-miterlimit:10;stroke-dasharray:none;stroke-opacity:1"
             id="path1232"
             inkscape:connector-curvature="0" /></g><g
           id="g1234"
           transform="matrix(0.24,0,0,-0.24,18.12,773.88)"><path
             d="m 753,1092 v 72"
             style="fill:none;stroke:#000000;stroke-width:2.0999999;stroke-linecap:round;stroke-linejoin:round;stroke-miterlimit:10;stroke-dasharray:none;stroke-opacity:1"
             id="path1236"
             inkscape:connector-curvature="0" /></g><g
           id="g1238"
           transform="matrix(0.24,0,0,-0.24,18.12,773.88)"><path
             d="M 450,1140 H 753"
             style="fill:none;stroke:#000000;stroke-width:2.0999999;stroke-linecap:round;stroke-linejoin:round;stroke-miterlimit:10;stroke-dasharray:none;stroke-opacity:1"
             id="path1240"
             inkscape:connector-curvature="0" /></g><g
           id="g1242"
           transform="matrix(0.24,0,0,-0.24,18.12,773.88)"><path
             d="m 474,1146 h -1 -1 v -1 h -1 -1 l -1,-1 v 0 h -1 l -1,-1 v 0 h -1 -1 l -1,-1 v 0 h -1 -1 -1 v -1 h -1 -1 -1 v 0 h -1 l -1,-1 h -1 v 0 h -1 -1 -1 v 0 h -1 -1 1 1 v 0 h 1 1 1 v 0 l 1,-1 h 1 1 v 0 h 1 1 1 v -1 h 1 1 1 v 0 l 1,-1 h 1 1 v 0 l 1,-1 h 1 v 0 l 1,-1 h 1 1 v -1 h 1 1 v 0"
             style="fill:none;stroke:#000000;stroke-width:2.0999999;stroke-linecap:round;stroke-linejoin:round;stroke-miterlimit:10;stroke-dasharray:none;stroke-opacity:1"
             id="path1244"
             inkscape:connector-curvature="0" /></g><g
           id="g1246"
           transform="matrix(0.24,0,0,-0.24,18.12,773.88)"><path
             d="m 474,1146 h -1 -1 v -1 h -1 -1 l -1,-1 v 0 h -1 l -1,-1 v 0 h -1 -1 l -1,-1 v 0 h -1 -1 -1 v -1 h -1 -1 -1 v 0 h -1 l -1,-1 h -1 v 0 h -1 -1 -1 v 0 h -1 -1 1 1 v 0 h 1 1 1 v 0 l 1,-1 h 1 1 v 0 h 1 1 1 v -1 h 1 1 1 v 0 l 1,-1 h 1 1 v 0 l 1,-1 h 1 v 0 l 1,-1 h 1 1 v -1 h 1 1 v 0"
             style="fill:none;stroke:#000000;stroke-width:1;stroke-linecap:round;stroke-linejoin:round;stroke-miterlimit:10;stroke-dasharray:none;stroke-opacity:1"
             id="path1248"
             inkscape:connector-curvature="0" /></g><g
           id="g1250"
           transform="matrix(0.24,0,0,-0.24,18.12,773.88)"><path
             d="m 730,1134 v 0 h 1 l 1,1 v 0 h 1 l 1,1 h 1 v 0 l 1,1 h 1 v 0 h 1 l 1,1 h 1 v 0 h 1 1 l 1,1 v 0 h 1 1 1 v 0 h 1 l 1,1 h 1 v 0 h 1 1 1 v 0 h 1 -1 v 0 h -1 -1 -1 v 0 h -1 -1 l -1,1 v 0 h -1 -1 -1 v 0 l -1,1 h -1 -1 v 0 h -1 l -1,1 h -1 v 0 h -1 l -1,1 v 0 h -1 l -1,1 h -1 v 0 l -1,1 h -1 v 0 0"
             style="fill:none;stroke:#000000;stroke-width:2.0999999;stroke-linecap:round;stroke-linejoin:round;stroke-miterlimit:10;stroke-dasharray:none;stroke-opacity:1"
             id="path1252"
             inkscape:connector-curvature="0" /></g><g
           id="g1254"
           transform="matrix(0.24,0,0,-0.24,18.12,773.88)"><path
             d="m 730,1134 v 0 h 1 l 1,1 v 0 h 1 l 1,1 h 1 v 0 l 1,1 h 1 v 0 h 1 l 1,1 h 1 v 0 h 1 1 l 1,1 v 0 h 1 1 1 v 0 h 1 l 1,1 h 1 v 0 h 1 1 1 v 0 h 1 -1 v 0 h -1 -1 -1 v 0 h -1 -1 l -1,1 v 0 h -1 -1 -1 v 0 l -1,1 h -1 -1 v 0 h -1 l -1,1 h -1 v 0 h -1 l -1,1 v 0 h -1 l -1,1 h -1 v 0 l -1,1 h -1 v 0 0"
             style="fill:none;stroke:#000000;stroke-width:1;stroke-linecap:round;stroke-linejoin:round;stroke-miterlimit:10;stroke-dasharray:none;stroke-opacity:1"
             id="path1256"
             inkscape:connector-curvature="0" /></g><path
           d="m 69.66,636.9 h 12 v -13.92 h -12 z"
           style="fill:#ffffff;fill-opacity:1;fill-rule:nonzero;stroke:none"
           id="path1258"
           inkscape:connector-curvature="0" /></g></g><g
       id="g1272"><g
         id="g1274"
         clip-path="url(#clipPath1278)"><g
           id="g1280"
           transform="matrix(1,0,0,0.9942857,69.72,622.92)" /></g></g><g
       id="g1282"><g
         id="g1284"
         clip-path="url(#clipPath1288)"><path
           d="m 154.14,510.42 h 15.84 v -20.16 h -15.84 z"
           style="fill:#ffffff;fill-opacity:1;fill-rule:nonzero;stroke:none"
           id="path1290"
           inkscape:connector-curvature="0" /></g></g><g
       id="g1306"><g
         id="g1308"
         clip-path="url(#clipPath1312)"><g
           id="g1314"
           transform="matrix(0.99,0,0,1.008,154.2,490.2)" /></g></g><g
       id="g1324"
       transform="matrix(0.24,0,0,-0.24,18.12,773.88)"><path
         d="M 300,600 H 900"
         style="fill:none;stroke:#000000;stroke-width:3;stroke-linecap:round;stroke-linejoin:round;stroke-miterlimit:10;stroke-dasharray:72, 9, 18, 9;stroke-dashoffset:0;stroke-opacity:1"
         id="path1326"
         inkscape:connector-curvature="0" /></g><g
       id="g1328"
       transform="matrix(0.24,0,0,-0.24,18.12,773.88)"><path
         d="m 600,90 v 930"
         style="fill:none;stroke:#000000;stroke-width:3;stroke-linecap:round;stroke-linejoin:round;stroke-miterlimit:10;stroke-dasharray:72, 9, 18, 9;stroke-dashoffset:0;stroke-opacity:1"
         id="path1330"
         inkscape:connector-curvature="0" /></g><g
       id="g1344"
       transform="matrix(0.24,0,0,-0.24,18.12,773.88)"><path
         d="M 450,108 V 36"
         style="fill:none;stroke:#000000;stroke-width:2.0999999;stroke-linecap:round;stroke-linejoin:round;stroke-miterlimit:10;stroke-dasharray:none;stroke-opacity:1"
         id="path1346"
         inkscape:connector-curvature="0" /></g><g
       id="g1348"
       transform="matrix(0.24,0,0,-0.24,18.12,773.88)"><path
         d="M 600,78 V 36"
         style="fill:none;stroke:#000000;stroke-width:2.0999999;stroke-linecap:round;stroke-linejoin:round;stroke-miterlimit:10;stroke-dasharray:none;stroke-opacity:1"
         id="path1350"
         inkscape:connector-curvature="0" /></g><g
       id="g1352"
       transform="matrix(0.24,0,0,-0.24,18.12,773.88)"><path
         d="M 450,60 H 600"
         style="fill:none;stroke:#000000;stroke-width:2.0999999;stroke-linecap:round;stroke-linejoin:round;stroke-miterlimit:10;stroke-dasharray:none;stroke-opacity:1"
         id="path1354"
         inkscape:connector-curvature="0" /></g><g
       id="g1356"
       transform="matrix(0.24,0,0,-0.24,18.12,773.88)"><path
         d="m 474,66 h -1 -1 v -1 h -1 -1 l -1,-1 v 0 h -1 l -1,-1 v 0 h -1 -1 l -1,-1 v 0 h -1 -1 -1 v -1 h -1 -1 -1 v 0 h -1 l -1,-1 h -1 v 0 h -1 -1 -1 v 0 h -1 -1 1 1 v 0 h 1 1 1 v 0 l 1,-1 h 1 1 v 0 h 1 1 1 v -1 h 1 1 1 v 0 l 1,-1 h 1 1 v 0 l 1,-1 h 1 v 0 l 1,-1 h 1 1 v -1 h 1 1 v 0"
         style="fill:none;stroke:#000000;stroke-width:2.0999999;stroke-linecap:round;stroke-linejoin:round;stroke-miterlimit:10;stroke-dasharray:none;stroke-opacity:1"
         id="path1358"
         inkscape:connector-curvature="0" /></g><g
       id="g1360"
       transform="matrix(0.24,0,0,-0.24,18.12,773.88)"><path
         d="m 474,66 h -1 -1 v -1 h -1 -1 l -1,-1 v 0 h -1 l -1,-1 v 0 h -1 -1 l -1,-1 v 0 h -1 -1 -1 v -1 h -1 -1 -1 v 0 h -1 l -1,-1 h -1 v 0 h -1 -1 -1 v 0 h -1 -1 1 1 v 0 h 1 1 1 v 0 l 1,-1 h 1 1 v 0 h 1 1 1 v -1 h 1 1 1 v 0 l 1,-1 h 1 1 v 0 l 1,-1 h 1 v 0 l 1,-1 h 1 1 v -1 h 1 1 v 0"
         style="fill:none;stroke:#000000;stroke-width:1;stroke-linecap:round;stroke-linejoin:round;stroke-miterlimit:10;stroke-dasharray:none;stroke-opacity:1"
         id="path1362"
         inkscape:connector-curvature="0" /></g><g
       id="g1364"
       transform="matrix(0.24,0,0,-0.24,18.12,773.88)"><path
         d="m 576,54 h 1 1 v 1 h 1 1 l 1,1 v 0 h 1 l 1,1 v 0 h 1 1 l 1,1 v 0 h 1 1 1 v 1 h 1 1 1 v 0 h 1 1 l 1,1 v 0 h 1 1 1 v 0 h 1 1 -1 -1 v 0 h -1 -1 -1 v 0 h -1 l -1,1 h -1 v 0 h -1 -1 -1 v 1 h -1 -1 -1 v 0 l -1,1 h -1 -1 v 0 l -1,1 h -1 v 0 l -1,1 h -1 -1 v 1 h -1 -1 v 0"
         style="fill:none;stroke:#000000;stroke-width:2.0999999;stroke-linecap:round;stroke-linejoin:round;stroke-miterlimit:10;stroke-dasharray:none;stroke-opacity:1"
         id="path1366"
         inkscape:connector-curvature="0" /></g><g
       id="g1368"
       transform="matrix(0.24,0,0,-0.24,18.12,773.88)"><path
         d="m 576,54 h 1 1 v 1 h 1 1 l 1,1 v 0 h 1 l 1,1 v 0 h 1 1 l 1,1 v 0 h 1 1 1 v 1 h 1 1 1 v 0 h 1 1 l 1,1 v 0 h 1 1 1 v 0 h 1 1 -1 -1 v 0 h -1 -1 -1 v 0 h -1 l -1,1 h -1 v 0 h -1 -1 -1 v 1 h -1 -1 -1 v 0 l -1,1 h -1 -1 v 0 l -1,1 h -1 v 0 l -1,1 h -1 -1 v 1 h -1 -1 v 0"
         style="fill:none;stroke:#000000;stroke-width:1;stroke-linecap:round;stroke-linejoin:round;stroke-miterlimit:10;stroke-dasharray:none;stroke-opacity:1"
         id="path1370"
         inkscape:connector-curvature="0" /></g><path
       d="m 138.06,765.54 h 12 v -12 h -12 z"
       style="fill:#ffffff;fill-opacity:1;fill-rule:nonzero;stroke:none"
       id="path1372"
       inkscape:connector-curvature="0" /><g
       id="g1388"><g
         id="g1390"
         clip-path="url(#clipPath1394)"><g
           id="g1396"
           transform="translate(138.12,753.48)" /></g></g><g
       id="g1398"><g
         id="g1400"
         clip-path="url(#clipPath1404)"><path
           d="m 163.56,629.88 v 0 c 0,0.7953 -0.6447,1.44 -1.44,1.44 -0.7953,0 -1.44,-0.6447 -1.44,-1.44 0,-0.7953 0.6447,-1.44 1.44,-1.44 0.7953,0 1.44,0.6447 1.44,1.44"
           style="fill:#000000;fill-opacity:1;fill-rule:nonzero;stroke:none"
           id="path1406"
           inkscape:connector-curvature="0" /></g></g><text
       xml:space="preserve"
       style="font-style:normal;font-weight:normal;font-size:14px;line-height:1.25;font-family:sans-serif;letter-spacing:0px;word-spacing:0px;fill:#000000;fill-opacity:1;stroke:none;stroke-width:0.75"
       x="72.965897"
       y="-626.05933"
       id="text337"
       transform="scale(1,-1)"><tspan
         sodipodi:role="line"
         id="tspan335"
         x="72.965897"
         y="-626.05933"
         style="stroke-width:0.75">$d$</tspan></text>
<text
       xml:space="preserve"
       style="font-style:normal;font-weight:normal;font-size:14px;line-height:1.25;font-family:sans-serif;letter-spacing:0px;word-spacing:0px;fill:#000000;fill-opacity:1;stroke:none;stroke-width:0.75"
       x="157.28798"
       y="-497.98624"
       id="text341"
       transform="scale(1,-1)"><tspan
         sodipodi:role="line"
         id="tspan339"
         x="157.28798"
         y="-497.98624"
         style="stroke-width:0.75">$b_f$</tspan></text>
<text
       xml:space="preserve"
       style="font-style:normal;font-weight:normal;font-size:14px;line-height:1.25;font-family:sans-serif;letter-spacing:0px;word-spacing:0px;fill:#000000;fill-opacity:1;stroke:none;stroke-width:0.75"
       x="235.27185"
       y="-625.46973"
       id="text345"
       transform="scale(1,-1)"><tspan
         sodipodi:role="line"
         id="tspan343"
         x="235.27185"
         y="-625.46973"
         style="stroke-width:0.75">$X$</tspan></text>
<text
       xml:space="preserve"
       style="font-style:normal;font-weight:normal;font-size:14px;line-height:1.25;font-family:sans-serif;letter-spacing:0px;word-spacing:0px;fill:#000000;fill-opacity:1;stroke:none;stroke-width:0.75"
       x="157.80942"
       y="-773.32581"
       id="text349"
       transform="scale(1,-1)"><tspan
         sodipodi:role="line"
         id="tspan347"
         x="157.80942"
         y="-773.32581"
         style="stroke-width:0.75">$Y$</tspan></text>
<text
       xml:space="preserve"
       style="font-style:normal;font-weight:normal;font-size:14px;line-height:1.25;font-family:sans-serif;letter-spacing:0px;word-spacing:0px;fill:#000000;fill-opacity:1;stroke:none;stroke-width:0.75"
       x="140.98398"
       y="-757.48938"
       id="text1450"
       transform="scale(1,-1)"><tspan
         sodipodi:role="line"
         id="tspan1448"
         x="140.98398"
         y="-757.48938"
         style="stroke-width:0.75">$\bar{x}$</tspan></text>
</g></svg>