<?xml version="1.0" encoding="UTF-8" standalone="no"?>
<!DOCTYPE svg PUBLIC "-//W3C//DTD SVG 1.1//EN" "http://www.w3.org/Graphics/SVG/1.1/DTD/svg11.dtd">
<svg width="100%" height="100%" viewBox="0 0 241 81" version="1.1" xmlns="http://www.w3.org/2000/svg" xmlns:xlink="http://www.w3.org/1999/xlink" xml:space="preserve" xmlns:serif="http://www.serif.com/" style="fill-rule:evenodd;clip-rule:evenodd;stroke-linecap:round;stroke-linejoin:round;stroke-miterlimit:1.5;">
    <g transform="matrix(1,0,0,1,-253,-215)">
        <g id="cantilevered-beam-ex0" transform="matrix(1.33333,0,0,0.666667,-626.656,212.385)">
            <rect x="660" y="5" width="180" height="120" style="fill:none;"/>
            <clipPath id="_clip1">
                <rect x="660" y="5" width="180" height="120"/>
            </clipPath>
            <g clip-path="url(#_clip1)">
                <g>
                    <g id="rect8143" transform="matrix(-2.35192,1.90779e-16,9.53897e-17,-3.146,-795.907,-1286.75)">
                        <rect x="-690.78" y="-434.643" width="66.967" height="9.738" style="fill:rgb(230,230,230);stroke:black;stroke-width:0.37px;"/>
                    </g>
                    <g transform="matrix(1.5,0,0,4,663.75,-662)">
                        <g transform="matrix(0.5,-0,-0,0.375,-2.67204,166.481)">
                            <path d="M227.55,23.954L225.344,30.719L223.05,23.983L227.55,23.954Z" style="fill:rgb(225,32,32);"/>
                            <path d="M225.16,2.704C225.16,2.704 225.255,17.178 225.309,25.319" style="fill:none;stroke:rgb(225,32,32);stroke-width:1.5px;"/>
                        </g>
                    </g>
                    <g transform="matrix(2.25,0,0,4.5,586.5,-673)">
                        <circle cx="41" cy="164" r="1"/>
                    </g>
                    <g transform="matrix(2.25,0,0,4.5,736.5,-673.4)">
                        <circle cx="41" cy="164" r="1"/>
                    </g>
                </g>
                <g transform="matrix(1,0,0,3.79286,-2.92083,-114.679)">
                    <g id="rect8147" transform="matrix(1.19071e-17,0.0878902,-1.5,4.15135e-17,1345.65,-17.6307)">
                        <rect x="604.609" y="442.469" width="269.983" height="10.369" style="fill:url(#_Linear2);"/>
                    </g>
                    <g transform="matrix(1.5,1.50539e-17,4.44089e-17,0.79096,659.447,-0.0847458)">
                        <path d="M15,45L15,75" style="fill:none;stroke:black;stroke-width:0.5px;"/>
                    </g>
                </g>
                <g transform="matrix(1.41346,0,0,3,622.327,-486.682)">
                    <g transform="matrix(0.530612,-0,-0,0.5,26.4705,163.535)">
                        <path d="M237.419,39.956L240.344,40.931L237.419,41.906L237.419,39.956Z"/>
                        <path d="M-4.656,40.931L238.004,40.931" style="fill:none;stroke:black;stroke-width:0.65px;"/>
                    </g>
                </g>
                <g transform="matrix(1.5,0,0,18.9043,620.25,-3000.78)">
                    <g transform="matrix(0.5,-0,-0,0.079347,26.328,158.943)">
                        <path d="M24.369,3.644L25.344,0.719L26.319,3.644L24.369,3.644Z"/>
                        <path d="M25.344,63.733L25.344,3.059" style="fill:none;stroke:black;stroke-width:0.65px;"/>
                    </g>
                </g>
                <g transform="matrix(1.5,0,0,3,663.75,-479.537)">
                    <path d="M110,190L110,198" style="fill:none;stroke:black;stroke-width:0.25px;"/>
                </g>
                <g transform="matrix(1.65526,0,0,3,646.671,-479.479)">
                    <g transform="matrix(0.4531,-0,-0,0.5,7.89651,161.134)">
                        <path d="M223.094,66.483L225.344,65.733L223.094,64.983L223.094,66.483Z"/>
                        <path d="M28.963,66.483L26.713,65.733L28.963,64.983L28.963,66.483Z"/>
                        <path d="M223.544,65.733L28.513,65.733" style="fill:none;stroke:black;stroke-width:0.5px;"/>
                    </g>
                </g>
                <g transform="matrix(1,0,0,1.25,28.1196,81.2715)">
                    <g transform="matrix(1.70858,0,0,2.4,672.487,-367)">
                        <rect x="27.809" y="155.98" width="7.191" height="8.02" style="fill:white;"/>
                    </g>
                    <g transform="matrix(1.5,0,0,2.4,654.866,-368.853)">
                        <g transform="matrix(8,0,0,8,45.4604,162.811)">
                            <path d="M0.062,-0.012C0.062,-0.021 0.064,-0.026 0.068,-0.028C0.072,-0.03 0.079,-0.031 0.089,-0.031C0.121,-0.031 0.142,-0.033 0.151,-0.038C0.16,-0.043 0.167,-0.055 0.171,-0.073L0.306,-0.616C0.309,-0.626 0.31,-0.632 0.31,-0.635C0.31,-0.642 0.305,-0.647 0.296,-0.649C0.287,-0.651 0.272,-0.652 0.252,-0.652C0.244,-0.652 0.239,-0.652 0.236,-0.652C0.233,-0.653 0.231,-0.654 0.229,-0.656C0.226,-0.657 0.225,-0.66 0.225,-0.664C0.225,-0.677 0.231,-0.683 0.244,-0.683C0.257,-0.683 0.278,-0.683 0.305,-0.682C0.333,-0.681 0.353,-0.68 0.367,-0.68C0.382,-0.68 0.406,-0.681 0.437,-0.682C0.467,-0.683 0.49,-0.683 0.505,-0.683C0.515,-0.683 0.52,-0.679 0.52,-0.671C0.52,-0.662 0.518,-0.657 0.514,-0.655C0.51,-0.653 0.503,-0.652 0.492,-0.652L0.482,-0.652C0.443,-0.652 0.419,-0.649 0.408,-0.643C0.398,-0.638 0.391,-0.625 0.386,-0.607L0.25,-0.063C0.25,-0.062 0.249,-0.059 0.248,-0.053C0.247,-0.048 0.246,-0.044 0.246,-0.041C0.246,-0.038 0.246,-0.036 0.247,-0.035C0.248,-0.034 0.25,-0.033 0.255,-0.032C0.26,-0.031 0.267,-0.031 0.277,-0.031L0.358,-0.031C0.388,-0.031 0.415,-0.035 0.439,-0.045C0.463,-0.054 0.482,-0.065 0.497,-0.077C0.512,-0.088 0.526,-0.105 0.539,-0.127C0.552,-0.148 0.562,-0.166 0.568,-0.18C0.573,-0.193 0.58,-0.212 0.589,-0.236C0.593,-0.246 0.596,-0.252 0.597,-0.254C0.599,-0.257 0.603,-0.258 0.609,-0.258C0.619,-0.258 0.624,-0.254 0.624,-0.246L0.622,-0.24C0.621,-0.236 0.62,-0.234 0.62,-0.233L0.544,-0.018C0.541,-0.009 0.538,-0.004 0.535,-0.002C0.532,-0.001 0.526,-0 0.515,-0L0.087,-0C0.08,-0 0.076,-0 0.073,-0C0.07,-0.001 0.068,-0.002 0.065,-0.004C0.063,-0.005 0.062,-0.008 0.062,-0.012Z" style="fill-rule:nonzero;"/>
                        </g>
                    </g>
                </g>
                <g transform="matrix(1.5,0,0,3,635.229,-446.479)">
                    <g transform="matrix(8,0,0,8,30.1593,162.784)">
                        <path d="M0.059,-0.014C0.059,-0.023 0.063,-0.028 0.07,-0.03C0.077,-0.032 0.087,-0.033 0.097,-0.034C0.108,-0.034 0.122,-0.041 0.14,-0.054C0.157,-0.067 0.174,-0.086 0.19,-0.113L0.517,-0.689C0.518,-0.69 0.519,-0.692 0.521,-0.695C0.522,-0.698 0.524,-0.701 0.525,-0.703C0.527,-0.704 0.529,-0.706 0.531,-0.709C0.534,-0.712 0.537,-0.713 0.54,-0.714C0.542,-0.715 0.546,-0.716 0.549,-0.716C0.551,-0.716 0.554,-0.716 0.556,-0.715C0.558,-0.715 0.56,-0.714 0.561,-0.712C0.562,-0.711 0.563,-0.71 0.564,-0.709C0.565,-0.708 0.565,-0.707 0.566,-0.704C0.567,-0.701 0.567,-0.7 0.567,-0.699C0.567,-0.699 0.567,-0.696 0.568,-0.693L0.568,-0.688L0.611,-0.067C0.611,-0.052 0.615,-0.042 0.622,-0.038C0.628,-0.034 0.642,-0.032 0.663,-0.031C0.681,-0.031 0.69,-0.026 0.69,-0.017C0.69,-0.006 0.683,-0 0.67,-0C0.667,-0 0.655,-0 0.634,-0.001C0.613,-0.002 0.591,-0.003 0.567,-0.003C0.544,-0.003 0.524,-0.003 0.507,-0.002C0.49,-0.002 0.478,-0.002 0.469,-0.001C0.461,-0 0.456,-0 0.455,-0C0.445,-0 0.44,-0.005 0.44,-0.014C0.44,-0.021 0.443,-0.025 0.448,-0.028C0.453,-0.031 0.46,-0.032 0.468,-0.031C0.475,-0.031 0.484,-0.032 0.494,-0.034C0.504,-0.036 0.513,-0.04 0.52,-0.046C0.525,-0.05 0.528,-0.06 0.528,-0.073C0.528,-0.077 0.527,-0.085 0.526,-0.097C0.525,-0.109 0.524,-0.128 0.522,-0.153C0.521,-0.177 0.519,-0.203 0.517,-0.23L0.289,-0.23C0.283,-0.219 0.277,-0.208 0.27,-0.195C0.262,-0.183 0.257,-0.173 0.252,-0.166C0.248,-0.158 0.244,-0.15 0.239,-0.142C0.233,-0.133 0.23,-0.126 0.227,-0.121C0.224,-0.116 0.222,-0.111 0.219,-0.105C0.215,-0.1 0.213,-0.095 0.212,-0.092C0.211,-0.089 0.209,-0.085 0.208,-0.082C0.206,-0.078 0.205,-0.075 0.205,-0.073C0.204,-0.07 0.204,-0.068 0.204,-0.065C0.204,-0.056 0.207,-0.048 0.213,-0.043C0.218,-0.038 0.225,-0.035 0.232,-0.034C0.239,-0.034 0.245,-0.032 0.25,-0.03C0.256,-0.027 0.259,-0.024 0.259,-0.019C0.259,-0.006 0.252,-0 0.239,-0C0.237,-0 0.232,-0 0.224,-0.001C0.217,-0.002 0.206,-0.002 0.193,-0.002C0.18,-0.003 0.165,-0.003 0.15,-0.003C0.137,-0.003 0.123,-0.002 0.107,-0.001C0.092,-0 0.083,-0 0.081,-0C0.066,-0 0.059,-0.005 0.059,-0.014ZM0.307,-0.26L0.515,-0.26L0.493,-0.587L0.307,-0.26Z" style="fill-rule:nonzero;"/>
                    </g>
                </g>
                <g transform="matrix(1.5,0,0,3,750.055,-425.218)">
                    <g transform="matrix(8,0,0,8,55.7493,168.339)">
                        <path d="M0.053,-0.051C0.053,-0.067 0.058,-0.08 0.068,-0.09C0.078,-0.1 0.09,-0.105 0.103,-0.105C0.126,-0.105 0.137,-0.094 0.137,-0.073C0.137,-0.064 0.134,-0.054 0.128,-0.044C0.121,-0.035 0.111,-0.028 0.098,-0.025C0.109,-0.016 0.123,-0.011 0.14,-0.011L0.142,-0.011C0.156,-0.011 0.169,-0.015 0.179,-0.023C0.19,-0.031 0.2,-0.043 0.208,-0.06C0.215,-0.077 0.221,-0.091 0.225,-0.104C0.229,-0.118 0.234,-0.135 0.239,-0.156C0.247,-0.188 0.255,-0.219 0.262,-0.247C0.276,-0.304 0.283,-0.341 0.283,-0.357C0.283,-0.377 0.279,-0.392 0.27,-0.403C0.261,-0.414 0.25,-0.42 0.235,-0.42C0.213,-0.42 0.191,-0.409 0.168,-0.388C0.146,-0.367 0.129,-0.336 0.116,-0.295C0.114,-0.287 0.112,-0.282 0.11,-0.28C0.109,-0.279 0.105,-0.278 0.098,-0.278C0.088,-0.278 0.083,-0.281 0.083,-0.288C0.083,-0.295 0.087,-0.306 0.094,-0.322C0.101,-0.338 0.11,-0.355 0.122,-0.374C0.134,-0.392 0.15,-0.408 0.171,-0.421C0.192,-0.435 0.214,-0.442 0.237,-0.442C0.284,-0.442 0.316,-0.419 0.333,-0.374C0.341,-0.389 0.354,-0.404 0.37,-0.419C0.387,-0.434 0.407,-0.442 0.431,-0.442C0.451,-0.442 0.47,-0.437 0.49,-0.427C0.509,-0.418 0.518,-0.402 0.518,-0.379C0.518,-0.362 0.513,-0.349 0.502,-0.34C0.491,-0.331 0.48,-0.326 0.469,-0.326C0.457,-0.326 0.448,-0.33 0.443,-0.336C0.437,-0.343 0.434,-0.35 0.434,-0.358C0.434,-0.361 0.434,-0.365 0.435,-0.369C0.436,-0.374 0.439,-0.38 0.446,-0.389C0.453,-0.398 0.462,-0.403 0.474,-0.406C0.463,-0.415 0.449,-0.42 0.43,-0.42C0.391,-0.42 0.361,-0.384 0.342,-0.313C0.326,-0.248 0.315,-0.202 0.308,-0.176C0.295,-0.122 0.289,-0.088 0.289,-0.075C0.289,-0.052 0.294,-0.035 0.303,-0.026C0.312,-0.016 0.323,-0.011 0.336,-0.011C0.359,-0.011 0.381,-0.022 0.403,-0.043C0.425,-0.065 0.442,-0.096 0.455,-0.136C0.458,-0.144 0.46,-0.149 0.461,-0.151C0.463,-0.152 0.467,-0.153 0.473,-0.153C0.483,-0.153 0.488,-0.15 0.488,-0.143C0.488,-0.137 0.484,-0.126 0.478,-0.111C0.471,-0.095 0.462,-0.078 0.45,-0.059C0.438,-0.04 0.422,-0.024 0.401,-0.01C0.38,0.004 0.358,0.011 0.334,0.011C0.316,0.011 0.298,0.006 0.28,-0.004C0.261,-0.014 0.248,-0.032 0.239,-0.057C0.213,-0.012 0.18,0.011 0.141,0.011C0.117,0.011 0.096,0.006 0.079,-0.006C0.062,-0.017 0.053,-0.032 0.053,-0.051Z" style="fill-rule:nonzero;"/>
                    </g>
                </g>
                <g transform="matrix(0.75,0,0,1.5,662.623,-413.72)">
                    <g transform="matrix(16,0,0,16,205.495,293.428)">
                        <path d="M0.063,-0.012C0.063,-0.021 0.065,-0.026 0.069,-0.028C0.073,-0.03 0.08,-0.031 0.09,-0.031C0.122,-0.031 0.143,-0.033 0.152,-0.038C0.161,-0.043 0.168,-0.055 0.172,-0.073L0.307,-0.616C0.31,-0.626 0.311,-0.632 0.311,-0.635C0.311,-0.642 0.306,-0.647 0.297,-0.649C0.288,-0.651 0.273,-0.652 0.253,-0.652C0.245,-0.652 0.24,-0.652 0.237,-0.652C0.234,-0.653 0.232,-0.654 0.229,-0.656C0.227,-0.657 0.226,-0.66 0.226,-0.664C0.226,-0.673 0.228,-0.678 0.232,-0.68C0.236,-0.682 0.243,-0.683 0.253,-0.683L0.553,-0.683C0.607,-0.683 0.649,-0.669 0.682,-0.641C0.714,-0.613 0.73,-0.578 0.73,-0.535C0.73,-0.478 0.703,-0.427 0.648,-0.383C0.593,-0.338 0.534,-0.316 0.469,-0.316L0.314,-0.316L0.253,-0.068C0.25,-0.058 0.249,-0.052 0.249,-0.048C0.249,-0.044 0.25,-0.041 0.251,-0.039C0.252,-0.037 0.257,-0.035 0.266,-0.033C0.275,-0.032 0.289,-0.031 0.307,-0.031C0.315,-0.031 0.321,-0.031 0.324,-0.03C0.327,-0.03 0.329,-0.029 0.331,-0.027C0.333,-0.025 0.334,-0.022 0.334,-0.018C0.334,-0.006 0.328,-0 0.315,-0C0.302,-0 0.282,-0 0.255,-0.001C0.228,-0.002 0.208,-0.003 0.195,-0.003C0.181,-0.003 0.162,-0.002 0.135,-0.001C0.109,-0 0.09,-0 0.077,-0C0.068,-0 0.063,-0.004 0.063,-0.012ZM0.318,-0.342L0.444,-0.342C0.506,-0.342 0.554,-0.361 0.589,-0.4C0.605,-0.419 0.618,-0.447 0.628,-0.483C0.637,-0.519 0.642,-0.545 0.642,-0.562C0.642,-0.593 0.631,-0.615 0.61,-0.63C0.588,-0.645 0.558,-0.652 0.521,-0.652L0.435,-0.652C0.417,-0.652 0.406,-0.65 0.4,-0.647C0.395,-0.644 0.39,-0.633 0.386,-0.616L0.318,-0.342Z" style="fill-rule:nonzero;"/>
                    </g>
                </g>
            </g>
        </g>
    </g>
    <defs>
        <linearGradient id="_Linear2" x1="0" y1="0" x2="1" y2="0" gradientUnits="userSpaceOnUse" gradientTransform="matrix(6.3489e-16,10.3685,-10.3685,6.3489e-16,739.6,442.469)"><stop offset="0" style="stop-color:rgb(102,102,102);stop-opacity:0.8"/><stop offset="1" style="stop-color:white;stop-opacity:1"/></linearGradient>
    </defs>
</svg>
