<?xml version="1.0" encoding="UTF-8"?>
<!DOCTYPE svg PUBLIC "-//W3C//DTD SVG 1.1//EN" "http://www.w3.org/Graphics/SVG/1.1/DTD/svg11.dtd">
<svg version="1.1" xmlns="http://www.w3.org/2000/svg" xmlns:xlink="http://www.w3.org/1999/xlink" x="0" y="0" width="120.996" height="50.169" viewBox="0, 0, 120.996, 50.169">
  <g id="Layer_1">
    <g id="path8828">
      <path d="M18.478,22.434 L18.478,31.946 L103.518,31.946 L103.518,22.434 z" fill="#CCCCCC"/>
      <path d="M18.478,22.434 L18.478,31.946 L103.518,31.946 L103.518,22.434 z" fill-opacity="0" stroke="#000000" stroke-width="0.567" stroke-miterlimit="3.988"/>
    </g>
    <g>
      <path d="M116.996,27.19 L103.743,27.19" fill-opacity="0" stroke="#FF0000" stroke-width="0.85" stroke-miterlimit="3.924" id="path8832"/>
      <g id="path17390">
        <path d="M115.496,27.19 L113.496,29.19 L120.496,27.19 L113.496,25.19 z" fill="#FF0000"/>
        <path d="M115.496,27.19 L113.496,29.19 L120.496,27.19 L113.496,25.19 z" fill-opacity="0" stroke="#FF0000" stroke-width="0.4"/>
      </g>
    </g>
    <g>
      <path d="M5,27.19 L18.253,27.19" fill-opacity="0" stroke="#FF0000" stroke-width="0.85" stroke-miterlimit="3.924" id="path8834"/>
      <g id="path13034">
        <path d="M6.5,27.19 L8.5,25.19 L1.5,27.19 L8.5,29.19 z" fill="#FF0000"/>
        <path d="M6.5,27.19 L8.5,25.19 L1.5,27.19 L8.5,29.19 z" fill-opacity="0" stroke="#FF0000" stroke-width="0.4"/>
      </g>
    </g>
    <path d="M18.337,33.446 L18.337,49.781" fill-opacity="0" stroke="#808080" stroke-width="0.283" stroke-miterlimit="3.971" id="path19846"/>
    <g>
      <path d="M24.508,46.119 L97.365,46.119" fill-opacity="0" stroke="#808080" stroke-width="0.283" stroke-linecap="square" stroke-miterlimit="3.971" id="path8840"/>
      <g id="path18716">
        <path d="M27.112,46.119 L30.585,42.119 L18.432,46.119 L30.585,50.119 z" fill="#808080"/>
        <path d="M27.112,46.119 L30.585,42.119 L18.432,46.119 L30.585,50.119 z" fill-opacity="0" stroke="#808080" stroke-width="0.8"/>
      </g>
      <g id="path19272">
        <path d="M94.761,46.119 L91.289,50.119 L103.442,46.119 L91.289,42.119 z" fill="#808080"/>
        <path d="M94.761,46.119 L91.289,50.119 L103.442,46.119 L91.289,42.119 z" fill-opacity="0" stroke="#808080" stroke-width="0.8"/>
      </g>
    </g>
    <g>
      <path d="M18.478,10.305 L18.478,26.897" fill-opacity="0" stroke="#FF0000" stroke-width="0.85" stroke-linecap="square" stroke-miterlimit="3.924" id="path8842"/>
      <g id="path12028">
        <path d="M18.478,11.805 L20.478,13.805 L18.478,6.805 L16.478,13.805 z" fill="#FF0000"/>
        <path d="M18.478,11.805 L20.478,13.805 L18.478,6.805 L16.478,13.805 z" fill-opacity="0" stroke="#FF0000" stroke-width="0.4"/>
      </g>
    </g>
    <g>
      <text transform="matrix(2.835, 0, 0, 2.835, 27.383, 12.492)">
        <tspan x="-1.646" y="0.5" font-family="TimesNewRomanPS-ItalicMT" font-size="3.175" fill="#000000">A</tspan>
      </text>
      <text transform="matrix(2.835, 0, 0, 2.835, 36.715, 16.992)">
        <tspan x="-1.294" y="0.5" font-family="TimesNewRomanPS-ItalicMT" font-size="3.175" fill="#FF0000">y</tspan>
      </text>
    </g>
    <g>
      <text transform="matrix(2.835, 0, 0, 2.835, 9.094, 20.863)">
        <tspan x="-1.646" y="0.5" font-family="TimesNewRomanPS-ItalicMT" font-size="3.175" fill="#000000">A</tspan>
      </text>
      <text transform="matrix(2.835, 0, 0, 2.835, 18.426, 25.363)">
        <tspan x="-1.294" y="0.5" font-family="TimesNewRomanPS-ItalicMT" font-size="3.175" fill="#FF0000">x</tspan>
      </text>
    </g>
    <text transform="matrix(2.835, 0, 0, 2.835, 112.436, 22.071)">
      <tspan x="-1.383" y="0.5" font-family="TimesNewRomanPS-ItalicMT" font-size="3.175" fill="#FF0000">F</tspan>
    </text>
    <text transform="matrix(2.835, 0, 0, 2.835, 61.924, 42.632)">
      <tspan x="-1.47" y="0.5" font-family="TimesNewRomanPS-ItalicMT" font-size="3.175" fill="#808080">L</tspan>
    </text>
    <g>
      <path d="M10.247,31.946 C11.45,34.748 14.757,36.632 18.478,36.636 C22.201,36.633 24.169,34.269 26.712,31.946" fill-opacity="0" stroke="#FF0000" stroke-width="0.85" stroke-miterlimit="3.924" id="path9458"/>
      <g id="path9466">
        <path d="M25.615,32.969 L25.517,35.795 L29.272,29.558 L22.789,32.87 z" fill="#FF0000"/>
        <path d="M25.615,32.969 L25.517,35.795 L29.272,29.558 L22.789,32.87 z" fill-opacity="0" stroke="#FF0000" stroke-width="0.4"/>
      </g>
    </g>
    <g>
      <text transform="matrix(2.835, 0, 0, 2.835, 10.121, 38.737)">
        <tspan x="-2.626" y="0.5" font-family="TimesNewRomanPS-ItalicMT" font-size="3.175" kerning="-3.175" fill="#FF0000">M</tspan>
      </text>
      <text transform="matrix(2.835, 0, 0, 2.835, 16.199, 43.08)">
        <tspan x="-2.626" y="-0" font-family="TimesNewRomanPS-ItalicMT" font-size="2.064" kerning="-2.064" fill="#FF0000">A</tspan>
      </text>
    </g>
    <g>
      <path d="M103.518,20.254 L103.518,3.599" fill-opacity="0" stroke="#FF0000" stroke-width="0.85" stroke-miterlimit="3.924" id="path10836"/>
      <g id="path10842">
        <path d="M103.518,18.754 L101.518,16.754 L103.518,23.754 L105.518,16.754 z" fill="#FF0000"/>
        <path d="M103.518,18.754 L101.518,16.754 L103.518,23.754 L105.518,16.754 z" fill-opacity="0" stroke="#FF0000" stroke-width="0.4"/>
      </g>
    </g>
    <text transform="matrix(2.835, 0, 0, 2.835, 108.419, 7.537)">
      <tspan x="-1.383" y="0.5" font-family="TimesNewRomanPS-ItalicMT" font-size="3.175" kerning="-1.701" fill="#FF0000">P</tspan>
    </text>
    <path d="M103.445,33.446 L103.445,49.781" fill-opacity="0" stroke="#808080" stroke-width="0.283" stroke-miterlimit="3.971" id="path18714"/>
    <path d="M60.998,12.067 C60.998,12.067 62.02,13.104 60.998,14.14 C59.976,15.177 60.998,16.214 60.998,16.214 M60.998,16.214 C60.998,16.214 62.02,17.25 60.998,18.287 C59.976,19.324 60.998,20.36 60.998,20.36 M60.998,20.36 C60.998,20.36 62.02,21.397 60.998,22.434 C59.976,23.47 60.998,24.507 60.998,24.507 M60.998,24.507 C60.998,24.507 62.02,25.544 60.998,26.58 C59.976,27.617 60.998,28.654 60.998,28.654 M60.998,28.654 C60.998,28.654 62.02,29.691 60.998,30.727 C59.976,31.764 60.998,32.801 60.998,32.801 M60.998,32.801 C60.998,32.801 62.02,33.837 60.998,34.874 C59.976,35.911 60.998,36.947 60.998,36.947" fill-opacity="0" stroke="#0000FF" stroke-width="0.371" id="path19898"/>
    <text transform="matrix(2.835, 0, 0, 2.835, 108.779, 37.487)">
      <tspan x="-1.559" y="0.5" font-family="TimesNewRomanPS-ItalicMT" font-size="3.175" kerning="-1.488" fill="#000000">B</tspan>
    </text>
  </g>
</svg>
