<?xml version="1.0" encoding="UTF-8" standalone="no"?>
<!DOCTYPE svg PUBLIC "-//W3C//DTD SVG 1.1//EN" "http://www.w3.org/Graphics/SVG/1.1/DTD/svg11.dtd">
<svg width="100%" height="100%" viewBox="0 0 1500 1050" version="1.1" xmlns="http://www.w3.org/2000/svg" xmlns:xlink="http://www.w3.org/1999/xlink" xml:space="preserve" xmlns:serif="http://www.serif.com/" style="fill-rule:evenodd;clip-rule:evenodd;stroke-linejoin:round;stroke-miterlimit:2;">
    <g transform="matrix(1,0,0,1,1.31134e-05,1.83603)">
        <path d="M900,600C900,434.315 765.685,300 600,300L600,600L900,600Z"/>
    </g>
    <g transform="matrix(-0.999981,-0.00611026,0.00607298,-0.99388,1196.35,1201.83)">
        <path d="M900,600C900,434.315 765.685,300 600,300L600,600L900,600Z"/>
    </g>
    <g transform="matrix(1,0,0,1,-1.82188,3.66913)">
        <path d="M600,298.167C765.574,298.167 900,432.593 900,598.167C900,763.741 765.574,898.167 600,898.167C434.426,898.167 300,763.741 300,598.167C300,432.593 434.426,298.167 600,298.167ZM600,313.167C757.296,313.167 885,440.871 885,598.167C885,755.463 757.296,883.167 600,883.167C442.704,883.167 315,755.463 315,598.167C315,440.871 442.704,313.167 600,313.167Z"/>
    </g>
</svg>
