<?xml version="1.0" encoding="UTF-8" standalone="no"?>
<!DOCTYPE svg PUBLIC "-//W3C//DTD SVG 1.1//EN" "http://www.w3.org/Graphics/SVG/1.1/DTD/svg11.dtd">
<svg width="100%" height="100%" viewBox="0 0 140 100" version="1.1" xmlns="http://www.w3.org/2000/svg" xmlns:xlink="http://www.w3.org/1999/xlink" xml:space="preserve" xmlns:serif="http://www.serif.com/" style="fill-rule:evenodd;clip-rule:evenodd;stroke-linecap:round;stroke-linejoin:round;stroke-miterlimit:1.5;">
    <g id="Artboard1" transform="matrix(0.583333,0,0,0.416667,0,0)">
        <rect x="0" y="0" width="240" height="240" style="fill:none;"/>
        <clipPath id="_clip1">
            <rect x="0" y="0" width="240" height="240"/>
        </clipPath>
        <g clip-path="url(#_clip1)">
            <g transform="matrix(34.9854,0,2.15614e-31,2.4,-13139.9,-262.8)">
                <rect x="376" y="144" width="4.9" height="11" style="fill:none;"/>
                <g transform="matrix(0.049,0,-3.10704e-33,1.29268,361.016,-63.7317)">
                    <g transform="matrix(1,0,0,0.773585,2,26.8679)">
                        <path d="M403,178.5C397.599,178.061 393.529,177.085 391.268,175.38" style="fill:none;stroke:rgb(225,32,32);stroke-width:1.5px;"/>
                    </g>
                    <g transform="matrix(1,0,0,-0.773585,1.77402,303.038)">
                        <path d="M403,178.5C397.599,178.061 393.529,177.085 391.268,175.38" style="fill:none;stroke:rgb(225,32,32);stroke-width:1.5px;"/>
                    </g>
                </g>
                <g transform="matrix(0.0200387,-9.85944e-18,1.23875e-18,-0.24,373.75,177.82)">
                    <path d="M118,118L351.818,118" style="fill:none;fill-rule:nonzero;stroke:rgb(225,32,32);stroke-width:4.51px;stroke-miterlimit:10;"/>
                </g>
            </g>
            <g transform="matrix(19.7907,27.707,-1.21218,1.69706,-7244.86,-10575)">
                <rect x="376" y="144" width="4.9" height="11" style="fill:none;"/>
                <g transform="matrix(0.06125,0,-3.8838e-33,1.29268,356.045,-63.7317)">
                    <g transform="matrix(1,0,0,0.773585,2,26.8679)">
                        <path d="M403,178.5C397.599,178.061 393.529,177.085 391.268,175.38" style="fill:none;stroke:rgb(225,32,32);stroke-width:1.5px;"/>
                    </g>
                    <g transform="matrix(1,0,0,-0.773585,1.77402,303.038)">
                        <path d="M403,178.5C397.599,178.061 393.529,177.085 391.268,175.38" style="fill:none;stroke:rgb(225,32,32);stroke-width:1.5px;"/>
                    </g>
                </g>
                <g transform="matrix(0.0200387,-9.85944e-18,1.23875e-18,-0.24,373.75,177.82)">
                    <path d="M118,118L351.818,118" style="fill:none;fill-rule:nonzero;stroke:rgb(225,32,32);stroke-width:5.27px;stroke-miterlimit:10;"/>
                </g>
            </g>
            <g transform="matrix(1.71429,0,0,2.4,-92.5198,-150)">
                <circle cx="62.5" cy="102.5" r="2.5"/>
            </g>
            <g transform="matrix(1.71429,0,0,2.4,-245.091,-127.744)">
                <text x="180px" y="88.227px" style="font-family:'Times-Roman', 'Times';font-size:12px;">A = 60 N</text>
            </g>
            <g transform="matrix(1.21218,1.69706,-1.21218,1.69706,63.1197,-283.176)">
                <text x="105px" y="143.227px" style="font-family:'Times-Roman', 'Times';font-size:12px;">B = 40 N</text>
            </g>
            <g transform="matrix(1.71429,0,0,2.4,-11.0913,36)">
                <text x="30px" y="36.855px" style="font-family:'Times-Roman', 'Times';font-size:10px;">45°</text>
            </g>
            <g transform="matrix(1.71429,0,0,2.4,19.7659,-48)">
                <g transform="matrix(1,-0,-0,1,-11.5301,20)">
                    <path d="M128.83,38.65L131.53,40L128.83,41.35L128.83,38.65Z"/>
                    <path d="M111.53,40L129.37,40" style="fill:none;stroke:black;stroke-width:0.6px;"/>
                </g>
            </g>
            <g transform="matrix(1.0497e-16,-2.4,1.71429,1.46958e-16,-88.2341,324)">
                <g transform="matrix(6.12323e-17,1,-1,6.12323e-17,135,51.4699)">
                    <path d="M7.18,17.7L8.53,15L9.88,17.7L7.18,17.7Z"/>
                    <path d="M8.53,35L8.53,17.16" style="fill:none;stroke:black;stroke-width:0.6px;"/>
                </g>
            </g>
            <g transform="matrix(1.71429,0,0,2.4,15.4802,-60)">
                <text x="125px" y="66.816px" style="font-family:'Times-Italic', 'Times';font-style:italic;font-size:10px;">x</text>
            </g>
            <g transform="matrix(1.71429,0,0,2.4,-159.377,-24)">
                <text x="100px" y="21.816px" style="font-family:'Times-Italic', 'Times';font-style:italic;font-size:10px;">y</text>
            </g>
        </g>
    </g>
</svg>
