<?xml version="1.0" encoding="UTF-8" standalone="no"?>
<!DOCTYPE svg PUBLIC "-//W3C//DTD SVG 1.1//EN" "http://www.w3.org/Graphics/SVG/1.1/DTD/svg11.dtd">
<svg width="100%" height="100%" viewBox="0 0 509 366" version="1.1" xmlns="http://www.w3.org/2000/svg" xmlns:xlink="http://www.w3.org/1999/xlink" xml:space="preserve" xmlns:serif="http://www.serif.com/" style="fill-rule:evenodd;clip-rule:evenodd;stroke-linecap:round;stroke-linejoin:round;stroke-miterlimit:10;">
    <g transform="matrix(1,0,0,1,0,-1)">
        <g transform="matrix(1,0,0,1,-340,61)">
            <g id="example-r-to-p" transform="matrix(1.27778,0,0,1.27778,594.278,122.722)">
                <g transform="matrix(1,0,0,1,-199,-143)">
                    <clipPath id="_clip1">
                        <rect x="0" y="0" width="398" height="286"/>
                    </clipPath>
                    <g clip-path="url(#_clip1)">
                        <g>
                            <g>
                                <g>
                                    <path d="M56.272,0.272L56.272,285.728" style="fill:none;fill-rule:nonzero;stroke:rgb(192,192,192);stroke-width:1.02px;"/>
                                </g>
                            </g>
                            <g>
                                <g>
                                    <path d="M56.272,0.272L56.272,285.728" style="fill:none;fill-rule:nonzero;stroke:rgb(192,192,192);stroke-width:1.02px;"/>
                                </g>
                            </g>
                            <g>
                                <g>
                                    <path d="M127.636,0.272L127.636,285.728" style="fill:none;fill-rule:nonzero;stroke:rgb(192,192,192);stroke-width:1.02px;"/>
                                </g>
                            </g>
                            <g>
                                <g>
                                    <path d="M270.364,0.272L270.364,285.728" style="fill:none;fill-rule:nonzero;stroke:rgb(192,192,192);stroke-width:1.02px;"/>
                                </g>
                            </g>
                            <g>
                                <g>
                                    <path d="M341.728,0.272L341.728,285.728" style="fill:none;fill-rule:nonzero;stroke:rgb(192,192,192);stroke-width:1.02px;"/>
                                </g>
                            </g>
                            <g>
                                <g>
                                    <path d="M0,0.272L398,0.272" style="fill:none;fill-rule:nonzero;stroke:rgb(192,192,192);stroke-width:1.02px;"/>
                                </g>
                            </g>
                            <g>
                                <g>
                                    <path d="M0,71.636L398,71.636" style="fill:none;fill-rule:nonzero;stroke:rgb(192,192,192);stroke-width:1.02px;"/>
                                </g>
                            </g>
                            <g>
                                <g>
                                    <path d="M0,214.364L398,214.364" style="fill:none;fill-rule:nonzero;stroke:rgb(192,192,192);stroke-width:1.02px;"/>
                                </g>
                            </g>
                            <g>
                                <g>
                                    <path d="M0,285.728L398,285.728" style="fill:none;fill-rule:nonzero;stroke:rgb(192,192,192);stroke-width:1.02px;"/>
                                </g>
                            </g>
                            <g>
                                <g>
                                    <path d="M199,2.319L199,285.728" style="fill:none;fill-rule:nonzero;stroke:black;stroke-width:1.02px;stroke-linecap:butt;stroke-linejoin:miter;"/>
                                </g>
                            </g>
                            <g>
                                <g>
                                    <path d="M199,1.296L194.907,5.388" style="fill:none;fill-rule:nonzero;stroke:black;stroke-width:1.02px;stroke-linecap:butt;stroke-linejoin:miter;"/>
                                </g>
                            </g>
                            <g>
                                <g>
                                    <path d="M199,1.296L203.093,5.388" style="fill:none;fill-rule:nonzero;stroke:black;stroke-width:1.02px;stroke-linecap:butt;stroke-linejoin:miter;"/>
                                </g>
                            </g>
                            <g transform="matrix(0.19,0,0,0.19,379.584,137.55)">
                                <g>
                                    <g>
                                        <path d="M26.602,-23.163L47.064,0.272L38.575,0.272L23.228,-18.959L8.393,0.272L0,0.272L19.855,-23.163L0.607,-45.161L9.112,-45.161L23.228,-28.279L36.929,-45.161L45.322,-45.161L26.602,-23.163Z" style="fill-rule:nonzero;"/>
                                    </g>
                                </g>
                            </g>
                            <g>
                                <g>
                                    <path d="M0,143L395.954,143" style="fill:none;fill-rule:nonzero;stroke:black;stroke-width:1.02px;stroke-linecap:butt;stroke-linejoin:miter;"/>
                                </g>
                            </g>
                            <g>
                                <g>
                                    <path d="M396.977,143L392.884,138.907" style="fill:none;fill-rule:nonzero;stroke:black;stroke-width:1.02px;stroke-linecap:butt;stroke-linejoin:miter;"/>
                                </g>
                            </g>
                            <g>
                                <g>
                                    <path d="M396.977,143L392.884,147.093" style="fill:none;fill-rule:nonzero;stroke:black;stroke-width:1.02px;stroke-linecap:butt;stroke-linejoin:miter;"/>
                                </g>
                            </g>
                            <g>
                                <g>
                                    <path d="M48.717,155.605L48.717,154.787L53.597,154.787L53.597,155.605L48.717,155.605ZM56.073,158.859L56.073,157.968L57.847,157.968L57.847,150.97L56.073,151.41L56.073,150.5L59.034,149.763L59.034,157.968L60.809,157.968L60.809,158.859L56.073,158.859ZM65.839,159.084C64.923,159.084 64.183,158.651 63.618,157.784C63.052,156.925 62.769,155.803 62.769,154.418C62.769,153.02 63.054,151.894 63.624,151.042C64.193,150.189 64.944,149.763 65.875,149.763C66.806,149.763 67.556,150.189 68.126,151.042C68.695,151.894 68.98,153.013 68.98,154.398C68.98,155.823 68.695,156.959 68.126,157.805C67.556,158.657 66.794,159.084 65.839,159.084ZM65.85,158.194C67.101,158.194 67.727,156.921 67.727,154.377C67.727,151.894 67.109,150.653 65.875,150.653C64.643,150.653 64.028,151.908 64.028,154.418C64.028,156.935 64.635,158.194 65.85,158.194Z" style="fill-rule:nonzero;"/>
                                </g>
                            </g>
                            <g>
                                <g>
                                    <path d="M122.388,155.605L122.388,154.787L127.258,154.787L127.258,155.605L122.388,155.605ZM129.386,158.9L129.386,157.835C129.972,158.074 130.532,158.194 131.064,158.194C131.65,158.194 132.107,158.023 132.435,157.682C132.769,157.334 132.936,156.86 132.936,156.26C132.936,154.93 132.019,154.265 130.184,154.265C129.979,154.265 129.764,154.278 129.539,154.306L129.539,149.988L134.021,149.988L134.021,151.021L130.573,151.021L130.573,153.354C131.712,153.354 132.602,153.617 133.243,154.142C133.877,154.667 134.195,155.394 134.195,156.321C134.195,157.181 133.905,157.856 133.325,158.347C132.745,158.838 131.94,159.084 130.91,159.084C130.46,159.084 129.952,159.022 129.386,158.9Z" style="fill-rule:nonzero;"/>
                                </g>
                            </g>
                            <g>
                                <g>
                                    <path d="M269.555,158.9L269.555,157.835C270.142,158.074 270.701,158.194 271.233,158.194C271.82,158.194 272.277,158.023 272.604,157.682C272.939,157.334 273.106,156.86 273.106,156.26C273.106,154.93 272.188,154.265 270.354,154.265C270.149,154.265 269.934,154.278 269.709,154.306L269.709,149.988L274.19,149.988L274.19,151.021L270.742,151.021L270.742,153.354C271.881,153.354 272.772,153.617 273.413,154.142C274.047,154.667 274.364,155.394 274.364,156.321C274.364,157.181 274.074,157.856 273.495,158.347C272.915,158.838 272.11,159.084 271.08,159.084C270.63,159.084 270.122,159.022 269.555,158.9Z" style="fill-rule:nonzero;"/>
                                </g>
                            </g>
                            <g>
                                <g>
                                    <path d="M338.453,158.859L338.453,157.968L340.234,157.968L340.234,150.97L338.453,151.41L338.453,150.5L341.421,149.763L341.421,157.968L343.191,157.968L343.191,158.859L338.453,158.859ZM348.224,159.084C347.31,159.084 346.57,158.651 346.004,157.784C345.438,156.925 345.155,155.803 345.155,154.418C345.155,153.02 345.438,151.894 346.004,151.042C346.577,150.189 347.327,149.763 348.255,149.763C349.19,149.763 349.94,150.189 350.506,151.042C351.079,151.894 351.365,153.013 351.365,154.398C351.365,155.823 351.079,156.959 350.506,157.805C349.94,158.657 349.179,159.084 348.224,159.084ZM348.235,158.194C349.49,158.194 350.117,156.921 350.117,154.377C350.117,151.894 349.497,150.653 348.255,150.653C347.027,150.653 346.413,151.908 346.413,154.418C346.413,156.935 347.021,158.194 348.235,158.194Z" style="fill-rule:nonzero;"/>
                                </g>
                            </g>
                            <g transform="matrix(0.19,0,0,0.19,205.65,22.9633)">
                                <g>
                                    <g>
                                        <path d="M45.626,-45.161L23.324,9.577C21.417,14.287 19.56,17.41 17.753,18.945C15.947,20.479 13.951,21.247 11.766,21.247C9.24,21.247 6.784,20.975 4.396,20.431L3.789,13.781C6.517,14.868 9.176,15.412 11.766,15.412C12.448,15.412 12.995,15.345 13.405,15.212C13.815,15.079 14.412,14.551 15.196,13.63C15.979,12.707 16.78,11.324 17.601,9.481C18.209,8.117 19.434,5.047 21.278,0.272L1.439,-45.161L9.512,-45.161L15.043,-32.372C15.587,-31.136 16.421,-29.154 17.545,-26.425C18.67,-23.697 20.018,-20.049 21.59,-15.482C23.162,-10.915 24.049,-7.609 24.251,-5.563L24.348,-5.563C24.55,-10.263 29.085,-23.462 37.952,-45.161L45.626,-45.161Z" style="fill-rule:nonzero;"/>
                                    </g>
                                </g>
                            </g>
                            <g>
                                <g>
                                    <path d="M177.637,215.97L177.637,215.152L182.507,215.152L182.507,215.97L177.637,215.97ZM184.635,219.265L184.635,218.201C185.222,218.439 185.781,218.559 186.313,218.559C186.9,218.559 187.357,218.388 187.684,218.047C188.018,217.699 188.185,217.225 188.185,216.625C188.185,215.295 187.268,214.63 185.433,214.63C185.229,214.63 185.014,214.643 184.789,214.671L184.789,210.353L189.27,210.353L189.27,211.386L185.822,211.386L185.822,213.719C186.961,213.719 187.851,213.982 188.492,214.507C189.127,215.032 189.444,215.759 189.444,216.686C189.444,217.546 189.154,218.221 188.574,218.712C187.994,219.203 187.19,219.449 186.16,219.449C185.709,219.449 185.201,219.387 184.635,219.265Z" style="fill-rule:nonzero;"/>
                                </g>
                            </g>
                            <g>
                                <g>
                                    <path d="M184.635,76.02L184.635,74.966C185.222,75.202 185.781,75.32 186.313,75.32C186.9,75.32 187.357,75.148 187.684,74.804C188.018,74.46 188.185,73.986 188.185,73.383C188.185,72.052 187.268,71.387 185.433,71.387C185.229,71.387 185.014,71.401 184.789,71.429L184.789,67.112L189.27,67.112L189.27,68.143L185.822,68.143L185.822,70.481C186.961,70.481 187.851,70.743 188.492,71.267C189.127,71.79 189.444,72.515 189.444,73.443C189.444,74.306 189.154,74.982 188.574,75.472C187.994,75.962 187.19,76.207 186.16,76.207C185.709,76.207 185.201,76.145 184.635,76.02Z" style="fill-rule:nonzero;"/>
                                </g>
                            </g>
                            <g>
                                <g>
                                    <path d="M186.988,159.084C186.074,159.084 185.334,158.651 184.768,157.784C184.202,156.925 183.919,155.803 183.919,154.418C183.919,153.02 184.205,151.894 184.778,151.042C185.345,150.189 186.095,149.763 187.029,149.763C187.957,149.763 188.707,150.189 189.28,151.042C189.846,151.894 190.129,153.013 190.129,154.398C190.129,155.823 189.846,156.959 189.28,157.805C188.707,158.657 187.943,159.084 186.988,159.084ZM186.999,158.194C188.254,158.194 188.881,156.921 188.881,154.377C188.881,151.894 188.264,150.653 187.029,150.653C185.795,150.653 185.177,151.908 185.177,154.418C185.177,156.935 185.784,158.194 186.999,158.194Z" style="fill-rule:nonzero;"/>
                                </g>
                            </g>
                            <g>
                                <g>
                                    <path d="M79.486,71.636C79.486,73.896 77.655,75.729 75.394,75.729C73.134,75.729 71.301,73.896 71.301,71.636C71.301,69.376 73.134,67.544 75.394,67.544C77.655,67.544 79.486,69.376 79.486,71.636Z" style="fill-rule:nonzero;"/>
                                </g>
                            </g>
                            <g>
                                <g>
                                    <path d="M79.486,71.636C79.486,73.896 77.655,75.729 75.394,75.729C73.134,75.729 71.301,73.896 71.301,71.636C71.301,69.376 73.134,67.544 75.394,67.544C77.655,67.544 79.486,69.376 79.486,71.636Z" style="fill:none;fill-rule:nonzero;stroke:black;stroke-width:1.02px;"/>
                                </g>
                            </g>
                            <g transform="matrix(0.896051,0,0,1,7.41171,0)">
                                <rect x="71.301" y="44.093" width="138.699" height="19.44" style="fill:white;"/>
                            </g>
                            <g transform="matrix(1,0,0,1,-18.4891,-2)">
                                <g transform="matrix(0.19,0,0,0.19,89.0129,60.6208)">
                                    <g>
                                        <g>
                                            <path d="M30.998,-32.052L24.651,-6.474L24.348,-4.747C24.348,-3.586 25.919,-2.967 29.063,-2.893L30.998,-2.893C32.778,-2.893 33.731,-2.52 33.86,-1.774C33.86,-0.41 33.178,0.272 31.813,0.272L25.275,0.065L25.163,0.065L18.832,-0.031L18.624,-0.031L5.723,0.272L5.627,0.272C4.604,0.272 4.093,-0.138 4.093,-0.958C4.093,-2.12 4.636,-2.765 5.723,-2.893L6.954,-2.893C11.388,-2.893 14.047,-3.372 14.932,-4.332C15.347,-4.811 15.757,-5.765 16.162,-7.193C16.162,-7.268 16.2,-7.438 16.274,-7.705L29.975,-62.65C30.252,-63.738 30.39,-64.388 30.39,-64.6C30.39,-65.411 29.841,-65.922 28.744,-66.135L28.648,-66.135C28.509,-66.199 28.339,-66.231 28.136,-66.231C26.495,-66.37 25.03,-66.439 23.74,-66.439C21.96,-66.439 21.006,-66.711 20.878,-67.254C20.804,-67.393 20.767,-67.531 20.767,-67.67C20.767,-68.821 21.347,-69.466 22.509,-69.605L56.992,-69.605C65.241,-69.605 71.14,-67.084 74.689,-62.043C76.33,-59.655 77.151,-57.028 77.151,-54.161C77.151,-48.63 74.316,-43.616 68.646,-39.118C62.646,-34.408 55.894,-32.052 48.391,-32.052L30.998,-32.052ZM38.368,-62.554L31.413,-34.722L45.833,-34.722C52.313,-34.722 57.567,-36.528 61.596,-40.141C64.388,-42.731 66.296,-47.064 67.319,-53.138L67.319,-53.234C67.522,-54.535 67.623,-55.659 67.623,-56.608C67.623,-63.162 62.987,-66.439 53.715,-66.439L43.899,-66.439C41.437,-66.439 39.934,-66.098 39.391,-65.416L39.391,-65.304L39.295,-65.304L39.295,-65.208C39.018,-64.803 38.709,-63.918 38.368,-62.554Z" style="fill-rule:nonzero;"/>
                                        </g>
                                    </g>
                                </g>
                                <g transform="matrix(0.19,0,0,0.19,109.588,60.6208)">
                                    <g>
                                        <g>
                                            <path d="M70.293,-33.187L9.208,-33.187C7.023,-33.187 5.862,-33.869 5.723,-35.233C5.723,-36.598 6.853,-37.28 9.112,-37.28L70.389,-37.28C72.573,-37.28 73.698,-36.598 73.762,-35.233C73.762,-33.869 72.605,-33.187 70.293,-33.187ZM70.389,-13.332L9.112,-13.332C6.927,-13.332 5.798,-14.014 5.723,-15.378C5.723,-16.743 6.885,-17.425 9.208,-17.425L70.293,-17.425C72.477,-17.425 73.634,-16.743 73.762,-15.378C73.762,-14.014 72.638,-13.332 70.389,-13.332Z" style="fill-rule:nonzero;"/>
                                        </g>
                                    </g>
                                </g>
                                <g transform="matrix(0.19,0,0,0.19,130.112,60.6208)">
                                    <g>
                                        <g>
                                            <path d="M33.86,24.828C33.86,25.51 33.519,25.851 32.837,25.851C32.026,25.851 30.22,24.455 27.417,21.662C23.186,17.431 19.674,12.417 16.882,6.619C12.384,-2.664 10.135,-13.305 10.135,-25.306C10.135,-36.837 12.283,-47.239 16.578,-56.512C20.127,-64.079 24.63,-70.148 30.086,-74.72C31.515,-75.882 32.431,-76.463 32.837,-76.463C33.519,-76.463 33.86,-76.122 33.86,-75.44C33.86,-75.099 33.417,-74.518 32.533,-73.697C21.555,-62.517 16.066,-46.387 16.066,-25.306C16.066,-4.3 21.422,11.66 32.133,22.574C33.284,23.735 33.86,24.487 33.86,24.828Z" style="fill-rule:nonzero;"/>
                                        </g>
                                    </g>
                                </g>
                                <g transform="matrix(0.19,0,0,0.19,137.673,60.6208)">
                                    <g>
                                        <g>
                                            <path d="M67.623,-23.26L11.862,-23.26C9.688,-23.26 8.563,-23.942 8.489,-25.306C8.489,-26.67 9.613,-27.352 11.862,-27.352L67.623,-27.352C69.808,-27.352 70.937,-26.67 71.012,-25.306C71.012,-23.942 69.882,-23.26 67.623,-23.26Z" style="fill-rule:nonzero;"/>
                                        </g>
                                    </g>
                                </g>
                                <g transform="matrix(0.19,0,0,0.19,152.795,60.6208)">
                                    <g>
                                        <g>
                                            <path d="M16.674,-46.488L29.367,-38.303C36.114,-42.257 39.487,-47.032 39.487,-52.627C39.487,-57.124 37.441,-60.636 33.348,-63.162C30.961,-64.59 28.339,-65.304 25.482,-65.304C20.569,-65.304 16.711,-63.77 13.909,-60.7L13.812,-60.604C12.31,-58.835 11.558,-56.89 11.558,-54.769C11.558,-51.497 13.264,-48.737 16.674,-46.488ZM31.621,-36.768C36.865,-33.496 40.068,-31.242 41.229,-30.006C41.432,-29.878 41.602,-29.707 41.741,-29.495C45.087,-25.817 46.76,-21.624 46.76,-16.913C46.76,-10.849 44.235,-5.904 39.183,-2.078C35.229,0.992 30.662,2.527 25.482,2.527C19.002,2.527 13.647,0.512 9.416,-3.516C6.006,-6.788 4.3,-10.673 4.3,-15.171C4.3,-22.812 9.208,-29.089 19.024,-34.003C14.803,-36.869 12.315,-38.713 11.558,-39.534C8.563,-42.87 7.066,-46.621 7.066,-50.788C7.066,-56.245 9.347,-60.678 13.909,-64.089C17.319,-66.604 21.209,-67.862 25.578,-67.862C31.515,-67.862 36.321,-65.986 39.998,-62.235C42.663,-59.507 43.995,-56.304 43.995,-52.627C43.995,-46.285 39.87,-40.999 31.621,-36.768ZM21.39,-32.468C13.748,-27.693 9.757,-21.928 9.416,-15.171C9.416,-10.193 11.564,-6.239 15.859,-3.308C18.725,-1.326 21.965,-0.335 25.578,-0.335C30.897,-0.335 35.16,-2.008 38.368,-5.355C40.552,-7.678 41.645,-10.305 41.645,-13.236C41.645,-17.19 39.46,-20.702 35.091,-23.771C34.952,-23.835 34.579,-24.075 33.971,-24.49L21.39,-32.468Z" style="fill-rule:nonzero;"/>
                                        </g>
                                    </g>
                                </g>
                                <g transform="matrix(0.19,0,0,0.19,162.515,60.6208)">
                                    <g>
                                        <g>
                                            <rect x="9.928" y="-8.216" width="8.489" height="8.489" style="fill-rule:nonzero;"/>
                                        </g>
                                    </g>
                                </g>
                                <g transform="matrix(0.19,0,0,0.19,167.917,60.6208)">
                                    <g>
                                        <g>
                                            <path d="M13.508,-33.283C16.301,-40.04 20.564,-43.418 26.298,-43.418C32.575,-43.418 37.723,-40.823 41.741,-35.633C43.99,-32.841 45.492,-29.569 46.249,-25.817C46.59,-24.112 46.76,-22.375 46.76,-20.606C46.76,-13.028 44.133,-6.953 38.879,-2.381C35.064,0.891 30.662,2.527 25.675,2.527C18.725,2.527 13.306,-0.783 9.416,-7.401C6.006,-13.337 4.3,-21.554 4.3,-32.052C4.3,-43.861 7.642,-53.24 14.324,-60.189C19.301,-65.304 24.928,-67.862 31.206,-67.862C37.142,-67.862 41.133,-65.784 43.179,-61.627C43.862,-60.199 44.203,-58.595 44.203,-56.815C44.203,-54.087 42.94,-52.483 40.414,-52.004C40.073,-51.94 39.764,-51.907 39.487,-51.907C37.312,-51.907 35.847,-52.861 35.091,-54.769C34.888,-55.313 34.787,-55.926 34.787,-56.608C34.787,-59.677 36.662,-61.212 40.414,-61.212C38.645,-63.94 35.644,-65.304 31.413,-65.304C26.639,-65.304 22.615,-63.157 19.343,-58.862C15.453,-53.746 13.508,-46.04 13.508,-35.745L13.508,-33.283ZM25.675,-0.335C30.247,-0.335 33.625,-2.552 35.81,-6.985C36.971,-9.447 37.552,-14.019 37.552,-20.702C37.552,-27.523 36.939,-32.196 35.714,-34.722C33.593,-38.953 30.417,-41.068 26.186,-41.068C20.804,-41.068 17.089,-37.86 15.043,-31.445C14.159,-28.78 13.716,-25.914 13.716,-22.844C13.716,-16.162 14.329,-11.217 15.555,-8.009C16.845,-4.875 18.854,-2.626 21.582,-1.262C22.882,-0.644 24.246,-0.335 25.675,-0.335Z" style="fill-rule:nonzero;"/>
                                        </g>
                                    </g>
                                </g>
                                <g transform="matrix(0.19,0,0,0.19,177.637,60.6208)">
                                    <g>
                                        <g>
                                            <path d="M13.508,-33.283C16.301,-40.04 20.564,-43.418 26.298,-43.418C32.575,-43.418 37.723,-40.823 41.741,-35.633C43.99,-32.841 45.492,-29.569 46.249,-25.817C46.59,-24.112 46.76,-22.375 46.76,-20.606C46.76,-13.028 44.133,-6.953 38.879,-2.381C35.064,0.891 30.662,2.527 25.675,2.527C18.725,2.527 13.306,-0.783 9.416,-7.401C6.006,-13.337 4.3,-21.554 4.3,-32.052C4.3,-43.861 7.642,-53.24 14.324,-60.189C19.301,-65.304 24.928,-67.862 31.206,-67.862C37.142,-67.862 41.133,-65.784 43.179,-61.627C43.862,-60.199 44.203,-58.595 44.203,-56.815C44.203,-54.087 42.94,-52.483 40.414,-52.004C40.073,-51.94 39.764,-51.907 39.487,-51.907C37.312,-51.907 35.847,-52.861 35.091,-54.769C34.888,-55.313 34.787,-55.926 34.787,-56.608C34.787,-59.677 36.662,-61.212 40.414,-61.212C38.645,-63.94 35.644,-65.304 31.413,-65.304C26.639,-65.304 22.615,-63.157 19.343,-58.862C15.453,-53.746 13.508,-46.04 13.508,-35.745L13.508,-33.283ZM25.675,-0.335C30.247,-0.335 33.625,-2.552 35.81,-6.985C36.971,-9.447 37.552,-14.019 37.552,-20.702C37.552,-27.523 36.939,-32.196 35.714,-34.722C33.593,-38.953 30.417,-41.068 26.186,-41.068C20.804,-41.068 17.089,-37.86 15.043,-31.445C14.159,-28.78 13.716,-25.914 13.716,-22.844C13.716,-16.162 14.329,-11.217 15.555,-8.009C16.845,-4.875 18.854,-2.626 21.582,-1.262C22.882,-0.644 24.246,-0.335 25.675,-0.335Z" style="fill-rule:nonzero;"/>
                                        </g>
                                    </g>
                                </g>
                                <g transform="matrix(0.19,0,0,0.19,187.357,60.6208)">
                                    <g>
                                        <g>
                                            <path d="M20.767,0.177C20.767,6.784 18.619,12.582 14.324,17.57C13.162,18.934 12.208,19.749 11.462,20.016C10.78,20.016 10.439,19.643 10.439,18.897C10.439,18.556 10.812,18.007 11.558,17.25C15.651,13.158 17.937,8.149 18.416,2.223C18.481,1.541 18.513,0.859 18.513,0.177C18.513,-0.847 18.449,-1.358 18.32,-1.358C18.246,-1.358 18.075,-1.257 17.809,-1.054C16.85,-0.17 15.656,0.272 14.228,0.272C11.702,0.272 10.029,-0.889 9.208,-3.213C8.931,-3.82 8.793,-4.465 8.793,-5.147C8.793,-7.609 9.853,-9.282 11.974,-10.167C12.656,-10.433 13.407,-10.567 14.228,-10.567C17.223,-10.567 19.232,-8.59 20.255,-4.635C20.596,-3.207 20.767,-1.603 20.767,0.177Z" style="fill-rule:nonzero;"/>
                                        </g>
                                    </g>
                                </g>
                                <g transform="matrix(0.19,0,0,0.19,195.992,60.6208)">
                                    <g>
                                        <g>
                                            <path d="M45.945,-20.286C45.945,-13.263 43.318,-7.465 38.064,-2.893C33.833,0.72 29.021,2.527 23.628,2.527C17.361,2.527 12.384,-0.101 8.697,-5.355C6.309,-8.701 5.116,-12.314 5.116,-16.194C5.116,-19.338 6.512,-21.112 9.304,-21.517C9.581,-21.592 9.858,-21.629 10.135,-21.629C12.651,-21.629 14.287,-20.499 15.043,-18.24C15.182,-17.697 15.251,-17.153 15.251,-16.609C15.251,-14.425 14.292,-12.922 12.374,-12.101C11.692,-11.76 10.946,-11.59 10.135,-11.59C9.379,-11.59 8.798,-11.659 8.393,-11.797C9.619,-7.502 12.246,-4.3 16.274,-2.189C18.523,-0.953 20.91,-0.335 23.436,-0.335C27.998,-0.335 31.643,-2.552 34.371,-6.985C36.012,-9.852 36.833,-14.526 36.833,-21.006C36.833,-26.739 36.22,-31.04 34.994,-33.906C33.087,-38.266 30.188,-40.445 26.298,-40.445C20.767,-40.445 16.365,-38.058 13.093,-33.283C12.688,-32.676 12.246,-32.372 11.766,-32.372C10.881,-32.372 10.402,-32.846 10.328,-33.795L10.328,-65.304C10.328,-66.881 10.669,-67.702 11.351,-67.766C11.628,-67.766 12.038,-67.665 12.582,-67.462C16.877,-65.554 21.412,-64.6 26.186,-64.6C31.099,-64.6 35.741,-65.586 40.11,-67.558C40.451,-67.761 40.723,-67.862 40.925,-67.862C41.608,-67.862 41.949,-67.489 41.949,-66.743C41.949,-65.858 40.856,-64.425 38.671,-62.443C34.035,-58.212 28.547,-56.096 22.205,-56.096C19.338,-56.096 16.439,-56.544 13.508,-57.439L13.508,-37.487C17.057,-40.962 21.39,-42.699 26.505,-42.699C32.506,-42.699 37.451,-40.072 41.341,-34.818C44.41,-30.661 45.945,-25.817 45.945,-20.286Z" style="fill-rule:nonzero;"/>
                                        </g>
                                    </g>
                                </g>
                                <g transform="matrix(0.19,0,0,0.19,205.712,60.6208)">
                                    <g>
                                        <g>
                                            <path d="M29.575,-25.306C29.575,-13.774 27.422,-3.372 23.117,5.9C19.578,13.467 15.08,19.536 9.624,24.108C8.185,25.27 7.263,25.851 6.858,25.851C6.176,25.851 5.835,25.51 5.835,24.828C5.835,24.487 6.277,23.906 7.162,23.085C18.14,11.905 23.628,-4.225 23.628,-25.306C23.628,-46.11 18.513,-61.867 8.281,-72.578L7.769,-73.089C6.48,-74.315 5.835,-75.099 5.835,-75.44C5.835,-76.122 6.176,-76.463 6.858,-76.463C7.679,-76.463 9.485,-75.066 12.278,-72.274C16.509,-68.043 20.02,-63.029 22.813,-57.231C27.321,-47.948 29.575,-37.307 29.575,-25.306Z" style="fill-rule:nonzero;"/>
                                        </g>
                                    </g>
                                </g>
                            </g>
                        </g>
                    </g>
                </g>
            </g>
        </g>
    </g>
</svg>
