<?xml version="1.0" encoding="UTF-8" standalone="no"?>
<!DOCTYPE svg PUBLIC "-//W3C//DTD SVG 1.1//EN" "http://www.w3.org/Graphics/SVG/1.1/DTD/svg11.dtd">
<svg width="100%" height="100%" viewBox="0 0 233 137" version="1.1" xmlns="http://www.w3.org/2000/svg" xmlns:xlink="http://www.w3.org/1999/xlink" xml:space="preserve" xmlns:serif="http://www.serif.com/" style="fill-rule:evenodd;clip-rule:evenodd;stroke-linecap:round;stroke-linejoin:round;stroke-miterlimit:10;">
    <g transform="matrix(1,0,0,1,-498,-353)">
        <g id="Artboard2" transform="matrix(0.825538,0,0,0.938963,-601.307,-247.793)">
            <rect x="1332.5" y="640.454" width="280.864" height="145.207" style="fill:none;"/>
            <g transform="matrix(1.21133,0,0,1.065,1341.72,755.556)">
                <path d="M183.794,21.645L183.794,11.616C183.808,10.927 183.956,10.248 184.229,9.615C184.503,8.982 184.896,8.409 185.388,7.927C185.881,7.444 186.462,7.062 187.1,6.802C187.738,6.541 188.42,6.407 189.109,6.407C189.798,6.407 190.481,6.541 191.119,6.802C191.757,7.062 192.338,7.444 192.83,7.927C193.322,8.409 193.716,8.982 193.989,9.615C194.262,10.248 194.41,10.927 194.424,11.616L194.424,21.645L183.794,21.645Z" style="fill:rgb(218,226,237);fill-rule:nonzero;"/>
            </g>
            <g transform="matrix(0.290719,0,0,-0.255601,1465.27,813.066)">
                <path d="M340.809,134.813L340.809,176.599C340.867,179.47 341.483,182.302 342.622,184.938C343.761,187.573 345.401,189.962 347.451,191.972C349.502,193.982 351.924,195.573 354.582,196.659C357.24,197.744 360.084,198.302 362.955,198.302C365.826,198.302 368.67,197.744 371.328,196.659C373.986,195.573 376.408,193.982 378.459,191.972C380.509,189.962 382.15,187.573 383.288,184.938C384.427,182.302 385.043,179.47 385.101,176.599L385.101,134.813" style="fill:none;fill-rule:nonzero;stroke:black;stroke-width:3px;"/>
            </g>
            <g transform="matrix(1.21133,0,0,1.065,1341.72,773.419)">
                <rect x="176.64" y="2.16" width="24.96" height="6.96" style="fill:rgb(228,228,228);"/>
            </g>
            <g transform="matrix(0.290719,0,0,-0.255601,1465.27,823.516)">
                <path d="M311,187L415,187" style="fill:none;fill-rule:nonzero;stroke:black;stroke-width:3px;"/>
            </g>
            <g transform="matrix(1.21133,0,0,1.065,1341.72,764.217)">
                <rect x="180.24" y="9.12" width="17.76" height="1.68" style="fill:white;stroke:black;stroke-width:0.72px;"/>
            </g>
            <g transform="matrix(0,-1.065,-1.21133,0,1590.57,969.465)">
                <path d="M189.12,14.4C190.18,14.4 191.04,15.26 191.04,16.32C191.04,17.38 190.18,18.24 189.12,18.24C188.06,18.24 187.2,17.38 187.2,16.32C187.2,15.26 188.06,14.4 189.12,14.4" style="fill-rule:nonzero;stroke:black;stroke-width:0.14px;stroke-linecap:butt;"/>
            </g>
            <g transform="matrix(0,-1.065,-1.21133,0,1474.29,713.863)">
                <path d="M21.12,80.4C25.494,80.4 29.04,83.946 29.04,88.32C29.04,92.694 25.494,96.24 21.12,96.24C16.746,96.24 13.2,92.694 13.2,88.32C13.2,83.946 16.746,80.4 21.12,80.4" style="fill:rgb(240,248,255);fill-rule:nonzero;stroke:black;stroke-width:1px;stroke-linecap:butt;"/>
            </g>
            <g transform="matrix(1.21133,0,0,1.065,1341.72,673.971)">
                <path d="M193.109,88.329C193.109,90.538 191.318,92.329 189.109,92.329C186.9,92.329 185.109,90.538 185.109,88.329L185.109,20.329L21.109,20.329C18.9,20.329 17.109,18.538 17.109,16.329C17.109,14.12 18.9,12.329 21.109,12.329L189.109,12.329C190.17,12.329 191.188,12.75 191.938,13.5C192.688,14.25 193.109,15.268 193.109,16.329L193.109,88.329" style="fill:rgb(228,228,228);fill-rule:nonzero;stroke:black;stroke-width:1.01px;"/>
            </g>
            <g transform="matrix(0,-1.065,-1.21133,0,1590.57,969.465)">
                <path d="M189.12,14.64C190.048,14.64 190.8,15.392 190.8,16.32C190.8,17.248 190.048,18 189.12,18C188.192,18 187.44,17.248 187.44,16.32C187.44,15.392 188.192,14.64 189.12,14.64" style="fill-rule:nonzero;stroke:black;stroke-width:0.14px;stroke-linecap:butt;"/>
            </g>
            <g transform="matrix(0,-1.065,-1.21133,0,1474.29,713.863)">
                <path d="M21.12,86.64C22.048,86.64 22.8,87.392 22.8,88.32C22.8,89.248 22.048,90 21.12,90C20.192,90 19.44,89.248 19.44,88.32C19.44,87.392 20.192,86.64 21.12,86.64" style="fill-rule:nonzero;stroke:black;stroke-width:0.14px;stroke-linecap:butt;"/>
            </g>
            <g transform="matrix(0,-1.065,-1.21133,0,1561.5,790.544)">
                <path d="M93.12,86.64C94.048,86.64 94.8,87.392 94.8,88.32C94.8,89.248 94.048,90 93.12,90C92.192,90 91.44,89.248 91.44,88.32C91.44,87.392 92.192,86.64 93.12,86.64" style="fill-rule:nonzero;stroke:black;stroke-width:0.14px;stroke-linecap:butt;"/>
            </g>
            <g transform="matrix(0,-1.065,-1.21133,0,1634.18,931.124)">
                <path d="M189.12,50.64C190.048,50.64 190.8,51.392 190.8,52.32C190.8,53.248 190.048,54 189.12,54C188.192,54 187.44,53.248 187.44,52.32C187.44,51.392 188.192,50.64 189.12,50.64" style="fill-rule:nonzero;"/>
            </g>
            <g transform="matrix(1.21133,0,0,1.065,1340.8,604.975)">
                <path d="M2.181,64.329L25.728,105.113L2.181,105.113L2.181,64.329Z" style="fill:rgb(228,228,228);fill-rule:nonzero;"/>
            </g>
            <g transform="matrix(1.21133,0,0,1.065,-318.548,-1.59792)">
                <path d="M1372.04,633.879L1395.59,674.663" style="fill:none;stroke:rgb(128,128,128);stroke-width:1.5px;stroke-linejoin:miter;stroke-miterlimit:1.5;"/>
            </g>
            <g transform="matrix(0.290719,0,0,-0.255601,1465.27,662.485)">
                <path d="M-415.912,-43.036L-317.8,-212.972M-415.912,-212.972L-415.912,-212.972" style="fill:none;fill-rule:nonzero;"/>
            </g>
            <g transform="matrix(1.21133,0,0,1.59751,-318.548,-348.082)">
                <g transform="matrix(1,-0,-0,0.666667,1362.28,618.42)">
                    <path d="M104.453,39.378L101.453,48.378L98.453,39.378L104.453,39.378Z" style="fill:rgb(225,32,32);"/>
                    <path d="M101.453,12.378L101.453,41.178" style="fill:none;stroke:rgb(225,32,32);stroke-width:2px;stroke-linejoin:miter;stroke-miterlimit:1.5;"/>
                </g>
            </g>
            <g transform="matrix(1.21133,0,0,1.065,-318.548,-1.59792)">
                <path d="M1391.73,626.672L1391.73,638.672" style="fill:none;stroke:black;stroke-width:0.65px;stroke-miterlimit:1.5;"/>
            </g>
            <g transform="matrix(1.21133,0,0,1.065,-318.548,-1.59792)">
                <path d="M1559.73,644.672L1559.73,626.672" style="fill:none;stroke:black;stroke-width:0.65px;stroke-miterlimit:1.5;"/>
            </g>
            <g transform="matrix(1.21133,0,0,1.065,-318.548,-1.59792)">
                <path d="M1565.73,650.672L1577.73,650.672" style="fill:none;stroke:black;stroke-width:0.65px;stroke-miterlimit:1.5;"/>
            </g>
            <g transform="matrix(1.21133,0,0,1.065,-318.548,-1.59792)">
                <path d="M1565.73,686.672L1577.73,686.672" style="fill:none;stroke:black;stroke-width:0.65px;stroke-miterlimit:1.5;"/>
            </g>
            <g transform="matrix(1.41189,0,0,1.065,-634.978,-1.59792)">
                <path d="M1568.61,722.672L1577.73,722.672" style="fill:none;stroke:black;stroke-width:0.6px;stroke-miterlimit:1.5;"/>
            </g>
            <g transform="matrix(1.21133,0,0,1.065,1527.2,600.24)">
                <rect x="24" y="108" width="24" height="24" style="fill:none;"/>
                <clipPath id="_clip1">
                    <rect x="24" y="108" width="24" height="24"/>
                </clipPath>
                <g clip-path="url(#_clip1)">
                    <g transform="matrix(0.586478,0,0.00921313,0.586478,-17.9657,42.8119)">
                        <g transform="matrix(1.70509,-0,-0.0267858,1.70509,-244.509,-9.58545)">
                            <path d="M204.258,85.927L203.334,76.485L209.738,83.484L204.258,85.927Z" style="fill:rgb(225,32,32);"/>
                            <path d="M186.935,83.322C187.019,88.662 191.416,92.992 196.756,92.992C202.092,92.992 206.357,88.659 206.273,83.322C206.272,83.235 206.269,83.148 206.265,83.061" style="fill:none;stroke:rgb(225,32,32);stroke-width:2px;stroke-linejoin:miter;stroke-miterlimit:1.5;"/>
                        </g>
                    </g>
                </g>
            </g>
            <g transform="matrix(1.21133,0,0,1.065,-318.548,-1.59792)">
                <g transform="matrix(1,-0,-0,1,1362.28,602.294)">
                    <path d="M31.703,29.628L29.453,30.378L31.703,31.128L31.703,29.628Z"/>
                    <path d="M99.203,29.628L101.453,30.378L99.203,31.128L99.203,29.628Z"/>
                    <path d="M31.253,30.378L99.653,30.378" style="fill:none;stroke:black;stroke-width:0.5px;stroke-miterlimit:1.5;"/>
                </g>
            </g>
            <g transform="matrix(1.21133,0,0,1.065,-318.548,-1.59792)">
                <g transform="matrix(1,-0,-0,1,1362.28,602.294)">
                    <path d="M105.383,29.628L103.133,30.378L105.383,31.128L105.383,29.628Z"/>
                    <path d="M195.193,29.628L197.443,30.378L195.193,31.128L195.193,29.628Z"/>
                    <path d="M104.933,30.378L195.643,30.378" style="fill:none;stroke:black;stroke-width:0.5px;stroke-miterlimit:1.5;"/>
                </g>
            </g>
            <g transform="matrix(1.21133,0,0,1.065,-318.548,-1.59792)">
                <g transform="matrix(1,-0,-0,1,1362.28,602.294)">
                    <path d="M210.203,50.628L209.453,48.378L208.703,50.628L210.203,50.628Z"/>
                    <path d="M210.203,82.12L209.453,84.37L208.703,82.12L210.203,82.12Z"/>
                    <path d="M209.453,50.178L209.453,82.57" style="fill:none;stroke:black;stroke-width:0.5px;stroke-miterlimit:1.5;"/>
                </g>
            </g>
            <g transform="matrix(1.21133,0,0,1.065,-318.548,-1.59792)">
                <g transform="matrix(1,-0,-0,1,1362.28,602.294)">
                    <path d="M210.203,86.62L209.453,84.37L208.703,86.62L210.203,86.62Z"/>
                    <path d="M210.203,118.12L209.453,120.37L208.703,118.12L210.203,118.12Z"/>
                    <path d="M209.453,86.17L209.453,118.57" style="fill:none;stroke:black;stroke-width:0.5px;stroke-miterlimit:1.5;"/>
                </g>
            </g>
            <g transform="matrix(1.21133,0,0,1.4684,-311.881,-394.02)">
                <g transform="matrix(1,0,0,0.725284,22.3628,215.025)">
                    <rect x="1391.73" y="698.672" width="16.267" height="12" style="fill:white;"/>
                    <path d="M1408,698.672L1391.73,698.672L1391.73,710.672L1408,710.672L1408,698.672ZM1407,699.672L1407,709.672C1407,709.672 1392.73,709.672 1392.73,709.672C1392.73,709.672 1392.73,699.672 1392.73,699.672L1407,699.672Z" style="fill:white;"/>
                </g>
                <g transform="matrix(1,0,0,0.725284,-1.63724,216.113)">
                    <g transform="matrix(10,0,0,10,1415.73,705.672)">
                        <path d="M0.042,-0.135C0.042,-0.155 0.048,-0.169 0.059,-0.179C0.07,-0.188 0.083,-0.193 0.098,-0.193C0.113,-0.193 0.127,-0.188 0.137,-0.178C0.148,-0.168 0.154,-0.154 0.154,-0.137C0.154,-0.119 0.147,-0.104 0.135,-0.094C0.122,-0.083 0.106,-0.079 0.088,-0.082C0.104,-0.055 0.127,-0.036 0.156,-0.024C0.185,-0.012 0.214,-0.006 0.241,-0.006C0.27,-0.006 0.296,-0.018 0.319,-0.043C0.342,-0.068 0.354,-0.11 0.354,-0.171C0.354,-0.222 0.344,-0.263 0.324,-0.292C0.304,-0.322 0.274,-0.337 0.235,-0.337L0.191,-0.337C0.181,-0.337 0.174,-0.337 0.171,-0.338C0.168,-0.339 0.167,-0.343 0.167,-0.348C0.167,-0.355 0.172,-0.359 0.182,-0.36C0.192,-0.36 0.205,-0.361 0.221,-0.363C0.26,-0.364 0.29,-0.382 0.31,-0.415C0.329,-0.446 0.338,-0.484 0.338,-0.529C0.338,-0.569 0.328,-0.598 0.309,-0.615C0.289,-0.633 0.267,-0.641 0.242,-0.641C0.219,-0.641 0.194,-0.636 0.168,-0.626C0.143,-0.617 0.123,-0.601 0.109,-0.579C0.15,-0.579 0.171,-0.562 0.171,-0.529C0.171,-0.514 0.166,-0.502 0.157,-0.492C0.148,-0.483 0.135,-0.478 0.12,-0.478C0.105,-0.478 0.093,-0.483 0.083,-0.492C0.074,-0.501 0.069,-0.514 0.069,-0.53C0.069,-0.568 0.086,-0.6 0.12,-0.626C0.154,-0.653 0.196,-0.666 0.246,-0.666C0.296,-0.666 0.339,-0.653 0.375,-0.627C0.412,-0.601 0.43,-0.568 0.43,-0.528C0.43,-0.488 0.417,-0.453 0.391,-0.42C0.365,-0.388 0.331,-0.365 0.29,-0.352C0.341,-0.342 0.381,-0.32 0.412,-0.285C0.442,-0.251 0.457,-0.213 0.457,-0.171C0.457,-0.119 0.437,-0.074 0.396,-0.035C0.354,0.003 0.304,0.022 0.244,0.022C0.189,0.022 0.141,0.007 0.102,-0.023C0.062,-0.053 0.042,-0.09 0.042,-0.135Z" style="fill-rule:nonzero;"/>
                    </g>
                    <g transform="matrix(10,0,0,10,1424.06,705.672)">
                        <path d="M0.033,-0.4L0.033,-0.431L0.112,-0.431L0.112,-0.546C0.112,-0.595 0.128,-0.634 0.16,-0.663C0.192,-0.691 0.228,-0.705 0.267,-0.705C0.293,-0.705 0.315,-0.698 0.332,-0.684C0.348,-0.67 0.357,-0.654 0.357,-0.635C0.357,-0.622 0.353,-0.612 0.345,-0.603C0.338,-0.595 0.327,-0.591 0.313,-0.591C0.3,-0.591 0.289,-0.595 0.281,-0.604C0.274,-0.612 0.27,-0.622 0.27,-0.634C0.27,-0.655 0.28,-0.669 0.3,-0.676C0.29,-0.68 0.279,-0.683 0.267,-0.683C0.243,-0.683 0.222,-0.671 0.203,-0.646C0.184,-0.621 0.175,-0.588 0.175,-0.547L0.175,-0.431L0.292,-0.431L0.292,-0.4L0.178,-0.4L0.178,-0.078C0.178,-0.059 0.182,-0.046 0.19,-0.04C0.198,-0.034 0.219,-0.031 0.254,-0.031L0.275,-0.031L0.275,-0C0.248,-0.002 0.206,-0.003 0.148,-0.003C0.14,-0.003 0.129,-0.003 0.117,-0.002C0.104,-0.002 0.09,-0.002 0.073,-0.001C0.056,-0 0.043,-0 0.034,-0L0.034,-0.031C0.07,-0.031 0.091,-0.033 0.1,-0.037C0.108,-0.042 0.112,-0.055 0.112,-0.076L0.112,-0.4L0.033,-0.4Z" style="fill-rule:nonzero;"/>
                    </g>
                    <g transform="matrix(10,0,0,10,1427.11,705.672)">
                        <path d="M0.019,-0.4L0.019,-0.422C0.05,-0.423 0.075,-0.435 0.095,-0.456C0.116,-0.478 0.129,-0.502 0.136,-0.529C0.143,-0.556 0.147,-0.584 0.148,-0.615L0.173,-0.615L0.173,-0.431L0.316,-0.431L0.316,-0.4L0.173,-0.4L0.173,-0.122C0.173,-0.05 0.195,-0.014 0.24,-0.014C0.259,-0.014 0.275,-0.024 0.288,-0.044C0.301,-0.063 0.307,-0.091 0.307,-0.126L0.307,-0.181L0.332,-0.181L0.332,-0.124C0.332,-0.088 0.324,-0.056 0.307,-0.029C0.291,-0.002 0.266,0.011 0.233,0.011C0.221,0.011 0.209,0.01 0.197,0.007C0.185,0.003 0.171,-0.002 0.156,-0.01C0.141,-0.018 0.128,-0.032 0.118,-0.052C0.109,-0.071 0.104,-0.095 0.104,-0.124L0.104,-0.4L0.019,-0.4Z" style="fill-rule:nonzero;"/>
                    </g>
                </g>
            </g>
            <g transform="matrix(1.21133,0,0,1.065,-277.651,-102.241)">
                <g transform="matrix(10,0,0,10,1415.73,705.672)">
                    <path d="M0.05,-0C0.05,-0.012 0.05,-0.02 0.052,-0.023C0.053,-0.027 0.056,-0.032 0.061,-0.037L0.253,-0.251C0.323,-0.33 0.358,-0.403 0.358,-0.472C0.358,-0.517 0.346,-0.555 0.323,-0.587C0.3,-0.619 0.267,-0.635 0.224,-0.635C0.195,-0.635 0.168,-0.626 0.143,-0.608C0.118,-0.59 0.1,-0.565 0.089,-0.533C0.091,-0.534 0.095,-0.534 0.102,-0.534C0.119,-0.534 0.132,-0.529 0.141,-0.519C0.15,-0.508 0.155,-0.496 0.155,-0.482C0.155,-0.464 0.149,-0.451 0.137,-0.442C0.126,-0.434 0.114,-0.429 0.103,-0.429C0.098,-0.429 0.093,-0.43 0.087,-0.431C0.081,-0.432 0.073,-0.437 0.064,-0.446C0.055,-0.455 0.05,-0.468 0.05,-0.485C0.05,-0.531 0.067,-0.573 0.103,-0.61C0.138,-0.647 0.183,-0.666 0.237,-0.666C0.298,-0.666 0.349,-0.648 0.389,-0.612C0.429,-0.575 0.449,-0.529 0.449,-0.472C0.449,-0.452 0.446,-0.433 0.44,-0.415C0.434,-0.397 0.427,-0.381 0.419,-0.367C0.411,-0.353 0.396,-0.335 0.375,-0.313C0.354,-0.29 0.334,-0.271 0.317,-0.255C0.3,-0.239 0.272,-0.214 0.233,-0.18L0.127,-0.077L0.307,-0.077C0.366,-0.077 0.397,-0.08 0.402,-0.085C0.408,-0.094 0.416,-0.124 0.424,-0.174L0.449,-0.174L0.421,-0L0.05,-0Z" style="fill-rule:nonzero;"/>
                </g>
                <g transform="matrix(10,0,0,10,1420.73,705.672)">
                    <path d="M0.05,-0.161C0.05,-0.181 0.055,-0.195 0.066,-0.202C0.077,-0.21 0.088,-0.214 0.099,-0.214C0.114,-0.214 0.127,-0.209 0.135,-0.199C0.144,-0.19 0.149,-0.178 0.149,-0.165C0.149,-0.152 0.144,-0.14 0.135,-0.131C0.127,-0.121 0.114,-0.116 0.099,-0.116C0.092,-0.116 0.086,-0.117 0.082,-0.118C0.091,-0.088 0.109,-0.061 0.135,-0.039C0.162,-0.017 0.194,-0.006 0.229,-0.006C0.274,-0.006 0.309,-0.028 0.336,-0.071C0.352,-0.099 0.36,-0.145 0.36,-0.208C0.36,-0.264 0.354,-0.306 0.342,-0.334C0.323,-0.377 0.295,-0.398 0.257,-0.398C0.203,-0.398 0.16,-0.375 0.128,-0.328C0.124,-0.322 0.12,-0.319 0.115,-0.319C0.109,-0.319 0.105,-0.321 0.103,-0.324C0.102,-0.328 0.101,-0.335 0.101,-0.345L0.101,-0.641C0.101,-0.657 0.104,-0.665 0.111,-0.665C0.113,-0.665 0.118,-0.664 0.123,-0.662C0.165,-0.644 0.209,-0.634 0.256,-0.634C0.304,-0.634 0.349,-0.644 0.392,-0.663C0.395,-0.665 0.398,-0.666 0.4,-0.666C0.406,-0.666 0.41,-0.662 0.41,-0.655C0.41,-0.652 0.407,-0.647 0.402,-0.639C0.397,-0.632 0.388,-0.623 0.377,-0.613C0.366,-0.603 0.353,-0.593 0.338,-0.584C0.323,-0.575 0.305,-0.567 0.284,-0.56C0.263,-0.554 0.24,-0.551 0.217,-0.551C0.189,-0.551 0.16,-0.555 0.132,-0.564L0.132,-0.369C0.166,-0.403 0.209,-0.42 0.259,-0.42C0.312,-0.42 0.357,-0.398 0.394,-0.355C0.431,-0.313 0.449,-0.261 0.449,-0.201C0.449,-0.138 0.427,-0.085 0.384,-0.042C0.341,0 0.29,0.022 0.231,0.022C0.178,0.022 0.134,0.003 0.1,-0.035C0.067,-0.073 0.05,-0.115 0.05,-0.161Z" style="fill-rule:nonzero;"/>
                </g>
                <g transform="matrix(10,0,0,10,1425.73,705.672)">
                    <path d="M0.039,-0.32C0.039,-0.418 0.051,-0.493 0.076,-0.547C0.111,-0.626 0.169,-0.666 0.25,-0.666C0.267,-0.666 0.285,-0.664 0.303,-0.659C0.321,-0.654 0.342,-0.643 0.365,-0.625C0.387,-0.607 0.406,-0.583 0.42,-0.554C0.447,-0.498 0.46,-0.419 0.46,-0.32C0.46,-0.222 0.448,-0.147 0.423,-0.094C0.387,-0.017 0.329,0.022 0.249,0.022C0.219,0.022 0.189,0.014 0.158,-0.001C0.128,-0.016 0.103,-0.042 0.084,-0.079C0.054,-0.134 0.039,-0.214 0.039,-0.32ZM0.122,-0.332C0.122,-0.231 0.126,-0.161 0.133,-0.121C0.141,-0.078 0.156,-0.047 0.178,-0.028C0.201,-0.009 0.224,-0 0.249,-0C0.276,-0 0.3,-0.01 0.323,-0.03C0.345,-0.05 0.359,-0.082 0.366,-0.125C0.374,-0.168 0.377,-0.237 0.377,-0.332C0.377,-0.425 0.374,-0.49 0.367,-0.527C0.358,-0.57 0.342,-0.601 0.319,-0.618C0.296,-0.635 0.272,-0.644 0.249,-0.644C0.24,-0.644 0.231,-0.643 0.222,-0.64C0.213,-0.638 0.201,-0.632 0.188,-0.625C0.175,-0.618 0.163,-0.604 0.153,-0.586C0.142,-0.567 0.135,-0.544 0.13,-0.516C0.125,-0.48 0.122,-0.419 0.122,-0.332Z" style="fill-rule:nonzero;"/>
                </g>
                <g transform="matrix(10,0,0,10,1434.06,705.672)">
                    <path d="M0.033,-0L0.033,-0.031C0.069,-0.031 0.09,-0.033 0.099,-0.037C0.107,-0.042 0.111,-0.055 0.111,-0.076L0.111,-0.596C0.111,-0.621 0.107,-0.636 0.098,-0.643C0.089,-0.649 0.068,-0.652 0.033,-0.652L0.033,-0.683L0.177,-0.694L0.177,-0.076C0.177,-0.055 0.181,-0.042 0.189,-0.037C0.198,-0.033 0.22,-0.031 0.255,-0.031L0.255,-0C0.247,-0 0.234,-0 0.217,-0.001C0.2,-0.002 0.186,-0.002 0.173,-0.002C0.161,-0.003 0.151,-0.003 0.144,-0.003C0.136,-0.003 0.099,-0.002 0.033,-0Z" style="fill-rule:nonzero;"/>
                </g>
                <g transform="matrix(10,0,0,10,1436.83,705.672)">
                    <path d="M0.028,-0.652L0.028,-0.683L0.172,-0.694L0.172,-0.377C0.211,-0.42 0.256,-0.442 0.309,-0.442C0.366,-0.442 0.416,-0.42 0.458,-0.376C0.5,-0.332 0.521,-0.279 0.521,-0.216C0.521,-0.152 0.499,-0.099 0.455,-0.055C0.411,-0.011 0.359,0.011 0.298,0.011C0.243,0.011 0.199,-0.013 0.167,-0.062C0.144,-0.021 0.132,-0.001 0.131,-0L0.106,-0L0.106,-0.596C0.106,-0.621 0.102,-0.636 0.093,-0.643C0.084,-0.649 0.062,-0.652 0.028,-0.652ZM0.175,-0.114C0.175,-0.1 0.18,-0.086 0.189,-0.072C0.215,-0.031 0.25,-0.011 0.293,-0.011L0.294,-0.011C0.34,-0.011 0.378,-0.033 0.407,-0.075C0.428,-0.107 0.438,-0.154 0.438,-0.217C0.438,-0.279 0.428,-0.325 0.409,-0.356C0.382,-0.399 0.347,-0.42 0.304,-0.42C0.255,-0.42 0.216,-0.399 0.186,-0.356C0.179,-0.345 0.175,-0.333 0.175,-0.32L0.175,-0.114Z" style="fill-rule:nonzero;"/>
                </g>
            </g>
            <g transform="matrix(1.21133,0,0,1.065,-370.561,-38.4137)">
                <g transform="matrix(10,0,0,10,1415.73,705.672)">
                    <path d="M0.042,-0.316C0.042,-0.421 0.069,-0.505 0.122,-0.57C0.175,-0.634 0.236,-0.666 0.305,-0.666C0.345,-0.666 0.376,-0.656 0.399,-0.635C0.421,-0.615 0.432,-0.589 0.432,-0.558C0.432,-0.541 0.427,-0.528 0.417,-0.521C0.407,-0.514 0.397,-0.51 0.386,-0.51C0.374,-0.51 0.363,-0.514 0.354,-0.522C0.345,-0.53 0.34,-0.542 0.34,-0.556C0.34,-0.586 0.358,-0.601 0.395,-0.601C0.378,-0.628 0.348,-0.641 0.307,-0.641C0.294,-0.641 0.282,-0.639 0.269,-0.635C0.256,-0.632 0.241,-0.624 0.224,-0.611C0.207,-0.599 0.192,-0.583 0.179,-0.563C0.166,-0.544 0.155,-0.516 0.146,-0.479C0.136,-0.442 0.132,-0.4 0.132,-0.352L0.132,-0.328C0.159,-0.394 0.201,-0.427 0.257,-0.427C0.313,-0.427 0.36,-0.405 0.399,-0.363C0.438,-0.32 0.457,-0.267 0.457,-0.204C0.457,-0.139 0.437,-0.085 0.396,-0.042C0.356,0 0.308,0.022 0.251,0.022C0.226,0.022 0.201,0.017 0.178,0.006C0.156,-0.004 0.133,-0.022 0.112,-0.046C0.091,-0.07 0.074,-0.105 0.061,-0.151C0.048,-0.198 0.042,-0.252 0.042,-0.316ZM0.134,-0.226C0.134,-0.161 0.14,-0.112 0.152,-0.081C0.154,-0.076 0.157,-0.07 0.161,-0.063C0.166,-0.055 0.172,-0.047 0.179,-0.038C0.187,-0.029 0.197,-0.021 0.21,-0.015C0.223,-0.009 0.236,-0.006 0.251,-0.006C0.296,-0.006 0.329,-0.028 0.35,-0.071C0.361,-0.095 0.367,-0.14 0.367,-0.205C0.367,-0.272 0.361,-0.317 0.349,-0.342C0.329,-0.383 0.298,-0.404 0.256,-0.404C0.228,-0.404 0.204,-0.394 0.185,-0.375C0.165,-0.356 0.152,-0.333 0.145,-0.308C0.137,-0.282 0.134,-0.255 0.134,-0.226Z" style="fill-rule:nonzero;"/>
                </g>
                <g transform="matrix(10,0,0,10,1420.73,705.672)">
                    <path d="M0.039,-0.32C0.039,-0.418 0.051,-0.493 0.076,-0.547C0.111,-0.626 0.169,-0.666 0.25,-0.666C0.267,-0.666 0.285,-0.664 0.303,-0.659C0.321,-0.654 0.342,-0.643 0.365,-0.625C0.387,-0.607 0.406,-0.583 0.42,-0.554C0.447,-0.498 0.46,-0.419 0.46,-0.32C0.46,-0.222 0.448,-0.147 0.423,-0.094C0.387,-0.017 0.329,0.022 0.249,0.022C0.219,0.022 0.189,0.014 0.158,-0.001C0.128,-0.016 0.103,-0.042 0.084,-0.079C0.054,-0.134 0.039,-0.214 0.039,-0.32ZM0.122,-0.332C0.122,-0.231 0.126,-0.161 0.133,-0.121C0.141,-0.078 0.156,-0.047 0.178,-0.028C0.201,-0.009 0.224,-0 0.249,-0C0.276,-0 0.3,-0.01 0.323,-0.03C0.345,-0.05 0.359,-0.082 0.366,-0.125C0.374,-0.168 0.377,-0.237 0.377,-0.332C0.377,-0.425 0.374,-0.49 0.367,-0.527C0.358,-0.57 0.342,-0.601 0.319,-0.618C0.296,-0.635 0.272,-0.644 0.249,-0.644C0.24,-0.644 0.231,-0.643 0.222,-0.64C0.213,-0.638 0.201,-0.632 0.188,-0.625C0.175,-0.618 0.163,-0.604 0.153,-0.586C0.142,-0.567 0.135,-0.544 0.13,-0.516C0.125,-0.48 0.122,-0.419 0.122,-0.332Z" style="fill-rule:nonzero;"/>
                </g>
                <g transform="matrix(10,0,0,10,1425.73,705.672)">
                    <path d="M0.055,-0.572C0.055,-0.602 0.066,-0.629 0.088,-0.65C0.109,-0.672 0.135,-0.683 0.166,-0.683C0.197,-0.683 0.224,-0.672 0.245,-0.65C0.266,-0.628 0.277,-0.603 0.277,-0.573C0.277,-0.543 0.266,-0.516 0.244,-0.495C0.222,-0.473 0.196,-0.462 0.166,-0.462C0.135,-0.462 0.108,-0.473 0.087,-0.495C0.066,-0.517 0.055,-0.542 0.055,-0.572ZM0.116,-0.623C0.102,-0.609 0.095,-0.592 0.095,-0.572C0.095,-0.552 0.102,-0.535 0.116,-0.522C0.13,-0.509 0.147,-0.502 0.166,-0.502C0.185,-0.502 0.202,-0.509 0.215,-0.522C0.229,-0.535 0.236,-0.552 0.236,-0.572C0.236,-0.592 0.229,-0.609 0.215,-0.623C0.201,-0.636 0.185,-0.643 0.166,-0.643C0.147,-0.643 0.13,-0.636 0.116,-0.623Z" style="fill-rule:nonzero;"/>
                </g>
            </g>
            <g transform="matrix(1.21133,0,0,1.4684,-209.221,-394.02)">
                <g transform="matrix(1,0,0,0.725284,22.3628,215.025)">
                    <rect x="1391.73" y="698.672" width="16.267" height="12" style="fill:white;"/>
                    <path d="M1408,698.672L1391.73,698.672L1391.73,710.672L1408,710.672L1408,698.672ZM1407,699.672L1407,709.672C1407,709.672 1392.73,709.672 1392.73,709.672C1392.73,709.672 1392.73,699.672 1392.73,699.672L1407,699.672Z" style="fill:white;"/>
                </g>
                <g transform="matrix(1,0,0,0.725284,0.496014,216.113)">
                    <g transform="matrix(10,0,0,10,1415.73,705.672)">
                        <path d="M0.028,-0.165L0.028,-0.196L0.335,-0.665C0.34,-0.673 0.347,-0.677 0.355,-0.677C0.362,-0.677 0.367,-0.675 0.369,-0.672C0.37,-0.669 0.371,-0.662 0.371,-0.651L0.371,-0.196L0.471,-0.196L0.471,-0.165L0.371,-0.165L0.371,-0.078C0.371,-0.059 0.375,-0.046 0.383,-0.04C0.391,-0.034 0.412,-0.031 0.447,-0.031L0.468,-0.031L0.468,-0C0.44,-0.002 0.395,-0.003 0.332,-0.003C0.269,-0.003 0.224,-0.002 0.197,-0L0.197,-0.031L0.218,-0.031C0.252,-0.031 0.274,-0.034 0.282,-0.04C0.29,-0.046 0.294,-0.059 0.294,-0.078L0.294,-0.165L0.028,-0.165ZM0.056,-0.196L0.3,-0.196L0.3,-0.569L0.056,-0.196Z" style="fill-rule:nonzero;"/>
                    </g>
                    <g transform="matrix(10,0,0,10,1424.06,705.672)">
                        <path d="M0.033,-0.4L0.033,-0.431L0.112,-0.431L0.112,-0.546C0.112,-0.595 0.128,-0.634 0.16,-0.663C0.192,-0.691 0.228,-0.705 0.267,-0.705C0.293,-0.705 0.315,-0.698 0.332,-0.684C0.348,-0.67 0.357,-0.654 0.357,-0.635C0.357,-0.622 0.353,-0.612 0.345,-0.603C0.338,-0.595 0.327,-0.591 0.313,-0.591C0.3,-0.591 0.289,-0.595 0.281,-0.604C0.274,-0.612 0.27,-0.622 0.27,-0.634C0.27,-0.655 0.28,-0.669 0.3,-0.676C0.29,-0.68 0.279,-0.683 0.267,-0.683C0.243,-0.683 0.222,-0.671 0.203,-0.646C0.184,-0.621 0.175,-0.588 0.175,-0.547L0.175,-0.431L0.292,-0.431L0.292,-0.4L0.178,-0.4L0.178,-0.078C0.178,-0.059 0.182,-0.046 0.19,-0.04C0.198,-0.034 0.219,-0.031 0.254,-0.031L0.275,-0.031L0.275,-0C0.248,-0.002 0.206,-0.003 0.148,-0.003C0.14,-0.003 0.129,-0.003 0.117,-0.002C0.104,-0.002 0.09,-0.002 0.073,-0.001C0.056,-0 0.043,-0 0.034,-0L0.034,-0.031C0.07,-0.031 0.091,-0.033 0.1,-0.037C0.108,-0.042 0.112,-0.055 0.112,-0.076L0.112,-0.4L0.033,-0.4Z" style="fill-rule:nonzero;"/>
                    </g>
                    <g transform="matrix(10,0,0,10,1427.11,705.672)">
                        <path d="M0.019,-0.4L0.019,-0.422C0.05,-0.423 0.075,-0.435 0.095,-0.456C0.116,-0.478 0.129,-0.502 0.136,-0.529C0.143,-0.556 0.147,-0.584 0.148,-0.615L0.173,-0.615L0.173,-0.431L0.316,-0.431L0.316,-0.4L0.173,-0.4L0.173,-0.122C0.173,-0.05 0.195,-0.014 0.24,-0.014C0.259,-0.014 0.275,-0.024 0.288,-0.044C0.301,-0.063 0.307,-0.091 0.307,-0.126L0.307,-0.181L0.332,-0.181L0.332,-0.124C0.332,-0.088 0.324,-0.056 0.307,-0.029C0.291,-0.002 0.266,0.011 0.233,0.011C0.221,0.011 0.209,0.01 0.197,0.007C0.185,0.003 0.171,-0.002 0.156,-0.01C0.141,-0.018 0.128,-0.032 0.118,-0.052C0.109,-0.071 0.104,-0.095 0.104,-0.124L0.104,-0.4L0.019,-0.4Z" style="fill-rule:nonzero;"/>
                    </g>
                </g>
            </g>
            <g transform="matrix(1.21133,0,0,1.065,-286.165,-5.50867)">
                <g transform="matrix(10,0,0,10,1481.73,693.672)">
                    <path d="M0.05,-0.161C0.05,-0.181 0.055,-0.195 0.066,-0.202C0.077,-0.21 0.088,-0.214 0.099,-0.214C0.114,-0.214 0.127,-0.209 0.135,-0.199C0.144,-0.19 0.149,-0.178 0.149,-0.165C0.149,-0.152 0.144,-0.14 0.135,-0.131C0.127,-0.121 0.114,-0.116 0.099,-0.116C0.092,-0.116 0.086,-0.117 0.082,-0.118C0.091,-0.088 0.109,-0.061 0.135,-0.039C0.162,-0.017 0.194,-0.006 0.229,-0.006C0.274,-0.006 0.309,-0.028 0.336,-0.071C0.352,-0.099 0.36,-0.145 0.36,-0.208C0.36,-0.264 0.354,-0.306 0.342,-0.334C0.323,-0.377 0.295,-0.398 0.257,-0.398C0.203,-0.398 0.16,-0.375 0.128,-0.328C0.124,-0.322 0.12,-0.319 0.115,-0.319C0.109,-0.319 0.105,-0.321 0.103,-0.324C0.102,-0.328 0.101,-0.335 0.101,-0.345L0.101,-0.641C0.101,-0.657 0.104,-0.665 0.111,-0.665C0.113,-0.665 0.118,-0.664 0.123,-0.662C0.165,-0.644 0.209,-0.634 0.256,-0.634C0.304,-0.634 0.349,-0.644 0.392,-0.663C0.395,-0.665 0.398,-0.666 0.4,-0.666C0.406,-0.666 0.41,-0.662 0.41,-0.655C0.41,-0.652 0.407,-0.647 0.402,-0.639C0.397,-0.632 0.388,-0.623 0.377,-0.613C0.366,-0.603 0.353,-0.593 0.338,-0.584C0.323,-0.575 0.305,-0.567 0.284,-0.56C0.263,-0.554 0.24,-0.551 0.217,-0.551C0.189,-0.551 0.16,-0.555 0.132,-0.564L0.132,-0.369C0.166,-0.403 0.209,-0.42 0.259,-0.42C0.312,-0.42 0.357,-0.398 0.394,-0.355C0.431,-0.313 0.449,-0.261 0.449,-0.201C0.449,-0.138 0.427,-0.085 0.384,-0.042C0.341,0 0.29,0.022 0.231,0.022C0.178,0.022 0.134,0.003 0.1,-0.035C0.067,-0.073 0.05,-0.115 0.05,-0.161Z" style="fill-rule:nonzero;"/>
                </g>
                <g transform="matrix(10,0,0,10,1486.73,693.672)">
                    <path d="M0.039,-0.32C0.039,-0.418 0.051,-0.493 0.076,-0.547C0.111,-0.626 0.169,-0.666 0.25,-0.666C0.267,-0.666 0.285,-0.664 0.303,-0.659C0.321,-0.654 0.342,-0.643 0.365,-0.625C0.387,-0.607 0.406,-0.583 0.42,-0.554C0.447,-0.498 0.46,-0.419 0.46,-0.32C0.46,-0.222 0.448,-0.147 0.423,-0.094C0.387,-0.017 0.329,0.022 0.249,0.022C0.219,0.022 0.189,0.014 0.158,-0.001C0.128,-0.016 0.103,-0.042 0.084,-0.079C0.054,-0.134 0.039,-0.214 0.039,-0.32ZM0.122,-0.332C0.122,-0.231 0.126,-0.161 0.133,-0.121C0.141,-0.078 0.156,-0.047 0.178,-0.028C0.201,-0.009 0.224,-0 0.249,-0C0.276,-0 0.3,-0.01 0.323,-0.03C0.345,-0.05 0.359,-0.082 0.366,-0.125C0.374,-0.168 0.377,-0.237 0.377,-0.332C0.377,-0.425 0.374,-0.49 0.367,-0.527C0.358,-0.57 0.342,-0.601 0.319,-0.618C0.296,-0.635 0.272,-0.644 0.249,-0.644C0.24,-0.644 0.231,-0.643 0.222,-0.64C0.213,-0.638 0.201,-0.632 0.188,-0.625C0.175,-0.618 0.163,-0.604 0.153,-0.586C0.142,-0.567 0.135,-0.544 0.13,-0.516C0.125,-0.48 0.122,-0.419 0.122,-0.332Z" style="fill-rule:nonzero;"/>
                </g>
                <g transform="matrix(10,0,0,10,1491.73,693.672)">
                    <path d="M0.039,-0.32C0.039,-0.418 0.051,-0.493 0.076,-0.547C0.111,-0.626 0.169,-0.666 0.25,-0.666C0.267,-0.666 0.285,-0.664 0.303,-0.659C0.321,-0.654 0.342,-0.643 0.365,-0.625C0.387,-0.607 0.406,-0.583 0.42,-0.554C0.447,-0.498 0.46,-0.419 0.46,-0.32C0.46,-0.222 0.448,-0.147 0.423,-0.094C0.387,-0.017 0.329,0.022 0.249,0.022C0.219,0.022 0.189,0.014 0.158,-0.001C0.128,-0.016 0.103,-0.042 0.084,-0.079C0.054,-0.134 0.039,-0.214 0.039,-0.32ZM0.122,-0.332C0.122,-0.231 0.126,-0.161 0.133,-0.121C0.141,-0.078 0.156,-0.047 0.178,-0.028C0.201,-0.009 0.224,-0 0.249,-0C0.276,-0 0.3,-0.01 0.323,-0.03C0.345,-0.05 0.359,-0.082 0.366,-0.125C0.374,-0.168 0.377,-0.237 0.377,-0.332C0.377,-0.425 0.374,-0.49 0.367,-0.527C0.358,-0.57 0.342,-0.601 0.319,-0.618C0.296,-0.635 0.272,-0.644 0.249,-0.644C0.24,-0.644 0.231,-0.643 0.222,-0.64C0.213,-0.638 0.201,-0.632 0.188,-0.625C0.175,-0.618 0.163,-0.604 0.153,-0.586C0.142,-0.567 0.135,-0.544 0.13,-0.516C0.125,-0.48 0.122,-0.419 0.122,-0.332Z" style="fill-rule:nonzero;"/>
                </g>
                <g transform="matrix(10,0,0,10,1500.06,693.672)">
                    <path d="M0.033,-0.4L0.033,-0.431L0.112,-0.431L0.112,-0.546C0.112,-0.595 0.128,-0.634 0.16,-0.663C0.192,-0.691 0.228,-0.705 0.267,-0.705C0.293,-0.705 0.315,-0.698 0.332,-0.684C0.348,-0.67 0.357,-0.654 0.357,-0.635C0.357,-0.622 0.353,-0.612 0.345,-0.603C0.338,-0.595 0.327,-0.591 0.313,-0.591C0.3,-0.591 0.289,-0.595 0.281,-0.604C0.274,-0.612 0.27,-0.622 0.27,-0.634C0.27,-0.655 0.28,-0.669 0.3,-0.676C0.29,-0.68 0.279,-0.683 0.267,-0.683C0.243,-0.683 0.222,-0.671 0.203,-0.646C0.184,-0.621 0.175,-0.588 0.175,-0.547L0.175,-0.431L0.292,-0.431L0.292,-0.4L0.178,-0.4L0.178,-0.078C0.178,-0.059 0.182,-0.046 0.19,-0.04C0.198,-0.034 0.219,-0.031 0.254,-0.031L0.275,-0.031L0.275,-0C0.248,-0.002 0.206,-0.003 0.148,-0.003C0.14,-0.003 0.129,-0.003 0.117,-0.002C0.104,-0.002 0.09,-0.002 0.073,-0.001C0.056,-0 0.043,-0 0.034,-0L0.034,-0.031C0.07,-0.031 0.091,-0.033 0.1,-0.037C0.108,-0.042 0.112,-0.055 0.112,-0.076L0.112,-0.4L0.033,-0.4Z" style="fill-rule:nonzero;"/>
                </g>
                <g transform="matrix(10,0,0,10,1503.11,693.672)">
                    <path d="M0.019,-0.4L0.019,-0.422C0.05,-0.423 0.075,-0.435 0.095,-0.456C0.116,-0.478 0.129,-0.502 0.136,-0.529C0.143,-0.556 0.147,-0.584 0.148,-0.615L0.173,-0.615L0.173,-0.431L0.316,-0.431L0.316,-0.4L0.173,-0.4L0.173,-0.122C0.173,-0.05 0.195,-0.014 0.24,-0.014C0.259,-0.014 0.275,-0.024 0.288,-0.044C0.301,-0.063 0.307,-0.091 0.307,-0.126L0.307,-0.181L0.332,-0.181L0.332,-0.124C0.332,-0.088 0.324,-0.056 0.307,-0.029C0.291,-0.002 0.266,0.011 0.233,0.011C0.221,0.011 0.209,0.01 0.197,0.007C0.185,0.003 0.171,-0.002 0.156,-0.01C0.141,-0.018 0.128,-0.032 0.118,-0.052C0.109,-0.071 0.104,-0.095 0.104,-0.124L0.104,-0.4L0.019,-0.4Z" style="fill-rule:nonzero;"/>
                </g>
                <g transform="matrix(10,0,0,10,1506.98,693.672)">
                    <rect x="0.01" y="-0.245" width="0.266" height="0.059" style="fill-rule:nonzero;"/>
                </g>
                <g transform="matrix(10,0,0,10,1510.31,693.672)">
                    <path d="M0.033,-0L0.033,-0.031C0.069,-0.031 0.09,-0.033 0.099,-0.037C0.107,-0.042 0.111,-0.055 0.111,-0.076L0.111,-0.596C0.111,-0.621 0.107,-0.636 0.098,-0.643C0.089,-0.649 0.068,-0.652 0.033,-0.652L0.033,-0.683L0.177,-0.694L0.177,-0.076C0.177,-0.055 0.181,-0.042 0.189,-0.037C0.198,-0.033 0.22,-0.031 0.255,-0.031L0.255,-0C0.247,-0 0.234,-0 0.217,-0.001C0.2,-0.002 0.186,-0.002 0.173,-0.002C0.161,-0.003 0.151,-0.003 0.144,-0.003C0.136,-0.003 0.099,-0.002 0.033,-0Z" style="fill-rule:nonzero;"/>
                </g>
                <g transform="matrix(10,0,0,10,1513.08,693.672)">
                    <path d="M0.028,-0.652L0.028,-0.683L0.172,-0.694L0.172,-0.377C0.211,-0.42 0.256,-0.442 0.309,-0.442C0.366,-0.442 0.416,-0.42 0.458,-0.376C0.5,-0.332 0.521,-0.279 0.521,-0.216C0.521,-0.152 0.499,-0.099 0.455,-0.055C0.411,-0.011 0.359,0.011 0.298,0.011C0.243,0.011 0.199,-0.013 0.167,-0.062C0.144,-0.021 0.132,-0.001 0.131,-0L0.106,-0L0.106,-0.596C0.106,-0.621 0.102,-0.636 0.093,-0.643C0.084,-0.649 0.062,-0.652 0.028,-0.652ZM0.175,-0.114C0.175,-0.1 0.18,-0.086 0.189,-0.072C0.215,-0.031 0.25,-0.011 0.293,-0.011L0.294,-0.011C0.34,-0.011 0.378,-0.033 0.407,-0.075C0.428,-0.107 0.438,-0.154 0.438,-0.217C0.438,-0.279 0.428,-0.325 0.409,-0.356C0.382,-0.399 0.347,-0.42 0.304,-0.42C0.255,-0.42 0.216,-0.399 0.186,-0.356C0.179,-0.345 0.175,-0.333 0.175,-0.32L0.175,-0.114Z" style="fill-rule:nonzero;"/>
                </g>
            </g>
            <g transform="matrix(1.21133,0,0,1.4684,-133.205,-355.68)">
                <g transform="matrix(1.62891,0,0,0.725284,-852.918,215.025)">
                    <rect x="1391.73" y="698.672" width="16.267" height="12" style="fill:white;"/>
                    <path d="M1408,698.672L1391.73,698.672L1391.73,710.672L1408,710.672L1408,698.672ZM1407.39,699.672L1407.39,709.672C1407.39,709.672 1392.35,709.672 1392.35,709.672C1392.35,709.672 1392.35,699.672 1392.35,699.672L1407.39,699.672Z" style="fill:white;"/>
                </g>
                <g transform="matrix(1,0,0,0.725284,0.496014,216.113)">
                    <g transform="matrix(10,0,0,10,1415.73,705.672)">
                        <path d="M0.089,-0.571L0.089,-0.602C0.169,-0.602 0.23,-0.623 0.271,-0.666C0.282,-0.666 0.289,-0.665 0.291,-0.662C0.293,-0.66 0.294,-0.652 0.294,-0.64L0.294,-0.079C0.294,-0.059 0.299,-0.046 0.309,-0.04C0.318,-0.034 0.345,-0.031 0.387,-0.031L0.419,-0.031L0.419,-0C0.396,-0.002 0.341,-0.003 0.257,-0.003C0.172,-0.003 0.118,-0.002 0.095,-0L0.095,-0.031L0.127,-0.031C0.169,-0.031 0.195,-0.034 0.205,-0.04C0.215,-0.046 0.22,-0.059 0.22,-0.079L0.22,-0.597C0.185,-0.58 0.142,-0.571 0.089,-0.571Z" style="fill-rule:nonzero;"/>
                    </g>
                    <g transform="matrix(10,0,0,10,1420.73,705.672)">
                        <path d="M0.1,-0.016C0.09,-0.027 0.085,-0.039 0.085,-0.053C0.085,-0.067 0.09,-0.079 0.1,-0.09C0.11,-0.1 0.123,-0.105 0.138,-0.105C0.153,-0.105 0.165,-0.1 0.175,-0.091C0.185,-0.081 0.19,-0.068 0.19,-0.053C0.19,-0.038 0.185,-0.025 0.174,-0.015C0.163,-0.005 0.152,-0 0.138,-0C0.123,-0 0.11,-0.005 0.1,-0.016Z" style="fill-rule:nonzero;"/>
                    </g>
                    <g transform="matrix(10,0,0,10,1423.51,705.672)">
                        <path d="M0.05,-0.161C0.05,-0.181 0.055,-0.195 0.066,-0.202C0.077,-0.21 0.088,-0.214 0.099,-0.214C0.114,-0.214 0.127,-0.209 0.135,-0.199C0.144,-0.19 0.149,-0.178 0.149,-0.165C0.149,-0.152 0.144,-0.14 0.135,-0.131C0.127,-0.121 0.114,-0.116 0.099,-0.116C0.092,-0.116 0.086,-0.117 0.082,-0.118C0.091,-0.088 0.109,-0.061 0.135,-0.039C0.162,-0.017 0.194,-0.006 0.229,-0.006C0.274,-0.006 0.309,-0.028 0.336,-0.071C0.352,-0.099 0.36,-0.145 0.36,-0.208C0.36,-0.264 0.354,-0.306 0.342,-0.334C0.323,-0.377 0.295,-0.398 0.257,-0.398C0.203,-0.398 0.16,-0.375 0.128,-0.328C0.124,-0.322 0.12,-0.319 0.115,-0.319C0.109,-0.319 0.105,-0.321 0.103,-0.324C0.102,-0.328 0.101,-0.335 0.101,-0.345L0.101,-0.641C0.101,-0.657 0.104,-0.665 0.111,-0.665C0.113,-0.665 0.118,-0.664 0.123,-0.662C0.165,-0.644 0.209,-0.634 0.256,-0.634C0.304,-0.634 0.349,-0.644 0.392,-0.663C0.395,-0.665 0.398,-0.666 0.4,-0.666C0.406,-0.666 0.41,-0.662 0.41,-0.655C0.41,-0.652 0.407,-0.647 0.402,-0.639C0.397,-0.632 0.388,-0.623 0.377,-0.613C0.366,-0.603 0.353,-0.593 0.338,-0.584C0.323,-0.575 0.305,-0.567 0.284,-0.56C0.263,-0.554 0.24,-0.551 0.217,-0.551C0.189,-0.551 0.16,-0.555 0.132,-0.564L0.132,-0.369C0.166,-0.403 0.209,-0.42 0.259,-0.42C0.312,-0.42 0.357,-0.398 0.394,-0.355C0.431,-0.313 0.449,-0.261 0.449,-0.201C0.449,-0.138 0.427,-0.085 0.384,-0.042C0.341,0 0.29,0.022 0.231,0.022C0.178,0.022 0.134,0.003 0.1,-0.035C0.067,-0.073 0.05,-0.115 0.05,-0.161Z" style="fill-rule:nonzero;"/>
                    </g>
                    <g transform="matrix(10,0,0,10,1431.84,705.672)">
                        <path d="M0.033,-0.4L0.033,-0.431L0.112,-0.431L0.112,-0.546C0.112,-0.595 0.128,-0.634 0.16,-0.663C0.192,-0.691 0.228,-0.705 0.267,-0.705C0.293,-0.705 0.315,-0.698 0.332,-0.684C0.348,-0.67 0.357,-0.654 0.357,-0.635C0.357,-0.622 0.353,-0.612 0.345,-0.603C0.338,-0.595 0.327,-0.591 0.313,-0.591C0.3,-0.591 0.289,-0.595 0.281,-0.604C0.274,-0.612 0.27,-0.622 0.27,-0.634C0.27,-0.655 0.28,-0.669 0.3,-0.676C0.29,-0.68 0.279,-0.683 0.267,-0.683C0.243,-0.683 0.222,-0.671 0.203,-0.646C0.184,-0.621 0.175,-0.588 0.175,-0.547L0.175,-0.431L0.292,-0.431L0.292,-0.4L0.178,-0.4L0.178,-0.078C0.178,-0.059 0.182,-0.046 0.19,-0.04C0.198,-0.034 0.219,-0.031 0.254,-0.031L0.275,-0.031L0.275,-0C0.248,-0.002 0.206,-0.003 0.148,-0.003C0.14,-0.003 0.129,-0.003 0.117,-0.002C0.104,-0.002 0.09,-0.002 0.073,-0.001C0.056,-0 0.043,-0 0.034,-0L0.034,-0.031C0.07,-0.031 0.091,-0.033 0.1,-0.037C0.108,-0.042 0.112,-0.055 0.112,-0.076L0.112,-0.4L0.033,-0.4Z" style="fill-rule:nonzero;"/>
                    </g>
                    <g transform="matrix(10,0,0,10,1434.88,705.672)">
                        <path d="M0.019,-0.4L0.019,-0.422C0.05,-0.423 0.075,-0.435 0.095,-0.456C0.116,-0.478 0.129,-0.502 0.136,-0.529C0.143,-0.556 0.147,-0.584 0.148,-0.615L0.173,-0.615L0.173,-0.431L0.316,-0.431L0.316,-0.4L0.173,-0.4L0.173,-0.122C0.173,-0.05 0.195,-0.014 0.24,-0.014C0.259,-0.014 0.275,-0.024 0.288,-0.044C0.301,-0.063 0.307,-0.091 0.307,-0.126L0.307,-0.181L0.332,-0.181L0.332,-0.124C0.332,-0.088 0.324,-0.056 0.307,-0.029C0.291,-0.002 0.266,0.011 0.233,0.011C0.221,0.011 0.209,0.01 0.197,0.007C0.185,0.003 0.171,-0.002 0.156,-0.01C0.141,-0.018 0.128,-0.032 0.118,-0.052C0.109,-0.071 0.104,-0.095 0.104,-0.124L0.104,-0.4L0.019,-0.4Z" style="fill-rule:nonzero;"/>
                    </g>
                </g>
            </g>
            <g transform="matrix(1.21133,0,0,1.4684,-133.205,-317.34)">
                <g transform="matrix(1.62891,0,0,0.725284,-852.918,215.025)">
                    <rect x="1391.73" y="698.672" width="16.267" height="12" style="fill:white;"/>
                    <path d="M1408,698.672L1391.73,698.672L1391.73,710.672L1408,710.672L1408,698.672ZM1407.39,699.672L1407.39,709.672C1407.39,709.672 1392.35,709.672 1392.35,709.672C1392.35,709.672 1392.35,699.672 1392.35,699.672L1407.39,699.672Z" style="fill:white;"/>
                </g>
                <g transform="matrix(1,0,0,0.725284,0.496014,216.113)">
                    <g transform="matrix(10,0,0,10,1415.73,705.672)">
                        <path d="M0.089,-0.571L0.089,-0.602C0.169,-0.602 0.23,-0.623 0.271,-0.666C0.282,-0.666 0.289,-0.665 0.291,-0.662C0.293,-0.66 0.294,-0.652 0.294,-0.64L0.294,-0.079C0.294,-0.059 0.299,-0.046 0.309,-0.04C0.318,-0.034 0.345,-0.031 0.387,-0.031L0.419,-0.031L0.419,-0C0.396,-0.002 0.341,-0.003 0.257,-0.003C0.172,-0.003 0.118,-0.002 0.095,-0L0.095,-0.031L0.127,-0.031C0.169,-0.031 0.195,-0.034 0.205,-0.04C0.215,-0.046 0.22,-0.059 0.22,-0.079L0.22,-0.597C0.185,-0.58 0.142,-0.571 0.089,-0.571Z" style="fill-rule:nonzero;"/>
                    </g>
                    <g transform="matrix(10,0,0,10,1420.73,705.672)">
                        <path d="M0.1,-0.016C0.09,-0.027 0.085,-0.039 0.085,-0.053C0.085,-0.067 0.09,-0.079 0.1,-0.09C0.11,-0.1 0.123,-0.105 0.138,-0.105C0.153,-0.105 0.165,-0.1 0.175,-0.091C0.185,-0.081 0.19,-0.068 0.19,-0.053C0.19,-0.038 0.185,-0.025 0.174,-0.015C0.163,-0.005 0.152,-0 0.138,-0C0.123,-0 0.11,-0.005 0.1,-0.016Z" style="fill-rule:nonzero;"/>
                    </g>
                    <g transform="matrix(10,0,0,10,1423.51,705.672)">
                        <path d="M0.05,-0.161C0.05,-0.181 0.055,-0.195 0.066,-0.202C0.077,-0.21 0.088,-0.214 0.099,-0.214C0.114,-0.214 0.127,-0.209 0.135,-0.199C0.144,-0.19 0.149,-0.178 0.149,-0.165C0.149,-0.152 0.144,-0.14 0.135,-0.131C0.127,-0.121 0.114,-0.116 0.099,-0.116C0.092,-0.116 0.086,-0.117 0.082,-0.118C0.091,-0.088 0.109,-0.061 0.135,-0.039C0.162,-0.017 0.194,-0.006 0.229,-0.006C0.274,-0.006 0.309,-0.028 0.336,-0.071C0.352,-0.099 0.36,-0.145 0.36,-0.208C0.36,-0.264 0.354,-0.306 0.342,-0.334C0.323,-0.377 0.295,-0.398 0.257,-0.398C0.203,-0.398 0.16,-0.375 0.128,-0.328C0.124,-0.322 0.12,-0.319 0.115,-0.319C0.109,-0.319 0.105,-0.321 0.103,-0.324C0.102,-0.328 0.101,-0.335 0.101,-0.345L0.101,-0.641C0.101,-0.657 0.104,-0.665 0.111,-0.665C0.113,-0.665 0.118,-0.664 0.123,-0.662C0.165,-0.644 0.209,-0.634 0.256,-0.634C0.304,-0.634 0.349,-0.644 0.392,-0.663C0.395,-0.665 0.398,-0.666 0.4,-0.666C0.406,-0.666 0.41,-0.662 0.41,-0.655C0.41,-0.652 0.407,-0.647 0.402,-0.639C0.397,-0.632 0.388,-0.623 0.377,-0.613C0.366,-0.603 0.353,-0.593 0.338,-0.584C0.323,-0.575 0.305,-0.567 0.284,-0.56C0.263,-0.554 0.24,-0.551 0.217,-0.551C0.189,-0.551 0.16,-0.555 0.132,-0.564L0.132,-0.369C0.166,-0.403 0.209,-0.42 0.259,-0.42C0.312,-0.42 0.357,-0.398 0.394,-0.355C0.431,-0.313 0.449,-0.261 0.449,-0.201C0.449,-0.138 0.427,-0.085 0.384,-0.042C0.341,0 0.29,0.022 0.231,0.022C0.178,0.022 0.134,0.003 0.1,-0.035C0.067,-0.073 0.05,-0.115 0.05,-0.161Z" style="fill-rule:nonzero;"/>
                    </g>
                    <g transform="matrix(10,0,0,10,1431.84,705.672)">
                        <path d="M0.033,-0.4L0.033,-0.431L0.112,-0.431L0.112,-0.546C0.112,-0.595 0.128,-0.634 0.16,-0.663C0.192,-0.691 0.228,-0.705 0.267,-0.705C0.293,-0.705 0.315,-0.698 0.332,-0.684C0.348,-0.67 0.357,-0.654 0.357,-0.635C0.357,-0.622 0.353,-0.612 0.345,-0.603C0.338,-0.595 0.327,-0.591 0.313,-0.591C0.3,-0.591 0.289,-0.595 0.281,-0.604C0.274,-0.612 0.27,-0.622 0.27,-0.634C0.27,-0.655 0.28,-0.669 0.3,-0.676C0.29,-0.68 0.279,-0.683 0.267,-0.683C0.243,-0.683 0.222,-0.671 0.203,-0.646C0.184,-0.621 0.175,-0.588 0.175,-0.547L0.175,-0.431L0.292,-0.431L0.292,-0.4L0.178,-0.4L0.178,-0.078C0.178,-0.059 0.182,-0.046 0.19,-0.04C0.198,-0.034 0.219,-0.031 0.254,-0.031L0.275,-0.031L0.275,-0C0.248,-0.002 0.206,-0.003 0.148,-0.003C0.14,-0.003 0.129,-0.003 0.117,-0.002C0.104,-0.002 0.09,-0.002 0.073,-0.001C0.056,-0 0.043,-0 0.034,-0L0.034,-0.031C0.07,-0.031 0.091,-0.033 0.1,-0.037C0.108,-0.042 0.112,-0.055 0.112,-0.076L0.112,-0.4L0.033,-0.4Z" style="fill-rule:nonzero;"/>
                    </g>
                    <g transform="matrix(10,0,0,10,1434.88,705.672)">
                        <path d="M0.019,-0.4L0.019,-0.422C0.05,-0.423 0.075,-0.435 0.095,-0.456C0.116,-0.478 0.129,-0.502 0.136,-0.529C0.143,-0.556 0.147,-0.584 0.148,-0.615L0.173,-0.615L0.173,-0.431L0.316,-0.431L0.316,-0.4L0.173,-0.4L0.173,-0.122C0.173,-0.05 0.195,-0.014 0.24,-0.014C0.259,-0.014 0.275,-0.024 0.288,-0.044C0.301,-0.063 0.307,-0.091 0.307,-0.126L0.307,-0.181L0.332,-0.181L0.332,-0.124C0.332,-0.088 0.324,-0.056 0.307,-0.029C0.291,-0.002 0.266,0.011 0.233,0.011C0.221,0.011 0.209,0.01 0.197,0.007C0.185,0.003 0.171,-0.002 0.156,-0.01C0.141,-0.018 0.128,-0.032 0.118,-0.052C0.109,-0.071 0.104,-0.095 0.104,-0.124L0.104,-0.4L0.019,-0.4Z" style="fill-rule:nonzero;"/>
                    </g>
                </g>
            </g>
            <g transform="matrix(1.21133,0,0,1.065,-230.595,31.0806)">
                <g transform="matrix(10,0,0,10,1471,693.663)">
                    <path d="M0.059,-0.014C0.059,-0.023 0.063,-0.028 0.07,-0.03C0.077,-0.032 0.087,-0.033 0.097,-0.034C0.108,-0.034 0.122,-0.041 0.14,-0.054C0.157,-0.067 0.174,-0.086 0.19,-0.113L0.517,-0.689C0.518,-0.69 0.519,-0.692 0.521,-0.695C0.522,-0.698 0.524,-0.701 0.525,-0.703C0.527,-0.704 0.529,-0.706 0.531,-0.709C0.534,-0.712 0.537,-0.713 0.54,-0.714C0.542,-0.715 0.546,-0.716 0.549,-0.716C0.551,-0.716 0.554,-0.716 0.556,-0.715C0.558,-0.715 0.56,-0.714 0.561,-0.712C0.562,-0.711 0.563,-0.71 0.564,-0.709C0.565,-0.708 0.565,-0.707 0.566,-0.704C0.567,-0.701 0.567,-0.7 0.567,-0.699C0.567,-0.699 0.567,-0.696 0.568,-0.693L0.568,-0.688L0.611,-0.067C0.611,-0.052 0.615,-0.042 0.622,-0.038C0.628,-0.034 0.642,-0.032 0.663,-0.031C0.681,-0.031 0.69,-0.026 0.69,-0.017C0.69,-0.006 0.683,-0 0.67,-0C0.667,-0 0.655,-0 0.634,-0.001C0.613,-0.002 0.591,-0.003 0.567,-0.003C0.544,-0.003 0.524,-0.003 0.507,-0.002C0.49,-0.002 0.478,-0.002 0.469,-0.001C0.461,-0 0.456,-0 0.455,-0C0.445,-0 0.44,-0.005 0.44,-0.014C0.44,-0.021 0.443,-0.025 0.448,-0.028C0.453,-0.031 0.46,-0.032 0.468,-0.031C0.475,-0.031 0.484,-0.032 0.494,-0.034C0.504,-0.036 0.513,-0.04 0.52,-0.046C0.525,-0.05 0.528,-0.06 0.528,-0.073C0.528,-0.077 0.527,-0.085 0.526,-0.097C0.525,-0.109 0.524,-0.128 0.522,-0.153C0.521,-0.177 0.519,-0.203 0.517,-0.23L0.289,-0.23C0.283,-0.219 0.277,-0.208 0.27,-0.195C0.262,-0.183 0.257,-0.173 0.252,-0.166C0.248,-0.158 0.244,-0.15 0.239,-0.142C0.233,-0.133 0.23,-0.126 0.227,-0.121C0.224,-0.116 0.222,-0.111 0.219,-0.105C0.215,-0.1 0.213,-0.095 0.212,-0.092C0.211,-0.089 0.209,-0.085 0.208,-0.082C0.206,-0.078 0.205,-0.075 0.205,-0.073C0.204,-0.07 0.204,-0.068 0.204,-0.065C0.204,-0.056 0.207,-0.048 0.213,-0.043C0.218,-0.038 0.225,-0.035 0.232,-0.034C0.239,-0.034 0.245,-0.032 0.25,-0.03C0.256,-0.027 0.259,-0.024 0.259,-0.019C0.259,-0.006 0.252,-0 0.239,-0C0.237,-0 0.232,-0 0.224,-0.001C0.217,-0.002 0.206,-0.002 0.193,-0.002C0.18,-0.003 0.165,-0.003 0.15,-0.003C0.137,-0.003 0.123,-0.002 0.107,-0.001C0.092,-0 0.083,-0 0.081,-0C0.066,-0 0.059,-0.005 0.059,-0.014ZM0.307,-0.26L0.515,-0.26L0.493,-0.587L0.307,-0.26Z" style="fill-rule:nonzero;"/>
                </g>
            </g>
            <g transform="matrix(1.21133,0,0,1.065,-410.029,-28.3558)">
                <g transform="matrix(10,0,0,10,1471,693.663)">
                    <path d="M0.065,-0.012C0.065,-0.021 0.067,-0.026 0.071,-0.028C0.075,-0.03 0.082,-0.031 0.092,-0.031C0.124,-0.031 0.145,-0.033 0.154,-0.038C0.163,-0.043 0.17,-0.055 0.174,-0.073L0.309,-0.616C0.312,-0.626 0.313,-0.632 0.313,-0.635C0.313,-0.642 0.308,-0.647 0.299,-0.649C0.29,-0.651 0.275,-0.652 0.255,-0.652C0.247,-0.652 0.242,-0.652 0.239,-0.652C0.236,-0.653 0.234,-0.654 0.231,-0.656C0.229,-0.657 0.228,-0.66 0.228,-0.664C0.228,-0.673 0.23,-0.678 0.234,-0.68C0.238,-0.682 0.245,-0.683 0.255,-0.683L0.566,-0.683C0.618,-0.683 0.659,-0.67 0.689,-0.644C0.719,-0.617 0.734,-0.585 0.734,-0.547C0.734,-0.507 0.716,-0.469 0.68,-0.432C0.644,-0.395 0.597,-0.37 0.538,-0.357C0.577,-0.352 0.61,-0.338 0.637,-0.314C0.663,-0.29 0.677,-0.258 0.677,-0.219C0.677,-0.165 0.651,-0.115 0.6,-0.069C0.549,-0.023 0.489,-0 0.42,-0L0.09,-0C0.083,-0 0.079,-0 0.076,-0C0.073,-0.001 0.071,-0.002 0.068,-0.004C0.066,-0.005 0.065,-0.008 0.065,-0.012ZM0.245,-0.053C0.244,-0.048 0.243,-0.044 0.243,-0.041C0.243,-0.038 0.243,-0.036 0.244,-0.035C0.245,-0.034 0.247,-0.033 0.252,-0.032C0.257,-0.031 0.264,-0.031 0.274,-0.031L0.398,-0.031C0.451,-0.031 0.496,-0.052 0.532,-0.093C0.569,-0.135 0.588,-0.181 0.588,-0.232C0.588,-0.242 0.587,-0.252 0.585,-0.261C0.583,-0.271 0.579,-0.283 0.573,-0.297C0.568,-0.311 0.558,-0.322 0.543,-0.331C0.528,-0.34 0.51,-0.344 0.489,-0.344L0.317,-0.344L0.247,-0.063C0.247,-0.062 0.246,-0.059 0.245,-0.053ZM0.323,-0.366L0.455,-0.366C0.509,-0.366 0.554,-0.386 0.591,-0.426C0.628,-0.465 0.646,-0.508 0.646,-0.553C0.646,-0.563 0.645,-0.573 0.643,-0.582C0.641,-0.592 0.637,-0.602 0.631,-0.614C0.625,-0.625 0.615,-0.634 0.602,-0.641C0.588,-0.648 0.571,-0.652 0.552,-0.652L0.434,-0.652C0.417,-0.652 0.405,-0.65 0.4,-0.647C0.394,-0.644 0.389,-0.633 0.385,-0.616L0.323,-0.366Z" style="fill-rule:nonzero;"/>
                </g>
            </g>
            <g transform="matrix(1.21133,0,0,1.065,-333.382,-28.3558)">
                <g transform="matrix(10,0,0,10,1471,693.663)">
                    <path d="M0.15,-0.245C0.15,-0.321 0.171,-0.395 0.212,-0.467C0.253,-0.539 0.307,-0.597 0.372,-0.64C0.438,-0.683 0.504,-0.705 0.571,-0.705C0.636,-0.705 0.687,-0.677 0.722,-0.62L0.785,-0.694C0.791,-0.701 0.796,-0.705 0.801,-0.705C0.808,-0.705 0.812,-0.702 0.812,-0.695C0.812,-0.691 0.811,-0.686 0.81,-0.681L0.749,-0.438C0.747,-0.43 0.745,-0.425 0.743,-0.423C0.741,-0.421 0.737,-0.42 0.731,-0.42C0.721,-0.42 0.716,-0.423 0.716,-0.43C0.716,-0.431 0.716,-0.434 0.717,-0.441C0.717,-0.448 0.718,-0.456 0.719,-0.466C0.721,-0.475 0.721,-0.484 0.721,-0.491C0.721,-0.541 0.71,-0.584 0.687,-0.62C0.663,-0.656 0.628,-0.674 0.579,-0.674C0.539,-0.674 0.498,-0.662 0.455,-0.638C0.412,-0.615 0.375,-0.581 0.342,-0.536C0.306,-0.487 0.28,-0.431 0.263,-0.366C0.245,-0.301 0.237,-0.248 0.237,-0.207C0.237,-0.141 0.254,-0.091 0.287,-0.058C0.321,-0.025 0.362,-0.009 0.409,-0.009C0.458,-0.009 0.507,-0.028 0.558,-0.067C0.608,-0.106 0.645,-0.165 0.668,-0.242C0.67,-0.247 0.675,-0.25 0.684,-0.25C0.694,-0.25 0.699,-0.247 0.699,-0.24C0.699,-0.226 0.692,-0.206 0.678,-0.178C0.664,-0.151 0.645,-0.122 0.621,-0.092C0.597,-0.061 0.565,-0.035 0.524,-0.012C0.483,0.011 0.44,0.022 0.395,0.022C0.324,0.022 0.266,-0.002 0.219,-0.051C0.173,-0.1 0.15,-0.164 0.15,-0.245Z" style="fill-rule:nonzero;"/>
                </g>
            </g>
            <g transform="matrix(1.21133,0,0,1.065,-186.823,-5.49937)">
                <g transform="matrix(10,0,0,10,1471,693.663)">
                    <path d="M0.063,-0.012C0.063,-0.021 0.065,-0.026 0.069,-0.028C0.073,-0.03 0.08,-0.031 0.09,-0.031C0.122,-0.031 0.143,-0.033 0.152,-0.038C0.161,-0.043 0.168,-0.055 0.172,-0.073L0.307,-0.616C0.31,-0.626 0.311,-0.632 0.311,-0.635C0.311,-0.642 0.306,-0.647 0.297,-0.649C0.288,-0.651 0.273,-0.652 0.253,-0.652C0.245,-0.652 0.24,-0.652 0.237,-0.652C0.234,-0.653 0.232,-0.654 0.229,-0.656C0.227,-0.657 0.226,-0.66 0.226,-0.664C0.226,-0.673 0.228,-0.678 0.232,-0.68C0.236,-0.682 0.243,-0.683 0.253,-0.683L0.565,-0.683C0.629,-0.683 0.68,-0.66 0.718,-0.615C0.756,-0.57 0.775,-0.511 0.775,-0.438C0.775,-0.365 0.757,-0.294 0.72,-0.226C0.683,-0.158 0.635,-0.103 0.576,-0.062C0.517,-0.021 0.457,-0 0.395,-0L0.088,-0C0.081,-0 0.077,-0 0.074,-0C0.071,-0.001 0.069,-0.002 0.066,-0.004C0.064,-0.005 0.063,-0.008 0.063,-0.012ZM0.246,-0.053C0.245,-0.048 0.244,-0.044 0.244,-0.041C0.244,-0.038 0.244,-0.036 0.245,-0.035C0.246,-0.034 0.248,-0.033 0.253,-0.032C0.257,-0.031 0.265,-0.031 0.275,-0.031L0.378,-0.031C0.455,-0.031 0.521,-0.064 0.578,-0.13C0.616,-0.174 0.644,-0.232 0.663,-0.304C0.682,-0.376 0.692,-0.433 0.692,-0.476C0.692,-0.537 0.677,-0.581 0.646,-0.609C0.615,-0.638 0.577,-0.652 0.532,-0.652L0.435,-0.652C0.418,-0.652 0.406,-0.65 0.401,-0.646C0.395,-0.643 0.39,-0.633 0.386,-0.616L0.248,-0.063C0.248,-0.062 0.247,-0.059 0.246,-0.053Z" style="fill-rule:nonzero;"/>
                </g>
            </g>
        </g>
    </g>
</svg>
