<?xml version="1.0" encoding="UTF-8" standalone="no"?>
<!DOCTYPE svg PUBLIC "-//W3C//DTD SVG 1.1//EN" "http://www.w3.org/Graphics/SVG/1.1/DTD/svg11.dtd">
<svg width="100%" height="100%" viewBox="0 0 141 64" version="1.1" xmlns="http://www.w3.org/2000/svg" xmlns:xlink="http://www.w3.org/1999/xlink" xml:space="preserve" xmlns:serif="http://www.serif.com/" style="fill-rule:evenodd;clip-rule:evenodd;stroke-linecap:round;stroke-linejoin:round;stroke-miterlimit:1.5;">
    <g id="Artboard1" transform="matrix(0.5875,0,0,0.266667,0,0)">
        <rect x="0" y="0" width="240" height="240" style="fill:none;"/>
        <g transform="matrix(0.693643,0,0,2.37818,72.3352,-40.5778)">
            <path d="M200,100L40.071,100.635" style="fill:none;stroke:black;stroke-width:1.13px;stroke-dasharray:6.75,6.75,0,0;"/>
        </g>
        <g transform="matrix(1.70213,0,0,3.75,-138.723,-79.6362)">
            <g transform="matrix(1,-0,-0,1,81.5,21.2363)">
                <path d="M35.8,37.414L38.5,38.764L35.8,40.114L35.8,37.414Z"/>
                <path d="M18.5,38.764L36.34,38.764" style="fill:none;stroke:black;stroke-width:0.6px;"/>
            </g>
            <g transform="matrix(6.12323e-17,-1,1,6.12323e-17,40,160)">
                <g transform="matrix(6.12323e-17,1,-1,6.12323e-17,138.764,41.5)">
                    <path d="M17.15,21.464L18.5,18.764L19.85,21.464L17.15,21.464Z"/>
                    <path d="M18.5,38.764L18.5,20.924" style="fill:none;stroke:black;stroke-width:0.6px;"/>
                </g>
            </g>
            <g transform="matrix(1,0,0,1,-2.5,-5)">
                <text x="125px" y="66.816px" style="font-family:'Times-Italic', 'Times';font-style:italic;font-size:10px;">x</text>
            </g>
            <g transform="matrix(1,0,0,1,-2.5,13.1836)">
                <text x="100px" y="21.816px" style="font-family:'Times-Italic', 'Times';font-style:italic;font-size:10px;">y</text>
            </g>
        </g>
        <g transform="matrix(21.9965,-36.7867,1.02915,2.9869,-8326.91,13587.9)">
            <rect x="376" y="144" width="4.9" height="11" style="fill:none;"/>
            <g transform="matrix(0.0616352,0,-3.90823e-33,1.29268,355.888,-63.7317)">
                <g transform="matrix(1,0,0,0.773585,2,26.8679)">
                    <path d="M403,178.5C397.599,178.061 393.529,177.085 391.268,175.38" style="fill:none;stroke:rgb(225,32,32);stroke-width:1.5px;"/>
                </g>
                <g transform="matrix(1,0,0,-0.773585,1.77402,303.038)">
                    <path d="M403,178.5C397.599,178.061 393.529,177.085 391.268,175.38" style="fill:none;stroke:rgb(225,32,32);stroke-width:1.5px;"/>
                </g>
            </g>
            <g transform="matrix(0.0200387,-9.85944e-18,1.23875e-18,-0.24,373.75,177.82)">
                <path d="M118,118L351.818,118" style="fill:none;fill-rule:nonzero;stroke:rgb(225,32,32);stroke-width:5.29px;stroke-miterlimit:10;"/>
            </g>
        </g>
        <g transform="matrix(1.70213,0,0,3.75,-80.501,-79.1922)">
            <text x="132.987px" y="68.214px" style="font-family:'TimesNewRomanPS-ItalicMT', 'Times New Roman', serif;font-style:italic;font-size:12px;">θ</text>
        </g>
        <g transform="matrix(1.70213,0,0,3.75,24.4116,-5.8772)">
            <text x="110px" y="21.184px" style="font-family:'TimesNewRomanPS-ItalicMT', 'Times New Roman', serif;font-style:italic;font-size:14px;">F</text>
        </g>
    </g>
</svg>
