<?xml version="1.0" encoding="UTF-8" standalone="no"?>
<!-- Created with Inkscape (http://www.inkscape.org/) -->

<svg
   xmlns:dc="http://purl.org/dc/elements/1.1/"
   xmlns:cc="http://creativecommons.org/ns#"
   xmlns:rdf="http://www.w3.org/1999/02/22-rdf-syntax-ns#"
   xmlns:svg="http://www.w3.org/2000/svg"
   xmlns="http://www.w3.org/2000/svg"
   xmlns:sodipodi="http://sodipodi.sourceforge.net/DTD/sodipodi-0.dtd"
   xmlns:inkscape="http://www.inkscape.org/namespaces/inkscape"
   version="1.1"
   id="svg2"
   xml:space="preserve"
   width="2.4100025in"
   height="3.9630728in"
   viewBox="0 0 231.36025 380.45498"
   sodipodi:docname="L.svg"
   inkscape:version="0.92.2 5c3e80d, 2017-08-06"><metadata
     id="metadata8"><rdf:RDF><cc:Work
         rdf:about=""><dc:format>image/svg+xml</dc:format><dc:type
           rdf:resource="http://purl.org/dc/dcmitype/StillImage" /><dc:title></dc:title></cc:Work></rdf:RDF></metadata><defs
     id="defs6"><clipPath
       clipPathUnits="userSpaceOnUse"
       id="clipPath20"><path
         d="M 18,40.08 H 594 V 774 H 18 Z"
         id="path18"
         inkscape:connector-curvature="0" /></clipPath><clipPath
       clipPathUnits="userSpaceOnUse"
       id="clipPath140"><path
         d="m 153.972,750.186 h 10 V 762 h -10 z"
         id="path138"
         inkscape:connector-curvature="0" /></clipPath><clipPath
       clipPathUnits="userSpaceOnUse"
       id="clipPath154"><path
         d="m 152,749 h 13 v 13 h -13 z"
         id="path152"
         inkscape:connector-curvature="0" /></clipPath><clipPath
       clipPathUnits="userSpaceOnUse"
       id="clipPath164"><path
         d="M 18,40.08 H 594 V 774 H 18 Z"
         id="path162"
         inkscape:connector-curvature="0" /></clipPath><clipPath
       clipPathUnits="userSpaceOnUse"
       id="clipPath202"><path
         d="m 100.608,623.2243 h 9 v 12.92571 h -9 z"
         id="path200"
         inkscape:connector-curvature="0" /></clipPath><clipPath
       clipPathUnits="userSpaceOnUse"
       id="clipPath214"><path
         d="m 98,622 h 13 v 15 H 98 Z"
         id="path212"
         inkscape:connector-curvature="0" /></clipPath><clipPath
       clipPathUnits="userSpaceOnUse"
       id="clipPath224"><path
         d="M 18,40.08 H 594 V 774 H 18 Z"
         id="path222"
         inkscape:connector-curvature="0" /></clipPath><clipPath
       clipPathUnits="userSpaceOnUse"
       id="clipPath234"><path
         d="m 197.8603,493.6243 h 7.14 v 12.92571 h -7.14 z"
         id="path232"
         inkscape:connector-curvature="0" /></clipPath><clipPath
       clipPathUnits="userSpaceOnUse"
       id="clipPath246"><path
         d="m 197,493 h 9 v 15 h -9 z"
         id="path244"
         inkscape:connector-curvature="0" /></clipPath><clipPath
       clipPathUnits="userSpaceOnUse"
       id="clipPath256"><path
         d="M 18,40.08 H 594 V 774 H 18 Z"
         id="path254"
         inkscape:connector-curvature="0" /></clipPath><clipPath
       clipPathUnits="userSpaceOnUse"
       id="clipPath266"><path
         d="m 201.012,564.7699 h 10 v 14.85 h -10 z"
         id="path264"
         inkscape:connector-curvature="0" /></clipPath><clipPath
       clipPathUnits="userSpaceOnUse"
       id="clipPath276"><path
         d="m 201.012,564.8489 h 9.67764 v 14.77092 H 201.012 Z"
         id="path274"
         inkscape:connector-curvature="0" /></clipPath><clipPath
       clipPathUnits="userSpaceOnUse"
       id="clipPath288"><path
         d="m 199,564 h 13 v 17 h -13 z"
         id="path286"
         inkscape:connector-curvature="0" /></clipPath><clipPath
       clipPathUnits="userSpaceOnUse"
       id="clipPath298"><path
         d="M 18,40.08 H 594 V 774 H 18 Z"
         id="path296"
         inkscape:connector-curvature="0" /></clipPath></defs><sodipodi:namedview
     pagecolor="#ffffff"
     bordercolor="#666666"
     borderopacity="1"
     objecttolerance="10"
     gridtolerance="10"
     guidetolerance="10"
     inkscape:pageopacity="0"
     inkscape:pageshadow="2"
     inkscape:window-width="964"
     inkscape:window-height="858"
     id="namedview4"
     showgrid="false"
     inkscape:zoom="1.789962"
     inkscape:cx="138.02696"
     inkscape:cy="145.53378"
     inkscape:window-x="59"
     inkscape:window-y="102"
     inkscape:window-maximized="0"
     inkscape:current-layer="g10"
     units="in" /><g
     id="g10"
     inkscape:groupmode="layer"
     inkscape:label="L"
     transform="matrix(1.3333333,0,0,-1.3333333,-131.28,1038.295)"><g
       id="g12" /><path
       d="m 140.1456,514.6849 v 230.4 0 c 8.947,0 16.2,-7.253 16.2,-16.2 v 0 0 -177.7536 c 0,-11.1818 9.0646,-20.2464 20.2464,-20.2464 h 62.5536 v 0 0 c 8.947,0 16.2,-7.253 16.2,-16.2 v 0 0 z"
       style="fill:#e4e4e4;fill-opacity:1;fill-rule:nonzero;stroke:none"
       id="path22"
       inkscape:connector-curvature="0" /><g
       id="g24"
       transform="matrix(0.24,0,0,-0.24,18.12,773.88)"><path
         d="m 508.44,1079.98 v -960.0004 0 c 37.2792,0 67.5,30.2208 67.5,67.5 v 0 0 740.64 c 0,46.5907 37.7693,84.3604 84.36,84.3604 h 260.64 v 0 0 c 37.2792,0 67.5,30.22 67.5,67.5 v 0 0 h -480"
         style="fill:none;stroke:#000000;stroke-width:4.19999981;stroke-linecap:round;stroke-linejoin:round;stroke-miterlimit:10;stroke-dasharray:none;stroke-opacity:1"
         id="path26"
         inkscape:connector-curvature="0" /></g><g
       id="g28"
       transform="matrix(0.24,0,0,-0.24,18.12,773.88)"><path
         d="M 420,600 H 900"
         style="fill:none;stroke:#000000;stroke-width:3;stroke-linecap:round;stroke-linejoin:round;stroke-miterlimit:10;stroke-dasharray:72, 9, 18, 9;stroke-dashoffset:0;stroke-opacity:1"
         id="path30"
         inkscape:connector-curvature="0" /></g><g
       id="g32"
       transform="matrix(0.24,0,0,-0.24,18.12,773.88)"><path
         d="M 660,75 V 975"
         style="fill:none;stroke:#000000;stroke-width:3;stroke-linecap:round;stroke-linejoin:round;stroke-miterlimit:10;stroke-dasharray:72, 9, 18, 9;stroke-dashoffset:0;stroke-opacity:1"
         id="path34"
         inkscape:connector-curvature="0" /></g><g
       id="g48"
       transform="matrix(0.24,0,0,-0.24,18.12,773.88)"><path
         d="M 497,1080 H 336"
         style="fill:none;stroke:#000000;stroke-width:2.0999999;stroke-linecap:round;stroke-linejoin:round;stroke-miterlimit:10;stroke-dasharray:none;stroke-opacity:1"
         id="path50"
         inkscape:connector-curvature="0" /></g><g
       id="g52"
       transform="matrix(0.24,0,0,-0.24,18.12,773.88)"><path
         d="M 497,120 H 336"
         style="fill:none;stroke:#000000;stroke-width:2.0999999;stroke-linecap:round;stroke-linejoin:round;stroke-miterlimit:10;stroke-dasharray:none;stroke-opacity:1"
         id="path54"
         inkscape:connector-curvature="0" /></g><g
       id="g56"
       transform="matrix(0.24,0,0,-0.24,18.12,773.88)"><path
         d="M 360,1080 V 120"
         style="fill:none;stroke:#000000;stroke-width:2.0999999;stroke-linecap:round;stroke-linejoin:round;stroke-miterlimit:10;stroke-dasharray:none;stroke-opacity:1"
         id="path58"
         inkscape:connector-curvature="0" /></g><g
       id="g60"
       transform="matrix(0.24,0,0,-0.24,18.12,773.88)"><path
         d="m 366,1056 v 1 1 h -1 v 1 1 l -1,1 v 0 1 l -1,1 v 0 1 1 l -1,1 v 0 1 1 1 h -1 v 1 1 1 0 1 1 l -1,1 v 0 1 1 1 0 1 1 -1 -1 0 -1 -1 -1 0 l -1,-1 v -1 -1 0 -1 -1 -1 h -1 v -1 -1 -1 0 l -1,-1 v -1 -1 0 l -1,-1 v -1 0 l -1,-1 v -1 -1 h -1 v -1 -1 0"
         style="fill:none;stroke:#000000;stroke-width:2.0999999;stroke-linecap:round;stroke-linejoin:round;stroke-miterlimit:10;stroke-dasharray:none;stroke-opacity:1"
         id="path62"
         inkscape:connector-curvature="0" /></g><g
       id="g64"
       transform="matrix(0.24,0,0,-0.24,18.12,773.88)"><path
         d="m 366,1056 v 1 1 h -1 v 1 1 l -1,1 v 0 1 l -1,1 v 0 1 1 l -1,1 v 0 1 1 1 h -1 v 1 1 1 0 1 1 l -1,1 v 0 1 1 1 0 1 1 -1 -1 0 -1 -1 -1 0 l -1,-1 v -1 -1 0 -1 -1 -1 h -1 v -1 -1 -1 0 l -1,-1 v -1 -1 0 l -1,-1 v -1 0 l -1,-1 v -1 -1 h -1 v -1 -1 0"
         style="fill:none;stroke:#000000;stroke-width:1;stroke-linecap:round;stroke-linejoin:round;stroke-miterlimit:10;stroke-dasharray:none;stroke-opacity:1"
         id="path66"
         inkscape:connector-curvature="0" /></g><g
       id="g68"
       transform="matrix(0.24,0,0,-0.24,18.12,773.88)"><path
         d="m 354,144 v -1 -1 h 1 v -1 -1 l 1,-1 v 0 -1 l 1,-1 v 0 -1 -1 l 1,-1 v 0 -1 -1 -1 h 1 v -1 -1 -1 0 -1 -1 l 1,-1 v 0 -1 -1 -1 0 -1 -1 1 1 0 1 1 1 0 l 1,1 v 1 1 0 1 1 1 h 1 v 1 1 1 0 l 1,1 v 1 1 0 l 1,1 v 1 0 l 1,1 v 1 1 h 1 v 1 1 0"
         style="fill:none;stroke:#000000;stroke-width:2.0999999;stroke-linecap:round;stroke-linejoin:round;stroke-miterlimit:10;stroke-dasharray:none;stroke-opacity:1"
         id="path70"
         inkscape:connector-curvature="0" /></g><g
       id="g72"
       transform="matrix(0.24,0,0,-0.24,18.12,773.88)"><path
         d="m 354,144 v -1 -1 h 1 v -1 -1 l 1,-1 v 0 -1 l 1,-1 v 0 -1 -1 l 1,-1 v 0 -1 -1 -1 h 1 v -1 -1 -1 0 -1 -1 l 1,-1 v 0 -1 -1 -1 0 -1 -1 1 1 0 1 1 1 0 l 1,1 v 1 1 0 1 1 1 h 1 v 1 1 1 0 l 1,1 v 1 1 0 l 1,1 v 1 0 l 1,1 v 1 1 h 1 v 1 1 0"
         style="fill:none;stroke:#000000;stroke-width:1;stroke-linecap:round;stroke-linejoin:round;stroke-miterlimit:10;stroke-dasharray:none;stroke-opacity:1"
         id="path74"
         inkscape:connector-curvature="0" /></g><g
       id="g76"
       transform="matrix(0.24,0,0,-0.24,18.12,773.88)"><path
         d="m 508,1092 v 72"
         style="fill:none;stroke:#000000;stroke-width:2.0999999;stroke-linecap:round;stroke-linejoin:round;stroke-miterlimit:10;stroke-dasharray:none;stroke-opacity:1"
         id="path78"
         inkscape:connector-curvature="0" /></g><g
       id="g80"
       transform="matrix(0.24,0,0,-0.24,18.12,773.88)"><path
         d="m 988,1092 v 72"
         style="fill:none;stroke:#000000;stroke-width:2.0999999;stroke-linecap:round;stroke-linejoin:round;stroke-miterlimit:10;stroke-dasharray:none;stroke-opacity:1"
         id="path82"
         inkscape:connector-curvature="0" /></g><g
       id="g84"
       transform="matrix(0.24,0,0,-0.24,18.12,773.88)"><path
         d="M 508,1140 H 988"
         style="fill:none;stroke:#000000;stroke-width:2.0999999;stroke-linecap:round;stroke-linejoin:round;stroke-miterlimit:10;stroke-dasharray:none;stroke-opacity:1"
         id="path86"
         inkscape:connector-curvature="0" /></g><g
       id="g88"
       transform="matrix(0.24,0,0,-0.24,18.12,773.88)"><path
         d="m 532,1146 h -1 v 0 l -1,-1 h -1 v 0 l -1,-1 h -1 -1 v -1 h -1 -1 v 0 l -1,-1 h -1 -1 v 0 h -1 l -1,-1 h -1 v 0 h -1 -1 -1 v -1 h -1 -1 -1 v 0 h -1 -1 -1 -1 1 1 1 1 v 0 h 1 1 l 1,-1 v 0 h 1 1 1 v 0 h 1 l 1,-1 h 1 v 0 h 1 1 l 1,-1 v 0 h 1 1 v -1 h 1 1 l 1,-1 v 0 h 1 l 1,-1 v 0 h 1 v 0"
         style="fill:none;stroke:#000000;stroke-width:2.0999999;stroke-linecap:round;stroke-linejoin:round;stroke-miterlimit:10;stroke-dasharray:none;stroke-opacity:1"
         id="path90"
         inkscape:connector-curvature="0" /></g><g
       id="g92"
       transform="matrix(0.24,0,0,-0.24,18.12,773.88)"><path
         d="m 532,1146 h -1 v 0 l -1,-1 h -1 v 0 l -1,-1 h -1 -1 v -1 h -1 -1 v 0 l -1,-1 h -1 -1 v 0 h -1 l -1,-1 h -1 v 0 h -1 -1 -1 v -1 h -1 -1 -1 v 0 h -1 -1 -1 -1 1 1 1 1 v 0 h 1 1 l 1,-1 v 0 h 1 1 1 v 0 h 1 l 1,-1 h 1 v 0 h 1 1 l 1,-1 v 0 h 1 1 v -1 h 1 1 l 1,-1 v 0 h 1 l 1,-1 v 0 h 1 v 0"
         style="fill:none;stroke:#000000;stroke-width:1;stroke-linecap:round;stroke-linejoin:round;stroke-miterlimit:10;stroke-dasharray:none;stroke-opacity:1"
         id="path94"
         inkscape:connector-curvature="0" /></g><g
       id="g96"
       transform="matrix(0.24,0,0,-0.24,18.12,773.88)"><path
         d="m 965,1134 h 1 v 0 l 1,1 h 1 v 0 l 1,1 h 1 v 0 l 1,1 h 1 1 v 0 l 1,1 h 1 1 v 0 h 1 l 1,1 v 0 h 1 1 1 v 0 h 1 l 1,1 h 1 1 v 0 h 1 1 1 v 0 0 h -1 -1 -1 v 0 h -1 -1 -1 l -1,1 v 0 h -1 -1 -1 v 0 l -1,1 h -1 v 0 h -1 -1 l -1,1 v 0 h -1 -1 l -1,1 v 0 h -1 l -1,1 v 0 h -1 l -1,1 v 0 h -1 v 0"
         style="fill:none;stroke:#000000;stroke-width:2.0999999;stroke-linecap:round;stroke-linejoin:round;stroke-miterlimit:10;stroke-dasharray:none;stroke-opacity:1"
         id="path98"
         inkscape:connector-curvature="0" /></g><g
       id="g100"
       transform="matrix(0.24,0,0,-0.24,18.12,773.88)"><path
         d="m 965,1134 h 1 v 0 l 1,1 h 1 v 0 l 1,1 h 1 v 0 l 1,1 h 1 1 v 0 l 1,1 h 1 1 v 0 h 1 l 1,1 v 0 h 1 1 1 v 0 h 1 l 1,1 h 1 1 v 0 h 1 1 1 v 0 0 h -1 -1 -1 v 0 h -1 -1 -1 l -1,1 v 0 h -1 -1 -1 v 0 l -1,1 h -1 v 0 h -1 -1 l -1,1 v 0 h -1 -1 l -1,1 v 0 h -1 l -1,1 v 0 h -1 l -1,1 v 0 h -1 v 0"
         style="fill:none;stroke:#000000;stroke-width:1;stroke-linecap:round;stroke-linejoin:round;stroke-miterlimit:10;stroke-dasharray:none;stroke-opacity:1"
         id="path102"
         inkscape:connector-curvature="0" /></g><g
       id="g104"
       transform="matrix(0.24,0,0,-0.24,18.12,773.88)"><path
         d="M 508,108 V 51"
         style="fill:none;stroke:#000000;stroke-width:2.0999999;stroke-linecap:round;stroke-linejoin:round;stroke-miterlimit:10;stroke-dasharray:none;stroke-opacity:1"
         id="path106"
         inkscape:connector-curvature="0" /></g><g
       id="g108"
       transform="matrix(0.24,0,0,-0.24,18.12,773.88)"><path
         d="M 660,63 V 51"
         style="fill:none;stroke:#000000;stroke-width:2.0999999;stroke-linecap:round;stroke-linejoin:round;stroke-miterlimit:10;stroke-dasharray:none;stroke-opacity:1"
         id="path110"
         inkscape:connector-curvature="0" /></g><g
       id="g112"
       transform="matrix(0.24,0,0,-0.24,18.12,773.88)"><path
         d="M 508,75 H 660"
         style="fill:none;stroke:#000000;stroke-width:2.0999999;stroke-linecap:round;stroke-linejoin:round;stroke-miterlimit:10;stroke-dasharray:none;stroke-opacity:1"
         id="path114"
         inkscape:connector-curvature="0" /></g><g
       id="g116"
       transform="matrix(0.24,0,0,-0.24,18.12,773.88)"><path
         d="m 532,81 h -1 v 0 l -1,-1 h -1 v 0 l -1,-1 h -1 -1 v -1 h -1 -1 v 0 l -1,-1 h -1 -1 v 0 h -1 l -1,-1 h -1 v 0 h -1 -1 -1 v -1 h -1 -1 -1 v 0 h -1 -1 -1 -1 1 1 1 1 v 0 h 1 1 l 1,-1 v 0 h 1 1 1 v 0 h 1 l 1,-1 h 1 v 0 h 1 1 l 1,-1 v 0 h 1 1 v -1 h 1 1 l 1,-1 v 0 h 1 l 1,-1 v 0 h 1 v 0"
         style="fill:none;stroke:#000000;stroke-width:2.0999999;stroke-linecap:round;stroke-linejoin:round;stroke-miterlimit:10;stroke-dasharray:none;stroke-opacity:1"
         id="path118"
         inkscape:connector-curvature="0" /></g><g
       id="g120"
       transform="matrix(0.24,0,0,-0.24,18.12,773.88)"><path
         d="m 532,81 h -1 v 0 l -1,-1 h -1 v 0 l -1,-1 h -1 -1 v -1 h -1 -1 v 0 l -1,-1 h -1 -1 v 0 h -1 l -1,-1 h -1 v 0 h -1 -1 -1 v -1 h -1 -1 -1 v 0 h -1 -1 -1 -1 1 1 1 1 v 0 h 1 1 l 1,-1 v 0 h 1 1 1 v 0 h 1 l 1,-1 h 1 v 0 h 1 1 l 1,-1 v 0 h 1 1 v -1 h 1 1 l 1,-1 v 0 h 1 l 1,-1 v 0 h 1 v 0"
         style="fill:none;stroke:#000000;stroke-width:1;stroke-linecap:round;stroke-linejoin:round;stroke-miterlimit:10;stroke-dasharray:none;stroke-opacity:1"
         id="path122"
         inkscape:connector-curvature="0" /></g><g
       id="g124"
       transform="matrix(0.24,0,0,-0.24,18.12,773.88)"><path
         d="m 636,69 h 1 1 v 1 h 1 1 l 1,1 v 0 h 1 l 1,1 v 0 h 1 1 l 1,1 v 0 h 1 1 1 v 1 h 1 1 1 v 0 h 1 1 l 1,1 v 0 h 1 1 1 v 0 h 1 1 -1 -1 v 0 h -1 -1 -1 v 0 h -1 l -1,1 h -1 v 0 h -1 -1 -1 v 1 h -1 -1 -1 v 0 l -1,1 h -1 -1 v 0 l -1,1 h -1 v 0 l -1,1 h -1 -1 v 1 h -1 -1 v 0"
         style="fill:none;stroke:#000000;stroke-width:2.0999999;stroke-linecap:round;stroke-linejoin:round;stroke-miterlimit:10;stroke-dasharray:none;stroke-opacity:1"
         id="path126"
         inkscape:connector-curvature="0" /></g><g
       id="g128"
       transform="matrix(0.24,0,0,-0.24,18.12,773.88)"><path
         d="m 636,69 h 1 1 v 1 h 1 1 l 1,1 v 0 h 1 l 1,1 v 0 h 1 1 l 1,1 v 0 h 1 1 1 v 1 h 1 1 1 v 0 h 1 1 l 1,1 v 0 h 1 1 1 v 0 h 1 1 -1 -1 v 0 h -1 -1 -1 v 0 h -1 l -1,1 h -1 v 0 h -1 -1 -1 v 1 h -1 -1 -1 v 0 l -1,1 h -1 -1 v 0 l -1,1 h -1 v 0 l -1,1 h -1 -1 v 1 h -1 -1 v 0"
         style="fill:none;stroke:#000000;stroke-width:1;stroke-linecap:round;stroke-linejoin:round;stroke-miterlimit:10;stroke-dasharray:none;stroke-opacity:1"
         id="path130"
         inkscape:connector-curvature="0" /></g><path
       d="m 152.22,761.94 h 12 v -12 h -12 z"
       style="fill:#ffffff;fill-opacity:1;fill-rule:nonzero;stroke:none"
       id="path132"
       inkscape:connector-curvature="0" /><g
       id="g148"><g
         id="g150"
         clip-path="url(#clipPath154)"><g
           id="g156"
           transform="translate(152.28,749.88)" /></g></g><g
       id="g158"><g
         id="g160"
         clip-path="url(#clipPath164)"><g
           id="g166"
           transform="matrix(0.24,0,0,-0.24,18.12,773.88)"><path
             d="m 732,1080 h 72"
             style="fill:none;stroke:#000000;stroke-width:2.0999999;stroke-linecap:round;stroke-linejoin:round;stroke-miterlimit:10;stroke-dasharray:none;stroke-opacity:1"
             id="path168"
             inkscape:connector-curvature="0" /></g><g
           id="g170"
           transform="matrix(0.24,0,0,-0.24,18.12,773.88)"><path
             d="m 732,600 h 72"
             style="fill:none;stroke:#000000;stroke-width:2.0999999;stroke-linecap:round;stroke-linejoin:round;stroke-miterlimit:10;stroke-dasharray:none;stroke-opacity:1"
             id="path172"
             inkscape:connector-curvature="0" /></g><g
           id="g174"
           transform="matrix(0.24,0,0,-0.24,18.12,773.88)"><path
             d="M 780,1080 V 600"
             style="fill:none;stroke:#000000;stroke-width:2.0999999;stroke-linecap:round;stroke-linejoin:round;stroke-miterlimit:10;stroke-dasharray:none;stroke-opacity:1"
             id="path176"
             inkscape:connector-curvature="0" /></g><g
           id="g178"
           transform="matrix(0.24,0,0,-0.24,18.12,773.88)"><path
             d="m 786,1056 v 1 1 h -1 v 1 1 l -1,1 v 0 1 l -1,1 v 0 1 1 l -1,1 v 0 1 1 1 h -1 v 1 1 1 0 1 1 l -1,1 v 0 1 1 1 0 1 1 -1 -1 0 -1 -1 -1 0 l -1,-1 v -1 -1 0 -1 -1 -1 h -1 v -1 -1 -1 0 l -1,-1 v -1 -1 0 l -1,-1 v -1 0 l -1,-1 v -1 -1 h -1 v -1 -1 0"
             style="fill:none;stroke:#000000;stroke-width:2.0999999;stroke-linecap:round;stroke-linejoin:round;stroke-miterlimit:10;stroke-dasharray:none;stroke-opacity:1"
             id="path180"
             inkscape:connector-curvature="0" /></g><g
           id="g182"
           transform="matrix(0.24,0,0,-0.24,18.12,773.88)"><path
             d="m 786,1056 v 1 1 h -1 v 1 1 l -1,1 v 0 1 l -1,1 v 0 1 1 l -1,1 v 0 1 1 1 h -1 v 1 1 1 0 1 1 l -1,1 v 0 1 1 1 0 1 1 -1 -1 0 -1 -1 -1 0 l -1,-1 v -1 -1 0 -1 -1 -1 h -1 v -1 -1 -1 0 l -1,-1 v -1 -1 0 l -1,-1 v -1 0 l -1,-1 v -1 -1 h -1 v -1 -1 0"
             style="fill:none;stroke:#000000;stroke-width:1;stroke-linecap:round;stroke-linejoin:round;stroke-miterlimit:10;stroke-dasharray:none;stroke-opacity:1"
             id="path184"
             inkscape:connector-curvature="0" /></g><g
           id="g186"
           transform="matrix(0.24,0,0,-0.24,18.12,773.88)"><path
             d="m 774,624 v -1 -1 l 1,-1 v 0 -1 l 1,-1 v 0 -1 l 1,-1 v 0 -1 -1 l 1,-1 v 0 -1 -1 -1 h 1 v -1 -1 -1 0 -1 -1 l 1,-1 v 0 -1 -1 -1 0 -1 -1 1 1 0 1 1 1 0 l 1,1 v 1 1 0 1 1 1 h 1 v 1 1 1 0 l 1,1 v 1 1 0 l 1,1 v 1 0 l 1,1 v 1 0 l 1,1 v 1 1 0"
             style="fill:none;stroke:#000000;stroke-width:2.0999999;stroke-linecap:round;stroke-linejoin:round;stroke-miterlimit:10;stroke-dasharray:none;stroke-opacity:1"
             id="path188"
             inkscape:connector-curvature="0" /></g><g
           id="g190"
           transform="matrix(0.24,0,0,-0.24,18.12,773.88)"><path
             d="m 774,624 v -1 -1 l 1,-1 v 0 -1 l 1,-1 v 0 -1 l 1,-1 v 0 -1 -1 l 1,-1 v 0 -1 -1 -1 h 1 v -1 -1 -1 0 -1 -1 l 1,-1 v 0 -1 -1 -1 0 -1 -1 1 1 0 1 1 1 0 l 1,1 v 1 1 0 1 1 1 h 1 v 1 1 1 0 l 1,1 v 1 1 0 l 1,1 v 1 0 l 1,1 v 1 0 l 1,1 v 1 1 0"
             style="fill:none;stroke:#000000;stroke-width:1;stroke-linecap:round;stroke-linejoin:round;stroke-miterlimit:10;stroke-dasharray:none;stroke-opacity:1"
             id="path192"
             inkscape:connector-curvature="0" /></g><path
           d="m 98.46,636.9 h 12 v -13.92 h -12 z"
           style="fill:#ffffff;fill-opacity:1;fill-rule:nonzero;stroke:none"
           id="path194"
           inkscape:connector-curvature="0" /></g></g><g
       id="g208"><g
         id="g210"
         clip-path="url(#clipPath214)"><g
           id="g216"
           transform="matrix(1,0,0,0.9942857,98.52,622.92)" /></g></g><g
       id="g218"><g
         id="g220"
         clip-path="url(#clipPath224)"><path
           d="m 197.58,507.3 h 8.16 v -13.92 h -8.16 z"
           style="fill:#ffffff;fill-opacity:1;fill-rule:nonzero;stroke:none"
           id="path226"
           inkscape:connector-curvature="0" /></g></g><g
       id="g240"><g
         id="g242"
         clip-path="url(#clipPath246)"><g
           id="g248"
           transform="matrix(1.02,0,0,0.9942857,197.64,493.32)" /></g></g><g
       id="g250"><g
         id="g252"
         clip-path="url(#clipPath256)"><path
           d="m 199.26,580.26 h 12 v -15.84 h -12 z"
           style="fill:#ffffff;fill-opacity:1;fill-rule:nonzero;stroke:none"
           id="path258"
           inkscape:connector-curvature="0" /></g></g><g
       id="g260"><g
         id="g262"
         clip-path="url(#clipPath266)"><path
           d="m 200.012,564.7699 h 12.00899 V 580.613 H 200.012 Z"
           style="fill:#ffffff;fill-opacity:1;fill-rule:nonzero;stroke:none"
           id="path268"
           inkscape:connector-curvature="0" /></g></g><g
       id="g282"><g
         id="g284"
         clip-path="url(#clipPath288)"><g
           id="g290"
           transform="matrix(1,0,0,0.99,199.32,564.36)" /></g></g><g
       id="g292"><g
         id="g294"
         clip-path="url(#clipPath298)"><path
           d="m 177.96,629.88 v 0 c 0,0.7953 -0.6447,1.44 -1.44,1.44 -0.7953,0 -1.44,-0.6447 -1.44,-1.44 0,-0.7953 0.6447,-1.44 1.44,-1.44 0.7953,0 1.44,0.6447 1.44,1.44"
           style="fill:#000000;fill-opacity:1;fill-rule:nonzero;stroke:none"
           id="path300"
           inkscape:connector-curvature="0" /></g></g><text
       xml:space="preserve"
       style="font-style:normal;font-weight:normal;font-size:14px;line-height:1.25;font-family:sans-serif;letter-spacing:0px;word-spacing:0px;fill:#000000;fill-opacity:1;stroke:none;stroke-width:0.75"
       x="237.36887"
       y="-626.24994"
       id="text345"
       transform="scale(1,-1)"><tspan
         sodipodi:role="line"
         id="tspan343"
         x="237.36887"
         y="-626.24994"
         style="stroke-width:0.75">$X$</tspan></text>
<text
       xml:space="preserve"
       style="font-style:normal;font-weight:normal;font-size:14px;line-height:1.25;font-family:sans-serif;letter-spacing:0px;word-spacing:0px;fill:#000000;fill-opacity:1;stroke:none;stroke-width:0.75"
       x="172.12843"
       y="-768.08453"
       id="text349"
       transform="scale(1,-1)"><tspan
         sodipodi:role="line"
         id="tspan347"
         x="172.12843"
         y="-768.08453"
         style="stroke-width:0.75">$Y$</tspan></text>
<text
       xml:space="preserve"
       style="font-style:normal;font-weight:normal;font-size:14px;line-height:1.25;font-family:sans-serif;letter-spacing:0px;word-spacing:0px;fill:#000000;fill-opacity:1;stroke:none;stroke-width:0.75"
       x="101.94556"
       y="-627.11255"
       id="text337"
       transform="scale(1,-1)"><tspan
         sodipodi:role="line"
         id="tspan335"
         x="101.94556"
         y="-627.11255"
         style="stroke-width:0.75">$d$</tspan></text>
<text
       xml:space="preserve"
       style="font-style:normal;font-weight:normal;font-size:14px;line-height:1.25;font-family:sans-serif;letter-spacing:0px;word-spacing:0px;fill:#000000;fill-opacity:1;stroke:none;stroke-width:0.75"
       x="198.86623"
       y="-497.63235"
       id="text437"
       transform="scale(1,-1)"><tspan
         sodipodi:role="line"
         id="tspan435"
         x="198.86623"
         y="-497.63235"
         style="stroke-width:0.75">$b$</tspan></text>
<text
       xml:space="preserve"
       style="font-style:normal;font-weight:normal;font-size:14px;line-height:1.25;font-family:sans-serif;letter-spacing:0px;word-spacing:0px;fill:#000000;fill-opacity:1;stroke:none;stroke-width:0.75"
       x="155.498"
       y="-753.83704"
       id="text441"
       transform="scale(1,-1)"><tspan
         sodipodi:role="line"
         id="tspan439"
         x="155.498"
         y="-753.83704"
         style="stroke-width:0.75">$\bar{x}$</tspan></text>
<text
       xml:space="preserve"
       style="font-style:normal;font-weight:normal;font-size:14px;line-height:1.25;font-family:sans-serif;letter-spacing:0px;word-spacing:0px;fill:#000000;fill-opacity:1;stroke:none;stroke-width:0.75"
       x="202.73506"
       y="-570.00995"
       id="text445"
       transform="scale(1,-1)"><tspan
         sodipodi:role="line"
         id="tspan443"
         x="202.73506"
         y="-570.00995"
         style="stroke-width:0.75">$\bar{y}$</tspan></text>
</g></svg>