<?xml version="1.0" encoding="UTF-8" standalone="no"?>
<!DOCTYPE svg PUBLIC "-//W3C//DTD SVG 1.1//EN" "http://www.w3.org/Graphics/SVG/1.1/DTD/svg11.dtd">
<svg width="100%" height="100%" viewBox="0 0 180 217" version="1.1" xmlns="http://www.w3.org/2000/svg" xmlns:xlink="http://www.w3.org/1999/xlink" xml:space="preserve" xmlns:serif="http://www.serif.com/" style="fill-rule:evenodd;clip-rule:evenodd;stroke-miterlimit:10;">
    <g transform="matrix(1,0,0,1,-893,0)">
        <g id="MOI-rect-square-da-x-y" transform="matrix(1,0,0,1.09037,423.203,-1035.72)">
            <rect x="469.797" y="949.881" width="180" height="198.529" style="fill:none;"/>
            <clipPath id="_clip1">
                <rect x="469.797" y="949.881" width="180" height="198.529"/>
            </clipPath>
            <g clip-path="url(#_clip1)">
                <g transform="matrix(0.301171,0,0,0.27621,-72.6387,666.972)">
                    <g transform="matrix(4.16667,0,0,4.16667,1798.77,1089.2)">
                        <g transform="matrix(0.796889,-0,-0,0.796889,0.556764,-15.5863)">
                            <path d="M39.356,29.485L36.476,20.845L33.596,29.485L39.356,29.485Z" style="fill-rule:nonzero;"/>
                            <path d="M36.476,27.757L36.476,233.63" style="fill:none;fill-rule:nonzero;stroke:black;stroke-width:0.64px;"/>
                        </g>
                    </g>
                    <g transform="matrix(4.16667,0,0,4.16667,1798.77,1089.2)">
                        <g transform="matrix(0.796889,-0,-0,0.796889,0.556764,-15.5863)">
                            <path d="M170.39,195.071L179.03,197.951L170.39,200.831L170.39,195.071Z" style="fill-rule:nonzero;"/>
                            <path d="M-0.327,197.951L172.118,197.951" style="fill:none;fill-rule:nonzero;stroke:black;stroke-width:0.64px;"/>
                        </g>
                    </g>
                    <g transform="matrix(4.16667,0,0,4.16667,1798.77,1089.2)">
                        <rect x="29.624" y="28.432" width="85.296" height="113.727" style="fill:rgb(242,242,242);stroke:black;stroke-opacity:0.7;stroke-width:0.8px;stroke-linejoin:round;stroke-miterlimit:2;"/>
                    </g>
                    <g transform="matrix(4.16667,0,0,4.16667,1798.77,1089.2)">
                        <rect x="70.028" y="59.999" width="14.221" height="14.221" style="fill-opacity:0.09;stroke:black;stroke-opacity:0.7;stroke-width:0.8px;stroke-linejoin:round;stroke-miterlimit:2;"/>
                    </g>
                    <g transform="matrix(4.16667,0,0,4.16667,1798.77,1089.2)">
                        <g>
                            <path d="M116.969,28.432C116.969,29.563 116.052,30.481 114.92,30.481C113.788,30.481 112.871,29.563 112.871,28.432C112.871,27.3 113.788,26.383 114.92,26.383C116.052,26.383 116.969,27.3 116.969,28.432Z" style="fill-rule:nonzero;stroke:black;stroke-width:0.51px;stroke-linecap:round;stroke-linejoin:round;"/>
                        </g>
                    </g>
                    <g>
                        <g transform="matrix(0.875001,0,0,0.875001,2283.31,1174.05)">
                            <path d="M17.25,12.295C17.25,12.636 17.079,12.807 16.737,12.807C16.332,12.807 15.427,12.108 14.024,10.71C11.905,8.591 10.147,6.081 8.749,3.178C6.497,-1.47 5.371,-6.798 5.371,-12.807C5.371,-18.581 6.446,-23.789 8.597,-28.432C10.374,-32.221 12.628,-35.26 15.36,-37.549C16.076,-38.131 16.535,-38.421 16.737,-38.421C17.079,-38.421 17.25,-38.251 17.25,-37.909C17.25,-37.738 17.028,-37.448 16.585,-37.037C11.089,-31.439 8.341,-23.362 8.341,-12.807C8.341,-2.289 11.022,5.702 16.385,11.166C16.961,11.748 17.25,12.124 17.25,12.295Z" style="fill-rule:nonzero;"/>
                        </g>
                        <g transform="matrix(0.875001,0,0,0.875001,2300.75,1174.05)">
                            <path d="M12.543,-34.988L8.749,-19.571C10.729,-21.62 12.727,-22.645 14.744,-22.645C17.306,-22.645 19.219,-21.465 20.483,-19.107C21.198,-17.741 21.556,-16.188 21.556,-14.448C21.556,-10.825 20.291,-7.444 17.762,-4.306C15.409,-1.403 12.815,0.203 9.981,0.512C9.704,0.544 9.448,0.56 9.213,0.56C6.753,0.56 4.925,-0.582 3.73,-2.866C3.047,-4.168 2.705,-5.705 2.705,-7.476C2.705,-8.64 2.978,-10.366 3.522,-12.655L7.724,-29.352C8.204,-31.369 8.445,-32.429 8.445,-32.53C8.445,-32.904 8.204,-33.144 7.724,-33.25C7.313,-33.352 6.7,-33.403 5.883,-33.403C5.131,-33.403 4.72,-33.608 4.651,-34.019C4.651,-34.595 4.976,-34.937 5.627,-35.043L11.871,-35.556C12.319,-35.556 12.543,-35.366 12.543,-34.988ZM7.724,-15.625L6.596,-10.91C6.051,-8.76 5.779,-7.036 5.779,-5.739C5.779,-2.799 6.668,-1.107 8.445,-0.664C8.68,-0.595 8.936,-0.56 9.213,-0.56C11.022,-0.56 12.711,-1.756 14.28,-4.146C14.622,-4.659 14.947,-5.224 15.256,-5.843C16.18,-7.786 16.948,-10.414 17.562,-13.728C17.765,-14.923 17.866,-15.913 17.866,-16.697C17.866,-19.43 17.031,-21.001 15.36,-21.412L15.305,-21.468C15.102,-21.5 14.88,-21.516 14.64,-21.516C12.591,-21.516 10.542,-20.15 8.493,-17.418C8.221,-17.076 7.964,-16.479 7.724,-15.625Z" style="fill-rule:nonzero;"/>
                        </g>
                        <g transform="matrix(0.875001,0,0,0.875001,2319.98,1174.05)">
                            <path d="M10.694,-0.048C10.694,3.26 9.619,6.163 7.468,8.661C6.887,9.344 6.409,9.752 6.035,9.886C5.694,9.886 5.523,9.699 5.523,9.325C5.523,9.154 5.71,8.88 6.083,8.501C8.133,6.452 9.277,3.944 9.517,0.977C9.549,0.635 9.565,0.293 9.565,-0.048C9.565,-0.56 9.533,-0.816 9.469,-0.816C9.432,-0.816 9.347,-0.766 9.213,-0.664C8.733,-0.221 8.135,0 7.42,0C6.155,0 5.318,-0.582 4.907,-1.745C4.768,-2.049 4.699,-2.372 4.699,-2.714C4.699,-3.946 5.23,-4.784 6.291,-5.227C6.633,-5.36 7.009,-5.427 7.42,-5.427C8.92,-5.427 9.926,-4.437 10.438,-2.457C10.609,-1.742 10.694,-0.939 10.694,-0.048Z" style="fill-rule:nonzero;"/>
                        </g>
                        <g transform="matrix(0.875001,0,0,0.875001,2339.89,1174.05)">
                            <path d="M15,-34.988L11.006,-18.698C13.119,-21.329 15.646,-22.645 18.586,-22.645C21.623,-22.645 23.501,-21.465 24.221,-19.107L24.221,-19.059C24.392,-18.477 24.478,-17.845 24.478,-17.162C24.478,-15.251 23.434,-11.494 21.348,-5.891C20.734,-4.386 20.427,-3.175 20.427,-2.257C20.427,-1.126 20.838,-0.56 21.66,-0.56C23.778,-0.56 25.451,-2.439 26.679,-6.196L26.887,-6.916C27.058,-7.46 27.228,-7.751 27.399,-7.788L27.399,-7.836L27.655,-7.836C28.061,-7.836 28.264,-7.666 28.264,-7.324C28.264,-6.743 27.906,-5.667 27.191,-4.098C25.724,-0.993 23.845,0.56 21.556,0.56C19.816,0.56 18.57,-0.173 17.818,-1.641C17.508,-2.255 17.354,-2.919 17.354,-3.634C17.354,-4.253 17.575,-5.192 18.018,-6.452C20.137,-11.852 21.196,-15.678 21.196,-17.93C21.196,-20.321 20.275,-21.516 18.434,-21.516C16.791,-21.516 15.15,-20.918 13.512,-19.723C12.247,-18.731 11.137,-17.263 10.182,-15.32L10.03,-15.008C9.891,-14.192 9.704,-13.423 9.469,-12.703C9.298,-11.919 9.008,-10.774 8.597,-9.269L7.468,-4.659L6.492,-0.768C6.257,-0.053 5.728,0.374 4.907,0.512C4.805,0.544 4.704,0.56 4.603,0.56C3.781,0.56 3.3,0.203 3.162,-0.512C3.13,-0.651 3.114,-0.771 3.114,-0.872C3.114,-1.145 3.183,-1.521 3.322,-2.001L10.75,-31.506L10.902,-32.53C10.902,-32.904 10.662,-33.144 10.182,-33.25C9.771,-33.352 9.157,-33.403 8.341,-33.403C7.588,-33.403 7.177,-33.608 7.108,-34.019C7.108,-34.595 7.433,-34.937 8.084,-35.043L14.336,-35.556C14.779,-35.556 15,-35.366 15,-34.988Z" style="fill-rule:nonzero;"/>
                        </g>
                        <g transform="matrix(0.875001,0,0,0.875001,2365.72,1174.05)">
                            <path d="M15.104,-12.807C15.104,-7.033 14.026,-1.825 11.871,2.818C10.099,6.606 7.847,9.645 5.115,11.935C4.394,12.516 3.933,12.807 3.73,12.807C3.389,12.807 3.218,12.636 3.218,12.295C3.218,12.124 3.439,11.833 3.882,11.422C9.379,5.825 12.127,-2.252 12.127,-12.807C12.127,-23.224 9.565,-31.113 4.442,-36.476L4.186,-36.732C3.541,-37.346 3.218,-37.738 3.218,-37.909C3.218,-38.251 3.389,-38.421 3.73,-38.421C4.141,-38.421 5.045,-37.722 6.444,-36.324C8.562,-34.206 10.32,-31.695 11.719,-28.792C13.976,-24.144 15.104,-18.816 15.104,-12.807Z" style="fill-rule:nonzero;"/>
                        </g>
                    </g>
                    <g transform="matrix(4.16667,0,0,4.16667,1798.77,1089.2)">
                        <path d="M79.188,67.109C79.188,68.242 78.271,69.159 77.139,69.159C76.007,69.159 75.09,68.242 75.09,67.109C75.09,65.977 76.007,65.06 77.139,65.06C78.271,65.06 79.188,65.977 79.188,67.109Z" style="fill-rule:nonzero;stroke:black;stroke-width:0.51px;stroke-linecap:round;stroke-linejoin:round;"/>
                    </g>
                    <g transform="matrix(4.16667,0,0,4.16667,1799.02,685.691)">
                        <g transform="matrix(0.21,0,0,0.21,71.72,153.47)">
                            <g>
                                <g>
                                    <path d="M26.727,-34.988L19.355,-5.379C19.147,-4.525 19.043,-3.706 19.043,-2.922C19.043,-1.347 19.555,-0.56 20.58,-0.56C21.881,-0.56 22.975,-1.926 23.861,-4.659C24.032,-5.24 24.237,-5.993 24.478,-6.916C24.75,-7.497 24.987,-7.804 25.19,-7.836C25.601,-7.836 25.806,-7.666 25.806,-7.324C25.806,-6.812 25.5,-5.617 24.886,-3.738C24.683,-3.156 24.478,-2.663 24.27,-2.257C23.314,-0.379 22.052,0.56 20.483,0.56C18.568,0.56 17.183,-0.259 16.329,-1.897C16.089,-2.308 15.918,-2.77 15.817,-3.282C13.666,-0.72 11.446,0.56 9.157,0.56C6.596,0.56 4.701,-0.6 3.474,-2.922C2.721,-4.288 2.345,-5.859 2.345,-7.636C2.345,-11.324 3.626,-14.739 6.187,-17.882C8.578,-20.748 11.174,-22.317 13.976,-22.589C14.216,-22.626 14.453,-22.645 14.688,-22.645C16.775,-22.645 18.346,-21.551 19.403,-19.363L22.477,-31.506L22.629,-32.53C22.629,-32.904 22.391,-33.144 21.916,-33.25C21.505,-33.352 20.889,-33.403 20.067,-33.403C19.32,-33.403 18.912,-33.608 18.842,-34.019C18.842,-34.595 19.08,-34.918 19.555,-34.988C22.767,-35.366 24.937,-35.556 26.063,-35.556C26.506,-35.556 26.727,-35.366 26.727,-34.988ZM16.073,-6.099L18.634,-16.137C18.736,-16.649 18.787,-16.94 18.787,-17.009C18.787,-17.725 18.48,-18.594 17.866,-19.619C17.114,-20.884 16.073,-21.516 14.744,-21.516C12.967,-21.516 11.276,-20.355 9.669,-18.034C9.365,-17.591 9.074,-17.113 8.797,-16.601C7.81,-14.616 6.974,-11.799 6.291,-8.148C6.083,-6.985 5.979,-6.062 5.979,-5.379C5.979,-3.058 6.63,-1.556 7.932,-0.872C8.306,-0.664 8.749,-0.56 9.261,-0.56C11.172,-0.56 13.101,-1.774 15.048,-4.202C15.529,-4.747 15.854,-5.31 16.025,-5.891L16.025,-5.939C16.057,-6.009 16.073,-6.062 16.073,-6.099Z" style="fill-rule:nonzero;"/>
                                </g>
                            </g>
                        </g>
                        <g transform="matrix(0.21,0,0,0.21,77.3192,153.47)">
                            <g>
                                <g>
                                    <path d="M17.41,-15.473L15.665,-8.453C15.083,-6.131 14.792,-4.629 14.792,-3.946C14.792,-2.169 15.425,-1.094 16.689,-0.72C16.961,-0.614 17.268,-0.56 17.61,-0.56C19.317,-0.56 20.873,-1.414 22.276,-3.122C23.194,-4.216 23.909,-5.6 24.422,-7.276C24.528,-7.65 24.752,-7.836 25.094,-7.836C25.5,-7.836 25.702,-7.666 25.702,-7.324C25.702,-6.47 25.174,-5.24 24.117,-3.634C22.271,-0.838 20.067,0.56 17.506,0.56C15.185,0.56 13.496,-0.411 12.439,-2.353C12.231,-2.663 12.076,-2.988 11.975,-3.33C11.158,-1.692 10.032,-0.547 8.597,0.104C7.946,0.408 7.279,0.56 6.596,0.56C4.547,0.56 3.114,-0.037 2.297,-1.233C1.956,-1.676 1.785,-2.204 1.785,-2.818C1.785,-4.082 2.329,-4.971 3.418,-5.483C3.797,-5.686 4.192,-5.787 4.603,-5.787C5.627,-5.787 6.241,-5.36 6.444,-4.507C6.476,-4.336 6.492,-4.165 6.492,-3.994C6.492,-2.836 5.913,-1.982 4.755,-1.433C4.547,-1.331 4.325,-1.265 4.09,-1.233C4.805,-0.784 5.659,-0.56 6.652,-0.56C8.461,-0.56 9.893,-1.774 10.95,-4.202C11.158,-4.715 11.348,-5.278 11.518,-5.891C13.359,-12.86 14.28,-16.924 14.28,-18.082C14.077,-20.201 13.157,-21.345 11.518,-21.516C9.741,-21.516 8.119,-20.611 6.652,-18.802L6.652,-18.747C6.652,-18.714 6.633,-18.698 6.596,-18.698C6.083,-18.015 5.622,-17.231 5.211,-16.345C5.04,-15.934 4.888,-15.523 4.755,-15.112L4.651,-14.808C4.581,-14.429 4.36,-14.24 3.986,-14.24C3.575,-14.24 3.37,-14.411 3.37,-14.752C3.37,-15.606 3.917,-16.836 5.011,-18.442C6.852,-21.244 9.053,-22.645 11.615,-22.645C14.245,-22.645 16.092,-21.345 17.153,-18.747C18.242,-20.865 19.694,-22.13 21.508,-22.541C21.849,-22.61 22.191,-22.645 22.532,-22.645C24.544,-22.645 25.961,-22.082 26.783,-20.956C27.124,-20.475 27.295,-19.91 27.295,-19.259C27.295,-17.861 26.663,-16.921 25.398,-16.441C25.089,-16.34 24.798,-16.289 24.526,-16.289C23.469,-16.289 22.837,-16.751 22.629,-17.674C22.597,-17.813 22.581,-17.949 22.581,-18.082C22.581,-19.107 23.077,-19.91 24.069,-20.491C24.374,-20.662 24.696,-20.782 25.038,-20.852C24.323,-21.295 23.469,-21.516 22.477,-21.516C20.155,-21.516 18.517,-19.707 17.562,-16.089C17.492,-15.881 17.442,-15.675 17.41,-15.473Z" style="fill-rule:nonzero;"/>
                                </g>
                            </g>
                        </g>
                    </g>
                    <g transform="matrix(4.16667,0,0,4.16667,2099.69,1089.57)">
                        <g transform="matrix(0.21,0,0,0.21,13.8317,69.9679)">
                            <g>
                                <g>
                                    <path d="M26.727,-34.988L19.355,-5.379C19.147,-4.525 19.043,-3.706 19.043,-2.922C19.043,-1.347 19.555,-0.56 20.58,-0.56C21.881,-0.56 22.975,-1.926 23.861,-4.659C24.032,-5.24 24.237,-5.993 24.478,-6.916C24.75,-7.497 24.987,-7.804 25.19,-7.836C25.601,-7.836 25.806,-7.666 25.806,-7.324C25.806,-6.812 25.5,-5.617 24.886,-3.738C24.683,-3.156 24.478,-2.663 24.27,-2.257C23.314,-0.379 22.052,0.56 20.483,0.56C18.568,0.56 17.183,-0.259 16.329,-1.897C16.089,-2.308 15.918,-2.77 15.817,-3.282C13.666,-0.72 11.446,0.56 9.157,0.56C6.596,0.56 4.701,-0.6 3.474,-2.922C2.721,-4.288 2.345,-5.859 2.345,-7.636C2.345,-11.324 3.626,-14.739 6.187,-17.882C8.578,-20.748 11.174,-22.317 13.976,-22.589C14.216,-22.626 14.453,-22.645 14.688,-22.645C16.775,-22.645 18.346,-21.551 19.403,-19.363L22.477,-31.506L22.629,-32.53C22.629,-32.904 22.391,-33.144 21.916,-33.25C21.505,-33.352 20.889,-33.403 20.067,-33.403C19.32,-33.403 18.912,-33.608 18.842,-34.019C18.842,-34.595 19.08,-34.918 19.555,-34.988C22.767,-35.366 24.937,-35.556 26.063,-35.556C26.506,-35.556 26.727,-35.366 26.727,-34.988ZM16.073,-6.099L18.634,-16.137C18.736,-16.649 18.787,-16.94 18.787,-17.009C18.787,-17.725 18.48,-18.594 17.866,-19.619C17.114,-20.884 16.073,-21.516 14.744,-21.516C12.967,-21.516 11.276,-20.355 9.669,-18.034C9.365,-17.591 9.074,-17.113 8.797,-16.601C7.81,-14.616 6.974,-11.799 6.291,-8.148C6.083,-6.985 5.979,-6.062 5.979,-5.379C5.979,-3.058 6.63,-1.556 7.932,-0.872C8.306,-0.664 8.749,-0.56 9.261,-0.56C11.172,-0.56 13.101,-1.774 15.048,-4.202C15.529,-4.747 15.854,-5.31 16.025,-5.891L16.025,-5.939C16.057,-6.009 16.073,-6.062 16.073,-6.099Z" style="fill-rule:nonzero;"/>
                                </g>
                            </g>
                        </g>
                        <g transform="matrix(0.21,0,0,0.21,19.431,69.9679)">
                            <g>
                                <g>
                                    <path d="M25.19,-19.515L20.275,0.048C19.454,3.399 17.626,6.115 14.792,8.197C12.711,9.733 10.542,10.502 8.285,10.502C6.001,10.502 4.378,9.717 3.418,8.148C3.044,7.497 2.858,6.796 2.858,6.043C2.858,4.304 3.557,3.228 4.955,2.818C5.232,2.748 5.488,2.714 5.723,2.714C6.817,2.714 7.433,3.191 7.572,4.146C7.604,4.253 7.62,4.373 7.62,4.507C7.62,5.291 7.279,5.993 6.596,6.612C6.121,7.017 5.387,7.22 4.394,7.22C5.008,8.656 6.305,9.373 8.285,9.373C10.403,9.373 12.282,8.298 13.92,6.147C15.254,4.37 16.313,1.964 17.098,-1.073C17.135,-1.211 17.186,-1.435 17.25,-1.745C15.713,-0.208 13.989,0.56 12.079,0.56C9.347,0.56 7.484,-0.446 6.492,-2.457C6.049,-3.349 5.827,-4.373 5.827,-5.531C5.827,-7.41 6.732,-10.774 8.541,-15.625C8.61,-15.828 8.696,-16.049 8.797,-16.289C9.379,-17.863 9.669,-19.059 9.669,-19.875C9.669,-20.969 9.243,-21.516 8.389,-21.516C6.51,-21.516 4.973,-19.963 3.778,-16.857L3.778,-16.801C3.575,-16.289 3.389,-15.742 3.218,-15.161C2.839,-14.584 2.564,-14.277 2.393,-14.24C1.988,-14.24 1.785,-14.411 1.785,-14.752C1.785,-15.366 2.142,-16.441 2.858,-17.978C4.362,-21.089 6.257,-22.645 8.541,-22.645C10.355,-22.645 11.62,-21.876 12.335,-20.339C12.607,-19.758 12.743,-19.125 12.743,-18.442C12.743,-17.727 12.402,-16.497 11.719,-14.752C9.979,-10.243 9.109,-6.897 9.109,-4.715C9.109,-1.945 10.168,-0.56 12.287,-0.56C14.267,-0.56 15.99,-1.62 17.458,-3.738C17.799,-4.25 18.005,-4.643 18.074,-4.915L20.379,-14.136C20.619,-15.267 20.961,-16.633 21.404,-18.234C21.745,-19.707 21.983,-20.63 22.116,-21.004C22.565,-21.719 23.162,-22.076 23.909,-22.076C24.763,-21.906 25.259,-21.447 25.398,-20.699C25.398,-20.39 25.329,-19.995 25.19,-19.515Z" style="fill-rule:nonzero;"/>
                                </g>
                            </g>
                        </g>
                    </g>
                    <g transform="matrix(1,0,0,1,1799,1077)">
                        <g>
                            <path d="M325.866,316.229L321.178,302.167L316.491,316.229L325.866,316.229Z"/>
                            <path d="M321.178,313.417L321.178,604.534" style="fill:none;stroke:black;stroke-width:3.13px;stroke-linecap:round;stroke-linejoin:round;stroke-miterlimit:1.5;"/>
                        </g>
                        <g transform="matrix(0.875,0,0,0.875,309.85,457.48)">
                            <g transform="matrix(1.19481,0,0,1.94286,-2168.13,-2843.45)">
                                <rect x="1804.17" y="1450" width="45.833" height="20.833" style="fill:rgb(242,242,242);"/>
                            </g>
                            <path d="M25.19,-19.515L20.275,0.048C19.454,3.399 17.626,6.115 14.792,8.197C12.711,9.733 10.542,10.502 8.285,10.502C6.001,10.502 4.378,9.717 3.418,8.148C3.044,7.497 2.858,6.796 2.858,6.043C2.858,4.304 3.557,3.228 4.955,2.818C5.232,2.748 5.488,2.714 5.723,2.714C6.817,2.714 7.433,3.191 7.572,4.146C7.604,4.253 7.62,4.373 7.62,4.507C7.62,5.291 7.279,5.993 6.596,6.612C6.121,7.017 5.387,7.22 4.394,7.22C5.008,8.656 6.305,9.373 8.285,9.373C10.403,9.373 12.282,8.298 13.92,6.147C15.254,4.37 16.313,1.964 17.098,-1.073C17.135,-1.211 17.186,-1.435 17.25,-1.745C15.713,-0.208 13.989,0.56 12.079,0.56C9.347,0.56 7.484,-0.446 6.492,-2.457C6.049,-3.349 5.827,-4.373 5.827,-5.531C5.827,-7.41 6.732,-10.774 8.541,-15.625C8.61,-15.828 8.696,-16.049 8.797,-16.289C9.379,-17.863 9.669,-19.059 9.669,-19.875C9.669,-20.969 9.243,-21.516 8.389,-21.516C6.51,-21.516 4.973,-19.963 3.778,-16.857L3.778,-16.801C3.575,-16.289 3.389,-15.742 3.218,-15.161C2.839,-14.584 2.564,-14.277 2.393,-14.24C1.988,-14.24 1.785,-14.411 1.785,-14.752C1.785,-15.366 2.142,-16.441 2.858,-17.978C4.362,-21.089 6.257,-22.645 8.541,-22.645C10.355,-22.645 11.62,-21.876 12.335,-20.339C12.607,-19.758 12.743,-19.125 12.743,-18.442C12.743,-17.727 12.402,-16.497 11.719,-14.752C9.979,-10.243 9.109,-6.897 9.109,-4.715C9.109,-1.945 10.168,-0.56 12.287,-0.56C14.267,-0.56 15.99,-1.62 17.458,-3.738C17.799,-4.25 18.005,-4.643 18.074,-4.915L20.379,-14.136C20.619,-15.267 20.961,-16.633 21.404,-18.234C21.745,-19.707 21.983,-20.63 22.116,-21.004C22.565,-21.719 23.162,-22.076 23.909,-22.076C24.763,-21.906 25.259,-21.447 25.398,-20.699C25.398,-20.39 25.329,-19.995 25.19,-19.515Z" style="fill-rule:nonzero;"/>
                        </g>
                    </g>
                    <g transform="matrix(1.04545,0,0,1,-93.75,-2.00685)">
                        <g>
                            <g transform="matrix(0.956522,0,0,1,1810.46,1079.01)">
                                <path d="M297.354,296.514L311.417,291.826L297.354,287.139L297.354,296.514Z"/>
                            </g>
                            <g transform="matrix(0.956522,0,0,1,1810.46,1079.01)">
                                <path d="M300.167,291.826L119.75,291.826" style="fill:none;stroke:black;stroke-width:3.13px;stroke-linecap:round;stroke-linejoin:round;stroke-miterlimit:1.5;"/>
                            </g>
                        </g>
                        <g transform="matrix(0.83696,0,0,0.875,2010.48,1380.5)">
                            <g transform="matrix(0.935065,0,0,1.14286,-1539.57,-1687.23)">
                                <rect x="1641.67" y="1450" width="45.833" height="33.333" style="fill:rgb(242,242,242);"/>
                            </g>
                            <path d="M17.41,-15.473L15.665,-8.453C15.083,-6.131 14.792,-4.629 14.792,-3.946C14.792,-2.169 15.425,-1.094 16.689,-0.72C16.961,-0.614 17.268,-0.56 17.61,-0.56C19.317,-0.56 20.873,-1.414 22.276,-3.122C23.194,-4.216 23.909,-5.6 24.422,-7.276C24.528,-7.65 24.752,-7.836 25.094,-7.836C25.5,-7.836 25.702,-7.666 25.702,-7.324C25.702,-6.47 25.174,-5.24 24.117,-3.634C22.271,-0.838 20.067,0.56 17.506,0.56C15.185,0.56 13.496,-0.411 12.439,-2.353C12.231,-2.663 12.076,-2.988 11.975,-3.33C11.158,-1.692 10.032,-0.547 8.597,0.104C7.946,0.408 7.279,0.56 6.596,0.56C4.547,0.56 3.114,-0.037 2.297,-1.233C1.956,-1.676 1.785,-2.204 1.785,-2.818C1.785,-4.082 2.329,-4.971 3.418,-5.483C3.797,-5.686 4.192,-5.787 4.603,-5.787C5.627,-5.787 6.241,-5.36 6.444,-4.507C6.476,-4.336 6.492,-4.165 6.492,-3.994C6.492,-2.836 5.913,-1.982 4.755,-1.433C4.547,-1.331 4.325,-1.265 4.09,-1.233C4.805,-0.784 5.659,-0.56 6.652,-0.56C8.461,-0.56 9.893,-1.774 10.95,-4.202C11.158,-4.715 11.348,-5.278 11.518,-5.891C13.359,-12.86 14.28,-16.924 14.28,-18.082C14.077,-20.201 13.157,-21.345 11.518,-21.516C9.741,-21.516 8.119,-20.611 6.652,-18.802L6.652,-18.747C6.652,-18.714 6.633,-18.698 6.596,-18.698C6.083,-18.015 5.622,-17.231 5.211,-16.345C5.04,-15.934 4.888,-15.523 4.755,-15.112L4.651,-14.808C4.581,-14.429 4.36,-14.24 3.986,-14.24C3.575,-14.24 3.37,-14.411 3.37,-14.752C3.37,-15.606 3.917,-16.836 5.011,-18.442C6.852,-21.244 9.053,-22.645 11.615,-22.645C14.245,-22.645 16.092,-21.345 17.153,-18.747C18.242,-20.865 19.694,-22.13 21.508,-22.541C21.849,-22.61 22.191,-22.645 22.532,-22.645C24.544,-22.645 25.961,-22.082 26.783,-20.956C27.124,-20.475 27.295,-19.91 27.295,-19.259C27.295,-17.861 26.663,-16.921 25.398,-16.441C25.089,-16.34 24.798,-16.289 24.526,-16.289C23.469,-16.289 22.837,-16.751 22.629,-17.674C22.597,-17.813 22.581,-17.949 22.581,-18.082C22.581,-19.107 23.077,-19.91 24.069,-20.491C24.374,-20.662 24.696,-20.782 25.038,-20.852C24.323,-21.295 23.469,-21.516 22.477,-21.516C20.155,-21.516 18.517,-19.707 17.562,-16.089C17.492,-15.881 17.442,-15.675 17.41,-15.473Z" style="fill-rule:nonzero;"/>
                        </g>
                    </g>
                </g>
            </g>
        </g>
    </g>
</svg>
