<?xml version="1.0" encoding="UTF-8" standalone="no"?>
<!DOCTYPE svg PUBLIC "-//W3C//DTD SVG 1.1//EN" "http://www.w3.org/Graphics/SVG/1.1/DTD/svg11.dtd">
<svg width="100%" height="100%" viewBox="0 0 151 142" version="1.1" xmlns="http://www.w3.org/2000/svg" xmlns:xlink="http://www.w3.org/1999/xlink" xml:space="preserve" xmlns:serif="http://www.serif.com/" style="fill-rule:evenodd;clip-rule:evenodd;stroke-linecap:round;stroke-linejoin:round;stroke-miterlimit:1.5;">
    <g transform="matrix(1,0,0,1,-753,-245)">
        <g id="mud-dam" transform="matrix(0.277778,0,0,0.313729,659.478,150.153)">
            <rect x="337" y="303" width="540" height="450" style="fill:none;"/>
            <clipPath id="_clip1">
                <rect x="337" y="303" width="540" height="450"/>
            </clipPath>
            <g clip-path="url(#_clip1)">
                <g transform="matrix(3.94273,0,0,2.75445,331.53,328.981)">
                    <rect x="60" y="60" width="61" height="80" style="fill:rgb(143,80,79);"/>
                </g>
                <g transform="matrix(3.6,0,0,3.18747,-1808.6,-478.609)">
                    <path d="M731,305.213L740,305.213" style="fill:none;stroke:black;stroke-width:0.5px;"/>
                </g>
                <g transform="matrix(4.99835,0,0,3.31917,368.16,316.303)">
                    <rect x="20" y="20" width="20" height="100" style="fill:rgb(128,128,128);stroke:black;stroke-width:0.61px;stroke-linejoin:miter;"/>
                </g>
                <g transform="matrix(3.8738,0,0,2.76599,365.659,330.133)">
                    <path d="M20,140L132,140" style="fill:none;stroke:black;stroke-width:2.88px;stroke-linecap:square;stroke-linejoin:miter;"/>
                </g>
                <g transform="matrix(3.6,0,0,3.18747,-2002.86,-464.031)">
                    <g transform="matrix(10,0,0,10,687.65,257.3)">
                        <path d="M0.039,-0.32C0.039,-0.418 0.051,-0.493 0.076,-0.547C0.111,-0.626 0.169,-0.666 0.25,-0.666C0.267,-0.666 0.285,-0.664 0.303,-0.659C0.321,-0.654 0.342,-0.643 0.365,-0.625C0.387,-0.607 0.406,-0.583 0.42,-0.554C0.447,-0.498 0.46,-0.419 0.46,-0.32C0.46,-0.222 0.448,-0.147 0.423,-0.094C0.387,-0.017 0.329,0.022 0.249,0.022C0.219,0.022 0.189,0.014 0.158,-0.001C0.128,-0.016 0.103,-0.042 0.084,-0.079C0.054,-0.134 0.039,-0.214 0.039,-0.32ZM0.122,-0.332C0.122,-0.231 0.126,-0.161 0.133,-0.121C0.141,-0.078 0.156,-0.047 0.178,-0.028C0.201,-0.009 0.224,-0 0.249,-0C0.276,-0 0.3,-0.01 0.323,-0.03C0.345,-0.05 0.359,-0.082 0.366,-0.125C0.374,-0.168 0.377,-0.237 0.377,-0.332C0.377,-0.425 0.374,-0.49 0.367,-0.527C0.358,-0.57 0.342,-0.601 0.319,-0.618C0.296,-0.635 0.272,-0.644 0.249,-0.644C0.24,-0.644 0.231,-0.643 0.222,-0.64C0.213,-0.638 0.201,-0.632 0.188,-0.625C0.175,-0.618 0.163,-0.604 0.153,-0.586C0.142,-0.567 0.135,-0.544 0.13,-0.516C0.125,-0.48 0.122,-0.419 0.122,-0.332Z" style="fill-rule:nonzero;"/>
                    </g>
                    <g transform="matrix(10,0,0,10,692.65,257.3)">
                        <path d="M0.1,-0.016C0.09,-0.027 0.085,-0.039 0.085,-0.053C0.085,-0.067 0.09,-0.079 0.1,-0.09C0.11,-0.1 0.123,-0.105 0.138,-0.105C0.153,-0.105 0.165,-0.1 0.175,-0.091C0.185,-0.081 0.19,-0.068 0.19,-0.053C0.19,-0.038 0.185,-0.025 0.174,-0.015C0.163,-0.005 0.152,-0 0.138,-0C0.123,-0 0.11,-0.005 0.1,-0.016Z" style="fill-rule:nonzero;"/>
                    </g>
                    <g transform="matrix(10,0,0,10,695.429,257.3)">
                        <path d="M0.042,-0.151C0.042,-0.225 0.09,-0.287 0.186,-0.335C0.145,-0.363 0.12,-0.381 0.113,-0.389C0.083,-0.422 0.069,-0.458 0.069,-0.499C0.069,-0.546 0.087,-0.585 0.122,-0.617C0.157,-0.65 0.2,-0.666 0.25,-0.666C0.298,-0.666 0.34,-0.652 0.376,-0.625C0.412,-0.597 0.43,-0.561 0.43,-0.517C0.43,-0.455 0.39,-0.403 0.309,-0.362C0.362,-0.329 0.396,-0.305 0.408,-0.291C0.441,-0.255 0.457,-0.214 0.457,-0.168C0.457,-0.115 0.437,-0.07 0.396,-0.033C0.354,0.004 0.306,0.022 0.249,0.022C0.194,0.022 0.145,0.006 0.104,-0.026C0.063,-0.059 0.042,-0.1 0.042,-0.151ZM0.092,-0.151C0.092,-0.11 0.107,-0.075 0.138,-0.047C0.17,-0.02 0.207,-0.006 0.25,-0.006C0.292,-0.006 0.329,-0.018 0.36,-0.042C0.392,-0.066 0.407,-0.096 0.407,-0.132C0.407,-0.146 0.405,-0.159 0.4,-0.171C0.395,-0.183 0.388,-0.194 0.379,-0.203C0.37,-0.213 0.362,-0.22 0.357,-0.224C0.351,-0.229 0.343,-0.235 0.332,-0.242L0.209,-0.32C0.131,-0.277 0.092,-0.22 0.092,-0.151ZM0.113,-0.538C0.113,-0.506 0.13,-0.479 0.163,-0.457L0.287,-0.377C0.353,-0.416 0.386,-0.462 0.386,-0.517C0.386,-0.553 0.373,-0.582 0.346,-0.606C0.319,-0.629 0.286,-0.641 0.249,-0.641C0.212,-0.641 0.18,-0.631 0.153,-0.612C0.126,-0.593 0.113,-0.568 0.113,-0.538Z" style="fill-rule:nonzero;"/>
                    </g>
                    <g transform="matrix(10,0,0,10,703.754,257.3)">
                        <path d="M0.032,-0L0.032,-0.031C0.068,-0.031 0.09,-0.033 0.098,-0.037C0.106,-0.042 0.11,-0.055 0.11,-0.076L0.11,-0.344C0.11,-0.369 0.106,-0.384 0.097,-0.391C0.088,-0.397 0.067,-0.4 0.032,-0.4L0.032,-0.431L0.173,-0.442L0.173,-0.337C0.204,-0.407 0.253,-0.442 0.321,-0.442C0.399,-0.442 0.443,-0.409 0.454,-0.344C0.465,-0.37 0.483,-0.392 0.507,-0.412C0.531,-0.432 0.562,-0.442 0.599,-0.442C0.649,-0.442 0.684,-0.43 0.704,-0.405C0.719,-0.388 0.728,-0.371 0.73,-0.352C0.733,-0.333 0.735,-0.3 0.735,-0.252L0.735,-0.061C0.736,-0.047 0.741,-0.038 0.752,-0.035C0.763,-0.032 0.783,-0.031 0.813,-0.031L0.813,-0C0.745,-0.002 0.708,-0.003 0.701,-0.003C0.696,-0.003 0.658,-0.002 0.588,-0L0.588,-0.031C0.623,-0.031 0.645,-0.033 0.654,-0.037C0.662,-0.042 0.666,-0.055 0.666,-0.076L0.666,-0.309C0.666,-0.343 0.661,-0.37 0.65,-0.39C0.64,-0.41 0.62,-0.42 0.592,-0.42C0.557,-0.42 0.526,-0.405 0.499,-0.376C0.471,-0.347 0.457,-0.309 0.457,-0.26L0.457,-0.076C0.457,-0.055 0.461,-0.042 0.469,-0.037C0.478,-0.033 0.5,-0.031 0.535,-0.031L0.535,-0C0.467,-0.002 0.43,-0.003 0.423,-0.003C0.418,-0.003 0.38,-0.002 0.31,-0L0.31,-0.031C0.346,-0.031 0.367,-0.033 0.376,-0.037C0.384,-0.042 0.388,-0.055 0.388,-0.076L0.388,-0.309C0.388,-0.343 0.383,-0.37 0.373,-0.39C0.362,-0.41 0.343,-0.42 0.314,-0.42C0.279,-0.42 0.248,-0.405 0.221,-0.376C0.193,-0.347 0.179,-0.309 0.179,-0.26L0.179,-0.076C0.179,-0.055 0.183,-0.042 0.192,-0.037C0.2,-0.033 0.222,-0.031 0.257,-0.031L0.257,-0C0.189,-0.002 0.152,-0.003 0.145,-0.003C0.14,-0.003 0.102,-0.002 0.032,-0Z" style="fill-rule:nonzero;"/>
                    </g>
                </g>
                <g transform="matrix(3.6,0,0,3.18747,-2119.65,-251.873)">
                    <g transform="matrix(10,0,0,10,687.65,257.3)">
                        <path d="M0.042,-0.135C0.042,-0.155 0.048,-0.169 0.059,-0.179C0.07,-0.188 0.083,-0.193 0.098,-0.193C0.113,-0.193 0.127,-0.188 0.137,-0.178C0.148,-0.168 0.154,-0.154 0.154,-0.137C0.154,-0.119 0.147,-0.104 0.135,-0.094C0.122,-0.083 0.106,-0.079 0.088,-0.082C0.104,-0.055 0.127,-0.036 0.156,-0.024C0.185,-0.012 0.214,-0.006 0.241,-0.006C0.27,-0.006 0.296,-0.018 0.319,-0.043C0.342,-0.068 0.354,-0.11 0.354,-0.171C0.354,-0.222 0.344,-0.263 0.324,-0.292C0.304,-0.322 0.274,-0.337 0.235,-0.337L0.191,-0.337C0.181,-0.337 0.174,-0.337 0.171,-0.338C0.168,-0.339 0.167,-0.343 0.167,-0.348C0.167,-0.355 0.172,-0.359 0.182,-0.36C0.192,-0.36 0.205,-0.361 0.221,-0.363C0.26,-0.364 0.29,-0.382 0.31,-0.415C0.329,-0.446 0.338,-0.484 0.338,-0.529C0.338,-0.569 0.328,-0.598 0.309,-0.615C0.289,-0.633 0.267,-0.641 0.242,-0.641C0.219,-0.641 0.194,-0.636 0.168,-0.626C0.143,-0.617 0.123,-0.601 0.109,-0.579C0.15,-0.579 0.171,-0.562 0.171,-0.529C0.171,-0.514 0.166,-0.502 0.157,-0.492C0.148,-0.483 0.135,-0.478 0.12,-0.478C0.105,-0.478 0.093,-0.483 0.083,-0.492C0.074,-0.501 0.069,-0.514 0.069,-0.53C0.069,-0.568 0.086,-0.6 0.12,-0.626C0.154,-0.653 0.196,-0.666 0.246,-0.666C0.296,-0.666 0.339,-0.653 0.375,-0.627C0.412,-0.601 0.43,-0.568 0.43,-0.528C0.43,-0.488 0.417,-0.453 0.391,-0.42C0.365,-0.388 0.331,-0.365 0.29,-0.352C0.341,-0.342 0.381,-0.32 0.412,-0.285C0.442,-0.251 0.457,-0.213 0.457,-0.171C0.457,-0.119 0.437,-0.074 0.396,-0.035C0.354,0.003 0.304,0.022 0.244,0.022C0.189,0.022 0.141,0.007 0.102,-0.023C0.062,-0.053 0.042,-0.09 0.042,-0.135Z" style="fill-rule:nonzero;"/>
                    </g>
                    <g transform="matrix(10,0,0,10,692.65,257.3)">
                        <path d="M0.1,-0.016C0.09,-0.027 0.085,-0.039 0.085,-0.053C0.085,-0.067 0.09,-0.079 0.1,-0.09C0.11,-0.1 0.123,-0.105 0.138,-0.105C0.153,-0.105 0.165,-0.1 0.175,-0.091C0.185,-0.081 0.19,-0.068 0.19,-0.053C0.19,-0.038 0.185,-0.025 0.174,-0.015C0.163,-0.005 0.152,-0 0.138,-0C0.123,-0 0.11,-0.005 0.1,-0.016Z" style="fill-rule:nonzero;"/>
                    </g>
                    <g transform="matrix(10,0,0,10,695.429,257.3)">
                        <path d="M0.039,-0.32C0.039,-0.418 0.051,-0.493 0.076,-0.547C0.111,-0.626 0.169,-0.666 0.25,-0.666C0.267,-0.666 0.285,-0.664 0.303,-0.659C0.321,-0.654 0.342,-0.643 0.365,-0.625C0.387,-0.607 0.406,-0.583 0.42,-0.554C0.447,-0.498 0.46,-0.419 0.46,-0.32C0.46,-0.222 0.448,-0.147 0.423,-0.094C0.387,-0.017 0.329,0.022 0.249,0.022C0.219,0.022 0.189,0.014 0.158,-0.001C0.128,-0.016 0.103,-0.042 0.084,-0.079C0.054,-0.134 0.039,-0.214 0.039,-0.32ZM0.122,-0.332C0.122,-0.231 0.126,-0.161 0.133,-0.121C0.141,-0.078 0.156,-0.047 0.178,-0.028C0.201,-0.009 0.224,-0 0.249,-0C0.276,-0 0.3,-0.01 0.323,-0.03C0.345,-0.05 0.359,-0.082 0.366,-0.125C0.374,-0.168 0.377,-0.237 0.377,-0.332C0.377,-0.425 0.374,-0.49 0.367,-0.527C0.358,-0.57 0.342,-0.601 0.319,-0.618C0.296,-0.635 0.272,-0.644 0.249,-0.644C0.24,-0.644 0.231,-0.643 0.222,-0.64C0.213,-0.638 0.201,-0.632 0.188,-0.625C0.175,-0.618 0.163,-0.604 0.153,-0.586C0.142,-0.567 0.135,-0.544 0.13,-0.516C0.125,-0.48 0.122,-0.419 0.122,-0.332Z" style="fill-rule:nonzero;"/>
                    </g>
                    <g transform="matrix(10,0,0,10,703.754,257.3)">
                        <path d="M0.032,-0L0.032,-0.031C0.068,-0.031 0.09,-0.033 0.098,-0.037C0.106,-0.042 0.11,-0.055 0.11,-0.076L0.11,-0.344C0.11,-0.369 0.106,-0.384 0.097,-0.391C0.088,-0.397 0.067,-0.4 0.032,-0.4L0.032,-0.431L0.173,-0.442L0.173,-0.337C0.204,-0.407 0.253,-0.442 0.321,-0.442C0.399,-0.442 0.443,-0.409 0.454,-0.344C0.465,-0.37 0.483,-0.392 0.507,-0.412C0.531,-0.432 0.562,-0.442 0.599,-0.442C0.649,-0.442 0.684,-0.43 0.704,-0.405C0.719,-0.388 0.728,-0.371 0.73,-0.352C0.733,-0.333 0.735,-0.3 0.735,-0.252L0.735,-0.061C0.736,-0.047 0.741,-0.038 0.752,-0.035C0.763,-0.032 0.783,-0.031 0.813,-0.031L0.813,-0C0.745,-0.002 0.708,-0.003 0.701,-0.003C0.696,-0.003 0.658,-0.002 0.588,-0L0.588,-0.031C0.623,-0.031 0.645,-0.033 0.654,-0.037C0.662,-0.042 0.666,-0.055 0.666,-0.076L0.666,-0.309C0.666,-0.343 0.661,-0.37 0.65,-0.39C0.64,-0.41 0.62,-0.42 0.592,-0.42C0.557,-0.42 0.526,-0.405 0.499,-0.376C0.471,-0.347 0.457,-0.309 0.457,-0.26L0.457,-0.076C0.457,-0.055 0.461,-0.042 0.469,-0.037C0.478,-0.033 0.5,-0.031 0.535,-0.031L0.535,-0C0.467,-0.002 0.43,-0.003 0.423,-0.003C0.418,-0.003 0.38,-0.002 0.31,-0L0.31,-0.031C0.346,-0.031 0.367,-0.033 0.376,-0.037C0.384,-0.042 0.388,-0.055 0.388,-0.076L0.388,-0.309C0.388,-0.343 0.383,-0.37 0.373,-0.39C0.362,-0.41 0.343,-0.42 0.314,-0.42C0.279,-0.42 0.248,-0.405 0.221,-0.376C0.193,-0.347 0.179,-0.309 0.179,-0.26L0.179,-0.076C0.179,-0.055 0.183,-0.042 0.192,-0.037C0.2,-0.033 0.222,-0.031 0.257,-0.031L0.257,-0C0.189,-0.002 0.152,-0.003 0.145,-0.003C0.14,-0.003 0.102,-0.002 0.032,-0Z" style="fill-rule:nonzero;"/>
                    </g>
                </g>
                <g transform="matrix(3.6,0,0,3.82321,376.6,206.284)">
                    <g transform="matrix(1,-0,-0,0.833714,-11.0888,25.1194)">
                        <path d="M140.839,62.463L140.089,60.213L139.339,62.463L140.839,62.463Z"/>
                        <path d="M140.839,127.963L140.089,130.213L139.339,127.963L140.839,127.963Z"/>
                        <path d="M140.089,62.013L140.089,128.413" style="fill:none;stroke:black;stroke-width:0.5px;"/>
                    </g>
                </g>
                <g transform="matrix(1,0,0,1,54,5.68434e-13)">
                    <g transform="matrix(3.6,0,0,3.18747,-1808.6,-478.609)">
                        <rect x="716" y="332" width="13" height="13.213" style="fill:white;"/>
                    </g>
                    <g transform="matrix(3.6,0,0,3.18747,-1697.11,-213.09)">
                        <g transform="matrix(10,0,0,10,687.65,257.3)">
                            <path d="M0.075,-0.015C0.075,-0.021 0.076,-0.025 0.077,-0.028L0.225,-0.618C0.225,-0.618 0.225,-0.621 0.226,-0.626C0.227,-0.631 0.228,-0.633 0.228,-0.635C0.228,-0.639 0.227,-0.642 0.226,-0.644C0.225,-0.646 0.22,-0.648 0.213,-0.649C0.205,-0.651 0.194,-0.652 0.178,-0.652C0.162,-0.652 0.154,-0.656 0.154,-0.663C0.154,-0.669 0.155,-0.673 0.157,-0.677C0.16,-0.68 0.162,-0.681 0.165,-0.682C0.168,-0.683 0.172,-0.683 0.177,-0.684L0.276,-0.692C0.28,-0.693 0.285,-0.694 0.292,-0.694C0.301,-0.694 0.306,-0.69 0.306,-0.682C0.306,-0.68 0.305,-0.675 0.303,-0.669L0.23,-0.377C0.245,-0.391 0.256,-0.401 0.264,-0.408C0.273,-0.415 0.286,-0.423 0.304,-0.43C0.323,-0.438 0.342,-0.442 0.363,-0.442C0.392,-0.442 0.417,-0.434 0.437,-0.418C0.457,-0.402 0.467,-0.375 0.467,-0.338C0.467,-0.297 0.446,-0.223 0.406,-0.115C0.394,-0.079 0.388,-0.054 0.388,-0.04C0.388,-0.021 0.396,-0.011 0.41,-0.011C0.448,-0.011 0.479,-0.053 0.503,-0.136C0.505,-0.144 0.507,-0.149 0.509,-0.151C0.51,-0.152 0.514,-0.153 0.52,-0.153C0.53,-0.153 0.535,-0.15 0.535,-0.143C0.535,-0.141 0.534,-0.135 0.531,-0.125C0.528,-0.115 0.524,-0.102 0.517,-0.086C0.51,-0.071 0.502,-0.056 0.493,-0.042C0.484,-0.027 0.472,-0.015 0.457,-0.004C0.442,0.006 0.425,0.011 0.408,0.011C0.385,0.011 0.366,0.003 0.353,-0.012C0.339,-0.027 0.332,-0.046 0.332,-0.069C0.332,-0.083 0.337,-0.105 0.348,-0.133C0.387,-0.243 0.406,-0.317 0.406,-0.354C0.406,-0.398 0.39,-0.42 0.36,-0.42C0.31,-0.42 0.266,-0.388 0.227,-0.325C0.214,-0.302 0.205,-0.279 0.199,-0.255L0.183,-0.19C0.182,-0.184 0.178,-0.167 0.171,-0.139C0.164,-0.11 0.157,-0.084 0.151,-0.06C0.145,-0.036 0.141,-0.022 0.14,-0.017C0.138,-0.011 0.134,-0.004 0.127,0.002C0.121,0.008 0.112,0.011 0.103,0.011C0.094,0.011 0.087,0.008 0.083,0.003C0.078,-0.003 0.075,-0.009 0.075,-0.015Z" style="fill-rule:nonzero;"/>
                        </g>
                    </g>
                </g>
            </g>
        </g>
    </g>
</svg>
