<?xml version="1.0" encoding="UTF-8"?>
<!DOCTYPE svg PUBLIC "-//W3C//DTD SVG 1.1//EN" "http://www.w3.org/Graphics/SVG/1.1/DTD/svg11.dtd">
<svg version="1.1" xmlns="http://www.w3.org/2000/svg" xmlns:xlink="http://www.w3.org/1999/xlink" x="0" y="0" width="131.68" height="30.32" viewBox="0, 0, 131.68, 30.32">
  <g id="Layer_1">
    <g>
      <path d="M2.5,15.801 L130.18,15.801" fill-opacity="0" stroke="#E62100" stroke-width="2.016" stroke-linecap="round" stroke-linejoin="round"/>
      <path d="M13.78,18.921 L13.54,18.681 L13.3,18.441 L12.82,18.441 L12.58,18.201 L12.34,17.961 L11.86,17.961 L11.62,17.721 L11.14,17.721 L10.9,17.481 L10.42,17.241 L10.18,17.241 L9.7,17.001 L9.46,17.001 L9.22,16.761 L8.74,16.761 L8.5,16.761 L8.02,16.521 L7.78,16.521 L7.3,16.521 L7.06,16.281 L6.58,16.281 L6.34,16.281 L5.86,16.041 L5.62,16.041 L5.14,16.041 L4.9,16.041 L4.42,16.041 L3.94,16.041 L3.7,15.801 L3.22,15.801 L2.98,15.801 L2.5,15.801 L2.98,15.801 L3.22,15.801 L3.7,15.801 L3.94,15.801 L4.42,15.801 L4.9,15.801 L5.14,15.561 L5.62,15.561 L5.86,15.561 L6.34,15.561 L6.58,15.321 L7.06,15.321 L7.3,15.321 L7.78,15.081 L8.02,15.081 L8.5,15.081 L8.74,14.841 L9.22,14.841 L9.46,14.601 L9.7,14.601 L10.18,14.361 L10.42,14.361 L10.9,14.121 L11.14,14.121 L11.62,13.881 L11.86,13.881 L12.34,13.641 L12.58,13.401 L12.82,13.401 L13.3,13.161 L13.54,12.921 L13.78,12.921 L13.78,12.921" fill-opacity="0" stroke="#E62100" stroke-width="2.016" stroke-linecap="round" stroke-linejoin="round"/>
      <path d="M118.9,12.921 L119.14,12.921 L119.38,13.161 L119.86,13.401 L120.1,13.401 L120.34,13.641 L120.82,13.881 L121.06,13.881 L121.54,14.121 L121.78,14.121 L122.26,14.361 L122.5,14.361 L122.98,14.601 L123.22,14.601 L123.46,14.841 L123.94,14.841 L124.18,15.081 L124.66,15.081 L124.9,15.081 L125.38,15.321 L125.62,15.321 L126.1,15.321 L126.34,15.561 L126.82,15.561 L127.06,15.561 L127.54,15.561 L127.78,15.801 L128.26,15.801 L128.74,15.801 L128.98,15.801 L129.46,15.801 L129.7,15.801 L130.18,15.801 L129.7,15.801 L129.46,15.801 L128.98,15.801 L128.74,16.041 L128.26,16.041 L127.78,16.041 L127.54,16.041 L127.06,16.041 L126.82,16.041 L126.34,16.281 L126.1,16.281 L125.62,16.281 L125.38,16.521 L124.9,16.521 L124.66,16.521 L124.18,16.761 L123.94,16.761 L123.46,16.761 L123.22,17.001 L122.98,17.001 L122.5,17.241 L122.26,17.241 L121.78,17.481 L121.54,17.721 L121.06,17.721 L120.82,17.961 L120.34,17.961 L120.1,18.201 L119.86,18.441 L119.38,18.441 L119.14,18.681 L118.9,18.921 L118.9,18.921" fill-opacity="0" stroke="#E62100" stroke-width="2.016" stroke-linecap="round" stroke-linejoin="round"/>
      <path d="M30.32,0.859 L101.36,0.859 L101.36,29.179 L30.32,29.179 z" fill="#E4E4E4"/>
      <path d="M30.82,1.641 L101.86,1.641 L101.86,29.961 L30.82,29.961 z" fill-opacity="0" stroke="#000000" stroke-width="1.44" stroke-linecap="round" stroke-linejoin="round"/>
      <path d="M25.3,1.641 L107.38,1.641" fill-opacity="0" stroke="#000000" stroke-width="1.44" stroke-dasharray="4.32,4.32" stroke-linecap="round" stroke-linejoin="round"/>
      <path d="M107.38,1.641 L107.38,29.961" fill-opacity="0" stroke="#000000" stroke-width="1.44" stroke-dasharray="4.32,4.32" stroke-linecap="round" stroke-linejoin="round"/>
      <path d="M107.38,29.961 L25.3,29.961" fill-opacity="0" stroke="#000000" stroke-width="1.44" stroke-dasharray="4.32,4.32" stroke-linecap="round" stroke-linejoin="round"/>
      <path d="M25.3,29.961 L25.3,1.641" fill-opacity="0" stroke="#000000" stroke-width="1.44" stroke-dasharray="4.32,4.32" stroke-linecap="round" stroke-linejoin="round"/>
    </g>
  </g>
</svg>
