<?xml version="1.0" encoding="UTF-8" standalone="no"?>
<!DOCTYPE svg PUBLIC "-//W3C//DTD SVG 1.1//EN" "http://www.w3.org/Graphics/SVG/1.1/DTD/svg11.dtd">
<svg width="100%" height="100%" viewBox="0 0 130 51" version="1.1" xmlns="http://www.w3.org/2000/svg" xmlns:xlink="http://www.w3.org/1999/xlink" xml:space="preserve" xmlns:serif="http://www.serif.com/" style="fill-rule:evenodd;clip-rule:evenodd;stroke-linecap:round;stroke-linejoin:round;stroke-miterlimit:1.5;">
    <g transform="matrix(1,0,0,1,0,-59)">
        <g id="NormalVM" transform="matrix(0.870652,0,0,1.67493,8.54689,-53.9692)">
            <rect x="-9.817" y="68" width="149.313" height="29.852" style="fill:none;"/>
            <g transform="matrix(1.14527,0,0,0.59704,-49.5033,180.464)">
                <g transform="matrix(1,0,0,1,33.5,-178.779)">
                    <g transform="matrix(1.00288,-0,-0,1,1.15278,-10.516)">
                        <path d="M10.343,23.317L1.343,26.317L10.343,29.317L10.343,23.317Z" style="fill:rgb(225,32,32);fill-rule:nonzero;"/>
                        <path d="M119.657,23.317L128.657,26.317L119.657,29.317L119.657,23.317Z" style="fill:rgb(225,32,32);fill-rule:nonzero;"/>
                        <path d="M8.543,26.317L121.457,26.317" style="fill:none;fill-rule:nonzero;stroke:rgb(225,32,32);stroke-width:2px;"/>
                    </g>
                </g>
                <g transform="matrix(1,0,0,1,33.5,-178.779)">
                    <rect x="30.32" y="0.859" width="71.04" height="28.32" style="fill:rgb(228,228,228);fill-rule:nonzero;"/>
                </g>
                <g transform="matrix(0.988198,0,0,1,34.2829,-178.779)">
                    <rect x="30.82" y="1.641" width="71.04" height="28.32" style="fill:rgb(230,230,230);fill-rule:nonzero;stroke:black;stroke-width:1.51px;"/>
                </g>
                <g transform="matrix(1,0,0,1,33.5,-178.779)">
                    <path d="M25.3,1.641L107.38,1.641" style="fill:none;fill-rule:nonzero;stroke:black;stroke-width:1px;stroke-miterlimit:4;stroke-dasharray:3,3;"/>
                </g>
                <g transform="matrix(1,0,0,1,33.5,-178.779)">
                    <path d="M107.38,1.641L107.38,29.961" style="fill:none;fill-rule:nonzero;stroke:black;stroke-width:1px;stroke-miterlimit:4;stroke-dasharray:3,3;"/>
                </g>
                <g transform="matrix(1,0,0,1,33.5,-178.779)">
                    <path d="M107.38,29.961L25.3,29.961" style="fill:none;fill-rule:nonzero;stroke:black;stroke-width:1px;stroke-miterlimit:4;stroke-dasharray:3,3;"/>
                </g>
                <g transform="matrix(1,0,0,1,33.5,-178.779)">
                    <path d="M25.3,29.961L25.3,1.641" style="fill:none;fill-rule:nonzero;stroke:black;stroke-width:1px;stroke-miterlimit:4;stroke-dasharray:3,3;"/>
                </g>
            </g>
        </g>
    </g>
</svg>
