<?xml version="1.0" encoding="UTF-8" standalone="no"?>
<!DOCTYPE svg PUBLIC "-//W3C//DTD SVG 1.1//EN" "http://www.w3.org/Graphics/SVG/1.1/DTD/svg11.dtd">
<svg width="100%" height="100%" viewBox="0 0 241 26" version="1.1" xmlns="http://www.w3.org/2000/svg" xmlns:xlink="http://www.w3.org/1999/xlink" xml:space="preserve" xmlns:serif="http://www.serif.com/" style="fill-rule:evenodd;clip-rule:evenodd;stroke-linecap:round;stroke-linejoin:round;stroke-miterlimit:1.5;">
    <g transform="matrix(1,0,0,1,-2,-201)">
        <g id="pen1" transform="matrix(0.251309,0,0,0.0759878,2.736,133.117)">
            <rect x="0" y="900" width="955" height="329" style="fill:none;"/>
            <g id="PEN" transform="matrix(1,0,0,3.26957,2.92867,-4224.12)">
                <g transform="matrix(5.54363,0,0,4.025,-294.423,56.3331)">
                    <rect x="122.736" y="382.07" width="58.5" height="11.57" style="fill:rgb(204,204,204);"/>
                </g>
                <g transform="matrix(3.97917,0,0,4.025,-10.887,55.7495)">
                    <path d="M17.736,387L38.736,383.14L50.736,382L50.736,393.64L38.736,392.5L17.736,388.64L17.736,388.32L14.736,388.32L14.736,387.98L12,387.98L12,387.66L14.736,387.66L14.736,387.32L17.736,387.32L17.736,387Z" style="fill:rgb(204,204,204);"/>
                </g>
                <g transform="matrix(2.4778,0,0,2.69926,80.153,566.38)">
                    <path d="M44.736,380.64L44.736,398.143C44.736,398.143 49.403,398.151 48.736,398.143C47.715,398.131 47.66,399.125 46.736,399.143C45.812,399.161 45.658,398.14 44.736,398.143C45.658,398.14 45.812,399.161 46.736,399.143C47.66,399.125 47.715,398.131 48.736,398.143C49.658,398.14 49.812,399.161 50.736,399.143C51.66,399.125 51.715,398.131 52.736,398.143C53.658,398.14 53.812,399.161 54.736,399.143C55.66,399.125 55.715,398.131 56.736,398.143C57.658,398.14 57.812,399.161 58.736,399.143C59.66,399.125 59.715,398.131 60.736,398.143C61.658,398.14 61.812,399.161 62.736,399.143C63.66,399.125 63.715,398.131 64.736,398.143C65.658,398.14 65.812,399.161 66.736,399.143C67.66,399.125 67.715,398.131 68.736,398.143C69.658,398.14 69.812,399.161 70.736,399.143C71.66,399.125 71.715,398.131 72.736,398.143C73.658,398.14 73.812,399.161 74.736,399.143C75.66,399.125 75.715,398.131 76.736,398.143C77.658,398.14 77.812,399.161 78.736,399.143C79.66,399.125 79.715,398.131 80.736,398.143C81.658,398.14 81.812,399.161 82.736,399.143C83.66,399.125 83.715,398.131 84.736,398.143C85.658,398.14 85.812,399.161 86.736,399.143C87.66,399.125 87.715,398.131 88.736,398.143C89.658,398.14 89.812,399.161 90.736,399.143C91.66,399.125 91.715,398.131 92.736,398.143C93.658,398.14 93.812,399.161 94.736,399.143C95.66,399.125 95.715,398.131 96.736,398.143C97.658,398.14 97.812,399.161 98.736,399.143C99.66,399.125 99.715,398.131 100.736,398.143C101.658,398.14 101.812,399.161 102.736,399.143C103.66,399.125 103.715,398.131 104.736,398.143C105.658,398.14 105.812,399.161 106.736,399.143C107.66,399.125 107.715,398.131 108.736,398.143C109.658,398.14 109.812,399.161 110.736,399.143C111.66,399.125 111.715,398.131 112.736,398.143C113.658,398.14 113.812,399.161 114.736,399.143C115.66,399.125 115.715,398.131 116.736,398.143C117.658,398.14 117.812,399.161 118.736,399.143C119.66,399.125 119.715,398.131 120.736,398.143C121.658,398.14 121.812,399.161 122.736,399.143C123.66,399.125 123.715,398.131 124.736,398.143C125.403,398.151 124.736,398.034 124.736,398.034L124.736,380.64C124.736,380.64 125.403,380.632 124.736,380.64C123.715,380.652 123.66,379.658 122.736,379.64C121.812,379.622 121.658,380.644 120.736,380.64C119.715,380.652 119.66,379.658 118.736,379.64C117.812,379.622 117.658,380.644 116.736,380.64C115.715,380.652 115.66,379.658 114.736,379.64C113.812,379.622 113.658,380.644 112.736,380.64C111.715,380.652 111.66,379.658 110.736,379.64C109.812,379.622 109.658,380.644 108.736,380.64C107.715,380.652 107.66,379.658 106.736,379.64C105.812,379.622 105.658,380.644 104.736,380.64C103.715,380.652 103.66,379.658 102.736,379.64C101.812,379.622 101.658,380.644 100.736,380.64C99.715,380.652 99.66,379.658 98.736,379.64C97.812,379.622 97.658,380.644 96.736,380.64C95.715,380.652 95.66,379.658 94.736,379.64C93.812,379.622 93.658,380.644 92.736,380.64C91.715,380.652 91.66,379.658 90.736,379.64C89.812,379.622 89.658,380.644 88.736,380.64C87.715,380.652 87.66,379.658 86.736,379.64C85.812,379.622 85.658,380.644 84.736,380.64C83.715,380.652 83.66,379.658 82.736,379.64C81.812,379.622 81.658,380.644 80.736,380.64C79.715,380.652 79.66,379.658 78.736,379.64C77.812,379.622 77.658,380.644 76.736,380.64C75.715,380.652 75.66,379.658 74.736,379.64C73.812,379.622 73.658,380.644 72.736,380.64C71.715,380.652 71.66,379.658 70.736,379.64C69.812,379.622 69.658,380.644 68.736,380.64C67.715,380.652 67.66,379.658 66.736,379.64C65.812,379.622 65.658,380.644 64.736,380.64C63.715,380.652 63.66,379.658 62.736,379.64C61.812,379.622 61.658,380.644 60.736,380.64C59.715,380.652 59.66,379.658 58.736,379.64C57.812,379.622 57.658,380.644 56.736,380.64C55.715,380.652 55.66,379.658 54.736,379.64C53.812,379.622 53.658,380.644 52.736,380.64C51.715,380.652 51.66,379.658 50.736,379.64C49.812,379.622 49.658,380.644 48.736,380.64C47.715,380.652 47.66,379.658 46.736,379.64C45.812,379.622 45.658,380.644 44.736,380.64C45.658,380.644 45.812,379.622 46.736,379.64C47.66,379.658 47.715,380.652 48.736,380.64" style="fill:rgb(204,204,204);"/>
                </g>
                <g transform="matrix(3.91355,0,0,3.51905,-0.0123313,249.635)">
                    <path d="M135.46,379.465L135.414,379.478C135.417,379.512 135.422,379.547 135.428,379.581C135.418,379.628 135.414,379.676 135.414,379.723L135.455,379.723C135.463,379.756 135.471,379.789 135.48,379.822C135.903,381.356 137.866,382.156 139.861,381.606C141.857,381.056 142.265,379.866 142.859,378.332C142.862,378.324 143.242,377.759 143.24,377.76C143.574,377.713 143.382,377.714 143.736,377.669C149.205,376.978 157.04,377.045 165.736,377.045C177.295,377.045 187.333,377.309 192.315,378.43C193.555,378.709 194.474,379.005 195.009,379.323C195.156,379.41 195.27,379.497 195.346,379.587C195.385,379.633 195.414,379.676 195.414,379.723C195.414,379.881 195.397,380.074 195.263,380.256C195.111,380.464 194.824,380.646 194.317,380.783C193.53,380.995 192.272,381.076 190.264,380.902L190.208,381.545C192.327,381.728 193.654,381.629 194.485,381.405C195.19,381.215 195.571,380.927 195.783,380.638C196.014,380.324 196.058,379.995 196.058,379.723C196.058,379.491 195.949,379.252 195.698,379.027C195.426,378.784 194.96,378.54 194.312,378.313C190.326,376.918 179.032,375.901 165.736,375.901C152.44,375.901 141.146,376.918 137.16,378.313C136.512,378.54 136.046,378.784 135.774,379.027C135.615,379.169 135.513,379.317 135.46,379.465Z" style="fill:rgb(204,204,204);"/>
                </g>
                <g transform="matrix(4.20023,0,0,4.91064,-69.8529,-289.01)">
                    <rect x="185.736" y="382.64" width="9" height="11.18" style="fill:rgb(204,204,204);"/>
                </g>
                <g transform="matrix(3.97917,0,0,4.025,-10.887,56.474)">
                    <rect x="207.736" y="383.32" width="16" height="9" style="fill:rgb(204,204,204);"/>
                </g>
                <g transform="matrix(3.97917,0,0,4.025,-10.887,57.1985)">
                    <rect x="190.736" y="381.64" width="17" height="12" style="fill:rgb(204,204,204);"/>
                </g>
            </g>
            <g transform="matrix(3.09623,0,0,10.2399,266.684,-2553.48)">
                <g transform="matrix(1.25687,0,0,1.25687,-82.9119,18.5702)">
                    <circle cx="58.204" cy="265.722" r="1.917" style="fill:white;stroke:black;stroke-width:0.51px;"/>
                </g>
                <g transform="matrix(1,0,0,1,-60,92.3133)">
                    <path d="M47.833,260.233C47.833,261.564 48.912,262.643 50.243,262.643L50.243,260.233L47.833,260.233Z" style="fill:rgb(20,20,20);"/>
                </g>
                <g transform="matrix(-1,-1.22465e-16,1.22465e-16,-1,40.4857,612.78)">
                    <path d="M47.833,260.233C47.833,261.564 48.912,262.643 50.243,262.643L50.243,260.233L47.833,260.233Z" style="fill:rgb(20,20,20);"/>
                </g>
            </g>
            <g transform="matrix(3.09623,0,0,10.2399,690.675,-2534.79)">
                <g transform="matrix(1.25687,0,0,1.25687,-82.9119,18.5702)">
                    <circle cx="58.204" cy="265.722" r="1.917" style="fill:white;stroke:black;stroke-width:0.51px;"/>
                </g>
                <g transform="matrix(1,0,0,1,-60,92.3133)">
                    <path d="M47.833,260.233C47.833,261.564 48.912,262.643 50.243,262.643L50.243,260.233L47.833,260.233Z" style="fill:rgb(20,20,20);"/>
                </g>
                <g transform="matrix(-1,-1.22465e-16,1.22465e-16,-1,40.4857,612.78)">
                    <path d="M47.833,260.233C47.833,261.564 48.912,262.643 50.243,262.643L50.243,260.233L47.833,260.233Z" style="fill:rgb(20,20,20);"/>
                </g>
            </g>
            <g transform="matrix(3.97917,0,0,13.16,-1083.48,-2598.64)">
                <g transform="matrix(9,0,0,9,335.736,282.994)">
                    <path d="M0.089,-0.571L0.089,-0.602C0.169,-0.602 0.23,-0.623 0.271,-0.666C0.282,-0.666 0.289,-0.665 0.291,-0.662C0.293,-0.66 0.294,-0.652 0.294,-0.64L0.294,-0.079C0.294,-0.059 0.299,-0.046 0.309,-0.04C0.318,-0.034 0.345,-0.031 0.387,-0.031L0.419,-0.031L0.419,-0C0.396,-0.002 0.341,-0.003 0.257,-0.003C0.172,-0.003 0.118,-0.002 0.095,-0L0.095,-0.031L0.127,-0.031C0.169,-0.031 0.195,-0.034 0.205,-0.04C0.215,-0.046 0.22,-0.059 0.22,-0.079L0.22,-0.597C0.185,-0.58 0.142,-0.571 0.089,-0.571Z" style="fill-rule:nonzero;"/>
                </g>
            </g>
            <g transform="matrix(3.97917,0,0,13.16,-659.491,-2598.64)">
                <g transform="matrix(9,0,0,9,335.736,282.994)">
                    <path d="M0.05,-0C0.05,-0.012 0.05,-0.02 0.052,-0.023C0.053,-0.027 0.056,-0.032 0.061,-0.037L0.253,-0.251C0.323,-0.33 0.358,-0.403 0.358,-0.472C0.358,-0.517 0.346,-0.555 0.323,-0.587C0.3,-0.619 0.267,-0.635 0.224,-0.635C0.195,-0.635 0.168,-0.626 0.143,-0.608C0.118,-0.59 0.1,-0.565 0.089,-0.533C0.091,-0.534 0.095,-0.534 0.102,-0.534C0.119,-0.534 0.132,-0.529 0.141,-0.519C0.15,-0.508 0.155,-0.496 0.155,-0.482C0.155,-0.464 0.149,-0.451 0.137,-0.442C0.126,-0.434 0.114,-0.429 0.103,-0.429C0.098,-0.429 0.093,-0.43 0.087,-0.431C0.081,-0.432 0.073,-0.437 0.064,-0.446C0.055,-0.455 0.05,-0.468 0.05,-0.485C0.05,-0.531 0.067,-0.573 0.103,-0.61C0.138,-0.647 0.183,-0.666 0.237,-0.666C0.298,-0.666 0.349,-0.648 0.389,-0.612C0.429,-0.575 0.449,-0.529 0.449,-0.472C0.449,-0.452 0.446,-0.433 0.44,-0.415C0.434,-0.397 0.427,-0.381 0.419,-0.367C0.411,-0.353 0.396,-0.335 0.375,-0.313C0.354,-0.29 0.334,-0.271 0.317,-0.255C0.3,-0.239 0.272,-0.214 0.233,-0.18L0.127,-0.077L0.307,-0.077C0.366,-0.077 0.397,-0.08 0.402,-0.085C0.408,-0.094 0.416,-0.124 0.424,-0.174L0.449,-0.174L0.421,-0L0.05,-0Z" style="fill-rule:nonzero;"/>
                </g>
            </g>
            <g transform="matrix(3.97917,0,0,13.16,-10.887,-1751.82)">
                <path d="M12.839,221.649L12.839,221.598" style="fill:none;stroke:rgb(204,204,204);stroke-width:0.1px;"/>
            </g>
            <g transform="matrix(3.97917,0,0,13.16,-10.887,-1751.82)">
                <path d="M102.736,206.506L102.736,221.506" style="fill:none;stroke:black;stroke-width:0.65px;"/>
            </g>
        </g>
    </g>
</svg>
