<?xml version="1.0" encoding="UTF-8" standalone="no"?>
<!-- Created with Inkscape (http://www.inkscape.org/) -->

<svg
   xmlns:dc="http://purl.org/dc/elements/1.1/"
   xmlns:cc="http://creativecommons.org/ns#"
   xmlns:rdf="http://www.w3.org/1999/02/22-rdf-syntax-ns#"
   xmlns:svg="http://www.w3.org/2000/svg"
   xmlns="http://www.w3.org/2000/svg"
   xmlns:sodipodi="http://sodipodi.sourceforge.net/DTD/sodipodi-0.dtd"
   xmlns:inkscape="http://www.inkscape.org/namespaces/inkscape"
   version="1.1"
   id="svg675"
   xml:space="preserve"
   width="297.86792"
   height="380.68716"
   viewBox="0 0 297.86792 380.68716"
   sodipodi:docname="S.svg"
   inkscape:version="0.92.2 5c3e80d, 2017-08-06"><metadata
     id="metadata681"><rdf:RDF><cc:Work
         rdf:about=""><dc:format>image/svg+xml</dc:format><dc:type
           rdf:resource="http://purl.org/dc/dcmitype/StillImage" /><dc:title></dc:title></cc:Work></rdf:RDF></metadata><defs
     id="defs679"><clipPath
       clipPathUnits="userSpaceOnUse"
       id="clipPath693"><path
         d="M 18,40.08 H 594 V 774 H 18 Z"
         id="path691"
         inkscape:connector-curvature="0" /></clipPath><clipPath
       clipPathUnits="userSpaceOnUse"
       id="clipPath709"><path
         d="M 187.224,695.2252 H 204 v 14.77478 h -16.776 z"
         id="path707"
         inkscape:connector-curvature="0" /></clipPath><clipPath
       clipPathUnits="userSpaceOnUse"
       id="clipPath723"><path
         d="m 185,693 h 19 v 17 h -19 z"
         id="path721"
         inkscape:connector-curvature="0" /></clipPath><clipPath
       clipPathUnits="userSpaceOnUse"
       id="clipPath733"><path
         d="M 18,40.08 H 594 V 774 H 18 Z"
         id="path731"
         inkscape:connector-curvature="0" /></clipPath><clipPath
       clipPathUnits="userSpaceOnUse"
       id="clipPath743"><path
         d="m 256.5682,729.648 h 14.85 v 18 h -14.85 z"
         id="path741"
         inkscape:connector-curvature="0" /></clipPath><clipPath
       clipPathUnits="userSpaceOnUse"
       id="clipPath757"><path
         d="m 254,728 h 18 v 20 h -18 z"
         id="path755"
         inkscape:connector-curvature="0" /></clipPath><clipPath
       clipPathUnits="userSpaceOnUse"
       id="clipPath767"><path
         d="M 18,40.08 H 594 V 774 H 18 Z"
         id="path765"
         inkscape:connector-curvature="0" /></clipPath><clipPath
       clipPathUnits="userSpaceOnUse"
       id="clipPath897"><path
         d="m 71.808,623.2243 h 9 v 12.92571 h -9 z"
         id="path895"
         inkscape:connector-curvature="0" /></clipPath><clipPath
       clipPathUnits="userSpaceOnUse"
       id="clipPath909"><path
         d="m 69,622 h 13 v 15 H 69 Z"
         id="path907"
         inkscape:connector-curvature="0" /></clipPath><clipPath
       clipPathUnits="userSpaceOnUse"
       id="clipPath919"><path
         d="M 18,40.08 H 594 V 774 H 18 Z"
         id="path917"
         inkscape:connector-curvature="0" /></clipPath><clipPath
       clipPathUnits="userSpaceOnUse"
       id="clipPath929"><path
         d="m 154.4138,490.8532 h 14.85 v 19.152 h -14.85 z"
         id="path927"
         inkscape:connector-curvature="0" /></clipPath><clipPath
       clipPathUnits="userSpaceOnUse"
       id="clipPath943"><path
         d="m 154,490 h 17 v 21 h -17 z"
         id="path941"
         inkscape:connector-curvature="0" /></clipPath><clipPath
       clipPathUnits="userSpaceOnUse"
       id="clipPath953"><path
         d="M 18,40.08 H 594 V 774 H 18 Z"
         id="path951"
         inkscape:connector-curvature="0" /></clipPath><clipPath
       clipPathUnits="userSpaceOnUse"
       id="clipPath212"><path
         d="M 18,40.08 H 594 V 774 H 18 Z"
         id="path210"
         inkscape:connector-curvature="0" /></clipPath></defs><sodipodi:namedview
     pagecolor="#ffffff"
     bordercolor="#666666"
     borderopacity="1"
     objecttolerance="10"
     gridtolerance="10"
     guidetolerance="10"
     inkscape:pageopacity="0"
     inkscape:pageshadow="2"
     inkscape:window-width="1385"
     inkscape:window-height="880"
     id="namedview677"
     showgrid="false"
     inkscape:zoom="1.0071144"
     inkscape:cx="90.57763"
     inkscape:cy="169.6421"
     inkscape:window-x="0"
     inkscape:window-y="0"
     inkscape:window-maximized="0"
     inkscape:current-layer="g683" /><g
     id="g683"
     inkscape:groupmode="layer"
     inkscape:label="S"
     transform="matrix(1.3333333,0,0,-1.3333333,-92.879998,1034.3672)"><g
       id="g685" /><g
       id="g687"><g
         id="g689"
         clip-path="url(#clipPath693)"><path
           d="m 102.0576,514.6849 v 0.5592 c 0,4.1502 3.0375,7.6754 7.142,8.2888 l 19.714,2.9463 v 0 l 16.5234,2.4694 c 5.9382,0.8875 10.3326,5.9874 10.3326,11.9916 v 88.9447 0 88.9447 c 0,6.0042 -4.3944,11.1041 -10.3326,11.9916 l -16.5234,2.4694 v 0 l -19.714,2.9463 c -4.1045,0.6134 -7.142,4.1386 -7.142,8.2887 v 0.5593 0 h 120.1248 v -0.5593 c 0,-4.1501 -3.0375,-7.6753 -7.142,-8.2887 l -19.714,-2.9463 v 0 l -16.5234,-2.4694 c -5.9382,-0.8875 -10.3326,-5.9874 -10.3326,-11.9916 v -88.9447 0 -88.9447 c 0,-6.0042 4.3944,-11.1041 10.3326,-11.9916 l 16.5234,-2.4694 v 0 l 19.714,-2.9463 c 4.1045,-0.6134 7.142,-4.1386 7.142,-8.2888 v -0.5592 0 z"
           style="fill:#e4e4e4;fill-opacity:1;fill-rule:nonzero;stroke:none"
           id="path695"
           inkscape:connector-curvature="0" /><g
           id="g697"
           transform="matrix(0.24,0,0,-0.24,18.12,773.88)"><path
             d="m 349.74,1079.98 v -2.331 c 0,-17.292 12.6561,-31.98 29.7585,-34.536 l 82.1415,-12.276 v 0 l 68.8473,-10.289 C 555.23,1016.85 573.54,995.6 573.54,970.5825 v -370.6029 0 -370.6029 c 0,-25.0175 -18.31,-46.2672 -43.0527,-49.965 L 461.64,169.1224 v 0 L 379.4985,156.8462 C 362.3961,154.2903 349.74,139.6022 349.74,122.3098 v -2.3302 0 h 500.52 v 2.3302 c 0,17.2924 -12.6561,31.9805 -29.7585,34.5364 L 738.36,169.1224 v 0 l -68.8473,10.2893 C 644.77,183.1095 626.46,204.3592 626.46,229.3767 v 370.6029 0 370.6029 c 0,25.0175 18.31,46.2675 43.0527,49.9655 l 68.8473,10.289 v 0 l 82.1415,12.276 c 17.1024,2.556 29.7585,17.244 29.7585,34.536 v 2.331 0 H 349.74"
             style="fill:none;stroke:#000000;stroke-width:4.19999981;stroke-linecap:round;stroke-linejoin:round;stroke-miterlimit:10;stroke-dasharray:none;stroke-opacity:1"
             id="path699"
             inkscape:connector-curvature="0" /></g><path
           d="m 185.58,709.86 h 18 v -15.84 h -18 z"
           style="fill:#ffffff;fill-opacity:1;fill-rule:nonzero;stroke:none"
           id="path701"
           inkscape:connector-curvature="0" /></g></g><g
       id="g717"><g
         id="g719"
         clip-path="url(#clipPath723)"><g
           id="g725"
           transform="matrix(1,0,0,0.99,185.64,693.96)" /></g></g><g
       id="g727"><g
         id="g729"
         clip-path="url(#clipPath733)"><path
           d="m 254.94,747.06 h 15.84 v -18 h -15.84 z"
           style="fill:#ffffff;fill-opacity:1;fill-rule:nonzero;stroke:none"
           id="path735"
           inkscape:connector-curvature="0" /></g></g><g
       id="g751"><g
         id="g753"
         clip-path="url(#clipPath757)"><g
           id="g759"
           transform="matrix(0.99,0,0,1,255,729)" /></g></g><g
       clip-path="url(#clipPath767)"
       id="g763"><g
         transform="matrix(0.24,0,0,-0.24,18.12,773.88)"
         id="g769"><path
           inkscape:connector-curvature="0"
           id="path771"
           style="fill:none;stroke:#000000;stroke-width:2.0999999;stroke-linecap:round;stroke-linejoin:round;stroke-miterlimit:10;stroke-dasharray:none;stroke-opacity:1"
           d="M 338,1080 H 216" /></g><g
         transform="matrix(0.24,0,0,-0.24,18.12,773.88)"
         id="g773"><path
           inkscape:connector-curvature="0"
           id="path775"
           style="fill:none;stroke:#000000;stroke-width:2.0999999;stroke-linecap:round;stroke-linejoin:round;stroke-miterlimit:10;stroke-dasharray:none;stroke-opacity:1"
           d="M 338,120 H 216" /></g><g
         transform="matrix(0.24,0,0,-0.24,18.12,773.88)"
         id="g777"><path
           inkscape:connector-curvature="0"
           id="path779"
           style="fill:none;stroke:#000000;stroke-width:2.0999999;stroke-linecap:round;stroke-linejoin:round;stroke-miterlimit:10;stroke-dasharray:none;stroke-opacity:1"
           d="M 240,1080 V 120" /></g><g
         transform="matrix(0.24,0,0,-0.24,18.12,773.88)"
         id="g781"><path
           inkscape:connector-curvature="0"
           id="path783"
           style="fill:none;stroke:#000000;stroke-width:2.0999999;stroke-linecap:round;stroke-linejoin:round;stroke-miterlimit:10;stroke-dasharray:none;stroke-opacity:1"
           d="m 246,1056 v 1 1 h -1 v 1 1 l -1,1 v 0 1 l -1,1 v 0 1 1 l -1,1 v 0 1 1 1 h -1 v 1 1 1 0 1 1 l -1,1 v 0 1 1 1 0 1 1 -1 -1 0 -1 -1 -1 0 l -1,-1 v -1 -1 0 -1 -1 -1 h -1 v -1 -1 -1 0 l -1,-1 v -1 -1 0 l -1,-1 v -1 0 l -1,-1 v -1 -1 h -1 v -1 -1 0" /></g><g
         transform="matrix(0.24,0,0,-0.24,18.12,773.88)"
         id="g785"><path
           inkscape:connector-curvature="0"
           id="path787"
           style="fill:none;stroke:#000000;stroke-width:1;stroke-linecap:round;stroke-linejoin:round;stroke-miterlimit:10;stroke-dasharray:none;stroke-opacity:1"
           d="m 246,1056 v 1 1 h -1 v 1 1 l -1,1 v 0 1 l -1,1 v 0 1 1 l -1,1 v 0 1 1 1 h -1 v 1 1 1 0 1 1 l -1,1 v 0 1 1 1 0 1 1 -1 -1 0 -1 -1 -1 0 l -1,-1 v -1 -1 0 -1 -1 -1 h -1 v -1 -1 -1 0 l -1,-1 v -1 -1 0 l -1,-1 v -1 0 l -1,-1 v -1 -1 h -1 v -1 -1 0" /></g><g
         transform="matrix(0.24,0,0,-0.24,18.12,773.88)"
         id="g789"><path
           inkscape:connector-curvature="0"
           id="path791"
           style="fill:none;stroke:#000000;stroke-width:2.0999999;stroke-linecap:round;stroke-linejoin:round;stroke-miterlimit:10;stroke-dasharray:none;stroke-opacity:1"
           d="m 234,144 v -1 -1 h 1 v -1 -1 l 1,-1 v 0 -1 l 1,-1 v 0 -1 -1 l 1,-1 v 0 -1 -1 -1 h 1 v -1 -1 -1 0 -1 -1 l 1,-1 v 0 -1 -1 -1 0 -1 -1 1 1 0 1 1 1 0 l 1,1 v 1 1 0 1 1 1 h 1 v 1 1 1 0 l 1,1 v 1 1 0 l 1,1 v 1 0 l 1,1 v 1 1 h 1 v 1 1 0" /></g><g
         transform="matrix(0.24,0,0,-0.24,18.12,773.88)"
         id="g793"><path
           inkscape:connector-curvature="0"
           id="path795"
           style="fill:none;stroke:#000000;stroke-width:1;stroke-linecap:round;stroke-linejoin:round;stroke-miterlimit:10;stroke-dasharray:none;stroke-opacity:1"
           d="m 234,144 v -1 -1 h 1 v -1 -1 l 1,-1 v 0 -1 l 1,-1 v 0 -1 -1 l 1,-1 v 0 -1 -1 -1 h 1 v -1 -1 -1 0 -1 -1 l 1,-1 v 0 -1 -1 -1 0 -1 -1 1 1 0 1 1 1 0 l 1,1 v 1 1 0 1 1 1 h 1 v 1 1 1 0 l 1,1 v 1 1 0 l 1,1 v 1 0 l 1,1 v 1 1 h 1 v 1 1 0" /></g><g
         transform="matrix(0.24,0,0,-0.24,18.12,773.88)"
         id="g797"><path
           inkscape:connector-curvature="0"
           id="path799"
           style="fill:none;stroke:#000000;stroke-width:2.0999999;stroke-linecap:round;stroke-linejoin:round;stroke-miterlimit:10;stroke-dasharray:none;stroke-opacity:1"
           d="m 350,1092 v 72" /></g><g
         transform="matrix(0.24,0,0,-0.24,18.12,773.88)"
         id="g801"><path
           inkscape:connector-curvature="0"
           id="path803"
           style="fill:none;stroke:#000000;stroke-width:2.0999999;stroke-linecap:round;stroke-linejoin:round;stroke-miterlimit:10;stroke-dasharray:none;stroke-opacity:1"
           d="m 850,1092 v 72" /></g><g
         transform="matrix(0.24,0,0,-0.24,18.12,773.88)"
         id="g805"><path
           inkscape:connector-curvature="0"
           id="path807"
           style="fill:none;stroke:#000000;stroke-width:2.0999999;stroke-linecap:round;stroke-linejoin:round;stroke-miterlimit:10;stroke-dasharray:none;stroke-opacity:1"
           d="M 350,1140 H 850" /></g><g
         transform="matrix(0.24,0,0,-0.24,18.12,773.88)"
         id="g809"><path
           inkscape:connector-curvature="0"
           id="path811"
           style="fill:none;stroke:#000000;stroke-width:2.0999999;stroke-linecap:round;stroke-linejoin:round;stroke-miterlimit:10;stroke-dasharray:none;stroke-opacity:1"
           d="m 373,1146 v 0 h -1 l -1,-1 v 0 h -1 l -1,-1 h -1 v 0 l -1,-1 h -1 v 0 h -1 l -1,-1 h -1 v 0 h -1 -1 l -1,-1 v 0 h -1 -1 -1 v 0 l -1,-1 h -1 -1 v 0 h -1 -1 -1 v 0 h -1 1 v 0 h 1 1 1 v 0 h 1 l 1,-1 h 1 v 0 h 1 1 1 v 0 l 1,-1 h 1 1 v 0 h 1 l 1,-1 h 1 v 0 h 1 l 1,-1 v 0 h 1 l 1,-1 h 1 v 0 l 1,-1 h 1 v 0 0" /></g><g
         transform="matrix(0.24,0,0,-0.24,18.12,773.88)"
         id="g813"><path
           inkscape:connector-curvature="0"
           id="path815"
           style="fill:none;stroke:#000000;stroke-width:1;stroke-linecap:round;stroke-linejoin:round;stroke-miterlimit:10;stroke-dasharray:none;stroke-opacity:1"
           d="m 373,1146 v 0 h -1 l -1,-1 v 0 h -1 l -1,-1 h -1 v 0 l -1,-1 h -1 v 0 h -1 l -1,-1 h -1 v 0 h -1 -1 l -1,-1 v 0 h -1 -1 -1 v 0 l -1,-1 h -1 -1 v 0 h -1 -1 -1 v 0 h -1 1 v 0 h 1 1 1 v 0 h 1 l 1,-1 h 1 v 0 h 1 1 1 v 0 l 1,-1 h 1 1 v 0 h 1 l 1,-1 h 1 v 0 h 1 l 1,-1 v 0 h 1 l 1,-1 h 1 v 0 l 1,-1 h 1 v 0 0" /></g><g
         transform="matrix(0.24,0,0,-0.24,18.12,773.88)"
         id="g817"><path
           inkscape:connector-curvature="0"
           id="path819"
           style="fill:none;stroke:#000000;stroke-width:2.0999999;stroke-linecap:round;stroke-linejoin:round;stroke-miterlimit:10;stroke-dasharray:none;stroke-opacity:1"
           d="m 827,1134 v 0 h 1 l 1,1 v 0 h 1 l 1,1 h 1 v 0 l 1,1 h 1 v 0 h 1 l 1,1 h 1 v 0 h 1 1 l 1,1 v 0 h 1 1 1 v 0 h 1 l 1,1 h 1 v 0 h 1 1 1 v 0 h 1 -1 v 0 h -1 -1 -1 v 0 h -1 -1 l -1,1 v 0 h -1 -1 -1 v 0 l -1,1 h -1 -1 v 0 h -1 l -1,1 h -1 v 0 h -1 l -1,1 v 0 h -1 l -1,1 h -1 v 0 l -1,1 h -1 v 0 0" /></g><g
         transform="matrix(0.24,0,0,-0.24,18.12,773.88)"
         id="g821"><path
           inkscape:connector-curvature="0"
           id="path823"
           style="fill:none;stroke:#000000;stroke-width:1;stroke-linecap:round;stroke-linejoin:round;stroke-miterlimit:10;stroke-dasharray:none;stroke-opacity:1"
           d="m 827,1134 v 0 h 1 l 1,1 v 0 h 1 l 1,1 h 1 v 0 l 1,1 h 1 v 0 h 1 l 1,1 h 1 v 0 h 1 1 l 1,1 v 0 h 1 1 1 v 0 h 1 l 1,1 h 1 v 0 h 1 1 1 v 0 h 1 -1 v 0 h -1 -1 -1 v 0 h -1 -1 l -1,1 v 0 h -1 -1 -1 v 0 l -1,1 h -1 -1 v 0 h -1 l -1,1 h -1 v 0 h -1 l -1,1 v 0 h -1 l -1,1 h -1 v 0 l -1,1 h -1 v 0 0" /></g><g
         transform="matrix(0.24,0,0,-0.24,18.12,773.88)"
         id="g825"><path
           inkscape:connector-curvature="0"
           id="path827"
           style="fill:none;stroke:#000000;stroke-width:2.0999999;stroke-linecap:round;stroke-linejoin:round;stroke-miterlimit:10;stroke-dasharray:none;stroke-opacity:1"
           d="M 574,288 V 276" /></g><g
         transform="matrix(0.24,0,0,-0.24,18.12,773.88)"
         id="g829"><path
           inkscape:connector-curvature="0"
           id="path831"
           style="fill:none;stroke:#000000;stroke-width:2.0999999;stroke-linecap:round;stroke-linejoin:round;stroke-miterlimit:10;stroke-dasharray:none;stroke-opacity:1"
           d="M 626,288 V 276" /></g><g
         transform="matrix(0.24,0,0,-0.24,18.12,773.88)"
         id="g833"><path
           inkscape:connector-curvature="0"
           id="path835"
           style="fill:none;stroke:#000000;stroke-width:2.0999999;stroke-linecap:round;stroke-linejoin:round;stroke-miterlimit:10;stroke-dasharray:none;stroke-opacity:1"
           d="M 574,300 H 538" /></g><g
         transform="matrix(0.24,0,0,-0.24,18.12,773.88)"
         id="g837"><path
           inkscape:connector-curvature="0"
           id="path839"
           style="fill:none;stroke:#000000;stroke-width:2.0999999;stroke-linecap:round;stroke-linejoin:round;stroke-miterlimit:10;stroke-dasharray:none;stroke-opacity:1"
           d="m 550,294 h 1 v 0 l 1,1 h 1 v 0 l 1,1 h 1 1 v 1 h 1 1 v 0 l 1,1 h 1 1 v 0 h 1 l 1,1 h 1 v 0 h 1 1 1 v 0 l 1,1 h 1 1 v 0 h 1 1 1 1 -1 -1 -1 -1 v 0 h -1 -1 -1 v 1 h -1 -1 -1 v 0 h -1 l -1,1 h -1 v 0 h -1 -1 l -1,1 v 0 h -1 -1 v 1 h -1 -1 l -1,1 v 0 h -1 l -1,1 v 0 h -1 v 0" /></g><g
         transform="matrix(0.24,0,0,-0.24,18.12,773.88)"
         id="g841"><path
           inkscape:connector-curvature="0"
           id="path843"
           style="fill:none;stroke:#000000;stroke-width:1;stroke-linecap:round;stroke-linejoin:round;stroke-miterlimit:10;stroke-dasharray:none;stroke-opacity:1"
           d="m 550,294 h 1 v 0 l 1,1 h 1 v 0 l 1,1 h 1 1 v 1 h 1 1 v 0 l 1,1 h 1 1 v 0 h 1 l 1,1 h 1 v 0 h 1 1 1 v 0 l 1,1 h 1 1 v 0 h 1 1 1 1 -1 -1 -1 -1 v 0 h -1 -1 -1 v 1 h -1 -1 -1 v 0 h -1 l -1,1 h -1 v 0 h -1 -1 l -1,1 v 0 h -1 -1 v 1 h -1 -1 l -1,1 v 0 h -1 l -1,1 v 0 h -1 v 0" /></g><g
         transform="matrix(0.24,0,0,-0.24,18.12,773.88)"
         id="g845"><path
           inkscape:connector-curvature="0"
           id="path847"
           style="fill:none;stroke:#000000;stroke-width:2.0999999;stroke-linecap:round;stroke-linejoin:round;stroke-miterlimit:10;stroke-dasharray:none;stroke-opacity:1"
           d="m 626,300 h 36" /></g><g
         transform="matrix(0.24,0,0,-0.24,18.12,773.88)"
         id="g849"><path
           inkscape:connector-curvature="0"
           id="path851"
           style="fill:none;stroke:#000000;stroke-width:2.0999999;stroke-linecap:round;stroke-linejoin:round;stroke-miterlimit:10;stroke-dasharray:none;stroke-opacity:1"
           d="m 650,306 h -1 v 0 l -1,-1 h -1 v 0 l -1,-1 h -1 -1 v -1 h -1 -1 v 0 l -1,-1 h -1 -1 v 0 h -1 l -1,-1 h -1 v 0 h -1 -1 -1 v -1 h -1 -1 -1 v 0 h -1 -1 -1 -1 1 1 1 1 v 0 h 1 1 l 1,-1 v 0 h 1 1 1 v 0 h 1 l 1,-1 h 1 v 0 h 1 1 l 1,-1 v 0 h 1 1 v -1 h 1 1 l 1,-1 v 0 h 1 l 1,-1 v 0 h 1 v 0" /></g><g
         transform="matrix(0.24,0,0,-0.24,18.12,773.88)"
         id="g853"><path
           inkscape:connector-curvature="0"
           id="path855"
           style="fill:none;stroke:#000000;stroke-width:1;stroke-linecap:round;stroke-linejoin:round;stroke-miterlimit:10;stroke-dasharray:none;stroke-opacity:1"
           d="m 650,306 h -1 v 0 l -1,-1 h -1 v 0 l -1,-1 h -1 -1 v -1 h -1 -1 v 0 l -1,-1 h -1 -1 v 0 h -1 l -1,-1 h -1 v 0 h -1 -1 -1 v -1 h -1 -1 -1 v 0 h -1 -1 -1 -1 1 1 1 1 v 0 h 1 1 l 1,-1 v 0 h 1 1 1 v 0 h 1 l 1,-1 h 1 v 0 h 1 1 l 1,-1 v 0 h 1 1 v -1 h 1 1 l 1,-1 v 0 h 1 l 1,-1 v 0 h 1 v 0" /></g><g
         transform="matrix(0.24,0,0,-0.24,18.12,773.88)"
         id="g857"><path
           inkscape:connector-curvature="0"
           id="path859"
           style="fill:none;stroke:#000000;stroke-width:2.0999999;stroke-linecap:round;stroke-linejoin:round;stroke-miterlimit:10;stroke-dasharray:none;stroke-opacity:1"
           d="M 862,120 H 984" /></g><g
         transform="matrix(0.24,0,0,-0.24,18.12,773.88)"
         id="g861"><path
           inkscape:connector-curvature="0"
           id="path863"
           style="fill:none;stroke:#000000;stroke-width:2.0999999;stroke-linecap:round;stroke-linejoin:round;stroke-miterlimit:10;stroke-dasharray:none;stroke-opacity:1"
           d="M 681,179 H 984" /></g><g
         transform="matrix(0.24,0,0,-0.24,18.12,773.88)"
         id="g865"><path
           inkscape:connector-curvature="0"
           id="path867"
           style="fill:none;stroke:#000000;stroke-width:2.0999999;stroke-linecap:round;stroke-linejoin:round;stroke-miterlimit:10;stroke-dasharray:none;stroke-opacity:1"
           d="M 960,120 V 85" /></g><g
         transform="matrix(0.24,0,0,-0.24,18.12,773.88)"
         id="g869"><path
           inkscape:connector-curvature="0"
           id="path871"
           style="fill:none;stroke:#000000;stroke-width:2.0999999;stroke-linecap:round;stroke-linejoin:round;stroke-miterlimit:10;stroke-dasharray:none;stroke-opacity:1"
           d="m 966,96 v 1 1 h -1 v 1 1 l -1,1 v 0 1 l -1,1 v 0 1 1 l -1,1 v 0 1 1 1 h -1 v 1 1 1 0 1 1 l -1,1 v 0 1 1 1 0 1 1 -1 -1 0 -1 -1 -1 0 l -1,-1 v -1 -1 0 -1 -1 -1 h -1 v -1 -1 -1 0 l -1,-1 v -1 -1 0 l -1,-1 v -1 0 l -1,-1 v -1 -1 h -1 v -1 -1 0" /></g><g
         transform="matrix(0.24,0,0,-0.24,18.12,773.88)"
         id="g873"><path
           inkscape:connector-curvature="0"
           id="path875"
           style="fill:none;stroke:#000000;stroke-width:1;stroke-linecap:round;stroke-linejoin:round;stroke-miterlimit:10;stroke-dasharray:none;stroke-opacity:1"
           d="m 966,96 v 1 1 h -1 v 1 1 l -1,1 v 0 1 l -1,1 v 0 1 1 l -1,1 v 0 1 1 1 h -1 v 1 1 1 0 1 1 l -1,1 v 0 1 1 1 0 1 1 -1 -1 0 -1 -1 -1 0 l -1,-1 v -1 -1 0 -1 -1 -1 h -1 v -1 -1 -1 0 l -1,-1 v -1 -1 0 l -1,-1 v -1 0 l -1,-1 v -1 -1 h -1 v -1 -1 0" /></g><g
         transform="matrix(0.24,0,0,-0.24,18.12,773.88)"
         id="g877"><path
           inkscape:connector-curvature="0"
           id="path879"
           style="fill:none;stroke:#000000;stroke-width:2.0999999;stroke-linecap:round;stroke-linejoin:round;stroke-miterlimit:10;stroke-dasharray:none;stroke-opacity:1"
           d="m 960,179 v 36" /></g><g
         transform="matrix(0.24,0,0,-0.24,18.12,773.88)"
         id="g881"><path
           inkscape:connector-curvature="0"
           id="path883"
           style="fill:none;stroke:#000000;stroke-width:2.0999999;stroke-linecap:round;stroke-linejoin:round;stroke-miterlimit:10;stroke-dasharray:none;stroke-opacity:1"
           d="m 954,203 v -1 0 l 1,-1 v -1 0 l 1,-1 v -1 -1 h 1 v -1 -1 0 l 1,-1 v -1 -1 0 -1 l 1,-1 v -1 0 -1 -1 -1 0 l 1,-1 v -1 -1 0 -1 -1 -1 -1 1 1 1 1 0 1 1 l 1,1 v 0 1 1 1 0 1 l 1,1 v 1 0 1 1 l 1,1 v 0 1 1 h 1 v 1 1 l 1,1 v 0 1 l 1,1 v 0 1 0" /></g><g
         transform="matrix(0.24,0,0,-0.24,18.12,773.88)"
         id="g885"><path
           inkscape:connector-curvature="0"
           id="path887"
           style="fill:none;stroke:#000000;stroke-width:1;stroke-linecap:round;stroke-linejoin:round;stroke-miterlimit:10;stroke-dasharray:none;stroke-opacity:1"
           d="m 954,203 v -1 0 l 1,-1 v -1 0 l 1,-1 v -1 -1 h 1 v -1 -1 0 l 1,-1 v -1 -1 0 -1 l 1,-1 v -1 0 -1 -1 -1 0 l 1,-1 v -1 -1 0 -1 -1 -1 -1 1 1 1 1 0 1 1 l 1,1 v 0 1 1 1 0 1 l 1,1 v 1 0 1 1 l 1,1 v 0 1 1 h 1 v 1 1 l 1,1 v 0 1 l 1,1 v 0 1 0" /></g><path
         inkscape:connector-curvature="0"
         id="path889"
         style="fill:#ffffff;fill-opacity:1;fill-rule:nonzero;stroke:none"
         d="m 69.66,636.9 h 12 v -13.92 h -12 z" /></g><g
       id="g903"><g
         id="g905"
         clip-path="url(#clipPath909)"><g
           id="g911"
           transform="matrix(1,0,0,0.9942857,69.72,622.92)" /></g></g><g
       id="g913"><g
         id="g915"
         clip-path="url(#clipPath919)"><path
           d="m 154.14,510.42 h 15.84 v -20.16 h -15.84 z"
           style="fill:#ffffff;fill-opacity:1;fill-rule:nonzero;stroke:none"
           id="path921"
           inkscape:connector-curvature="0" /></g></g><g
       id="g937"><g
         id="g939"
         clip-path="url(#clipPath943)"><g
           id="g945"
           transform="matrix(0.99,0,0,1.008,154.2,490.2)" /></g></g><g
       id="g955"
       transform="matrix(0.24,0,0,-0.24,18.12,773.88)"><path
         d="M 300,600 H 900"
         style="fill:none;stroke:#000000;stroke-width:3;stroke-linecap:round;stroke-linejoin:round;stroke-miterlimit:10;stroke-dasharray:72, 9, 18, 9;stroke-dashoffset:0;stroke-opacity:1"
         id="path957"
         inkscape:connector-curvature="0" /></g><g
       id="g959"
       transform="matrix(0.24,0,0,-0.24,18.12,773.88)"><path
         d="m 600,60 v 960"
         style="fill:none;stroke:#000000;stroke-width:3;stroke-linecap:round;stroke-linejoin:round;stroke-miterlimit:10;stroke-dasharray:72, 9, 18, 9;stroke-dashoffset:0;stroke-opacity:1"
         id="path961"
         inkscape:connector-curvature="0" /></g><path
       d="m 163.56,629.88 v 0 c 0,0.7953 -0.6447,1.44 -1.44,1.44 -0.7953,0 -1.44,-0.6447 -1.44,-1.44 0,-0.7953 0.6447,-1.44 1.44,-1.44 0.7953,0 1.44,0.6447 1.44,1.44"
       style="fill:#000000;fill-opacity:1;fill-rule:nonzero;stroke:none"
       id="path975"
       inkscape:connector-curvature="0" /><text
       xml:space="preserve"
       style="font-style:normal;font-weight:normal;font-size:14px;line-height:1.25;font-family:sans-serif;letter-spacing:0px;word-spacing:0px;fill:#000000;fill-opacity:1;stroke:none;stroke-width:0.75"
       x="258.9838"
       y="-734.97968"
       id="text306"
       transform="scale(1,-1)"><tspan
         sodipodi:role="line"
         id="tspan304"
         x="258.9838"
         y="-734.97968"
         style="stroke-width:0.75">$t_f$</tspan></text>
<text
       xml:space="preserve"
       style="font-style:normal;font-weight:normal;font-size:14px;line-height:1.25;font-family:sans-serif;letter-spacing:0px;word-spacing:0px;fill:#000000;fill-opacity:1;stroke:none;stroke-width:0.75"
       x="180.17792"
       y="-697.81018"
       id="text310"
       transform="scale(1,-1)"><tspan
         sodipodi:role="line"
         id="tspan308"
         x="180.17792"
         y="-697.81018"
         style="stroke-width:0.75">$t_w$</tspan></text>
<text
       xml:space="preserve"
       style="font-style:normal;font-weight:normal;font-size:14px;line-height:1.25;font-family:sans-serif;letter-spacing:0px;word-spacing:0px;fill:#000000;fill-opacity:1;stroke:none;stroke-width:0.75"
       x="72.170265"
       y="-625.96509"
       id="text337"
       transform="scale(1,-1)"><tspan
         sodipodi:role="line"
         id="tspan335"
         x="72.170265"
         y="-625.96509"
         style="stroke-width:0.75">$d$</tspan></text>
<text
       xml:space="preserve"
       style="font-style:normal;font-weight:normal;font-size:14px;line-height:1.25;font-family:sans-serif;letter-spacing:0px;word-spacing:0px;fill:#000000;fill-opacity:1;stroke:none;stroke-width:0.75"
       x="157.20934"
       y="-499.47717"
       id="text341"
       transform="scale(1,-1)"><tspan
         sodipodi:role="line"
         id="tspan339"
         x="157.20934"
         y="-499.47717"
         style="stroke-width:0.75">$b_f$</tspan></text>
<text
       xml:space="preserve"
       style="font-style:normal;font-weight:normal;font-size:14px;line-height:1.25;font-family:sans-serif;letter-spacing:0px;word-spacing:0px;fill:#000000;fill-opacity:1;stroke:none;stroke-width:0.75"
       x="235.6573"
       y="-626.70984"
       id="text345"
       transform="scale(1,-1)"
       inkscape:transform-center-x="-2.9788075"
       inkscape:transform-center-y="-3.9717434"><tspan
         sodipodi:role="line"
         id="tspan343"
         x="235.6573"
         y="-626.70984"
         style="stroke-width:0.75">$X$</tspan></text>
<text
       xml:space="preserve"
       style="font-style:normal;font-weight:normal;font-size:14px;line-height:1.25;font-family:sans-serif;letter-spacing:0px;word-spacing:0px;fill:#000000;fill-opacity:1;stroke:none;stroke-width:0.75"
       x="158.05502"
       y="-765.13867"
       id="text349"
       transform="scale(1,-1)"><tspan
         sodipodi:role="line"
         id="tspan347"
         x="158.05502"
         y="-765.13867"
         style="stroke-width:0.75">$Y$</tspan></text>
</g></svg>