<?xml version="1.0" standalone="no"?>
<!DOCTYPE svg PUBLIC "-//W3C//DTD SVG 20010904//EN"
 "http://www.w3.org/TR/2001/REC-SVG-20010904/DTD/svg10.dtd">
<svg version="1.0" xmlns="http://www.w3.org/2000/svg"
 width="700.000000pt" height="700.000000pt" viewBox="0 0 700.000000 700.000000"
 preserveAspectRatio="xMidYMid meet">
<metadata>
Created by potrace 1.11, written by Peter Selinger 2001-2013
</metadata>
<g transform="translate(0.000000,700.000000) scale(0.100000,-0.100000)"
fill="#000000" stroke="none">
<path d="M1404 6980 c3 -14 13 -54 21 -90 9 -36 18 -75 20 -87 12 -56 16 -80
21 -108 3 -16 10 -32 15 -33 5 -2 7 -8 4 -12 -3 -5 4 -48 15 -97 11 -48 22
-97 25 -108 2 -11 6 -30 8 -41 3 -12 15 -66 27 -120 11 -55 30 -137 41 -184
12 -47 23 -94 25 -105 1 -11 5 -33 8 -49 7 -37 12 -42 31 -26 8 7 15 9 15 5 0
-4 7 -2 15 5 9 7 38 23 64 36 l49 22 28 -56 c15 -32 34 -65 42 -74 8 -10 12
-18 9 -18 -7 0 134 -283 153 -305 7 -8 10 -15 6 -15 -3 0 5 -23 19 -50 16 -31
30 -48 37 -44 7 4 8 3 4 -4 -9 -15 47 -135 59 -125 4 4 5 3 2 -3 -7 -12 110
-256 125 -262 4 -2 8 -9 8 -15 0 -17 101 -221 111 -225 5 -2 9 -10 9 -17 0
-23 57 -125 65 -117 5 4 5 2 2 -4 -4 -6 11 -48 33 -92 22 -45 40 -83 40 -85 0
-2 -8 -13 -18 -25 -9 -11 -24 -29 -33 -39 -21 -26 -57 -102 -64 -138 -21 -95
1 -212 55 -291 l27 -41 -20 -38 c-11 -22 -26 -45 -33 -53 -8 -7 -26 -34 -41
-60 -15 -26 -30 -49 -33 -52 -21 -17 -209 -313 -205 -321 4 -5 2 -8 -3 -7 -13
4 -124 -161 -117 -173 4 -5 2 -8 -4 -7 -13 4 -203 -281 -195 -293 3 -5 1 -8
-4 -7 -13 4 -445 -641 -446 -664 0 -9 -4 -15 -7 -12 -8 5 -249 -350 -249 -366
0 -6 -4 -10 -9 -10 -5 0 -13 -9 -16 -20 -3 -11 -12 -26 -19 -32 -7 -7 -135
-197 -284 -423 -150 -225 -280 -421 -290 -434 -9 -13 -20 -28 -23 -34 -4 -6
-15 -7 -25 -2 -11 5 -22 7 -26 7 -5 -1 -8 2 -8 8 0 9 -65 55 -94 66 -10 4 -34
-48 -41 -86 0 -3 -4 -11 -9 -18 -4 -7 -5 -20 -2 -28 3 -8 2 -13 -3 -10 -5 3
-14 -16 -21 -42 -7 -26 -16 -51 -20 -57 -6 -9 -60 -158 -65 -180 -1 -5 -7 -21
-12 -35 -6 -14 -22 -59 -37 -100 -15 -41 -29 -82 -33 -90 -3 -8 -7 -19 -9 -25
-1 -5 -21 -62 -44 -125 -23 -63 -43 -119 -44 -125 -2 -5 -8 -23 -15 -40 -22
-56 -22 -57 2 -53 12 2 21 9 19 16 -1 8 1 11 6 8 4 -3 29 14 54 37 25 23 85
78 133 122 49 44 100 91 114 104 14 13 59 53 99 90 128 115 147 134 144 145
-2 6 0 8 4 4 6 -7 39 20 184 152 29 26 41 43 34 48 -7 4 -41 27 -77 51 -59 40
-64 46 -53 65 6 12 14 23 17 26 10 9 69 98 69 105 0 3 8 15 18 26 11 10 25 32
33 47 8 15 16 29 19 32 14 12 100 142 100 150 0 4 3 10 8 12 10 4 62 85 62 97
0 5 4 11 9 13 4 2 25 28 45 58 20 30 44 66 53 80 88 127 273 413 273 419 0 5
4 11 9 13 5 2 30 36 57 77 27 40 65 97 84 126 19 29 56 85 83 124 26 40 47 76
47 81 0 6 4 10 8 10 12 0 42 56 34 65 -4 5 -2 5 4 2 6 -3 17 6 25 21 8 15 17
29 20 32 9 8 289 429 289 435 0 3 8 15 18 26 11 10 25 32 33 47 8 15 17 29 20
32 13 11 169 249 169 258 0 6 4 12 9 14 4 2 26 30 47 62 22 32 56 84 76 115
20 30 34 60 31 66 -4 5 -2 7 2 2 8 -7 23 14 99 129 10 16 32 48 48 71 16 24
26 48 22 55 -4 7 -3 8 4 4 6 -4 19 6 29 21 25 39 31 42 72 31 58 -16 173 -3
236 27 53 25 145 99 145 118 0 4 7 15 16 24 8 9 13 22 10 30 -3 8 -2 12 3 9
13 -8 31 49 38 119 3 33 10 63 15 66 4 3 169 58 366 123 196 65 364 121 372
124 8 3 219 73 468 157 249 83 449 155 445 160 -4 4 -3 5 4 1 7 -3 269 79 583
184 315 104 578 190 585 190 11 0 41 -68 60 -137 7 -27 11 -27 47 -5 93 58
166 104 263 167 128 83 257 166 282 180 49 28 72 48 66 58 -4 6 -1 7 6 2 8 -4
24 1 39 11 15 11 39 26 55 33 15 8 27 18 27 23 0 4 6 8 13 8 7 0 22 8 33 18
10 10 21 18 24 18 15 0 70 40 70 51 0 13 -7 13 -181 -2 -31 -3 -96 -7 -145
-11 -101 -7 -159 -12 -159 -14 0 0 -38 -3 -85 -5 -47 -3 -110 -7 -140 -10 -30
-3 -80 -8 -110 -9 -162 -10 -256 -19 -263 -23 -4 -3 -3 -10 2 -17 6 -7 8 -16
4 -19 -3 -4 -2 -7 3 -7 5 0 10 -10 12 -23 1 -13 8 -42 16 -64 l15 -42 -52 -17
c-29 -10 -56 -19 -62 -20 -5 -2 -77 -26 -160 -54 -82 -28 -199 -66 -259 -85
-59 -20 -112 -37 -116 -40 -4 -3 -57 -21 -116 -40 -204 -65 -275 -90 -271 -95
3 -3 -4 -6 -16 -6 -12 -1 -44 -9 -72 -17 -56 -17 -663 -220 -710 -237 -16 -6
-86 -29 -155 -52 -69 -22 -177 -58 -240 -80 -112 -38 -208 -69 -435 -143 -60
-20 -124 -42 -141 -49 -30 -14 -31 -13 -86 40 -88 85 -166 117 -293 118 l-60
1 -27 50 c-15 28 -30 57 -34 65 -16 35 -46 96 -54 110 -5 8 -64 125 -130 260
-67 135 -125 252 -130 260 -5 8 -18 35 -30 60 -11 25 -25 52 -30 60 -5 8 -44
86 -86 172 -42 87 -81 155 -85 152 -5 -3 -6 1 -3 9 3 8 -4 30 -15 48 -12 19
-26 45 -31 59 -6 14 -31 64 -54 111 -42 84 -43 87 -25 103 11 9 19 13 19 10 0
-3 16 3 36 15 19 12 41 21 48 21 8 0 18 6 24 13 10 12 -24 65 -76 119 -10 9
-23 24 -29 32 -98 118 -186 216 -194 216 -6 0 -8 4 -5 8 2 4 -20 34 -50 66
-30 32 -54 62 -54 66 0 3 -10 15 -22 27 -13 11 -36 37 -53 58 -32 41 -68 82
-127 146 -21 22 -38 44 -38 48 0 4 -16 23 -36 42 -34 32 -35 33 -30 9z"/>
</g>
</svg>
