<?xml version="1.0" encoding="UTF-8"?>
<!DOCTYPE svg PUBLIC "-//W3C//DTD SVG 1.1//EN" "http://www.w3.org/Graphics/SVG/1.1/DTD/svg11.dtd">
<svg version="1.1" xmlns="http://www.w3.org/2000/svg" xmlns:xlink="http://www.w3.org/1999/xlink" x="0" y="0" width="109.12" height="40.16" viewBox="0, 0, 109.12, 40.16">
  <g id="Layer_1">
    <g>
      <path d="M19.04,6.52 L90.08,6.52 L90.08,34.84 L19.04,34.84 z" fill="#E4E4E4"/>
      <path d="M19.54,7.02 L90.58,7.02 L90.58,35.34 L19.54,35.34 z" fill-opacity="0" stroke="#000000" stroke-width="1.44" stroke-linecap="round" stroke-linejoin="round"/>
      <path d="M104.74,7.02 L104.74,35.34" fill-opacity="0" stroke="#E62100" stroke-width="2.016" stroke-linecap="round" stroke-linejoin="round"/>
      <path d="M107.62,24.06 L107.62,24.54 L107.38,24.78 L107.14,25.02 L107.14,25.5 L106.9,25.74 L106.66,26.22 L106.66,26.46 L106.42,26.7 L106.18,27.18 L106.18,27.42 L105.94,27.9 L105.94,28.14 L105.7,28.62 L105.7,28.86 L105.7,29.34 L105.46,29.58 L105.46,30.06 L105.22,30.3 L105.22,30.78 L105.22,31.02 L104.98,31.5 L104.98,31.74 L104.98,32.22 L104.98,32.46 L104.98,32.94 L104.74,33.18 L104.74,33.66 L104.74,33.9 L104.74,34.38 L104.74,34.62 L104.74,35.1 L104.74,35.34 L104.74,35.1 L104.74,34.62 L104.5,34.38 L104.5,33.9 L104.5,33.66 L104.5,33.18 L104.5,32.94 L104.5,32.46 L104.26,32.22 L104.26,31.74 L104.26,31.5 L104.26,31.02 L104.02,30.78 L104.02,30.3 L104.02,30.06 L103.78,29.58 L103.78,29.34 L103.54,28.86 L103.54,28.62 L103.3,28.14 L103.3,27.9 L103.06,27.42 L103.06,27.18 L102.82,26.7 L102.82,26.46 L102.58,26.22 L102.58,25.74 L102.34,25.5 L102.1,25.02 L101.86,24.78 L101.86,24.54 L101.62,24.06 L101.62,24.06" fill-opacity="0" stroke="#E62100" stroke-width="2.016" stroke-linecap="round" stroke-linejoin="round"/>
      <path d="M5.38,35.34 L5.38,7.02" fill-opacity="0" stroke="#E62100" stroke-width="2.016" stroke-linecap="round" stroke-linejoin="round"/>
      <path d="M2.5,18.54 L2.5,18.06 L2.74,17.82 L2.98,17.34 L2.98,17.1 L3.22,16.86 L3.46,16.38 L3.46,16.14 L3.7,15.66 L3.94,15.42 L3.94,14.94 L4.18,14.7 L4.18,14.46 L4.42,13.98 L4.42,13.74 L4.42,13.26 L4.66,13.02 L4.66,12.54 L4.9,12.3 L4.9,11.82 L4.9,11.58 L5.14,11.1 L5.14,10.86 L5.14,10.38 L5.14,10.14 L5.14,9.66 L5.38,9.42 L5.38,8.94 L5.38,8.7 L5.38,8.22 L5.38,7.74 L5.38,7.5 L5.38,7.02 L5.38,7.5 L5.38,7.74 L5.62,8.22 L5.62,8.7 L5.62,8.94 L5.62,9.42 L5.62,9.66 L5.62,10.14 L5.86,10.38 L5.86,10.86 L5.86,11.1 L5.86,11.58 L6.1,11.82 L6.1,12.3 L6.1,12.54 L6.34,13.02 L6.34,13.26 L6.58,13.74 L6.58,13.98 L6.82,14.46 L6.82,14.7 L7.06,14.94 L7.06,15.42 L7.3,15.66 L7.3,16.14 L7.54,16.38 L7.54,16.86 L7.78,17.1 L8.02,17.34 L8.26,17.82 L8.26,18.06 L8.5,18.54 L8.5,18.54" fill-opacity="0" stroke="#E62100" stroke-width="2.016" stroke-linecap="round" stroke-linejoin="round"/>
      <path d="M19.54,1.5 L90.58,11.34" fill-opacity="0" stroke="#000000" stroke-width="1.44" stroke-dasharray="4.32,4.32" stroke-linecap="round" stroke-linejoin="round"/>
      <path d="M90.58,11.34 L90.58,39.66" fill-opacity="0" stroke="#000000" stroke-width="1.44" stroke-dasharray="4.32,4.32" stroke-linecap="round" stroke-linejoin="round"/>
      <path d="M90.58,39.66 L19.54,29.82" fill-opacity="0" stroke="#000000" stroke-width="1.44" stroke-dasharray="4.32,4.32" stroke-linecap="round" stroke-linejoin="round"/>
      <path d="M19.54,29.82 L19.54,1.5" fill-opacity="0" stroke="#000000" stroke-width="1.44" stroke-dasharray="4.32,4.32" stroke-linecap="round" stroke-linejoin="round"/>
    </g>
  </g>
</svg>
