<?xml version="1.0" encoding="UTF-8" standalone="no"?>
<!DOCTYPE svg PUBLIC "-//W3C//DTD SVG 1.1//EN" "http://www.w3.org/Graphics/SVG/1.1/DTD/svg11.dtd">
<svg width="100%" height="100%" viewBox="0 0 1182 946" version="1.1" xmlns="http://www.w3.org/2000/svg" xmlns:xlink="http://www.w3.org/1999/xlink" xml:space="preserve" xmlns:serif="http://www.serif.com/" style="fill-rule:evenodd;clip-rule:evenodd;stroke-linecap:round;stroke-linejoin:round;stroke-miterlimit:10;">
    <g transform="matrix(1,0,0,1,0,-1)">
        <g id="Artboard1" transform="matrix(1.00164,0,0,0.801313,0,1.94116)">
            <rect x="0" y="0" width="1179.17" height="1179.17" style="fill:none;"/>
            <g transform="matrix(0,1.24795,-0.998361,0,548.891,47.4222)">
                <path d="M196.5,325C180.317,325 167,338.317 167,354.5C167,370.683 180.317,384 196.5,384C212.683,384 226,370.683 226,354.5C226,338.317 212.683,325 196.5,325" style="fill:rgb(210,219,233);stroke:black;stroke-width:3px;"/>
            </g>
            <g transform="matrix(0,1.24795,-0.998361,0,548.891,46.1742)">
                <path d="M197,345C192.063,345 188,349.063 188,354C188,358.937 192.063,363 197,363C201.937,363 206,358.937 206,354C206,349.063 201.937,345 197,345" style="fill:white;stroke:black;stroke-width:3px;"/>
            </g>
            <g transform="matrix(4.15984,0,0,5.1998,-1.20641,-149.754)">
                <rect x="34.555" y="70.79" width="6.239" height="28.796" style="fill:url(#_Linear1);"/>
            </g>
            <g transform="matrix(0,1.24795,-0.998361,0,518.94,83.6127)">
                <path d="M108,354L226,354" style="fill:none;fill-rule:nonzero;stroke:black;stroke-width:3px;"/>
            </g>
            <g transform="matrix(0.998361,0,0,-1.24795,-1.20641,1325.25)">
                <path d="M1003.91,355.219C1003.91,348.127 1000.09,341.583 993.92,338.089C987.749,334.594 980.175,334.69 974.094,338.339L186.692,810.78C179.105,815.332 175.487,824.387 177.849,832.914C180.211,841.441 187.972,847.345 196.82,847.345L984.222,847.345C989.442,847.345 994.449,845.271 998.141,841.579C1001.83,837.887 1003.91,832.88 1003.91,827.659L1003.91,355.219M964.537,774.725C964.537,793.088 949.651,807.974 931.288,807.974L338.24,807.974C329.481,807.974 321.799,802.13 319.461,793.689C317.123,785.249 320.704,776.285 328.214,771.779C467.92,687.956 810.519,482.396 925.894,413.172C933.776,408.442 943.594,408.318 951.593,412.848C959.592,417.377 964.537,425.859 964.537,435.051L964.537,774.725Z" style="fill:rgb(221,221,221);stroke:black;stroke-width:3px;"/>
            </g>
            <g transform="matrix(0,1.24795,-0.998361,0,548.891,46.1742)">
                <path d="M197,346C192.611,346 189,349.611 189,354C189,358.389 192.611,362 197,362C201.389,362 205,358.389 205,354C205,349.611 201.389,346 197,346" style="stroke:black;stroke-width:0.6px;"/>
            </g>
            <g transform="matrix(0,1.24795,-0.998361,0,1334.6,-935.964)">
                <path d="M984,346C979.611,346 976,349.611 976,354C976,358.389 979.611,362 984,362C988.389,362 992,358.389 992,354C992,349.611 988.389,346 984,346" style="stroke:black;stroke-width:0.6px;"/>
            </g>
            <g transform="matrix(0,1.24795,-0.998361,0,1334.6,-935.964)">
                <path d="M984,346C979.611,346 976,349.611 976,354C976,358.389 979.611,362 984,362C988.389,362 992,358.389 992,354C992,349.611 988.389,346 984,346" style="stroke:black;stroke-width:0.6px;"/>
            </g>
            <g transform="matrix(0,1.24795,-0.998361,0,1806.83,-345.683)">
                <path d="M984,819C979.611,819 976,822.611 976,827C976,831.389 979.611,835 984,835C988.389,835 992,831.389 992,827C992,822.611 988.389,819 984,819" style="stroke:black;stroke-width:0.6px;"/>
            </g>
            <g transform="matrix(0,1.24795,-0.998361,0,941.746,-444.895)">
                <path d="M590.5,346.5C586.111,346.5 582.5,349.886 582.5,354C582.5,358.114 586.111,361.5 590.5,361.5C594.889,361.5 598.5,358.114 598.5,354C598.5,349.886 594.889,346.5 590.5,346.5" style="stroke:black;stroke-width:0.6px;"/>
            </g>
            <g transform="matrix(0,1.24795,-0.998361,0,940.623,142.964)">
                <path d="M590.5,346.5C586.111,346.5 582.5,349.886 582.5,354C582.5,358.114 586.111,361.5 590.5,361.5C594.889,361.5 598.5,358.114 598.5,354C598.5,349.886 594.889,346.5 590.5,346.5" style="stroke:black;stroke-width:0.6px;"/>
            </g>
            <g transform="matrix(0,1.24795,-0.998361,0,1570.71,-640.823)">
                <path d="M984,582.5C979.886,582.5 976.5,586.111 976.5,590.5C976.5,594.889 979.886,598.5 984,598.5C988.114,598.5 991.5,594.889 991.5,590.5C991.5,586.111 988.114,582.5 984,582.5" style="stroke:black;stroke-width:0.6px;"/>
            </g>
            <g transform="matrix(0,1.24795,-0.998361,0,1021.12,636.455)">
                <path d="M197,819C192.611,819 189,822.611 189,827C189,831.389 192.611,835 197,835C201.389,835 205,831.389 205,827C205,822.611 201.389,819 197,819" style="stroke:black;stroke-width:0.6px;"/>
            </g>
            <g transform="matrix(0,1.24795,-0.998361,0,548.891,46.1742)">
                <path d="M197,346C192.611,346 189,349.611 189,354C189,358.389 192.611,362 197,362C201.389,362 205,358.389 205,354C205,349.611 201.389,346 197,346" style="stroke:black;stroke-width:0.6px;"/>
            </g>
            <g transform="matrix(0,1.24795,-0.998361,0,1806.83,-345.683)">
                <path d="M984,819C979.611,819 976,822.611 976,827C976,831.389 979.611,835 984,835C988.389,835 992,831.389 992,827C992,822.611 988.389,819 984,819" style="stroke:black;stroke-width:0.6px;"/>
            </g>
            <g transform="matrix(0,1.24795,-0.998361,0,1177.86,-149.754)">
                <path d="M590.5,583C586.386,583 583,586.386 583,590.5C583,594.614 586.386,598 590.5,598C594.614,598 598,594.614 598,590.5C598,586.386 594.614,583 590.5,583" style="stroke:black;stroke-width:0.6px;"/>
            </g>
            <g transform="matrix(0.855998,-0.642251,0.513801,1.07,-206.95,350.962)">
                <path d="M126.484,572.5L1115.52,572.5" style="fill:none;fill-rule:nonzero;stroke:black;stroke-width:3px;stroke-dasharray:12,13;"/>
            </g>
            <g transform="matrix(0.892961,-0.558101,0.446481,1.1162,-33.3731,474.865)">
                <path d="M1042.88,318.5L1045.12,318.5" style="fill:none;fill-rule:nonzero;stroke:black;stroke-width:3px;"/>
            </g>
            <g transform="matrix(0,1.24795,-0.998361,0,785.003,341.315)">
                <path d="M197,582.5C192.886,582.5 189.5,586.111 189.5,590.5C189.5,594.889 192.886,598.5 197,598.5C201.114,598.5 204.5,594.889 204.5,590.5C204.5,586.111 201.114,582.5 197,582.5" style="stroke:black;stroke-width:0.6px;"/>
            </g>
            <g transform="matrix(0.998361,0,0,-1.24795,-1.20641,733.795)">
                <path d="M996,354L1075,354" style="fill:none;fill-rule:nonzero;stroke:black;stroke-width:2.1px;"/>
            </g>
            <g transform="matrix(0.998361,0,0,-1.24795,-1.20641,1325.32)">
                <path d="M996,591L1075,591" style="fill:none;fill-rule:nonzero;stroke:black;stroke-width:2.1px;"/>
            </g>
            <g transform="matrix(0,1.24795,-0.998361,0,1531.78,-886.669)">
                <path d="M944.5,472.5L1181.5,472.5" style="fill:none;fill-rule:nonzero;stroke:black;stroke-width:2.1px;"/>
            </g>
            <g transform="matrix(0.998361,0,0,-1.24795,-1.20641,755.011)">
                <path d="M1059,354L1059,356L1060,356L1060,358L1061,359L1061,361L1062,362L1062,365L1063,366L1063,371L1063,365L1064,365L1064,361L1065,361L1065,359L1066,358L1066,356L1067,356L1067,354" style="fill:none;fill-rule:nonzero;stroke:black;stroke-width:2.1px;"/>
            </g>
            <g transform="matrix(0.998361,0,0,-1.24795,-1.20641,1304.11)">
                <path d="M1067,591L1067,590L1066,589L1066,587L1065,587L1065,585L1064,584L1064,580L1063,580L1063,574L1063,579L1062,580L1062,584L1061,584L1061,587L1060,587L1060,589L1059,590L1059,591" style="fill:none;fill-rule:nonzero;stroke:black;stroke-width:2.1px;"/>
            </g>
            <g transform="matrix(0.998361,0,0,-1.24795,-1.20641,1029.56)">
                <path d="M1044,494L1082,494L1082,451L1044,451L1044,494" style="fill:white;"/>
            </g>
            <g transform="matrix(0.998361,0,0,-1.24795,-1.20641,1325.32)">
                <path d="M996,591L1075,591" style="fill:none;fill-rule:nonzero;stroke:black;stroke-width:2.1px;"/>
            </g>
            <g transform="matrix(0.998361,0,0,-1.24795,-1.20641,1914.36)">
                <path d="M996,827L1075,827" style="fill:none;fill-rule:nonzero;stroke:black;stroke-width:2.1px;"/>
            </g>
            <g transform="matrix(0,1.24795,-0.998361,0,1767.89,-591.529)">
                <path d="M945,709L1181,709" style="fill:none;fill-rule:nonzero;stroke:black;stroke-width:2.1px;"/>
            </g>
            <g transform="matrix(0.998361,0,0,-1.24795,-1.20641,1345.29)">
                <path d="M1059,591L1059,592L1060,593L1060,595L1061,595L1061,598L1062,598L1062,602L1063,603L1063,607L1063,602L1064,602L1064,598L1065,597L1065,595L1066,595L1066,593L1067,592L1067,591" style="fill:none;fill-rule:nonzero;stroke:black;stroke-width:2.1px;"/>
            </g>
            <g transform="matrix(0.998361,0,0,-1.24795,-1.20641,1893.14)">
                <path d="M1067,827L1067,825L1066,825L1066,823L1065,822L1065,820L1064,820L1064,816L1063,816L1063,810L1063,815L1062,816L1062,819L1061,820L1061,822L1060,823L1060,825L1059,825L1059,827" style="fill:none;fill-rule:nonzero;stroke:black;stroke-width:2.1px;"/>
            </g>
            <g transform="matrix(0.998361,0,0,-1.24795,-1.20641,1618.59)">
                <path d="M1044,730L1082,730L1082,687L1044,687L1044,730" style="fill:white;"/>
            </g>
            <g transform="matrix(0,-1.24795,0.998361,0,-107.033,474.222)">
                <path d="M158,303L236,303" style="fill:none;fill-rule:nonzero;stroke:black;stroke-width:2.1px;"/>
            </g>
            <g transform="matrix(0,-1.24795,0.998361,0,286.322,965.914)">
                <path d="M552,303L630,303" style="fill:none;fill-rule:nonzero;stroke:black;stroke-width:2.1px;"/>
            </g>
            <g transform="matrix(0.999598,1.89365e-19,-1.51492e-19,-1.24795,-1.4501,539.115)">
                <path d="M197,276L591,276" style="fill:none;fill-rule:nonzero;stroke:black;stroke-width:2.1px;"/>
            </g>
            <g transform="matrix(0.998361,0,0,-1.24795,-1.20641,537.867)">
                <path d="M213,271L212,272L210,272L210,273L208,273L207,274L205,274L204,275L197,275L198,276L204,276L205,277L208,277L208,278L210,278L211,279L212,279L213,280" style="fill:none;fill-rule:nonzero;stroke:black;stroke-width:2.1px;"/>
            </g>
            <g transform="matrix(0.998361,0,0,-1.24795,-1.20641,537.867)">
                <path d="M574,280L575,279L576,279L577,278L579,278L579,277L583,277L583,276L589,276L590,275L591,275L583,275L583,274L580,274L579,273L577,273L577,272L575,272L574,271" style="fill:none;fill-rule:nonzero;stroke:black;stroke-width:2.1px;"/>
            </g>
            <g transform="matrix(0.998361,0,0,-1.24795,-1.20641,537.867)">
                <path d="M375,297L412,297L412,254L375,254L375,297" style="fill:white;"/>
            </g>
            <g transform="matrix(0,-1.24795,0.998361,0,286.322,965.914)">
                <path d="M552,303L630,303" style="fill:none;fill-rule:nonzero;stroke:black;stroke-width:2.1px;"/>
            </g>
            <g transform="matrix(0,-1.24795,0.998361,0,678.677,1456.36)">
                <path d="M945,303L1023,303" style="fill:none;fill-rule:nonzero;stroke:black;stroke-width:2.1px;"/>
            </g>
            <g transform="matrix(0.998361,0,0,-1.24795,-1.20641,539.115)">
                <path d="M591,276L984,276" style="fill:none;fill-rule:nonzero;stroke:black;stroke-width:2.1px;"/>
            </g>
            <g transform="matrix(0.998361,0,0,-1.24795,-1.20641,537.867)">
                <path d="M607,271L606,272L604,272L604,273L602,273L601,274L599,274L598,275L591,275L592,276L598,276L599,277L602,277L602,278L604,278L605,279L606,279L607,280" style="fill:none;fill-rule:nonzero;stroke:black;stroke-width:2.1px;"/>
            </g>
            <g transform="matrix(0.998361,0,0,-1.24795,-1.20641,537.867)">
                <path d="M968,280L969,279L970,279L971,278L973,278L973,277L976,277L977,276L983,276L984,275L977,275L976,274L974,274L973,273L971,273L971,272L969,272L968,271" style="fill:none;fill-rule:nonzero;stroke:black;stroke-width:2.1px;"/>
            </g>
            <g transform="matrix(0.998361,0,0,-1.24795,-1.20641,537.867)">
                <path d="M769,297L806,297L806,254L769,254L769,297" style="fill:white;"/>
            </g>
            <g transform="matrix(4.27228,0,0,5.1998,-29.3795,-149.754)">
                <text x="250.56px" y="116.16px" style="font-family:'TimesNewRomanPSMT', 'Times New Roman', serif;font-size:8.88px;">30</text>
            </g>
            <g transform="matrix(4.27228,0,0,5.1998,-29.3795,-149.754)">
                <text x="250.56px" y="173.04px" style="font-family:'TimesNewRomanPSMT', 'Times New Roman', serif;font-size:8.88px;">30</text>
            </g>
            <g transform="matrix(4.27228,0,0,5.1998,-11.326,-149.754)">
                <text x="90px" y="69.12px" style="font-family:'TimesNewRomanPSMT', 'Times New Roman', serif;font-size:8.88px;">50</text>
            </g>
            <g transform="matrix(4.27228,0,0,5.1998,-21.9584,-149.754)">
                <text x="184.56px" y="69.12px" style="font-family:'TimesNewRomanPSMT', 'Times New Roman', serif;font-size:8.88px;">50</text>
            </g>
            <g transform="matrix(0.998361,0,0,-1.24795,-1.20641,1934.19)">
                <path d="M965.24,807.735L965.24,843.552C965.289,846.013 965.817,848.44 966.793,850.699C967.769,852.958 969.175,855.006 970.933,856.728C972.69,858.451 974.766,859.815 977.045,860.746C979.323,861.676 981.761,862.154 984.222,862.154C986.683,862.154 989.12,861.676 991.398,860.746C993.677,859.815 995.753,858.451 997.51,856.728C999.268,855.006 1000.67,852.958 1001.65,850.699C1002.63,848.44 1003.15,846.013 1003.2,843.552L1003.2,807.735" style="fill:rgb(210,219,233);stroke:black;stroke-width:3px;"/>
            </g>
            <g transform="matrix(4.15984,0,0,5.1998,-1.20641,-149.754)">
                <rect x="225.6" y="206.88" width="21.36" height="6" style="fill:url(#_Linear2);"/>
            </g>
            <g transform="matrix(0.998361,0,0,-1.24795,-1.20641,2001.71)">
                <path d="M940,862L1029,862" style="fill:none;fill-rule:nonzero;stroke:black;stroke-width:3px;"/>
            </g>
            <g transform="matrix(0.998361,0,0,-1.24795,-1.20641,1994.23)">
                <rect x="953" y="856" width="63" height="6" style="fill:white;stroke:black;stroke-width:3px;"/>
            </g>
            <g transform="matrix(0,1.24795,-0.998361,0,1806.83,-345.683)">
                <path d="M984,820C980.16,820 977,823.16 977,827C977,830.84 980.16,834 984,834C987.84,834 991,830.84 991,827C991,823.16 987.84,820 984,820" style="stroke:black;stroke-width:0.6px;"/>
            </g>
            <g transform="matrix(-20.5863,15.4619,-2.14247,-4.4571,9150.1,-4935.63)">
                <rect x="376" y="144" width="4.9" height="11" style="fill:none;"/>
                <clipPath id="_clip3">
                    <rect x="376" y="144" width="4.9" height="11"/>
                </clipPath>
                <g clip-path="url(#_clip3)">
                    <g transform="matrix(0.164235,0,-1.0414e-32,1.22573,314.26,-52.6874)">
                        <g transform="matrix(1,0,0,0.773585,2,26.8679)">
                            <path d="M403,178.5C397.599,178.061 393.529,177.085 391.268,175.38" style="fill:none;stroke:rgb(64,124,191);stroke-width:1.49px;stroke-miterlimit:1.5;"/>
                        </g>
                        <g transform="matrix(1,0,0,-0.773585,1.77402,303.038)">
                            <path d="M403,178.5C397.599,178.061 393.529,177.085 391.268,175.38" style="fill:none;stroke:rgb(64,124,191);stroke-width:1.49px;stroke-miterlimit:1.5;"/>
                        </g>
                    </g>
                    <g transform="matrix(0.0198987,-9.51871e-18,1.24102e-18,-0.24,373.775,177.82)">
                        <path d="M118,118L351.818,118" style="fill:none;fill-rule:nonzero;stroke:rgb(64,124,191);stroke-width:7.97px;"/>
                    </g>
                </g>
            </g>
            <g transform="matrix(1,0,0,1,0.061802,-297.375)">
                <g transform="matrix(4.93981,0,0,6.17476,410.514,-151.388)">
                    <path d="M48,114C48,110.689 45.311,108 42,108L30,108C26.689,108 24,110.689 24,114L24,126C24,129.311 26.689,132 30,132L42,132C45.311,132 48,129.311 48,126L48,114Z" style="fill:none;"/>
                    <clipPath id="_clip4">
                        <path d="M48,114C48,110.689 45.311,108 42,108L30,108C26.689,108 24,110.689 24,114L24,126C24,129.311 26.689,132 30,132L42,132C45.311,132 48,129.311 48,126L48,114Z"/>
                    </clipPath>
                    <g clip-path="url(#_clip4)">
                        <g transform="matrix(-0.634562,0,0,0.636206,94.4395,-26.4134)">
                            <path d="M81.212,221.724C79.131,224.368 78,227.635 78,231C78,239.279 84.721,246 93,246C101.279,246 108,239.279 108,231C108,230.451 107.97,229.903 107.91,229.358C107.97,229.903 108,230.451 108,231C108,239.279 101.279,246 93,246C84.721,246 78,239.279 78,231C78,227.635 79.131,224.368 81.212,221.724Z" style="fill:none;stroke:rgb(64,124,191);stroke-width:1.88px;stroke-miterlimit:1.5;"/>
                        </g>
                        <g transform="matrix(-0.309217,-0.485339,0.617892,-0.393069,62.4157,373.962)">
                            <g transform="matrix(0.982529,-0.145717,0.182545,0.760268,-24.1254,89.3626)">
                                <path d="M403,178.5C397.599,178.061 393.529,177.085 391.268,175.38" style="fill:none;stroke:rgb(64,124,191);stroke-width:1.67px;stroke-miterlimit:1.5;"/>
                            </g>
                            <g transform="matrix(0.982529,-0.145717,-0.182545,-0.760268,40.821,360.811)">
                                <path d="M403,178.5C397.599,178.061 393.529,177.085 391.268,175.38" style="fill:none;stroke:rgb(64,124,191);stroke-width:1.67px;stroke-miterlimit:1.5;"/>
                            </g>
                        </g>
                    </g>
                </g>
                <g transform="matrix(0.998361,0,0,1.24795,303.024,-1.6959)">
                    <text x="224px" y="434.167px" style="font-family:'CMUClassicalSerif-Italic', 'CMU Classical Serif';font-weight:500;font-style:italic;font-size:41.667px;">M</text>
                </g>
            </g>
            <g transform="matrix(4.15984,0,0,5.1998,-220.125,570.626)">
                <g transform="matrix(0.24,-0,-0,0.24,52.9167,-109.966)">
                    <path d="M268.884,702.876L279.514,708.191L268.884,713.506L268.884,702.876Z"/>
                    <path d="M196.181,708.191L271.01,708.191" style="fill:none;stroke:black;stroke-width:2.36px;stroke-miterlimit:1.5;"/>
                </g>
                <g transform="matrix(6.12323e-17,-1,1,6.12323e-17,40,160)">
                    <g transform="matrix(1.46958e-17,0.24,-0.24,1.46958e-17,269.966,12.9167)">
                        <path d="M190.866,635.488L196.181,624.858L201.496,635.488L190.866,635.488Z"/>
                        <path d="M196.181,708.191L196.181,633.362" style="fill:none;stroke:black;stroke-width:2.36px;stroke-miterlimit:1.5;"/>
                    </g>
                </g>
                <g transform="matrix(1,0,0,1,-2.5,-5)">
                    <text x="125px" y="66.816px" style="font-family:'Times-Italic', 'Times';font-style:italic;font-size:10px;">x</text>
                </g>
                <g transform="matrix(1,0,0,1,-2.5,13.1836)">
                    <text x="100px" y="21.816px" style="font-family:'Times-Italic', 'Times';font-style:italic;font-size:10px;">y</text>
                </g>
            </g>
            <g transform="matrix(0.998361,0,0,1.24795,46.0078,0)">
                <text x="58px" y="243.761px" style="font-family:'CMUClassicalSerif-Italic', 'CMU Classical Serif';font-weight:500;font-style:italic;font-size:41.667px;">A</text>
            </g>
            <g transform="matrix(0.998361,0,0,1.24795,876.823,-237.617)">
                <text x="117.875px" y="382.792px" style="font-family:'CMUClassicalSerif-Italic', 'CMU Classical Serif';font-weight:500;font-style:italic;font-size:41.667px;">B</text>
            </g>
            <g transform="matrix(0.998361,0,0,1.24795,955.224,346.982)">
                <text x="78.583px" y="472.167px" style="font-family:'CMUClassicalSerif-Italic', 'CMU Classical Serif';font-weight:500;font-style:italic;font-size:41.667px;">C</text>
            </g>
            <g transform="matrix(0.998361,0,0,1.24795,-98.9546,220.653)">
                <text x="235.75px" y="539.958px" style="font-family:'CMUClassicalSerif-Italic', 'CMU Classical Serif';font-weight:500;font-style:italic;font-size:41.667px;">O</text>
            </g>
        </g>
    </g>
    <defs>
        <linearGradient id="_Linear1" x1="0" y1="0" x2="1" y2="0" gradientUnits="userSpaceOnUse" gradientTransform="matrix(6.23912,0,0,-28.7959,34.5551,99.5858)"><stop offset="0" style="stop-color:white;stop-opacity:1"/><stop offset="0.04" style="stop-color:white;stop-opacity:1"/><stop offset="0.04" style="stop-color:rgb(247,247,247);stop-opacity:1"/><stop offset="0.07" style="stop-color:rgb(247,247,247);stop-opacity:1"/><stop offset="0.08" style="stop-color:rgb(238,238,238);stop-opacity:1"/><stop offset="0.11" style="stop-color:rgb(238,238,238);stop-opacity:1"/><stop offset="0.12" style="stop-color:rgb(230,230,230);stop-opacity:1"/><stop offset="0.15" style="stop-color:rgb(230,230,230);stop-opacity:1"/><stop offset="0.16" style="stop-color:rgb(222,222,222);stop-opacity:1"/><stop offset="0.19" style="stop-color:rgb(222,222,222);stop-opacity:1"/><stop offset="0.2" style="stop-color:rgb(214,214,214);stop-opacity:1"/><stop offset="0.23" style="stop-color:rgb(214,214,214);stop-opacity:1"/><stop offset="0.23" style="stop-color:rgb(205,205,205);stop-opacity:1"/><stop offset="0.27" style="stop-color:rgb(205,205,205);stop-opacity:1"/><stop offset="0.27" style="stop-color:rgb(197,197,197);stop-opacity:1"/><stop offset="0.31" style="stop-color:rgb(197,197,197);stop-opacity:1"/><stop offset="0.31" style="stop-color:rgb(190,190,190);stop-opacity:1"/><stop offset="0.35" style="stop-color:rgb(190,190,190);stop-opacity:1"/><stop offset="0.35" style="stop-color:rgb(183,183,183);stop-opacity:1"/><stop offset="0.38" style="stop-color:rgb(183,183,183);stop-opacity:1"/><stop offset="0.39" style="stop-color:rgb(176,176,176);stop-opacity:1"/><stop offset="0.42" style="stop-color:rgb(176,176,176);stop-opacity:1"/><stop offset="0.42" style="stop-color:rgb(170,170,170);stop-opacity:1"/><stop offset="0.46" style="stop-color:rgb(170,170,170);stop-opacity:1"/><stop offset="0.46" style="stop-color:rgb(163,163,163);stop-opacity:1"/><stop offset="0.5" style="stop-color:rgb(163,163,163);stop-opacity:1"/><stop offset="0.5" style="stop-color:rgb(156,156,156);stop-opacity:1"/><stop offset="0.54" style="stop-color:rgb(156,156,156);stop-opacity:1"/><stop offset="0.54" style="stop-color:rgb(149,149,149);stop-opacity:1"/><stop offset="0.58" style="stop-color:rgb(149,149,149);stop-opacity:1"/><stop offset="0.58" style="stop-color:rgb(142,142,142);stop-opacity:1"/><stop offset="0.61" style="stop-color:rgb(142,142,142);stop-opacity:1"/><stop offset="0.62" style="stop-color:rgb(136,136,136);stop-opacity:1"/><stop offset="1" style="stop-color:rgb(136,136,136);stop-opacity:1"/></linearGradient>
        <linearGradient id="_Linear2" x1="0" y1="0" x2="1" y2="0" gradientUnits="userSpaceOnUse" gradientTransform="matrix(3.67394e-16,6,-6,3.67394e-16,233.57,206.88)"><stop offset="0" style="stop-color:black;stop-opacity:1"/><stop offset="0.44" style="stop-color:rgb(202,202,202);stop-opacity:1"/><stop offset="1" style="stop-color:white;stop-opacity:1"/></linearGradient>
    </defs>
</svg>
