<?xml version="1.0" encoding="UTF-8" standalone="no"?>
<svg
   xmlns:dc="http://purl.org/dc/elements/1.1/"
   xmlns:cc="http://creativecommons.org/ns#"
   xmlns:rdf="http://www.w3.org/1999/02/22-rdf-syntax-ns#"
   xmlns:svg="http://www.w3.org/2000/svg"
   xmlns="http://www.w3.org/2000/svg"
   xmlns:sodipodi="http://sodipodi.sourceforge.net/DTD/sodipodi-0.dtd"
   xmlns:inkscape="http://www.inkscape.org/namespaces/inkscape"
   width="514.43097pt"
   height="187.80643pt"
   viewBox="0 0 514.43097 187.80643"
   version="1.1"
   id="svg117"
   sodipodi:docname="twoforce.svg"
   inkscape:version="0.92.4 (5da689c313, 2019-01-14)">
  <metadata
     id="metadata123">
    <rdf:RDF>
      <cc:Work
         rdf:about="">
        <dc:format>image/svg+xml</dc:format>
        <dc:type
           rdf:resource="http://purl.org/dc/dcmitype/StillImage" />
        <dc:title></dc:title>
      </cc:Work>
    </rdf:RDF>
  </metadata>
  <defs
     id="defs121" />
  <sodipodi:namedview
     pagecolor="#ffffff"
     bordercolor="#666666"
     borderopacity="0.31372549"
     objecttolerance="10"
     gridtolerance="10"
     guidetolerance="10"
     inkscape:pageopacity="0"
     inkscape:pageshadow="2"
     inkscape:window-width="640"
     inkscape:window-height="480"
     id="namedview119"
     showgrid="false"
     inkscape:showpageshadow="false"
     inkscape:zoom="0.63211061"
     inkscape:cx="345.1932"
     inkscape:cy="19.124025"
     inkscape:window-x="0"
     inkscape:window-y="0"
     inkscape:window-maximized="0"
     inkscape:current-layer="svg117" />
  <g
     id="surface1"
     transform="translate(-47.105102,-32.696394)">
    <path
       style="fill:#e3e3e3;fill-opacity:1;fill-rule:nonzero;stroke:none"
       d="m 81.902344,87.105469 56.691406,85.039061 c 2.60547,3.90625 1.55078,9.1875 -2.35547,11.79297 -3.91016,2.60547 -9.1875,1.54687 -11.79297,-2.35938 L 67.75,96.539062 c -2.605469,-3.910156 -1.546875,-9.1875 2.359375,-11.792968 3.90625,-2.605469 9.1875,-1.550782 11.792969,2.359375 z m 0,0"
       id="path2"
       inkscape:connector-curvature="0" />
    <path
       style="fill:none;stroke:#000000;stroke-width:4.19999981;stroke-linecap:round;stroke-linejoin:round;stroke-miterlimit:10;stroke-opacity:1"
       d="m 265.75977,287.43945 236.21419,354.32943 c 10.85612,16.27604 6.46159,38.28125 -9.81445,49.13737 -16.29232,10.85612 -38.28125,6.44531 -49.13738,-9.83073 L 206.79167,326.74609 c -10.85612,-16.29231 -6.44532,-38.28125 9.83073,-49.13737 16.27604,-10.85612 38.28125,-6.46159 49.13737,9.83073"
       transform="matrix(0.24,0,0,0.24,18.12,18.12)"
       id="path4"
       inkscape:connector-curvature="0" />
    <path
       style="fill:#000000;fill-opacity:1;fill-rule:nonzero;stroke:#000000;stroke-width:0.60000002;stroke-linecap:butt;stroke-linejoin:round;stroke-miterlimit:10;stroke-opacity:1"
       d="m 250.00456,307.00326 c 0,-7.73113 -6.26628,-13.9974 -13.9974,-13.9974 -7.73112,0 -14.01367,6.26627 -14.01367,13.9974 0,7.73111 6.28255,13.99739 14.01367,13.99739 7.73112,0 13.9974,-6.26628 13.9974,-13.99739"
       transform="matrix(0.24,0,0,0.24,18.12,18.12)"
       id="path6"
       inkscape:connector-curvature="0" />
    <path
       style="fill:#000000;fill-opacity:1;fill-rule:nonzero;stroke:#000000;stroke-width:0.60000002;stroke-linecap:butt;stroke-linejoin:round;stroke-miterlimit:10;stroke-opacity:1"
       d="m 487,661.49544 c 0,-8.00781 -6.49414,-14.50195 -14.50195,-14.50195 -8.00782,0 -14.50196,6.49414 -14.50196,14.50195 0,8.00781 6.49414,14.50196 14.50196,14.50196 8.00781,0 14.50195,-6.49415 14.50195,-14.50196"
       transform="matrix(0.24,0,0,0.24,18.12,18.12)"
       id="path8"
       inkscape:connector-curvature="0" />
    <path
       style="fill:#e3e3e3;fill-opacity:1;fill-rule:nonzero;stroke:none"
       d="m 378.13281,100.32422 v -5.66797 c 0,-2.027344 -1.07812,-3.898438 -2.83203,-4.910156 -1.75391,-1.011719 -3.91797,-1.011719 -5.67187,0 -1.75391,1.011718 -2.83204,2.882812 -2.83204,4.910156 v 5.66797 c 0,2.02734 1.07813,3.89844 2.83204,4.91016 1.7539,1.01171 3.91796,1.01171 5.67187,0 1.75391,-1.01172 2.83203,-2.88282 2.83203,-4.91016 m -8.5039,-5.66797 c 0,-1.011719 0.54296,-1.949219 1.41796,-2.457031 0.87891,-0.503907 1.95704,-0.503907 2.83594,0 0.875,0.507812 1.41797,1.445312 1.41797,2.457031 v 5.66797 c 0,1.01172 -0.54297,1.94922 -1.41797,2.45703 -0.8789,0.50391 -1.95703,0.50391 -2.83594,0 -0.875,-0.50781 -1.41796,-1.44531 -1.41796,-2.45703 z m 0,0"
       id="path10"
       inkscape:connector-curvature="0" />
    <path
       style="fill:none;stroke:#000000;stroke-width:4.19999981;stroke-linecap:round;stroke-linejoin:round;stroke-miterlimit:10;stroke-opacity:1"
       d="m 1500.0534,342.51758 v -23.61654 c 0,-8.44726 -4.4922,-16.24349 -11.8001,-20.45898 -7.308,-4.2155 -16.3249,-4.2155 -23.6329,0 -7.3079,4.21549 -11.8001,12.01172 -11.8001,20.45898 v 23.61654 c 0,8.44726 4.4922,16.24349 11.8001,20.45898 7.308,4.2155 16.3249,4.2155 23.6329,0 7.3079,-4.21549 11.8001,-12.01172 11.8001,-20.45898 m -35.433,-23.61654 c 0,-4.21549 2.2624,-8.12174 5.9082,-10.23763 3.6622,-2.09961 8.1543,-2.09961 11.8165,0 3.6458,2.11589 5.9082,6.02214 5.9082,10.23763 v 23.61654 c 0,4.21549 -2.2624,8.12174 -5.9082,10.23763 -3.6622,2.09961 -8.1543,2.09961 -11.8165,0 -3.6458,-2.11589 -5.9082,-6.02214 -5.9082,-10.23763 v -23.61654"
       transform="matrix(0.24,0,0,0.24,18.12,18.12)"
       id="path12"
       inkscape:connector-curvature="0" />
    <path
       style="fill:#e3e3e3;fill-opacity:1;fill-rule:nonzero;stroke:none"
       d="m 378.13281,123 v -5.66797 c 0,-3.1289 -2.53906,-5.66797 -5.66797,-5.66797 -3.13281,0 -5.66797,2.53907 -5.66797,5.66797 V 123 c 0,3.13281 2.53516,5.67187 5.66797,5.67187 3.12891,0 5.66797,-2.53906 5.66797,-5.67187 m -8.5039,-5.66797 c 0,-1.5664 1.26953,-2.83594 2.83593,-2.83594 1.56641,0 2.83594,1.26954 2.83594,2.83594 V 123 c 0,1.56641 -1.26953,2.83594 -2.83594,2.83594 -1.5664,0 -2.83593,-1.26953 -2.83593,-2.83594 z m 0,0"
       id="path14"
       inkscape:connector-curvature="0" />
    <path
       style="fill:none;stroke:#000000;stroke-width:4.19999981;stroke-linecap:round;stroke-linejoin:round;stroke-miterlimit:10;stroke-opacity:1"
       d="m 1500.0534,437 v -23.61654 c 0,-13.03711 -10.5794,-23.61653 -23.6166,-23.61653 -13.0533,0 -23.6165,10.57942 -23.6165,23.61653 V 437 c 0,13.05338 10.5632,23.63281 23.6165,23.63281 13.0372,0 23.6166,-10.57943 23.6166,-23.63281 m -35.433,-23.61654 c 0,-6.52669 5.2898,-11.8164 11.8164,-11.8164 6.5267,0 11.8165,5.28971 11.8165,11.8164 V 437 c 0,6.52669 -5.2898,11.81641 -11.8165,11.81641 -6.5266,0 -11.8164,-5.28972 -11.8164,-11.81641 v -23.61654"
       transform="matrix(0.24,0,0,0.24,18.12,18.12)"
       id="path16"
       inkscape:connector-curvature="0" />
    <path
       style="fill:#e3e3e3;fill-opacity:1;fill-rule:nonzero;stroke:none"
       d="m 378.13281,145.67969 v -5.66797 c 0,-3.13281 -2.53906,-5.67188 -5.66797,-5.67188 -3.13281,0 -5.66797,2.53907 -5.66797,5.67188 v 5.66797 c 0,3.1289 2.53516,5.66797 5.66797,5.66797 3.12891,0 5.66797,-2.53907 5.66797,-5.66797 m -8.5039,-5.66797 c 0,-1.56641 1.26953,-2.83594 2.83593,-2.83594 1.56641,0 2.83594,1.26953 2.83594,2.83594 v 5.66797 c 0,1.5664 -1.26953,2.83593 -2.83594,2.83593 -1.5664,0 -2.83593,-1.26953 -2.83593,-2.83593 z m 0,0"
       id="path18"
       inkscape:connector-curvature="0" />
    <path
       style="fill:none;stroke:#000000;stroke-width:4.19999981;stroke-linecap:round;stroke-linejoin:round;stroke-miterlimit:10;stroke-opacity:1"
       d="m 1500.0534,531.4987 v -23.63282 c 0,-13.0371 -10.5794,-23.61653 -23.6166,-23.61653 -13.0533,0 -23.6165,10.57943 -23.6165,23.61653 v 23.63282 c 0,13.03711 10.5632,23.61653 23.6165,23.61653 13.0372,0 23.6166,-10.57942 23.6166,-23.61653 m -35.433,-23.63282 c 0,-6.51041 5.2898,-11.80012 11.8164,-11.80012 6.5267,0 11.8165,5.28971 11.8165,11.80012 v 23.63282 c 0,6.52669 -5.2898,11.8164 -11.8165,11.8164 -6.5266,0 -11.8164,-5.28971 -11.8164,-11.8164 v -23.63282"
       transform="matrix(0.24,0,0,0.24,18.12,18.12)"
       id="path20"
       inkscape:connector-curvature="0" />
    <path
       style="fill:#e3e3e3;fill-opacity:1;fill-rule:nonzero;stroke:none"
       d="m 378.13281,168.35547 v -5.66797 c 0,-3.13281 -2.53906,-5.66797 -5.66797,-5.66797 -3.13281,0 -5.66797,2.53516 -5.66797,5.66797 v 5.66797 c 0,3.13281 2.53516,5.67187 5.66797,5.67187 3.12891,0 5.66797,-2.53906 5.66797,-5.67187 m -8.5039,-5.66797 c 0,-1.56641 1.26953,-2.83594 2.83593,-2.83594 1.56641,0 2.83594,1.26953 2.83594,2.83594 v 5.66797 c 0,1.5664 -1.26953,2.83594 -2.83594,2.83594 -1.5664,0 -2.83593,-1.26954 -2.83593,-2.83594 z m 0,0"
       id="path22"
       inkscape:connector-curvature="0" />
    <path
       style="fill:none;stroke:#000000;stroke-width:4.19999981;stroke-linecap:round;stroke-linejoin:round;stroke-miterlimit:10;stroke-opacity:1"
       d="m 1500.0534,625.98112 v -23.61654 c 0,-13.05338 -10.5794,-23.61653 -23.6166,-23.61653 -13.0533,0 -23.6165,10.56315 -23.6165,23.61653 v 23.61654 c 0,13.05338 10.5632,23.63281 23.6165,23.63281 13.0372,0 23.6166,-10.57943 23.6166,-23.63281 m -35.433,-23.61654 c 0,-6.52669 5.2898,-11.8164 11.8164,-11.8164 6.5267,0 11.8165,5.28971 11.8165,11.8164 v 23.61654 c 0,6.52669 -5.2898,11.81641 -11.8165,11.81641 -6.5266,0 -11.8164,-5.28972 -11.8164,-11.81641 v -23.61654"
       transform="matrix(0.24,0,0,0.24,18.12,18.12)"
       id="path24"
       inkscape:connector-curvature="0" />
    <path
       style="fill:#e3e3e3;fill-opacity:1;fill-rule:nonzero;stroke:none"
       d="m 373.88281,79.066406 v 14.171875 c 0,0.78125 -0.63672,1.417969 -1.41797,1.417969 -0.78125,0 -1.41797,-0.636719 -1.41797,-1.417969 V 79.066406 c 0,-0.785156 0.63672,-1.417968 1.41797,-1.417968 0.78125,0 1.41797,0.632812 1.41797,1.417968 z m 0,0"
       id="path26"
       inkscape:connector-curvature="0" />
    <path
       style="fill:none;stroke:#000000;stroke-width:4.19999981;stroke-linecap:round;stroke-linejoin:round;stroke-miterlimit:10;stroke-opacity:1"
       d="m 1482.3451,253.94336 v 59.04948 c 0,3.25521 -2.653,5.9082 -5.9083,5.9082 -3.2552,0 -5.9082,-2.65299 -5.9082,-5.9082 v -59.04948 c 0,-3.27149 2.653,-5.9082 5.9082,-5.9082 3.2553,0 5.9083,2.63671 5.9083,5.9082"
       transform="matrix(0.24,0,0,0.24,18.12,18.12)"
       id="path28"
       inkscape:connector-curvature="0" />
    <path
       style="fill:#e3e3e3;fill-opacity:1;fill-rule:nonzero;stroke:none"
       d="m 373.88281,101.74219 v 14.17187 c 0,0.78516 -0.63672,1.41797 -1.41797,1.41797 -0.78125,0 -1.41797,-0.63281 -1.41797,-1.41797 v -14.17187 c 0,-0.78125 0.63672,-1.41797 1.41797,-1.41797 0.78125,0 1.41797,0.63672 1.41797,1.41797 z m 0,0"
       id="path30"
       inkscape:connector-curvature="0" />
    <path
       style="fill:none;stroke:#000000;stroke-width:4.19999981;stroke-linecap:round;stroke-linejoin:round;stroke-miterlimit:10;stroke-opacity:1"
       d="m 1482.3451,348.42578 v 59.04948 c 0,3.27148 -2.653,5.9082 -5.9083,5.9082 -3.2552,0 -5.9082,-2.63672 -5.9082,-5.9082 v -59.04948 c 0,-3.25521 2.653,-5.9082 5.9082,-5.9082 3.2553,0 5.9083,2.65299 5.9083,5.9082"
       transform="matrix(0.24,0,0,0.24,18.12,18.12)"
       id="path32"
       inkscape:connector-curvature="0" />
    <path
       style="fill:#e3e3e3;fill-opacity:1;fill-rule:nonzero;stroke:none"
       d="m 373.88281,124.41797 v 14.17578 c 0,0.50391 -0.26953,0.97266 -0.71094,1.22656 -0.4375,0.25391 -0.97656,0.25391 -1.41406,0 -0.4414,-0.2539 -0.71094,-0.72265 -0.71094,-1.22656 v -14.17578 c 0,-0.78125 0.63672,-1.41797 1.41797,-1.41797 0.78125,0 1.41797,0.63672 1.41797,1.41797 z m 0,0"
       id="path34"
       inkscape:connector-curvature="0" />
    <path
       style="fill:none;stroke:#000000;stroke-width:4.19999981;stroke-linecap:round;stroke-linejoin:round;stroke-miterlimit:10;stroke-opacity:1"
       d="m 1482.3451,442.9082 v 59.06576 c 0,2.09961 -1.1231,4.05273 -2.9623,5.11067 -1.8229,1.05795 -4.069,1.05795 -5.8919,0 -1.8392,-1.05794 -2.9623,-3.01106 -2.9623,-5.11067 V 442.9082 c 0,-3.25521 2.653,-5.9082 5.9082,-5.9082 3.2553,0 5.9083,2.65299 5.9083,5.9082"
       transform="matrix(0.24,0,0,0.24,18.12,18.12)"
       id="path36"
       inkscape:connector-curvature="0" />
    <path
       style="fill:#e3e3e3;fill-opacity:1;fill-rule:nonzero;stroke:none"
       d="m 373.88281,147.09766 v 14.17187 c 0,0.50781 -0.26953,0.97266 -0.71094,1.22656 -0.4375,0.25391 -0.97656,0.25391 -1.41406,0 -0.4414,-0.2539 -0.71094,-0.71875 -0.71094,-1.22656 v -14.17187 c 0,-0.78516 0.63672,-1.41797 1.41797,-1.41797 0.78125,0 1.41797,0.63281 1.41797,1.41797 z m 0,0"
       id="path38"
       inkscape:connector-curvature="0" />
    <path
       style="fill:none;stroke:#000000;stroke-width:4.19999981;stroke-linecap:round;stroke-linejoin:round;stroke-miterlimit:10;stroke-opacity:1"
       d="m 1482.3451,537.4069 v 59.04948 c 0,2.11589 -1.1231,4.05273 -2.9623,5.11068 -1.8229,1.05794 -4.069,1.05794 -5.8919,0 -1.8392,-1.05795 -2.9623,-2.99479 -2.9623,-5.11068 V 537.4069 c 0,-3.27148 2.653,-5.9082 5.9082,-5.9082 3.2553,0 5.9083,2.63672 5.9083,5.9082"
       transform="matrix(0.24,0,0,0.24,18.12,18.12)"
       id="path40"
       inkscape:connector-curvature="0" />
    <path
       style="fill:#e3e3e3;fill-opacity:1;fill-rule:nonzero;stroke:none"
       d="m 373.88281,169.77344 v 14.17187 c 0,0.78516 -0.63672,1.41797 -1.41797,1.41797 -0.78125,0 -1.41797,-0.63281 -1.41797,-1.41797 v -14.17187 c 0,-0.50782 0.26954,-0.97266 0.71094,-1.22657 0.4375,-0.2539 0.97656,-0.2539 1.41406,0 0.44141,0.25391 0.71094,0.71875 0.71094,1.22657 z m 0,0"
       id="path42"
       inkscape:connector-curvature="0" />
    <path
       style="fill:none;stroke:#000000;stroke-width:4.19999981;stroke-linecap:round;stroke-linejoin:round;stroke-miterlimit:10;stroke-opacity:1"
       d="m 1482.3451,631.88932 v 59.04948 c 0,3.27149 -2.653,5.9082 -5.9083,5.9082 -3.2552,0 -5.9082,-2.63671 -5.9082,-5.9082 v -59.04948 c 0,-2.11588 1.1231,-4.05273 2.9623,-5.11067 1.8229,-1.05795 4.069,-1.05795 5.8919,0 1.8392,1.05794 2.9623,2.99479 2.9623,5.11067"
       transform="matrix(0.24,0,0,0.24,18.12,18.12)"
       id="path44"
       inkscape:connector-curvature="0" />
    <path
       style="fill:#e3e3e3;fill-opacity:1;fill-rule:nonzero;stroke:none"
       d="m 529.78906,70.5625 c 3.91406,0 7.08594,3.171875 7.08594,7.085938 0,3.914062 -3.17188,7.085937 -7.08594,7.085937 h -65.19922 v 92.124995 c 0,3.91407 -3.17187,7.08594 -7.08593,7.08594 -3.91407,0 -7.08594,-3.17187 -7.08594,-7.08594 V 77.648438 c 0,-3.914063 3.17187,-7.085938 7.08594,-7.085938 z m 0,0"
       id="path46"
       inkscape:connector-curvature="0" />
    <path
       style="fill:none;stroke:#000000;stroke-width:4.19999981;stroke-linecap:round;stroke-linejoin:round;stroke-miterlimit:10;stroke-opacity:1"
       d="m 2131.9544,218.51042 c 16.3086,0 29.5248,13.21614 29.5248,29.52474 0,16.30859 -13.2162,29.52474 -29.5248,29.52474 H 1860.291 v 383.85416 c 0,16.3086 -13.2161,29.52474 -29.5247,29.52474 -16.3086,0 -29.5248,-13.21614 -29.5248,-29.52474 v -413.3789 c 0,-16.3086 13.2162,-29.52474 29.5248,-29.52474 h 301.1881"
       transform="matrix(0.24,0,0,0.24,18.12,18.12)"
       id="path48"
       inkscape:connector-curvature="0" />
    <path
       style="fill:#000000;fill-opacity:1;fill-rule:nonzero;stroke:#000000;stroke-width:0.60000002;stroke-linecap:butt;stroke-linejoin:round;stroke-miterlimit:10;stroke-opacity:1"
       d="m 1843.0059,661.49544 c 0,-6.34765 -5.3711,-11.49088 -12.0118,-11.49088 -6.6243,0 -11.9954,5.14323 -11.9954,11.49088 0,6.36393 5.3711,11.50716 11.9954,11.50716 6.6407,0 12.0118,-5.14323 12.0118,-11.50716"
       transform="matrix(0.24,0,0,0.24,18.12,18.12)"
       id="path50"
       inkscape:connector-curvature="0" />
    <path
       style="fill:#000000;fill-opacity:1;fill-rule:nonzero;stroke:#000000;stroke-width:0.60000002;stroke-linecap:butt;stroke-linejoin:round;stroke-miterlimit:10;stroke-opacity:1"
       d="m 2143.9987,248.0026 c 0,-6.62435 -5.3711,-11.99544 -11.9954,-11.99544 -6.6244,0 -11.9955,5.37109 -11.9955,11.99544 0,6.62435 5.3711,11.99545 11.9955,11.99545 6.6243,0 11.9954,-5.3711 11.9954,-11.99545"
       transform="matrix(0.24,0,0,0.24,18.12,18.12)"
       id="path52"
       inkscape:connector-curvature="0" />
    <path
       style="fill:none;stroke:#000000;stroke-width:4.19999981;stroke-linecap:round;stroke-linejoin:round;stroke-miterlimit:10;stroke-dasharray:29, 12;stroke-dashoffset:13;stroke-opacity:1"
       d="M 2259.998,73.002604 1702.9993,837"
       transform="matrix(0.24,0,0,0.24,18.12,18.12)"
       id="path54"
       inkscape:connector-curvature="0" />
    <path
       style="fill:none;stroke:#e61e00;stroke-width:8.39999962;stroke-linecap:round;stroke-linejoin:round;stroke-miterlimit:10;stroke-opacity:1"
       d="M 2132.0033,248.0026 2259.998,73.002604"
       transform="matrix(0.24,0,0,0.24,18.12,18.12)"
       id="path56"
       inkscape:connector-curvature="0" />
    <path
       style="fill:none;stroke:#e61e00;stroke-width:8.39999962;stroke-linecap:round;stroke-linejoin:round;stroke-miterlimit:10;stroke-opacity:1"
       d="m 2221.9935,103.99219 1.0091,-0.99284 0.9928,-0.99284 h 2.002 l 2.0019,-2.00195 2.002,-1.009117 0.9928,-0.992839 h 1.0092 l 2.0019,-1.009114 0.9928,-0.992839 1.0092,-0.992839 1.9856,-1.009114 1.0092,-0.992839 0.9928,-1.009114 1.0091,-0.992839 h 0.9928 l 2.002,-1.009114 1.0091,-0.992839 0.9929,-1.009114 0.9928,-0.992839 1.0091,-0.992839 0.9928,-2.001953 2.002,-2.001953 2.0019,-1.009114 2.9948,-2.994792 1.0092,-0.992839 0.9928,-2.001953 2.0019,-2.001953 -2.0019,2.001953 -0.9928,2.001953 -1.0092,0.992839 -0.9928,0.992838 v 2.001954 l -2.002,2.001953 -0.9928,2.001953 v 1.009114 l -1.0091,1.985678 -0.9928,1.009114 v 0.992839 l -1.0092,2.001953 v 1.009114 l -0.9928,2.001953 -1.0091,0.992839 v 2.001953 l -0.9928,0.992839 v 3.011067 l -0.9929,0.99284 v 2.00195 l -1.0091,0.99284 v 3.01107 l -0.9928,2.00195 v 2.99479 l -1.0092,0.99284 v 4.00391"
       transform="matrix(0.24,0,0,0.24,18.12,18.12)"
       id="path58"
       inkscape:connector-curvature="0" />
    <path
       style="fill:none;stroke:#e61e00;stroke-width:1;stroke-linecap:round;stroke-linejoin:round;stroke-miterlimit:10;stroke-opacity:1"
       d="m 2221.9935,103.99219 1.0091,-0.99284 0.9928,-0.99284 h 2.002 l 2.0019,-2.00195 2.002,-1.009117 0.9928,-0.992839 h 1.0092 l 2.0019,-1.009114 0.9928,-0.992839 1.0092,-0.992839 1.9856,-1.009114 1.0092,-0.992839 0.9928,-1.009114 1.0091,-0.992839 h 0.9928 l 2.002,-1.009114 1.0091,-0.992839 0.9929,-1.009114 0.9928,-0.992839 1.0091,-0.992839 0.9928,-2.001953 2.002,-2.001953 2.0019,-1.009114 2.9948,-2.994792 1.0092,-0.992839 0.9928,-2.001953 2.0019,-2.001953 -2.0019,2.001953 -0.9928,2.001953 -1.0092,0.992839 -0.9928,0.992838 v 2.001954 l -2.002,2.001953 -0.9928,2.001953 v 1.009114 l -1.0091,1.985678 -0.9928,1.009114 v 0.992839 l -1.0092,2.001953 v 1.009114 l -0.9928,2.001953 -1.0091,0.992839 v 2.001953 l -0.9928,0.992839 v 3.011067 l -0.9929,0.99284 v 2.00195 l -1.0091,0.99284 v 3.01107 l -0.9928,2.00195 v 2.99479 l -1.0092,0.99284 v 4.00391"
       transform="matrix(0.24,0,0,0.24,18.12,18.12)"
       id="path60"
       inkscape:connector-curvature="0" />
    <path
       style="fill:none;stroke:#e61e00;stroke-width:8.39999962;stroke-linecap:round;stroke-linejoin:round;stroke-miterlimit:10;stroke-opacity:1"
       d="M 1830.9941,661.00716 1702.9993,837"
       transform="matrix(0.24,0,0,0.24,18.12,18.12)"
       id="path62"
       inkscape:connector-curvature="0" />
    <path
       style="fill:none;stroke:#e61e00;stroke-width:8.39999962;stroke-linecap:round;stroke-linejoin:round;stroke-miterlimit:10;stroke-opacity:1"
       d="m 1741.0039,805.99414 -1.0091,1.00911 h -2.002 l -0.9928,0.99284 -0.9928,1.00912 h -2.002 l -1.0091,0.99284 -0.9928,1.00911 -2.002,0.99284 -1.0091,0.99284 h -0.9929 l -2.0019,1.00911 -4.0039,4.00391 -1.9857,0.99284 -2.0019,2.00195 -1.0092,0.99284 -0.9928,1.00911 -1.0091,0.99284 -2.002,1.00912 -0.9928,0.99284 -0.9928,1.00911 -1.0092,0.99284 -0.9928,0.99284 -1.0091,2.00195 -0.9928,1.00911 -1.0092,0.99284 -0.9928,1.00912 -1.0091,0.99284 -0.9929,2.00195 0.9929,-2.00195 1.0091,-0.99284 0.9928,-1.00912 1.0092,-2.00195 v -0.99284 l 0.9928,-1.00911 1.0091,-1.98568 0.9928,-1.00911 v -0.99284 l 1.0092,-2.00196 0.9928,-1.00911 v -1.98568 l 0.9928,-1.00911 1.0092,-0.99284 v -2.00195 l 0.9928,-1.00912 v -2.00195 L 1716.0039,812 v -2.00195 l 0.9928,-0.99284 v -1.00912 l 1.0092,-2.00195 v -2.99479 l 0.9928,-0.99284 v -3.01107 l 1.0091,-2.00195 v -2.99479 l 0.9929,-2.00195 v -0.99284"
       transform="matrix(0.24,0,0,0.24,18.12,18.12)"
       id="path64"
       inkscape:connector-curvature="0" />
    <path
       style="fill:none;stroke:#e61e00;stroke-width:1;stroke-linecap:round;stroke-linejoin:round;stroke-miterlimit:10;stroke-opacity:1"
       d="m 1741.0039,805.99414 -1.0091,1.00911 h -2.002 l -0.9928,0.99284 -0.9928,1.00912 h -2.002 l -1.0091,0.99284 -0.9928,1.00911 -2.002,0.99284 -1.0091,0.99284 h -0.9929 l -2.0019,1.00911 -4.0039,4.00391 -1.9857,0.99284 -2.0019,2.00195 -1.0092,0.99284 -0.9928,1.00911 -1.0091,0.99284 -2.002,1.00912 -0.9928,0.99284 -0.9928,1.00911 -1.0092,0.99284 -0.9928,0.99284 -1.0091,2.00195 -0.9928,1.00911 -1.0092,0.99284 -0.9928,1.00912 -1.0091,0.99284 -0.9929,2.00195 0.9929,-2.00195 1.0091,-0.99284 0.9928,-1.00912 1.0092,-2.00195 v -0.99284 l 0.9928,-1.00911 1.0091,-1.98568 0.9928,-1.00911 v -0.99284 l 1.0092,-2.00196 0.9928,-1.00911 v -1.98568 l 0.9928,-1.00911 1.0092,-0.99284 v -2.00195 l 0.9928,-1.00912 v -2.00195 L 1716.0039,812 v -2.00195 l 0.9928,-0.99284 v -1.00912 l 1.0092,-2.00195 v -2.99479 l 0.9928,-0.99284 v -3.01107 l 1.0091,-2.00195 v -2.99479 l 0.9929,-2.00195 v -0.99284"
       transform="matrix(0.24,0,0,0.24,18.12,18.12)"
       id="path66"
       inkscape:connector-curvature="0" />
    <path
       style="fill:none;stroke:#e61e00;stroke-width:8.39999962;stroke-linecap:round;stroke-linejoin:round;stroke-miterlimit:10;stroke-opacity:1"
       d="M 1475.9974,248.0026 V 64.994792"
       transform="matrix(0.24,0,0,0.24,18.12,18.12)"
       id="path68"
       inkscape:connector-curvature="0" />
    <path
       style="fill:none;stroke:#e61e00;stroke-width:8.39999962;stroke-linecap:round;stroke-linejoin:round;stroke-miterlimit:10;stroke-opacity:1"
       d="m 1464.002,112 0.9928,-0.99284 v -2.00195 l 2.0019,-2.00196 v -2.00195 l 1.0092,-1.00911 v -1.98568 l 0.9928,-1.00911 1.0091,-0.99284 v -2.001956 l 0.9929,-1.009114 v -1.985678 l 0.9928,-1.009114 v -2.001953 l 1.0091,-0.992839 v -3.011067 l 0.9928,-1.985678 v -3.011067 l 1.0092,-0.992839 V 77.00651 l 0.9928,-1.009114 v -11.002604 2.001953 l 1.0091,1.009114 v 9.000651 l 0.9928,1.985677 v 3.011068 l 0.9929,0.992839 v 3.011067 l 1.0091,1.985678 v 3.011067 l 0.9928,0.992839 v 2.001953 l 1.0092,1.009114 v 1.985678 l 0.9928,1.009114 v 2.001956 l 1.0091,0.99284 v 1.00911 l 0.9928,1.98568 1.0092,1.00911 v 2.00195 l 0.9928,0.99284 0.9928,1.00912 v 2.00195 L 1489.002,112"
       transform="matrix(0.24,0,0,0.24,18.12,18.12)"
       id="path70"
       inkscape:connector-curvature="0" />
    <path
       style="fill:none;stroke:#e61e00;stroke-width:1;stroke-linecap:round;stroke-linejoin:round;stroke-miterlimit:10;stroke-opacity:1"
       d="m 1464.002,112 0.9928,-0.99284 v -2.00195 l 2.0019,-2.00196 v -2.00195 l 1.0092,-1.00911 v -1.98568 l 0.9928,-1.00911 1.0091,-0.99284 v -2.001956 l 0.9929,-1.009114 v -1.985678 l 0.9928,-1.009114 v -2.001953 l 1.0091,-0.992839 v -3.011067 l 0.9928,-1.985678 v -3.011067 l 1.0092,-0.992839 V 77.00651 l 0.9928,-1.009114 v -11.002604 2.001953 l 1.0091,1.009114 v 9.000651 l 0.9928,1.985677 v 3.011068 l 0.9929,0.992839 v 3.011067 l 1.0091,1.985678 v 3.011067 l 0.9928,0.992839 v 2.001953 l 1.0092,1.009114 v 1.985678 l 0.9928,1.009114 v 2.001956 l 1.0091,0.99284 v 1.00911 l 0.9928,1.98568 1.0092,1.00911 v 2.00195 l 0.9928,0.99284 0.9928,1.00912 v 2.00195 L 1489.002,112"
       transform="matrix(0.24,0,0,0.24,18.12,18.12)"
       id="path72"
       inkscape:connector-curvature="0" />
    <path
       style="fill:none;stroke:#e61e00;stroke-width:8.39999962;stroke-linecap:round;stroke-linejoin:round;stroke-miterlimit:10;stroke-opacity:1"
       d="M 1475.9974,696.99349 V 839.00195"
       transform="matrix(0.24,0,0,0.24,18.12,18.12)"
       id="path74"
       inkscape:connector-curvature="0" />
    <path
       style="fill:none;stroke:#e61e00;stroke-width:8.39999962;stroke-linecap:round;stroke-linejoin:round;stroke-miterlimit:10;stroke-opacity:1"
       d="m 1489.002,791.00391 -1.0092,2.00195 v 0.99284 l -0.9928,2.00195 -0.9928,0.99284 v 1.00911 l -1.0092,2.00196 -0.9928,0.99284 v 2.00195 l -1.0091,0.99284 v 1.00911 l -0.9928,2.00195 v 0.99284 l -1.0092,2.00196 v 1.00911 l -0.9928,1.98568 v 3.01107 l -1.0091,0.99284 v 3.01106 l -0.9929,1.98568 v 3.01107 l -0.9928,0.99284 v 9.00065 L 1475.9974,837 v 2.00195 -11.0026 l -0.9928,-2.00195 v -4.00391 l -1.0092,-1.98568 v -3.01106 l -0.9928,-0.99284 v -3.01107 l -1.0091,-1.98568 v -1.00911 l -0.9928,-2.00196 v -0.99284 l -0.9929,-2.00195 v -1.00911 l -1.0091,-0.99284 -0.9928,-2.00195 v -0.99284 l -1.0092,-2.00196 v -1.00911 l -0.9928,-0.99284 -1.0091,-2.00195 v -0.99284 l -0.9928,-2.00195"
       transform="matrix(0.24,0,0,0.24,18.12,18.12)"
       id="path76"
       inkscape:connector-curvature="0" />
    <path
       style="fill:none;stroke:#e61e00;stroke-width:1;stroke-linecap:round;stroke-linejoin:round;stroke-miterlimit:10;stroke-opacity:1"
       d="m 1489.002,791.00391 -1.0092,2.00195 v 0.99284 l -0.9928,2.00195 -0.9928,0.99284 v 1.00911 l -1.0092,2.00196 -0.9928,0.99284 v 2.00195 l -1.0091,0.99284 v 1.00911 l -0.9928,2.00195 v 0.99284 l -1.0092,2.00196 v 1.00911 l -0.9928,1.98568 v 3.01107 l -1.0091,0.99284 v 3.01106 l -0.9929,1.98568 v 3.01107 l -0.9928,0.99284 v 9.00065 L 1475.9974,837 v 2.00195 -11.0026 l -0.9928,-2.00195 v -4.00391 l -1.0092,-1.98568 v -3.01106 l -0.9928,-0.99284 v -3.01107 l -1.0091,-1.98568 v -1.00911 l -0.9928,-2.00196 v -0.99284 l -0.9929,-2.00195 v -1.00911 l -1.0091,-0.99284 -0.9928,-2.00195 v -0.99284 l -1.0092,-2.00196 v -1.00911 l -0.9928,-0.99284 -1.0091,-2.00195 v -0.99284 l -0.9928,-2.00195"
       transform="matrix(0.24,0,0,0.24,18.12,18.12)"
       id="path78"
       inkscape:connector-curvature="0" />
    <path
       style="fill:none;stroke:#e61e00;stroke-width:8.39999962;stroke-linecap:round;stroke-linejoin:round;stroke-miterlimit:10;stroke-opacity:1"
       d="M 584.00521,827.99935 471.99349,661.00716"
       transform="matrix(0.24,0,0,0.24,18.12,18.12)"
       id="path80"
       inkscape:connector-curvature="0" />
    <path
       style="fill:none;stroke:#e61e00;stroke-width:8.39999962;stroke-linecap:round;stroke-linejoin:round;stroke-miterlimit:10;stroke-opacity:1"
       d="m 487.99284,707.99609 v -4.99674 L 487,702.00651 v -5.01302 l -0.99284,-1.98568 v -3.01106 l -1.00911,-0.99284 v -3.01107 L 484.00521,687 v -2.00195 l -1.00912,-0.99284 v -2.00196 l -0.99283,-1.00911 v -2.00195 l -1.00912,-0.99284 -0.99284,-2.00195 v -0.99284 l -1.00911,-1.00912 v -2.00195 l -1.98568,-1.98568 -1.00911,-2.00195 v -1.00911 l -0.99284,-2.00196 -1.00912,-0.99284 -0.99284,-1.00911 -1.00911,-1.98568 1.00911,1.98568 0.99284,1.00911 1.00912,0.99284 0.99284,1.00912 1.00911,2.00195 0.99284,0.99284 0.99284,1.00911 1.00911,0.99284 2.00196,2.00195 0.99283,2.00196 1.00912,0.99284 2.00195,1.00911 5.98958,5.98958 2.00196,1.00912 1.00911,0.99284 0.99284,1.00911 h 0.99284 l 2.00195,0.99284 1.00912,0.99284 0.99284,1.00911 1.00911,0.99284 1.98568,1.00912 h 1.00911 l 0.99284,0.99284 2.00195,1.00911 1.00912,0.99284"
       transform="matrix(0.24,0,0,0.24,18.12,18.12)"
       id="path82"
       inkscape:connector-curvature="0" />
    <path
       style="fill:none;stroke:#e61e00;stroke-width:1;stroke-linecap:round;stroke-linejoin:round;stroke-miterlimit:10;stroke-opacity:1"
       d="m 487.99284,707.99609 v -4.99674 L 487,702.00651 v -5.01302 l -0.99284,-1.98568 v -3.01106 l -1.00911,-0.99284 v -3.01107 L 484.00521,687 v -2.00195 l -1.00912,-0.99284 v -2.00196 l -0.99283,-1.00911 v -2.00195 l -1.00912,-0.99284 -0.99284,-2.00195 v -0.99284 l -1.00911,-1.00912 v -2.00195 l -1.98568,-1.98568 -1.00911,-2.00195 v -1.00911 l -0.99284,-2.00196 -1.00912,-0.99284 -0.99284,-1.00911 -1.00911,-1.98568 1.00911,1.98568 0.99284,1.00911 1.00912,0.99284 0.99284,1.00912 1.00911,2.00195 0.99284,0.99284 0.99284,1.00911 1.00911,0.99284 2.00196,2.00195 0.99283,2.00196 1.00912,0.99284 2.00195,1.00911 5.98958,5.98958 2.00196,1.00912 1.00911,0.99284 0.99284,1.00911 h 0.99284 l 2.00195,0.99284 1.00912,0.99284 0.99284,1.00911 1.00911,0.99284 1.98568,1.00912 h 1.00911 l 0.99284,0.99284 2.00195,1.00911 1.00912,0.99284"
       transform="matrix(0.24,0,0,0.24,18.12,18.12)"
       id="path84"
       inkscape:connector-curvature="0" />
    <path
       style="fill:none;stroke:#e61e00;stroke-width:8.39999962;stroke-linecap:round;stroke-linejoin:round;stroke-miterlimit:10;stroke-opacity:1"
       d="m 125.00456,139.99479 111.0026,167.00847"
       transform="matrix(0.24,0,0,0.24,18.12,18.12)"
       id="path86"
       inkscape:connector-curvature="0" />
    <path
       style="fill:none;stroke:#e61e00;stroke-width:8.39999962;stroke-linecap:round;stroke-linejoin:round;stroke-miterlimit:10;stroke-opacity:1"
       d="m 221.00065,261.00716 v 5.98958 l 0.99284,1.00912 v 4.99674 l 1.00911,2.00196 v 2.99479 l 0.99284,0.99284 v 1.00911 l 1.00912,2.00196 v 0.99283 l 0.99284,2.00196 v 1.00911 l 1.00911,1.98568 v 1.00911 l 0.99284,2.00196 v 0.99283 l 0.99284,1.00912 1.00911,2.00195 v 0.99284 l 0.99284,2.00195 1.00911,0.99284 v 1.00912 l 0.99284,2.00195 1.00912,0.99284 0.99284,0.99284 v 2.00195 l 1.00911,1.00912 -2.00195,-2.00196 -1.00912,-2.00195 v -0.99284 l -0.99284,-1.00911 -1.00911,-0.99284 -0.99284,-1.00912 -1.00911,-2.00195 -0.99284,-0.99284 -2.00195,-0.99284 -0.99284,-1.00911 -1.00912,-0.99284 -0.99284,-1.00912 -1.00911,-0.99283 -0.99284,-1.00912 -2.99479,-2.99479 -2.00195,-0.99284 -3.01107,-3.01107 -1.98568,-0.99283 -2.00195,-2.00196 h -1.00912 l -2.00195,-1.00911 -0.99284,-0.99284 -1.00911,-0.99284 -1.98568,-1.00911 h -1.00911 l -0.99284,-0.99284"
       transform="matrix(0.24,0,0,0.24,18.12,18.12)"
       id="path88"
       inkscape:connector-curvature="0" />
    <path
       style="fill:none;stroke:#e61e00;stroke-width:1;stroke-linecap:round;stroke-linejoin:round;stroke-miterlimit:10;stroke-opacity:1"
       d="m 221.00065,261.00716 v 5.98958 l 0.99284,1.00912 v 4.99674 l 1.00911,2.00196 v 2.99479 l 0.99284,0.99284 v 1.00911 l 1.00912,2.00196 v 0.99283 l 0.99284,2.00196 v 1.00911 l 1.00911,1.98568 v 1.00911 l 0.99284,2.00196 v 0.99283 l 0.99284,1.00912 1.00911,2.00195 v 0.99284 l 0.99284,2.00195 1.00911,0.99284 v 1.00912 l 0.99284,2.00195 1.00912,0.99284 0.99284,0.99284 v 2.00195 l 1.00911,1.00912 -2.00195,-2.00196 -1.00912,-2.00195 v -0.99284 l -0.99284,-1.00911 -1.00911,-0.99284 -0.99284,-1.00912 -1.00911,-2.00195 -0.99284,-0.99284 -2.00195,-0.99284 -0.99284,-1.00911 -1.00912,-0.99284 -0.99284,-1.00912 -1.00911,-0.99283 -0.99284,-1.00912 -2.99479,-2.99479 -2.00195,-0.99284 -3.01107,-3.01107 -1.98568,-0.99283 -2.00195,-2.00196 h -1.00912 l -2.00195,-1.00911 -0.99284,-0.99284 -1.00911,-0.99284 -1.98568,-1.00911 h -1.00911 l -0.99284,-0.99284"
       transform="matrix(0.24,0,0,0.24,18.12,18.12)"
       id="path90"
       inkscape:connector-curvature="0" />
    <path
       style="fill:#e3e3e3;fill-opacity:1;fill-rule:nonzero;stroke:none"
       d="m 273.23828,120.12109 c 0,-15.64062 -12.67578,-28.320309 -28.31641,-28.320309 -15.64062,0 -28.32031,12.679689 -28.32031,28.320309 0,15.64063 12.67969,28.32032 28.32031,28.32032 15.64063,0 28.31641,-12.67969 28.31641,-28.32032"
       id="path92"
       inkscape:connector-curvature="0" />
    <path
       style="fill:none;stroke:#000000;stroke-width:4.19999981;stroke-linecap:butt;stroke-linejoin:round;stroke-miterlimit:10;stroke-opacity:1"
       d="m 1062.9928,425.00456 c 0,-65.16927 -52.8157,-118.0013 -117.98499,-118.0013 -65.18554,0 -118.0013,52.83203 -118.0013,118.0013 0,65.16927 52.81576,118.0013 118.0013,118.0013 65.16929,0 117.98499,-52.83203 117.98499,-118.0013"
       transform="matrix(0.24,0,0,0.24,18.12,18.12)"
       id="path94"
       inkscape:connector-curvature="0" />
    <path
       style="fill:none;stroke:#e61e00;stroke-width:8.39999962;stroke-linecap:round;stroke-linejoin:round;stroke-miterlimit:10;stroke-opacity:1"
       d="M 945.00781,130.0013 V 307.00326"
       transform="matrix(0.24,0,0,0.24,18.12,18.12)"
       id="path96"
       inkscape:connector-curvature="0" />
    <path
       style="fill:none;stroke:#e61e00;stroke-width:8.39999962;stroke-linecap:round;stroke-linejoin:round;stroke-miterlimit:10;stroke-opacity:1"
       d="m 957.99609,259.99805 -0.99284,1.00911 -1.00911,1.98568 -0.99284,1.00911 v 0.99284 l -1.00911,2.00195 -0.99284,1.00912 v 2.00195 l -0.99284,0.99284 v 2.00195 l -1.00911,0.99284 v 1.00912 l -0.99284,2.00195 v 0.99284 l -1.00912,2.00195 v 0.99284 l -0.99284,2.00195 v 3.01107 L 946.99349,287 v 2.99479 l -0.99284,2.00195 v 6.00586 l -0.99284,0.99284 v 8.00782 -6.00586 l -1.00911,-2.00196 v -5.98958 l -0.99284,-1.00912 V 287 l -1.00911,-0.99284 v -2.00195 l -0.99284,-1.00912 v -2.99479 l -1.00912,-2.00195 v -0.99284 l -0.99284,-2.00195 v -1.00912 l -1.00911,-0.99284 v -2.00195 L 937,270.00781 l -0.99284,-2.00195 v -1.00912 l -1.00911,-2.00195 -0.99284,-0.99284 v -1.00911 l -1.00912,-1.98568 -0.99284,-1.00911"
       transform="matrix(0.24,0,0,0.24,18.12,18.12)"
       id="path98"
       inkscape:connector-curvature="0" />
    <path
       style="fill:none;stroke:#e61e00;stroke-width:1;stroke-linecap:round;stroke-linejoin:round;stroke-miterlimit:10;stroke-opacity:1"
       d="m 957.99609,259.99805 -0.99284,1.00911 -1.00911,1.98568 -0.99284,1.00911 v 0.99284 l -1.00911,2.00195 -0.99284,1.00912 v 2.00195 l -0.99284,0.99284 v 2.00195 l -1.00911,0.99284 v 1.00912 l -0.99284,2.00195 v 0.99284 l -1.00912,2.00195 v 0.99284 l -0.99284,2.00195 v 3.01107 L 946.99349,287 v 2.99479 l -0.99284,2.00195 v 6.00586 l -0.99284,0.99284 v 8.00782 -6.00586 l -1.00911,-2.00196 v -5.98958 l -0.99284,-1.00912 V 287 l -1.00911,-0.99284 v -2.00195 l -0.99284,-1.00912 v -2.99479 l -1.00912,-2.00195 v -0.99284 l -0.99284,-2.00195 v -1.00912 l -1.00911,-0.99284 v -2.00195 L 937,270.00781 l -0.99284,-2.00195 v -1.00912 l -1.00911,-2.00195 -0.99284,-0.99284 v -1.00911 l -1.00912,-1.98568 -0.99284,-1.00911"
       transform="matrix(0.24,0,0,0.24,18.12,18.12)"
       id="path100"
       inkscape:connector-curvature="0" />
    <path
       style="fill:none;stroke:#e61e00;stroke-width:8.39999962;stroke-linecap:round;stroke-linejoin:round;stroke-miterlimit:10;stroke-opacity:1"
       d="M 945.00781,720.00781 V 543.00586"
       transform="matrix(0.24,0,0,0.24,18.12,18.12)"
       id="path102"
       inkscape:connector-curvature="0" />
    <path
       style="fill:none;stroke:#e61e00;stroke-width:8.39999962;stroke-linecap:round;stroke-linejoin:round;stroke-miterlimit:10;stroke-opacity:1"
       d="m 932.00325,591.00391 0.99284,-2.00196 1.00912,-1.00911 v -1.98568 l 0.99284,-1.00911 1.00911,-0.99284 v -2.00196 L 937,580.99414 l 0.99284,-2.00195 v -0.99284 l 1.00911,-2.00195 v -0.99284 l 0.99284,-1.00912 v -2.00195 l 1.00912,-0.99284 v -2.99479 l 0.99284,-2.00195 v -1.00912 l 1.00911,-2.00195 v -3.98763 l 0.99284,-2.00196 v -6.00585 l 1.00911,-0.99284 v -6.9987 7.99154 l 0.99284,2.00195 v 6.00586 l 0.99284,0.99284 v 2.99479 l 1.00911,2.00195 v 3.01107 l 0.99284,0.99284 v 2.00195 l 1.00912,0.99284 v 2.00195 l 0.99284,1.00912 v 0.99284 l 1.00911,2.00195 v 0.99284 l 0.99284,2.00195 v 1.00911 l 0.99284,2.00196 1.00911,0.99284 v 1.00911 l 0.99284,1.98568 1.00911,1.00911 0.99284,2.00196"
       transform="matrix(0.24,0,0,0.24,18.12,18.12)"
       id="path104"
       inkscape:connector-curvature="0" />
    <path
       style="fill:none;stroke:#e61e00;stroke-width:1;stroke-linecap:round;stroke-linejoin:round;stroke-miterlimit:10;stroke-opacity:1"
       d="m 932.00325,591.00391 0.99284,-2.00196 1.00912,-1.00911 v -1.98568 l 0.99284,-1.00911 1.00911,-0.99284 v -2.00196 L 937,580.99414 l 0.99284,-2.00195 v -0.99284 l 1.00911,-2.00195 v -0.99284 l 0.99284,-1.00912 v -2.00195 l 1.00912,-0.99284 v -2.99479 l 0.99284,-2.00195 v -1.00912 l 1.00911,-2.00195 v -3.98763 l 0.99284,-2.00196 v -6.00585 l 1.00911,-0.99284 v -6.9987 7.99154 l 0.99284,2.00195 v 6.00586 l 0.99284,0.99284 v 2.99479 l 1.00911,2.00195 v 3.01107 l 0.99284,0.99284 v 2.00195 l 1.00912,0.99284 v 2.00195 l 0.99284,1.00912 v 0.99284 l 1.00911,2.00195 v 0.99284 l 0.99284,2.00195 v 1.00911 l 0.99284,2.00196 1.00911,0.99284 v 1.00911 l 0.99284,1.98568 1.00911,1.00911 0.99284,2.00196"
       transform="matrix(0.24,0,0,0.24,18.12,18.12)"
       id="path106"
       inkscape:connector-curvature="0" />
    <path
       style="fill:#000000;fill-opacity:1;fill-rule:nonzero;stroke:#000000;stroke-width:0.60000002;stroke-linecap:butt;stroke-linejoin:round;stroke-miterlimit:10;stroke-opacity:1"
       d="m 953.99219,307.50781 c 0,-5.25716 -4.24805,-9.50521 -9.48894,-9.50521 -5.25716,0 -9.5052,4.24805 -9.5052,9.50521 0,5.24089 4.24804,9.48893 9.5052,9.48893 5.24089,0 9.48894,-4.24804 9.48894,-9.48893"
       transform="matrix(0.24,0,0,0.24,18.12,18.12)"
       id="path108"
       inkscape:connector-curvature="0" />
    <path
       style="fill:#000000;fill-opacity:1;fill-rule:nonzero;stroke:#000000;stroke-width:0.60000002;stroke-linecap:butt;stroke-linejoin:round;stroke-miterlimit:10;stroke-opacity:1"
       d="m 953.99219,543.49414 c 0,-5.24089 -4.24805,-9.48893 -9.48894,-9.48893 -5.25716,0 -9.5052,4.24804 -9.5052,9.48893 0,5.25716 4.24804,9.50521 9.5052,9.50521 5.24089,0 9.48894,-4.24805 9.48894,-9.50521"
       transform="matrix(0.24,0,0,0.24,18.12,18.12)"
       id="path110"
       inkscape:connector-curvature="0" />
    <path
       style="fill:#000000;fill-opacity:1;fill-rule:nonzero;stroke:#000000;stroke-width:0.60000002;stroke-linecap:butt;stroke-linejoin:round;stroke-miterlimit:10;stroke-opacity:1"
       d="m 1486.0072,248.0026 c 0,-4.98047 -4.2644,-9.00065 -9.5052,-9.00065 -5.2409,0 -9.5053,4.02018 -9.5053,9.00065 0,4.9642 4.2644,9.00066 9.5053,9.00066 5.2408,0 9.5052,-4.03646 9.5052,-9.00066"
       transform="matrix(0.24,0,0,0.24,18.12,18.12)"
       id="path112"
       inkscape:connector-curvature="0" />
    <path
       style="fill:#000000;fill-opacity:1;fill-rule:nonzero;stroke:#000000;stroke-width:0.60000002;stroke-linecap:butt;stroke-linejoin:round;stroke-miterlimit:10;stroke-opacity:1"
       d="m 1486.0072,696.50521 c 0,-5.25716 -4.2644,-9.50521 -9.5052,-9.50521 -5.2409,0 -9.5053,4.24805 -9.5053,9.50521 0,5.24088 4.2644,9.48893 9.5053,9.48893 5.2408,0 9.5052,-4.24805 9.5052,-9.48893"
       transform="matrix(0.24,0,0,0.24,18.12,18.12)"
       id="path114"
       inkscape:connector-curvature="0" />
  </g>
</svg>
