<?xml version="1.0" encoding="UTF-8" standalone="no"?>
<!-- Created with Inkscape (http://www.inkscape.org/) -->

<svg
   xmlns:dc="http://purl.org/dc/elements/1.1/"
   xmlns:cc="http://creativecommons.org/ns#"
   xmlns:rdf="http://www.w3.org/1999/02/22-rdf-syntax-ns#"
   xmlns:svg="http://www.w3.org/2000/svg"
   xmlns="http://www.w3.org/2000/svg"
   xmlns:sodipodi="http://sodipodi.sourceforge.net/DTD/sodipodi-0.dtd"
   xmlns:inkscape="http://www.inkscape.org/namespaces/inkscape"
   version="1.1"
   id="svg2"
   xml:space="preserve"
   width="3.860157in"
   height="3.9426448in"
   viewBox="0 0 370.57507 378.4939"
   sodipodi:docname="WF.svg"
   inkscape:version="0.92.2 5c3e80d, 2017-08-06"><metadata
     id="metadata8"><rdf:RDF><cc:Work
         rdf:about=""><dc:format>image/svg+xml</dc:format><dc:type
           rdf:resource="http://purl.org/dc/dcmitype/StillImage" /><dc:title></dc:title></cc:Work></rdf:RDF></metadata><defs
     id="defs6"><clipPath
       clipPathUnits="userSpaceOnUse"
       id="clipPath20"><path
         d="M 18,40.08 H 594 V 774 H 18 Z"
         id="path18"
         inkscape:connector-curvature="0" /></clipPath><clipPath
       clipPathUnits="userSpaceOnUse"
       id="clipPath156"><path
         d="m 43.008,623.2243 h 9 v 12.92571 h -9 z"
         id="path154"
         inkscape:connector-curvature="0" /></clipPath><clipPath
       clipPathUnits="userSpaceOnUse"
       id="clipPath168"><path
         d="m 40,622 h 14 v 15 H 40 Z"
         id="path166"
         inkscape:connector-curvature="0" /></clipPath><clipPath
       clipPathUnits="userSpaceOnUse"
       id="clipPath178"><path
         d="M 18,40.08 H 594 V 774 H 18 Z"
         id="path176"
         inkscape:connector-curvature="0" /></clipPath><clipPath
       clipPathUnits="userSpaceOnUse"
       id="clipPath188"><path
         d="M 180.024,695.2252 H 197 v 14.77478 h -16.976 z"
         id="path186"
         inkscape:connector-curvature="0" /></clipPath><clipPath
       clipPathUnits="userSpaceOnUse"
       id="clipPath202"><path
         d="m 178,693 h 19 v 17 h -19 z"
         id="path200"
         inkscape:connector-curvature="0" /></clipPath><clipPath
       clipPathUnits="userSpaceOnUse"
       id="clipPath212"><path
         d="M 18,40.08 H 594 V 774 H 18 Z"
         id="path210"
         inkscape:connector-curvature="0" /></clipPath><clipPath
       clipPathUnits="userSpaceOnUse"
       id="clipPath222"><path
         d="m 285.3682,729.648 h 14.63184 v 18 H 285.3682 Z"
         id="path220"
         inkscape:connector-curvature="0" /></clipPath><clipPath
       clipPathUnits="userSpaceOnUse"
       id="clipPath236"><path
         d="m 283,728 h 17 v 20 h -17 z"
         id="path234"
         inkscape:connector-curvature="0" /></clipPath><clipPath
       clipPathUnits="userSpaceOnUse"
       id="clipPath246"><path
         d="M 18,40.08 H 594 V 774 H 18 Z"
         id="path244"
         inkscape:connector-curvature="0" /></clipPath><clipPath
       clipPathUnits="userSpaceOnUse"
       id="clipPath256"><path
         d="m 154.4138,490.8532 h 14.85 v 19.152 h -14.85 z"
         id="path254"
         inkscape:connector-curvature="0" /></clipPath><clipPath
       clipPathUnits="userSpaceOnUse"
       id="clipPath270"><path
         d="m 154,490 h 17 v 21 h -17 z"
         id="path268"
         inkscape:connector-curvature="0" /></clipPath><clipPath
       clipPathUnits="userSpaceOnUse"
       id="clipPath280"><path
         d="M 18,40.08 H 594 V 774 H 18 Z"
         id="path278"
         inkscape:connector-curvature="0" /></clipPath></defs><sodipodi:namedview
     pagecolor="#ffffff"
     bordercolor="#666666"
     borderopacity="1"
     objecttolerance="10"
     gridtolerance="10"
     guidetolerance="10"
     inkscape:pageopacity="0"
     inkscape:pageshadow="2"
     inkscape:window-width="1363"
     inkscape:window-height="760"
     id="namedview4"
     showgrid="false"
     inkscape:zoom="1.5403154"
     inkscape:cx="185.28754"
     inkscape:cy="189.24693"
     inkscape:window-x="816"
     inkscape:window-y="0"
     inkscape:window-maximized="0"
     inkscape:current-layer="g10"
     showguides="false"
     units="in" /><g
     id="g10"
     inkscape:groupmode="layer"
     inkscape:label="WFo"
     transform="matrix(1.3333333,0,0,-1.3333333,-54.479999,1032.1739)"><g
       id="g12" /><g
       clip-path="url(#clipPath20)"
       id="g16"><path
         inkscape:connector-curvature="0"
         id="path22"
         style="fill:#e4e4e4;fill-opacity:1;fill-rule:nonzero;stroke:none"
         d="m 68.016,513.8268 v 13.392 h 78.6528 c 6.2669,0 11.3472,5.0803 11.3472,11.3472 v 91.3248 0 91.3248 c 0,6.2669 -5.0803,11.3472 -11.3472,11.3472 H 68.016 v 0 13.392 h 188.208 v -13.392 h -78.6528 c -6.2669,0 -11.3472,-5.0803 -11.3472,-11.3472 v -91.3248 0 -91.3248 c 0,-6.2669 5.0803,-11.3472 11.3472,-11.3472 h 78.6528 v 0 -13.392 z" /><g
         transform="matrix(0.24,0,0,-0.24,18.12,773.88)"
         id="g24"><path
           inkscape:connector-curvature="0"
           id="path26"
           style="fill:none;stroke:#000000;stroke-width:4.19999981;stroke-linecap:round;stroke-linejoin:round;stroke-miterlimit:10;stroke-dasharray:none;stroke-opacity:1"
           d="m 207.9,1083.555 v -55.8 h 327.72 c 26.112,0 47.28,-21.168 47.28,-47.2799 v -380.52 0 -380.52 c 0,-26.112 -21.168,-47.28 -47.28,-47.28 H 207.9 v 0 -55.8 h 784.2 v 55.8 H 664.38 c -26.112,0 -47.28,21.168 -47.28,47.28 v 380.52 0 380.52 c 0,26.1119 21.168,47.2799 47.28,47.2799 H 992.1 v 0 55.8 H 207.9" /></g><g
         transform="matrix(0.24,0,0,-0.24,18.12,773.88)"
         id="g28"><path
           inkscape:connector-curvature="0"
           id="path30"
           style="fill:none;stroke:#000000;stroke-width:2.0999999;stroke-linecap:round;stroke-linejoin:round;stroke-miterlimit:10;stroke-dasharray:none;stroke-opacity:1"
           d="m 1004,116 h 100" /></g><g
         transform="matrix(0.24,0,0,-0.24,18.12,773.88)"
         id="g32"><path
           inkscape:connector-curvature="0"
           id="path34"
           style="fill:none;stroke:#000000;stroke-width:2.0999999;stroke-linecap:round;stroke-linejoin:round;stroke-miterlimit:10;stroke-dasharray:none;stroke-opacity:1"
           d="m 1004,172 h 100" /></g><g
         transform="matrix(0.24,0,0,-0.24,18.12,773.88)"
         id="g36"><path
           inkscape:connector-curvature="0"
           id="path38"
           style="fill:none;stroke:#000000;stroke-width:2.0999999;stroke-linecap:round;stroke-linejoin:round;stroke-miterlimit:10;stroke-dasharray:none;stroke-opacity:1"
           d="M 1080,116 V 81" /></g><g
         transform="matrix(0.24,0,0,-0.24,18.12,773.88)"
         id="g40"><path
           inkscape:connector-curvature="0"
           id="path42"
           style="fill:none;stroke:#000000;stroke-width:2.0999999;stroke-linecap:round;stroke-linejoin:round;stroke-miterlimit:10;stroke-dasharray:none;stroke-opacity:1"
           d="m 1086,93 v 0 1 l -1,1 v 1 0 l -1,1 v 1 0 l -1,1 v 1 1 0 l -1,1 v 1 0 1 1 l -1,1 v 0 1 1 1 0 1 l -1,1 v 1 0 1 1 1 1 0 0 -1 -1 -1 -1 0 -1 l -1,-1 v -1 0 -1 -1 -1 0 l -1,-1 v -1 -1 0 -1 l -1,-1 v 0 -1 -1 l -1,-1 v 0 -1 l -1,-1 v 0 -1 l -1,-1 v -1 0 0" /></g><g
         transform="matrix(0.24,0,0,-0.24,18.12,773.88)"
         id="g44"><path
           inkscape:connector-curvature="0"
           id="path46"
           style="fill:none;stroke:#000000;stroke-width:1;stroke-linecap:round;stroke-linejoin:round;stroke-miterlimit:10;stroke-dasharray:none;stroke-opacity:1"
           d="m 1086,93 v 0 1 l -1,1 v 1 0 l -1,1 v 1 0 l -1,1 v 1 1 0 l -1,1 v 1 0 1 1 l -1,1 v 0 1 1 1 0 1 l -1,1 v 1 0 1 1 1 1 0 0 -1 -1 -1 -1 0 -1 l -1,-1 v -1 0 -1 -1 -1 0 l -1,-1 v -1 -1 0 -1 l -1,-1 v 0 -1 -1 l -1,-1 v 0 -1 l -1,-1 v 0 -1 l -1,-1 v -1 0 0" /></g><g
         transform="matrix(0.24,0,0,-0.24,18.12,773.88)"
         id="g48"><path
           inkscape:connector-curvature="0"
           id="path50"
           style="fill:none;stroke:#000000;stroke-width:2.0999999;stroke-linecap:round;stroke-linejoin:round;stroke-miterlimit:10;stroke-dasharray:none;stroke-opacity:1"
           d="m 1080,172 v 36" /></g><g
         transform="matrix(0.24,0,0,-0.24,18.12,773.88)"
         id="g52"><path
           inkscape:connector-curvature="0"
           id="path54"
           style="fill:none;stroke:#000000;stroke-width:2.0999999;stroke-linecap:round;stroke-linejoin:round;stroke-miterlimit:10;stroke-dasharray:none;stroke-opacity:1"
           d="m 1074,196 v -1 -1 h 1 v -1 -1 h 1 v -1 -1 l 1,-1 v 0 -1 -1 h 1 v -1 -1 -1 0 l 1,-1 v -1 -1 0 -1 -1 -1 h 1 v -1 -1 -1 -1 0 -1 -1 1 1 0 1 1 1 1 h 1 v 1 1 1 0 1 1 l 1,1 v 0 1 1 1 h 1 v 1 1 0 l 1,1 v 1 1 h 1 v 1 1 h 1 v 1 1 0" /></g><g
         transform="matrix(0.24,0,0,-0.24,18.12,773.88)"
         id="g56"><path
           inkscape:connector-curvature="0"
           id="path58"
           style="fill:none;stroke:#000000;stroke-width:1;stroke-linecap:round;stroke-linejoin:round;stroke-miterlimit:10;stroke-dasharray:none;stroke-opacity:1"
           d="m 1074,196 v -1 -1 h 1 v -1 -1 h 1 v -1 -1 l 1,-1 v 0 -1 -1 h 1 v -1 -1 -1 0 l 1,-1 v -1 -1 0 -1 -1 -1 h 1 v -1 -1 -1 -1 0 -1 -1 1 1 0 1 1 1 1 h 1 v 1 1 1 0 1 1 l 1,1 v 0 1 1 1 h 1 v 1 1 0 l 1,1 v 1 1 h 1 v 1 1 h 1 v 1 1 0" /></g><g
         transform="matrix(0.24,0,0,-0.24,18.12,773.88)"
         id="g60"><path
           inkscape:connector-curvature="0"
           id="path62"
           style="fill:none;stroke:#000000;stroke-width:2.0999999;stroke-linecap:round;stroke-linejoin:round;stroke-miterlimit:10;stroke-dasharray:none;stroke-opacity:1"
           d="M 583,288 V 276" /></g><g
         transform="matrix(0.24,0,0,-0.24,18.12,773.88)"
         id="g68"><path
           inkscape:connector-curvature="0"
           id="path70"
           style="fill:none;stroke:#000000;stroke-width:2.0999999;stroke-linecap:round;stroke-linejoin:round;stroke-miterlimit:10;stroke-dasharray:none;stroke-opacity:1"
           d="M 583,300 H 547" /></g><g
         transform="matrix(0.24,0,0,-0.24,18.12,773.88)"
         id="g72"><path
           inkscape:connector-curvature="0"
           id="path74"
           style="fill:none;stroke:#000000;stroke-width:2.0999999;stroke-linecap:round;stroke-linejoin:round;stroke-miterlimit:10;stroke-dasharray:none;stroke-opacity:1"
           d="m 559,294 h 1 1 v 1 h 1 1 v 1 h 1 1 l 1,1 v 0 h 1 1 l 1,1 v 0 h 1 1 v 0 l 1,1 h 1 1 v 0 h 1 1 1 v 1 h 1 1 1 1 v 0 h 1 1 -1 -1 v 0 h -1 -1 -1 -1 v 0 l -1,1 h -1 -1 v 0 h -1 -1 l -1,1 v 0 h -1 -1 v 0 l -1,1 h -1 -1 v 0 l -1,1 h -1 -1 v 1 h -1 -1 v 1 h -1 -1 v 0" /></g><g
         transform="matrix(0.24,0,0,-0.24,18.12,773.88)"
         id="g76"><path
           inkscape:connector-curvature="0"
           id="path78"
           style="fill:none;stroke:#000000;stroke-width:1;stroke-linecap:round;stroke-linejoin:round;stroke-miterlimit:10;stroke-dasharray:none;stroke-opacity:1"
           d="m 559,294 h 1 1 v 1 h 1 1 v 1 h 1 1 l 1,1 v 0 h 1 1 l 1,1 v 0 h 1 1 v 0 l 1,1 h 1 1 v 0 h 1 1 1 v 1 h 1 1 1 1 v 0 h 1 1 -1 -1 v 0 h -1 -1 -1 -1 v 0 l -1,1 h -1 -1 v 0 h -1 -1 l -1,1 v 0 h -1 -1 v 0 l -1,1 h -1 -1 v 0 l -1,1 h -1 -1 v 1 h -1 -1 v 1 h -1 -1 v 0" /></g><g
         transform="matrix(0.24,0,0,-0.24,18.12,773.88)"
         id="g80"><path
           inkscape:connector-curvature="0"
           id="path82"
           style="fill:none;stroke:#000000;stroke-width:2.0999999;stroke-linecap:round;stroke-linejoin:round;stroke-miterlimit:10;stroke-dasharray:none;stroke-opacity:1"
           d="m 617,300 h 36" /></g><g
         transform="matrix(0.24,0,0,-0.24,18.12,773.88)"
         id="g84"><path
           inkscape:connector-curvature="0"
           id="path86"
           style="fill:none;stroke:#000000;stroke-width:2.0999999;stroke-linecap:round;stroke-linejoin:round;stroke-miterlimit:10;stroke-dasharray:none;stroke-opacity:1"
           d="m 641,306 h -1 -1 v -1 h -1 -1 v -1 h -1 -1 l -1,-1 v 0 h -1 -1 l -1,-1 v 0 h -1 -1 v 0 l -1,-1 h -1 -1 v 0 h -1 -1 l -1,-1 v 0 h -1 -1 -1 -1 v 0 h -1 -1 1 1 v 0 h 1 1 1 1 v -1 h 1 1 1 v 0 h 1 1 l 1,-1 v 0 h 1 1 v 0 l 1,-1 h 1 1 v 0 l 1,-1 h 1 1 v -1 h 1 1 v -1 h 1 1 v 0" /></g><g
         transform="matrix(0.24,0,0,-0.24,18.12,773.88)"
         id="g92"><path
           inkscape:connector-curvature="0"
           id="path94"
           style="fill:none;stroke:#000000;stroke-width:2.0999999;stroke-linecap:round;stroke-linejoin:round;stroke-miterlimit:10;stroke-dasharray:none;stroke-opacity:1"
           d="m 208,1095 v 69" /></g><g
         transform="matrix(0.24,0,0,-0.24,18.12,773.88)"
         id="g96"><path
           inkscape:connector-curvature="0"
           id="path98"
           style="fill:none;stroke:#000000;stroke-width:2.0999999;stroke-linecap:round;stroke-linejoin:round;stroke-miterlimit:10;stroke-dasharray:none;stroke-opacity:1"
           d="m 992,1095 v 69" /></g><g
         transform="matrix(0.24,0,0,-0.24,18.12,773.88)"
         id="g100"><path
           inkscape:connector-curvature="0"
           id="path102"
           style="fill:none;stroke:#000000;stroke-width:2.0999999;stroke-linecap:round;stroke-linejoin:round;stroke-miterlimit:10;stroke-dasharray:none;stroke-opacity:1"
           d="M 208,1140 H 992" /></g><g
         transform="matrix(0.24,0,0,-0.24,18.12,773.88)"
         id="g104"><path
           inkscape:connector-curvature="0"
           id="path106"
           style="fill:none;stroke:#000000;stroke-width:2.0999999;stroke-linecap:round;stroke-linejoin:round;stroke-miterlimit:10;stroke-dasharray:none;stroke-opacity:1"
           d="m 232,1146 h -1 -1 l -1,-1 v 0 h -1 l -1,-1 v 0 h -1 l -1,-1 h -1 v 0 h -1 l -1,-1 v 0 h -1 -1 -1 v -1 h -1 -1 -1 v 0 h -1 l -1,-1 h -1 v 0 h -1 -1 -1 -1 v 0 h -1 1 v 0 h 1 1 1 1 v 0 l 1,-1 h 1 1 v 0 h 1 1 1 v -1 h 1 1 1 v 0 l 1,-1 h 1 v 0 h 1 l 1,-1 h 1 v 0 l 1,-1 h 1 v 0 l 1,-1 h 1 1 v 0" /></g><g
         transform="matrix(0.24,0,0,-0.24,18.12,773.88)"
         id="g108"><path
           inkscape:connector-curvature="0"
           id="path110"
           style="fill:none;stroke:#000000;stroke-width:1;stroke-linecap:round;stroke-linejoin:round;stroke-miterlimit:10;stroke-dasharray:none;stroke-opacity:1"
           d="m 232,1146 h -1 -1 l -1,-1 v 0 h -1 l -1,-1 v 0 h -1 l -1,-1 h -1 v 0 h -1 l -1,-1 v 0 h -1 -1 -1 v -1 h -1 -1 -1 v 0 h -1 l -1,-1 h -1 v 0 h -1 -1 -1 -1 v 0 h -1 1 v 0 h 1 1 1 1 v 0 l 1,-1 h 1 1 v 0 h 1 1 1 v -1 h 1 1 1 v 0 l 1,-1 h 1 v 0 h 1 l 1,-1 h 1 v 0 l 1,-1 h 1 v 0 l 1,-1 h 1 1 v 0" /></g><g
         transform="matrix(0.24,0,0,-0.24,18.12,773.88)"
         id="g112"><path
           inkscape:connector-curvature="0"
           id="path114"
           style="fill:none;stroke:#000000;stroke-width:2.0999999;stroke-linecap:round;stroke-linejoin:round;stroke-miterlimit:10;stroke-dasharray:none;stroke-opacity:1"
           d="m 968,1134 h 1 1 l 1,1 v 0 h 1 l 1,1 v 0 h 1 l 1,1 h 1 v 0 h 1 l 1,1 v 0 h 1 1 1 v 1 h 1 1 1 v 0 h 1 1 l 1,1 v 0 h 1 1 1 1 v 0 h 1 -1 v 0 h -1 -1 -1 -1 v 0 h -1 l -1,1 h -1 v 0 h -1 -1 -1 v 1 h -1 -1 -1 v 0 l -1,1 h -1 v 0 h -1 l -1,1 h -1 v 0 l -1,1 h -1 v 0 l -1,1 h -1 -1 v 0" /></g><g
         transform="matrix(0.24,0,0,-0.24,18.12,773.88)"
         id="g116"><path
           inkscape:connector-curvature="0"
           id="path118"
           style="fill:none;stroke:#000000;stroke-width:1;stroke-linecap:round;stroke-linejoin:round;stroke-miterlimit:10;stroke-dasharray:none;stroke-opacity:1"
           d="m 968,1134 h 1 1 l 1,1 v 0 h 1 l 1,1 v 0 h 1 l 1,1 h 1 v 0 h 1 l 1,1 v 0 h 1 1 1 v 1 h 1 1 1 v 0 h 1 1 l 1,1 v 0 h 1 1 1 1 v 0 h 1 -1 v 0 h -1 -1 -1 -1 v 0 h -1 l -1,1 h -1 v 0 h -1 -1 -1 v 1 h -1 -1 -1 v 0 l -1,1 h -1 v 0 h -1 l -1,1 h -1 v 0 l -1,1 h -1 v 0 l -1,1 h -1 -1 v 0" /></g><g
         transform="matrix(0.24,0,0,-0.24,18.12,773.88)"
         id="g120"><path
           inkscape:connector-curvature="0"
           id="path122"
           style="fill:none;stroke:#000000;stroke-width:2.0999999;stroke-linecap:round;stroke-linejoin:round;stroke-miterlimit:10;stroke-dasharray:none;stroke-opacity:1"
           d="M 196,1084 H 96" /></g><g
         transform="matrix(0.24,0,0,-0.24,18.12,773.88)"
         id="g124"><path
           inkscape:connector-curvature="0"
           id="path126"
           style="fill:none;stroke:#000000;stroke-width:2.0999999;stroke-linecap:round;stroke-linejoin:round;stroke-miterlimit:10;stroke-dasharray:none;stroke-opacity:1"
           d="M 196,116 H 96" /></g><g
         transform="matrix(0.24,0,0,-0.24,18.12,773.88)"
         id="g128"><path
           inkscape:connector-curvature="0"
           id="path130"
           style="fill:none;stroke:#000000;stroke-width:2.0999999;stroke-linecap:round;stroke-linejoin:round;stroke-miterlimit:10;stroke-dasharray:none;stroke-opacity:1"
           d="M 120,1084 V 116" /></g><g
         transform="matrix(0.24,0,0,-0.24,18.12,773.88)"
         id="g132"><path
           inkscape:connector-curvature="0"
           id="path134"
           style="fill:none;stroke:#000000;stroke-width:2.0999999;stroke-linecap:round;stroke-linejoin:round;stroke-miterlimit:10;stroke-dasharray:none;stroke-opacity:1"
           d="m 126,1060 v 1 0 l -1,1 v 1 0 l -1,1 v 1 1 h -1 v 1 1 0 l -1,1 v 1 1 0 1 l -1,1 v 1 0 1 1 1 0 l -1,1 v 1 1 0 1 1 1 1 -1 -1 -1 -1 0 -1 -1 l -1,-1 v 0 -1 -1 -1 0 -1 l -1,-1 v -1 0 -1 -1 l -1,-1 v 0 -1 -1 h -1 v -1 -1 l -1,-1 v 0 -1 l -1,-1 v 0 -1 0" /></g><g
         transform="matrix(0.24,0,0,-0.24,18.12,773.88)"
         id="g136"><path
           inkscape:connector-curvature="0"
           id="path138"
           style="fill:none;stroke:#000000;stroke-width:1;stroke-linecap:round;stroke-linejoin:round;stroke-miterlimit:10;stroke-dasharray:none;stroke-opacity:1"
           d="m 126,1060 v 1 0 l -1,1 v 1 0 l -1,1 v 1 1 h -1 v 1 1 0 l -1,1 v 1 1 0 1 l -1,1 v 1 0 1 1 1 0 l -1,1 v 1 1 0 1 1 1 1 -1 -1 -1 -1 0 -1 -1 l -1,-1 v 0 -1 -1 -1 0 -1 l -1,-1 v -1 0 -1 -1 l -1,-1 v 0 -1 -1 h -1 v -1 -1 l -1,-1 v 0 -1 l -1,-1 v 0 -1 0" /></g><g
         transform="matrix(0.24,0,0,-0.24,18.12,773.88)"
         id="g140"><path
           inkscape:connector-curvature="0"
           id="path142"
           style="fill:none;stroke:#000000;stroke-width:2.0999999;stroke-linecap:round;stroke-linejoin:round;stroke-miterlimit:10;stroke-dasharray:none;stroke-opacity:1"
           d="m 114,140 v -1 0 l 1,-1 v -1 -1 h 1 v -1 -1 h 1 v -1 -1 -1 h 1 v -1 -1 0 -1 l 1,-1 v -1 0 -1 -1 -1 0 l 1,-1 v -1 -1 -1 0 -1 -1 -1 1 1 1 0 1 1 1 l 1,1 v 0 1 1 1 0 1 l 1,1 v 1 0 1 1 h 1 v 1 1 1 h 1 v 1 1 h 1 v 1 1 l 1,1 v 0 1 0" /></g><g
         transform="matrix(0.24,0,0,-0.24,18.12,773.88)"
         id="g144"><path
           inkscape:connector-curvature="0"
           id="path146"
           style="fill:none;stroke:#000000;stroke-width:1;stroke-linecap:round;stroke-linejoin:round;stroke-miterlimit:10;stroke-dasharray:none;stroke-opacity:1"
           d="m 114,140 v -1 0 l 1,-1 v -1 -1 h 1 v -1 -1 h 1 v -1 -1 -1 h 1 v -1 -1 0 -1 l 1,-1 v -1 0 -1 -1 -1 0 l 1,-1 v -1 -1 -1 0 -1 -1 -1 1 1 1 0 1 1 1 l 1,1 v 0 1 1 1 0 1 l 1,1 v 1 0 1 1 h 1 v 1 1 1 h 1 v 1 1 h 1 v 1 1 l 1,1 v 0 1 0" /></g><path
         inkscape:connector-curvature="0"
         id="path148"
         style="fill:#ffffff;fill-opacity:1;fill-rule:nonzero;stroke:none"
         d="m 40.86,636.9 h 12 v -13.92 h -12 z" /></g><g
       id="g162"><g
         id="g164"
         clip-path="url(#clipPath168)"><g
           id="g170"
           transform="matrix(1,0,0,0.9942857,40.92,622.92)" /></g></g><g
       id="g172"><g
         id="g174"
         clip-path="url(#clipPath178)"><path
           d="m 178.38,709.86 h 18 v -15.84 h -18 z"
           style="fill:#ffffff;fill-opacity:1;fill-rule:nonzero;stroke:none"
           id="path180"
           inkscape:connector-curvature="0" /></g></g><g
       id="g196"><g
         id="g198"
         clip-path="url(#clipPath202)"><g
           id="g204"
           transform="matrix(1,0,0,0.99,178.44,693.96)" /></g></g><g
       id="g206"><g
         id="g208"
         clip-path="url(#clipPath212)"><path
           d="m 283.74,747.06 h 15.84 v -18 h -15.84 z"
           style="fill:#ffffff;fill-opacity:1;fill-rule:nonzero;stroke:none"
           id="path214"
           inkscape:connector-curvature="0" /></g></g><g
       id="g230"><g
         id="g232"
         clip-path="url(#clipPath236)"><g
           id="g238"
           transform="matrix(0.99,0,0,1,283.8,729)" /></g></g><g
       id="g240"><g
         id="g242"
         clip-path="url(#clipPath246)"><path
           d="m 154.14,510.42 h 15.84 v -20.16 h -15.84 z"
           style="fill:#ffffff;fill-opacity:1;fill-rule:nonzero;stroke:none"
           id="path248"
           inkscape:connector-curvature="0" /></g></g><g
       id="g264"><g
         id="g266"
         clip-path="url(#clipPath270)"><g
           id="g272"
           transform="matrix(0.99,0,0,1.008,154.2,490.2)" /></g></g><g
       id="g282"
       transform="matrix(0.24,0,0,-0.24,18.12,773.88)"><path
         d="M 300,600 H 900"
         style="fill:none;stroke:#000000;stroke-width:3;stroke-linecap:round;stroke-linejoin:round;stroke-miterlimit:10;stroke-dasharray:72, 9, 18, 9;stroke-dashoffset:0;stroke-opacity:1"
         id="path284"
         inkscape:connector-curvature="0" /></g><g
       id="g286"
       transform="matrix(0.24,0,0,-0.24,18.12,773.88)"><path
         d="m 600,60 v 960"
         style="fill:none;stroke:#000000;stroke-width:3;stroke-linecap:round;stroke-linejoin:round;stroke-miterlimit:10;stroke-dasharray:72, 9, 18, 9;stroke-dashoffset:0;stroke-opacity:1"
         id="path288"
         inkscape:connector-curvature="0" /></g><path
       d="m 163.56,629.88 v 0 c 0,0.7953 -0.6447,1.44 -1.44,1.44 -0.7953,0 -1.44,-0.6447 -1.44,-1.44 0,-0.7953 0.6447,-1.44 1.44,-1.44 0.7953,0 1.44,0.6447 1.44,1.44"
       style="fill:#000000;fill-opacity:1;fill-rule:nonzero;stroke:none"
       id="path302"
       inkscape:connector-curvature="0" /><text
       xml:space="preserve"
       style="font-style:normal;font-weight:normal;font-size:14px;line-height:1.25;font-family:sans-serif;letter-spacing:0px;word-spacing:0px;fill:#000000;fill-opacity:1;stroke:none;stroke-width:0.75"
       x="284.71417"
       y="-734.81348"
       id="text306"
       transform="scale(1,-1)"><tspan
         sodipodi:role="line"
         id="tspan304"
         x="284.71417"
         y="-734.81348"
         style="stroke-width:0.75">$t_f$</tspan></text>
<text
       xml:space="preserve"
       style="font-style:normal;font-weight:normal;font-size:14px;line-height:1.25;font-family:sans-serif;letter-spacing:0px;word-spacing:0px;fill:#000000;fill-opacity:1;stroke:none;stroke-width:0.75"
       x="179.0778"
       y="-702.1228"
       id="text310"
       transform="scale(1,-1)"><tspan
         sodipodi:role="line"
         id="tspan308"
         x="179.0778"
         y="-702.1228"
         style="stroke-width:0.75">$t_w$</tspan></text>
<text
       xml:space="preserve"
       style="font-style:normal;font-weight:normal;font-size:14px;line-height:1.25;font-family:sans-serif;letter-spacing:0px;word-spacing:0px;fill:#000000;fill-opacity:1;stroke:none;stroke-width:0.75"
       x="42.792683"
       y="-625.80951"
       id="text337"
       transform="scale(1,-1)"><tspan
         sodipodi:role="line"
         id="tspan335"
         x="42.792683"
         y="-625.80951"
         style="stroke-width:0.75">$d$</tspan></text>
<text
       xml:space="preserve"
       style="font-style:normal;font-weight:normal;font-size:14px;line-height:1.25;font-family:sans-serif;letter-spacing:0px;word-spacing:0px;fill:#000000;fill-opacity:1;stroke:none;stroke-width:0.75"
       x="156.13045"
       y="-497.83221"
       id="text341"
       transform="scale(1,-1)"><tspan
         sodipodi:role="line"
         id="tspan339"
         x="156.13045"
         y="-497.83221"
         style="stroke-width:0.75">$b_f$</tspan></text>
<text
       xml:space="preserve"
       style="font-style:normal;font-weight:normal;font-size:14px;line-height:1.25;font-family:sans-serif;letter-spacing:0px;word-spacing:0px;fill:#000000;fill-opacity:1;stroke:none;stroke-width:0.75"
       x="234.5784"
       y="-625.80957"
       id="text345"
       transform="scale(1,-1)"><tspan
         sodipodi:role="line"
         id="tspan343"
         x="234.5784"
         y="-625.80957"
         style="stroke-width:0.75">$X$</tspan></text>
<text
       xml:space="preserve"
       style="font-style:normal;font-weight:normal;font-size:14px;line-height:1.25;font-family:sans-serif;letter-spacing:0px;word-spacing:0px;fill:#000000;fill-opacity:1;stroke:none;stroke-width:0.75"
       x="156.23143"
       y="-763.49371"
       id="text349"
       transform="scale(1,-1)"><tspan
         sodipodi:role="line"
         id="tspan347"
         x="156.23143"
         y="-763.49371"
         style="stroke-width:0.75">$Y$</tspan></text>
</g></svg>