<?xml version="1.0" encoding="UTF-8"?>
<!DOCTYPE svg PUBLIC "-//W3C//DTD SVG 1.1//EN" "http://www.w3.org/Graphics/SVG/1.1/DTD/svg11.dtd">
<svg version="1.1" xmlns="http://www.w3.org/2000/svg" xmlns:xlink="http://www.w3.org/1999/xlink" x="0" y="0" width="419.58" height="297.675" viewBox="0, 0, 419.58, 297.675">
  <defs>
    <linearGradient id="Gradient_1" gradientUnits="userSpaceOnUse" x1="322.448" y1="81.198" x2="345.163" y2="116.437" gradientTransform="matrix(1, 0, 0, 1, 0, 0)">
      <stop offset="0" stop-color="#FEB156"/>
      <stop offset="1" stop-color="#E9DCCD"/>
    </linearGradient>
    <radialGradient id="Gradient_2" gradientUnits="userSpaceOnUse" cx="151.874" cy="128.318" r="6.322" gradientTransform="matrix(1, 0, 0, 1, 0, 0)">
      <stop offset="0.46" stop-color="#D1D1D1"/>
      <stop offset="1" stop-color="#FFFFFF"/>
    </radialGradient>
  </defs>
  <g id="Branch">
    <g>
      <path d="M61.125,172.028 C61.125,164.309 67.382,158.052 75.1,158.052 C82.819,158.052 89.076,164.309 89.076,172.028 C89.076,179.747 82.819,186.004 75.1,186.004 C67.382,186.004 61.125,179.747 61.125,172.028 z" fill="#A24006"/>
      <path d="M61.125,172.028 C61.125,164.309 67.382,158.052 75.1,158.052 C82.819,158.052 89.076,164.309 89.076,172.028 C89.076,179.747 82.819,186.004 75.1,186.004 C67.382,186.004 61.125,179.747 61.125,172.028 z" fill-opacity="0" stroke="#000000" stroke-width="0.5" stroke-linecap="round" stroke-linejoin="round"/>
    </g>
  </g>
  <g id="Blade">
    <g>
      <path d="M143.281,116.438 C134.639,116.338 81.585,135.9 55.969,146.125 C45.78,148.839 45.531,167.344 45.531,167.344 C45.531,167.344 119.73,151.927 134.344,148.844 C149.287,145.691 195,152.446 217.125,155.875 C223.794,156.908 223.781,155.822 223.781,153.562 C223.781,151.303 223.794,151.921 217.594,151.312 C218.146,146.361 218.815,141.827 212.5,139.844 C206.185,137.86 156.08,116.338 143.281,116.438 z M198.031,144.875 C199.094,144.875 200.156,145.582 200.156,147 C200.156,144.165 204.406,144.165 204.406,147 C204.406,144.165 208.656,144.165 208.656,147 C208.656,144.165 212.906,144.165 212.906,147 C212.906,149.835 212.906,149.844 212.906,149.844 L206.781,149.844 L200.844,149.844 L195.906,149.844 C195.906,149.844 195.906,149.835 195.906,147 C195.906,145.582 196.968,144.875 198.031,144.875 z" fill="#E3E3E3"/>
      <path d="M143.281,116.438 C134.639,116.338 81.585,135.9 55.969,146.125 C45.78,148.839 45.531,167.344 45.531,167.344 C45.531,167.344 119.73,151.927 134.344,148.844 C149.287,145.691 195,152.446 217.125,155.875 C223.794,156.908 223.781,155.822 223.781,153.562 C223.781,151.303 223.794,151.921 217.594,151.312 C218.146,146.361 218.815,141.827 212.5,139.844 C206.185,137.86 156.08,116.338 143.281,116.438 z M198.031,144.875 C199.094,144.875 200.156,145.582 200.156,147 C200.156,144.165 204.406,144.165 204.406,147 C204.406,144.165 208.656,144.165 208.656,147 C208.656,144.165 212.906,144.165 212.906,147 C212.906,149.835 212.906,149.844 212.906,149.844 L206.781,149.844 L200.844,149.844 L195.906,149.844 C195.906,149.844 195.906,149.835 195.906,147 C195.906,145.582 196.968,144.875 198.031,144.875 z" fill-opacity="0" stroke="#000000" stroke-width="0.5" stroke-linecap="round" stroke-linejoin="round"/>
    </g>
  </g>
  <g id="Top_handle">
    <g>
      <path d="M143.296,116.447 C161.034,109.716 180.468,100.557 180.468,100.557 C196.304,99.126 209.239,102.891 221.963,100.68 C242.161,97.172 254.731,89.961 270.137,86.246 C306.754,77.416 345.163,80.524 345.163,89.038 C345.164,94.371 339.031,97.469 330.364,99.761 C319.173,102.721 303.757,104.337 291.863,107.688 C270.668,113.658 254.781,118.798 229.435,125.746 C204.089,132.695 188,128.998 176.756,139.68 C160.67,154.963 169.114,175.64 148.384,185.998 C134.355,188.299 68.752,208.153 58.381,193.253 C68.126,186.258 121.952,159.447 130.673,153.357 C130.022,149.212 129.692,145.201 129.579,141.813 C129.2,130.535 131.771,120.819 143.296,116.447 z" fill="#8A8A8A"/>
      <path d="M143.296,116.447 C161.034,109.716 180.468,100.557 180.468,100.557 C196.304,99.126 209.239,102.891 221.963,100.68 C242.161,97.172 254.731,89.961 270.137,86.246 C306.754,77.416 345.163,80.524 345.163,89.038 C345.164,94.371 339.031,97.469 330.364,99.761 C319.173,102.721 303.757,104.337 291.863,107.688 C270.668,113.658 254.781,118.798 229.435,125.746 C204.089,132.695 188,128.998 176.756,139.68 C160.67,154.963 169.114,175.64 148.384,185.998 C134.355,188.299 68.752,208.153 58.381,193.253 C68.126,186.258 121.952,159.447 130.673,153.357 C130.022,149.212 129.692,145.201 129.579,141.813 C129.2,130.535 131.771,120.819 143.296,116.447 z" fill-opacity="0" stroke="#000000" stroke-width="0.5" stroke-linecap="round" stroke-linejoin="round"/>
    </g>
    <g>
      <path d="M330.364,99.761 C330.364,99.761 324.762,89.803 298.551,89.851 C274.509,89.894 233.177,113.174 213.392,112.781 C211.426,112.742 208.491,112.498 205.102,111.997 C203.051,111.693 200.872,111.177 198.633,110.574 C195.113,109.627 191.446,108.466 187.899,107.585 C181.743,106.054 180.468,103.591 180.468,100.557 C196.304,99.126 209.239,102.891 221.963,100.68 C242.161,97.172 254.731,89.961 270.137,86.246 C306.754,77.416 345.163,80.524 345.163,89.038 C345.164,94.371 339.031,97.469 330.364,99.761 z" fill="url(#Gradient_1)"/>
      <path d="M330.364,99.761 C330.364,99.761 324.762,89.803 298.551,89.851 C274.509,89.894 233.177,113.174 213.392,112.781 C211.426,112.742 208.491,112.498 205.102,111.997 C203.051,111.693 200.872,111.177 198.633,110.574 C195.113,109.627 191.446,108.466 187.899,107.585 C181.743,106.054 180.468,103.591 180.468,100.557 C196.304,99.126 209.239,102.891 221.963,100.68 C242.161,97.172 254.731,89.961 270.137,86.246 C306.754,77.416 345.163,80.524 345.163,89.038 C345.164,94.371 339.031,97.469 330.364,99.761 z" fill-opacity="0" stroke="#000000" stroke-width="0.5" stroke-linecap="round" stroke-linejoin="round"/>
    </g>
    <path d="M176.538,139.853 C150.443,140.884 109.137,163.383 144.693,186.793" fill-opacity="0" stroke="#000000" stroke-width="0.5" stroke-linecap="round" stroke-linejoin="round"/>
    <g>
      <path d="M145.551,128.318 C145.551,124.663 148.382,121.7 151.874,121.7 C155.365,121.7 158.196,124.663 158.196,128.318 C158.196,131.973 155.365,134.936 151.874,134.936 C148.382,134.936 145.551,131.973 145.551,128.318 z" fill="url(#Gradient_2)"/>
      <path d="M145.551,128.318 C145.551,124.663 148.382,121.7 151.874,121.7 C155.365,121.7 158.196,124.663 158.196,128.318 C158.196,131.973 155.365,134.936 151.874,134.936 C148.382,134.936 145.551,131.973 145.551,128.318 z" fill-opacity="0" stroke="#000000" stroke-width="0.5" stroke-linecap="round" stroke-linejoin="round"/>
    </g>
  </g>
  <g id="Bottom_handle_">
    <g>
      <path d="M167.53,155.15 C192.34,157.352 205.612,172.149 247.397,196.906 C289.182,221.663 324.001,227.879 336.068,233.886 C340.869,236.275 342.881,245.804 342.886,251.294 C342.89,255.766 335.373,258.028 331.976,259.294 C328.016,260.77 327.901,260.855 324.835,260.956 C312.669,261.355 320.897,256.615 319.97,246.878 C319.248,239.299 300.612,242.194 293.46,238.633 C275.337,229.611 262.461,226.521 254.018,224.634 C240.915,221.705 236.19,213.392 230.429,211.527 C225.589,209.961 220.733,211.739 217.303,210.494 C209.79,207.767 203.131,192.875 181.539,195.495 C175.007,192.805 148.688,185.004 148.23,184.817 C145.294,183.615 138.939,180.829 138.939,171.273 C138.939,151.34 154.656,154.008 167.53,155.15 z" fill="#8A8A8A"/>
      <path d="M167.53,155.15 C192.34,157.352 205.612,172.149 247.397,196.906 C289.182,221.663 324.001,227.879 336.068,233.886 C340.869,236.275 342.881,245.804 342.886,251.294 C342.89,255.766 335.373,258.028 331.976,259.294 C328.016,260.77 327.901,260.855 324.835,260.956 C312.669,261.355 320.897,256.615 319.97,246.878 C319.248,239.299 300.612,242.194 293.46,238.633 C275.337,229.611 262.461,226.521 254.018,224.634 C240.915,221.705 236.19,213.392 230.429,211.527 C225.589,209.961 220.733,211.739 217.303,210.494 C209.79,207.767 203.131,192.875 181.539,195.495 C175.007,192.805 148.688,185.004 148.23,184.817 C145.294,183.615 138.939,180.829 138.939,171.273 C138.939,151.34 154.656,154.008 167.53,155.15 z" fill-opacity="0" stroke="#000000" stroke-width="0.5" stroke-linecap="round" stroke-linejoin="round"/>
    </g>
    <g>
      <path d="M145.551,168.234 C145.551,164.579 148.417,161.617 151.953,161.617 C155.489,161.617 158.355,164.579 158.355,168.234 C158.355,171.889 155.489,174.852 151.953,174.852 C148.417,174.852 145.551,171.889 145.551,168.234 z" fill="#D1D1D1"/>
      <path d="M145.551,168.234 C145.551,164.579 148.417,161.617 151.953,161.617 C155.489,161.617 158.355,164.579 158.355,168.234 C158.355,171.889 155.489,174.852 151.953,174.852 C148.417,174.852 145.551,171.889 145.551,168.234 z" fill-opacity="0" stroke="#000000" stroke-width="0.5" stroke-linecap="round" stroke-linejoin="round"/>
    </g>
  </g>
  <g id="Link">
    <path d="M143.281,116.437 C135.984,116.353 97.027,130.286 69.655,140.78 C64.609,142.715 59.956,144.533 55.969,146.125 C45.78,148.839 45.531,167.344 45.531,167.344 C45.531,167.344 119.73,151.927 134.344,148.844 C149.287,145.691 195,152.446 217.125,155.875 C223.794,156.908 223.781,155.822 223.781,153.562 C223.781,151.303 223.794,151.921 217.594,151.312 C218.146,146.361 218.815,141.827 212.5,139.844 C206.185,137.86 156.08,116.338 143.281,116.437 z" fill-opacity="0" stroke="#000000" stroke-width="0.5" stroke-dasharray="3" stroke-linecap="round" stroke-linejoin="round"/>
    <g>
      <g opacity="0.964">
        <path d="M185.162,163.708 C193.052,156.018 201.297,147.832 206.503,142.835 C210.228,139.259 218.428,144.842 215.01,150.332 C213.371,152.964 210.024,156.94 206.43,161.041 C202.309,165.744 197.863,170.613 195.298,173.81 C190.307,179.766 178.653,170.241 185.162,163.708 z" fill="#CDCDCD"/>
        <path d="M185.162,163.708 C193.052,156.018 201.297,147.832 206.503,142.835 C210.228,139.259 218.428,144.842 215.01,150.332 C213.371,152.964 210.024,156.94 206.43,161.041 C202.309,165.744 197.863,170.613 195.298,173.81 C190.307,179.766 178.653,170.241 185.162,163.708 z" fill-opacity="0" stroke="#000000" stroke-width="0.5" stroke-linecap="round" stroke-linejoin="round"/>
      </g>
      <g opacity="0.964">
        <path d="M207.454,146.9 C207.927,145.484 209.458,144.721 210.873,145.194 C212.289,145.667 213.052,147.198 212.579,148.613 C212.106,150.029 210.575,150.792 209.16,150.319 C207.744,149.846 206.981,148.315 207.454,146.9 z" fill="#FFFFFF"/>
        <path d="M207.454,146.9 C207.927,145.484 209.458,144.721 210.873,145.194 C212.289,145.667 213.052,147.198 212.579,148.613 C212.106,150.029 210.575,150.792 209.16,150.319 C207.744,149.846 206.981,148.315 207.454,146.9 z" fill-opacity="0" stroke="#000000" stroke-width="0.5" stroke-linecap="round" stroke-linejoin="round"/>
      </g>
      <g opacity="0.964">
        <path d="M188.335,167.463 C188.808,166.048 190.339,165.284 191.754,165.758 C193.169,166.231 193.933,167.762 193.46,169.177 C192.987,170.592 191.456,171.356 190.04,170.883 C188.625,170.41 187.861,168.879 188.335,167.463 z" fill="#FFFFFF"/>
        <path d="M188.335,167.463 C188.808,166.048 190.339,165.284 191.754,165.758 C193.169,166.231 193.933,167.762 193.46,169.177 C192.987,170.592 191.456,171.356 190.04,170.883 C188.625,170.41 187.861,168.879 188.335,167.463 z" fill-opacity="0" stroke="#000000" stroke-width="0.5" stroke-linecap="round" stroke-linejoin="round"/>
      </g>
    </g>
  </g>
  <g id="Latch">
    <g>
      <path d="M238.847,186.52 L234.207,188.993 L247.432,197.033 L238.847,186.52 z" fill="#FEB156"/>
      <path d="M238.847,186.52 L234.207,188.993 L247.432,197.033 L238.847,186.52 z" fill-opacity="0" stroke="#000000" stroke-width="0.3" stroke-linecap="round" stroke-linejoin="round"/>
    </g>
    <g>
      <path d="M236.429,184.889 C236.457,183.496 247.821,182.891 248.519,183.237 C249.28,183.615 253.956,187.099 257.59,190.404 C261.108,193.605 263.6,196.636 263.6,196.636 C263.6,196.636 266.442,200.55 262.322,200.818 C255.467,199.378 247.397,196.906 247.397,196.906 C247.397,196.906 236.375,187.545 236.429,184.889 z" fill="#FEB156"/>
      <path d="M236.429,184.889 C236.457,183.496 247.821,182.891 248.519,183.237 C249.28,183.615 253.956,187.099 257.59,190.404 C261.108,193.605 263.6,196.636 263.6,196.636 C263.6,196.636 266.442,200.55 262.322,200.818 C255.467,199.378 247.397,196.906 247.397,196.906 C247.397,196.906 236.375,187.545 236.429,184.889 z" fill-opacity="0" stroke="#000000" stroke-width="0.5" stroke-linecap="round" stroke-linejoin="round"/>
    </g>
    <g>
      <g>
        <path d="M246.645,184.747 L242.281,189.125" fill="#FEB156" fill-opacity="0.188"/>
        <path d="M246.645,184.747 L242.281,189.125" fill-opacity="0" stroke="#000000" stroke-width="0.3" stroke-linecap="round" stroke-linejoin="round"/>
      </g>
      <g>
        <path d="M248.981,185.505 L243.713,191.012" fill="#FEB156" fill-opacity="0.188"/>
        <path d="M248.981,185.505 L243.713,191.012" fill-opacity="0" stroke="#000000" stroke-width="0.3" stroke-linecap="round" stroke-linejoin="round"/>
      </g>
      <g>
        <path d="M250.887,187.11 L245.619,192.617" fill="#FEB156" fill-opacity="0.188"/>
        <path d="M250.887,187.11 L245.619,192.617" fill-opacity="0" stroke="#000000" stroke-width="0.3" stroke-linecap="round" stroke-linejoin="round"/>
      </g>
      <g>
        <path d="M252.96,188.809 L247.692,194.317" fill="#FEB156" fill-opacity="0.188"/>
        <path d="M252.96,188.809 L247.692,194.317" fill-opacity="0" stroke="#000000" stroke-width="0.3" stroke-linecap="round" stroke-linejoin="round"/>
      </g>
      <g>
        <path d="M254.96,190.248 L249.693,195.755" fill="#FEB156" fill-opacity="0.188"/>
        <path d="M254.96,190.248 L249.693,195.755" fill-opacity="0" stroke="#000000" stroke-width="0.3" stroke-linecap="round" stroke-linejoin="round"/>
      </g>
      <g>
        <path d="M256.491,192.205 L252.578,196.522" fill="#FEB156" fill-opacity="0.188"/>
        <path d="M256.491,192.205 L252.578,196.522" fill-opacity="0" stroke="#000000" stroke-width="0.3" stroke-linecap="round" stroke-linejoin="round"/>
      </g>
      <g>
        <path d="M258.095,194.162 L255.267,197.106" fill="#FEB156" fill-opacity="0.188"/>
        <path d="M258.095,194.162 L255.267,197.106" fill-opacity="0" stroke="#000000" stroke-width="0.3" stroke-linecap="round" stroke-linejoin="round"/>
      </g>
    </g>
    <path d="M61.185,172.092 C61.185,164.373 67.442,158.116 75.161,158.116 C82.88,158.116 89.137,164.373 89.137,172.092 C89.137,179.811 82.88,186.068 75.161,186.068 C67.442,186.068 61.185,179.811 61.185,172.092 z" fill-opacity="0" stroke="#000000" stroke-width="0.5" stroke-dasharray="2" stroke-linecap="round" stroke-linejoin="round"/>
    <g opacity="0.964">
      <path d="M224.119,198.037 C224.592,196.622 226.123,195.858 227.538,196.331 C228.954,196.804 229.718,198.335 229.244,199.751 C228.771,201.166 227.24,201.93 225.825,201.457 C224.409,200.983 223.646,199.452 224.119,198.037 z" fill="#FFFFFF"/>
      <path d="M224.119,198.037 C224.592,196.622 226.123,195.858 227.538,196.331 C228.954,196.804 229.718,198.335 229.244,199.751 C228.771,201.166 227.24,201.93 225.825,201.457 C224.409,200.983 223.646,199.452 224.119,198.037 z" fill-opacity="0" stroke="#000000" stroke-width="0.5" stroke-linecap="round" stroke-linejoin="round"/>
    </g>
  </g>
  <g id="Labels">
    <text transform="matrix(1, 0, 0, 1, 79.492, 152.317)">
      <tspan x="-3.863" y="3.319" font-family="Charter-Italic" font-size="10" fill="#000000">A</tspan>
    </text>
    <text transform="matrix(1, 0, 0, 1, 91.244, 184.667)">
      <tspan x="-2.939" y="2.625" font-family="Charter-Italic" font-size="10" fill="#000000">B</tspan>
    </text>
    <text transform="matrix(1, 0, 0, 1, 139.91, 128.458)">
      <tspan x="-3.805" y="3.461" font-family="Charter-Italic" font-size="10" fill="#000000">C</tspan>
    </text>
    <text transform="matrix(1, 0, 0, 1, 288.946, 49.96)">
      <tspan x="-2.544" y="3" font-family="Charter-Italic" font-size="10" fill="#000000">F</tspan>
    </text>
    <text transform="matrix(1, 0, 0, 1, 220.777, 138.156)">
      <tspan x="-3.354" y="3" font-family="Charter-Italic" font-size="10" fill="#000000">D</tspan>
    </text>
    <text transform="matrix(1, 0, 0, 1, 183.152, 177.774)">
      <tspan x="-3.729" y="3.382" font-family="Charter-Italic" font-size="10" fill="#000000">E</tspan>
    </text>
    <text transform="matrix(1, 0, 0, 1, 161.243, 177.406)">
      <tspan x="-3.32" y="3" font-family="Charter-Italic" font-size="10" fill="#000000">G</tspan>
    </text>
    <text transform="matrix(1, 0, 0, 1, 142.595, 79.481)">
      <tspan x="-7.019" y="2.818" font-family="TimesNewRomanPSMT" font-size="10" fill="#000000">{a}</tspan>
    </text>
    <text transform="matrix(1, 0, 0, 1, 239.494, 158.82)">
      <tspan x="-10.015" y="3" font-family="Charter-Italic" font-size="10" fill="#000000">{y1}</tspan>
    </text>
    <text transform="matrix(1, 0, 0, 1, 242.649, 137.829)">
      <tspan x="-13.503" y="2.376" font-family="Charter-Italic" font-size="10" fill="#000000">{y2}</tspan>
    </text>
    <text transform="matrix(1, 0.004, -0.004, 1, 218.858, 80.36)">
      <tspan x="-10.254" y="3" font-family="Charter-Italic" font-size="10" fill="#000000">{d2}</tspan>
    </text>
    <text transform="matrix(0.945, -0.328, 0.328, 0.945, 88.334, 92.881)">
      <tspan x="-10.254" y="3" font-family="Charter-Italic" font-size="10" fill="#000000">{d1}</tspan>
    </text>
    <text transform="matrix(1, -0.022, 0.022, 1, 199.841, 213.247)">
      <tspan x="-10.024" y="3.281" font-family="Charter-Italic" font-size="10" fill="#000000">{x2}</tspan>
    </text>
    <text transform="matrix(1, 0, 0, 1, 168.22, 213.35)">
      <tspan x="-10.024" y="3.167" font-family="Charter-Italic" font-size="10" fill="#000000">{x1}</tspan>
    </text>
    <g>
      <path d="M152.106,69.54 L152.106,209.148" fill="#000000"/>
      <path d="M152.106,69.54 L152.106,209.148" fill-opacity="0" stroke="#000000" stroke-width="0.4" stroke-linecap="round" stroke-linejoin="round"/>
    </g>
    <g>
      <path d="M190.984,210.41 L190.984,162.435" fill="#000000"/>
      <path d="M190.984,210.41 L190.984,162.435" fill-opacity="0" stroke="#000000" stroke-width="0.4" stroke-linecap="round" stroke-linejoin="round"/>
    </g>
    <g>
      <path d="M210.04,209.77 L210.04,143.007" fill="#000000"/>
      <path d="M210.04,209.77 L210.04,143.007" fill-opacity="0" stroke="#000000" stroke-width="0.4" stroke-linecap="round" stroke-linejoin="round"/>
    </g>
    <g>
      <path d="M238.73,168.474 L147.948,168.474" fill="#000000"/>
      <path d="M238.73,168.474 L147.948,168.474" fill-opacity="0" stroke="#000000" stroke-width="0.4" stroke-linecap="round" stroke-linejoin="round"/>
    </g>
    <g>
      <path d="M238.357,128.352 L147.002,128.352" fill="#000000"/>
      <path d="M238.357,128.352 L147.002,128.352" fill-opacity="0" stroke="#000000" stroke-width="0.4" stroke-linecap="round" stroke-linejoin="round"/>
    </g>
    <g>
      <path d="M238.793,147.652 L203.879,147.652" fill="#000000"/>
      <path d="M238.793,147.652 L203.879,147.652" fill-opacity="0" stroke="#000000" stroke-width="0.4" stroke-linecap="round" stroke-linejoin="round"/>
    </g>
    <path d="M53.208,107.333 L83.333,178.583" fill-opacity="0" stroke="#000000" stroke-width="0.4" stroke-linecap="round" stroke-linejoin="round"/>
    <path d="M131.25,79.375 L152.231,128.352" fill-opacity="0" stroke="#000000" stroke-width="0.4" stroke-linecap="round" stroke-linejoin="round"/>
    <path d="M57.224,114.595 C62.024,112.699 132.731,84.784 132.731,84.784" fill-opacity="0" stroke="#000000" stroke-width="0.4" stroke-linecap="round" stroke-linejoin="round"/>
    <path d="M131.753,85.327 L131.376,87.036 L133.346,84.603 L130.218,84.486 L131.753,85.327 z" fill="#000000"/>
    <path d="M57.867,114.313 L58.467,112.669 L56.192,114.82 L59.277,115.35 L57.867,114.313 z" fill="#000000"/>
    <g opacity="0">
      <path d="M78.235,182.47 C78.541,183.148 78.207,183.96 77.489,184.283 C76.771,184.607 75.942,184.321 75.636,183.643 C75.33,182.966 75.664,182.154 76.382,181.83 C77.1,181.506 77.929,181.793 78.235,182.47 z" fill="#000000"/>
      <path d="M78.235,182.47 C78.541,183.148 78.207,183.96 77.489,184.283 C76.771,184.607 75.942,184.321 75.636,183.643 C75.33,182.966 75.664,182.154 76.382,181.83 C77.1,181.506 77.929,181.793 78.235,182.47 z" fill-opacity="0" stroke="#000000" stroke-width="0.4" stroke-linecap="round" stroke-linejoin="round"/>
    </g>
    <g>
      <path d="M153.405,127.765 C153.711,128.443 153.377,129.254 152.659,129.578 C151.942,129.902 151.112,129.615 150.806,128.938 C150.501,128.26 150.834,127.449 151.552,127.125 C152.27,126.801 153.099,127.088 153.405,127.765 z" fill="#000000"/>
      <path d="M153.405,127.765 C153.711,128.443 153.377,129.254 152.659,129.578 C151.942,129.902 151.112,129.615 150.806,128.938 C150.501,128.26 150.834,127.449 151.552,127.125 C152.27,126.801 153.099,127.088 153.405,127.765 z" fill-opacity="0" stroke="#000000" stroke-width="0.4" stroke-linecap="round" stroke-linejoin="round"/>
    </g>
    <g>
      <path d="M153.53,167.736 C153.85,168.445 153.5,169.293 152.749,169.632 C151.999,169.971 151.131,169.671 150.811,168.963 C150.492,168.254 150.84,167.404 151.591,167.067 C152.342,166.728 153.21,167.028 153.53,167.736 z" fill="#000000"/>
      <path d="M153.53,167.736 C153.85,168.445 153.5,169.293 152.749,169.632 C151.999,169.971 151.131,169.671 150.811,168.963 C150.492,168.254 150.84,167.404 151.591,167.067 C152.342,166.728 153.21,167.028 153.53,167.736 z" fill-opacity="0" stroke="#000000" stroke-width="0.4" stroke-linecap="round" stroke-linejoin="round"/>
    </g>
    <g>
      <path d="M192.285,167.804 C192.59,168.482 192.256,169.294 191.539,169.617 C190.821,169.941 189.992,169.655 189.686,168.977 C189.38,168.3 189.714,167.488 190.432,167.164 C191.149,166.84 191.979,167.127 192.285,167.804 z" fill="#000000"/>
      <path d="M192.285,167.804 C192.59,168.482 192.256,169.294 191.539,169.617 C190.821,169.941 189.992,169.655 189.686,168.977 C189.38,168.3 189.714,167.488 190.432,167.164 C191.149,166.84 191.979,167.127 192.285,167.804 z" fill-opacity="0" stroke="#000000" stroke-width="0.4" stroke-linecap="round" stroke-linejoin="round"/>
    </g>
    <g>
      <path d="M211.276,147.127 C211.582,147.805 211.248,148.616 210.531,148.94 C209.813,149.264 208.983,148.977 208.678,148.3 C208.372,147.622 208.706,146.811 209.423,146.487 C210.141,146.163 210.971,146.45 211.276,147.127 z" fill="#000000"/>
      <path d="M211.276,147.127 C211.582,147.805 211.248,148.616 210.531,148.94 C209.813,149.264 208.983,148.977 208.678,148.3 C208.372,147.622 208.706,146.811 209.423,146.487 C210.141,146.163 210.971,146.45 211.276,147.127 z" fill-opacity="0" stroke="#000000" stroke-width="0.4" stroke-linecap="round" stroke-linejoin="round"/>
    </g>
    <g>
      <path d="M295.694,87.45 L295.694,233.164" fill="#000000"/>
      <path d="M295.694,87.45 L295.694,233.164" fill-opacity="0" stroke="#000000" stroke-width="0.4" stroke-linecap="round" stroke-linejoin="round"/>
    </g>
    <g>
      <path d="M77.292,160.64 C77.598,161.318 77.264,162.129 76.546,162.453 C75.829,162.777 74.999,162.49 74.693,161.813 C74.388,161.135 74.721,160.324 75.439,160 C76.157,159.676 76.986,159.963 77.292,160.64 z" fill="#000000"/>
      <path d="M77.292,160.64 C77.598,161.318 77.264,162.129 76.546,162.453 C75.829,162.777 74.999,162.49 74.693,161.813 C74.388,161.135 74.721,160.324 75.439,160 C76.157,159.676 76.986,159.963 77.292,160.64 z" fill-opacity="0" stroke="#000000" stroke-width="0.4" stroke-linecap="round" stroke-linejoin="round"/>
    </g>
    <g>
      <path d="M84.873,178.095 C85.179,178.773 84.845,179.585 84.127,179.908 C83.41,180.232 82.58,179.946 82.274,179.268 C81.969,178.591 82.303,177.779 83.02,177.455 C83.738,177.131 84.567,177.418 84.873,178.095 z" fill="#000000"/>
      <path d="M84.873,178.095 C85.179,178.773 84.845,179.585 84.127,179.908 C83.41,180.232 82.58,179.946 82.274,179.268 C81.969,178.591 82.303,177.779 83.02,177.455 C83.738,177.131 84.567,177.418 84.873,178.095 z" fill-opacity="0" stroke="#000000" stroke-width="0.4" stroke-linecap="round" stroke-linejoin="round"/>
    </g>
    <g opacity="0">
      <path d="M152.106,93.264 L294.911,93.264" fill="#000000"/>
      <g>
        <path d="M293.511,93.264 C286.42,93.264 153.51,93.264 153.51,93.264" fill-opacity="0" stroke="#000000" stroke-width="0.4" stroke-linecap="round" stroke-linejoin="round"/>
        <path d="M153.86,93.264 L154.91,91.864 L152.11,93.264 L154.91,94.664 L153.86,93.264 z" fill="#000000"/>
        <path d="M293.161,93.264 L292.111,94.664 L294.911,93.264 L292.111,91.864 L293.161,93.264 z" fill="#000000"/>
      </g>
    </g>
    <g>
      <path d="M295.694,80.044 C295.694,76.671 295.694,45.838 295.694,45.838" fill-opacity="0" stroke="#D31212" stroke-width="2" stroke-linecap="round" stroke-linejoin="round"/>
      <path d="M288.92,74.344 L294.92,81.677 L295.694,82.623 L296.468,81.677 L302.468,74.344 C302.818,73.916 302.755,73.286 302.327,72.937 C301.9,72.587 301.27,72.65 300.92,73.077 L294.92,80.411 L296.468,80.411 L290.468,73.077 C290.118,72.65 289.488,72.587 289.061,72.937 C288.634,73.286 288.571,73.916 288.92,74.344 z" fill="#D31212"/>
    </g>
    <g>
      <path d="M295.694,242.641 C295.694,246.015 295.694,276.847 295.694,276.847" fill-opacity="0" stroke="#D31212" stroke-width="2" stroke-linecap="round" stroke-linejoin="round"/>
      <path d="M302.468,248.341 L296.468,241.008 L295.694,240.062 L294.92,241.008 L288.92,248.341 C288.571,248.769 288.634,249.399 289.061,249.749 C289.488,250.098 290.118,250.035 290.468,249.608 L296.468,242.275 L294.92,242.275 L300.92,249.608 C301.27,250.035 301.9,250.098 302.327,249.749 C302.755,249.399 302.818,248.769 302.468,248.341 z" fill="#D31212"/>
    </g>
    <g>
      <path d="M151.964,90.014 L295.553,90.014" fill="#000000"/>
      <g>
        <path d="M294.149,90.014 C287.028,90.014 153.366,90.014 153.366,90.014" fill-opacity="0" stroke="#000000" stroke-width="0.4" stroke-linecap="round" stroke-linejoin="round"/>
        <path d="M153.716,90.014 L154.766,88.614 L151.966,90.014 L154.766,91.414 L153.716,90.014 z" fill="#000000"/>
        <path d="M293.799,90.014 L292.749,91.414 L295.549,90.014 L292.749,88.614 L293.799,90.014 z" fill="#000000"/>
      </g>
    </g>
    <text transform="matrix(1, 0, 0, 1, 285.856, 274.2)">
      <tspan x="-2.544" y="3" font-family="Charter-Italic" font-size="10" fill="#000000">F</tspan>
    </text>
  </g>
</svg>
