<?xml version="1.0" encoding="UTF-8"?>
<!DOCTYPE svg PUBLIC "-//W3C//DTD SVG 1.1//EN" "http://www.w3.org/Graphics/SVG/1.1/DTD/svg11.dtd">
<svg version="1.1" xmlns="http://www.w3.org/2000/svg" xmlns:xlink="http://www.w3.org/1999/xlink" x="0" y="0" width="400" height="97.124" viewBox="0, 0, 400, 97.124">
  <g id="Layer_1">
    <text transform="matrix(2.835, 0, 0, 2.835, 222.761, 31.036)" id="tspan819">
      <tspan x="-1.49" y="1" font-family="TimesNewRomanPSMT" font-size="4.233" kerning="-0.375" fill="#FF0000">F</tspan>
    </text>
    <g id="rect823">
      <path d="M271.594,2.042 L266.481,7.156 L236.933,36.703 L242.047,41.817 L271.594,12.27 L301.142,41.817 L306.255,36.703 L276.708,7.156 z" fill="#E6E6E6"/>
      <path d="M271.594,2.042 L266.481,7.156 L236.933,36.703 L242.047,41.817 L271.594,12.27 L301.142,41.817 L306.255,36.703 L276.708,7.156 z" fill-opacity="0" stroke="#000000" stroke-width="0.567"/>
    </g>
    <g>
      <path d="M299.891,36.703 L331.522,36.703" fill-opacity="0" stroke="#FF0000" stroke-width="0.85" id="path828"/>
      <g id="path839">
        <path d="M330.022,36.703 L328.022,38.703 L335.022,36.703 L328.022,34.703 L330.022,36.703 z" fill="#FF0000"/>
        <path d="M330.022,36.703 L328.022,38.703 L335.022,36.703 L328.022,34.703 L330.022,36.703 z" fill-opacity="0" stroke="#FF0000" stroke-width="0.4"/>
      </g>
    </g>
    <g>
      <path d="M243.297,36.703 L211.667,36.703" fill-opacity="0" stroke="#FF0000" stroke-width="0.85" id="path1124"/>
      <g id="path1126">
        <path d="M213.167,36.703 L215.167,34.703 L208.167,36.703 L215.167,38.703 L213.167,36.703 z" fill="#FF0000"/>
        <path d="M213.167,36.703 L215.167,34.703 L208.167,36.703 L215.167,38.703 L213.167,36.703 z" fill-opacity="0" stroke="#FF0000" stroke-width="0.4"/>
      </g>
    </g>
    <path d="M299.651,36.703 L243.777,36.703" fill-opacity="0" stroke="#000000" stroke-width="0.283" stroke-dasharray="1.701,1.701" id="path1586"/>
    <text transform="matrix(2.835, 0, 0, 2.835, 272.356, 44.96)" id="tspan2060">
      <tspan x="-7.445" y="0.5" font-family="TimesNewRomanPSMT" font-size="2.822" kerning="0" fill="#666666">line of action</tspan>
    </text>
    <text transform="matrix(2.835, 0, 0, 2.835, 91.689, 44.96)" id="tspan2060">
      <tspan x="-7.445" y="0.5" font-family="TimesNewRomanPSMT" font-size="2.822" kerning="0" fill="#666666">line of action</tspan>
    </text>
    <text transform="matrix(2.835, 0, 0, 2.835, 324.278, 31.036)" id="tspan2064">
      <tspan x="-1.49" y="1" font-family="TimesNewRomanPSMT" font-size="4.233" kerning="-0.375" fill="#FF0000">F</tspan>
    </text>
    <text transform="matrix(2.835, 0.001, -0.001, 2.835, 286.809, 71.543)" id="tspan2515">
      <tspan x="-1.841" y="1" font-family="TimesNewRomanPSMT" font-size="4.233" kerning="-0.375" fill="#FF0000">A</tspan>
    </text>
    <g>
      <text transform="matrix(2.835, 0, 0, 2.835, 225.494, 81.34)" id="tspan2096">
        <tspan x="-1.49" y="1" font-family="TimesNewRomanPSMT" font-size="4.233" kerning="-0.375" fill="#FF0000">F</tspan>
      </text>
      <path d="M258.289,70.873 L242.567,86.507 L247.68,91.621 L257.267,81.606 z" fill="#E6E6E6" id="path2181"/>
      <path d="M258.387,71.486 L243.067,86.807 L248.18,91.921 L257.986,82.198" fill-opacity="0" stroke="#000000" stroke-width="0.567" id="path2100"/>
      <g>
        <path d="M249.43,87.007 L217.8,87.007" fill-opacity="0" stroke="#FF0000" stroke-width="0.85" id="path2104"/>
        <g id="path2132">
          <path d="M219.3,87.007 L221.3,85.007 L214.3,87.007 L221.3,89.007 L219.3,87.007 z" fill="#FF0000"/>
          <path d="M219.3,87.007 L221.3,85.007 L214.3,87.007 L221.3,89.007 L219.3,87.007 z" fill-opacity="0" stroke="#FF0000" stroke-width="0.4"/>
        </g>
      </g>
      <g>
        <path d="M258.323,76.145 L272.381,76.188" fill-opacity="0" stroke="#FF0000" stroke-width="0.85" id="path2189"/>
        <g id="path2247">
          <path d="M271.279,76.185 L269.807,77.65 L274.953,76.196 L269.811,74.711 L271.279,76.185 z" fill="#FF0000"/>
          <path d="M271.279,76.185 L269.807,77.65 L274.953,76.196 L269.811,74.711 L271.279,76.185 z" fill-opacity="0" stroke="#FF0000" stroke-width="0.4"/>
        </g>
      </g>
      <path d="M257.849,62.525 C257.849,62.525 258.887,63.545 257.884,64.598 C256.879,65.652 257.918,66.671 257.918,66.671 M257.918,66.671 C257.918,66.671 258.957,67.691 257.953,68.744 C256.949,69.798 257.988,70.817 257.988,70.817 M257.988,70.817 C257.988,70.817 259.026,71.837 258.022,72.89 C257.018,73.944 258.057,74.964 258.057,74.964 M258.057,74.964 C258.057,74.964 259.095,75.984 258.091,77.037 C257.087,78.09 258.126,79.11 258.126,79.11 M258.126,79.11 C258.126,79.11 259.164,80.13 258.161,81.183 C257.156,82.237 258.195,83.256 258.195,83.256 M258.195,83.256 C258.195,83.256 259.233,84.276 258.23,85.329 C257.226,86.383 258.264,87.402 258.264,87.402" fill-opacity="0" stroke="#0000FF" stroke-width="0.371" id="path8087"/>
    </g>
    <path d="M314.195,76.299 L328.421,62.073 L357.968,91.621 L363.082,86.507 L333.535,56.96 L328.421,51.846 L328.421,51.846 L323.307,56.96 L314.005,65.966 z" fill="#E6E6E6" id="path2183"/>
    <path d="M314.695,76.799 L328.921,62.573 L358.468,92.121 L363.582,87.007 L334.035,57.46 L328.921,52.346 L328.921,52.346 L323.807,57.46 L314.505,66.466" fill-opacity="0" stroke="#000000" stroke-width="0.567" id="path2130"/>
    <g>
      <path d="M357.551,87.007 L389.181,87.007" fill-opacity="0" stroke="#FF0000" stroke-width="0.85" id="path2102"/>
      <g id="path839">
        <path d="M387.681,87.007 L385.681,89.007 L392.681,87.007 L385.681,85.007 L387.681,87.007 z" fill="#FF0000"/>
        <path d="M387.681,87.007 L385.681,89.007 L392.681,87.007 L385.681,85.007 L387.681,87.007 z" fill-opacity="0" stroke="#FF0000" stroke-width="0.4"/>
      </g>
    </g>
    <text transform="matrix(2.835, 0, 0, 2.835, 380.805, 77.74)" id="tspan2112">
      <tspan x="-1.49" y="1" font-family="TimesNewRomanPSMT" font-size="4.233" kerning="-0.375" fill="#FF0000">F</tspan>
    </text>
    <g>
      <path d="M314.767,72.491 L300.878,72.539" fill-opacity="0" stroke="#FF0000" stroke-width="0.85" id="path2299"/>
      <g id="path2301">
        <path d="M301.967,72.535 L303.417,71.078 L298.337,72.547 L303.422,73.982 L301.967,72.535 z" fill="#FF0000"/>
        <path d="M301.967,72.535 L303.417,71.078 L298.337,72.547 L303.422,73.982 L301.967,72.535 z" fill-opacity="0" stroke="#FF0000" stroke-width="0.4"/>
      </g>
    </g>
    <path d="M314.338,60.248 C314.338,60.248 315.386,61.257 314.393,62.321 C313.401,63.385 314.449,64.393 314.449,64.393 M314.449,64.393 C314.449,64.393 315.498,65.403 314.505,66.466 C313.512,67.53 314.561,68.539 314.561,68.539 M314.561,68.539 C314.561,68.539 315.609,69.548 314.617,70.611 C313.624,71.676 314.672,72.684 314.672,72.684 M314.672,72.684 C314.672,72.684 315.721,73.693 314.728,74.757 C313.735,75.821 314.784,76.829 314.784,76.829 M314.784,76.829 C314.784,76.829 315.833,77.839 314.84,78.902 C313.847,79.966 314.895,80.974 314.895,80.974 M314.895,80.974 C314.895,80.974 315.944,81.984 314.951,83.047 C313.958,84.111 315.007,85.12 315.007,85.12" fill-opacity="0" stroke="#0000FF" stroke-width="0.371" id="path8107"/>
    <path d="M254.562,11.684 C254.562,11.684 255.628,12.674 254.655,13.755 C253.681,14.836 254.748,15.826 254.748,15.826 M254.748,15.826 C254.748,15.826 255.815,16.816 254.841,17.897 C253.867,18.979 254.934,19.969 254.934,19.969 M254.934,19.969 C254.934,19.969 256.001,20.959 255.027,22.04 C254.053,23.122 255.12,24.111 255.12,24.111 M255.12,24.111 C255.12,24.111 256.187,25.102 255.213,26.183 C254.239,27.264 255.307,28.254 255.307,28.254 M255.307,28.254 C255.307,28.254 256.373,29.244 255.4,30.325 C254.426,31.407 255.493,32.396 255.493,32.396 M255.493,32.397 C255.493,32.397 256.559,33.387 255.586,34.468 C254.612,35.55 255.679,36.539 255.679,36.539" fill-opacity="0" stroke="#0000FF" stroke-width="0.371" id="path8109"/>
    <text transform="matrix(2.835, 0, 0, 2.835, 43.18, 31.245)" id="tspan819">
      <tspan x="-1.49" y="1" font-family="TimesNewRomanPSMT" font-size="4.233" kerning="-0.375" fill="#FF0000">F</tspan>
    </text>
    <g id="rect823">
      <path d="M92.014,2.252 L86.9,7.366 L57.353,36.913 L62.467,42.027 L92.014,12.479 L121.561,42.027 L126.675,36.913 L97.128,7.366 z" fill="#E6E6E6"/>
      <path d="M92.014,2.252 L86.9,7.366 L57.353,36.913 L62.467,42.027 L92.014,12.479 L121.561,42.027 L126.675,36.913 L97.128,7.366 z" fill-opacity="0" stroke="#000000" stroke-width="0.567"/>
    </g>
    <g>
      <path d="M120.311,36.913 L151.941,36.913" fill-opacity="0" stroke="#FF0000" stroke-width="0.85" id="path828"/>
      <g id="path839">
        <path d="M150.441,36.913 L148.441,38.913 L155.441,36.913 L148.441,34.913 L150.441,36.913 z" fill="#FF0000"/>
        <path d="M150.441,36.913 L148.441,38.913 L155.441,36.913 L148.441,34.913 L150.441,36.913 z" fill-opacity="0" stroke="#FF0000" stroke-width="0.4"/>
      </g>
    </g>
    <g>
      <path d="M63.716,36.913 L32.086,36.913" fill-opacity="0" stroke="#FF0000" stroke-width="0.85" id="path1124"/>
      <g id="path1126">
        <path d="M33.586,36.913 L35.586,34.913 L28.586,36.913 L35.586,38.913 L33.586,36.913 z" fill="#FF0000"/>
        <path d="M33.586,36.913 L35.586,34.913 L28.586,36.913 L35.586,38.913 L33.586,36.913 z" fill-opacity="0" stroke="#FF0000" stroke-width="0.4"/>
      </g>
    </g>
    <path d="M120.07,36.913 L64.196,36.913" fill-opacity="0" stroke="#000000" stroke-width="0.283" stroke-dasharray="1.701,1.701" id="path1586"/>
    <text transform="matrix(2.835, 0, 0, 2.835, 144.698, 31.245)" id="tspan2064">
      <tspan x="-1.49" y="1" font-family="TimesNewRomanPSMT" font-size="4.233" kerning="-0.375" fill="#FF0000">F</tspan>
    </text>
    <text transform="matrix(2.835, 0, 0, 2.835, 70.745, 11.28)" id="tspan2092">
      <tspan x="-3.464" y="1" font-family="TimesNewRomanPSMT" font-size="4.233" kerning="0" fill="#0000FF">cut</tspan>
    </text>
    <text transform="matrix(2.835, 0, 0, 2.835, 242.745, 11.28)" id="tspan2092">
      <tspan x="-3.464" y="1" font-family="TimesNewRomanPSMT" font-size="4.233" kerning="0" fill="#0000FF">cut</tspan>
    </text>
    <g>
      <text transform="matrix(2.835, 0, 0, 2.835, 43.18, 81.34)" id="tspan2096">
        <tspan x="-1.49" y="1" font-family="TimesNewRomanPSMT" font-size="4.233" kerning="-0.375" fill="#FF0000">F</tspan>
      </text>
      <path d="M72.174,71.186 L56.853,86.507 L61.967,91.621 L77.289,76.299 z" fill="#E6E6E6" id="path2181"/>
      <path d="M72.674,71.686 L57.353,87.007 L62.467,92.121 L77.789,76.799" fill-opacity="0" stroke="#000000" stroke-width="0.567" id="path2100"/>
      <g>
        <path d="M63.716,87.007 L32.086,87.007" fill-opacity="0" stroke="#FF0000" stroke-width="0.85" id="path2104"/>
        <g id="path2132">
          <path d="M33.586,87.007 L35.586,85.007 L28.586,87.007 L35.586,89.007 L33.586,87.007 z" fill="#FF0000"/>
          <path d="M33.586,87.007 L35.586,85.007 L28.586,87.007 L35.586,89.007 L33.586,87.007 z" fill-opacity="0" stroke="#FF0000" stroke-width="0.4"/>
        </g>
      </g>
      <g>
        <path d="M75.231,74.243 L88.758,60.715" fill-opacity="0" stroke="#FF0000" stroke-width="0.85" id="path2189"/>
        <g id="path2247">
          <path d="M87.697,61.776 L87.697,64.604 L91.233,58.241 L84.869,61.776 L87.697,61.776 z" fill="#FF0000"/>
          <path d="M87.697,61.776 L87.697,64.604 L91.233,58.241 L84.869,61.776 L87.697,61.776 z" fill-opacity="0" stroke="#FF0000" stroke-width="0.4"/>
        </g>
      </g>
      <text transform="matrix(2.835, 0, 0, 2.835, 93.652, 64.323)" id="tspan2515">
        <tspan x="-1.841" y="1" font-family="TimesNewRomanPSMT" font-size="4.233" kerning="-0.375" fill="#FF0000">A</tspan>
      </text>
      <path d="M66.06,65.07 C66.06,65.07 67.515,65.081 67.526,66.536 C67.536,67.992 68.992,68.002 68.992,68.002 M68.992,68.002 C68.992,68.002 70.448,68.014 70.458,69.468 C70.469,70.924 71.924,70.935 71.924,70.935 M71.924,70.935 C71.924,70.935 73.38,70.946 73.39,72.401 C73.401,73.856 74.856,73.867 74.856,73.867 M74.856,73.867 C74.856,73.867 76.312,73.878 76.323,75.333 C76.333,76.788 77.789,76.799 77.789,76.799 M77.789,76.799 C77.789,76.799 79.244,76.81 79.255,78.265 C79.266,79.72 80.721,79.731 80.721,79.731 M80.721,79.731 C80.721,79.731 82.176,79.742 82.187,81.197 C82.198,82.653 83.653,82.663 83.653,82.663" fill-opacity="0" stroke="#0000FF" stroke-width="0.371" id="path8087"/>
    </g>
    <path d="M120.681,76.299 L134.907,62.073 L164.454,91.621 L169.568,86.507 L140.021,56.96 L134.907,51.846 L134.907,51.846 L129.793,56.96 L115.567,71.186 z" fill="#E6E6E6" id="path2183"/>
    <path d="M121.181,76.799 L135.407,62.573 L164.954,92.121 L170.068,87.007 L140.521,57.46 L135.407,52.346 L135.407,52.346 L130.293,57.46 L116.067,71.686" fill-opacity="0" stroke="#000000" stroke-width="0.567" id="path2130"/>
    <g>
      <path d="M165.036,87.007 L196.667,87.007" fill-opacity="0" stroke="#FF0000" stroke-width="0.85" id="path2102"/>
      <g id="path839">
        <path d="M195.167,87.007 L193.167,89.007 L200.167,87.007 L193.167,85.007 L195.167,87.007 z" fill="#FF0000"/>
        <path d="M195.167,87.007 L193.167,89.007 L200.167,87.007 L193.167,85.007 L195.167,87.007 z" fill-opacity="0" stroke="#FF0000" stroke-width="0.4"/>
      </g>
    </g>
    <text transform="matrix(2.835, 0, 0, 2.835, 190.757, 80.34)" id="tspan2112">
      <tspan x="-1.49" y="1" font-family="TimesNewRomanPSMT" font-size="4.233" kerning="-0.375" fill="#FF0000">F</tspan>
    </text>
    <g>
      <path d="M118.624,74.243 L105.097,87.77" fill-opacity="0" stroke="#FF0000" stroke-width="0.85" id="path2299"/>
      <g id="path2301">
        <path d="M106.157,86.709 L106.157,83.881 L102.622,90.245 L108.986,86.709 L106.157,86.709 z" fill="#FF0000"/>
        <path d="M106.157,86.709 L106.157,83.881 L102.622,90.245 L108.986,86.709 L106.157,86.709 z" fill-opacity="0" stroke="#FF0000" stroke-width="0.4"/>
      </g>
    </g>
    <text transform="matrix(2.835, 0, 0, 2.835, 115.349, 85.62)" id="tspan2519">
      <tspan x="-1.841" y="1" font-family="TimesNewRomanPSMT" font-size="4.233" kerning="-0.375" fill="#FF0000">A</tspan>
    </text>
    <path d="M109.453,65.07 C109.453,65.07 110.908,65.081 110.919,66.536 C110.93,67.992 112.385,68.002 112.385,68.002 M112.385,68.002 C112.385,68.002 113.84,68.014 113.851,69.468 C113.862,70.924 115.317,70.934 115.317,70.934 M115.317,70.934 C115.317,70.934 116.773,70.946 116.783,72.401 C116.794,73.856 118.249,73.867 118.249,73.867 M118.249,73.867 C118.249,73.867 119.705,73.878 119.715,75.333 C119.727,76.788 121.181,76.799 121.181,76.799 M121.181,76.799 C121.181,76.799 122.637,76.81 122.648,78.265 C122.659,79.72 124.114,79.731 124.114,79.731 M124.114,79.731 C124.114,79.731 125.569,79.742 125.58,81.197 C125.591,82.653 127.046,82.663 127.046,82.663" fill-opacity="0" stroke="#0000FF" stroke-width="0.371" id="path8107"/>
    <path d="M67.012,15.524 C67.012,15.524 68.467,15.535 68.478,16.99 C68.488,18.446 69.944,18.456 69.944,18.456 M69.944,18.456 C69.944,18.456 71.399,18.468 71.41,19.922 C71.421,21.378 72.876,21.389 72.876,21.389 M72.876,21.389 C72.876,21.389 74.331,21.4 74.342,22.855 C74.353,24.31 75.808,24.321 75.808,24.321 M75.808,24.321 C75.808,24.321 77.264,24.332 77.274,25.787 C77.285,27.242 78.74,27.253 78.74,27.253 M78.74,27.253 C78.74,27.253 80.196,27.264 80.207,28.719 C80.217,30.174 81.673,30.185 81.673,30.185 M81.673,30.185 C81.673,30.185 83.128,30.196 83.139,31.651 C83.15,33.107 84.605,33.117 84.605,33.117" fill-opacity="0" stroke="#0000FF" stroke-width="0.371" id="path8109"/>
  </g>
</svg>
