<?xml version="1.0" encoding="UTF-8" standalone="no"?>
<!DOCTYPE svg PUBLIC "-//W3C//DTD SVG 1.1//EN" "http://www.w3.org/Graphics/SVG/1.1/DTD/svg11.dtd">
<svg width="100%" height="100%" viewBox="0 0 31 31" version="1.1" xmlns="http://www.w3.org/2000/svg" xmlns:xlink="http://www.w3.org/1999/xlink" xml:space="preserve" xmlns:serif="http://www.serif.com/" style="fill-rule:evenodd;clip-rule:evenodd;stroke-linejoin:round;stroke-miterlimit:2;">
    <g transform="matrix(1,0,0,1,-275,-119)">
        <g id="CG-symbol" transform="matrix(1.65071,0,0,1.65071,-193.141,-359.615)">
            <rect x="283.781" y="290.435" width="18.174" height="18.174" style="fill:none;"/>
            <g transform="matrix(0.605799,0,0,0.605799,115.449,118.072)">
                <g transform="matrix(0.0249243,0,0,0.025,277.891,284.522)">
                    <path d="M900,600C900,434.315 765.685,300 600,300L600,600L900,600Z"/>
                </g>
                <g transform="matrix(-0.0249239,-0.000152757,0.000151365,-0.024847,307.755,314.522)">
                    <path d="M900,600C900,434.315 765.685,300 600,300L600,600L900,600Z"/>
                </g>
                <g transform="matrix(0.0249243,0,0,0.025,277.891,284.568)">
                    <path d="M600,298.167C765.574,298.167 900,432.593 900,598.167C900,763.741 765.574,898.167 600,898.167C434.426,898.167 300,763.741 300,598.167C300,432.593 434.426,298.167 600,298.167ZM600,320.167C753.414,320.167 877.933,444.753 877.933,598.167C877.933,751.581 753.414,876.167 600,876.167C446.586,876.167 322.067,751.581 322.067,598.167C322.067,444.753 446.586,320.167 600,320.167Z"/>
                </g>
            </g>
        </g>
    </g>
</svg>
