<?xml version="1.0" encoding="UTF-8" standalone="no"?>
<!DOCTYPE svg PUBLIC "-//W3C//DTD SVG 1.1//EN" "http://www.w3.org/Graphics/SVG/1.1/DTD/svg11.dtd">
<svg width="100%" height="100%" viewBox="0 0 200 61" version="1.1" xmlns="http://www.w3.org/2000/svg" xmlns:xlink="http://www.w3.org/1999/xlink" xml:space="preserve" xmlns:serif="http://www.serif.com/" style="fill-rule:evenodd;clip-rule:evenodd;stroke-linejoin:round;stroke-miterlimit:2;">
    <g transform="matrix(1,0,0,1,-256,-291)">
        <g id="overhanging-beam" transform="matrix(1.11111,0,0,0.5,-477.33,289.343)">
            <rect x="660" y="5" width="180" height="120" style="fill:none;"/>
            <g transform="matrix(0.9,0,0,4.425,62.776,10.0639)">
                <g id="rect8143" transform="matrix(-2.61324,7.64397e-17,1.69123e-16,-0.556948,-948.01,-227.671)">
                    <rect x="-690.78" y="-434.643" width="66.967" height="9.738" style="fill:rgb(128,128,128);fill-opacity:0.3;stroke:black;stroke-width:0.82px;"/>
                </g>
                <g id="rect8147" transform="matrix(0.628727,0,0,0.261548,283.448,-96.1866)">
                    <rect x="604.609" y="442.469" width="269.983" height="10.369" style="fill:url(#_Linear1);"/>
                </g>
                <g transform="matrix(0.00564066,-0.677961,1.49999,0.00254945,655.89,757.535)">
                    <g transform="matrix(1,0,0,1,1086.38,3.52)">
                        <rect x="2.52" y="1.88" width="1.44" height="18.24" style="fill:rgb(230,230,230);stroke:black;stroke-width:0.53px;stroke-linecap:round;stroke-miterlimit:1.5;"/>
                    </g>
                    <g transform="matrix(1,0,0,1,0.5,-26.68)">
                        <path d="M1099.8,38.182C1101.27,38.4 1102.4,39.669 1102.4,41.2C1102.4,42.731 1101.27,44 1099.8,44.218L1089.84,46.2L1089.84,36.2L1099.8,38.182Z" style="fill:rgb(230,230,230);stroke:black;stroke-width:0.53px;stroke-linecap:round;stroke-miterlimit:1.5;"/>
                    </g>
                    <g transform="matrix(1.42702,0,0,1.42702,-468.943,-44.2732)">
                        <circle cx="1099.35" cy="41.2" r="1.051"/>
                    </g>
                </g>
                <g transform="matrix(2.52656,0,0,1.14195,-15.2803,-35.9522)">
                    <g id="Roller">
                        <circle cx="329.395" cy="46.345" r="2.161" style="fill:white;stroke:black;stroke-width:0.49px;stroke-miterlimit:1.5;"/>
                    </g>
                </g>
            </g>
        </g>
    </g>
    <defs>
        <linearGradient id="_Linear1" x1="0" y1="0" x2="1" y2="0" gradientUnits="userSpaceOnUse" gradientTransform="matrix(6.3489e-16,10.3685,-10.3685,6.3489e-16,739.6,442.469)"><stop offset="0" style="stop-color:rgb(102,102,102);stop-opacity:1"/><stop offset="1" style="stop-color:white;stop-opacity:1"/></linearGradient>
    </defs>
</svg>
