<?xml version="1.0" encoding="UTF-8" standalone="no"?>
<!DOCTYPE svg PUBLIC "-//W3C//DTD SVG 1.1//EN" "http://www.w3.org/Graphics/SVG/1.1/DTD/svg11.dtd">
<svg width="100%" height="100%" viewBox="0 0 241 81" version="1.1" xmlns="http://www.w3.org/2000/svg" xmlns:xlink="http://www.w3.org/1999/xlink" xml:space="preserve" xmlns:serif="http://www.serif.com/" style="fill-rule:evenodd;clip-rule:evenodd;stroke-linecap:round;stroke-linejoin:round;stroke-miterlimit:1.5;">
    <g transform="matrix(1,0,0,1,-565,-215)">
        <g id="simple-beam-ex0" transform="matrix(1.33333,0,0,0.666667,-314.434,212.385)">
            <rect x="660" y="5" width="180" height="120" style="fill:none;"/>
            <g transform="matrix(0.809818,0,0,1.78301,412.679,-388.145)">
                <rect x="320.222" y="228.908" width="65" height="20" style="fill:rgb(247,194,194);stroke:black;stroke-width:0.57px;"/>
            </g>
            <g transform="matrix(1,0,0,1,-6.75,0)">
                <g id="rect8143" transform="matrix(-2.35192,2.63519e-16,1.31759e-16,-2.55204,-788.407,-1028.59)">
                    <rect x="-690.78" y="-434.643" width="66.967" height="9.738" style="fill:rgb(230,230,230);stroke:black;stroke-width:0.4px;"/>
                </g>
                <g transform="matrix(1.50001,0.00271598,0.00181065,4.55057,566.084,-754.516)">
                    <g transform="matrix(0.499997,-0.00029842,-0.000397894,0.329629,66.6263,166.629)">
                        <path d="M88.981,27.81L86.775,34.575L84.481,27.84L88.981,27.81Z" style="fill:rgb(225,32,32);"/>
                        <path d="M86.566,2.704C86.566,2.704 86.68,20.084 86.74,29.175" style="fill:none;stroke:rgb(225,32,32);stroke-width:1.5px;"/>
                    </g>
                </g>
                <g transform="matrix(1.5,0,0,4,617.784,-662)">
                    <g transform="matrix(0.5,-0,-0,0.375,32.3609,166.481)">
                        <path d="M157.716,27.792L155.566,34.575L153.216,27.859L157.716,27.792Z" style="fill:rgb(225,32,32);"/>
                        <path d="M155.094,2.704C155.094,2.704 155.351,20.084 155.486,29.175" style="fill:none;stroke:rgb(225,32,32);stroke-width:1.5px;"/>
                    </g>
                </g>
                <g transform="matrix(-1.49997,-0.01867,0.0131545,-3.78468,998.905,755.727)">
                    <g transform="matrix(-0.499989,0.00246647,-0.00347565,-0.396317,223.457,197.542)">
                        <path d="M224.316,57.469L226.566,50.719L228.816,57.469L224.316,57.469Z" style="fill:rgb(225,32,32);"/>
                        <path d="M226.566,77.226L226.566,56.119" style="fill:none;stroke:rgb(225,32,32);stroke-width:1.5px;"/>
                    </g>
                </g>
                <g transform="matrix(-1.49997,-0.0197317,0.0131545,-3.99991,841.405,791.894)">
                    <g transform="matrix(-0.499989,0.00246647,-0.00328862,-0.374992,118.445,196.413)">
                        <path d="M14.316,55.961L16.566,49.211L18.816,55.961L14.316,55.961Z" style="fill:rgb(225,32,32);"/>
                        <path d="M16.566,77.226L16.566,54.611" style="fill:none;stroke:rgb(225,32,32);stroke-width:1.5px;"/>
                    </g>
                </g>
                <g transform="matrix(1,0,0,1,0,3.61084)">
                    <g transform="matrix(1.875,0,0,3.75,601.875,-550.4)">
                        <circle cx="41" cy="164" r="1"/>
                    </g>
                    <g transform="matrix(1.875,0,0,3.75,759.375,-549.861)">
                        <circle cx="41" cy="164" r="1"/>
                    </g>
                    <g transform="matrix(1.875,0,0,3.75,706.875,-550.4)">
                        <circle cx="41" cy="164" r="1"/>
                    </g>
                    <g transform="matrix(1.875,0,0,3.75,654.513,-550.4)">
                        <circle cx="41" cy="164" r="1"/>
                    </g>
                </g>
            </g>
            <g transform="matrix(0.584869,0,0,3,660.303,-483.868)">
                <g transform="matrix(1.28234,-0,-0,0.5,-1.24301,162.597)">
                    <path d="M84.5,63.556L86.75,62.806L84.5,62.056L84.5,63.556Z"/>
                    <path d="M18.816,63.556L16.566,62.806L18.816,62.056L18.816,63.556Z"/>
                    <path d="M84.95,62.806L18.366,62.806" style="fill:none;stroke:black;stroke-width:0.5px;"/>
                </g>
            </g>
            <g transform="matrix(0.579535,0,0,3,713.524,-483.711)">
                <g transform="matrix(1.29414,-0,-0,0.5,-93.0897,162.544)">
                    <path d="M154.68,63.661L156.93,62.911L154.68,62.161L154.68,63.661Z"/>
                    <path d="M89.636,63.661L87.386,62.911L89.636,62.161L89.636,63.661Z"/>
                    <path d="M155.13,62.911L89.186,62.911" style="fill:none;stroke:black;stroke-width:0.5px;"/>
                </g>
            </g>
            <g transform="matrix(0.579535,0,0,3,765.547,-483.868)">
                <g transform="matrix(1.29414,-0,-0,0.5,-182.857,162.597)">
                    <path d="M224.044,63.556L226.294,62.806L224.044,62.056L224.044,63.556Z"/>
                    <path d="M159,63.556L156.75,62.806L159,62.056L159,63.556Z"/>
                    <path d="M224.494,62.806L158.55,62.806" style="fill:none;stroke:black;stroke-width:0.5px;"/>
                </g>
            </g>
            <g transform="matrix(1.5,0,0,3,616.802,-376.716)">
                <g transform="matrix(8,0,0,8,30.1593,162.784)">
                    <path d="M0.059,-0.014C0.059,-0.023 0.063,-0.028 0.07,-0.03C0.077,-0.032 0.087,-0.033 0.097,-0.034C0.108,-0.034 0.122,-0.041 0.14,-0.054C0.157,-0.067 0.174,-0.086 0.19,-0.113L0.517,-0.689C0.518,-0.69 0.519,-0.692 0.521,-0.695C0.522,-0.698 0.524,-0.701 0.525,-0.703C0.527,-0.704 0.529,-0.706 0.531,-0.709C0.534,-0.712 0.537,-0.713 0.54,-0.714C0.542,-0.715 0.546,-0.716 0.549,-0.716C0.551,-0.716 0.554,-0.716 0.556,-0.715C0.558,-0.715 0.56,-0.714 0.561,-0.712C0.562,-0.711 0.563,-0.71 0.564,-0.709C0.565,-0.708 0.565,-0.707 0.566,-0.704C0.567,-0.701 0.567,-0.7 0.567,-0.699C0.567,-0.699 0.567,-0.696 0.568,-0.693L0.568,-0.688L0.611,-0.067C0.611,-0.052 0.615,-0.042 0.622,-0.038C0.628,-0.034 0.642,-0.032 0.663,-0.031C0.681,-0.031 0.69,-0.026 0.69,-0.017C0.69,-0.006 0.683,-0 0.67,-0C0.667,-0 0.655,-0 0.634,-0.001C0.613,-0.002 0.591,-0.003 0.567,-0.003C0.544,-0.003 0.524,-0.003 0.507,-0.002C0.49,-0.002 0.478,-0.002 0.469,-0.001C0.461,-0 0.456,-0 0.455,-0C0.445,-0 0.44,-0.005 0.44,-0.014C0.44,-0.021 0.443,-0.025 0.448,-0.028C0.453,-0.031 0.46,-0.032 0.468,-0.031C0.475,-0.031 0.484,-0.032 0.494,-0.034C0.504,-0.036 0.513,-0.04 0.52,-0.046C0.525,-0.05 0.528,-0.06 0.528,-0.073C0.528,-0.077 0.527,-0.085 0.526,-0.097C0.525,-0.109 0.524,-0.128 0.522,-0.153C0.521,-0.177 0.519,-0.203 0.517,-0.23L0.289,-0.23C0.283,-0.219 0.277,-0.208 0.27,-0.195C0.262,-0.183 0.257,-0.173 0.252,-0.166C0.248,-0.158 0.244,-0.15 0.239,-0.142C0.233,-0.133 0.23,-0.126 0.227,-0.121C0.224,-0.116 0.222,-0.111 0.219,-0.105C0.215,-0.1 0.213,-0.095 0.212,-0.092C0.211,-0.089 0.209,-0.085 0.208,-0.082C0.206,-0.078 0.205,-0.075 0.205,-0.073C0.204,-0.07 0.204,-0.068 0.204,-0.065C0.204,-0.056 0.207,-0.048 0.213,-0.043C0.218,-0.038 0.225,-0.035 0.232,-0.034C0.239,-0.034 0.245,-0.032 0.25,-0.03C0.256,-0.027 0.259,-0.024 0.259,-0.019C0.259,-0.006 0.252,-0 0.239,-0C0.237,-0 0.232,-0 0.224,-0.001C0.217,-0.002 0.206,-0.002 0.193,-0.002C0.18,-0.003 0.165,-0.003 0.15,-0.003C0.137,-0.003 0.123,-0.002 0.107,-0.001C0.092,-0 0.083,-0 0.081,-0C0.066,-0 0.059,-0.005 0.059,-0.014ZM0.307,-0.26L0.515,-0.26L0.493,-0.587L0.307,-0.26Z" style="fill-rule:nonzero;"/>
                </g>
            </g>
            <g transform="matrix(1.5,0,0,3,658.119,-448.055)">
                <g transform="matrix(8,0,0,8,45.5041,157.784)">
                    <path d="M0.065,-0.012C0.065,-0.021 0.067,-0.026 0.071,-0.028C0.075,-0.03 0.082,-0.031 0.092,-0.031C0.124,-0.031 0.145,-0.033 0.154,-0.038C0.163,-0.043 0.17,-0.055 0.174,-0.073L0.309,-0.616C0.312,-0.626 0.313,-0.632 0.313,-0.635C0.313,-0.642 0.308,-0.647 0.299,-0.649C0.29,-0.651 0.275,-0.652 0.255,-0.652C0.247,-0.652 0.242,-0.652 0.239,-0.652C0.236,-0.653 0.234,-0.654 0.231,-0.656C0.229,-0.657 0.228,-0.66 0.228,-0.664C0.228,-0.673 0.23,-0.678 0.234,-0.68C0.238,-0.682 0.245,-0.683 0.255,-0.683L0.566,-0.683C0.618,-0.683 0.659,-0.67 0.689,-0.644C0.719,-0.617 0.734,-0.585 0.734,-0.547C0.734,-0.507 0.716,-0.469 0.68,-0.432C0.644,-0.395 0.597,-0.37 0.538,-0.357C0.577,-0.352 0.61,-0.338 0.637,-0.314C0.663,-0.29 0.677,-0.258 0.677,-0.219C0.677,-0.165 0.651,-0.115 0.6,-0.069C0.549,-0.023 0.489,-0 0.42,-0L0.09,-0C0.083,-0 0.079,-0 0.076,-0C0.073,-0.001 0.071,-0.002 0.068,-0.004C0.066,-0.005 0.065,-0.008 0.065,-0.012ZM0.245,-0.053C0.244,-0.048 0.243,-0.044 0.243,-0.041C0.243,-0.038 0.243,-0.036 0.244,-0.035C0.245,-0.034 0.247,-0.033 0.252,-0.032C0.257,-0.031 0.264,-0.031 0.274,-0.031L0.398,-0.031C0.451,-0.031 0.496,-0.052 0.532,-0.093C0.569,-0.135 0.588,-0.181 0.588,-0.232C0.588,-0.242 0.587,-0.252 0.585,-0.261C0.583,-0.271 0.579,-0.283 0.573,-0.297C0.568,-0.311 0.558,-0.322 0.543,-0.331C0.528,-0.34 0.51,-0.344 0.489,-0.344L0.317,-0.344L0.247,-0.063C0.247,-0.062 0.246,-0.059 0.245,-0.053ZM0.323,-0.366L0.455,-0.366C0.509,-0.366 0.554,-0.386 0.591,-0.426C0.628,-0.465 0.646,-0.508 0.646,-0.553C0.646,-0.563 0.645,-0.573 0.643,-0.582C0.641,-0.592 0.637,-0.602 0.631,-0.614C0.625,-0.625 0.615,-0.634 0.602,-0.641C0.588,-0.648 0.571,-0.652 0.552,-0.652L0.434,-0.652C0.417,-0.652 0.405,-0.65 0.4,-0.647C0.394,-0.644 0.389,-0.633 0.385,-0.616L0.323,-0.366Z" style="fill-rule:nonzero;"/>
                </g>
            </g>
            <g transform="matrix(0.75,0,0,1.78301,431.834,-388.145)">
                <g transform="matrix(1,-0,-0,0.841274,303.656,219.891)">
                    <path d="M15.066,29.992L16.566,34.492L18.066,29.992L15.066,29.992Z" style="fill:rgb(225,32,32);"/>
                    <path d="M16.566,30.892L16.566,10.719" style="fill:none;stroke:rgb(225,32,32);stroke-width:1px;stroke-linecap:butt;"/>
                </g>
            </g>
            <g transform="matrix(0.75,0,0,1.78301,439.334,-388.145)">
                <g transform="matrix(1,-0,-0,0.841274,293.656,219.891)">
                    <path d="M25.066,29.992L26.566,34.492L28.066,29.992L25.066,29.992Z" style="fill:rgb(225,32,32);"/>
                    <path d="M26.566,30.892L26.566,10.719" style="fill:none;stroke:rgb(225,32,32);stroke-width:1px;stroke-linecap:butt;"/>
                </g>
            </g>
            <g transform="matrix(0.75,0,0,1.78301,446.834,-388.145)">
                <g transform="matrix(1,-0,-0,0.841274,283.656,219.891)">
                    <path d="M35.066,29.992L36.566,34.492L38.066,29.992L35.066,29.992Z" style="fill:rgb(225,32,32);"/>
                    <path d="M36.566,30.892L36.566,10.719" style="fill:none;stroke:rgb(225,32,32);stroke-width:1px;stroke-linecap:butt;"/>
                </g>
            </g>
            <g transform="matrix(0.75,0,0,1.78301,454.334,-388.145)">
                <g transform="matrix(1,-0,-0,0.841274,273.656,219.891)">
                    <path d="M45.066,29.992L46.566,34.492L48.066,29.992L45.066,29.992Z" style="fill:rgb(225,32,32);"/>
                    <path d="M46.566,30.892L46.566,10.719" style="fill:none;stroke:rgb(225,32,32);stroke-width:1px;stroke-linecap:butt;"/>
                </g>
            </g>
            <g transform="matrix(0.75,0,0,1.78301,461.834,-388.145)">
                <g transform="matrix(1,-0,-0,0.841274,263.656,219.891)">
                    <path d="M55.066,29.992L56.566,34.492L58.066,29.992L55.066,29.992Z" style="fill:rgb(225,32,32);"/>
                    <path d="M56.566,30.892L56.566,10.719" style="fill:none;stroke:rgb(225,32,32);stroke-width:1px;stroke-linecap:butt;"/>
                </g>
            </g>
            <g transform="matrix(0.75,0,0,1.78301,469.334,-388.145)">
                <g transform="matrix(1,-0,-0,0.841274,253.656,219.891)">
                    <path d="M65.066,29.992L66.566,34.492L68.066,29.992L65.066,29.992Z" style="fill:rgb(225,32,32);"/>
                    <path d="M66.566,30.892L66.566,10.719" style="fill:none;stroke:rgb(225,32,32);stroke-width:1px;stroke-linecap:butt;"/>
                </g>
            </g>
            <g transform="matrix(0.75,0,0,1.78301,476.834,-388.145)">
                <g transform="matrix(1,-0,-0,0.841274,243.656,219.891)">
                    <path d="M75.066,29.992L76.566,34.492L78.066,29.992L75.066,29.992Z" style="fill:rgb(225,32,32);"/>
                    <path d="M76.566,30.892L76.566,10.719" style="fill:none;stroke:rgb(225,32,32);stroke-width:1px;stroke-linecap:butt;"/>
                </g>
            </g>
            <g transform="matrix(0.75,0,0,1.5,465.421,-321.892)">
                <g transform="matrix(16,0,0,16,417.446,231.195)">
                    <path d="M0.15,-0.245C0.15,-0.321 0.171,-0.395 0.212,-0.467C0.253,-0.539 0.307,-0.597 0.372,-0.64C0.438,-0.683 0.504,-0.705 0.571,-0.705C0.636,-0.705 0.687,-0.677 0.722,-0.62L0.785,-0.694C0.791,-0.701 0.796,-0.705 0.801,-0.705C0.808,-0.705 0.812,-0.702 0.812,-0.695C0.812,-0.691 0.811,-0.686 0.81,-0.681L0.749,-0.438C0.747,-0.43 0.745,-0.425 0.743,-0.423C0.741,-0.421 0.737,-0.42 0.731,-0.42C0.721,-0.42 0.716,-0.423 0.716,-0.43C0.716,-0.431 0.716,-0.434 0.717,-0.441C0.717,-0.448 0.718,-0.456 0.719,-0.466C0.721,-0.475 0.721,-0.484 0.721,-0.491C0.721,-0.541 0.71,-0.584 0.687,-0.62C0.663,-0.656 0.628,-0.674 0.579,-0.674C0.539,-0.674 0.498,-0.662 0.455,-0.638C0.412,-0.615 0.375,-0.581 0.342,-0.536C0.306,-0.487 0.28,-0.431 0.263,-0.366C0.245,-0.301 0.237,-0.248 0.237,-0.207C0.237,-0.141 0.254,-0.091 0.287,-0.058C0.321,-0.025 0.362,-0.009 0.409,-0.009C0.458,-0.009 0.507,-0.028 0.558,-0.067C0.608,-0.106 0.645,-0.165 0.668,-0.242C0.67,-0.247 0.675,-0.25 0.684,-0.25C0.694,-0.25 0.699,-0.247 0.699,-0.24C0.699,-0.226 0.692,-0.206 0.678,-0.178C0.664,-0.151 0.645,-0.122 0.621,-0.092C0.597,-0.061 0.565,-0.035 0.524,-0.012C0.483,0.011 0.44,0.022 0.395,0.022C0.324,0.022 0.266,-0.002 0.219,-0.051C0.173,-0.1 0.15,-0.164 0.15,-0.245Z" style="fill-rule:nonzero;"/>
                </g>
            </g>
            <g transform="matrix(0.75,0,0,1.5,499.322,-231.107)">
                <g transform="matrix(16,0,0,16,441.47,229.416)">
                    <path d="M0.063,-0.012C0.063,-0.021 0.065,-0.026 0.069,-0.028C0.073,-0.03 0.08,-0.031 0.09,-0.031C0.122,-0.031 0.143,-0.033 0.152,-0.038C0.161,-0.043 0.168,-0.055 0.172,-0.073L0.307,-0.616C0.31,-0.626 0.311,-0.632 0.311,-0.635C0.311,-0.642 0.306,-0.647 0.297,-0.649C0.288,-0.651 0.273,-0.652 0.253,-0.652C0.245,-0.652 0.24,-0.652 0.237,-0.652C0.234,-0.653 0.232,-0.654 0.229,-0.656C0.227,-0.657 0.226,-0.66 0.226,-0.664C0.226,-0.673 0.228,-0.678 0.232,-0.68C0.236,-0.682 0.243,-0.683 0.253,-0.683L0.565,-0.683C0.629,-0.683 0.68,-0.66 0.718,-0.615C0.756,-0.57 0.775,-0.511 0.775,-0.438C0.775,-0.365 0.757,-0.294 0.72,-0.226C0.683,-0.158 0.635,-0.103 0.576,-0.062C0.517,-0.021 0.457,-0 0.395,-0L0.088,-0C0.081,-0 0.077,-0 0.074,-0C0.071,-0.001 0.069,-0.002 0.066,-0.004C0.064,-0.005 0.063,-0.008 0.063,-0.012ZM0.246,-0.053C0.245,-0.048 0.244,-0.044 0.244,-0.041C0.244,-0.038 0.244,-0.036 0.245,-0.035C0.246,-0.034 0.248,-0.033 0.253,-0.032C0.257,-0.031 0.265,-0.031 0.275,-0.031L0.378,-0.031C0.455,-0.031 0.521,-0.064 0.578,-0.13C0.616,-0.174 0.644,-0.232 0.663,-0.304C0.682,-0.376 0.692,-0.433 0.692,-0.476C0.692,-0.537 0.677,-0.581 0.646,-0.609C0.615,-0.638 0.577,-0.652 0.532,-0.652L0.435,-0.652C0.418,-0.652 0.406,-0.65 0.401,-0.646C0.395,-0.643 0.39,-0.633 0.386,-0.616L0.248,-0.063C0.248,-0.062 0.247,-0.059 0.246,-0.053Z" style="fill-rule:nonzero;"/>
                </g>
            </g>
            <g transform="matrix(0.75,0,0,1.5,436.587,-318.618)">
                <g transform="matrix(16,0,0,16,300.317,236.837)">
                    <path d="M0.083,-0.288C0.083,-0.29 0.084,-0.296 0.087,-0.306C0.09,-0.316 0.094,-0.329 0.101,-0.344C0.108,-0.36 0.116,-0.375 0.125,-0.39C0.135,-0.404 0.147,-0.416 0.162,-0.427C0.177,-0.437 0.194,-0.442 0.211,-0.442C0.233,-0.442 0.251,-0.435 0.266,-0.42C0.28,-0.405 0.287,-0.386 0.287,-0.361C0.287,-0.347 0.283,-0.33 0.275,-0.308C0.237,-0.208 0.218,-0.138 0.218,-0.098C0.218,-0.092 0.218,-0.085 0.219,-0.078C0.221,-0.071 0.223,-0.062 0.227,-0.051C0.23,-0.039 0.237,-0.03 0.248,-0.022C0.259,-0.015 0.272,-0.011 0.288,-0.011C0.311,-0.011 0.331,-0.024 0.347,-0.05C0.364,-0.075 0.372,-0.094 0.372,-0.105C0.372,-0.125 0.375,-0.146 0.38,-0.168L0.437,-0.396C0.443,-0.419 0.456,-0.431 0.475,-0.431C0.485,-0.431 0.492,-0.428 0.496,-0.423C0.501,-0.418 0.503,-0.412 0.503,-0.405C0.503,-0.4 0.498,-0.378 0.487,-0.339L0.445,-0.171C0.437,-0.139 0.433,-0.113 0.433,-0.094C0.433,-0.07 0.438,-0.05 0.448,-0.035C0.459,-0.019 0.476,-0.011 0.499,-0.011C0.54,-0.011 0.573,-0.042 0.599,-0.104C0.609,-0.128 0.62,-0.16 0.631,-0.201C0.642,-0.242 0.648,-0.271 0.648,-0.29C0.648,-0.323 0.639,-0.35 0.621,-0.369C0.612,-0.379 0.608,-0.388 0.608,-0.396C0.608,-0.407 0.613,-0.418 0.624,-0.427C0.634,-0.437 0.645,-0.442 0.656,-0.442C0.67,-0.442 0.68,-0.436 0.687,-0.423C0.693,-0.411 0.697,-0.395 0.697,-0.376C0.697,-0.349 0.689,-0.305 0.674,-0.244C0.659,-0.183 0.643,-0.135 0.628,-0.101C0.597,-0.027 0.553,0.011 0.496,0.011C0.467,0.011 0.443,0.005 0.424,-0.006C0.404,-0.018 0.39,-0.034 0.382,-0.053C0.356,-0.011 0.324,0.011 0.285,0.011C0.285,0.011 0.285,0.011 0.284,0.011C0.245,0.011 0.214,0.001 0.191,-0.02C0.168,-0.04 0.157,-0.07 0.157,-0.11C0.157,-0.146 0.174,-0.21 0.207,-0.301C0.223,-0.345 0.231,-0.375 0.231,-0.391C0.231,-0.41 0.224,-0.42 0.209,-0.42C0.169,-0.42 0.138,-0.378 0.116,-0.294C0.114,-0.286 0.112,-0.282 0.11,-0.28C0.108,-0.279 0.104,-0.278 0.098,-0.278C0.088,-0.278 0.083,-0.282 0.083,-0.288Z" style="fill-rule:nonzero;"/>
                </g>
            </g>
            <g transform="matrix(0.75,0,0,2.19987,431.834,-513.727)">
                <path d="M390.222,272L390.222,283.908" style="fill:none;stroke:black;stroke-width:0.4px;"/>
            </g>
            <g transform="matrix(0.75,0,0,2.26738,431.699,-532.088)">
                <path d="M460.222,272L460.222,283.908" style="fill:none;stroke:black;stroke-width:0.39px;"/>
            </g>
            <g transform="matrix(1,0,0,1,-59.9309,69.1697)">
                <g transform="matrix(0.75,0,0,1.5,225.75,-319.117)">
                    <rect x="705.972" y="225.719" width="9.028" height="12.14" style="fill:white;"/>
                </g>
                <g transform="matrix(0.75,0,0,1.5,235.826,-318.578)">
                    <g transform="matrix(16,0,0,16,691.566,236.2)">
                        <path d="M0.117,-0.012C0.117,-0.021 0.119,-0.026 0.124,-0.028C0.128,-0.03 0.135,-0.031 0.145,-0.031L0.153,-0.031C0.19,-0.031 0.214,-0.033 0.225,-0.039C0.236,-0.044 0.243,-0.056 0.247,-0.073L0.365,-0.547C0.328,-0.52 0.291,-0.506 0.254,-0.506C0.243,-0.506 0.238,-0.51 0.238,-0.518C0.238,-0.529 0.243,-0.535 0.254,-0.537C0.32,-0.544 0.379,-0.581 0.43,-0.65C0.439,-0.661 0.445,-0.666 0.449,-0.666C0.457,-0.666 0.461,-0.662 0.461,-0.654C0.461,-0.651 0.46,-0.647 0.458,-0.641L0.315,-0.07C0.313,-0.062 0.312,-0.055 0.312,-0.051C0.312,-0.044 0.314,-0.04 0.317,-0.038C0.32,-0.036 0.328,-0.035 0.34,-0.033C0.357,-0.032 0.371,-0.031 0.383,-0.031L0.391,-0.031C0.398,-0.031 0.402,-0.031 0.406,-0.03C0.409,-0.03 0.411,-0.029 0.414,-0.027C0.416,-0.026 0.417,-0.023 0.417,-0.019C0.417,-0.006 0.41,-0 0.397,-0C0.382,-0 0.36,-0 0.33,-0.001C0.3,-0.002 0.278,-0.003 0.263,-0.003C0.249,-0.003 0.227,-0.002 0.198,-0.001C0.169,-0 0.146,-0 0.132,-0C0.122,-0 0.117,-0.004 0.117,-0.012Z" style="fill-rule:nonzero;"/>
                    </g>
                </g>
            </g>
            <g transform="matrix(1,0,0,1,-5.61253,69.1697)">
                <g transform="matrix(0.75,0,0,1.5,225.75,-319.117)">
                    <rect x="705.972" y="225.719" width="9.028" height="12.14" style="fill:white;"/>
                </g>
                <g transform="matrix(0.75,0,0,1.5,235.826,-318.578)">
                    <g transform="matrix(16,0,0,16,691.566,236.2)">
                        <path d="M0.117,-0.012C0.117,-0.021 0.119,-0.026 0.124,-0.028C0.128,-0.03 0.135,-0.031 0.145,-0.031L0.153,-0.031C0.19,-0.031 0.214,-0.033 0.225,-0.039C0.236,-0.044 0.243,-0.056 0.247,-0.073L0.365,-0.547C0.328,-0.52 0.291,-0.506 0.254,-0.506C0.243,-0.506 0.238,-0.51 0.238,-0.518C0.238,-0.529 0.243,-0.535 0.254,-0.537C0.32,-0.544 0.379,-0.581 0.43,-0.65C0.439,-0.661 0.445,-0.666 0.449,-0.666C0.457,-0.666 0.461,-0.662 0.461,-0.654C0.461,-0.651 0.46,-0.647 0.458,-0.641L0.315,-0.07C0.313,-0.062 0.312,-0.055 0.312,-0.051C0.312,-0.044 0.314,-0.04 0.317,-0.038C0.32,-0.036 0.328,-0.035 0.34,-0.033C0.357,-0.032 0.371,-0.031 0.383,-0.031L0.391,-0.031C0.398,-0.031 0.402,-0.031 0.406,-0.03C0.409,-0.03 0.411,-0.029 0.414,-0.027C0.416,-0.026 0.417,-0.023 0.417,-0.019C0.417,-0.006 0.41,-0 0.397,-0C0.382,-0 0.36,-0 0.33,-0.001C0.3,-0.002 0.278,-0.003 0.263,-0.003C0.249,-0.003 0.227,-0.002 0.198,-0.001C0.169,-0 0.146,-0 0.132,-0C0.122,-0 0.117,-0.004 0.117,-0.012Z" style="fill-rule:nonzero;"/>
                    </g>
                </g>
            </g>
            <g transform="matrix(1,0,0,1,46.7493,69.1697)">
                <g transform="matrix(0.75,0,0,1.5,225.75,-319.117)">
                    <rect x="705.972" y="225.719" width="9.028" height="12.14" style="fill:white;"/>
                </g>
                <g transform="matrix(0.75,0,0,1.5,235.826,-318.578)">
                    <g transform="matrix(16,0,0,16,691.566,236.2)">
                        <path d="M0.117,-0.012C0.117,-0.021 0.119,-0.026 0.124,-0.028C0.128,-0.03 0.135,-0.031 0.145,-0.031L0.153,-0.031C0.19,-0.031 0.214,-0.033 0.225,-0.039C0.236,-0.044 0.243,-0.056 0.247,-0.073L0.365,-0.547C0.328,-0.52 0.291,-0.506 0.254,-0.506C0.243,-0.506 0.238,-0.51 0.238,-0.518C0.238,-0.529 0.243,-0.535 0.254,-0.537C0.32,-0.544 0.379,-0.581 0.43,-0.65C0.439,-0.661 0.445,-0.666 0.449,-0.666C0.457,-0.666 0.461,-0.662 0.461,-0.654C0.461,-0.651 0.46,-0.647 0.458,-0.641L0.315,-0.07C0.313,-0.062 0.312,-0.055 0.312,-0.051C0.312,-0.044 0.314,-0.04 0.317,-0.038C0.32,-0.036 0.328,-0.035 0.34,-0.033C0.357,-0.032 0.371,-0.031 0.383,-0.031L0.391,-0.031C0.398,-0.031 0.402,-0.031 0.406,-0.03C0.409,-0.03 0.411,-0.029 0.414,-0.027C0.416,-0.026 0.417,-0.023 0.417,-0.019C0.417,-0.006 0.41,-0 0.397,-0C0.382,-0 0.36,-0 0.33,-0.001C0.3,-0.002 0.278,-0.003 0.263,-0.003C0.249,-0.003 0.227,-0.002 0.198,-0.001C0.169,-0 0.146,-0 0.132,-0C0.122,-0 0.117,-0.004 0.117,-0.012Z" style="fill-rule:nonzero;"/>
                    </g>
                </g>
            </g>
        </g>
    </g>
</svg>
