<?xml version="1.0" encoding="UTF-8" standalone="no"?>
<!DOCTYPE svg PUBLIC "-//W3C//DTD SVG 1.1//EN" "http://www.w3.org/Graphics/SVG/1.1/DTD/svg11.dtd">
<svg width="100%" height="100%" viewBox="0 0 150 50" version="1.1" xmlns="http://www.w3.org/2000/svg" xmlns:xlink="http://www.w3.org/1999/xlink" xml:space="preserve" xmlns:serif="http://www.serif.com/" style="fill-rule:evenodd;clip-rule:evenodd;stroke-linecap:round;stroke-linejoin:round;stroke-miterlimit:1.5;">
    <g transform="matrix(1,0,0,1,0,-57)">
        <g transform="matrix(1.34774,0,0,1.0022,67.3869,-83.6298)">
            <rect id="cantilever_0" x="-50" y="140.321" width="111.298" height="49.89" style="fill:none;"/>
            <clipPath id="_clip1">
                <rect id="cantilever_01" serif:id="cantilever_0" x="-50" y="140.321" width="111.298" height="49.89"/>
            </clipPath>
            <g clip-path="url(#_clip1)">
                <g transform="matrix(0.737311,0,0,0.997805,-35.6606,138.768)">
                    <rect x="8.421" y="22.434" width="85.574" height="9.512" style="fill:rgb(230,230,230);fill-rule:nonzero;stroke:black;stroke-width:0.65px;"/>
                </g>
                <g id="rect10090" transform="matrix(0.741984,0,0,0.921772,-35.7,143.547)">
                    <rect x="0.5" y="7.746" width="7.956" height="37.887" style="fill:url(#_Linear2);fill-rule:nonzero;"/>
                </g>
                <g transform="matrix(0.775112,0,0,1,1.27035,0)">
                    <g id="path10100" transform="matrix(0.95726,0,0,1.48239,-48.2127,135.374)">
                        <g transform="matrix(1,-0,-0,0.673106,-18.7337,3.33708)">
                            <path d="M110.479,18.383L112.729,25.133L114.979,18.383L110.479,18.383Z" style="fill:rgb(225,32,32);fill-rule:nonzero;"/>
                            <path d="M112.729,19.733L112.729,0.389" style="fill:none;fill-rule:nonzero;stroke:rgb(225,32,32);stroke-width:1.5px;"/>
                        </g>
                    </g>
                    <g id="path17940" transform="matrix(0.95726,0,0,0.997805,-47.6967,138.768)">
                        <g transform="matrix(1,-0,-0,1,-19.2727,1.55689)">
                            <path d="M125.396,27.883L132.146,25.633L125.396,23.383L125.396,27.883Z" style="fill:rgb(225,32,32);fill-rule:nonzero;"/>
                            <path d="M126.746,25.633L113.494,25.633" style="fill:none;fill-rule:nonzero;stroke:rgb(225,32,32);stroke-width:1.5px;"/>
                        </g>
                    </g>
                    <g transform="matrix(2.71383,0,0,2.82878,32.4126,147.316)">
                        <g transform="matrix(3.52734,0,0,3.52734,0,0)">
                            <path d="M0.156,-0.662L0.417,-0.662C0.485,-0.662 0.536,-0.647 0.57,-0.618C0.604,-0.588 0.621,-0.553 0.621,-0.51C0.621,-0.477 0.61,-0.444 0.589,-0.413C0.567,-0.381 0.535,-0.355 0.493,-0.336C0.451,-0.316 0.405,-0.306 0.356,-0.306C0.325,-0.306 0.286,-0.312 0.239,-0.323L0.187,-0.142C0.174,-0.099 0.168,-0.071 0.168,-0.057C0.168,-0.047 0.172,-0.038 0.181,-0.031C0.19,-0.024 0.211,-0.02 0.244,-0.018L0.239,-0L-0.024,-0L-0.019,-0.018C0.016,-0.018 0.04,-0.024 0.053,-0.036C0.067,-0.048 0.082,-0.081 0.097,-0.134L0.207,-0.511C0.22,-0.556 0.226,-0.587 0.226,-0.602C0.226,-0.613 0.221,-0.623 0.212,-0.63C0.203,-0.638 0.182,-0.642 0.151,-0.644L0.156,-0.662ZM0.248,-0.354C0.284,-0.344 0.314,-0.339 0.336,-0.339C0.372,-0.339 0.404,-0.347 0.433,-0.361C0.462,-0.376 0.485,-0.398 0.502,-0.427C0.518,-0.457 0.526,-0.487 0.526,-0.519C0.526,-0.551 0.516,-0.577 0.496,-0.597C0.476,-0.616 0.445,-0.625 0.404,-0.625C0.382,-0.625 0.355,-0.623 0.324,-0.617L0.248,-0.354Z" style="fill:rgb(255,0,0);fill-rule:nonzero;"/>
                        </g>
                    </g>
                    <g transform="matrix(2.71383,0,0,2.82878,49.7162,177.25)">
                        <g transform="matrix(3.52734,0,0,3.52734,0,0)">
                            <path d="M0.325,-0.627L0.247,-0.365L0.334,-0.365C0.373,-0.365 0.402,-0.371 0.422,-0.383C0.441,-0.395 0.461,-0.421 0.481,-0.46L0.5,-0.46L0.431,-0.219L0.412,-0.219C0.417,-0.238 0.419,-0.254 0.419,-0.267C0.419,-0.287 0.412,-0.302 0.399,-0.313C0.386,-0.324 0.361,-0.33 0.325,-0.33L0.237,-0.33L0.18,-0.13C0.169,-0.094 0.164,-0.071 0.164,-0.059C0.164,-0.047 0.169,-0.038 0.177,-0.031C0.186,-0.025 0.208,-0.02 0.243,-0.018L0.237,-0L-0.024,-0L-0.018,-0.018C0.007,-0.019 0.024,-0.021 0.033,-0.025C0.046,-0.03 0.055,-0.038 0.062,-0.047C0.07,-0.061 0.081,-0.088 0.093,-0.13L0.209,-0.529C0.219,-0.561 0.224,-0.586 0.224,-0.604C0.224,-0.613 0.222,-0.62 0.217,-0.626C0.213,-0.632 0.207,-0.637 0.198,-0.64C0.19,-0.643 0.174,-0.644 0.149,-0.644L0.155,-0.662L0.668,-0.662L0.62,-0.495L0.601,-0.495C0.605,-0.515 0.606,-0.531 0.606,-0.544C0.606,-0.566 0.601,-0.583 0.589,-0.595C0.577,-0.608 0.562,-0.617 0.543,-0.622C0.53,-0.625 0.501,-0.627 0.456,-0.627L0.325,-0.627Z" style="fill:rgb(255,0,0);fill-rule:nonzero;"/>
                        </g>
                    </g>
                    <g transform="matrix(2.71383,0,0,2.82878,46.1244,161.152)">
                        <g transform="matrix(3.52734,0,0,3.52734,0,0)">
                            <path d="M0.148,-0.644L0.155,-0.662L0.391,-0.662C0.431,-0.662 0.466,-0.656 0.497,-0.644C0.528,-0.631 0.552,-0.614 0.567,-0.592C0.583,-0.57 0.59,-0.546 0.59,-0.521C0.59,-0.483 0.577,-0.449 0.549,-0.418C0.522,-0.387 0.477,-0.365 0.415,-0.35C0.455,-0.335 0.484,-0.315 0.503,-0.291C0.522,-0.266 0.531,-0.239 0.531,-0.209C0.531,-0.176 0.523,-0.145 0.506,-0.115C0.489,-0.085 0.467,-0.062 0.441,-0.045C0.414,-0.028 0.382,-0.016 0.345,-0.008C0.318,-0.003 0.276,-0 0.22,-0L-0.023,-0L-0.017,-0.018C0.009,-0.019 0.026,-0.021 0.035,-0.025C0.048,-0.031 0.057,-0.038 0.063,-0.047C0.071,-0.06 0.081,-0.088 0.094,-0.132L0.213,-0.533C0.223,-0.567 0.228,-0.591 0.228,-0.604C0.228,-0.617 0.224,-0.626 0.215,-0.633C0.206,-0.64 0.189,-0.644 0.164,-0.644C0.158,-0.644 0.153,-0.644 0.148,-0.644ZM0.247,-0.369C0.268,-0.368 0.284,-0.368 0.293,-0.368C0.361,-0.368 0.411,-0.383 0.444,-0.412C0.477,-0.442 0.494,-0.479 0.494,-0.523C0.494,-0.556 0.484,-0.583 0.463,-0.601C0.443,-0.62 0.411,-0.629 0.367,-0.629C0.355,-0.629 0.34,-0.627 0.322,-0.624L0.247,-0.369ZM0.151,-0.043C0.186,-0.038 0.214,-0.036 0.233,-0.036C0.284,-0.036 0.329,-0.051 0.368,-0.082C0.408,-0.113 0.427,-0.154 0.427,-0.207C0.427,-0.247 0.415,-0.278 0.391,-0.3C0.367,-0.323 0.327,-0.334 0.273,-0.334C0.263,-0.334 0.25,-0.333 0.235,-0.333L0.151,-0.043Z" style="fill-rule:nonzero;"/>
                        </g>
                    </g>
                    <g transform="matrix(0.847354,0,0,0.883244,-136.777,157.587)">
                        <circle cx="210.695" cy="8.695" r="1.695"/>
                    </g>
                </g>
                <g transform="matrix(0.775112,0,0,1,1.27035,0)">
                    <g id="path13564" transform="matrix(0.642119,0,0,0.997805,-49.2352,134.604)">
                        <g transform="matrix(1.49078,-0,-0,1,-26.3355,5.72989)">
                            <path d="M29.979,39.639L27.729,40.389L29.979,41.139L29.979,39.639Z" style="fill-rule:nonzero;"/>
                            <path d="M29.529,40.389L65.853,40.389" style="fill:none;fill-rule:nonzero;stroke:black;stroke-width:0.5px;"/>
                        </g>
                    </g>
                    <g id="path135641" serif:id="path13564" transform="matrix(2.30512,0,0,0.997805,-160.323,134.604)">
                        <g transform="matrix(0.415276,-0,-0,1,40.8555,5.72989)">
                            <path d="M110.479,39.639L112.729,40.389L110.479,41.139L110.479,39.639Z" style="fill-rule:nonzero;"/>
                            <path d="M74.604,40.389L110.929,40.389" style="fill:none;fill-rule:nonzero;stroke:black;stroke-width:0.5px;"/>
                        </g>
                    </g>
                    <g transform="matrix(2.71383,0,0,2.82878,-1.04945,183.595)">
                        <g transform="matrix(3.52734,0,0,3.52734,0,0)">
                            <path d="M0.458,-0L-0.032,-0L-0.025,-0.018C0.001,-0.019 0.018,-0.021 0.027,-0.024C0.041,-0.03 0.051,-0.038 0.057,-0.047C0.067,-0.062 0.078,-0.089 0.089,-0.128L0.206,-0.531C0.216,-0.564 0.221,-0.589 0.221,-0.604C0.221,-0.617 0.216,-0.626 0.207,-0.633C0.198,-0.64 0.181,-0.644 0.157,-0.644C0.151,-0.644 0.147,-0.644 0.144,-0.644L0.149,-0.662L0.419,-0.662L0.416,-0.644C0.385,-0.644 0.364,-0.641 0.351,-0.635C0.338,-0.629 0.328,-0.62 0.319,-0.606C0.313,-0.598 0.304,-0.57 0.291,-0.524L0.176,-0.128C0.167,-0.098 0.163,-0.078 0.163,-0.066C0.163,-0.058 0.167,-0.051 0.176,-0.043C0.181,-0.039 0.194,-0.036 0.213,-0.036L0.277,-0.036C0.324,-0.036 0.361,-0.042 0.388,-0.054C0.408,-0.063 0.427,-0.076 0.444,-0.093C0.453,-0.103 0.469,-0.127 0.492,-0.166L0.505,-0.188L0.523,-0.188L0.458,-0Z" style="fill-rule:nonzero;"/>
                        </g>
                    </g>
                </g>
                <g id="path18712" transform="matrix(0.741984,0,0,0.855249,-36.0457,143.035)">
                    <path d="M93.922,33.446L93.922,49.781" style="fill:none;fill-rule:nonzero;stroke:black;stroke-width:0.54px;"/>
                </g>
                <g transform="matrix(2.10353,0,0,2.82878,-27.9573,159.055)">
                    <g transform="matrix(3.52734,0,0,3.52734,0,0)">
                        <path d="M0.515,-0.677L0.465,-0.126C0.462,-0.101 0.461,-0.084 0.461,-0.076C0.461,-0.063 0.463,-0.053 0.468,-0.046C0.474,-0.036 0.483,-0.029 0.493,-0.025C0.504,-0.02 0.522,-0.018 0.547,-0.018L0.542,-0L0.281,-0L0.286,-0.018L0.297,-0.018C0.319,-0.018 0.336,-0.023 0.349,-0.032C0.359,-0.038 0.366,-0.048 0.371,-0.063C0.375,-0.073 0.378,-0.096 0.381,-0.134L0.389,-0.218L0.2,-0.218L0.132,-0.126C0.117,-0.106 0.107,-0.091 0.104,-0.082C0.1,-0.073 0.098,-0.065 0.098,-0.057C0.098,-0.047 0.102,-0.038 0.11,-0.03C0.119,-0.023 0.133,-0.019 0.152,-0.018L0.147,-0L-0.049,-0L-0.043,-0.018C-0.019,-0.019 0.002,-0.027 0.02,-0.042C0.039,-0.057 0.066,-0.09 0.103,-0.139L0.498,-0.677L0.515,-0.677ZM0.418,-0.515L0.227,-0.253L0.393,-0.253L0.418,-0.515Z" style="fill-rule:nonzero;"/>
                    </g>
                </g>
                <g transform="matrix(0.656795,0,0,0.883244,-167.816,157.975)">
                    <circle cx="210.695" cy="8.695" r="1.695"/>
                </g>
            </g>
        </g>
    </g>
    <defs>
        <linearGradient id="_Linear2" x1="0" y1="0" x2="1" y2="0" gradientUnits="userSpaceOnUse" gradientTransform="matrix(-7.955,9.74207e-16,-9.74207e-16,-7.955,8.42714,28.5066)"><stop offset="0" style="stop-color:black;stop-opacity:1"/><stop offset="1" style="stop-color:rgb(128,128,128);stop-opacity:0"/></linearGradient>
    </defs>
</svg>
