<?xml version="1.0" encoding="UTF-8" standalone="no"?>
<!DOCTYPE svg PUBLIC "-//W3C//DTD SVG 1.1//EN" "http://www.w3.org/Graphics/SVG/1.1/DTD/svg11.dtd">
<svg width="100%" height="100%" viewBox="0 0 352 84" version="1.1" xmlns="http://www.w3.org/2000/svg" xmlns:xlink="http://www.w3.org/1999/xlink" xml:space="preserve" xmlns:serif="http://www.serif.com/" style="fill-rule:evenodd;clip-rule:evenodd;stroke-linecap:round;stroke-linejoin:round;stroke-miterlimit:1.5;">
    <g id="Artboard1" transform="matrix(1.7572,0,0,0.41774,0,0)">
        <rect x="0" y="0" width="200" height="200" style="fill:none;"/>
        <clipPath id="_clip1">
            <rect x="0" y="0" width="200" height="200"/>
        </clipPath>
        <g clip-path="url(#_clip1)">
            <g transform="matrix(0.569087,0,0,2.39383,29.6877,-308.904)">
                <text x="216.667px" y="152.083px" style="font-family:'Times-Roman', 'Times';font-size:12.5px;">C</text>
            </g>
            <g transform="matrix(0.569087,0,0,2.39383,2.67686,-294.468)">
                <text x="139.583px" y="145.833px" style="font-family:'Times-Roman', 'Times';font-size:12.5px;">B</text>
            </g>
            <g transform="matrix(0.569087,0,0,2.39383,-1.3419,-278.981)">
                <text x="45.833px" y="139.583px" style="font-family:'Times-Roman', 'Times';font-size:12.5px;">A</text>
            </g>
            <g transform="matrix(1.13817,0,0,4.78767,0,-23.4629)">
                <g transform="matrix(-0.5,0,0,0.5,75,-12.5)">
                    <path d="M50,50L50,100L125,100L50,50Z" style="fill:rgb(230,230,230);stroke:black;stroke-width:1.04px;"/>
                </g>
                <g transform="matrix(0.5,0,0,0.215428,0,2.96429)">
                    <g transform="matrix(1,-0,-0,2.32096,-0,8.98861)">
                        <path d="M97.174,9.99L100.299,0.615L103.424,9.99L97.174,9.99Z"/>
                        <path d="M100.299,77.699L100.299,8.115" style="fill:none;stroke:black;stroke-width:2.08px;"/>
                    </g>
                </g>
            </g>
            <g transform="matrix(1.13817,0,0,4.78767,-14.2272,-24.7093)">
                <g transform="matrix(-0.5,0,0,0.5,137.5,-12.5)">
                    <path d="M50,50L50,100L125,100L50,50Z" style="fill:rgb(230,230,230);stroke:black;stroke-width:1px;"/>
                </g>
                <g transform="matrix(0.5,0,0,0.215428,49.6283,2.50851)">
                    <g transform="matrix(1,-0,-0,2.32096,-74.2566,12.3128)">
                        <path d="M171.431,8.558L174.556,-0.817L177.681,8.558L171.431,8.558Z"/>
                        <path d="M174.556,76.266L174.556,6.683" style="fill:none;stroke:black;stroke-width:2.08px;"/>
                    </g>
                </g>
            </g>
            <g transform="matrix(1.13817,0,0,4.78767,-14.2272,-20.9693)">
                <g transform="matrix(-0.5,0,0,0.5,200,-12.5)">
                    <path d="M50,50L50,100L125,100L50,50Z" style="fill:rgb(230,230,230);stroke:black;stroke-width:1px;"/>
                </g>
                <g transform="matrix(0.5,0,0,0.215428,87.3505,2.44346)">
                    <g transform="matrix(1,-0,-0,2.32096,-149.701,8.98861)">
                        <path d="M246.875,9.99L250,0.615L253.125,9.99L246.875,9.99Z"/>
                        <path d="M250,77.699L250,8.115" style="fill:none;stroke:black;stroke-width:2.08px;"/>
                    </g>
                </g>
            </g>
        </g>
    </g>
</svg>
