<?xml version="1.0" encoding="UTF-8" standalone="no"?>
<!DOCTYPE svg PUBLIC "-//W3C//DTD SVG 1.1//EN" "http://www.w3.org/Graphics/SVG/1.1/DTD/svg11.dtd">
<svg width="100%" height="100%" viewBox="0 0 509 366" version="1.1" xmlns="http://www.w3.org/2000/svg" xmlns:xlink="http://www.w3.org/1999/xlink" xml:space="preserve" xmlns:serif="http://www.serif.com/" style="fill-rule:evenodd;clip-rule:evenodd;stroke-linecap:round;stroke-linejoin:round;stroke-miterlimit:10;">
    <g transform="matrix(1,0,0,1,-551,0)">
        <g id="example-p-to-r" transform="matrix(1,0,0,1,-340.444,2.84217e-14)">
            <rect x="891.444" y="-0" width="508.556" height="365.444" style="fill:none;"/>
            <clipPath id="_clip1">
                <rect x="891.444" y="-0" width="508.556" height="365.444"/>
            </clipPath>
            <g clip-path="url(#_clip1)">
                <g id="example-p-to-r1" serif:id="example-p-to-r" transform="matrix(1.27778,0,0,1.27778,1146.17,183.722)">
                    <g transform="matrix(1,0,0,1,-199,-143)">
                        <clipPath id="_clip2">
                            <rect x="0" y="0" width="398" height="286"/>
                        </clipPath>
                        <g clip-path="url(#_clip2)">
                            <g>
                                <g>
                                    <g>
                                        <path d="M199,143L199,143Z" style="fill:none;fill-rule:nonzero;stroke:rgb(192,192,192);stroke-width:2.05px;"/>
                                    </g>
                                </g>
                                <g>
                                    <g>
                                        <path d="M234.687,143C234.687,162.706 218.706,178.687 199,178.687C179.294,178.687 163.313,162.706 163.313,143C163.313,123.294 179.294,107.313 199,107.313C218.706,107.313 234.687,123.294 234.687,143Z" style="fill:none;fill-rule:nonzero;stroke:rgb(192,192,192);stroke-width:2.05px;"/>
                                    </g>
                                </g>
                                <g>
                                    <g>
                                        <path d="M270.364,143C270.364,182.411 238.411,214.364 199,214.364C159.589,214.364 127.636,182.411 127.636,143C127.636,103.589 159.589,71.636 199,71.636C238.411,71.636 270.364,103.589 270.364,143Z" style="fill:none;fill-rule:nonzero;stroke:rgb(192,192,192);stroke-width:2.05px;"/>
                                    </g>
                                </g>
                                <g>
                                    <g>
                                        <path d="M306.041,143C306.041,202.117 258.117,250.041 199,250.041C139.883,250.041 91.954,202.117 91.954,143C91.954,83.88 139.883,35.954 199,35.954C258.117,35.954 306.041,83.88 306.041,143Z" style="fill:none;fill-rule:nonzero;stroke:rgb(192,192,192);stroke-width:2.05px;"/>
                                    </g>
                                </g>
                                <g>
                                    <g>
                                        <path d="M341.728,143C341.728,221.822 277.822,285.728 199,285.728C120.178,285.728 56.272,221.822 56.272,143C56.272,64.173 120.178,0.272 199,0.272C277.822,0.272 341.728,64.173 341.728,143Z" style="fill:none;fill-rule:nonzero;stroke:rgb(192,192,192);stroke-width:2.05px;"/>
                                    </g>
                                </g>
                                <g>
                                    <g>
                                        <path d="M377.414,143C377.414,241.528 297.528,321.414 199,321.414C100.467,321.414 20.591,241.528 20.591,143C20.591,44.467 100.467,-35.409 199,-35.409C297.528,-35.409 377.414,44.467 377.414,143Z" style="fill:none;fill-rule:nonzero;stroke:rgb(192,192,192);stroke-width:2.05px;"/>
                                    </g>
                                </g>
                                <g>
                                    <g>
                                        <path d="M413.091,143C413.091,261.244 317.244,357.091 199,357.091C80.76,357.091 -15.091,261.244 -15.091,143C-15.091,24.76 80.76,-71.091 199,-71.091C317.244,-71.091 413.091,24.76 413.091,143Z" style="fill:none;fill-rule:nonzero;stroke:rgb(192,192,192);stroke-width:2.05px;"/>
                                    </g>
                                </g>
                                <g>
                                    <g>
                                        <path d="M0,143L398,143" style="fill:none;fill-rule:nonzero;stroke:rgb(192,192,192);stroke-width:2.05px;"/>
                                    </g>
                                </g>
                                <g>
                                    <g>
                                        <path d="M0,257.888L398,28.107" style="fill:none;fill-rule:nonzero;stroke:rgb(192,192,192);stroke-width:2.05px;"/>
                                    </g>
                                </g>
                                <g>
                                    <g>
                                        <path d="M0,487.674L398,-201.674" style="fill:none;fill-rule:nonzero;stroke:rgb(192,192,192);stroke-width:2.05px;"/>
                                    </g>
                                </g>
                                <g>
                                    <g>
                                        <path d="M199,0.272L199,285.728" style="fill:none;fill-rule:nonzero;stroke:rgb(192,192,192);stroke-width:2.05px;"/>
                                    </g>
                                </g>
                                <g>
                                    <g>
                                        <path d="M0,-201.674L398,487.674" style="fill:none;fill-rule:nonzero;stroke:rgb(192,192,192);stroke-width:2.05px;"/>
                                    </g>
                                </g>
                                <g>
                                    <g>
                                        <path d="M0,28.107L398,257.888" style="fill:none;fill-rule:nonzero;stroke:rgb(192,192,192);stroke-width:2.05px;"/>
                                    </g>
                                </g>
                                <g>
                                    <g>
                                        <path d="M0,143L398,143" style="fill:none;fill-rule:nonzero;stroke:rgb(192,192,192);stroke-width:2.05px;"/>
                                    </g>
                                </g>
                                <g>
                                    <g>
                                        <path d="M198.488,143L395.954,143" style="fill:none;fill-rule:nonzero;stroke:black;stroke-width:1.02px;stroke-linecap:butt;stroke-linejoin:miter;"/>
                                    </g>
                                </g>
                                <g>
                                    <g>
                                        <path d="M396.977,143L392.884,138.907" style="fill:none;fill-rule:nonzero;stroke:black;stroke-width:1.02px;stroke-linecap:butt;stroke-linejoin:miter;"/>
                                    </g>
                                </g>
                                <g>
                                    <g>
                                        <path d="M396.977,143L392.884,147.093" style="fill:none;fill-rule:nonzero;stroke:black;stroke-width:1.02px;stroke-linecap:butt;stroke-linejoin:miter;"/>
                                    </g>
                                </g>
                                <g>
                                    <g>
                                        <path d="M199,143L199,146.069" style="fill:none;fill-rule:nonzero;stroke:black;stroke-width:1.02px;stroke-linecap:butt;stroke-linejoin:miter;"/>
                                    </g>
                                </g>
                                <g>
                                    <g>
                                        <path d="M263.765,158.859L263.765,157.968L265.545,157.968L265.545,150.97L263.765,151.41L263.765,150.5L266.732,149.763L266.732,157.968L268.502,157.968L268.502,158.859L263.765,158.859ZM273.535,159.084C272.621,159.084 271.881,158.651 271.315,157.784C270.749,156.925 270.466,155.803 270.466,154.418C270.466,153.02 270.749,151.894 271.315,151.042C271.888,150.189 272.639,149.763 273.566,149.763C274.501,149.763 275.251,150.189 275.817,151.042C276.39,151.894 276.677,153.013 276.677,154.398C276.677,155.823 276.39,156.959 275.817,157.805C275.251,158.657 274.49,159.084 273.535,159.084ZM273.546,158.194C274.801,158.194 275.428,156.921 275.428,154.377C275.428,151.894 274.808,150.653 273.566,150.653C272.338,150.653 271.725,151.908 271.725,154.418C271.725,156.935 272.332,158.194 273.546,158.194ZM281.301,159.084C280.387,159.084 279.647,158.651 279.081,157.784C278.515,156.925 278.232,155.803 278.232,154.418C278.232,153.02 278.515,151.894 279.081,151.042C279.654,150.189 280.404,149.763 281.332,149.763C282.266,149.763 283.017,150.189 283.583,151.042C284.156,151.894 284.442,153.013 284.442,154.398C284.442,155.823 284.156,156.959 283.583,157.805C283.017,158.657 282.256,159.084 281.301,159.084ZM281.311,158.194C282.56,158.194 283.184,156.921 283.184,154.377C283.184,151.894 282.566,150.653 281.332,150.653C280.104,150.653 279.49,151.908 279.49,154.418C279.49,156.935 280.097,158.194 281.311,158.194Z" style="fill-rule:nonzero;"/>
                                    </g>
                                </g>
                                <g>
                                    <g>
                                        <path d="M270.364,143L270.364,146.069" style="fill:none;fill-rule:nonzero;stroke:black;stroke-width:1.02px;stroke-linecap:butt;stroke-linejoin:miter;"/>
                                    </g>
                                </g>
                                <g>
                                    <g>
                                        <path d="M334.566,158.859L334.566,157.825C334.907,157.02 335.602,156.144 336.653,155.196L337.328,154.592C338.194,153.801 338.627,153.02 338.627,152.249C338.627,151.751 338.481,151.359 338.187,151.073C337.887,150.793 337.478,150.653 336.96,150.653C336.346,150.653 335.619,150.892 334.78,151.369L334.78,150.326C335.572,149.951 336.353,149.763 337.123,149.763C337.956,149.763 338.624,149.988 339.129,150.438C339.633,150.882 339.886,151.475 339.886,152.218C339.886,152.75 339.76,153.221 339.507,153.63C339.255,154.04 338.781,154.541 338.085,155.134L337.635,155.523C336.687,156.321 336.138,157.089 335.988,157.825L339.845,157.825L339.845,158.859L334.566,158.859ZM345.155,159.084C344.241,159.084 343.501,158.651 342.935,157.784C342.369,156.925 342.086,155.803 342.086,154.418C342.086,153.02 342.369,151.894 342.935,151.042C343.508,150.189 344.258,149.763 345.186,149.763C346.12,149.763 346.87,150.189 347.437,151.042C348.01,151.894 348.296,153.013 348.296,154.398C348.296,155.823 348.01,156.959 347.437,157.805C346.87,158.657 346.11,159.084 345.155,159.084ZM345.165,158.194C346.42,158.194 347.048,156.921 347.048,154.377C347.048,151.894 346.427,150.653 345.186,150.653C343.958,150.653 343.344,151.908 343.344,154.418C343.344,156.935 343.951,158.194 345.165,158.194ZM352.921,159.084C352.007,159.084 351.267,158.651 350.7,157.784C350.134,156.925 349.851,155.803 349.851,154.418C349.851,153.02 350.134,151.894 350.7,151.042C351.273,150.189 352.024,149.763 352.951,149.763C353.886,149.763 354.636,150.189 355.202,151.042C355.775,151.894 356.062,153.013 356.062,154.398C356.062,155.823 355.775,156.959 355.202,157.805C354.636,158.657 353.876,159.084 352.921,159.084ZM352.931,158.194C354.179,158.194 354.803,156.921 354.803,154.377C354.803,151.894 354.186,150.653 352.951,150.653C351.724,150.653 351.11,151.908 351.11,154.418C351.11,156.935 351.717,158.194 352.931,158.194Z" style="fill-rule:nonzero;"/>
                                    </g>
                                </g>
                                <g id="layer0">
                                    <g>
                                        <g>
                                            <path d="M199,143L96.66,202.086" style="fill:none;fill-rule:nonzero;stroke:black;stroke-opacity:0.7;stroke-width:4.09px;"/>
                                        </g>
                                    </g>
                                    <g>
                                        <g>
                                            <path d="M75.394,214.364L93.59,196.766L99.729,207.406L75.394,214.364Z" style="fill-opacity:0.7;"/>
                                        </g>
                                    </g>
                                    <g>
                                        <g>
                                            <path d="M204.116,143C204.116,145.824 201.824,148.116 199,148.116C196.176,148.116 193.884,145.824 193.884,143C193.884,140.176 196.176,137.884 199,137.884C201.824,137.884 204.116,140.176 204.116,143Z" style="fill-rule:nonzero;"/>
                                        </g>
                                    </g>
                                    <g>
                                        <g>
                                            <path d="M204.116,143C204.116,145.824 201.824,148.116 199,148.116C196.176,148.116 193.884,145.824 193.884,143C193.884,140.176 196.176,137.884 199,137.884C201.824,137.884 204.116,140.176 204.116,143Z" style="fill:none;fill-rule:nonzero;stroke:black;stroke-width:1.02px;"/>
                                        </g>
                                    </g>
                                </g>
                                <g transform="matrix(1,0,0,1,-24.123,66)">
                                    <g transform="matrix(0.869641,0,0,0.583192,-0.231725,36.1163)">
                                        <rect x="84.492" y="205.565" width="105.508" height="27.435" style="fill:white;"/>
                                    </g>
                                    <g transform="matrix(1,0,0,1,-12.5815,-55.0446)">
                                        <g transform="matrix(0.19,0,0,0.19,85.9434,225.07)">
                                            <g>
                                                <g>
                                                    <path d="M30.998,-32.979L24.651,-7.497C24.385,-6.474 24.251,-5.691 24.251,-5.147C24.251,-4.198 24.694,-3.618 25.578,-3.404C26.058,-3.276 26.708,-3.175 27.529,-3.101C29.234,-2.962 31.003,-2.893 32.837,-2.893C34.542,-2.893 35.501,-2.861 35.714,-2.797L36.225,-2.078C36.289,-1.939 36.321,-1.806 36.321,-1.678C36.321,-0.378 35.607,0.272 34.179,0.272L19.024,-0.031L18.928,-0.031L5.531,0.272L5.419,0.272C4.396,0.272 3.885,-0.138 3.885,-0.958C3.885,-2.12 4.434,-2.765 5.531,-2.893L6.746,-2.893C11.18,-2.893 13.844,-3.372 14.739,-4.332C15.144,-4.811 15.55,-5.765 15.955,-7.193C15.955,-7.268 15.992,-7.438 16.066,-7.705L29.575,-61.835C29.916,-63.061 30.086,-63.876 30.086,-64.281C30.086,-65.443 28.514,-66.061 25.371,-66.135L23.436,-66.135C21.656,-66.135 20.697,-66.508 20.559,-67.254C20.559,-68.48 21.108,-69.162 22.205,-69.301L73.762,-69.301C75.403,-69.301 76.293,-69.061 76.431,-68.582L76.528,-68.582C76.666,-68.176 76.666,-67.494 76.528,-66.535L74.481,-48.838C74.002,-47.271 73.527,-46.419 73.058,-46.28C72.238,-46.28 71.827,-46.69 71.827,-47.511C71.827,-47.852 71.896,-48.465 72.035,-49.35C72.238,-51.193 72.339,-53.037 72.339,-54.881C72.339,-59.443 71.177,-62.475 68.854,-63.977L68.758,-64.089C66.573,-65.453 62.784,-66.135 57.392,-66.135L43.899,-66.135C41.373,-66.135 39.87,-65.757 39.391,-65.001L39.295,-65.001L39.295,-64.904C39.082,-64.627 38.911,-64.217 38.783,-63.674L38.783,-63.577L38.671,-63.466C38.607,-63.199 38.506,-62.757 38.368,-62.139L31.813,-36.145L41.133,-36.145C46.11,-36.145 49.452,-37.067 51.157,-38.911L51.253,-39.022C52.415,-40.312 53.438,-42.63 54.322,-45.976C54.663,-47.266 55.175,-47.98 55.857,-48.119C56.614,-48.119 57.024,-47.746 57.088,-46.999C57.088,-46.658 56.987,-46.11 56.784,-45.353L51.157,-23.163C50.475,-21.799 49.963,-21.08 49.622,-21.006C48.802,-21.006 48.391,-21.416 48.391,-22.237C48.391,-22.513 48.493,-22.887 48.695,-23.356C49.175,-25.402 49.414,-27.075 49.414,-28.375C49.414,-30.357 48.663,-31.652 47.16,-32.26C45.871,-32.74 43.792,-32.979 40.925,-32.979L30.998,-32.979Z" style="fill-rule:nonzero;"/>
                                                </g>
                                            </g>
                                        </g>
                                        <g transform="matrix(0.19,0,0,0.19,106.539,225.07)">
                                            <g>
                                                <g>
                                                    <path d="M70.293,-33.187L9.208,-33.187C7.023,-33.187 5.862,-33.869 5.723,-35.233C5.723,-36.598 6.853,-37.28 9.112,-37.28L70.389,-37.28C72.573,-37.28 73.698,-36.598 73.762,-35.233C73.762,-33.869 72.605,-33.187 70.293,-33.187ZM70.389,-13.332L9.112,-13.332C6.927,-13.332 5.798,-14.014 5.723,-15.378C5.723,-16.743 6.885,-17.425 9.208,-17.425L70.293,-17.425C72.477,-17.425 73.634,-16.743 73.762,-15.378C73.762,-14.014 72.638,-13.332 70.389,-13.332Z" style="fill-rule:nonzero;"/>
                                                </g>
                                            </g>
                                        </g>
                                        <g transform="matrix(0.19,0,0,0.19,127.063,225.07)">
                                            <g>
                                                <g>
                                                    <path d="M45.945,-17.536L43.068,0.272L5.116,0.272C5.116,-1.433 5.318,-2.525 5.723,-3.005L6.235,-3.516L25.882,-25.402C33.044,-33.459 36.625,-40.999 36.625,-48.023C36.625,-54.087 34.787,-58.691 31.109,-61.835L30.998,-61.931L30.902,-61.931C28.717,-63.775 26.058,-64.697 22.924,-64.697C18.011,-64.697 14.089,-62.581 11.158,-58.35C10.338,-57.124 9.656,-55.76 9.112,-54.258C9.315,-54.332 9.757,-54.369 10.439,-54.369C13.167,-54.369 14.905,-53.138 15.651,-50.677L15.651,-50.58C15.789,-50.101 15.859,-49.589 15.859,-49.046C15.859,-46.317 14.564,-44.575 11.974,-43.819C11.43,-43.69 10.951,-43.626 10.535,-43.626C8.009,-43.626 6.341,-44.681 5.531,-46.792C5.254,-47.538 5.116,-48.391 5.116,-49.35C5.116,-54.604 7.13,-59.107 11.158,-62.858C14.771,-66.194 19.136,-67.862 24.251,-67.862C31.754,-67.862 37.584,-65.342 41.741,-60.3C44.128,-57.369 45.492,-53.89 45.833,-49.861C45.908,-49.243 45.945,-48.63 45.945,-48.023C45.945,-43.045 44.069,-38.303 40.318,-33.795C38.336,-31.482 35.266,-28.412 31.109,-24.587L24.859,-19.071L23.836,-18.144L12.997,-7.609L31.413,-7.609C37.414,-7.609 40.654,-7.881 41.133,-8.424C41.815,-9.383 42.567,-12.421 43.387,-17.536L45.945,-17.536Z" style="fill-rule:nonzero;"/>
                                                </g>
                                            </g>
                                        </g>
                                        <g transform="matrix(0.19,0,0,0.19,136.783,225.07)">
                                            <g>
                                                <g>
                                                    <path d="M47.064,-32.468C47.064,-22.513 45.801,-14.808 43.276,-9.351C39.257,-1.71 33.326,2.249 25.482,2.527C19.269,2.527 14.287,0.07 10.535,-4.843C9.789,-5.728 9.144,-6.719 8.601,-7.817C5.531,-13.476 3.997,-21.693 3.997,-32.468C3.997,-42.497 5.254,-50.239 7.769,-55.696C11.18,-63.338 16.706,-67.393 24.348,-67.862L25.578,-67.862C31.653,-67.862 36.598,-65.443 40.414,-60.604L40.414,-60.508C41.373,-59.272 42.226,-57.908 42.972,-56.415C45.7,-50.618 47.064,-42.635 47.064,-32.468ZM25.482,0.272C29.777,0.272 33.081,-1.806 35.394,-5.962C36.353,-7.806 37.035,-9.991 37.441,-12.517C38.197,-16.886 38.575,-23.947 38.575,-33.699C38.575,-43.174 38.234,-49.824 37.552,-53.65C36.326,-60.13 33.188,-64.015 28.136,-65.304C27.252,-65.517 26.367,-65.624 25.482,-65.624C20.708,-65.624 17.228,-63.236 15.043,-58.462C14.287,-56.821 13.706,-54.838 13.301,-52.515C12.757,-48.838 12.485,-42.566 12.485,-33.699C12.485,-23.393 12.858,-16.194 13.605,-12.101C14.83,-5.557 17.831,-1.571 22.605,-0.143C23.564,0.134 24.523,0.272 25.482,0.272Z" style="fill-rule:nonzero;"/>
                                                </g>
                                            </g>
                                        </g>
                                        <g transform="matrix(0.19,0,0,0.19,146.503,225.07)">
                                            <g>
                                                <g>
                                                    <path d="M47.064,-32.468C47.064,-22.513 45.801,-14.808 43.276,-9.351C39.257,-1.71 33.326,2.249 25.482,2.527C19.269,2.527 14.287,0.07 10.535,-4.843C9.789,-5.728 9.144,-6.719 8.601,-7.817C5.531,-13.476 3.997,-21.693 3.997,-32.468C3.997,-42.497 5.254,-50.239 7.769,-55.696C11.18,-63.338 16.706,-67.393 24.348,-67.862L25.578,-67.862C31.653,-67.862 36.598,-65.443 40.414,-60.604L40.414,-60.508C41.373,-59.272 42.226,-57.908 42.972,-56.415C45.7,-50.618 47.064,-42.635 47.064,-32.468ZM25.482,0.272C29.777,0.272 33.081,-1.806 35.394,-5.962C36.353,-7.806 37.035,-9.991 37.441,-12.517C38.197,-16.886 38.575,-23.947 38.575,-33.699C38.575,-43.174 38.234,-49.824 37.552,-53.65C36.326,-60.13 33.188,-64.015 28.136,-65.304C27.252,-65.517 26.367,-65.624 25.482,-65.624C20.708,-65.624 17.228,-63.236 15.043,-58.462C14.287,-56.821 13.706,-54.838 13.301,-52.515C12.757,-48.838 12.485,-42.566 12.485,-33.699C12.485,-23.393 12.858,-16.194 13.605,-12.101C14.83,-5.557 17.831,-1.571 22.605,-0.143C23.564,0.134 24.523,0.272 25.482,0.272Z" style="fill-rule:nonzero;"/>
                                                </g>
                                            </g>
                                        </g>
                                        <g transform="matrix(0.19,0,0,0.19,162.699,225.07)">
                                            <g>
                                                <g>
                                                    <path d="M23.74,-68.278L59.853,-15.171L59.853,-58.862C59.853,-61.793 58.932,-63.807 57.088,-64.904C55.319,-65.927 52.729,-66.439 49.318,-66.439L49.318,-69.605C56.48,-69.402 60.469,-69.301 61.284,-69.301C62.1,-69.301 66.088,-69.402 73.25,-69.605L73.25,-66.439C66.642,-66.439 63.168,-64.462 62.827,-60.508L62.715,-60.396L62.715,-2.381C62.715,-0.815 62.475,0.038 61.996,0.177L61.9,0.177C61.697,0.241 61.495,0.272 61.292,0.272C60.812,0.272 60.232,-0.17 59.55,-1.054L17.809,-62.443C17.532,-62.858 17.191,-63.268 16.786,-63.674L16.786,-10.47C16.786,-7.54 17.702,-5.525 19.536,-4.428C21.315,-3.404 23.91,-2.893 27.321,-2.893L27.321,0.272C20.159,0.07 16.168,-0.031 15.347,-0.031C14.526,-0.031 10.535,0.07 3.373,0.272L3.373,-2.893C9.992,-2.893 13.471,-4.875 13.812,-8.84C13.876,-9.245 13.909,-9.788 13.909,-10.47L13.909,-63.881C13.909,-65.043 13.637,-65.725 13.093,-65.927C12.826,-65.992 12.283,-66.093 11.462,-66.231C9.416,-66.37 7.711,-66.439 6.347,-66.439L3.373,-66.439L3.373,-69.605L20.767,-69.605C22.067,-69.605 22.919,-69.333 23.324,-68.789L23.436,-68.693L23.532,-68.582L23.628,-68.485L23.74,-68.278Z" style="fill-rule:nonzero;"/>
                                                </g>
                                            </g>
                                        </g>
                                    </g>
                                </g>
                            </g>
                        </g>
                    </g>
                </g>
            </g>
        </g>
    </g>
</svg>
