<?xml version="1.0" encoding="UTF-8" standalone="no"?>
<!DOCTYPE svg PUBLIC "-//W3C//DTD SVG 1.1//EN" "http://www.w3.org/Graphics/SVG/1.1/DTD/svg11.dtd">
<svg width="100%" height="100%" viewBox="0 0 200 200" version="1.1" xmlns="http://www.w3.org/2000/svg" xmlns:xlink="http://www.w3.org/1999/xlink" xml:space="preserve" xmlns:serif="http://www.serif.com/" style="fill-rule:evenodd;clip-rule:evenodd;stroke-linecap:round;stroke-linejoin:round;stroke-miterlimit:1.5;">
    <g transform="matrix(1,0,0,1,-21,-540)">
        <g id="rhr-definition" transform="matrix(1.19048,0,0,1.47059,5.52381,-229.118)">
            <rect x="13" y="523" width="168" height="136" style="fill:none;"/>
            <g id="Layer1" transform="matrix(0.84,0,0,0.68,-3.47327,161.24)">
                <g transform="matrix(4.31126e-16,-7.04082,1,6.12323e-17,-4,3238.85)">
                    <rect x="376" y="144" width="4.9" height="11" style="fill:none;"/>
                    <clipPath id="_clip1">
                        <rect x="376" y="144" width="4.9" height="11"/>
                    </clipPath>
                    <g clip-path="url(#_clip1)">
                        <g transform="matrix(0.142029,0,-9.00592e-33,1.29268,323.265,-63.7317)">
                            <g transform="matrix(1,0,0,0.773585,2,26.8679)">
                                <path d="M403,178.5C397.599,178.061 393.529,177.085 391.268,175.38" style="fill:none;stroke:rgb(225,32,32);stroke-width:1.5px;"/>
                            </g>
                            <g transform="matrix(1,0,0,-0.773585,1.77402,303.038)">
                                <path d="M403,178.5C397.599,178.061 393.529,177.085 391.268,175.38" style="fill:none;stroke:rgb(225,32,32);stroke-width:1.5px;"/>
                            </g>
                        </g>
                        <g transform="matrix(0.0200387,-9.85944e-18,1.23875e-18,-0.24,373.75,177.82)">
                            <path d="M118,118L351.818,118" style="fill:none;fill-rule:nonzero;stroke:rgb(225,32,32);stroke-width:7.68px;stroke-miterlimit:10;"/>
                        </g>
                    </g>
                </g>
                <g transform="matrix(-6.35328,3.03462,-0.431003,-0.90235,2528.77,-327.151)">
                    <rect x="376" y="144" width="4.9" height="11" style="fill:none;"/>
                    <clipPath id="_clip2">
                        <rect x="376" y="144" width="4.9" height="11"/>
                    </clipPath>
                    <g clip-path="url(#_clip2)">
                        <g transform="matrix(0.142029,0,-9.00592e-33,1.29268,323.265,-63.7317)">
                            <g transform="matrix(1,0,0,0.773585,2,26.8679)">
                                <path d="M403,178.5C397.599,178.061 393.529,177.085 391.268,175.38" style="fill:none;stroke:rgb(225,32,32);stroke-width:1.5px;"/>
                            </g>
                            <g transform="matrix(1,0,0,-0.773585,1.77402,303.038)">
                                <path d="M403,178.5C397.599,178.061 393.529,177.085 391.268,175.38" style="fill:none;stroke:rgb(225,32,32);stroke-width:1.5px;"/>
                            </g>
                        </g>
                        <g transform="matrix(0.0200387,-9.85944e-18,1.23875e-18,-0.24,373.75,177.82)">
                            <path d="M118,118L351.818,118" style="fill:none;fill-rule:nonzero;stroke:rgb(225,32,32);stroke-width:7.68px;stroke-miterlimit:10;"/>
                        </g>
                    </g>
                </g>
                <g transform="matrix(-6.88494,-1.47331,0.209252,-0.977862,2616.95,1334.61)">
                    <rect x="376" y="144" width="4.9" height="11" style="fill:none;"/>
                    <clipPath id="_clip3">
                        <rect x="376" y="144" width="4.9" height="11"/>
                    </clipPath>
                    <g clip-path="url(#_clip3)">
                        <g transform="matrix(0.142029,0,-9.00592e-33,1.29268,323.265,-63.7317)">
                            <g transform="matrix(1,0,0,0.773585,2,26.8679)">
                                <path d="M403,178.5C397.599,178.061 393.529,177.085 391.268,175.38" style="fill:none;stroke:rgb(225,32,32);stroke-width:1.5px;"/>
                            </g>
                            <g transform="matrix(1,0,0,-0.773585,1.77402,303.038)">
                                <path d="M403,178.5C397.599,178.061 393.529,177.085 391.268,175.38" style="fill:none;stroke:rgb(225,32,32);stroke-width:1.5px;"/>
                            </g>
                        </g>
                        <g transform="matrix(0.0200387,-9.85944e-18,1.23875e-18,-0.24,373.75,177.82)">
                            <path d="M118,118L351.818,118" style="fill:none;fill-rule:nonzero;stroke:rgb(225,32,32);stroke-width:7.68px;stroke-miterlimit:10;"/>
                        </g>
                    </g>
                </g>
                <g id="Right_hand_rule_cross_product.svg" transform="matrix(0.374753,0,0,0.374753,120,636.006)">
                    <g transform="matrix(1,0,0,1,-253.5,-229.5)">
                        <g transform="matrix(1,0,0,1,-22.1022,-13.4533)">
                            <path d="M488.896,329.397C466.896,326.397 431.896,306.397 426.896,303.397C421.896,300.397 398.896,275.397 386.896,256.397C374.896,237.397 363.896,214.397 359.896,201.397C355.896,188.397 351.896,175.397 350.896,168.397C349.896,161.397 351.896,144.897 354.896,137.897C347.896,132.897 333.896,131.897 327.896,144.897C321.896,157.897 316.896,177.897 316.896,190.897C316.896,203.897 338.896,245.897 324.896,251.897C310.896,257.897 307.896,265.897 235.896,247.897C163.896,229.897 133.896,227.897 126.896,241.897C119.896,255.897 160.896,261.897 182.896,265.897C204.896,269.897 254.917,288.531 247.896,297.897C243.546,303.699 238.521,302.385 227.187,306.385C207.576,313.307 207.879,316.351 183.396,324.73C158.963,333.092 160.553,356.956 168.229,360.96C175.905,364.964 182.245,367.302 214.615,348.947C228.965,343.607 246.397,340.062 261.73,338.729C277.063,337.396 286.398,394.729 303.064,403.396C319.73,412.063 339.063,411.396 351.063,411.396C363.063,411.396 369.729,413.397 376.396,410.063C383.063,406.729 401.73,411.395 411.73,416.729C411.73,416.729 450.397,435.396 453.73,439.396" style="fill:rgb(229,212,177);fill-rule:nonzero;stroke:black;stroke-width:3px;stroke-linecap:butt;stroke-linejoin:miter;stroke-miterlimit:4;"/>
                            <path d="M256.397,296.396C290.396,294.397 302.396,327.063 310.396,344.397" style="fill:none;fill-rule:nonzero;stroke:rgb(137,127,106);stroke-width:2px;stroke-linecap:butt;stroke-linejoin:miter;stroke-miterlimit:4;"/>
                            <path d="M328.063,271.062C328.397,296.396 339.064,317.73 353.396,325.728" style="fill:none;fill-rule:nonzero;stroke:rgb(137,127,106);stroke-width:2px;stroke-linecap:butt;stroke-linejoin:miter;stroke-miterlimit:4;"/>
                            <path d="M261.73,256.396C253.73,257.729 244.397,276.396 248.397,281.729" style="fill:none;fill-rule:nonzero;stroke:rgb(137,127,106);stroke-width:2px;stroke-linecap:butt;stroke-linejoin:miter;stroke-miterlimit:4;"/>
                            <path d="M219.063,245.729C213.73,249.729 203.063,259.062 205.73,264.396" style="fill:none;fill-rule:nonzero;stroke:rgb(137,127,106);stroke-width:2px;stroke-linecap:butt;stroke-linejoin:miter;stroke-miterlimit:4;"/>
                            <path d="M171.063,237.729C164.396,241.729 162.229,253.23 160.896,255.896" style="fill:none;fill-rule:nonzero;stroke:rgb(137,127,106);stroke-width:2px;stroke-linecap:butt;stroke-linejoin:miter;stroke-miterlimit:4;"/>
                            <path d="M244.397,305.73C252.397,309.73 256.397,323.062 253.73,332.396" style="fill:none;fill-rule:nonzero;stroke:rgb(137,127,106);stroke-width:2px;stroke-linecap:butt;stroke-linejoin:miter;stroke-miterlimit:4;"/>
                            <path d="M223.21,313.002C229.877,317.002 230.458,336.995 227.791,340.995" style="fill:none;fill-rule:nonzero;stroke:rgb(137,127,106);stroke-width:2px;stroke-linecap:butt;stroke-linejoin:miter;stroke-miterlimit:4;"/>
                            <path d="M197.762,324.199C206.41,330.684 207.353,339.733 202.851,350.665" style="fill:none;fill-rule:nonzero;stroke:rgb(137,127,106);stroke-width:2px;stroke-linecap:butt;stroke-linejoin:miter;stroke-miterlimit:4;"/>
                            <path d="M315.896,261.897C311.896,271.897 308.896,279.897 309.896,285.897" style="fill:none;fill-rule:nonzero;stroke:rgb(137,127,106);stroke-width:2px;stroke-linecap:butt;stroke-linejoin:miter;stroke-miterlimit:4;"/>
                            <path d="M316.896,190.897C328.843,192.604 319.573,194.149 341.896,189.897" style="fill:none;fill-rule:nonzero;stroke:rgb(137,127,106);stroke-width:2px;stroke-linecap:butt;stroke-linejoin:miter;stroke-miterlimit:4;"/>
                            <path d="M421.063,312.397C417.063,324.397 413.063,328.396 406.396,332.396" style="fill:none;fill-rule:nonzero;stroke:rgb(137,127,106);stroke-width:2px;stroke-linecap:butt;stroke-linejoin:miter;stroke-miterlimit:4;"/>
                            <path d="M321.73,400.064C337.635,396.883 349.064,394.731 357.73,392.064C366.396,389.397 379.062,382.063 382.396,375.397C385.73,368.731 383.063,367.398 381.063,362.731C379.063,358.064 357.064,360.731 351.73,362.731C346.396,364.731 341.73,366.731 319.73,370.064C297.73,373.397 291.73,375.064 280.396,373.73C271.104,372.636 281.731,396.063 286.397,398.73C291.063,401.397 291.73,406.064 321.73,400.064Z" style="fill:rgb(229,212,177);fill-rule:nonzero;stroke:black;stroke-width:3px;stroke-linecap:butt;stroke-linejoin:miter;stroke-miterlimit:4;"/>
                            <path d="M338.698,337.397C357.595,336.064 367.046,334.731 372.133,340.064C377.22,345.397 375.039,350.731 373.586,352.064C372.133,353.397 355.415,360.73 346.693,363.397C337.97,366.064 336.517,364.064 319.074,368.064C301.63,372.064 300.177,373.397 295.088,375.397C290,377.397 279.825,376.73 270.377,369.397C260.928,362.064 262.381,349.397 263.108,345.397C263.835,341.397 264.563,332.73 282.733,331.397C300.903,330.064 295.087,336.063 318.347,336.73C341.605,337.397 338.698,337.397 338.698,337.397Z" style="fill:rgb(229,212,177);fill-rule:nonzero;stroke:black;stroke-width:3px;stroke-linecap:butt;stroke-linejoin:miter;stroke-miterlimit:4;"/>
                            <path d="M267.729,344.064C265.806,361.369 268.838,362.23 278.396,369.397" style="fill:none;fill-rule:nonzero;stroke:rgb(137,127,106);stroke-width:2px;stroke-linecap:butt;stroke-linejoin:miter;stroke-miterlimit:4;"/>
                            <path d="M297.063,344.396C297.063,349.729 298.396,361.729 298.396,361.729" style="fill:none;fill-rule:nonzero;stroke:rgb(137,127,106);stroke-width:2px;stroke-linecap:butt;stroke-linejoin:miter;stroke-miterlimit:4;"/>
                            <path d="M330.063,342.729C330.063,345.396 331.397,356.062 331.397,360.062" style="fill:none;fill-rule:nonzero;stroke:rgb(137,127,106);stroke-width:2px;stroke-linecap:butt;stroke-linejoin:miter;stroke-miterlimit:4;"/>
                            <path d="M336.729,372.731C336.729,376.731 343.396,390.064 343.396,390.064" style="fill:none;fill-rule:nonzero;stroke:rgb(137,127,106);stroke-width:2px;stroke-linecap:butt;stroke-linejoin:miter;stroke-miterlimit:4;"/>
                            <path d="M304.396,380.397C305.729,383.064 307.063,395.063 311.063,396.397" style="fill:none;fill-rule:nonzero;stroke:rgb(137,127,106);stroke-width:2px;stroke-linecap:butt;stroke-linejoin:miter;stroke-miterlimit:4;"/>
                            <path d="M427.729,344.397C421.063,356.397 417.063,387.065 410.396,393.731" style="fill:none;fill-rule:nonzero;stroke:rgb(137,127,106);stroke-width:2px;stroke-linecap:butt;stroke-linejoin:miter;stroke-miterlimit:4;"/>
                        </g>
                    </g>
                </g>
                <g transform="matrix(1,0,0,1,-49.9961,4.30273)">
                    <g transform="matrix(12,0,0,12,77,613)">
                        <path d="M0.083,-0.288C0.083,-0.29 0.084,-0.296 0.087,-0.306C0.09,-0.316 0.094,-0.329 0.101,-0.344C0.108,-0.36 0.116,-0.375 0.125,-0.39C0.135,-0.404 0.147,-0.416 0.162,-0.427C0.177,-0.437 0.194,-0.442 0.211,-0.442C0.233,-0.442 0.251,-0.435 0.266,-0.42C0.28,-0.405 0.287,-0.386 0.287,-0.361C0.287,-0.347 0.283,-0.33 0.274,-0.307C0.235,-0.202 0.216,-0.129 0.216,-0.088C0.216,-0.037 0.234,-0.011 0.27,-0.011L0.27,-0.011C0.297,-0.011 0.32,-0.021 0.34,-0.042C0.359,-0.062 0.371,-0.081 0.376,-0.1L0.449,-0.394C0.455,-0.419 0.468,-0.431 0.488,-0.431C0.497,-0.431 0.504,-0.428 0.509,-0.423C0.514,-0.418 0.516,-0.412 0.516,-0.405C0.516,-0.403 0.516,-0.401 0.515,-0.398C0.514,-0.396 0.513,-0.393 0.513,-0.391L0.415,0.003C0.402,0.056 0.374,0.103 0.332,0.144C0.29,0.185 0.244,0.205 0.195,0.205C0.167,0.205 0.144,0.197 0.126,0.182C0.108,0.166 0.099,0.145 0.099,0.119C0.099,0.103 0.103,0.089 0.11,0.079C0.117,0.068 0.124,0.062 0.131,0.06C0.138,0.058 0.144,0.057 0.15,0.057C0.159,0.057 0.167,0.06 0.174,0.066C0.181,0.071 0.184,0.079 0.184,0.089C0.184,0.099 0.18,0.109 0.173,0.119C0.166,0.129 0.155,0.135 0.141,0.137C0.136,0.138 0.133,0.139 0.133,0.14C0.133,0.143 0.135,0.147 0.138,0.154C0.141,0.16 0.148,0.166 0.158,0.173C0.168,0.18 0.18,0.183 0.195,0.183C0.225,0.183 0.256,0.167 0.286,0.135C0.316,0.102 0.34,0.049 0.357,-0.026C0.332,-0.001 0.302,0.011 0.267,0.011C0.236,0.011 0.209,0.002 0.188,-0.017C0.166,-0.036 0.155,-0.065 0.155,-0.105C0.155,-0.142 0.172,-0.208 0.207,-0.301C0.223,-0.345 0.231,-0.375 0.231,-0.391C0.231,-0.41 0.224,-0.42 0.209,-0.42C0.169,-0.42 0.138,-0.378 0.116,-0.294C0.114,-0.286 0.112,-0.282 0.11,-0.28C0.108,-0.279 0.104,-0.278 0.098,-0.278C0.088,-0.278 0.083,-0.282 0.083,-0.288Z" style="fill-rule:nonzero;"/>
                    </g>
                </g>
                <g transform="matrix(1,0,0,1,-11.7441,98.3027)">
                    <g transform="matrix(12,0,0,12,43,603)">
                        <path d="M0.062,0.001C0.062,-0.005 0.073,-0.023 0.095,-0.054C0.117,-0.086 0.141,-0.113 0.166,-0.138L0.33,-0.301C0.337,-0.307 0.35,-0.322 0.37,-0.345C0.353,-0.345 0.333,-0.35 0.311,-0.36C0.284,-0.372 0.264,-0.378 0.251,-0.378C0.234,-0.378 0.218,-0.373 0.205,-0.364C0.191,-0.354 0.182,-0.343 0.177,-0.331C0.174,-0.325 0.172,-0.321 0.17,-0.32C0.169,-0.318 0.165,-0.317 0.159,-0.317C0.149,-0.317 0.144,-0.321 0.144,-0.328C0.144,-0.345 0.156,-0.368 0.178,-0.397C0.201,-0.427 0.229,-0.442 0.261,-0.442C0.283,-0.442 0.303,-0.429 0.322,-0.403C0.339,-0.379 0.354,-0.367 0.369,-0.367L0.369,-0.367C0.379,-0.367 0.387,-0.371 0.396,-0.379C0.404,-0.386 0.416,-0.403 0.431,-0.429C0.434,-0.435 0.437,-0.439 0.438,-0.44C0.44,-0.441 0.444,-0.442 0.45,-0.442C0.459,-0.442 0.464,-0.439 0.464,-0.433C0.464,-0.429 0.459,-0.42 0.45,-0.405C0.441,-0.389 0.427,-0.371 0.41,-0.349C0.392,-0.327 0.375,-0.307 0.357,-0.289L0.212,-0.146C0.198,-0.132 0.179,-0.112 0.156,-0.085C0.159,-0.086 0.165,-0.086 0.174,-0.086C0.189,-0.086 0.21,-0.08 0.236,-0.069C0.259,-0.058 0.278,-0.053 0.291,-0.053L0.292,-0.053C0.314,-0.053 0.336,-0.061 0.357,-0.077C0.378,-0.092 0.392,-0.112 0.401,-0.137C0.403,-0.144 0.405,-0.148 0.406,-0.15C0.408,-0.152 0.412,-0.153 0.418,-0.153C0.428,-0.153 0.433,-0.15 0.433,-0.143C0.433,-0.132 0.428,-0.115 0.417,-0.093C0.405,-0.07 0.388,-0.047 0.363,-0.023C0.338,-0 0.312,0.011 0.282,0.011C0.273,0.011 0.264,0.009 0.256,0.005C0.247,0 0.241,-0.004 0.237,-0.009C0.233,-0.013 0.227,-0.019 0.22,-0.028C0.21,-0.042 0.202,-0.051 0.196,-0.056C0.19,-0.061 0.182,-0.064 0.172,-0.064C0.163,-0.064 0.155,-0.062 0.147,-0.058C0.139,-0.054 0.131,-0.047 0.122,-0.037C0.114,-0.028 0.109,-0.021 0.107,-0.019C0.105,-0.016 0.1,-0.009 0.093,0.002C0.09,0.008 0.084,0.011 0.077,0.011C0.067,0.011 0.062,0.007 0.062,0.001Z" style="fill-rule:nonzero;"/>
                    </g>
                </g>
                <g transform="matrix(1,0,0,1,85.3613,-24.6973)">
                    <g transform="matrix(12,0,0,12,56,574)">
                        <path d="M0.053,-0.051C0.053,-0.067 0.058,-0.08 0.068,-0.09C0.078,-0.1 0.09,-0.105 0.103,-0.105C0.126,-0.105 0.137,-0.094 0.137,-0.073C0.137,-0.064 0.134,-0.054 0.128,-0.044C0.121,-0.035 0.111,-0.028 0.098,-0.025C0.109,-0.016 0.123,-0.011 0.14,-0.011L0.142,-0.011C0.156,-0.011 0.169,-0.015 0.179,-0.023C0.19,-0.031 0.2,-0.043 0.208,-0.06C0.215,-0.077 0.221,-0.091 0.225,-0.104C0.229,-0.118 0.234,-0.135 0.239,-0.156C0.247,-0.188 0.255,-0.219 0.262,-0.247C0.276,-0.304 0.283,-0.341 0.283,-0.357C0.283,-0.377 0.279,-0.392 0.27,-0.403C0.261,-0.414 0.25,-0.42 0.235,-0.42C0.213,-0.42 0.191,-0.409 0.168,-0.388C0.146,-0.367 0.129,-0.336 0.116,-0.295C0.114,-0.287 0.112,-0.282 0.11,-0.28C0.109,-0.279 0.105,-0.278 0.098,-0.278C0.088,-0.278 0.083,-0.281 0.083,-0.288C0.083,-0.295 0.087,-0.306 0.094,-0.322C0.101,-0.338 0.11,-0.355 0.122,-0.374C0.134,-0.392 0.15,-0.408 0.171,-0.421C0.192,-0.435 0.214,-0.442 0.237,-0.442C0.284,-0.442 0.316,-0.419 0.333,-0.374C0.341,-0.389 0.354,-0.404 0.37,-0.419C0.387,-0.434 0.407,-0.442 0.431,-0.442C0.451,-0.442 0.47,-0.437 0.49,-0.427C0.509,-0.418 0.518,-0.402 0.518,-0.379C0.518,-0.362 0.513,-0.349 0.502,-0.34C0.491,-0.331 0.48,-0.326 0.469,-0.326C0.457,-0.326 0.448,-0.33 0.443,-0.336C0.437,-0.343 0.434,-0.35 0.434,-0.358C0.434,-0.361 0.434,-0.365 0.435,-0.369C0.436,-0.374 0.439,-0.38 0.446,-0.389C0.453,-0.398 0.462,-0.403 0.474,-0.406C0.463,-0.415 0.449,-0.42 0.43,-0.42C0.391,-0.42 0.361,-0.384 0.342,-0.313C0.326,-0.248 0.315,-0.202 0.308,-0.176C0.295,-0.122 0.289,-0.088 0.289,-0.075C0.289,-0.052 0.294,-0.035 0.303,-0.026C0.312,-0.016 0.323,-0.011 0.336,-0.011C0.359,-0.011 0.381,-0.022 0.403,-0.043C0.425,-0.065 0.442,-0.096 0.455,-0.136C0.458,-0.144 0.46,-0.149 0.461,-0.151C0.463,-0.152 0.467,-0.153 0.473,-0.153C0.483,-0.153 0.488,-0.15 0.488,-0.143C0.488,-0.137 0.484,-0.126 0.478,-0.111C0.471,-0.095 0.462,-0.078 0.45,-0.059C0.438,-0.04 0.422,-0.024 0.401,-0.01C0.38,0.004 0.358,0.011 0.334,0.011C0.316,0.011 0.298,0.006 0.28,-0.004C0.261,-0.014 0.248,-0.032 0.239,-0.057C0.213,-0.012 0.18,0.011 0.141,0.011C0.117,0.011 0.096,0.006 0.079,-0.006C0.062,-0.017 0.053,-0.032 0.053,-0.051Z" style="fill-rule:nonzero;"/>
                    </g>
                </g>
            </g>
        </g>
    </g>
</svg>
